<svg width="2510" height="1190" xmlns="http://www.w3.org/2000/svg"><defs><clipPath id="rablfilter16"><rect x="549.5" y="55.5" width="1811" height="1082"></rect></clipPath></defs><g><rect x="0" y="0" width="2510" height="1190" fill="#ffffff" fill-opacity="1" stroke="#ffffff" stroke-opacity="0" stroke-width="0"></rect><text x="0" y="15" style="cursor: default; user-select: none; -webkit-font-smoothing: antialiased; font-family: Roboto; font-size: 16px;" fill="#757575" dx="0px">Relative Timing</text><rect x="2409.9013671875" y="55.5" width="12" height="12" rx="2" ry="2" fill="#4285f4"></rect><text x="2429.9013671875" y="68.5" style="cursor: default; user-select: none; -webkit-font-smoothing: antialiased; font-family: Roboto;" fill="#757575" dx="0px">Baseline</text><rect x="2409.9013671875" y="88.5" width="12" height="12" rx="2" ry="2" fill="#db4437"></rect><text x="2429.9013671875" y="101.5" style="cursor: default; user-select: none; -webkit-font-smoothing: antialiased; font-family: Roboto;" fill="#757575" dx="0px">New revision</text><rect x="549.5" y="55.5" width="1811" height="1082" fill="#ffffff" fill-opacity="1" stroke="#ffffff" stroke-opacity="0" stroke-width="1"></rect></g><g><line x1="549.5" x2="549.5" y1="55.5" y2="1137.5" stroke="#9E9E9E" stroke-width="1"></line><line x1="714.1363636363636" x2="714.1363636363636" y1="55.5" y2="1137.5" stroke="#E0E0E0" stroke-width="1"></line><line x1="878.7727272727273" x2="878.7727272727273" y1="55.5" y2="1137.5" stroke="#E0E0E0" stroke-width="1"></line><line x1="1043.409090909091" x2="1043.409090909091" y1="55.5" y2="1137.5" stroke="#E0E0E0" stroke-width="1"></line><line x1="1208.0454545454545" x2="1208.0454545454545" y1="55.5" y2="1137.5" stroke="#E0E0E0" stroke-width="1"></line><line x1="1372.681818181818" x2="1372.681818181818" y1="55.5" y2="1137.5" stroke="#E0E0E0" stroke-width="1"></line><line x1="1537.318181818182" x2="1537.318181818182" y1="55.5" y2="1137.5" stroke="#E0E0E0" stroke-width="1"></line><line x1="1701.9545454545455" x2="1701.9545454545455" y1="55.5" y2="1137.5" stroke="#E0E0E0" stroke-width="1"></line><line x1="1866.5909090909092" x2="1866.5909090909092" y1="55.5" y2="1137.5" stroke="#E0E0E0" stroke-width="1"></line><line x1="2031.2272727272725" x2="2031.2272727272725" y1="55.5" y2="1137.5" stroke="#E0E0E0" stroke-width="1"></line><line x1="2195.863636363636" x2="2195.863636363636" y1="55.5" y2="1137.5" stroke="#E0E0E0" stroke-width="1"></line><line x1="2360.5" x2="2360.5" y1="55.5" y2="1137.5" stroke="#E0E0E0" stroke-width="1"></line></g><g><path d="M 2193.363636363636 56 A 2 2 0 0 1 2195.363636363636 58 L 2195.363636363636 63.650842266462476 A 2 2 0 0 1 2193.363636363636 65.65084226646248 L 550 65.65084226646248 A 0 0 0 0 1 550 65.65084226646248 L 550 56 A 0 0 0 0 1 550 56 Z" fill="#4285f4" clip-path="url(#rablfilter16)"></path><path d="M 1547.2525872541669 66.65084226646248 A 2 2 0 0 1 1549.2525872541669 68.65084226646248 L 1549.2525872541669 74.30168453292495 A 2 2 0 0 1 1547.2525872541669 76.30168453292495 L 550 76.30168453292495 A 0 0 0 0 1 550 76.30168453292495 L 550 66.65084226646248 A 0 0 0 0 1 550 66.65084226646248 Z" fill="#db4437" clip-path="url(#rablfilter16)"></path><path d="M 2193.363636363636 88.77182235834609 A 2 2 0 0 1 2195.363636363636 90.77182235834609 L 2195.363636363636 96.42266462480856 A 2 2 0 0 1 2193.363636363636 98.42266462480856 L 550 98.42266462480856 A 0 0 0 0 1 550 98.42266462480856 L 550 88.77182235834609 A 0 0 0 0 1 550 88.77182235834609 Z" fill="#4285f4" clip-path="url(#rablfilter16)"></path><path d="M 1586.6107521982728 99.42266462480856 A 2 2 0 0 1 1588.6107521982728 101.42266462480856 L 1588.6107521982728 107.07350689127105 A 2 2 0 0 1 1586.6107521982728 109.07350689127105 L 550 109.07350689127105 A 0 0 0 0 1 550 109.07350689127105 L 550 99.42266462480856 A 0 0 0 0 1 550 99.42266462480856 Z" fill="#db4437" clip-path="url(#rablfilter16)"></path><path d="M 2193.363636363636 121.54364471669217 A 2 2 0 0 1 2195.363636363636 123.54364471669217 L 2195.363636363636 129.19448698315466 A 2 2 0 0 1 2193.363636363636 131.19448698315466 L 550 131.19448698315466 A 0 0 0 0 1 550 131.19448698315466 L 550 121.54364471669217 A 0 0 0 0 1 550 121.54364471669217 Z" fill="#4285f4" clip-path="url(#rablfilter16)"></path><path d="M 1684.4771500865247 132.19448698315466 A 2 2 0 0 1 1686.4771500865247 134.19448698315466 L 1686.4771500865247 139.84532924961715 A 2 2 0 0 1 1684.4771500865247 141.84532924961715 L 550 141.84532924961715 A 0 0 0 0 1 550 141.84532924961715 L 550 132.19448698315466 A 0 0 0 0 1 550 132.19448698315466 Z" fill="#db4437" clip-path="url(#rablfilter16)"></path><path d="M 2193.363636363636 154.31546707503827 A 2 2 0 0 1 2195.363636363636 156.31546707503827 L 2195.363636363636 161.96630934150073 A 2 2 0 0 1 2193.363636363636 163.96630934150073 L 550 163.96630934150073 A 0 0 0 0 1 550 163.96630934150073 L 550 154.31546707503827 A 0 0 0 0 1 550 154.31546707503827 Z" fill="#4285f4" clip-path="url(#rablfilter16)"></path><path d="M 1707.462215025241 164.96630934150073 A 2 2 0 0 1 1709.462215025241 166.96630934150073 L 1709.462215025241 172.61715160796325 A 2 2 0 0 1 1707.462215025241 174.61715160796325 L 550 174.61715160796325 A 0 0 0 0 1 550 174.61715160796325 L 550 164.96630934150073 A 0 0 0 0 1 550 164.96630934150073 Z" fill="#db4437" clip-path="url(#rablfilter16)"></path><path d="M 2193.363636363636 187.08728943338434 A 2 2 0 0 1 2195.363636363636 189.08728943338434 L 2195.363636363636 194.73813169984686 A 2 2 0 0 1 2193.363636363636 196.73813169984686 L 550 196.73813169984686 A 0 0 0 0 1 550 196.73813169984686 L 550 187.08728943338434 A 0 0 0 0 1 550 187.08728943338434 Z" fill="#4285f4" clip-path="url(#rablfilter16)"></path><path d="M 1822.6578492670153 197.73813169984686 A 2 2 0 0 1 1824.6578492670153 199.73813169984686 L 1824.6578492670153 205.38897396630932 A 2 2 0 0 1 1822.6578492670153 207.38897396630932 L 550 207.38897396630932 A 0 0 0 0 1 550 207.38897396630932 L 550 197.73813169984686 A 0 0 0 0 1 550 197.73813169984686 Z" fill="#db4437" clip-path="url(#rablfilter16)"></path><path d="M 2193.363636363636 219.85911179173044 A 2 2 0 0 1 2195.363636363636 221.85911179173044 L 2195.363636363636 227.50995405819293 A 2 2 0 0 1 2193.363636363636 229.50995405819293 L 550 229.50995405819293 A 0 0 0 0 1 550 229.50995405819293 L 550 219.85911179173044 A 0 0 0 0 1 550 219.85911179173044 Z" fill="#4285f4" clip-path="url(#rablfilter16)"></path><path d="M 1916.1981366399746 230.50995405819293 A 2 2 0 0 1 1918.1981366399746 232.50995405819293 L 1918.1981366399746 238.16079632465542 A 2 2 0 0 1 1916.1981366399746 240.16079632465542 L 550 240.16079632465542 A 0 0 0 0 1 550 240.16079632465542 L 550 230.50995405819293 A 0 0 0 0 1 550 230.50995405819293 Z" fill="#db4437" clip-path="url(#rablfilter16)"></path><path d="M 2193.363636363636 252.63093415007654 A 2 2 0 0 1 2195.363636363636 254.63093415007654 L 2195.363636363636 260.281776416539 A 2 2 0 0 1 2193.363636363636 262.281776416539 L 550 262.281776416539 A 0 0 0 0 1 550 262.281776416539 L 550 252.63093415007654 A 0 0 0 0 1 550 252.63093415007654 Z" fill="#4285f4" clip-path="url(#rablfilter16)"></path><path d="M 1924.5128263226402 263.281776416539 A 2 2 0 0 1 1926.5128263226402 265.281776416539 L 1926.5128263226402 270.93261868300146 A 2 2 0 0 1 1924.5128263226402 272.93261868300146 L 550 272.93261868300146 A 0 0 0 0 1 550 272.93261868300146 L 550 263.281776416539 A 0 0 0 0 1 550 263.281776416539 Z" fill="#db4437" clip-path="url(#rablfilter16)"></path><path d="M 2193.363636363636 285.4027565084226 A 2 2 0 0 1 2195.363636363636 287.4027565084226 L 2195.363636363636 293.05359877488513 A 2 2 0 0 1 2193.363636363636 295.05359877488513 L 550 295.05359877488513 A 0 0 0 0 1 550 295.05359877488513 L 550 285.4027565084226 A 0 0 0 0 1 550 285.4027565084226 Z" fill="#4285f4" clip-path="url(#rablfilter16)"></path><path d="M 1930.935116855238 296.05359877488513 A 2 2 0 0 1 1932.935116855238 298.05359877488513 L 1932.935116855238 303.7044410413476 A 2 2 0 0 1 1930.935116855238 305.7044410413476 L 550 305.7044410413476 A 0 0 0 0 1 550 305.7044410413476 L 550 296.05359877488513 A 0 0 0 0 1 550 296.05359877488513 Z" fill="#db4437" clip-path="url(#rablfilter16)"></path><path d="M 2193.363636363636 318.1745788667687 A 2 2 0 0 1 2195.363636363636 320.1745788667687 L 2195.363636363636 325.8254211332312 A 2 2 0 0 1 2193.363636363636 327.8254211332312 L 550 327.8254211332312 A 0 0 0 0 1 550 327.8254211332312 L 550 318.1745788667687 A 0 0 0 0 1 550 318.1745788667687 Z" fill="#4285f4" clip-path="url(#rablfilter16)"></path><path d="M 1935.182916525951 328.8254211332312 A 2 2 0 0 1 1937.182916525951 330.8254211332312 L 1937.182916525951 336.47626339969366 A 2 2 0 0 1 1935.182916525951 338.47626339969366 L 550 338.47626339969366 A 0 0 0 0 1 550 338.47626339969366 L 550 328.8254211332312 A 0 0 0 0 1 550 328.8254211332312 Z" fill="#db4437" clip-path="url(#rablfilter16)"></path><path d="M 2193.363636363636 350.9464012251148 A 2 2 0 0 1 2195.363636363636 352.9464012251148 L 2195.363636363636 358.5972434915773 A 2 2 0 0 1 2193.363636363636 360.5972434915773 L 550 360.5972434915773 A 0 0 0 0 1 550 360.5972434915773 L 550 350.9464012251148 A 0 0 0 0 1 550 350.9464012251148 Z" fill="#4285f4" clip-path="url(#rablfilter16)"></path><path d="M 1945.3336192757763 361.5972434915773 A 2 2 0 0 1 1947.3336192757763 363.5972434915773 L 1947.3336192757763 369.24808575803974 A 2 2 0 0 1 1945.3336192757763 371.24808575803974 L 550 371.24808575803974 A 0 0 0 0 1 550 371.24808575803974 L 550 361.5972434915773 A 0 0 0 0 1 550 361.5972434915773 Z" fill="#db4437" clip-path="url(#rablfilter16)"></path><path d="M 2193.363636363636 383.7182235834609 A 2 2 0 0 1 2195.363636363636 385.7182235834609 L 2195.363636363636 391.36906584992335 A 2 2 0 0 1 2193.363636363636 393.36906584992335 L 550 393.36906584992335 A 0 0 0 0 1 550 393.36906584992335 L 550 383.7182235834609 A 0 0 0 0 1 550 383.7182235834609 Z" fill="#4285f4" clip-path="url(#rablfilter16)"></path><path d="M 1955.0289849963403 394.36906584992335 A 2 2 0 0 1 1957.0289849963403 396.36906584992335 L 1957.0289849963403 402.0199081163858 A 2 2 0 0 1 1955.0289849963403 404.0199081163858 L 550 404.0199081163858 A 0 0 0 0 1 550 404.0199081163858 L 550 394.36906584992335 A 0 0 0 0 1 550 394.36906584992335 Z" fill="#db4437" clip-path="url(#rablfilter16)"></path><path d="M 2193.363636363636 416.490045941807 A 2 2 0 0 1 2195.363636363636 418.490045941807 L 2195.363636363636 424.1408882082694 A 2 2 0 0 1 2193.363636363636 426.1408882082694 L 550 426.1408882082694 A 0 0 0 0 1 550 426.1408882082694 L 550 416.490045941807 A 0 0 0 0 1 550 416.490045941807 Z" fill="#4285f4" clip-path="url(#rablfilter16)"></path><path d="M 1955.701374430704 427.1408882082694 A 2 2 0 0 1 1957.701374430704 429.1408882082694 L 1957.701374430704 434.7917304747319 A 2 2 0 0 1 1955.701374430704 436.7917304747319 L 550 436.7917304747319 A 0 0 0 0 1 550 436.7917304747319 L 550 427.1408882082694 A 0 0 0 0 1 550 427.1408882082694 Z" fill="#db4437" clip-path="url(#rablfilter16)"></path><path d="M 2193.363636363636 449.2618683001531 A 2 2 0 0 1 2195.363636363636 451.2618683001531 L 2195.363636363636 456.9127105666155 A 2 2 0 0 1 2193.363636363636 458.9127105666155 L 550 458.9127105666155 A 0 0 0 0 1 550 458.9127105666155 L 550 449.2618683001531 A 0 0 0 0 1 550 449.2618683001531 Z" fill="#4285f4" clip-path="url(#rablfilter16)"></path><path d="M 1963.1532236757582 459.9127105666155 A 2 2 0 0 1 1965.1532236757582 461.9127105666155 L 1965.1532236757582 467.56355283307795 A 2 2 0 0 1 1963.1532236757582 469.56355283307795 L 550 469.56355283307795 A 0 0 0 0 1 550 469.56355283307795 L 550 459.9127105666155 A 0 0 0 0 1 550 459.9127105666155 Z" fill="#db4437" clip-path="url(#rablfilter16)"></path><path d="M 2193.363636363636 482.03369065849915 A 2 2 0 0 1 2195.363636363636 484.03369065849915 L 2195.363636363636 489.6845329249616 A 2 2 0 0 1 2193.363636363636 491.6845329249616 L 550 491.6845329249616 A 0 0 0 0 1 550 491.6845329249616 L 550 482.03369065849915 A 0 0 0 0 1 550 482.03369065849915 Z" fill="#4285f4" clip-path="url(#rablfilter16)"></path><path d="M 1965.9534831147373 492.6845329249616 A 2 2 0 0 1 1967.9534831147373 494.6845329249616 L 1967.9534831147373 500.3353751914241 A 2 2 0 0 1 1965.9534831147373 502.3353751914241 L 550 502.3353751914241 A 0 0 0 0 1 550 502.3353751914241 L 550 492.6845329249616 A 0 0 0 0 1 550 492.6845329249616 Z" fill="#db4437" clip-path="url(#rablfilter16)"></path><path d="M 2193.363636363636 514.8055130168452 A 2 2 0 0 1 2195.363636363636 516.8055130168452 L 2195.363636363636 522.4563552833077 A 2 2 0 0 1 2193.363636363636 524.4563552833077 L 550 524.4563552833077 A 0 0 0 0 1 550 524.4563552833077 L 550 514.8055130168452 A 0 0 0 0 1 550 514.8055130168452 Z" fill="#4285f4" clip-path="url(#rablfilter16)"></path><path d="M 1979.7807356842993 525.4563552833077 A 2 2 0 0 1 1981.7807356842993 527.4563552833077 L 1981.7807356842993 533.1071975497701 A 2 2 0 0 1 1979.7807356842993 535.1071975497701 L 550 535.1071975497701 A 0 0 0 0 1 550 535.1071975497701 L 550 525.4563552833077 A 0 0 0 0 1 550 525.4563552833077 Z" fill="#db4437" clip-path="url(#rablfilter16)"></path><path d="M 2193.363636363636 547.5773353751913 A 2 2 0 0 1 2195.363636363636 549.5773353751913 L 2195.363636363636 555.2281776416538 A 2 2 0 0 1 2193.363636363636 557.2281776416538 L 550 557.2281776416538 A 0 0 0 0 1 550 557.2281776416538 L 550 547.5773353751913 A 0 0 0 0 1 550 547.5773353751913 Z" fill="#4285f4" clip-path="url(#rablfilter16)"></path><path d="M 1987.5022268152102 558.2281776416538 A 2 2 0 0 1 1989.5022268152102 560.2281776416538 L 1989.5022268152102 565.8790199081162 A 2 2 0 0 1 1987.5022268152102 567.8790199081162 L 550 567.8790199081162 A 0 0 0 0 1 550 567.8790199081162 L 550 558.2281776416538 A 0 0 0 0 1 550 558.2281776416538 Z" fill="#db4437" clip-path="url(#rablfilter16)"></path><path d="M 2193.363636363636 580.3491577335374 A 2 2 0 0 1 2195.363636363636 582.3491577335374 L 2195.363636363636 587.9999999999999 A 2 2 0 0 1 2193.363636363636 589.9999999999999 L 550 589.9999999999999 A 0 0 0 0 1 550 589.9999999999999 L 550 580.3491577335374 A 0 0 0 0 1 550 580.3491577335374 Z" fill="#4285f4" clip-path="url(#rablfilter16)"></path><path d="M 1994.4377728691761 590.9999999999999 A 2 2 0 0 1 1996.4377728691761 592.9999999999999 L 1996.4377728691761 598.6508422664624 A 2 2 0 0 1 1994.4377728691761 600.6508422664624 L 550 600.6508422664624 A 0 0 0 0 1 550 600.6508422664624 L 550 590.9999999999999 A 0 0 0 0 1 550 590.9999999999999 Z" fill="#db4437" clip-path="url(#rablfilter16)"></path><path d="M 2193.363636363636 613.1209800918836 A 2 2 0 0 1 2195.363636363636 615.1209800918836 L 2195.363636363636 620.7718223583461 A 2 2 0 0 1 2193.363636363636 622.7718223583461 L 550 622.7718223583461 A 0 0 0 0 1 550 622.7718223583461 L 550 613.1209800918836 A 0 0 0 0 1 550 613.1209800918836 Z" fill="#4285f4" clip-path="url(#rablfilter16)"></path><path d="M 1999.6322380583554 623.7718223583461 A 2 2 0 0 1 2001.6322380583554 625.7718223583461 L 2001.6322380583554 631.4226646248084 A 2 2 0 0 1 1999.6322380583554 633.4226646248084 L 550 633.4226646248084 A 0 0 0 0 1 550 633.4226646248084 L 550 623.7718223583461 A 0 0 0 0 1 550 623.7718223583461 Z" fill="#db4437" clip-path="url(#rablfilter16)"></path><path d="M 2193.363636363636 645.8928024502296 A 2 2 0 0 1 2195.363636363636 647.8928024502296 L 2195.363636363636 653.543644716692 A 2 2 0 0 1 2193.363636363636 655.543644716692 L 550 655.543644716692 A 0 0 0 0 1 550 655.543644716692 L 550 645.8928024502296 A 0 0 0 0 1 550 645.8928024502296 Z" fill="#4285f4" clip-path="url(#rablfilter16)"></path><path d="M 2012.1912809035437 656.543644716692 A 2 2 0 0 1 2014.1912809035437 658.543644716692 L 2014.1912809035437 664.1944869831545 A 2 2 0 0 1 2012.1912809035437 666.1944869831545 L 550 666.1944869831545 A 0 0 0 0 1 550 666.1944869831545 L 550 656.543644716692 A 0 0 0 0 1 550 656.543644716692 Z" fill="#db4437" clip-path="url(#rablfilter16)"></path><path d="M 2193.363636363636 678.6646248085757 A 2 2 0 0 1 2195.363636363636 680.6646248085757 L 2195.363636363636 686.3154670750382 A 2 2 0 0 1 2193.363636363636 688.3154670750382 L 550 688.3154670750382 A 0 0 0 0 1 550 688.3154670750382 L 550 678.6646248085757 A 0 0 0 0 1 550 678.6646248085757 Z" fill="#4285f4" clip-path="url(#rablfilter16)"></path><path d="M 2014.5856229885378 689.3154670750382 A 2 2 0 0 1 2016.5856229885378 691.3154670750382 L 2016.5856229885378 696.9663093415006 A 2 2 0 0 1 2014.5856229885378 698.9663093415006 L 550 698.9663093415006 A 0 0 0 0 1 550 698.9663093415006 L 550 689.3154670750382 A 0 0 0 0 1 550 689.3154670750382 Z" fill="#db4437" clip-path="url(#rablfilter16)"></path><path d="M 2193.363636363636 711.4364471669218 A 2 2 0 0 1 2195.363636363636 713.4364471669218 L 2195.363636363636 719.0872894333842 A 2 2 0 0 1 2193.363636363636 721.0872894333842 L 550 721.0872894333842 A 0 0 0 0 1 550 721.0872894333842 L 550 711.4364471669218 A 0 0 0 0 1 550 711.4364471669218 Z" fill="#4285f4" clip-path="url(#rablfilter16)"></path><path d="M 2024.0467459928875 722.0872894333842 A 2 2 0 0 1 2026.0467459928875 724.0872894333842 L 2026.0467459928875 729.7381316998467 A 2 2 0 0 1 2024.0467459928875 731.7381316998467 L 550 731.7381316998467 A 0 0 0 0 1 550 731.7381316998467 L 550 722.0872894333842 A 0 0 0 0 1 550 722.0872894333842 Z" fill="#db4437" clip-path="url(#rablfilter16)"></path><path d="M 2193.363636363636 744.2082695252678 A 2 2 0 0 1 2195.363636363636 746.2082695252678 L 2195.363636363636 751.8591117917304 A 2 2 0 0 1 2193.363636363636 753.8591117917304 L 550 753.8591117917304 A 0 0 0 0 1 550 753.8591117917304 L 550 744.2082695252678 A 0 0 0 0 1 550 744.2082695252678 Z" fill="#4285f4" clip-path="url(#rablfilter16)"></path><path d="M 2029.8099649927285 754.8591117917304 A 2 2 0 0 1 2031.8099649927285 756.8591117917304 L 2031.8099649927285 762.5099540581928 A 2 2 0 0 1 2029.8099649927285 764.5099540581928 L 550 764.5099540581928 A 0 0 0 0 1 550 764.5099540581928 L 550 754.8591117917304 A 0 0 0 0 1 550 754.8591117917304 Z" fill="#db4437" clip-path="url(#rablfilter16)"></path><path d="M 2193.363636363636 776.980091883614 A 2 2 0 0 1 2195.363636363636 778.980091883614 L 2195.363636363636 784.6309341500763 A 2 2 0 0 1 2193.363636363636 786.6309341500763 L 550 786.6309341500763 A 0 0 0 0 1 550 786.6309341500763 L 550 776.980091883614 A 0 0 0 0 1 550 776.980091883614 Z" fill="#4285f4" clip-path="url(#rablfilter16)"></path><path d="M 2037.9491626670497 787.6309341500763 A 2 2 0 0 1 2039.9491626670497 789.6309341500763 L 2039.9491626670497 795.2817764165388 A 2 2 0 0 1 2037.9491626670497 797.2817764165388 L 550 797.2817764165388 A 0 0 0 0 1 550 797.2817764165388 L 550 787.6309341500763 A 0 0 0 0 1 550 787.6309341500763 Z" fill="#db4437" clip-path="url(#rablfilter16)"></path><path d="M 2193.363636363636 809.75191424196 A 2 2 0 0 1 2195.363636363636 811.75191424196 L 2195.363636363636 817.4027565084225 A 2 2 0 0 1 2193.363636363636 819.4027565084225 L 550 819.4027565084225 A 0 0 0 0 1 550 819.4027565084225 L 550 809.75191424196 A 0 0 0 0 1 550 809.75191424196 Z" fill="#4285f4" clip-path="url(#rablfilter16)"></path><path d="M 2039.712019217683 820.4027565084225 A 2 2 0 0 1 2041.712019217683 822.4027565084225 L 2041.712019217683 828.053598774885 A 2 2 0 0 1 2039.712019217683 830.053598774885 L 550 830.053598774885 A 0 0 0 0 1 550 830.053598774885 L 550 820.4027565084225 A 0 0 0 0 1 550 820.4027565084225 Z" fill="#db4437" clip-path="url(#rablfilter16)"></path><path d="M 2193.363636363636 842.5237366003062 A 2 2 0 0 1 2195.363636363636 844.5237366003062 L 2195.363636363636 850.1745788667687 A 2 2 0 0 1 2193.363636363636 852.1745788667687 L 550 852.1745788667687 A 0 0 0 0 1 550 852.1745788667687 L 550 842.5237366003062 A 0 0 0 0 1 550 842.5237366003062 Z" fill="#4285f4" clip-path="url(#rablfilter16)"></path><path d="M 2063.0182991347124 853.1745788667687 A 2 2 0 0 1 2065.0182991347124 855.1745788667687 L 2065.0182991347124 860.825421133231 A 2 2 0 0 1 2063.0182991347124 862.825421133231 L 550 862.825421133231 A 0 0 0 0 1 550 862.825421133231 L 550 853.1745788667687 A 0 0 0 0 1 550 853.1745788667687 Z" fill="#db4437" clip-path="url(#rablfilter16)"></path><path d="M 2193.363636363636 875.2955589586522 A 2 2 0 0 1 2195.363636363636 877.2955589586522 L 2195.363636363636 882.9464012251146 A 2 2 0 0 1 2193.363636363636 884.9464012251146 L 550 884.9464012251146 A 0 0 0 0 1 550 884.9464012251146 L 550 875.2955589586522 A 0 0 0 0 1 550 875.2955589586522 Z" fill="#4285f4" clip-path="url(#rablfilter16)"></path><path d="M 2065.871233455376 885.9464012251146 A 2 2 0 0 1 2067.871233455376 887.9464012251146 L 2067.871233455376 893.5972434915772 A 2 2 0 0 1 2065.871233455376 895.5972434915772 L 550 895.5972434915772 A 0 0 0 0 1 550 895.5972434915772 L 550 885.9464012251146 A 0 0 0 0 1 550 885.9464012251146 Z" fill="#db4437" clip-path="url(#rablfilter16)"></path><path d="M 2193.363636363636 908.0673813169983 A 2 2 0 0 1 2195.363636363636 910.0673813169983 L 2195.363636363636 915.7182235834608 A 2 2 0 0 1 2193.363636363636 917.7182235834608 L 550 917.7182235834608 A 0 0 0 0 1 550 917.7182235834608 L 550 908.0673813169983 A 0 0 0 0 1 550 908.0673813169983 Z" fill="#4285f4" clip-path="url(#rablfilter16)"></path><path d="M 2066.4778455658643 918.7182235834608 A 2 2 0 0 1 2068.4778455658643 920.7182235834608 L 2068.4778455658643 926.3690658499232 A 2 2 0 0 1 2066.4778455658643 928.3690658499232 L 550 928.3690658499232 A 0 0 0 0 1 550 928.3690658499232 L 550 918.7182235834608 A 0 0 0 0 1 550 918.7182235834608 Z" fill="#db4437" clip-path="url(#rablfilter16)"></path><path d="M 2193.363636363636 940.8392036753444 A 2 2 0 0 1 2195.363636363636 942.8392036753444 L 2195.363636363636 948.4900459418068 A 2 2 0 0 1 2193.363636363636 950.4900459418068 L 550 950.4900459418068 A 0 0 0 0 1 550 950.4900459418068 L 550 940.8392036753444 A 0 0 0 0 1 550 940.8392036753444 Z" fill="#4285f4" clip-path="url(#rablfilter16)"></path><path d="M 2087.2170745071817 951.4900459418068 A 2 2 0 0 1 2089.2170745071817 953.4900459418068 L 2089.2170745071817 959.1408882082693 A 2 2 0 0 1 2087.2170745071817 961.1408882082693 L 550 961.1408882082693 A 0 0 0 0 1 550 961.1408882082693 L 550 951.4900459418068 A 0 0 0 0 1 550 951.4900459418068 Z" fill="#db4437" clip-path="url(#rablfilter16)"></path><path d="M 2193.363636363636 973.6110260336905 A 2 2 0 0 1 2195.363636363636 975.6110260336905 L 2195.363636363636 981.261868300153 A 2 2 0 0 1 2193.363636363636 983.261868300153 L 550 983.261868300153 A 0 0 0 0 1 550 983.261868300153 L 550 973.6110260336905 A 0 0 0 0 1 550 973.6110260336905 Z" fill="#4285f4" clip-path="url(#rablfilter16)"></path><path d="M 2099.0077604671465 984.261868300153 A 2 2 0 0 1 2101.0077604671465 986.261868300153 L 2101.0077604671465 991.9127105666155 A 2 2 0 0 1 2099.0077604671465 993.9127105666155 L 550 993.9127105666155 A 0 0 0 0 1 550 993.9127105666155 L 550 984.261868300153 A 0 0 0 0 1 550 984.261868300153 Z" fill="#db4437" clip-path="url(#rablfilter16)"></path><path d="M 2193.363636363636 1006.3828483920366 A 2 2 0 0 1 2195.363636363636 1008.3828483920366 L 2195.363636363636 1014.033690658499 A 2 2 0 0 1 2193.363636363636 1016.033690658499 L 550 1016.033690658499 A 0 0 0 0 1 550 1016.033690658499 L 550 1006.3828483920366 A 0 0 0 0 1 550 1006.3828483920366 Z" fill="#4285f4" clip-path="url(#rablfilter16)"></path><path d="M 2103.218245616522 1017.033690658499 A 2 2 0 0 1 2105.218245616522 1019.033690658499 L 2105.218245616522 1024.6845329249613 A 2 2 0 0 1 2103.218245616522 1026.6845329249613 L 550 1026.6845329249613 A 0 0 0 0 1 550 1026.6845329249613 L 550 1017.033690658499 A 0 0 0 0 1 550 1017.033690658499 Z" fill="#db4437" clip-path="url(#rablfilter16)"></path><path d="M 2193.363636363636 1039.1546707503826 A 2 2 0 0 1 2195.363636363636 1041.1546707503826 L 2195.363636363636 1046.805513016845 A 2 2 0 0 1 2193.363636363636 1048.805513016845 L 550 1048.805513016845 A 0 0 0 0 1 550 1048.805513016845 L 550 1039.1546707503826 A 0 0 0 0 1 550 1039.1546707503826 Z" fill="#4285f4" clip-path="url(#rablfilter16)"></path><path d="M 2157.1050866780515 1049.805513016845 A 2 2 0 0 1 2159.1050866780515 1051.805513016845 L 2159.1050866780515 1057.4563552833076 A 2 2 0 0 1 2157.1050866780515 1059.4563552833076 L 550 1059.4563552833076 A 0 0 0 0 1 550 1059.4563552833076 L 550 1049.805513016845 A 0 0 0 0 1 550 1049.805513016845 Z" fill="#db4437" clip-path="url(#rablfilter16)"></path><path d="M 2193.363636363636 1071.9264931087287 A 2 2 0 0 1 2195.363636363636 1073.9264931087287 L 2195.363636363636 1079.5773353751913 A 2 2 0 0 1 2193.363636363636 1081.5773353751913 L 550 1081.5773353751913 A 0 0 0 0 1 550 1081.5773353751913 L 550 1071.9264931087287 A 0 0 0 0 1 550 1071.9264931087287 Z" fill="#4285f4" clip-path="url(#rablfilter16)"></path><path d="M 2204.636492410253 1082.5773353751913 A 2 2 0 0 1 2206.636492410253 1084.5773353751913 L 2206.636492410253 1090.2281776416537 A 2 2 0 0 1 2204.636492410253 1092.2281776416537 L 550 1092.2281776416537 A 0 0 0 0 1 550 1092.2281776416537 L 550 1082.5773353751913 A 0 0 0 0 1 550 1082.5773353751913 Z" fill="#db4437" clip-path="url(#rablfilter16)"></path><path d="M 2193.363636363636 1104.6983154670747 A 2 2 0 0 1 2195.363636363636 1106.6983154670747 L 2195.363636363636 1112.3491577335374 A 2 2 0 0 1 2193.363636363636 1114.3491577335374 L 550 1114.3491577335374 A 0 0 0 0 1 550 1114.3491577335374 L 550 1104.6983154670747 A 0 0 0 0 1 550 1104.6983154670747 Z" fill="#4285f4" clip-path="url(#rablfilter16)"></path><path d="M 2283.3828997141118 1115.3491577335374 A 2 2 0 0 1 2285.3828997141118 1117.3491577335374 L 2285.3828997141118 1123 A 2 2 0 0 1 2283.3828997141118 1125 L 550 1125 A 0 0 0 0 1 550 1125 L 550 1115.3491577335374 A 0 0 0 0 1 550 1115.3491577335374 Z" fill="#db4437" clip-path="url(#rablfilter16)"></path></g><g></g><g><text x="549.5" y="1154.5" style="cursor: default; user-select: none; -webkit-font-smoothing: antialiased; font-family: Roboto; font-size: 12px;" fill="#757575" dx="-3.375px">0</text><text x="714.1363636363636" y="1154.5" style="cursor: default; user-select: none; -webkit-font-smoothing: antialiased; font-family: Roboto; font-size: 12px;" fill="#757575" dx="-8.3203125px">0.1</text><text x="878.7727272727273" y="1154.5" style="cursor: default; user-select: none; -webkit-font-smoothing: antialiased; font-family: Roboto; font-size: 12px;" fill="#757575" dx="-8.3203125px">0.2</text><text x="1043.409090909091" y="1154.5" style="cursor: default; user-select: none; -webkit-font-smoothing: antialiased; font-family: Roboto; font-size: 12px;" fill="#757575" dx="-8.3203125px">0.3</text><text x="1208.0454545454545" y="1154.5" style="cursor: default; user-select: none; -webkit-font-smoothing: antialiased; font-family: Roboto; font-size: 12px;" fill="#757575" dx="-8.3203125px">0.4</text><text x="1372.681818181818" y="1154.5" style="cursor: default; user-select: none; -webkit-font-smoothing: antialiased; font-family: Roboto; font-size: 12px;" fill="#757575" dx="-8.3203125px">0.5</text><text x="1537.318181818182" y="1154.5" style="cursor: default; user-select: none; -webkit-font-smoothing: antialiased; font-family: Roboto; font-size: 12px;" fill="#757575" dx="-8.3203125px">0.6</text><text x="1701.9545454545455" y="1154.5" style="cursor: default; user-select: none; -webkit-font-smoothing: antialiased; font-family: Roboto; font-size: 12px;" fill="#757575" dx="-8.3203125px">0.7</text><text x="1866.5909090909092" y="1154.5" style="cursor: default; user-select: none; -webkit-font-smoothing: antialiased; font-family: Roboto; font-size: 12px;" fill="#757575" dx="-8.3203125px">0.8</text><text x="2031.2272727272725" y="1154.5" style="cursor: default; user-select: none; -webkit-font-smoothing: antialiased; font-family: Roboto; font-size: 12px;" fill="#757575" dx="-8.3203125px">0.9</text><text x="2195.863636363636" y="1154.5" style="cursor: default; user-select: none; -webkit-font-smoothing: antialiased; font-family: Roboto; font-size: 12px;" fill="#757575" dx="-3.375px">1</text><text x="2360.5" y="1154.5" style="cursor: default; user-select: none; -webkit-font-smoothing: antialiased; font-family: Roboto; font-size: 12px;" fill="#757575" dx="-8.3203125px">1.1</text><text x="1457.41015625" y="1186.5" style="cursor: default; user-select: none; -webkit-font-smoothing: antialiased; font-family: Roboto; font-size: 12px;" fill="#424242" dx="-33.625px">Render Time</text><text x="543.5" y="70.15084377364761" style="cursor: default; user-select: none; -webkit-font-smoothing: antialiased; font-family: Roboto; font-size: 12px;" fill="#757575" dx="-220.109375px">StormTrooper-render_cam-debug-embree</text><text x="543.5" y="102.9226684219804" style="cursor: default; user-select: none; -webkit-font-smoothing: antialiased; font-family: Roboto; font-size: 12px;" fill="#757575" dx="-381.578125px">Intel_mooreLane-MASTER_cameraExtended-ambient_occlusion-embree</text><text x="543.5" y="135.6944854409187" style="cursor: default; user-select: none; -webkit-font-smoothing: antialiased; font-family: Roboto; font-size: 12px;" fill="#757575" dx="-287.40625px">StormTrooper-render_cam-ambient_occlusion-embree</text><text x="543.5" y="168.46631008925146" style="cursor: default; user-select: none; -webkit-font-smoothing: antialiased; font-family: Roboto; font-size: 12px;" fill="#757575" dx="-239.671875px">StormTrooper-render_cam-raytracing-embree</text><text x="543.5" y="201.23813473758435" style="cursor: default; user-select: none; -webkit-font-smoothing: antialiased; font-family: Roboto; font-size: 12px;" fill="#757575" dx="-463.390625px">CameraTestGround-VariantCamera-raytracing-embree-realistic_panavision_anamorphic</text><text x="543.5" y="234.0099593859171" style="cursor: default; user-select: none; -webkit-font-smoothing: antialiased; font-family: Roboto; font-size: 12px;" fill="#757575" dx="-415.171875px">Intel_Sponza_Candles_Thin_Lens-PhysCamera002-ambient_occlusion-embree</text><text x="543.5" y="266.7817840342499" style="cursor: default; user-select: none; -webkit-font-smoothing: antialiased; font-family: Roboto; font-size: 12px;" fill="#757575" dx="-306.8125px">Intel_Sponza-PhysCamera001-ambient_occlusion-embree</text><text x="543.5" y="299.55360868258276" style="cursor: default; user-select: none; -webkit-font-smoothing: antialiased; font-family: Roboto; font-size: 12px;" fill="#757575" dx="-510.65625px">CameraTestGround-VariantCamera-raytracing-embree-realistic_double_gauss_angenieux_50mm</text><text x="543.5" y="332.32543333091553" style="cursor: default; user-select: none; -webkit-font-smoothing: antialiased; font-family: Roboto; font-size: 12px;" fill="#757575" dx="-214.828125px">Blenderman-Camera_001-debug-embree</text><text x="543.5" y="365.0972579792483" style="cursor: default; user-select: none; -webkit-font-smoothing: antialiased; font-family: Roboto; font-size: 12px;" fill="#757575" dx="-223.484375px">CornellBox-render_cam-raytracing-embree</text><text x="543.5" y="397.86905211000294" style="cursor: default; user-select: none; -webkit-font-smoothing: antialiased; font-family: Roboto; font-size: 12px;" fill="#757575" dx="-456.921875px">CameraTestGround-VariantCamera-raytracing-embree-realistic_realistic_canon_60mm</text><text x="543.5" y="430.6408767583357" style="cursor: default; user-select: none; -webkit-font-smoothing: antialiased; font-family: Roboto; font-size: 12px;" fill="#757575" dx="-452.5px">CameraTestGround-VariantCamera-raytracing-embree-realistic_petzval_kodak_50mm</text><text x="543.5" y="463.4127014066685" style="cursor: default; user-select: none; -webkit-font-smoothing: antialiased; font-family: Roboto; font-size: 12px;" fill="#757575" dx="-438.671875px">CameraTestGround-VariantCamera-raytracing-embree-realistic_canon_anamorphic</text><text x="543.5" y="496.18452605500136" style="cursor: default; user-select: none; -webkit-font-smoothing: antialiased; font-family: Roboto; font-size: 12px;" fill="#757575" dx="-475.109375px">CameraTestGround-VariantCamera-raytracing-embree-realistic_canon_70_200mm_70mm</text><text x="543.5" y="528.9563507033342" style="cursor: default; user-select: none; -webkit-font-smoothing: antialiased; font-family: Roboto; font-size: 12px;" fill="#757575" dx="-257.390625px">EmperorCrown-CameraShape-raytracing-embree</text><text x="543.5" y="561.7282058692451" style="cursor: default; user-select: none; -webkit-font-smoothing: antialiased; font-family: Roboto; font-size: 12px;" fill="#757575" dx="-445.9375px">CameraTestGround-VariantCamera-raytracing-embree-realistic_navarro_anamorphic</text><text x="543.5" y="594.4999999999998" style="cursor: default; user-select: none; -webkit-font-smoothing: antialiased; font-family: Roboto; font-size: 12px;" fill="#757575" dx="-461.75px">CameraTestGround-VariantCamera-raytracing-embree-realistic_brendel_tessar_100mm</text><text x="543.5" y="627.2717941307546" style="cursor: default; user-select: none; -webkit-font-smoothing: antialiased; font-family: Roboto; font-size: 12px;" fill="#757575" dx="-456.921875px">CameraTestGround-VariantCamera-raytracing-embree-realistic_realistic_canon_50mm</text><text x="543.5" y="660.0436492966653" style="cursor: default; user-select: none; -webkit-font-smoothing: antialiased; font-family: Roboto; font-size: 12px;" fill="#757575" dx="-305.140625px">EmperorCrown-CameraShape-ambient_occlusion-embree</text><text x="543.5" y="692.8154434274202" style="cursor: default; user-select: none; -webkit-font-smoothing: antialiased; font-family: Roboto; font-size: 12px;" fill="#757575" dx="-287.859375px">DailyDweeb-CameraShape-ambient_occlusion-embree</text><text x="543.5" y="725.5872985933308" style="cursor: default; user-select: none; -webkit-font-smoothing: antialiased; font-family: Roboto; font-size: 12px;" fill="#757575" dx="-271.21875px">CornellBox-render_cam-ambient_occlusion-embree</text><text x="543.5" y="758.3590927240857" style="cursor: default; user-select: none; -webkit-font-smoothing: antialiased; font-family: Roboto; font-size: 12px;" fill="#757575" dx="-220.5625px">DailyDweeb-CameraShape-debug-embree</text><text x="543.5" y="791.1309478899964" style="cursor: default; user-select: none; -webkit-font-smoothing: antialiased; font-family: Roboto; font-size: 12px;" fill="#757575" dx="-457.9375px">CameraTestGround-VariantCamera-raytracing-embree-realistic_schneider_anamorphic</text><text x="543.5" y="823.9027420207512" style="cursor: default; user-select: none; -webkit-font-smoothing: antialiased; font-family: Roboto; font-size: 12px;" fill="#757575" dx="-240.125px">DailyDweeb-CameraShape-raytracing-embree</text><text x="543.5" y="856.6745971866624" style="cursor: default; user-select: none; -webkit-font-smoothing: antialiased; font-family: Roboto; font-size: 12px;" fill="#757575" dx="-282.125px">Blenderman-Camera_001-ambient_occlusion-embree</text><text x="543.5" y="889.4463913174168" style="cursor: default; user-select: none; -webkit-font-smoothing: antialiased; font-family: Roboto; font-size: 12px;" fill="#757575" dx="-337.578125px">OpenChessSet-render_cam_7Shape-ambient_occlusion-embree</text><text x="543.5" y="922.2182464833279" style="cursor: default; user-select: none; -webkit-font-smoothing: antialiased; font-family: Roboto; font-size: 12px;" fill="#757575" dx="-237.84375px">EmperorCrown-CameraShape-debug-embree</text><text x="543.5" y="954.9900406140823" style="cursor: default; user-select: none; -webkit-font-smoothing: antialiased; font-family: Roboto; font-size: 12px;" fill="#757575" dx="-289.828125px">OpenChessSet-render_cam_7Shape-raytracing-embree</text><text x="543.5" y="987.7618957799934" style="cursor: default; user-select: none; -webkit-font-smoothing: antialiased; font-family: Roboto; font-size: 12px;" fill="#757575" dx="-336.921875px">CameraTestGround-VariantCamera-raytracing-embree-thin_lens</text><text x="543.5" y="1020.5336899107481" style="cursor: default; user-select: none; -webkit-font-smoothing: antialiased; font-family: Roboto; font-size: 12px;" fill="#757575" dx="-307.453125px">HsdLogo-render_cam_1Shape-ambient_occlusion-embree</text><text x="543.5" y="1053.3054840415025" style="cursor: default; user-select: none; -webkit-font-smoothing: antialiased; font-family: Roboto; font-size: 12px;" fill="#757575" dx="-259.078125px">Intel_Sponza-PhysCamera001-raytracing-embree</text><text x="543.5" y="1086.0772781722576" style="cursor: default; user-select: none; -webkit-font-smoothing: antialiased; font-family: Roboto; font-size: 12px;" fill="#757575" dx="-367.4375px">Intel_Sponza_Candles_Thin_Lens-PhysCamera002-raytracing-embree</text><text x="543.5" y="1118.8491943733247" style="cursor: default; user-select: none; -webkit-font-smoothing: antialiased; font-family: Roboto; font-size: 12px;" fill="#757575" dx="-259.71875px">HsdLogo-render_cam_1Shape-raytracing-embree</text><text x="14.84375" y="587.5" style="cursor: default; user-select: none; -webkit-font-smoothing: antialiased; font-family: Roboto; font-size: 12px;" fill="#424242" dx="-16.375px" transform="rotate(-90 14.84375 590.5)">Scene</text></g><g></g><g></g><g></g></svg>