<svg width="2510" height="1190" xmlns="http://www.w3.org/2000/svg"><defs><clipPath id="rablfilter22"><rect x="549.5" y="55.5" width="1807" height="1082"></rect></clipPath></defs><g><rect x="0" y="0" width="2510" height="1190" fill="#ffffff" fill-opacity="1" stroke="#ffffff" stroke-opacity="0" stroke-width="0"></rect><text x="0" y="15" style="cursor: default; user-select: none; -webkit-font-smoothing: antialiased; font-family: Roboto; font-size: 16px;" fill="#757575" dx="0px">Absolute Timing</text><rect x="2409.9013671875" y="55.5" width="12" height="12" rx="2" ry="2" fill="#4285f4"></rect><text x="2429.9013671875" y="68.5" style="cursor: default; user-select: none; -webkit-font-smoothing: antialiased; font-family: Roboto;" fill="#757575" dx="0px">Baseline</text><rect x="2409.9013671875" y="88.5" width="12" height="12" rx="2" ry="2" fill="#db4437"></rect><text x="2429.9013671875" y="101.5" style="cursor: default; user-select: none; -webkit-font-smoothing: antialiased; font-family: Roboto;" fill="#757575" dx="0px">New revision</text><rect x="549.5" y="55.5" width="1807" height="1082" fill="#ffffff" fill-opacity="1" stroke="#ffffff" stroke-opacity="0" stroke-width="1"></rect></g><g><line x1="549.5" x2="549.5" y1="55.5" y2="1137.5" stroke="#9E9E9E" stroke-width="1"></line><line x1="678.5714285714286" x2="678.5714285714286" y1="55.5" y2="1137.5" stroke="#E0E0E0" stroke-width="1"></line><line x1="807.6428571428571" x2="807.6428571428571" y1="55.5" y2="1137.5" stroke="#E0E0E0" stroke-width="1"></line><line x1="936.7142857142857" x2="936.7142857142857" y1="55.5" y2="1137.5" stroke="#E0E0E0" stroke-width="1"></line><line x1="1065.7857142857142" x2="1065.7857142857142" y1="55.5" y2="1137.5" stroke="#E0E0E0" stroke-width="1"></line><line x1="1194.857142857143" x2="1194.857142857143" y1="55.5" y2="1137.5" stroke="#E0E0E0" stroke-width="1"></line><line x1="1323.9285714285713" x2="1323.9285714285713" y1="55.5" y2="1137.5" stroke="#E0E0E0" stroke-width="1"></line><line x1="1453" x2="1453" y1="55.5" y2="1137.5" stroke="#E0E0E0" stroke-width="1"></line><line x1="1582.0714285714284" x2="1582.0714285714284" y1="55.5" y2="1137.5" stroke="#E0E0E0" stroke-width="1"></line><line x1="1711.1428571428573" x2="1711.1428571428573" y1="55.5" y2="1137.5" stroke="#E0E0E0" stroke-width="1"></line><line x1="1840.2142857142858" x2="1840.2142857142858" y1="55.5" y2="1137.5" stroke="#E0E0E0" stroke-width="1"></line><line x1="1969.2857142857142" x2="1969.2857142857142" y1="55.5" y2="1137.5" stroke="#E0E0E0" stroke-width="1"></line><line x1="2098.3571428571427" x2="2098.3571428571427" y1="55.5" y2="1137.5" stroke="#E0E0E0" stroke-width="1"></line><line x1="2227.4285714285716" x2="2227.4285714285716" y1="55.5" y2="1137.5" stroke="#E0E0E0" stroke-width="1"></line><line x1="2356.5" x2="2356.5" y1="55.5" y2="1137.5" stroke="#E0E0E0" stroke-width="1"></line></g><g><path d="M 2253.7888305650004 56 A 2 2 0 0 1 2255.7888305650004 58 L 2255.7888305650004 63.650842266462476 A 2 2 0 0 1 2253.7888305650004 65.65084226646248 L 550 65.65084226646248 A 0 0 0 0 1 550 65.65084226646248 L 550 56 A 0 0 0 0 1 550 56 Z" fill="#4285f4" clip-path="url(#rablfilter22)"></path><path d="M 2015.1291855285715 66.65084226646248 A 2 2 0 0 1 2017.1291855285715 68.65084226646248 L 2017.1291855285715 74.30168453292495 A 2 2 0 0 1 2015.1291855285715 76.30168453292495 L 550 76.30168453292495 A 0 0 0 0 1 550 76.30168453292495 L 550 66.65084226646248 A 0 0 0 0 1 550 66.65084226646248 Z" fill="#db4437" clip-path="url(#rablfilter22)"></path><path d="M 2180.3234385650003 88.77182235834609 A 2 2 0 0 1 2182.3234385650003 90.77182235834609 L 2182.3234385650003 96.42266462480856 A 2 2 0 0 1 2180.3234385650003 98.42266462480856 L 550 98.42266462480856 A 0 0 0 0 1 550 98.42266462480856 L 550 88.77182235834609 A 0 0 0 0 1 550 88.77182235834609 Z" fill="#4285f4" clip-path="url(#rablfilter22)"></path><path d="M 1976.092576145 99.42266462480856 A 2 2 0 0 1 1978.092576145 101.42266462480856 L 1978.092576145 107.07350689127105 A 2 2 0 0 1 1976.092576145 109.07350689127105 L 550 109.07350689127105 A 0 0 0 0 1 550 109.07350689127105 L 550 99.42266462480856 A 0 0 0 0 1 550 99.42266462480856 Z" fill="#db4437" clip-path="url(#rablfilter22)"></path><path d="M 1981.6603342314286 121.54364471669217 A 2 2 0 0 1 1983.6603342314286 123.54364471669217 L 1983.6603342314286 129.19448698315466 A 2 2 0 0 1 1981.6603342314286 131.19448698315466 L 550 131.19448698315466 A 0 0 0 0 1 550 131.19448698315466 L 550 121.54364471669217 A 0 0 0 0 1 550 121.54364471669217 Z" fill="#4285f4" clip-path="url(#rablfilter22)"></path><path d="M 1783.4924937485714 132.19448698315466 A 2 2 0 0 1 1785.4924937485714 134.19448698315466 L 1785.4924937485714 139.84532924961715 A 2 2 0 0 1 1783.4924937485714 141.84532924961715 L 550 141.84532924961715 A 0 0 0 0 1 550 141.84532924961715 L 550 132.19448698315466 A 0 0 0 0 1 550 132.19448698315466 Z" fill="#db4437" clip-path="url(#rablfilter22)"></path><path d="M 1613.8977878464286 154.31546707503827 A 2 2 0 0 1 1615.8977878464286 156.31546707503827 L 1615.8977878464286 161.96630934150073 A 2 2 0 0 1 1613.8977878464286 163.96630934150073 L 550 163.96630934150073 A 0 0 0 0 1 550 163.96630934150073 L 550 154.31546707503827 A 0 0 0 0 1 550 154.31546707503827 Z" fill="#4285f4" clip-path="url(#rablfilter22)"></path><path d="M 1443.8354755192856 164.96630934150073 A 2 2 0 0 1 1445.8354755192856 166.96630934150073 L 1445.8354755192856 172.61715160796325 A 2 2 0 0 1 1443.8354755192856 174.61715160796325 L 550 174.61715160796325 A 0 0 0 0 1 550 174.61715160796325 L 550 164.96630934150073 A 0 0 0 0 1 550 164.96630934150073 Z" fill="#db4437" clip-path="url(#rablfilter22)"></path><path d="M 1909.0969088628572 187.08728943338434 A 2 2 0 0 1 1911.0969088628572 189.08728943338434 L 1911.0969088628572 194.73813169984686 A 2 2 0 0 1 1909.0969088628572 196.73813169984686 L 550 196.73813169984686 A 0 0 0 0 1 550 196.73813169984686 L 550 187.08728943338434 A 0 0 0 0 1 550 187.08728943338434 Z" fill="#4285f4" clip-path="url(#rablfilter22)"></path><path d="M 1744.5182594235714 197.73813169984686 A 2 2 0 0 1 1746.5182594235714 199.73813169984686 L 1746.5182594235714 205.38897396630932 A 2 2 0 0 1 1744.5182594235714 207.38897396630932 L 550 207.38897396630932 A 0 0 0 0 1 550 207.38897396630932 L 550 197.73813169984686 A 0 0 0 0 1 550 197.73813169984686 Z" fill="#db4437" clip-path="url(#rablfilter22)"></path><path d="M 1563.722635565 219.85911179173044 A 2 2 0 0 1 1565.722635565 221.85911179173044 L 1565.722635565 227.50995405819293 A 2 2 0 0 1 1563.722635565 229.50995405819293 L 550 229.50995405819293 A 0 0 0 0 1 550 229.50995405819293 L 550 219.85911179173044 A 0 0 0 0 1 550 219.85911179173044 Z" fill="#4285f4" clip-path="url(#rablfilter22)"></path><path d="M 1416.9527507171429 230.50995405819293 A 2 2 0 0 1 1418.9527507171429 232.50995405819293 L 1418.9527507171429 238.16079632465542 A 2 2 0 0 1 1416.9527507171429 240.16079632465542 L 550 240.16079632465542 A 0 0 0 0 1 550 240.16079632465542 L 550 230.50995405819293 A 0 0 0 0 1 550 230.50995405819293 Z" fill="#db4437" clip-path="url(#rablfilter22)"></path><path d="M 1527.0672456064285 252.63093415007654 A 2 2 0 0 1 1529.0672456064285 254.63093415007654 L 1529.0672456064285 260.281776416539 A 2 2 0 0 1 1527.0672456064285 262.281776416539 L 550 262.281776416539 A 0 0 0 0 1 550 262.281776416539 L 550 252.63093415007654 A 0 0 0 0 1 550 252.63093415007654 Z" fill="#4285f4" clip-path="url(#rablfilter22)"></path><path d="M 1385.1885135092857 263.281776416539 A 2 2 0 0 1 1387.1885135092857 265.281776416539 L 1387.1885135092857 270.93261868300146 A 2 2 0 0 1 1385.1885135092857 272.93261868300146 L 550 272.93261868300146 A 0 0 0 0 1 550 272.93261868300146 L 550 263.281776416539 A 0 0 0 0 1 550 263.281776416539 Z" fill="#db4437" clip-path="url(#rablfilter22)"></path><path d="M 1849.299537082143 285.4027565084226 A 2 2 0 0 1 1851.299537082143 287.4027565084226 L 1851.299537082143 293.05359877488513 A 2 2 0 0 1 1849.299537082143 295.05359877488513 L 550 295.05359877488513 A 0 0 0 0 1 550 295.05359877488513 L 550 285.4027565084226 A 0 0 0 0 1 550 285.4027565084226 Z" fill="#4285f4" clip-path="url(#rablfilter22)"></path><path d="M 1727.7586906607144 296.05359877488513 A 2 2 0 0 1 1729.7586906607144 298.05359877488513 L 1729.7586906607144 303.7044410413476 A 2 2 0 0 1 1727.7586906607144 305.7044410413476 L 550 305.7044410413476 A 0 0 0 0 1 550 305.7044410413476 L 550 296.05359877488513 A 0 0 0 0 1 550 296.05359877488513 Z" fill="#db4437" clip-path="url(#rablfilter22)"></path><path d="M 1072.2942468985714 318.1745788667687 A 2 2 0 0 1 1074.2942468985714 320.1745788667687 L 1074.2942468985714 325.8254211332312 A 2 2 0 0 1 1072.2942468985714 327.8254211332312 L 550 327.8254211332312 A 0 0 0 0 1 550 327.8254211332312 L 550 318.1745788667687 A 0 0 0 0 1 550 318.1745788667687 Z" fill="#4285f4" clip-path="url(#rablfilter22)"></path><path d="M 954.015627915 328.8254211332312 A 2 2 0 0 1 956.015627915 330.8254211332312 L 956.015627915 336.47626339969366 A 2 2 0 0 1 954.015627915 338.47626339969366 L 550 338.47626339969366 A 0 0 0 0 1 550 338.47626339969366 L 550 328.8254211332312 A 0 0 0 0 1 550 328.8254211332312 Z" fill="#db4437" clip-path="url(#rablfilter22)"></path><path d="M 1790.2191919364286 350.9464012251148 A 2 2 0 0 1 1792.2191919364286 352.9464012251148 L 1792.2191919364286 358.5972434915773 A 2 2 0 0 1 1790.2191919364286 360.5972434915773 L 550 360.5972434915773 A 0 0 0 0 1 550 360.5972434915773 L 550 350.9464012251148 A 0 0 0 0 1 550 350.9464012251148 Z" fill="#4285f4" clip-path="url(#rablfilter22)"></path><path d="M 1672.8610019614287 361.5972434915773 A 2 2 0 0 1 1674.8610019614287 363.5972434915773 L 1674.8610019614287 369.24808575803974 A 2 2 0 0 1 1672.8610019614287 371.24808575803974 L 550 371.24808575803974 A 0 0 0 0 1 550 371.24808575803974 L 550 361.5972434915773 A 0 0 0 0 1 550 361.5972434915773 Z" fill="#db4437" clip-path="url(#rablfilter22)"></path><path d="M 910.4665962014286 383.7182235834609 A 2 2 0 0 1 912.4665962014286 385.7182235834609 L 912.4665962014286 391.36906584992335 A 2 2 0 0 1 910.4665962014286 393.36906584992335 L 550 393.36906584992335 A 0 0 0 0 1 550 393.36906584992335 L 550 383.7182235834609 A 0 0 0 0 1 550 383.7182235834609 Z" fill="#4285f4" clip-path="url(#rablfilter22)"></path><path d="M 798.1200678071428 394.36906584992335 A 2 2 0 0 1 800.1200678071428 396.36906584992335 L 800.1200678071428 402.0199081163858 A 2 2 0 0 1 798.1200678071428 404.0199081163858 L 550 404.0199081163858 A 0 0 0 0 1 550 404.0199081163858 L 550 394.36906584992335 A 0 0 0 0 1 550 394.36906584992335 Z" fill="#db4437" clip-path="url(#rablfilter22)"></path><path d="M 1480.308104207143 416.490045941807 A 2 2 0 0 1 1482.308104207143 418.490045941807 L 1482.308104207143 424.1408882082694 A 2 2 0 0 1 1480.308104207143 426.1408882082694 L 550 426.1408882082694 A 0 0 0 0 1 550 426.1408882082694 L 550 416.490045941807 A 0 0 0 0 1 550 416.490045941807 Z" fill="#4285f4" clip-path="url(#rablfilter22)"></path><path d="M 1370.4835915150002 427.1408882082694 A 2 2 0 0 1 1372.4835915150002 429.1408882082694 L 1372.4835915150002 434.7917304747319 A 2 2 0 0 1 1370.4835915150002 436.7917304747319 L 550 436.7917304747319 A 0 0 0 0 1 550 436.7917304747319 L 550 427.1408882082694 A 0 0 0 0 1 550 427.1408882082694 Z" fill="#db4437" clip-path="url(#rablfilter22)"></path><path d="M 802.5590781807143 449.2618683001531 A 2 2 0 0 1 804.5590781807143 451.2618683001531 L 804.5590781807143 456.9127105666155 A 2 2 0 0 1 802.5590781807143 458.9127105666155 L 550 458.9127105666155 A 0 0 0 0 1 550 458.9127105666155 L 550 449.2618683001531 A 0 0 0 0 1 550 449.2618683001531 Z" fill="#4285f4" clip-path="url(#rablfilter22)"></path><path d="M 702.2655947328572 459.9127105666155 A 2 2 0 0 1 704.2655947328572 461.9127105666155 L 704.2655947328572 467.56355283307795 A 2 2 0 0 1 702.2655947328572 469.56355283307795 L 550 469.56355283307795 A 0 0 0 0 1 550 469.56355283307795 L 550 459.9127105666155 A 0 0 0 0 1 550 459.9127105666155 Z" fill="#db4437" clip-path="url(#rablfilter22)"></path><path d="M 841.0934035185714 482.03369065849915 A 2 2 0 0 1 843.0934035185714 484.03369065849915 L 843.0934035185714 489.6845329249616 A 2 2 0 0 1 841.0934035185714 491.6845329249616 L 550 491.6845329249616 A 0 0 0 0 1 550 491.6845329249616 L 550 482.03369065849915 A 0 0 0 0 1 550 482.03369065849915 Z" fill="#4285f4" clip-path="url(#rablfilter22)"></path><path d="M 754.2958093421429 492.6845329249616 A 2 2 0 0 1 756.2958093421429 494.6845329249616 L 756.2958093421429 500.3353751914241 A 2 2 0 0 1 754.2958093421429 502.3353751914241 L 550 502.3353751914241 A 0 0 0 0 1 550 502.3353751914241 L 550 492.6845329249616 A 0 0 0 0 1 550 492.6845329249616 Z" fill="#db4437" clip-path="url(#rablfilter22)"></path><path d="M 1851.2365675114286 514.8055130168452 A 2 2 0 0 1 1853.2365675114286 516.8055130168452 L 1853.2365675114286 522.4563552833077 A 2 2 0 0 1 1851.2365675114286 524.4563552833077 L 550 524.4563552833077 A 0 0 0 0 1 550 524.4563552833077 L 550 514.8055130168452 A 0 0 0 0 1 550 514.8055130168452 Z" fill="#4285f4" clip-path="url(#rablfilter22)"></path><path d="M 1776.4885707835715 525.4563552833077 A 2 2 0 0 1 1778.4885707835715 527.4563552833077 L 1778.4885707835715 533.1071975497701 A 2 2 0 0 1 1776.4885707835715 535.1071975497701 L 550 535.1071975497701 A 0 0 0 0 1 550 535.1071975497701 L 550 525.4563552833077 A 0 0 0 0 1 550 525.4563552833077 Z" fill="#db4437" clip-path="url(#rablfilter22)"></path><path d="M 944.6053630621429 547.5773353751913 A 2 2 0 0 1 946.6053630621429 549.5773353751913 L 946.6053630621429 555.2281776416538 A 2 2 0 0 1 944.6053630621429 557.2281776416538 L 550 557.2281776416538 A 0 0 0 0 1 550 557.2281776416538 L 550 547.5773353751913 A 0 0 0 0 1 550 547.5773353751913 Z" fill="#4285f4" clip-path="url(#rablfilter22)"></path><path d="M 893.02398402 558.2281776416538 A 2 2 0 0 1 895.02398402 560.2281776416538 L 895.02398402 565.8790199081162 A 2 2 0 0 1 893.02398402 567.8790199081162 L 550 567.8790199081162 A 0 0 0 0 1 550 567.8790199081162 L 550 558.2281776416538 A 0 0 0 0 1 550 558.2281776416538 Z" fill="#db4437" clip-path="url(#rablfilter22)"></path><path d="M 790.1779091392857 580.3491577335374 A 2 2 0 0 1 792.1779091392857 582.3491577335374 L 792.1779091392857 587.9999999999999 A 2 2 0 0 1 790.1779091392857 589.9999999999999 L 550 589.9999999999999 A 0 0 0 0 1 550 589.9999999999999 L 550 580.3491577335374 A 0 0 0 0 1 550 580.3491577335374 Z" fill="#4285f4" clip-path="url(#rablfilter22)"></path><path d="M 753.5423690757143 590.9999999999999 A 2 2 0 0 1 755.5423690757143 592.9999999999999 L 755.5423690757143 598.6508422664624 A 2 2 0 0 1 753.5423690757143 600.6508422664624 L 550 600.6508422664624 A 0 0 0 0 1 550 600.6508422664624 L 550 590.9999999999999 A 0 0 0 0 1 550 590.9999999999999 Z" fill="#db4437" clip-path="url(#rablfilter22)"></path><path d="M 595.76503918 613.1209800918836 A 2 2 0 0 1 597.76503918 615.1209800918836 L 597.76503918 620.7718223583461 A 2 2 0 0 1 595.76503918 622.7718223583461 L 550 622.7718223583461 A 0 0 0 0 1 550 622.7718223583461 L 550 613.1209800918836 A 0 0 0 0 1 550 613.1209800918836 Z" fill="#4285f4" clip-path="url(#rablfilter22)"></path><path d="M 577.7931115235714 623.7718223583461 A 2 2 0 0 1 579.7931115235714 625.7718223583461 L 579.7931115235714 631.4226646248084 A 2 2 0 0 1 577.7931115235714 633.4226646248084 L 550 633.4226646248084 A 0 0 0 0 1 550 633.4226646248084 L 550 623.7718223583461 A 0 0 0 0 1 550 623.7718223583461 Z" fill="#db4437" clip-path="url(#rablfilter22)"></path><path d="M 1269.5513077528572 645.8928024502296 A 2 2 0 0 1 1271.5513077528572 647.8928024502296 L 1271.5513077528572 653.543644716692 A 2 2 0 0 1 1269.5513077528572 655.543644716692 L 550 655.543644716692 A 0 0 0 0 1 550 655.543644716692 L 550 645.8928024502296 A 0 0 0 0 1 550 645.8928024502296 Z" fill="#4285f4" clip-path="url(#rablfilter22)"></path><path d="M 1253.6382604078572 656.543644716692 A 2 2 0 0 1 1255.6382604078572 658.543644716692 L 1255.6382604078572 664.1944869831545 A 2 2 0 0 1 1253.6382604078572 666.1944869831545 L 550 666.1944869831545 A 0 0 0 0 1 550 666.1944869831545 L 550 656.543644716692 A 0 0 0 0 1 550 656.543644716692 Z" fill="#db4437" clip-path="url(#rablfilter22)"></path><path d="M 687.5693953857143 678.6646248085757 A 2 2 0 0 1 689.5693953857143 680.6646248085757 L 689.5693953857143 686.3154670750382 A 2 2 0 0 1 687.5693953857143 688.3154670750382 L 550 688.3154670750382 A 0 0 0 0 1 550 688.3154670750382 L 550 678.6646248085757 A 0 0 0 0 1 550 678.6646248085757 Z" fill="#4285f4" clip-path="url(#rablfilter22)"></path><path d="M 672.3050171564286 689.3154670750382 A 2 2 0 0 1 674.3050171564286 691.3154670750382 L 674.3050171564286 696.9663093415006 A 2 2 0 0 1 672.3050171564286 698.9663093415006 L 550 698.9663093415006 A 0 0 0 0 1 550 698.9663093415006 L 550 689.3154670750382 A 0 0 0 0 1 550 689.3154670750382 Z" fill="#db4437" clip-path="url(#rablfilter22)"></path><path d="M 722.9210826007143 711.4364471669218 A 2 2 0 0 1 724.9210826007143 713.4364471669218 L 724.9210826007143 719.0872894333842 A 2 2 0 0 1 722.9210826007143 721.0872894333842 L 550 721.0872894333842 A 0 0 0 0 1 550 721.0872894333842 L 550 711.4364471669218 A 0 0 0 0 1 550 711.4364471669218 Z" fill="#4285f4" clip-path="url(#rablfilter22)"></path><path d="M 708.9931189778572 722.0872894333842 A 2 2 0 0 1 710.9931189778572 724.0872894333842 L 710.9931189778572 729.7381316998467 A 2 2 0 0 1 708.9931189778572 731.7381316998467 L 550 731.7381316998467 A 0 0 0 0 1 550 731.7381316998467 L 550 722.0872894333842 A 0 0 0 0 1 550 722.0872894333842 Z" fill="#db4437" clip-path="url(#rablfilter22)"></path><path d="M 621.7104162907143 744.2082695252678 A 2 2 0 0 1 623.7104162907143 746.2082695252678 L 623.7104162907143 751.8591117917304 A 2 2 0 0 1 621.7104162907143 753.8591117917304 L 550 753.8591117917304 A 0 0 0 0 1 550 753.8591117917304 L 550 744.2082695252678 A 0 0 0 0 1 550 744.2082695252678 Z" fill="#4285f4" clip-path="url(#rablfilter22)"></path><path d="M 609.9944207285714 754.8591117917304 A 2 2 0 0 1 611.9944207285714 756.8591117917304 L 611.9944207285714 762.5099540581928 A 2 2 0 0 1 609.9944207285714 764.5099540581928 L 550 764.5099540581928 A 0 0 0 0 1 550 764.5099540581928 L 550 754.8591117917304 A 0 0 0 0 1 550 754.8591117917304 Z" fill="#db4437" clip-path="url(#rablfilter22)"></path><path d="M 712.4416416621428 776.980091883614 A 2 2 0 0 1 714.4416416621428 778.980091883614 L 714.4416416621428 784.6309341500763 A 2 2 0 0 1 712.4416416621428 786.6309341500763 L 550 786.6309341500763 A 0 0 0 0 1 550 786.6309341500763 L 550 776.980091883614 A 0 0 0 0 1 550 776.980091883614 Z" fill="#4285f4" clip-path="url(#rablfilter22)"></path><path d="M 701.7750665128572 787.6309341500763 A 2 2 0 0 1 703.7750665128572 789.6309341500763 L 703.7750665128572 795.2817764165388 A 2 2 0 0 1 701.7750665128572 797.2817764165388 L 550 797.2817764165388 A 0 0 0 0 1 550 797.2817764165388 L 550 787.6309341500763 A 0 0 0 0 1 550 787.6309341500763 Z" fill="#db4437" clip-path="url(#rablfilter22)"></path><path d="M 608.8784123657143 809.75191424196 A 2 2 0 0 1 610.8784123657143 811.75191424196 L 610.8784123657143 817.4027565084225 A 2 2 0 0 1 608.8784123657143 819.4027565084225 L 550 819.4027565084225 A 0 0 0 0 1 550 819.4027565084225 L 550 809.75191424196 A 0 0 0 0 1 550 809.75191424196 Z" fill="#4285f4" clip-path="url(#rablfilter22)"></path><path d="M 598.4611748207143 820.4027565084225 A 2 2 0 0 1 600.4611748207143 822.4027565084225 L 600.4611748207143 828.053598774885 A 2 2 0 0 1 598.4611748207143 830.053598774885 L 550 830.053598774885 A 0 0 0 0 1 550 830.053598774885 L 550 820.4027565084225 A 0 0 0 0 1 550 820.4027565084225 Z" fill="#db4437" clip-path="url(#rablfilter22)"></path><path d="M 669.07958282 842.5237366003062 A 2 2 0 0 1 671.07958282 844.5237366003062 L 671.07958282 850.1745788667687 A 2 2 0 0 1 669.07958282 852.1745788667687 L 550 852.1745788667687 A 0 0 0 0 1 550 852.1745788667687 L 550 842.5237366003062 A 0 0 0 0 1 550 842.5237366003062 Z" fill="#4285f4" clip-path="url(#rablfilter22)"></path><path d="M 659.6258880128571 853.1745788667687 A 2 2 0 0 1 661.6258880128571 855.1745788667687 L 661.6258880128571 860.825421133231 A 2 2 0 0 1 659.6258880128571 862.825421133231 L 550 862.825421133231 A 0 0 0 0 1 550 862.825421133231 L 550 853.1745788667687 A 0 0 0 0 1 550 853.1745788667687 Z" fill="#db4437" clip-path="url(#rablfilter22)"></path><path d="M 616.9876436721429 875.2955589586522 A 2 2 0 0 1 618.9876436721429 877.2955589586522 L 618.9876436721429 882.9464012251146 A 2 2 0 0 1 616.9876436721429 884.9464012251146 L 550 884.9464012251146 A 0 0 0 0 1 550 884.9464012251146 L 550 875.2955589586522 A 0 0 0 0 1 550 875.2955589586522 Z" fill="#4285f4" clip-path="url(#rablfilter22)"></path><path d="M 609.2859270057143 885.9464012251146 A 2 2 0 0 1 611.2859270057143 887.9464012251146 L 611.2859270057143 893.5972434915772 A 2 2 0 0 1 609.2859270057143 895.5972434915772 L 550 895.5972434915772 A 0 0 0 0 1 550 895.5972434915772 L 550 885.9464012251146 A 0 0 0 0 1 550 885.9464012251146 Z" fill="#db4437" clip-path="url(#rablfilter22)"></path><path d="M 624.4029379314286 908.0673813169983 A 2 2 0 0 1 626.4029379314286 910.0673813169983 L 626.4029379314286 915.7182235834608 A 2 2 0 0 1 624.4029379314286 917.7182235834608 L 550 917.7182235834608 A 0 0 0 0 1 550 917.7182235834608 L 550 908.0673813169983 A 0 0 0 0 1 550 908.0673813169983 Z" fill="#4285f4" clip-path="url(#rablfilter22)"></path><path d="M 620.1647988407143 918.7182235834608 A 2 2 0 0 1 622.1647988407143 920.7182235834608 L 622.1647988407143 926.3690658499232 A 2 2 0 0 1 620.1647988407143 928.3690658499232 L 550 928.3690658499232 A 0 0 0 0 1 550 928.3690658499232 L 550 918.7182235834608 A 0 0 0 0 1 550 918.7182235834608 Z" fill="#db4437" clip-path="url(#rablfilter22)"></path><path d="M 572.7105819842857 940.8392036753444 A 2 2 0 0 1 574.7105819842857 942.8392036753444 L 574.7105819842857 948.4900459418068 A 2 2 0 0 1 572.7105819842857 950.4900459418068 L 550 950.4900459418068 A 0 0 0 0 1 550 950.4900459418068 L 550 940.8392036753444 A 0 0 0 0 1 550 940.8392036753444 Z" fill="#4285f4" clip-path="url(#rablfilter22)"></path><path d="M 568.5120497521428 951.4900459418068 A 2 2 0 0 1 570.5120497521428 953.4900459418068 L 570.5120497521428 959.1408882082693 A 2 2 0 0 1 568.5120497521428 961.1408882082693 L 550 961.1408882082693 A 0 0 0 0 1 550 961.1408882082693 L 550 951.4900459418068 A 0 0 0 0 1 550 951.4900459418068 Z" fill="#db4437" clip-path="url(#rablfilter22)"></path><path d="M 585.7654057885715 973.6110260336905 A 2 2 0 0 1 587.7654057885715 975.6110260336905 L 587.7654057885715 981.261868300153 A 2 2 0 0 1 585.7654057885715 983.261868300153 L 550 983.261868300153 A 0 0 0 0 1 550 983.261868300153 L 550 973.6110260336905 A 0 0 0 0 1 550 973.6110260336905 Z" fill="#4285f4" clip-path="url(#rablfilter22)"></path><path d="M 581.9143583657143 984.261868300153 A 2 2 0 0 1 583.9143583657143 986.261868300153 L 583.9143583657143 991.9127105666155 A 2 2 0 0 1 581.9143583657143 993.9127105666155 L 550 993.9127105666155 A 0 0 0 0 1 550 993.9127105666155 L 550 984.261868300153 A 0 0 0 0 1 550 984.261868300153 Z" fill="#db4437" clip-path="url(#rablfilter22)"></path><path d="M 563.2088868035714 1006.3828483920366 A 2 2 0 0 1 565.2088868035714 1008.3828483920366 L 565.2088868035714 1014.033690658499 A 2 2 0 0 1 563.2088868035714 1016.033690658499 L 550 1016.033690658499 A 0 0 0 0 1 550 1016.033690658499 L 550 1006.3828483920366 A 0 0 0 0 1 550 1006.3828483920366 Z" fill="#4285f4" clip-path="url(#rablfilter22)"></path><path d="M 561.9596625285715 1017.033690658499 A 2 2 0 0 1 563.9596625285715 1019.033690658499 L 563.9596625285715 1024.6845329249613 A 2 2 0 0 1 561.9596625285715 1026.6845329249613 L 550 1026.6845329249613 A 0 0 0 0 1 550 1026.6845329249613 L 550 1017.033690658499 A 0 0 0 0 1 550 1017.033690658499 Z" fill="#db4437" clip-path="url(#rablfilter22)"></path><path d="M 557.2439539892857 1039.1546707503826 A 2 2 0 0 1 559.2439539892857 1041.1546707503826 L 559.2439539892857 1046.805513016845 A 2 2 0 0 1 557.2439539892857 1048.805513016845 L 550 1048.805513016845 A 0 0 0 0 1 550 1048.805513016845 L 550 1039.1546707503826 A 0 0 0 0 1 550 1039.1546707503826 Z" fill="#4285f4" clip-path="url(#rablfilter22)"></path><path d="M 556.1904355585714 1049.805513016845 A 2 2 0 0 1 558.1904355585714 1051.805513016845 L 558.1904355585714 1057.4563552833076 A 2 2 0 0 1 556.1904355585714 1059.4563552833076 L 550 1059.4563552833076 A 0 0 0 0 1 550 1059.4563552833076 L 550 1049.805513016845 A 0 0 0 0 1 550 1049.805513016845 Z" fill="#db4437" clip-path="url(#rablfilter22)"></path><path d="M 1150.7918770464285 1071.9264931087287 A 2 2 0 0 1 1152.7918770464285 1073.9264931087287 L 1152.7918770464285 1079.5773353751913 A 2 2 0 0 1 1150.7918770464285 1081.5773353751913 L 550 1081.5773353751913 A 0 0 0 0 1 550 1081.5773353751913 L 550 1071.9264931087287 A 0 0 0 0 1 550 1071.9264931087287 Z" fill="#4285f4" clip-path="url(#rablfilter22)"></path><path d="M 1154.9261149278573 1082.5773353751913 A 2 2 0 0 1 1156.9261149278573 1084.5773353751913 L 1156.9261149278573 1090.2281776416537 A 2 2 0 0 1 1154.9261149278573 1092.2281776416537 L 550 1092.2281776416537 A 0 0 0 0 1 550 1092.2281776416537 L 550 1082.5773353751913 A 0 0 0 0 1 550 1082.5773353751913 Z" fill="#db4437" clip-path="url(#rablfilter22)"></path><path d="M 687.8894331557143 1104.6983154670747 A 2 2 0 0 1 689.8894331557143 1106.6983154670747 L 689.8894331557143 1112.3491577335374 A 2 2 0 0 1 687.8894331557143 1114.3491577335374 L 550 1114.3491577335374 A 0 0 0 0 1 550 1114.3491577335374 L 550 1104.6983154670747 A 0 0 0 0 1 550 1104.6983154670747 Z" fill="#4285f4" clip-path="url(#rablfilter22)"></path><path d="M 695.5929335892857 1115.3491577335374 A 2 2 0 0 1 697.5929335892857 1117.3491577335374 L 697.5929335892857 1123 A 2 2 0 0 1 695.5929335892857 1125 L 550 1125 A 0 0 0 0 1 550 1125 L 550 1115.3491577335374 A 0 0 0 0 1 550 1115.3491577335374 Z" fill="#db4437" clip-path="url(#rablfilter22)"></path></g><g></g><g><text x="549.5" y="1154.5" style="cursor: default; user-select: none; -webkit-font-smoothing: antialiased; font-family: Roboto; font-size: 12px;" fill="#757575" dx="-3.375px">0</text><text x="678.5714285714286" y="1154.5" style="cursor: default; user-select: none; -webkit-font-smoothing: antialiased; font-family: Roboto; font-size: 12px;" fill="#757575" dx="-10.109375px">100</text><text x="807.6428571428571" y="1154.5" style="cursor: default; user-select: none; -webkit-font-smoothing: antialiased; font-family: Roboto; font-size: 12px;" fill="#757575" dx="-10.109375px">200</text><text x="936.7142857142857" y="1154.5" style="cursor: default; user-select: none; -webkit-font-smoothing: antialiased; font-family: Roboto; font-size: 12px;" fill="#757575" dx="-10.109375px">300</text><text x="1065.7857142857142" y="1154.5" style="cursor: default; user-select: none; -webkit-font-smoothing: antialiased; font-family: Roboto; font-size: 12px;" fill="#757575" dx="-10.109375px">400</text><text x="1194.857142857143" y="1154.5" style="cursor: default; user-select: none; -webkit-font-smoothing: antialiased; font-family: Roboto; font-size: 12px;" fill="#757575" dx="-10.109375px">500</text><text x="1323.9285714285713" y="1154.5" style="cursor: default; user-select: none; -webkit-font-smoothing: antialiased; font-family: Roboto; font-size: 12px;" fill="#757575" dx="-10.109375px">600</text><text x="1453" y="1154.5" style="cursor: default; user-select: none; -webkit-font-smoothing: antialiased; font-family: Roboto; font-size: 12px;" fill="#757575" dx="-10.109375px">700</text><text x="1582.0714285714284" y="1154.5" style="cursor: default; user-select: none; -webkit-font-smoothing: antialiased; font-family: Roboto; font-size: 12px;" fill="#757575" dx="-10.109375px">800</text><text x="1711.1428571428573" y="1154.5" style="cursor: default; user-select: none; -webkit-font-smoothing: antialiased; font-family: Roboto; font-size: 12px;" fill="#757575" dx="-10.109375px">900</text><text x="1840.2142857142858" y="1154.5" style="cursor: default; user-select: none; -webkit-font-smoothing: antialiased; font-family: Roboto; font-size: 12px;" fill="#757575" dx="-7.1328125px">1K</text><text x="1969.2857142857142" y="1154.5" style="cursor: default; user-select: none; -webkit-font-smoothing: antialiased; font-family: Roboto; font-size: 12px;" fill="#757575" dx="-12.0859375px">1.1K</text><text x="2098.3571428571427" y="1154.5" style="cursor: default; user-select: none; -webkit-font-smoothing: antialiased; font-family: Roboto; font-size: 12px;" fill="#757575" dx="-12.0859375px">1.2K</text><text x="2227.4285714285716" y="1154.5" style="cursor: default; user-select: none; -webkit-font-smoothing: antialiased; font-family: Roboto; font-size: 12px;" fill="#757575" dx="-12.0859375px">1.3K</text><text x="2356.5" y="1154.5" style="cursor: default; user-select: none; -webkit-font-smoothing: antialiased; font-family: Roboto; font-size: 12px;" fill="#757575" dx="-12.0859375px">1.4K</text><text x="1457.40869140625" y="1186.5" style="cursor: default; user-select: none; -webkit-font-smoothing: antialiased; font-family: Roboto; font-size: 12px;" fill="#424242" dx="-33.625px">Render Time</text><text x="543.5" y="70.15084377364761" style="cursor: default; user-select: none; -webkit-font-smoothing: antialiased; font-family: Roboto; font-size: 12px;" fill="#757575" dx="-438.671875px">CameraTestGround-VariantCamera-raytracing-embree-realistic_canon_anamorphic</text><text x="543.5" y="102.9226684219804" style="cursor: default; user-select: none; -webkit-font-smoothing: antialiased; font-family: Roboto; font-size: 12px;" fill="#757575" dx="-445.9375px">CameraTestGround-VariantCamera-raytracing-embree-realistic_navarro_anamorphic</text><text x="543.5" y="135.6944854409187" style="cursor: default; user-select: none; -webkit-font-smoothing: antialiased; font-family: Roboto; font-size: 12px;" fill="#757575" dx="-475.109375px">CameraTestGround-VariantCamera-raytracing-embree-realistic_canon_70_200mm_70mm</text><text x="543.5" y="168.46631008925146" style="cursor: default; user-select: none; -webkit-font-smoothing: antialiased; font-family: Roboto; font-size: 12px;" fill="#757575" dx="-510.65625px">CameraTestGround-VariantCamera-raytracing-embree-realistic_double_gauss_angenieux_50mm</text><text x="543.5" y="201.23813473758435" style="cursor: default; user-select: none; -webkit-font-smoothing: antialiased; font-family: Roboto; font-size: 12px;" fill="#757575" dx="-461.75px">CameraTestGround-VariantCamera-raytracing-embree-realistic_brendel_tessar_100mm</text><text x="543.5" y="234.0099593859171" style="cursor: default; user-select: none; -webkit-font-smoothing: antialiased; font-family: Roboto; font-size: 12px;" fill="#757575" dx="-452.5px">CameraTestGround-VariantCamera-raytracing-embree-realistic_petzval_kodak_50mm</text><text x="543.5" y="266.7817840342499" style="cursor: default; user-select: none; -webkit-font-smoothing: antialiased; font-family: Roboto; font-size: 12px;" fill="#757575" dx="-456.921875px">CameraTestGround-VariantCamera-raytracing-embree-realistic_realistic_canon_60mm</text><text x="543.5" y="299.55360868258276" style="cursor: default; user-select: none; -webkit-font-smoothing: antialiased; font-family: Roboto; font-size: 12px;" fill="#757575" dx="-240.125px">DailyDweeb-CameraShape-raytracing-embree</text><text x="543.5" y="332.32543333091553" style="cursor: default; user-select: none; -webkit-font-smoothing: antialiased; font-family: Roboto; font-size: 12px;" fill="#757575" dx="-463.390625px">CameraTestGround-VariantCamera-raytracing-embree-realistic_panavision_anamorphic</text><text x="543.5" y="365.0972579792483" style="cursor: default; user-select: none; -webkit-font-smoothing: antialiased; font-family: Roboto; font-size: 12px;" fill="#757575" dx="-457.9375px">CameraTestGround-VariantCamera-raytracing-embree-realistic_schneider_anamorphic</text><text x="543.5" y="397.86905211000294" style="cursor: default; user-select: none; -webkit-font-smoothing: antialiased; font-family: Roboto; font-size: 12px;" fill="#757575" dx="-287.40625px">StormTrooper-render_cam-ambient_occlusion-embree</text><text x="543.5" y="430.6408767583357" style="cursor: default; user-select: none; -webkit-font-smoothing: antialiased; font-family: Roboto; font-size: 12px;" fill="#757575" dx="-456.921875px">CameraTestGround-VariantCamera-raytracing-embree-realistic_realistic_canon_50mm</text><text x="543.5" y="463.4127014066685" style="cursor: default; user-select: none; -webkit-font-smoothing: antialiased; font-family: Roboto; font-size: 12px;" fill="#757575" dx="-220.109375px">StormTrooper-render_cam-debug-embree</text><text x="543.5" y="496.18452605500136" style="cursor: default; user-select: none; -webkit-font-smoothing: antialiased; font-family: Roboto; font-size: 12px;" fill="#757575" dx="-239.671875px">StormTrooper-render_cam-raytracing-embree</text><text x="543.5" y="528.9563507033342" style="cursor: default; user-select: none; -webkit-font-smoothing: antialiased; font-family: Roboto; font-size: 12px;" fill="#757575" dx="-336.921875px">CameraTestGround-VariantCamera-raytracing-embree-thin_lens</text><text x="543.5" y="561.7282058692451" style="cursor: default; user-select: none; -webkit-font-smoothing: antialiased; font-family: Roboto; font-size: 12px;" fill="#757575" dx="-257.390625px">EmperorCrown-CameraShape-raytracing-embree</text><text x="543.5" y="594.4999999999998" style="cursor: default; user-select: none; -webkit-font-smoothing: antialiased; font-family: Roboto; font-size: 12px;" fill="#757575" dx="-223.484375px">CornellBox-render_cam-raytracing-embree</text><text x="543.5" y="627.2717941307546" style="cursor: default; user-select: none; -webkit-font-smoothing: antialiased; font-family: Roboto; font-size: 12px;" fill="#757575" dx="-381.578125px">Intel_mooreLane-MASTER_cameraExtended-ambient_occlusion-embree</text><text x="543.5" y="660.0436492966653" style="cursor: default; user-select: none; -webkit-font-smoothing: antialiased; font-family: Roboto; font-size: 12px;" fill="#757575" dx="-259.078125px">Intel_Sponza-PhysCamera001-raytracing-embree</text><text x="543.5" y="692.8154434274202" style="cursor: default; user-select: none; -webkit-font-smoothing: antialiased; font-family: Roboto; font-size: 12px;" fill="#757575" dx="-287.859375px">DailyDweeb-CameraShape-ambient_occlusion-embree</text><text x="543.5" y="725.5872985933308" style="cursor: default; user-select: none; -webkit-font-smoothing: antialiased; font-family: Roboto; font-size: 12px;" fill="#757575" dx="-282.125px">Blenderman-Camera_001-ambient_occlusion-embree</text><text x="543.5" y="758.3590927240857" style="cursor: default; user-select: none; -webkit-font-smoothing: antialiased; font-family: Roboto; font-size: 12px;" fill="#757575" dx="-214.828125px">Blenderman-Camera_001-debug-embree</text><text x="543.5" y="791.1309478899964" style="cursor: default; user-select: none; -webkit-font-smoothing: antialiased; font-family: Roboto; font-size: 12px;" fill="#757575" dx="-289.828125px">OpenChessSet-render_cam_7Shape-raytracing-embree</text><text x="543.5" y="823.9027420207512" style="cursor: default; user-select: none; -webkit-font-smoothing: antialiased; font-family: Roboto; font-size: 12px;" fill="#757575" dx="-415.171875px">Intel_Sponza_Candles_Thin_Lens-PhysCamera002-ambient_occlusion-embree</text><text x="543.5" y="856.6745971866624" style="cursor: default; user-select: none; -webkit-font-smoothing: antialiased; font-family: Roboto; font-size: 12px;" fill="#757575" dx="-337.578125px">OpenChessSet-render_cam_7Shape-ambient_occlusion-embree</text><text x="543.5" y="889.4463913174168" style="cursor: default; user-select: none; -webkit-font-smoothing: antialiased; font-family: Roboto; font-size: 12px;" fill="#757575" dx="-305.140625px">EmperorCrown-CameraShape-ambient_occlusion-embree</text><text x="543.5" y="922.2182464833279" style="cursor: default; user-select: none; -webkit-font-smoothing: antialiased; font-family: Roboto; font-size: 12px;" fill="#757575" dx="-307.453125px">HsdLogo-render_cam_1Shape-ambient_occlusion-embree</text><text x="543.5" y="954.9900406140823" style="cursor: default; user-select: none; -webkit-font-smoothing: antialiased; font-family: Roboto; font-size: 12px;" fill="#757575" dx="-306.8125px">Intel_Sponza-PhysCamera001-ambient_occlusion-embree</text><text x="543.5" y="987.7618957799934" style="cursor: default; user-select: none; -webkit-font-smoothing: antialiased; font-family: Roboto; font-size: 12px;" fill="#757575" dx="-220.5625px">DailyDweeb-CameraShape-debug-embree</text><text x="543.5" y="1020.5336899107481" style="cursor: default; user-select: none; -webkit-font-smoothing: antialiased; font-family: Roboto; font-size: 12px;" fill="#757575" dx="-237.84375px">EmperorCrown-CameraShape-debug-embree</text><text x="543.5" y="1053.3054840415025" style="cursor: default; user-select: none; -webkit-font-smoothing: antialiased; font-family: Roboto; font-size: 12px;" fill="#757575" dx="-271.21875px">CornellBox-render_cam-ambient_occlusion-embree</text><text x="543.5" y="1086.0772781722576" style="cursor: default; user-select: none; -webkit-font-smoothing: antialiased; font-family: Roboto; font-size: 12px;" fill="#757575" dx="-367.4375px">Intel_Sponza_Candles_Thin_Lens-PhysCamera002-raytracing-embree</text><text x="543.5" y="1118.8491943733247" style="cursor: default; user-select: none; -webkit-font-smoothing: antialiased; font-family: Roboto; font-size: 12px;" fill="#757575" dx="-259.71875px">HsdLogo-render_cam_1Shape-raytracing-embree</text><text x="14.84375" y="587.5" style="cursor: default; user-select: none; -webkit-font-smoothing: antialiased; font-family: Roboto; font-size: 12px;" fill="#424242" dx="-16.375px" transform="rotate(-90 14.84375 590.5)">Scene</text></g><g></g><g></g><g></g></svg>