<?xml version="1.0" encoding="UTF-8"?>
<svg id="Ebene_1" data-name="Ebene 1" xmlns="http://www.w3.org/2000/svg" viewBox="0 0 16 16">
  <defs>
    <style>
      .cls-1 {
        fill: #010200;
      }

      .cls-2 {
        fill: #fff;
      }
    </style>
  </defs>
  <rect class="cls-2" x="-.42" y="-.47" width="16.83" height="16.92"/>
  <g>
    <path class="cls-1" d="M8.24,14.38c-.92,0-1.77-.17-2.53-.5s-1.42-.8-1.97-1.39c-.56-.59-.99-1.27-1.29-2.03-.3-.76-.46-1.57-.46-2.42,0-1.15,.26-2.2,.78-3.15,.52-.95,1.25-1.71,2.18-2.27,.94-.57,2.03-.85,3.27-.85s2.26,.27,3.16,.81c.9,.54,1.57,1.26,2.01,2.17l-2.02,.63c-.31-.58-.75-1.03-1.32-1.35-.56-.32-1.19-.48-1.88-.48-.75,0-1.44,.19-2.06,.58-.62,.39-1.11,.92-1.47,1.59-.36,.67-.54,1.45-.54,2.31s.18,1.62,.55,2.31,.86,1.24,1.48,1.64c.62,.4,1.3,.6,2.06,.6,.48,0,.95-.09,1.4-.26,.45-.17,.84-.4,1.17-.69,.34-.29,.57-.61,.69-.95l2.02,.61c-.25,.6-.63,1.12-1.14,1.59s-1.11,.83-1.81,1.09c-.7,.27-1.46,.4-2.29,.4Z"/>
    <g>
      <rect class="cls-1" x="6.45" y="8.52" width=".65" height="2.43" transform="translate(-4.9 7.65) rotate(-45)"/>
      <rect class="cls-1" x="8.44" y="6.76" width=".65" height="4.49" transform="translate(8.6 21.58) rotate(-135)"/>
      <polygon class="cls-1" points="11.26 6.53 8.47 7.28 10.52 9.33 11.26 6.53"/>
    </g>
  </g>
</svg>