<?xml version="1.0" encoding="UTF-8"?>
<svg id="Ebene_1" data-name="Ebene 1" xmlns="http://www.w3.org/2000/svg" viewBox="0 0 64.97 22.22">
  <defs>
    <style>
      .cls-1 {
        fill: #010200;
      }

      .cls-2 {
        fill: #fff;
      }
    </style>
  </defs>
  <rect class="cls-1" x="-.56" y="-.94" width="66.17" height="24.08"/>
  <g>
    <rect class="cls-2" x="6.59" y="9.3" width=".65" height="2.43" transform="translate(-5.41 7.97) rotate(-45)"/>
    <rect class="cls-2" x="8.58" y="7.54" width=".65" height="4.49" transform="translate(8.29 23.01) rotate(-135)"/>
    <polygon class="cls-2" points="11.4 7.31 8.61 8.06 10.66 10.1 11.4 7.31"/>
  </g>
  <g>
    <path class="cls-2" d="M8.45,15.11c-.92,0-1.75-.17-2.51-.5s-1.41-.79-1.96-1.38c-.55-.59-.98-1.26-1.28-2.02-.3-.76-.46-1.56-.46-2.41,0-1.14,.26-2.19,.77-3.13s1.24-1.7,2.17-2.26,2.02-.85,3.25-.85,2.25,.27,3.14,.81c.89,.54,1.56,1.26,2,2.16l-2.01,.63c-.31-.58-.75-1.02-1.31-1.34s-1.18-.48-1.87-.48c-.75,0-1.43,.19-2.04,.58-.61,.39-1.1,.91-1.46,1.58s-.54,1.44-.54,2.3,.18,1.61,.55,2.3,.86,1.23,1.47,1.63c.62,.4,1.3,.6,2.04,.6,.48,0,.95-.08,1.39-.26,.44-.17,.83-.4,1.17-.69s.56-.6,.69-.95l2.01,.61c-.25,.59-.63,1.12-1.13,1.58s-1.11,.82-1.8,1.09c-.69,.26-1.45,.4-2.28,.4Z"/>
    <path class="cls-2" d="M23.04,5.35c-.95,.02-1.8,.2-2.54,.55-.75,.35-1.28,.88-1.61,1.58v7.4h-3.13V2.64h2.87v2.62c.22-.42,.47-.8,.77-1.13s.61-.63,.96-.88,.69-.44,1.04-.57c.35-.13,.69-.2,1.02-.2h.38c.09,0,.17,0,.25,.02v2.85Z"/>
    <path class="cls-2" d="M27.97,15.11c-.59,0-1.14-.1-1.66-.29s-.96-.47-1.33-.82c-.37-.35-.67-.76-.88-1.23-.21-.47-.31-.98-.31-1.54s.13-1.11,.38-1.6,.62-.91,1.07-1.25c.46-.34,1.01-.61,1.65-.81,.64-.19,1.34-.29,2.1-.29,.54,0,1.08,.05,1.6,.14,.52,.09,.98,.23,1.39,.4v-.7c0-.81-.23-1.43-.69-1.87s-1.14-.65-2.04-.65c-.65,0-1.29,.12-1.91,.35-.62,.23-1.26,.58-1.92,1.03l-.96-1.98c1.57-1.04,3.27-1.56,5.09-1.56s3.12,.43,4.1,1.3c.97,.86,1.46,2.11,1.46,3.75v3.81c0,.33,.06,.56,.17,.7,.12,.14,.31,.22,.57,.23v2.66c-.53,.11-.99,.16-1.38,.16-.59,0-1.05-.13-1.37-.4-.32-.26-.52-.62-.6-1.05l-.07-.68c-.54,.72-1.21,1.26-1.98,1.63-.78,.37-1.61,.56-2.5,.56Zm.89-2.29c.53,0,1.03-.09,1.51-.28,.47-.19,.84-.44,1.11-.75,.34-.26,.51-.56,.51-.89v-1.4c-.37-.14-.78-.25-1.21-.34-.44-.09-.86-.13-1.26-.13-.81,0-1.47,.18-1.98,.55-.51,.37-.77,.83-.77,1.39,0,.53,.2,.97,.61,1.32,.4,.35,.9,.53,1.49,.53Z"/>
    <path class="cls-2" d="M37.98,17.26c.26,.08,.52,.14,.77,.17,.25,.04,.46,.06,.63,.06,.2,0,.39-.04,.56-.12,.17-.08,.33-.21,.47-.41,.14-.2,.28-.46,.42-.81,.14-.34,.29-.77,.44-1.28l-4.83-12.23h3.22l3.32,9.53,2.94-9.53h2.94l-5.14,14.66c-.3,.86-.8,1.56-1.52,2.1-.72,.54-1.6,.82-2.66,.82-.25,0-.5-.02-.76-.06s-.53-.11-.81-.2v-2.71Z"/>
    <path class="cls-2" d="M54.93,14.95c-.83,0-1.57-.16-2.24-.49-.67-.33-1.25-.77-1.74-1.34s-.87-1.23-1.13-1.97c-.27-.75-.4-1.54-.4-2.38,0-.89,.14-1.71,.42-2.47,.28-.76,.67-1.43,1.17-2.01,.5-.58,1.1-1.03,1.8-1.35,.7-.33,1.47-.49,2.31-.49,.95,0,1.78,.21,2.5,.64,.72,.43,1.31,1,1.77,1.72V2.64h2.73V14.29c0,.9-.17,1.71-.51,2.43-.34,.72-.81,1.32-1.41,1.82-.6,.5-1.32,.88-2.15,1.14s-1.74,.4-2.72,.4c-1.34,0-2.46-.22-3.37-.67-.91-.44-1.69-1.07-2.35-1.88l1.71-1.66c.47,.58,1.05,1.03,1.76,1.35,.71,.33,1.46,.49,2.25,.49,.48,0,.95-.07,1.39-.2,.44-.13,.84-.34,1.18-.62,.34-.28,.61-.64,.8-1.07,.2-.44,.29-.95,.29-1.54v-1.54c-.4,.7-.97,1.24-1.7,1.62-.73,.38-1.52,.57-2.36,.57Zm1.05-2.5c.34,0,.67-.05,.98-.16,.31-.11,.6-.26,.86-.44s.5-.4,.7-.65,.36-.51,.47-.79v-2.92c-.28-.72-.72-1.29-1.32-1.73-.6-.44-1.23-.65-1.88-.65-.48,0-.92,.1-1.31,.31-.39,.21-.72,.49-1,.84-.28,.35-.49,.75-.64,1.2-.15,.45-.22,.92-.22,1.4s.08,.96,.26,1.4c.17,.44,.41,.82,.71,1.14,.3,.33,.66,.58,1.06,.77,.4,.19,.85,.28,1.33,.28Z"/>
  </g>
</svg>