<svg xmlns="http://www.w3.org/2000/svg" width="1536" height="500">
    <defs>
        <filter x="-100%" y="-100%" width="300%" height="300%" id="rablfilter5">
            <feGaussianBlur in="SourceAlpha" stdDeviation="2"></feGaussianBlur>
            <feOffset dx="0" dy="0"></feOffset>
            <feComponentTransfer>
                <feFuncA type="linear" slope="0"></feFuncA>
            </feComponentTransfer>
            <feMerge>
                <feMergeNode></feMergeNode>
                <feMergeNode in="SourceGraphic"></feMergeNode>
            </feMerge>
        </filter>
        <filter x="-100%" y="-100%" width="300%" height="300%" id="rablfilter4">
            <feGaussianBlur in="SourceAlpha" stdDeviation="2"></feGaussianBlur>
            <feOffset dx="0" dy="0"></feOffset>
            <feComponentTransfer>
                <feFuncA type="linear" slope="0.4"></feFuncA>
            </feComponentTransfer>
            <feMerge>
                <feMergeNode></feMergeNode>
                <feMergeNode in="SourceGraphic"></feMergeNode>
            </feMerge>
        </filter>
        <filter x="-100%" y="-100%" width="300%" height="300%" id="rablfilter3">
            <feGaussianBlur in="SourceAlpha" stdDeviation="1"></feGaussianBlur>
            <feOffset dx="0" dy="2"></feOffset>
            <feComponentTransfer>
                <feFuncA type="linear" slope="0.2"></feFuncA>
            </feComponentTransfer>
            <feMerge>
                <feMergeNode></feMergeNode>
                <feMergeNode in="SourceGraphic"></feMergeNode>
            </feMerge>
        </filter>
        <filter x="-100%" y="-100%" width="300%" height="300%" id="rablfilter2">
            <feGaussianBlur in="SourceAlpha" stdDeviation="2"></feGaussianBlur>
            <feOffset dx="0" dy="1"></feOffset>
            <feComponentTransfer>
                <feFuncA type="linear" slope="0.4"></feFuncA>
            </feComponentTransfer>
            <feMerge>
                <feMergeNode></feMergeNode>
                <feMergeNode in="SourceGraphic"></feMergeNode>
            </feMerge>
        </filter>
        <filter x="-100%" y="-100%" width="300%" height="300%" id="rablfilter1">
            <feGaussianBlur in="SourceAlpha" stdDeviation="0"></feGaussianBlur>
            <feOffset dx="0" dy="1"></feOffset>
            <feComponentTransfer>
                <feFuncA type="linear" slope="0.4"></feFuncA>
            </feComponentTransfer>
            <feMerge>
                <feMergeNode></feMergeNode>
                <feMergeNode in="SourceGraphic"></feMergeNode>
            </feMerge>
        </filter>
        <clipPath id="rablfilter0">
            <rect x="376.5" y="55.5" width="1011" height="392"></rect>
        </clipPath>
    </defs>
    <g>
        <rect x="0" y="0" width="1536" height="500" fill="#ffffff" fill-opacity="1" stroke="#ffffff" stroke-opacity="0"
              stroke-width="0"></rect>
        <text x="0" y="15"
              style="cursor: default; user-select: none; -webkit-font-smoothing: antialiased; font-family: Roboto; font-size: 16px;"
              fill="#757575" dx="0px">Benchmark
        </text>
        <rect x="1436.171875" y="55.5" width="12" height="12" rx="2" ry="2" fill="#4285f4"></rect>
        <text x="1456.171875" y="68.5"
              style="cursor: default; user-select: none; -webkit-font-smoothing: antialiased; font-family: Roboto;"
              fill="#757575" dx="0px">Baseline
        </text>
        <rect x="1436.171875" y="88" width="12" height="12" rx="2" ry="2" fill="#db4437"></rect>
        <text x="1456.171875" y="101"
              style="cursor: default; user-select: none; -webkit-font-smoothing: antialiased; font-family: Roboto;"
              fill="#757575" dx="0px">New revision
        </text>
        <rect x="376.5" y="55.5" width="1011" height="392" fill="#ffffff" fill-opacity="1" stroke="#ffffff"
              stroke-opacity="0" stroke-width="1"></rect>
    </g>
    <g>
        <line x1="376.5" x2="376.5" y1="55.5" y2="447.5" stroke="#9E9E9E" stroke-width="1"></line>
        <line x1="520.9285714285714" x2="520.9285714285714" y1="55.5" y2="447.5" stroke="#E0E0E0"
              stroke-width="1"></line>
        <line x1="665.3571428571429" x2="665.3571428571429" y1="55.5" y2="447.5" stroke="#E0E0E0"
              stroke-width="1"></line>
        <line x1="809.7857142857143" x2="809.7857142857143" y1="55.5" y2="447.5" stroke="#E0E0E0"
              stroke-width="1"></line>
        <line x1="954.2142857142857" x2="954.2142857142857" y1="55.5" y2="447.5" stroke="#E0E0E0"
              stroke-width="1"></line>
        <line x1="1098.6428571428569" x2="1098.6428571428569" y1="55.5" y2="447.5" stroke="#E0E0E0"
              stroke-width="1"></line>
        <line x1="1243.0714285714287" x2="1243.0714285714287" y1="55.5" y2="447.5" stroke="#E0E0E0"
              stroke-width="1"></line>
        <line x1="1387.5" x2="1387.5" y1="55.5" y2="447.5" stroke="#E0E0E0" stroke-width="1"></line>
    </g>
    <g>
        <path d="M 1096.1428571428569 56 A 2 2 0 0 1 1098.1428571428569 58 L 1098.1428571428569 62.04761904761905 A 2 2 0 0 1 1096.1428571428569 64.04761904761905 L 377 64.04761904761905 A 0 0 0 0 1 377 64.04761904761905 L 377 56 A 0 0 0 0 1 377 56 Z"
              fill="#4285f4" clip-path="url(#rablfilter0)"></path>
        <path d="M 1115.0343754954401 65.04761904761905 A 2 2 0 0 1 1117.0343754954401 67.04761904761905 L 1117.0343754954401 71.0952380952381 A 2 2 0 0 1 1115.0343754954401 73.0952380952381 L 377 73.0952380952381 A 0 0 0 0 1 377 73.0952380952381 L 377 65.04761904761905 A 0 0 0 0 1 377 65.04761904761905 Z"
              fill="#db4437" clip-path="url(#rablfilter0)"></path>
        <path d="M 1096.1428571428569 83.83882783882784 A 2 2 0 0 1 1098.1428571428569 85.83882783882784 L 1098.1428571428569 89.88644688644689 A 2 2 0 0 1 1096.1428571428569 91.88644688644689 L 377 91.88644688644689 A 0 0 0 0 1 377 91.88644688644689 L 377 83.83882783882784 A 0 0 0 0 1 377 83.83882783882784 Z"
              fill="#4285f4" clip-path="url(#rablfilter0)"></path>
        <path d="M 1114.7663392444254 92.88644688644689 A 2 2 0 0 1 1116.7663392444254 94.88644688644689 L 1116.7663392444254 98.93406593406593 A 2 2 0 0 1 1114.7663392444254 100.93406593406593 L 377 100.93406593406593 A 0 0 0 0 1 377 100.93406593406593 L 377 92.88644688644689 A 0 0 0 0 1 377 92.88644688644689 Z"
              fill="#db4437" clip-path="url(#rablfilter0)"></path>
        <path d="M 1096.1428571428569 111.67765567765568 A 2 2 0 0 1 1098.1428571428569 113.67765567765568 L 1098.1428571428569 117.72527472527474 A 2 2 0 0 1 1096.1428571428569 119.72527472527474 L 377 119.72527472527474 A 0 0 0 0 1 377 119.72527472527474 L 377 111.67765567765568 A 0 0 0 0 1 377 111.67765567765568 Z"
              fill="#4285f4" clip-path="url(#rablfilter0)"></path>
        <path d="M 1102.0857800525637 120.72527472527474 A 2 2 0 0 1 1104.0857800525637 122.72527472527474 L 1104.0857800525637 126.77289377289378 A 2 2 0 0 1 1102.0857800525637 128.77289377289378 L 377 128.77289377289378 A 0 0 0 0 1 377 128.77289377289378 L 377 120.72527472527474 A 0 0 0 0 1 377 120.72527472527474 Z"
              fill="#db4437" clip-path="url(#rablfilter0)"></path>
        <path d="M 1096.1428571428569 139.51648351648353 A 2 2 0 0 1 1098.1428571428569 141.51648351648353 L 1098.1428571428569 145.5641025641026 A 2 2 0 0 1 1096.1428571428569 147.5641025641026 L 377 147.5641025641026 A 0 0 0 0 1 377 147.5641025641026 L 377 139.51648351648353 A 0 0 0 0 1 377 139.51648351648353 Z"
              fill="#4285f4" clip-path="url(#rablfilter0)"></path>
        <path d="M 1104.8511076757857 148.5641025641026 A 2 2 0 0 1 1106.8511076757857 150.5641025641026 L 1106.8511076757857 154.61172161172163 A 2 2 0 0 1 1104.8511076757857 156.61172161172163 L 377 156.61172161172163 A 0 0 0 0 1 377 156.61172161172163 L 377 148.5641025641026 A 0 0 0 0 1 377 148.5641025641026 Z"
              fill="#db4437" clip-path="url(#rablfilter0)"></path>
        <path d="M 1096.1428571428569 167.35531135531136 A 2 2 0 0 1 1098.1428571428569 169.35531135531136 L 1098.1428571428569 173.40293040293042 A 2 2 0 0 1 1096.1428571428569 175.40293040293042 L 377 175.40293040293042 A 0 0 0 0 1 377 175.40293040293042 L 377 167.35531135531136 A 0 0 0 0 1 377 167.35531135531136 Z"
              fill="#4285f4" clip-path="url(#rablfilter0)"></path>
        <path d="M 1117.9737206636141 176.40293040293042 A 2 2 0 0 1 1119.9737206636141 178.40293040293042 L 1119.9737206636141 182.4505494505495 A 2 2 0 0 1 1117.9737206636141 184.4505494505495 L 377 184.4505494505495 A 0 0 0 0 1 377 184.4505494505495 L 377 176.40293040293042 A 0 0 0 0 1 377 176.40293040293042 Z"
              fill="#db4437" clip-path="url(#rablfilter0)"></path>
        <path d="M 1096.1428571428569 195.1941391941392 A 2 2 0 0 1 1098.1428571428569 197.1941391941392 L 1098.1428571428569 201.24175824175828 A 2 2 0 0 1 1096.1428571428569 203.24175824175828 L 377 203.24175824175828 A 0 0 0 0 1 377 203.24175824175828 L 377 195.1941391941392 A 0 0 0 0 1 377 195.1941391941392 Z"
              fill="#4285f4" clip-path="url(#rablfilter0)"></path>
        <path d="M 1107.8528450291087 204.24175824175828 A 2 2 0 0 1 1109.8528450291087 206.24175824175828 L 1109.8528450291087 210.2893772893773 A 2 2 0 0 1 1107.8528450291087 212.2893772893773 L 377 212.2893772893773 A 0 0 0 0 1 377 212.2893772893773 L 377 204.24175824175828 A 0 0 0 0 1 377 204.24175824175828 Z"
              fill="#db4437" clip-path="url(#rablfilter0)"></path>
        <path d="M 1096.1428571428569 223.03296703296706 A 2 2 0 0 1 1098.1428571428569 225.03296703296706 L 1098.1428571428569 229.0805860805861 A 2 2 0 0 1 1096.1428571428569 231.0805860805861 L 377 231.0805860805861 A 0 0 0 0 1 377 231.0805860805861 L 377 223.03296703296706 A 0 0 0 0 1 377 223.03296703296706 Z"
              fill="#4285f4" clip-path="url(#rablfilter0)"></path>
        <path d="M 1098.0838814077583 232.0805860805861 A 2 2 0 0 1 1100.0838814077583 234.0805860805861 L 1100.0838814077583 238.12820512820517 A 2 2 0 0 1 1098.0838814077583 240.12820512820517 L 377 240.12820512820517 A 0 0 0 0 1 377 240.12820512820517 L 377 232.0805860805861 A 0 0 0 0 1 377 232.0805860805861 Z"
              fill="#db4437" clip-path="url(#rablfilter0)"></path>
        <path d="M 1096.1428571428569 250.8717948717949 A 2 2 0 0 1 1098.1428571428569 252.8717948717949 L 1098.1428571428569 256.91941391941396 A 2 2 0 0 1 1096.1428571428569 258.91941391941396 L 377 258.91941391941396 A 0 0 0 0 1 377 258.91941391941396 L 377 250.8717948717949 A 0 0 0 0 1 377 250.8717948717949 Z"
              fill="#4285f4" clip-path="url(#rablfilter0)"></path>
        <path d="M 1072.2600356530406 259.91941391941396 A 2 2 0 0 1 1074.2600356530406 261.91941391941396 L 1074.2600356530406 265.967032967033 A 2 2 0 0 1 1072.2600356530406 267.967032967033 L 377 267.967032967033 A 0 0 0 0 1 377 267.967032967033 L 377 259.91941391941396 A 0 0 0 0 1 377 259.91941391941396 Z"
              fill="#db4437" clip-path="url(#rablfilter0)"></path>
        <path d="M 1096.1428571428569 278.7106227106227 A 2 2 0 0 1 1098.1428571428569 280.7106227106227 L 1098.1428571428569 284.75824175824175 A 2 2 0 0 1 1096.1428571428569 286.75824175824175 L 377 286.75824175824175 A 0 0 0 0 1 377 286.75824175824175 L 377 278.7106227106227 A 0 0 0 0 1 377 278.7106227106227 Z"
              fill="#4285f4" clip-path="url(#rablfilter0)"></path>
        <path d="M 1100.2832086565718 287.75824175824175 A 2 2 0 0 1 1102.2832086565718 289.75824175824175 L 1102.2832086565718 293.8058608058608 A 2 2 0 0 1 1100.2832086565718 295.8058608058608 L 377 295.8058608058608 A 0 0 0 0 1 377 295.8058608058608 L 377 287.75824175824175 A 0 0 0 0 1 377 287.75824175824175 Z"
              fill="#db4437" clip-path="url(#rablfilter0)"></path>
        <path d="M 1096.1428571428569 306.5494505494506 A 2 2 0 0 1 1098.1428571428569 308.5494505494506 L 1098.1428571428569 312.5970695970696 A 2 2 0 0 1 1096.1428571428569 314.5970695970696 L 377 314.5970695970696 A 0 0 0 0 1 377 314.5970695970696 L 377 306.5494505494506 A 0 0 0 0 1 377 306.5494505494506 Z"
              fill="#4285f4" clip-path="url(#rablfilter0)"></path>
        <path d="M 1119.6498307817537 315.5970695970696 A 2 2 0 0 1 1121.6498307817537 317.5970695970696 L 1121.6498307817537 321.64468864468864 A 2 2 0 0 1 1119.6498307817537 323.64468864468864 L 377 323.64468864468864 A 0 0 0 0 1 377 323.64468864468864 L 377 315.5970695970696 A 0 0 0 0 1 377 315.5970695970696 Z"
              fill="#db4437" clip-path="url(#rablfilter0)"></path>
        <path d="M 1096.1428571428569 334.3882783882784 A 2 2 0 0 1 1098.1428571428569 336.3882783882784 L 1098.1428571428569 340.4358974358974 A 2 2 0 0 1 1096.1428571428569 342.4358974358974 L 377 342.4358974358974 A 0 0 0 0 1 377 342.4358974358974 L 377 334.3882783882784 A 0 0 0 0 1 377 334.3882783882784 Z"
              fill="#4285f4" clip-path="url(#rablfilter0)"></path>
        <path d="M 1077.6408815456632 343.4358974358974 A 2 2 0 0 1 1079.6408815456632 345.4358974358974 L 1079.6408815456632 349.4835164835165 A 2 2 0 0 1 1077.6408815456632 351.4835164835165 L 377 351.4835164835165 A 0 0 0 0 1 377 351.4835164835165 L 377 343.4358974358974 A 0 0 0 0 1 377 343.4358974358974 Z"
              fill="#db4437" clip-path="url(#rablfilter0)"></path>
        <path d="M 1096.1428571428569 362.2271062271063 A 2 2 0 0 1 1098.1428571428569 364.2271062271063 L 1098.1428571428569 368.2747252747253 A 2 2 0 0 1 1096.1428571428569 370.2747252747253 L 377 370.2747252747253 A 0 0 0 0 1 377 370.2747252747253 L 377 362.2271062271063 A 0 0 0 0 1 377 362.2271062271063 Z"
              fill="#4285f4" clip-path="url(#rablfilter0)"></path>
        <path d="M 1090.7533573128353 371.2747252747253 A 2 2 0 0 1 1092.7533573128353 373.2747252747253 L 1092.7533573128353 377.3223443223443 A 2 2 0 0 1 1090.7533573128353 379.3223443223443 L 377 379.3223443223443 A 0 0 0 0 1 377 379.3223443223443 L 377 371.2747252747253 A 0 0 0 0 1 377 371.2747252747253 Z"
              fill="#db4437" clip-path="url(#rablfilter0)"></path>
        <path d="M 1096.1428571428569 390.06593406593413 A 2 2 0 0 1 1098.1428571428569 392.06593406593413 L 1098.1428571428569 396.1135531135531 A 2 2 0 0 1 1096.1428571428569 398.1135531135531 L 377 398.1135531135531 A 0 0 0 0 1 377 398.1135531135531 L 377 390.06593406593413 A 0 0 0 0 1 377 390.06593406593413 Z"
              fill="#4285f4" clip-path="url(#rablfilter0)"></path>
        <path d="M 1085.7099641814684 399.1135531135531 A 2 2 0 0 1 1087.7099641814684 401.1135531135531 L 1087.7099641814684 405.1611721611722 A 2 2 0 0 1 1085.7099641814684 407.1611721611722 L 377 407.1611721611722 A 0 0 0 0 1 377 407.1611721611722 L 377 399.1135531135531 A 0 0 0 0 1 377 399.1135531135531 Z"
              fill="#db4437" clip-path="url(#rablfilter0)"></path>
        <path d="M 1096.1428571428569 417.9047619047619 A 2 2 0 0 1 1098.1428571428569 419.9047619047619 L 1098.1428571428569 423.95238095238096 A 2 2 0 0 1 1096.1428571428569 425.95238095238096 L 377 425.95238095238096 A 0 0 0 0 1 377 425.95238095238096 L 377 417.9047619047619 A 0 0 0 0 1 377 417.9047619047619 Z"
              fill="#4285f4" clip-path="url(#rablfilter0)"></path>
        <path d="M 1106.9693069973155 426.95238095238096 A 2 2 0 0 1 1108.9693069973155 428.95238095238096 L 1108.9693069973155 433 A 2 2 0 0 1 1106.9693069973155 435 L 377 435 A 0 0 0 0 1 377 435 L 377 426.95238095238096 A 0 0 0 0 1 377 426.95238095238096 Z"
              fill="#db4437" clip-path="url(#rablfilter0)"></path>
    </g>
    <g></g>
    <g>
        <text x="376.5" y="464.5"
              style="cursor: default; user-select: none; -webkit-font-smoothing: antialiased; font-family: Roboto; font-size: 12px;"
              fill="#757575" dx="-3.37109375px">0
        </text>
        <text x="520.9285714285714" y="464.5"
              style="cursor: default; user-select: none; -webkit-font-smoothing: antialiased; font-family: Roboto; font-size: 12px;"
              fill="#757575" dx="-8.3203125px">0.2
        </text>
        <text x="665.3571428571429" y="464.5"
              style="cursor: default; user-select: none; -webkit-font-smoothing: antialiased; font-family: Roboto; font-size: 12px;"
              fill="#757575" dx="-8.3203125px">0.4
        </text>
        <text x="809.7857142857143" y="464.5"
              style="cursor: default; user-select: none; -webkit-font-smoothing: antialiased; font-family: Roboto; font-size: 12px;"
              fill="#757575" dx="-8.3203125px">0.6
        </text>
        <text x="954.2142857142857" y="464.5"
              style="cursor: default; user-select: none; -webkit-font-smoothing: antialiased; font-family: Roboto; font-size: 12px;"
              fill="#757575" dx="-8.3203125px">0.8
        </text>
        <text x="1098.6428571428569" y="464.5"
              style="cursor: default; user-select: none; -webkit-font-smoothing: antialiased; font-family: Roboto; font-size: 12px;"
              fill="#757575" dx="-3.37109375px">1
        </text>
        <text x="1243.0714285714287" y="464.5"
              style="cursor: default; user-select: none; -webkit-font-smoothing: antialiased; font-family: Roboto; font-size: 12px;"
              fill="#757575" dx="-8.3203125px">1.2
        </text>
        <text x="1387.5" y="464.5"
              style="cursor: default; user-select: none; -webkit-font-smoothing: antialiased; font-family: Roboto; font-size: 12px;"
              fill="#757575" dx="-8.3203125px">1.4
        </text>
        <text x="884.474609375" y="496.5"
              style="cursor: default; user-select: none; -webkit-font-smoothing: antialiased; font-family: Roboto; font-size: 12px;"
              fill="#424242" dx="-33.62109375px">Render Time
        </text>
        <text x="370.5" y="68.54761541457404"
              style="cursor: default; user-select: none; -webkit-font-smoothing: antialiased; font-family: Roboto; font-size: 12px;"
              fill="#757575" dx="-337.5703125px">OpenChessSet-render_cam_1Shape-ambient_occlusion-embree
        </text>
        <text x="370.5" y="96.3864496810969"
              style="cursor: default; user-select: none; -webkit-font-smoothing: antialiased; font-family: Roboto; font-size: 12px;"
              fill="#757575" dx="-289.828125px">OpenChessSet-render_cam_1Shape-raytracing-embree
        </text>
        <text x="370.5" y="124.22527631822527"
              style="cursor: default; user-select: none; -webkit-font-smoothing: antialiased; font-family: Roboto; font-size: 12px;"
              fill="#757575" dx="-337.5703125px">OpenChessSet-render_cam_2Shape-ambient_occlusion-embree
        </text>
        <text x="370.5" y="152.06410295535363"
              style="cursor: default; user-select: none; -webkit-font-smoothing: antialiased; font-family: Roboto; font-size: 12px;"
              fill="#757575" dx="-289.828125px">OpenChessSet-render_cam_2Shape-raytracing-embree
        </text>
        <text x="370.5" y="179.90293722187647"
              style="cursor: default; user-select: none; -webkit-font-smoothing: antialiased; font-family: Roboto; font-size: 12px;"
              fill="#757575" dx="-337.5703125px">OpenChessSet-render_cam_3Shape-ambient_occlusion-embree
        </text>
        <text x="370.5" y="207.7417562296103"
              style="cursor: default; user-select: none; -webkit-font-smoothing: antialiased; font-family: Roboto; font-size: 12px;"
              fill="#757575" dx="-289.828125px">OpenChessSet-render_cam_3Shape-raytracing-embree
        </text>
        <text x="370.5" y="235.58059049613314"
              style="cursor: default; user-select: none; -webkit-font-smoothing: antialiased; font-family: Roboto; font-size: 12px;"
              fill="#757575" dx="-337.5703125px">OpenChessSet-render_cam_4Shape-ambient_occlusion-embree
        </text>
        <text x="370.5" y="263.41942476265604"
              style="cursor: default; user-select: none; -webkit-font-smoothing: antialiased; font-family: Roboto; font-size: 12px;"
              fill="#757575" dx="-289.828125px">OpenChessSet-render_cam_4Shape-raytracing-embree
        </text>
        <text x="370.5" y="291.25824377038975"
              style="cursor: default; user-select: none; -webkit-font-smoothing: antialiased; font-family: Roboto; font-size: 12px;"
              fill="#757575" dx="-337.5703125px">OpenChessSet-render_cam_5Shape-ambient_occlusion-embree
        </text>
        <text x="370.5" y="319.0970627781236"
              style="cursor: default; user-select: none; -webkit-font-smoothing: antialiased; font-family: Roboto; font-size: 12px;"
              fill="#757575" dx="-289.828125px">OpenChessSet-render_cam_5Shape-raytracing-embree
        </text>
        <text x="370.5" y="346.93591230343543"
              style="cursor: default; user-select: none; -webkit-font-smoothing: antialiased; font-family: Roboto; font-size: 12px;"
              fill="#757575" dx="-337.5703125px">OpenChessSet-render_cam_6Shape-ambient_occlusion-embree
        </text>
        <text x="370.5" y="374.7747313111694"
              style="cursor: default; user-select: none; -webkit-font-smoothing: antialiased; font-family: Roboto; font-size: 12px;"
              fill="#757575" dx="-289.828125px">OpenChessSet-render_cam_6Shape-raytracing-embree
        </text>
        <text x="370.5" y="402.6135503189031"
              style="cursor: default; user-select: none; -webkit-font-smoothing: antialiased; font-family: Roboto; font-size: 12px;"
              fill="#757575" dx="-337.5703125px">OpenChessSet-render_cam_7Shape-ambient_occlusion-embree
        </text>
        <text x="370.5" y="430.4523693266369"
              style="cursor: default; user-select: none; -webkit-font-smoothing: antialiased; font-family: Roboto; font-size: 12px;"
              fill="#757575" dx="-289.828125px">OpenChessSet-render_cam_7Shape-raytracing-embree
        </text>
        <text x="14.9296875" y="242.5"
              style="cursor: default; user-select: none; -webkit-font-smoothing: antialiased; font-family: Roboto; font-size: 12px;"
              fill="#424242" dx="-16.37109375px" transform="rotate(-90 14.9296875 245.5)">Scene
        </text>
    </g>
    <g></g>
    <g></g>
    <g></g>
</svg>