<svg width="2510" height="910" xmlns="http://www.w3.org/2000/svg"><defs><clipPath id="rablfilter15"><rect x="514.5" y="55.5" width="1848" height="802"></rect></clipPath></defs><g><rect x="0" y="0" width="2510" height="910" fill="#ffffff" fill-opacity="1" stroke="#ffffff" stroke-opacity="0" stroke-width="0"></rect><text x="0" y="15" style="cursor: default; user-select: none; -webkit-font-smoothing: antialiased; font-family: Roboto; font-size: 16px;" fill="#757575" dx="0px">Absolute Timing</text><rect x="2409.8466796875" y="55.5" width="12" height="12" rx="2" ry="2" fill="#4285f4"></rect><text x="2429.8466796875" y="68.5" style="cursor: default; user-select: none; -webkit-font-smoothing: antialiased; font-family: Roboto;" fill="#757575" dx="0px">Baseline</text><rect x="2409.8466796875" y="88.5" width="12" height="12" rx="2" ry="2" fill="#db4437"></rect><text x="2429.8466796875" y="101.5" style="cursor: default; user-select: none; -webkit-font-smoothing: antialiased; font-family: Roboto;" fill="#757575" dx="0px">New revision</text><rect x="514.5" y="55.5" width="1848" height="802" fill="#ffffff" fill-opacity="1" stroke="#ffffff" stroke-opacity="0" stroke-width="1"></rect></g><g><line x1="514.5" x2="514.5" y1="55.5" y2="857.5" stroke="#9E9E9E" stroke-width="1"></line><line x1="630" x2="630" y1="55.5" y2="857.5" stroke="#E0E0E0" stroke-width="1"></line><line x1="745.5" x2="745.5" y1="55.5" y2="857.5" stroke="#E0E0E0" stroke-width="1"></line><line x1="861" x2="861" y1="55.5" y2="857.5" stroke="#E0E0E0" stroke-width="1"></line><line x1="976.5" x2="976.5" y1="55.5" y2="857.5" stroke="#E0E0E0" stroke-width="1"></line><line x1="1092" x2="1092" y1="55.5" y2="857.5" stroke="#E0E0E0" stroke-width="1"></line><line x1="1207.5" x2="1207.5" y1="55.5" y2="857.5" stroke="#E0E0E0" stroke-width="1"></line><line x1="1323" x2="1323" y1="55.5" y2="857.5" stroke="#E0E0E0" stroke-width="1"></line><line x1="1438.5" x2="1438.5" y1="55.5" y2="857.5" stroke="#E0E0E0" stroke-width="1"></line><line x1="1554" x2="1554" y1="55.5" y2="857.5" stroke="#E0E0E0" stroke-width="1"></line><line x1="1669.5" x2="1669.5" y1="55.5" y2="857.5" stroke="#E0E0E0" stroke-width="1"></line><line x1="1785" x2="1785" y1="55.5" y2="857.5" stroke="#E0E0E0" stroke-width="1"></line><line x1="1900.5" x2="1900.5" y1="55.5" y2="857.5" stroke="#E0E0E0" stroke-width="1"></line><line x1="2016" x2="2016" y1="55.5" y2="857.5" stroke="#E0E0E0" stroke-width="1"></line><line x1="2131.5" x2="2131.5" y1="55.5" y2="857.5" stroke="#E0E0E0" stroke-width="1"></line><line x1="2247" x2="2247" y1="55.5" y2="857.5" stroke="#E0E0E0" stroke-width="1"></line><line x1="2362.5" x2="2362.5" y1="55.5" y2="857.5" stroke="#E0E0E0" stroke-width="1"></line></g><g><path d="M 2267.113974383 56 A 2 2 0 0 1 2269.113974383 58 L 2269.113974383 63.41582150101419 A 2 2 0 0 1 2267.113974383 65.4158215010142 L 515 65.4158215010142 A 0 0 0 0 1 515 65.4158215010142 L 515 56 A 0 0 0 0 1 515 56 Z" fill="#4285f4" clip-path="url(#rablfilter15)"></path><path d="M 2227.8371407100003 66.4158215010142 A 2 2 0 0 1 2229.8371407100003 68.4158215010142 L 2229.8371407100003 73.8316430020284 A 2 2 0 0 1 2227.8371407100003 75.8316430020284 L 515 75.8316430020284 A 0 0 0 0 1 515 75.8316430020284 L 515 66.4158215010142 A 0 0 0 0 1 515 66.4158215010142 Z" fill="#db4437" clip-path="url(#rablfilter15)"></path><path d="M 612.131561222 88.04868154158214 A 2 2 0 0 1 614.131561222 90.04868154158214 L 614.131561222 95.46450304259635 A 2 2 0 0 1 612.131561222 97.46450304259635 L 515 97.46450304259635 A 0 0 0 0 1 515 97.46450304259635 L 515 88.04868154158214 A 0 0 0 0 1 515 88.04868154158214 Z" fill="#4285f4" clip-path="url(#rablfilter15)"></path><path d="M 606.909240503 98.46450304259635 A 2 2 0 0 1 608.909240503 100.46450304259635 L 608.909240503 105.88032454361056 A 2 2 0 0 1 606.909240503 107.88032454361056 L 515 107.88032454361056 A 0 0 0 0 1 515 107.88032454361056 L 515 98.46450304259635 A 0 0 0 0 1 515 98.46450304259635 Z" fill="#db4437" clip-path="url(#rablfilter15)"></path><path d="M 587.760890513 120.0973630831643 A 2 2 0 0 1 589.760890513 122.0973630831643 L 589.760890513 127.51318458417853 A 2 2 0 0 1 587.760890513 129.51318458417853 L 515 129.51318458417853 A 0 0 0 0 1 515 129.51318458417853 L 515 120.0973630831643 A 0 0 0 0 1 515 120.0973630831643 Z" fill="#4285f4" clip-path="url(#rablfilter15)"></path><path d="M 584.470031711 130.51318458417853 A 2 2 0 0 1 586.470031711 132.51318458417853 L 586.470031711 137.92900608519273 A 2 2 0 0 1 584.470031711 139.92900608519273 L 515 139.92900608519273 A 0 0 0 0 1 515 139.92900608519273 L 515 130.51318458417853 A 0 0 0 0 1 515 130.51318458417853 Z" fill="#db4437" clip-path="url(#rablfilter15)"></path><path d="M 577.031615957 152.14604462474648 A 2 2 0 0 1 579.031615957 154.14604462474648 L 579.031615957 159.56186612576067 A 2 2 0 0 1 577.031615957 161.56186612576067 L 515 161.56186612576067 A 0 0 0 0 1 515 161.56186612576067 L 515 152.14604462474648 A 0 0 0 0 1 515 152.14604462474648 Z" fill="#4285f4" clip-path="url(#rablfilter15)"></path><path d="M 574.378394771 162.56186612576067 A 2 2 0 0 1 576.378394771 164.56186612576067 L 576.378394771 169.97768762677487 A 2 2 0 0 1 574.378394771 171.97768762677487 L 515 171.97768762677487 A 0 0 0 0 1 515 171.97768762677487 L 515 162.56186612576067 A 0 0 0 0 1 515 162.56186612576067 Z" fill="#db4437" clip-path="url(#rablfilter15)"></path><path d="M 532.521119234 184.1947261663286 A 2 2 0 0 1 534.521119234 186.1947261663286 L 534.521119234 191.61054766734281 A 2 2 0 0 1 532.521119234 193.61054766734281 L 515 193.61054766734281 A 0 0 0 0 1 515 193.61054766734281 L 515 184.1947261663286 A 0 0 0 0 1 515 184.1947261663286 Z" fill="#4285f4" clip-path="url(#rablfilter15)"></path><path d="M 530.03009285 194.61054766734281 A 2 2 0 0 1 532.03009285 196.61054766734281 L 532.03009285 202.02636916835704 A 2 2 0 0 1 530.03009285 204.02636916835704 L 515 204.02636916835704 A 0 0 0 0 1 515 204.02636916835704 L 515 194.61054766734281 A 0 0 0 0 1 515 194.61054766734281 Z" fill="#db4437" clip-path="url(#rablfilter15)"></path><path d="M 655.803273845 216.24340770791076 A 2 2 0 0 1 657.803273845 218.24340770791076 L 657.803273845 223.65922920892498 A 2 2 0 0 1 655.803273845 225.65922920892498 L 515 225.65922920892498 A 0 0 0 0 1 515 225.65922920892498 L 515 216.24340770791076 A 0 0 0 0 1 515 216.24340770791076 Z" fill="#4285f4" clip-path="url(#rablfilter15)"></path><path d="M 653.356904843 226.65922920892498 A 2 2 0 0 1 655.356904843 228.65922920892498 L 655.356904843 234.07505070993918 A 2 2 0 0 1 653.356904843 236.07505070993918 L 515 236.07505070993918 A 0 0 0 0 1 515 236.07505070993918 L 515 226.65922920892498 A 0 0 0 0 1 515 226.65922920892498 Z" fill="#db4437" clip-path="url(#rablfilter15)"></path><path d="M 552.021648359 248.29208924949293 A 2 2 0 0 1 554.021648359 250.29208924949293 L 554.021648359 255.7079107505071 A 2 2 0 0 1 552.021648359 257.7079107505071 L 515 257.7079107505071 A 0 0 0 0 1 515 257.7079107505071 L 515 248.29208924949293 A 0 0 0 0 1 515 248.29208924949293 Z" fill="#4285f4" clip-path="url(#rablfilter15)"></path><path d="M 549.731908676 258.7079107505071 A 2 2 0 0 1 551.731908676 260.7079107505071 L 551.731908676 266.12373225152135 A 2 2 0 0 1 549.731908676 268.12373225152135 L 515 268.12373225152135 A 0 0 0 0 1 515 268.12373225152135 L 515 258.7079107505071 A 0 0 0 0 1 515 258.7079107505071 Z" fill="#db4437" clip-path="url(#rablfilter15)"></path><path d="M 577.805457179 280.34077079107504 A 2 2 0 0 1 579.805457179 282.34077079107504 L 579.805457179 287.75659229208924 A 2 2 0 0 1 577.805457179 289.75659229208924 L 515 289.75659229208924 A 0 0 0 0 1 515 289.75659229208924 L 515 280.34077079107504 A 0 0 0 0 1 515 280.34077079107504 Z" fill="#4285f4" clip-path="url(#rablfilter15)"></path><path d="M 577.24017269 290.75659229208924 A 2 2 0 0 1 579.24017269 292.75659229208924 L 579.24017269 298.1724137931035 A 2 2 0 0 1 577.24017269 300.1724137931035 L 515 300.1724137931035 A 0 0 0 0 1 515 300.1724137931035 L 515 290.75659229208924 A 0 0 0 0 1 515 290.75659229208924 Z" fill="#db4437" clip-path="url(#rablfilter15)"></path><path d="M 523.501582169 312.3894523326572 A 2 2 0 0 1 525.501582169 314.3894523326572 L 525.501582169 319.8052738336714 A 2 2 0 0 1 523.501582169 321.8052738336714 L 515 321.8052738336714 A 0 0 0 0 1 515 321.8052738336714 L 515 312.3894523326572 A 0 0 0 0 1 515 312.3894523326572 Z" fill="#4285f4" clip-path="url(#rablfilter15)"></path><path d="M 523.104279263 322.8052738336714 A 2 2 0 0 1 525.104279263 324.8052738336714 L 525.104279263 330.2210953346856 A 2 2 0 0 1 523.104279263 332.2210953346856 L 515 332.2210953346856 A 0 0 0 0 1 515 332.2210953346856 L 515 322.8052738336714 A 0 0 0 0 1 515 322.8052738336714 Z" fill="#db4437" clip-path="url(#rablfilter15)"></path><path d="M 518.91517211 344.4381338742393 A 2 2 0 0 1 520.91517211 346.4381338742393 L 520.91517211 351.8539553752536 A 2 2 0 0 1 518.91517211 353.8539553752536 L 515 353.8539553752536 A 0 0 0 0 1 515 353.8539553752536 L 515 344.4381338742393 A 0 0 0 0 1 515 344.4381338742393 Z" fill="#4285f4" clip-path="url(#rablfilter15)"></path><path d="M 518.598359075 354.8539553752536 A 2 2 0 0 1 520.598359075 356.8539553752536 L 520.598359075 362.2697768762677 A 2 2 0 0 1 518.598359075 364.2697768762677 L 515 364.2697768762677 A 0 0 0 0 1 515 364.2697768762677 L 515 354.8539553752536 A 0 0 0 0 1 515 354.8539553752536 Z" fill="#db4437" clip-path="url(#rablfilter15)"></path><path d="M 525.778529072 376.4868154158215 A 2 2 0 0 1 527.778529072 378.4868154158215 L 527.778529072 383.9026369168357 A 2 2 0 0 1 525.778529072 385.9026369168357 L 515 385.9026369168357 A 0 0 0 0 1 515 385.9026369168357 L 515 376.4868154158215 A 0 0 0 0 1 515 376.4868154158215 Z" fill="#4285f4" clip-path="url(#rablfilter15)"></path><path d="M 525.653218733 386.9026369168357 A 2 2 0 0 1 527.653218733 388.9026369168357 L 527.653218733 394.31845841784985 A 2 2 0 0 1 525.653218733 396.31845841784985 L 515 396.31845841784985 A 0 0 0 0 1 515 396.31845841784985 L 515 386.9026369168357 A 0 0 0 0 1 515 386.9026369168357 Z" fill="#db4437" clip-path="url(#rablfilter15)"></path><path d="M 518.00415662 408.53549695740367 A 2 2 0 0 1 520.00415662 410.53549695740367 L 520.00415662 415.95131845841786 A 2 2 0 0 1 518.00415662 417.95131845841786 L 515 417.95131845841786 A 0 0 0 0 1 515 417.95131845841786 L 515 408.53549695740367 A 0 0 0 0 1 515 408.53549695740367 Z" fill="#4285f4" clip-path="url(#rablfilter15)"></path><path d="M 517.899217247 418.95131845841786 A 2 2 0 0 1 519.899217247 420.95131845841786 L 519.899217247 426.367139959432 A 2 2 0 0 1 517.899217247 428.367139959432 L 515 428.367139959432 A 0 0 0 0 1 515 428.367139959432 L 515 418.95131845841786 A 0 0 0 0 1 515 418.95131845841786 Z" fill="#db4437" clip-path="url(#rablfilter15)"></path><path d="M 516.08641541 440.58417849898586 A 2 2 0 0 1 518.08641541 442.58417849898586 L 518.08641541 448 A 2 2 0 0 1 516.08641541 450 L 515 450 A 0 0 0 0 1 515 450 L 515 440.58417849898586 A 0 0 0 0 1 515 440.58417849898586 Z" fill="#4285f4" clip-path="url(#rablfilter15)"></path><path d="M 516.049841411 451 A 2 2 0 0 1 518.049841411 453 L 518.049841411 458.4158215010142 A 2 2 0 0 1 516.049841411 460.4158215010142 L 515 460.4158215010142 A 0 0 0 0 1 515 460.4158215010142 L 515 451 A 0 0 0 0 1 515 451 Z" fill="#db4437" clip-path="url(#rablfilter15)"></path><path d="M 514.5 472.632860040568 A 0.31408469400003014 0.31408469400003014 0 0 1 514.814084694 472.94694473456804 L 514.814084694 481.73459684758217 A 0.31408469400003014 0.31408469400003014 0 0 1 514.5 482.0486815415822 L 514.5 482.0486815415822 A 0 0 0 0 1 514.5 482.0486815415822 L 514.5 472.632860040568 A 0 0 0 0 1 514.5 472.632860040568 Z" fill="#4285f4" clip-path="url(#rablfilter15)"></path><path d="M 514.5 483.0486815415822 A 0.3121422149999944 0.3121422149999944 0 0 1 514.812142215 483.3608237565822 L 514.812142215 492.15236082759634 A 0.3121422149999944 0.3121422149999944 0 0 1 514.5 492.46450304259633 L 514.5 492.46450304259633 A 0 0 0 0 1 514.5 492.46450304259633 L 514.5 483.0486815415822 A 0 0 0 0 1 514.5 483.0486815415822 Z" fill="#db4437" clip-path="url(#rablfilter15)"></path><path d="M 514.5 504.6815415821501 A 1.9592050170000448 1.9592050170000448 0 0 1 516.459205017 506.64074659915013 L 516.459205017 512.1381580661642 A 1.9592050170000448 1.9592050170000448 0 0 1 514.5 514.0973630831643 L 514.5 514.0973630831643 A 0 0 0 0 1 514.5 514.0973630831643 L 514.5 504.6815415821501 A 0 0 0 0 1 514.5 504.6815415821501 Z" fill="#4285f4" clip-path="url(#rablfilter15)"></path><path d="M 514.5 515.0973630831643 A 1.9764621030000171 1.9764621030000171 0 0 1 516.476462103 517.0738251861643 L 516.476462103 522.5367224811785 A 1.9764621030000171 1.9764621030000171 0 0 1 514.5 524.5131845841785 L 514.5 524.5131845841785 A 0 0 0 0 1 514.5 524.5131845841785 L 514.5 515.0973630831643 A 0 0 0 0 1 514.5 515.0973630831643 Z" fill="#db4437" clip-path="url(#rablfilter15)"></path><path d="M 515 536.7302231237322 A 1.1548229779999701 1.1548229779999701 0 0 1 516.154822978 537.8850461017322 L 516.154822978 544.9912216467466 A 1.1548229779999701 1.1548229779999701 0 0 1 515 546.1460446247465 L 515 546.1460446247465 A 0 0 0 0 1 515 546.1460446247465 L 515 536.7302231237322 A 0 0 0 0 1 515 536.7302231237322 Z" fill="#4285f4" clip-path="url(#rablfilter15)"></path><path d="M 515 547.1460446247465 A 1.2009037819999548 1.2009037819999548 0 0 1 516.200903782 548.3469484067465 L 516.200903782 555.3609623437607 A 1.2009037819999548 1.2009037819999548 0 0 1 515 556.5618661257606 L 515 556.5618661257606 A 0 0 0 0 1 515 556.5618661257606 L 515 547.1460446247465 A 0 0 0 0 1 515 547.1460446247465 Z" fill="#db4437" clip-path="url(#rablfilter15)"></path><path d="M 523.134425918 568.7789046653144 A 2 2 0 0 1 525.134425918 570.7789046653144 L 525.134425918 576.1947261663286 A 2 2 0 0 1 523.134425918 578.1947261663286 L 515 578.1947261663286 A 0 0 0 0 1 515 578.1947261663286 L 515 568.7789046653144 A 0 0 0 0 1 515 568.7789046653144 Z" fill="#4285f4" clip-path="url(#rablfilter15)"></path><path d="M 523.23707816 579.1947261663286 A 2 2 0 0 1 525.23707816 581.1947261663286 L 525.23707816 586.6105476673428 A 2 2 0 0 1 523.23707816 588.6105476673428 L 515 588.6105476673428 A 0 0 0 0 1 515 588.6105476673428 L 515 579.1947261663286 A 0 0 0 0 1 515 579.1947261663286 Z" fill="#db4437" clip-path="url(#rablfilter15)"></path><path d="M 518.950581638 600.8275862068966 A 2 2 0 0 1 520.950581638 602.8275862068966 L 520.950581638 608.2434077079108 A 2 2 0 0 1 518.950581638 610.2434077079108 L 515 610.2434077079108 A 0 0 0 0 1 515 610.2434077079108 L 515 600.8275862068966 A 0 0 0 0 1 515 600.8275862068966 Z" fill="#4285f4" clip-path="url(#rablfilter15)"></path><path d="M 519.080016482 611.2434077079108 A 2 2 0 0 1 521.080016482 613.2434077079108 L 521.080016482 618.6592292089249 A 2 2 0 0 1 519.080016482 620.6592292089249 L 515 620.6592292089249 A 0 0 0 0 1 515 620.6592292089249 L 515 611.2434077079108 A 0 0 0 0 1 515 611.2434077079108 Z" fill="#db4437" clip-path="url(#rablfilter15)"></path><path d="M 514.5 632.8762677484787 A 1.4887566539999852 1.4887566539999852 0 0 1 515.988756654 634.3650244024786 L 515.988756654 640.8033325954929 A 1.4887566539999852 1.4887566539999852 0 0 1 514.5 642.2920892494928 L 514.5 642.2920892494928 A 0 0 0 0 1 514.5 642.2920892494928 L 514.5 632.8762677484787 A 0 0 0 0 1 514.5 632.8762677484787 Z" fill="#4285f4" clip-path="url(#rablfilter15)"></path><path d="M 514.5 643.2920892494928 A 1.6602529020000247 1.6602529020000247 0 0 1 516.160252902 644.9523421514929 L 516.160252902 651.0476578485071 A 1.6602529020000247 1.6602529020000247 0 0 1 514.5 652.7079107505072 L 514.5 652.7079107505072 A 0 0 0 0 1 514.5 652.7079107505072 L 514.5 643.2920892494928 A 0 0 0 0 1 514.5 643.2920892494928 Z" fill="#db4437" clip-path="url(#rablfilter15)"></path><path d="M 522.962833112 664.9249492900609 A 2 2 0 0 1 524.962833112 666.9249492900609 L 524.962833112 672.3407707910751 A 2 2 0 0 1 522.962833112 674.3407707910751 L 515 674.3407707910751 A 0 0 0 0 1 515 674.3407707910751 L 515 664.9249492900609 A 0 0 0 0 1 515 664.9249492900609 Z" fill="#4285f4" clip-path="url(#rablfilter15)"></path><path d="M 523.1508257630001 675.3407707910751 A 2 2 0 0 1 525.1508257630001 677.3407707910751 L 525.1508257630001 682.7565922920892 A 2 2 0 0 1 523.1508257630001 684.7565922920892 L 515 684.7565922920892 A 0 0 0 0 1 515 684.7565922920892 L 515 675.3407707910751 A 0 0 0 0 1 515 675.3407707910751 Z" fill="#db4437" clip-path="url(#rablfilter15)"></path><path d="M 522.475468388 696.973630831643 A 2 2 0 0 1 524.475468388 698.973630831643 L 524.475468388 704.3894523326572 A 2 2 0 0 1 522.475468388 706.3894523326572 L 515 706.3894523326572 A 0 0 0 0 1 515 706.3894523326572 L 515 696.973630831643 A 0 0 0 0 1 515 696.973630831643 Z" fill="#4285f4" clip-path="url(#rablfilter15)"></path><path d="M 522.81204278 707.3894523326572 A 2 2 0 0 1 524.81204278 709.3894523326572 L 524.81204278 714.8052738336714 A 2 2 0 0 1 522.81204278 716.8052738336714 L 515 716.8052738336714 A 0 0 0 0 1 515 716.8052738336714 L 515 707.3894523326572 A 0 0 0 0 1 515 707.3894523326572 Z" fill="#db4437" clip-path="url(#rablfilter15)"></path><path d="M 541.09804436 729.0223123732252 A 2 2 0 0 1 543.09804436 731.0223123732252 L 543.09804436 736.4381338742394 A 2 2 0 0 1 541.09804436 738.4381338742394 L 515 738.4381338742394 A 0 0 0 0 1 515 738.4381338742394 L 515 729.0223123732252 A 0 0 0 0 1 515 729.0223123732252 Z" fill="#4285f4" clip-path="url(#rablfilter15)"></path><path d="M 541.62189923 739.4381338742394 A 2 2 0 0 1 543.62189923 741.4381338742394 L 543.62189923 746.8539553752535 A 2 2 0 0 1 541.62189923 748.8539553752535 L 515 748.8539553752535 A 0 0 0 0 1 515 748.8539553752535 L 515 739.4381338742394 A 0 0 0 0 1 515 739.4381338742394 Z" fill="#db4437" clip-path="url(#rablfilter15)"></path><path d="M 530.402362748 761.0709939148073 A 2 2 0 0 1 532.402362748 763.0709939148073 L 532.402362748 768.4868154158215 A 2 2 0 0 1 530.402362748 770.4868154158215 L 515 770.4868154158215 A 0 0 0 0 1 515 770.4868154158215 L 515 761.0709939148073 A 0 0 0 0 1 515 761.0709939148073 Z" fill="#4285f4" clip-path="url(#rablfilter15)"></path><path d="M 531.039720854 771.4868154158215 A 2 2 0 0 1 533.039720854 773.4868154158215 L 533.039720854 778.9026369168357 A 2 2 0 0 1 531.039720854 780.9026369168357 L 515 780.9026369168357 A 0 0 0 0 1 515 780.9026369168357 L 515 771.4868154158215 A 0 0 0 0 1 515 771.4868154158215 Z" fill="#db4437" clip-path="url(#rablfilter15)"></path><path d="M 520.652556143 793.1196754563895 A 2 2 0 0 1 522.652556143 795.1196754563895 L 522.652556143 800.5354969574037 A 2 2 0 0 1 520.652556143 802.5354969574037 L 515 802.5354969574037 A 0 0 0 0 1 515 802.5354969574037 L 515 793.1196754563895 A 0 0 0 0 1 515 793.1196754563895 Z" fill="#4285f4" clip-path="url(#rablfilter15)"></path><path d="M 521.411391836 803.5354969574037 A 2 2 0 0 1 523.411391836 805.5354969574037 L 523.411391836 810.9513184584179 A 2 2 0 0 1 521.411391836 812.9513184584179 L 515 812.9513184584179 A 0 0 0 0 1 515 812.9513184584179 L 515 803.5354969574037 A 0 0 0 0 1 515 803.5354969574037 Z" fill="#db4437" clip-path="url(#rablfilter15)"></path><path d="M 652.83947339 825.1683569979717 A 2 2 0 0 1 654.83947339 827.1683569979717 L 654.83947339 832.5841784989858 A 2 2 0 0 1 652.83947339 834.5841784989858 L 515 834.5841784989858 A 0 0 0 0 1 515 834.5841784989858 L 515 825.1683569979717 A 0 0 0 0 1 515 825.1683569979717 Z" fill="#4285f4" clip-path="url(#rablfilter15)"></path><path d="M 653.956220945 835.5841784989858 A 2 2 0 0 1 655.956220945 837.5841784989858 L 655.956220945 843 A 2 2 0 0 1 653.956220945 845 L 515 845 A 0 0 0 0 1 515 845 L 515 835.5841784989858 A 0 0 0 0 1 515 835.5841784989858 Z" fill="#db4437" clip-path="url(#rablfilter15)"></path></g><g></g><g><text x="514.5" y="874.5" style="cursor: default; user-select: none; -webkit-font-smoothing: antialiased; font-family: Roboto; font-size: 12px;" fill="#757575" dx="-3.375px">0</text><text x="630" y="874.5" style="cursor: default; user-select: none; -webkit-font-smoothing: antialiased; font-family: Roboto; font-size: 12px;" fill="#757575" dx="-10.1171875px">500</text><text x="745.5" y="874.5" style="cursor: default; user-select: none; -webkit-font-smoothing: antialiased; font-family: Roboto; font-size: 12px;" fill="#757575" dx="-7.140625px">1K</text><text x="861" y="874.5" style="cursor: default; user-select: none; -webkit-font-smoothing: antialiased; font-family: Roboto; font-size: 12px;" fill="#757575" dx="-12.09375px">1.5K</text><text x="976.5" y="874.5" style="cursor: default; user-select: none; -webkit-font-smoothing: antialiased; font-family: Roboto; font-size: 12px;" fill="#757575" dx="-7.140625px">2K</text><text x="1092" y="874.5" style="cursor: default; user-select: none; -webkit-font-smoothing: antialiased; font-family: Roboto; font-size: 12px;" fill="#757575" dx="-12.09375px">2.5K</text><text x="1207.5" y="874.5" style="cursor: default; user-select: none; -webkit-font-smoothing: antialiased; font-family: Roboto; font-size: 12px;" fill="#757575" dx="-7.140625px">3K</text><text x="1323" y="874.5" style="cursor: default; user-select: none; -webkit-font-smoothing: antialiased; font-family: Roboto; font-size: 12px;" fill="#757575" dx="-12.09375px">3.5K</text><text x="1438.5" y="874.5" style="cursor: default; user-select: none; -webkit-font-smoothing: antialiased; font-family: Roboto; font-size: 12px;" fill="#757575" dx="-7.140625px">4K</text><text x="1554" y="874.5" style="cursor: default; user-select: none; -webkit-font-smoothing: antialiased; font-family: Roboto; font-size: 12px;" fill="#757575" dx="-12.09375px">4.5K</text><text x="1669.5" y="874.5" style="cursor: default; user-select: none; -webkit-font-smoothing: antialiased; font-family: Roboto; font-size: 12px;" fill="#757575" dx="-7.140625px">5K</text><text x="1785" y="874.5" style="cursor: default; user-select: none; -webkit-font-smoothing: antialiased; font-family: Roboto; font-size: 12px;" fill="#757575" dx="-12.09375px">5.5K</text><text x="1900.5" y="874.5" style="cursor: default; user-select: none; -webkit-font-smoothing: antialiased; font-family: Roboto; font-size: 12px;" fill="#757575" dx="-7.140625px">6K</text><text x="2016" y="874.5" style="cursor: default; user-select: none; -webkit-font-smoothing: antialiased; font-family: Roboto; font-size: 12px;" fill="#757575" dx="-12.09375px">6.5K</text><text x="2131.5" y="874.5" style="cursor: default; user-select: none; -webkit-font-smoothing: antialiased; font-family: Roboto; font-size: 12px;" fill="#757575" dx="-7.140625px">7K</text><text x="2247" y="874.5" style="cursor: default; user-select: none; -webkit-font-smoothing: antialiased; font-family: Roboto; font-size: 12px;" fill="#757575" dx="-12.09375px">7.5K</text><text x="2362.5" y="874.5" style="cursor: default; user-select: none; -webkit-font-smoothing: antialiased; font-family: Roboto; font-size: 12px;" fill="#757575" dx="-7.140625px">8K</text><text x="1440.43603515625" y="906.5" style="cursor: default; user-select: none; -webkit-font-smoothing: antialiased; font-family: Roboto; font-size: 12px;" fill="#424242" dx="-33.6484375px">Render Time</text><text x="508.5" y="69.91581811189167" style="cursor: default; user-select: none; -webkit-font-smoothing: antialiased; font-family: Roboto; font-size: 12px;" fill="#757575" dx="-213.375px">Attic_NVIDIA-Camera-raytracing-embree</text><text x="508.5" y="101.9645056579466" style="cursor: default; user-select: none; -webkit-font-smoothing: antialiased; font-family: Roboto; font-size: 12px;" fill="#757575" dx="-259.25px">Intel_Sponza-PhysCamera001-raytracing-embree</text><text x="508.5" y="134.01318557460706" style="cursor: default; user-select: none; -webkit-font-smoothing: antialiased; font-family: Roboto; font-size: 12px;" fill="#757575" dx="-367.671875px">Intel_Sponza_Candles_Thin_Lens-PhysCamera002-raytracing-embree</text><text x="508.5" y="166.06187312066197" style="cursor: default; user-select: none; -webkit-font-smoothing: antialiased; font-family: Roboto; font-size: 12px;" fill="#757575" dx="-290.328125px">Intel_Sponza_Knight-KnightCam001-raytracing-embree</text><text x="508.5" y="198.11054540792782" style="cursor: default; user-select: none; -webkit-font-smoothing: antialiased; font-family: Roboto; font-size: 12px;" fill="#757575" dx="-223.640625px">CornellBox-render_cam-raytracing-embree</text><text x="508.5" y="230.15923295398278" style="cursor: default; user-select: none; -webkit-font-smoothing: antialiased; font-family: Roboto; font-size: 12px;" fill="#757575" dx="-295.796875px">DailyDweeb-VariantCamera-raytracing-embree-thin_lens</text><text x="508.5" y="262.20790524124857" style="cursor: default; user-select: none; -webkit-font-smoothing: antialiased; font-family: Roboto; font-size: 12px;" fill="#757575" dx="-257.5625px">EmperorCrown-CameraShape-raytracing-embree</text><text x="508.5" y="294.2565927873035" style="cursor: default; user-select: none; -webkit-font-smoothing: antialiased; font-family: Roboto; font-size: 12px;" fill="#757575" dx="-312.71875px">OpenChessSet-render_cam_detailShape-raytracing-embree</text><text x="508.5" y="326.3052803333584" style="cursor: default; user-select: none; -webkit-font-smoothing: antialiased; font-family: Roboto; font-size: 12px;" fill="#757575" dx="-214.96875px">Blenderman-Camera_001-debug-embree</text><text x="508.5" y="358.3539678794134" style="cursor: default; user-select: none; -webkit-font-smoothing: antialiased; font-family: Roboto; font-size: 12px;" fill="#757575" dx="-276.21875px">DailyDweeb-VariantCamera-debug-embree-thin_lens</text><text x="508.5" y="390.4026249078902" style="cursor: default; user-select: none; -webkit-font-smoothing: antialiased; font-family: Roboto; font-size: 12px;" fill="#757575" dx="-259.875px">HsdLogo-render_cam_1Shape-raytracing-embree</text><text x="508.5" y="422.4513124539451" style="cursor: default; user-select: none; -webkit-font-smoothing: antialiased; font-family: Roboto; font-size: 12px;" fill="#757575" dx="-415.421875px">Intel_Sponza_Candles_Thin_Lens-PhysCamera002-ambient_occlusion-embree</text><text x="508.5" y="454.5" style="cursor: default; user-select: none; -webkit-font-smoothing: antialiased; font-family: Roboto; font-size: 12px;" fill="#757575" dx="-261.140625px">Attic_NVIDIA-Camera-ambient_occlusion-embree</text><text x="508.5" y="486.548687546055" style="cursor: default; user-select: none; -webkit-font-smoothing: antialiased; font-family: Roboto; font-size: 12px;" fill="#757575" dx="-271.40625px">CornellBox-render_cam-ambient_occlusion-embree</text><text x="508.5" y="518.5973750921098" style="cursor: default; user-select: none; -webkit-font-smoothing: antialiased; font-family: Roboto; font-size: 12px;" fill="#757575" dx="-237.984375px">EmperorCrown-CameraShape-debug-embree</text><text x="508.5" y="550.6460321205868" style="cursor: default; user-select: none; -webkit-font-smoothing: antialiased; font-family: Roboto; font-size: 12px;" fill="#757575" dx="-307.015625px">Intel_Sponza-PhysCamera001-ambient_occlusion-embree</text><text x="508.5" y="582.6947501842196" style="cursor: default; user-select: none; -webkit-font-smoothing: antialiased; font-family: Roboto; font-size: 12px;" fill="#757575" dx="-338.078125px">Intel_Sponza_Knight-KnightCam001-ambient_occlusion-embree</text><text x="508.5" y="614.7434072126966" style="cursor: default; user-select: none; -webkit-font-smoothing: antialiased; font-family: Roboto; font-size: 12px;" fill="#757575" dx="-381.8125px">Intel_mooreLane-MASTER_cameraExtended-ambient_occlusion-embree</text><text x="508.5" y="646.7920642411732" style="cursor: default; user-select: none; -webkit-font-smoothing: antialiased; font-family: Roboto; font-size: 12px;" fill="#757575" dx="-193.796875px">Attic_NVIDIA-Camera-debug-embree</text><text x="508.5" y="678.8407823048065" style="cursor: default; user-select: none; -webkit-font-smoothing: antialiased; font-family: Roboto; font-size: 12px;" fill="#757575" dx="-307.640625px">HsdLogo-render_cam_1Shape-ambient_occlusion-embree</text><text x="508.5" y="710.8894393332832" style="cursor: default; user-select: none; -webkit-font-smoothing: antialiased; font-family: Roboto; font-size: 12px;" fill="#757575" dx="-305.328125px">EmperorCrown-CameraShape-ambient_occlusion-embree</text><text x="508.5" y="742.9381573969163" style="cursor: default; user-select: none; -webkit-font-smoothing: antialiased; font-family: Roboto; font-size: 12px;" fill="#757575" dx="-282.3125px">Blenderman-Camera_001-ambient_occlusion-embree</text><text x="508.5" y="774.986814425393" style="cursor: default; user-select: none; -webkit-font-smoothing: antialiased; font-family: Roboto; font-size: 12px;" fill="#757575" dx="-343.546875px">DailyDweeb-VariantCamera-ambient_occlusion-embree-thin_lens</text><text x="508.5" y="807.0354714538698" style="cursor: default; user-select: none; -webkit-font-smoothing: antialiased; font-family: Roboto; font-size: 12px;" fill="#757575" dx="-360.46875px">OpenChessSet-render_cam_detailShape-ambient_occlusion-embree</text><text x="508.5" y="839.0841895175029" style="cursor: default; user-select: none; -webkit-font-smoothing: antialiased; font-family: Roboto; font-size: 12px;" fill="#757575" dx="-475.40625px">CameraTestGround-VariantCamera-raytracing-embree-realistic_canon_70_200mm_70mm</text><text x="15.09375" y="447.5" style="cursor: default; user-select: none; -webkit-font-smoothing: antialiased; font-family: Roboto; font-size: 12px;" fill="#424242" dx="-16.3828125px" transform="rotate(-90 15.09375 450.5)">Scene</text></g><g></g><g></g><g></g></svg>