<svg width="2510" height="910" xmlns="http://www.w3.org/2000/svg"><defs><clipPath id="rablfilter1"><rect x="514.5" y="55.5" width="1848" height="802"></rect></clipPath></defs><g><rect x="0" y="0" width="2510" height="910" fill="#ffffff" fill-opacity="1" stroke="#ffffff" stroke-opacity="0" stroke-width="0"></rect><text x="0" y="15" style="cursor: default; user-select: none; -webkit-font-smoothing: antialiased; font-family: Roboto; font-size: 16px;" fill="#757575" dx="0px">Absolute Timing</text><rect x="2409.8466796875" y="55.5" width="12" height="12" rx="2" ry="2" fill="#4285f4"></rect><text x="2429.8466796875" y="68.5" style="cursor: default; user-select: none; -webkit-font-smoothing: antialiased; font-family: Roboto;" fill="#757575" dx="0px">Baseline</text><rect x="2409.8466796875" y="88.5" width="12" height="12" rx="2" ry="2" fill="#db4437"></rect><text x="2429.8466796875" y="101.5" style="cursor: default; user-select: none; -webkit-font-smoothing: antialiased; font-family: Roboto;" fill="#757575" dx="0px">New revision</text><rect x="514.5" y="55.5" width="1848" height="802" fill="#ffffff" fill-opacity="1" stroke="#ffffff" stroke-opacity="0" stroke-width="1"></rect></g><g><line x1="514.5" x2="514.5" y1="55.5" y2="857.5" stroke="#9E9E9E" stroke-width="1"></line><line x1="630" x2="630" y1="55.5" y2="857.5" stroke="#E0E0E0" stroke-width="1"></line><line x1="745.5" x2="745.5" y1="55.5" y2="857.5" stroke="#E0E0E0" stroke-width="1"></line><line x1="861" x2="861" y1="55.5" y2="857.5" stroke="#E0E0E0" stroke-width="1"></line><line x1="976.5" x2="976.5" y1="55.5" y2="857.5" stroke="#E0E0E0" stroke-width="1"></line><line x1="1092" x2="1092" y1="55.5" y2="857.5" stroke="#E0E0E0" stroke-width="1"></line><line x1="1207.5" x2="1207.5" y1="55.5" y2="857.5" stroke="#E0E0E0" stroke-width="1"></line><line x1="1323" x2="1323" y1="55.5" y2="857.5" stroke="#E0E0E0" stroke-width="1"></line><line x1="1438.5" x2="1438.5" y1="55.5" y2="857.5" stroke="#E0E0E0" stroke-width="1"></line><line x1="1554" x2="1554" y1="55.5" y2="857.5" stroke="#E0E0E0" stroke-width="1"></line><line x1="1669.5" x2="1669.5" y1="55.5" y2="857.5" stroke="#E0E0E0" stroke-width="1"></line><line x1="1785" x2="1785" y1="55.5" y2="857.5" stroke="#E0E0E0" stroke-width="1"></line><line x1="1900.5" x2="1900.5" y1="55.5" y2="857.5" stroke="#E0E0E0" stroke-width="1"></line><line x1="2016" x2="2016" y1="55.5" y2="857.5" stroke="#E0E0E0" stroke-width="1"></line><line x1="2131.5" x2="2131.5" y1="55.5" y2="857.5" stroke="#E0E0E0" stroke-width="1"></line><line x1="2247" x2="2247" y1="55.5" y2="857.5" stroke="#E0E0E0" stroke-width="1"></line><line x1="2362.5" x2="2362.5" y1="55.5" y2="857.5" stroke="#E0E0E0" stroke-width="1"></line></g><g><path d="M 2267.113974383 56 A 2 2 0 0 1 2269.113974383 58 L 2269.113974383 63.41582150101419 A 2 2 0 0 1 2267.113974383 65.4158215010142 L 515 65.4158215010142 A 0 0 0 0 1 515 65.4158215010142 L 515 56 A 0 0 0 0 1 515 56 Z" fill="#4285f4" clip-path="url(#rablfilter1)"></path><path d="M 2213.435908634 66.4158215010142 A 2 2 0 0 1 2215.435908634 68.4158215010142 L 2215.435908634 73.8316430020284 A 2 2 0 0 1 2213.435908634 75.8316430020284 L 515 75.8316430020284 A 0 0 0 0 1 515 75.8316430020284 L 515 66.4158215010142 A 0 0 0 0 1 515 66.4158215010142 Z" fill="#db4437" clip-path="url(#rablfilter1)"></path><path d="M 612.131561222 88.04868154158214 A 2 2 0 0 1 614.131561222 90.04868154158214 L 614.131561222 95.46450304259635 A 2 2 0 0 1 612.131561222 97.46450304259635 L 515 97.46450304259635 A 0 0 0 0 1 515 97.46450304259635 L 515 88.04868154158214 A 0 0 0 0 1 515 88.04868154158214 Z" fill="#4285f4" clip-path="url(#rablfilter1)"></path><path d="M 603.166882961 98.46450304259635 A 2 2 0 0 1 605.166882961 100.46450304259635 L 605.166882961 105.88032454361056 A 2 2 0 0 1 603.166882961 107.88032454361056 L 515 107.88032454361056 A 0 0 0 0 1 515 107.88032454361056 L 515 98.46450304259635 A 0 0 0 0 1 515 98.46450304259635 Z" fill="#db4437" clip-path="url(#rablfilter1)"></path><path d="M 532.521119234 120.0973630831643 A 2 2 0 0 1 534.521119234 122.0973630831643 L 534.521119234 127.51318458417853 A 2 2 0 0 1 532.521119234 129.51318458417853 L 515 129.51318458417853 A 0 0 0 0 1 515 129.51318458417853 L 515 120.0973630831643 A 0 0 0 0 1 515 120.0973630831643 Z" fill="#4285f4" clip-path="url(#rablfilter1)"></path><path d="M 525.520350074 130.51318458417853 A 2 2 0 0 1 527.520350074 132.51318458417853 L 527.520350074 137.92900608519273 A 2 2 0 0 1 525.520350074 139.92900608519273 L 515 139.92900608519273 A 0 0 0 0 1 515 139.92900608519273 L 515 130.51318458417853 A 0 0 0 0 1 515 130.51318458417853 Z" fill="#db4437" clip-path="url(#rablfilter1)"></path><path d="M 655.803273845 152.14604462474648 A 2 2 0 0 1 657.803273845 154.14604462474648 L 657.803273845 159.56186612576067 A 2 2 0 0 1 655.803273845 161.56186612576067 L 515 161.56186612576067 A 0 0 0 0 1 515 161.56186612576067 L 515 152.14604462474648 A 0 0 0 0 1 515 152.14604462474648 Z" fill="#4285f4" clip-path="url(#rablfilter1)"></path><path d="M 649.439233547 162.56186612576067 A 2 2 0 0 1 651.439233547 164.56186612576067 L 651.439233547 169.97768762677487 A 2 2 0 0 1 649.439233547 171.97768762677487 L 515 171.97768762677487 A 0 0 0 0 1 515 171.97768762677487 L 515 162.56186612576067 A 0 0 0 0 1 515 162.56186612576067 Z" fill="#db4437" clip-path="url(#rablfilter1)"></path><path d="M 587.760890513 184.1947261663286 A 2 2 0 0 1 589.760890513 186.1947261663286 L 589.760890513 191.61054766734281 A 2 2 0 0 1 587.760890513 193.61054766734281 L 515 193.61054766734281 A 0 0 0 0 1 515 193.61054766734281 L 515 184.1947261663286 A 0 0 0 0 1 515 184.1947261663286 Z" fill="#4285f4" clip-path="url(#rablfilter1)"></path><path d="M 584.358624107 194.61054766734281 A 2 2 0 0 1 586.358624107 196.61054766734281 L 586.358624107 202.02636916835704 A 2 2 0 0 1 584.358624107 204.02636916835704 L 515 204.02636916835704 A 0 0 0 0 1 515 204.02636916835704 L 515 194.61054766734281 A 0 0 0 0 1 515 194.61054766734281 Z" fill="#db4437" clip-path="url(#rablfilter1)"></path><path d="M 577.031615957 216.24340770791076 A 2 2 0 0 1 579.031615957 218.24340770791076 L 579.031615957 223.65922920892498 A 2 2 0 0 1 577.031615957 225.65922920892498 L 515 225.65922920892498 A 0 0 0 0 1 515 225.65922920892498 L 515 216.24340770791076 A 0 0 0 0 1 515 216.24340770791076 Z" fill="#4285f4" clip-path="url(#rablfilter1)"></path><path d="M 573.764611832 226.65922920892498 A 2 2 0 0 1 575.764611832 228.65922920892498 L 575.764611832 234.07505070993918 A 2 2 0 0 1 573.764611832 236.07505070993918 L 515 236.07505070993918 A 0 0 0 0 1 515 236.07505070993918 L 515 226.65922920892498 A 0 0 0 0 1 515 226.65922920892498 Z" fill="#db4437" clip-path="url(#rablfilter1)"></path><path d="M 518.950581638 248.29208924949293 A 2 2 0 0 1 520.950581638 250.29208924949293 L 520.950581638 255.7079107505071 A 2 2 0 0 1 518.950581638 257.7079107505071 L 515 257.7079107505071 A 0 0 0 0 1 515 257.7079107505071 L 515 248.29208924949293 A 0 0 0 0 1 515 248.29208924949293 Z" fill="#4285f4" clip-path="url(#rablfilter1)"></path><path d="M 516.435397043 258.7079107505071 A 2 2 0 0 1 518.435397043 260.7079107505071 L 518.435397043 266.12373225152135 A 2 2 0 0 1 516.435397043 268.12373225152135 L 515 268.12373225152135 A 0 0 0 0 1 515 268.12373225152135 L 515 258.7079107505071 A 0 0 0 0 1 515 258.7079107505071 Z" fill="#db4437" clip-path="url(#rablfilter1)"></path><path d="M 525.778529072 280.34077079107504 A 2 2 0 0 1 527.778529072 282.34077079107504 L 527.778529072 287.75659229208924 A 2 2 0 0 1 525.778529072 289.75659229208924 L 515 289.75659229208924 A 0 0 0 0 1 515 289.75659229208924 L 515 280.34077079107504 A 0 0 0 0 1 515 280.34077079107504 Z" fill="#4285f4" clip-path="url(#rablfilter1)"></path><path d="M 523.270994273 290.75659229208924 A 2 2 0 0 1 525.270994273 292.75659229208924 L 525.270994273 298.1724137931035 A 2 2 0 0 1 523.270994273 300.1724137931035 L 515 300.1724137931035 A 0 0 0 0 1 515 300.1724137931035 L 515 290.75659229208924 A 0 0 0 0 1 515 290.75659229208924 Z" fill="#db4437" clip-path="url(#rablfilter1)"></path><path d="M 523.501582169 312.3894523326572 A 2 2 0 0 1 525.501582169 314.3894523326572 L 525.501582169 319.8052738336714 A 2 2 0 0 1 523.501582169 321.8052738336714 L 515 321.8052738336714 A 0 0 0 0 1 515 321.8052738336714 L 515 312.3894523326572 A 0 0 0 0 1 515 312.3894523326572 Z" fill="#4285f4" clip-path="url(#rablfilter1)"></path><path d="M 521.5927139 322.8052738336714 A 2 2 0 0 1 523.5927139 324.8052738336714 L 523.5927139 330.2210953346856 A 2 2 0 0 1 521.5927139 332.2210953346856 L 515 332.2210953346856 A 0 0 0 0 1 515 332.2210953346856 L 515 322.8052738336714 A 0 0 0 0 1 515 322.8052738336714 Z" fill="#db4437" clip-path="url(#rablfilter1)"></path><path d="M 652.83947339 344.4381338742393 A 2 2 0 0 1 654.83947339 346.4381338742393 L 654.83947339 351.8539553752536 A 2 2 0 0 1 652.83947339 353.8539553752536 L 515 353.8539553752536 A 0 0 0 0 1 515 353.8539553752536 L 515 344.4381338742393 A 0 0 0 0 1 515 344.4381338742393 Z" fill="#4285f4" clip-path="url(#rablfilter1)"></path><path d="M 650.98344383 354.8539553752536 A 2 2 0 0 1 652.98344383 356.8539553752536 L 652.98344383 362.2697768762677 A 2 2 0 0 1 650.98344383 364.2697768762677 L 515 364.2697768762677 A 0 0 0 0 1 515 364.2697768762677 L 515 354.8539553752536 A 0 0 0 0 1 515 354.8539553752536 Z" fill="#db4437" clip-path="url(#rablfilter1)"></path><path d="M 577.805457179 376.4868154158215 A 2 2 0 0 1 579.805457179 378.4868154158215 L 579.805457179 383.9026369168357 A 2 2 0 0 1 577.805457179 385.9026369168357 L 515 385.9026369168357 A 0 0 0 0 1 515 385.9026369168357 L 515 376.4868154158215 A 0 0 0 0 1 515 376.4868154158215 Z" fill="#4285f4" clip-path="url(#rablfilter1)"></path><path d="M 576.180794678 386.9026369168357 A 2 2 0 0 1 578.180794678 388.9026369168357 L 578.180794678 394.31845841784985 A 2 2 0 0 1 576.180794678 396.31845841784985 L 515 396.31845841784985 A 0 0 0 0 1 515 396.31845841784985 L 515 386.9026369168357 A 0 0 0 0 1 515 386.9026369168357 Z" fill="#db4437" clip-path="url(#rablfilter1)"></path><path d="M 523.134425918 408.53549695740367 A 2 2 0 0 1 525.134425918 410.53549695740367 L 525.134425918 415.95131845841786 A 2 2 0 0 1 523.134425918 417.95131845841786 L 515 417.95131845841786 A 0 0 0 0 1 515 417.95131845841786 L 515 408.53549695740367 A 0 0 0 0 1 515 408.53549695740367 Z" fill="#4285f4" clip-path="url(#rablfilter1)"></path><path d="M 521.72737997 418.95131845841786 A 2 2 0 0 1 523.72737997 420.95131845841786 L 523.72737997 426.367139959432 A 2 2 0 0 1 521.72737997 428.367139959432 L 515 428.367139959432 A 0 0 0 0 1 515 428.367139959432 L 515 418.95131845841786 A 0 0 0 0 1 515 418.95131845841786 Z" fill="#db4437" clip-path="url(#rablfilter1)"></path><path d="M 518.91517211 440.58417849898586 A 2 2 0 0 1 520.91517211 442.58417849898586 L 520.91517211 448 A 2 2 0 0 1 518.91517211 450 L 515 450 A 0 0 0 0 1 515 450 L 515 440.58417849898586 A 0 0 0 0 1 515 440.58417849898586 Z" fill="#4285f4" clip-path="url(#rablfilter1)"></path><path d="M 517.832511377 451 A 2 2 0 0 1 519.832511377 453 L 519.832511377 458.4158215010142 A 2 2 0 0 1 517.832511377 460.4158215010142 L 515 460.4158215010142 A 0 0 0 0 1 515 460.4158215010142 L 515 451 A 0 0 0 0 1 515 451 Z" fill="#db4437" clip-path="url(#rablfilter1)"></path><path d="M 518.00415662 472.632860040568 A 2 2 0 0 1 520.00415662 474.632860040568 L 520.00415662 480.0486815415822 A 2 2 0 0 1 518.00415662 482.0486815415822 L 515 482.0486815415822 A 0 0 0 0 1 515 482.0486815415822 L 515 472.632860040568 A 0 0 0 0 1 515 472.632860040568 Z" fill="#4285f4" clip-path="url(#rablfilter1)"></path><path d="M 517.195157891 483.0486815415822 A 2 2 0 0 1 519.195157891 485.0486815415822 L 519.195157891 490.46450304259633 A 2 2 0 0 1 517.195157891 492.46450304259633 L 515 492.46450304259633 A 0 0 0 0 1 515 492.46450304259633 L 515 483.0486815415822 A 0 0 0 0 1 515 483.0486815415822 Z" fill="#db4437" clip-path="url(#rablfilter1)"></path><path d="M 552.021648359 504.6815415821501 A 2 2 0 0 1 554.021648359 506.6815415821501 L 554.021648359 512.0973630831643 A 2 2 0 0 1 552.021648359 514.0973630831643 L 515 514.0973630831643 A 0 0 0 0 1 515 514.0973630831643 L 515 504.6815415821501 A 0 0 0 0 1 515 504.6815415821501 Z" fill="#4285f4" clip-path="url(#rablfilter1)"></path><path d="M 551.243471498 515.0973630831643 A 2 2 0 0 1 553.243471498 517.0973630831643 L 553.243471498 522.5131845841785 A 2 2 0 0 1 551.243471498 524.5131845841785 L 515 524.5131845841785 A 0 0 0 0 1 515 524.5131845841785 L 515 515.0973630831643 A 0 0 0 0 1 515 515.0973630831643 Z" fill="#db4437" clip-path="url(#rablfilter1)"></path><path d="M 514.5 536.7302231237322 A 1.4887566539999852 1.4887566539999852 0 0 1 515.988756654 538.2189797777322 L 515.988756654 544.6572879707466 A 1.4887566539999852 1.4887566539999852 0 0 1 514.5 546.1460446247465 L 514.5 546.1460446247465 A 0 0 0 0 1 514.5 546.1460446247465 L 514.5 536.7302231237322 A 0 0 0 0 1 514.5 536.7302231237322 Z" fill="#4285f4" clip-path="url(#rablfilter1)"></path><path d="M 514.5 547.1460446247465 A 0.9006479790000412 0.9006479790000412 0 0 1 515.400647979 548.0466926037466 L 515.400647979 555.6612181467606 A 0.9006479790000412 0.9006479790000412 0 0 1 514.5 556.5618661257606 L 514.5 556.5618661257606 A 0 0 0 0 1 514.5 556.5618661257606 L 514.5 547.1460446247465 A 0 0 0 0 1 514.5 547.1460446247465 Z" fill="#db4437" clip-path="url(#rablfilter1)"></path><path d="M 514.5 568.7789046653144 A 1.9592050170000448 1.9592050170000448 0 0 1 516.459205017 570.7381096823144 L 516.459205017 576.2355211493285 A 1.9592050170000448 1.9592050170000448 0 0 1 514.5 578.1947261663286 L 514.5 578.1947261663286 A 0 0 0 0 1 514.5 578.1947261663286 L 514.5 568.7789046653144 A 0 0 0 0 1 514.5 568.7789046653144 Z" fill="#4285f4" clip-path="url(#rablfilter1)"></path><path d="M 514.5 579.1947261663286 A 1.4687458170000127 1.4687458170000127 0 0 1 515.968745817 580.6634719833286 L 515.968745817 587.1418018503427 A 1.4687458170000127 1.4687458170000127 0 0 1 514.5 588.6105476673428 L 514.5 588.6105476673428 A 0 0 0 0 1 514.5 588.6105476673428 L 514.5 579.1947261663286 A 0 0 0 0 1 514.5 579.1947261663286 Z" fill="#db4437" clip-path="url(#rablfilter1)"></path><path d="M 515 600.8275862068966 A 1.1548229779999701 1.1548229779999701 0 0 1 516.154822978 601.9824091848966 L 516.154822978 609.0885847299108 A 1.1548229779999701 1.1548229779999701 0 0 1 515 610.2434077079108 L 515 610.2434077079108 A 0 0 0 0 1 515 610.2434077079108 L 515 600.8275862068966 A 0 0 0 0 1 515 600.8275862068966 Z" fill="#4285f4" clip-path="url(#rablfilter1)"></path><path d="M 514.5 611.2434077079108 A 1.8347953469999538 1.8347953469999538 0 0 1 516.334795347 613.0782030549108 L 516.334795347 618.824433861925 A 1.8347953469999538 1.8347953469999538 0 0 1 514.5 620.6592292089249 L 514.5 620.6592292089249 A 0 0 0 0 1 514.5 620.6592292089249 L 514.5 611.2434077079108 A 0 0 0 0 1 514.5 611.2434077079108 Z" fill="#db4437" clip-path="url(#rablfilter1)"></path><path d="M 522.962833112 632.8762677484787 A 2 2 0 0 1 524.962833112 634.8762677484787 L 524.962833112 640.2920892494928 A 2 2 0 0 1 522.962833112 642.2920892494928 L 515 642.2920892494928 A 0 0 0 0 1 515 642.2920892494928 L 515 632.8762677484787 A 0 0 0 0 1 515 632.8762677484787 Z" fill="#4285f4" clip-path="url(#rablfilter1)"></path><path d="M 522.772584515 643.2920892494928 A 2 2 0 0 1 524.772584515 645.2920892494928 L 524.772584515 650.7079107505072 A 2 2 0 0 1 522.772584515 652.7079107505072 L 515 652.7079107505072 A 0 0 0 0 1 515 652.7079107505072 L 515 643.2920892494928 A 0 0 0 0 1 515 643.2920892494928 Z" fill="#db4437" clip-path="url(#rablfilter1)"></path><path d="M 520.652556143 664.9249492900609 A 2 2 0 0 1 522.652556143 666.9249492900609 L 522.652556143 672.3407707910751 A 2 2 0 0 1 520.652556143 674.3407707910751 L 515 674.3407707910751 A 0 0 0 0 1 515 674.3407707910751 L 515 664.9249492900609 A 0 0 0 0 1 515 664.9249492900609 Z" fill="#4285f4" clip-path="url(#rablfilter1)"></path><path d="M 520.490212808 675.3407707910751 A 2 2 0 0 1 522.490212808 677.3407707910751 L 522.490212808 682.7565922920892 A 2 2 0 0 1 520.490212808 684.7565922920892 L 515 684.7565922920892 A 0 0 0 0 1 515 684.7565922920892 L 515 675.3407707910751 A 0 0 0 0 1 515 675.3407707910751 Z" fill="#db4437" clip-path="url(#rablfilter1)"></path><path d="M 516.08641541 696.973630831643 A 2 2 0 0 1 518.08641541 698.973630831643 L 518.08641541 704.3894523326572 A 2 2 0 0 1 516.08641541 706.3894523326572 L 515 706.3894523326572 A 0 0 0 0 1 515 706.3894523326572 L 515 696.973630831643 A 0 0 0 0 1 515 696.973630831643 Z" fill="#4285f4" clip-path="url(#rablfilter1)"></path><path d="M 515.935592276 707.3894523326572 A 2 2 0 0 1 517.935592276 709.3894523326572 L 517.935592276 714.8052738336714 A 2 2 0 0 1 515.935592276 716.8052738336714 L 515 716.8052738336714 A 0 0 0 0 1 515 716.8052738336714 L 515 707.3894523326572 A 0 0 0 0 1 515 707.3894523326572 Z" fill="#db4437" clip-path="url(#rablfilter1)"></path><path d="M 522.475468388 729.0223123732252 A 2 2 0 0 1 524.475468388 731.0223123732252 L 524.475468388 736.4381338742394 A 2 2 0 0 1 522.475468388 738.4381338742394 L 515 738.4381338742394 A 0 0 0 0 1 515 738.4381338742394 L 515 729.0223123732252 A 0 0 0 0 1 515 729.0223123732252 Z" fill="#4285f4" clip-path="url(#rablfilter1)"></path><path d="M 522.419145506 739.4381338742394 A 2 2 0 0 1 524.419145506 741.4381338742394 L 524.419145506 746.8539553752535 A 2 2 0 0 1 522.419145506 748.8539553752535 L 515 748.8539553752535 A 0 0 0 0 1 515 748.8539553752535 L 515 739.4381338742394 A 0 0 0 0 1 515 739.4381338742394 Z" fill="#db4437" clip-path="url(#rablfilter1)"></path><path d="M 514.5 761.0709939148073 A 0.31408469400003014 0.31408469400003014 0 0 1 514.814084694 761.3850786088074 L 514.814084694 770.1727307218215 A 0.31408469400003014 0.31408469400003014 0 0 1 514.5 770.4868154158215 L 514.5 770.4868154158215 A 0 0 0 0 1 514.5 770.4868154158215 L 514.5 761.0709939148073 A 0 0 0 0 1 514.5 761.0709939148073 Z" fill="#4285f4" clip-path="url(#rablfilter1)"></path><path d="M 514.5 771.4868154158215 A 0.2796287339999708 0.2796287339999708 0 0 1 514.779628734 771.7664441498215 L 514.779628734 780.6230081828357 A 0.2796287339999708 0.2796287339999708 0 0 1 514.5 780.9026369168357 L 514.5 780.9026369168357 A 0 0 0 0 1 514.5 780.9026369168357 L 514.5 771.4868154158215 A 0 0 0 0 1 514.5 771.4868154158215 Z" fill="#db4437" clip-path="url(#rablfilter1)"></path><path d="M 530.402362748 793.1196754563895 A 2 2 0 0 1 532.402362748 795.1196754563895 L 532.402362748 800.5354969574037 A 2 2 0 0 1 530.402362748 802.5354969574037 L 515 802.5354969574037 A 0 0 0 0 1 515 802.5354969574037 L 515 793.1196754563895 A 0 0 0 0 1 515 793.1196754563895 Z" fill="#4285f4" clip-path="url(#rablfilter1)"></path><path d="M 530.397141455 803.5354969574037 A 2 2 0 0 1 532.397141455 805.5354969574037 L 532.397141455 810.9513184584179 A 2 2 0 0 1 530.397141455 812.9513184584179 L 515 812.9513184584179 A 0 0 0 0 1 515 812.9513184584179 L 515 803.5354969574037 A 0 0 0 0 1 515 803.5354969574037 Z" fill="#db4437" clip-path="url(#rablfilter1)"></path><path d="M 541.09804436 825.1683569979717 A 2 2 0 0 1 543.09804436 827.1683569979717 L 543.09804436 832.5841784989858 A 2 2 0 0 1 541.09804436 834.5841784989858 L 515 834.5841784989858 A 0 0 0 0 1 515 834.5841784989858 L 515 825.1683569979717 A 0 0 0 0 1 515 825.1683569979717 Z" fill="#4285f4" clip-path="url(#rablfilter1)"></path><path d="M 541.499332709 835.5841784989858 A 2 2 0 0 1 543.499332709 837.5841784989858 L 543.499332709 843 A 2 2 0 0 1 541.499332709 845 L 515 845 A 0 0 0 0 1 515 845 L 515 835.5841784989858 A 0 0 0 0 1 515 835.5841784989858 Z" fill="#db4437" clip-path="url(#rablfilter1)"></path></g><g></g><g><text x="514.5" y="874.5" style="cursor: default; user-select: none; -webkit-font-smoothing: antialiased; font-family: Roboto; font-size: 12px;" fill="#757575" dx="-3.375px">0</text><text x="630" y="874.5" style="cursor: default; user-select: none; -webkit-font-smoothing: antialiased; font-family: Roboto; font-size: 12px;" fill="#757575" dx="-10.1171875px">500</text><text x="745.5" y="874.5" style="cursor: default; user-select: none; -webkit-font-smoothing: antialiased; font-family: Roboto; font-size: 12px;" fill="#757575" dx="-7.140625px">1K</text><text x="861" y="874.5" style="cursor: default; user-select: none; -webkit-font-smoothing: antialiased; font-family: Roboto; font-size: 12px;" fill="#757575" dx="-12.09375px">1.5K</text><text x="976.5" y="874.5" style="cursor: default; user-select: none; -webkit-font-smoothing: antialiased; font-family: Roboto; font-size: 12px;" fill="#757575" dx="-7.140625px">2K</text><text x="1092" y="874.5" style="cursor: default; user-select: none; -webkit-font-smoothing: antialiased; font-family: Roboto; font-size: 12px;" fill="#757575" dx="-12.09375px">2.5K</text><text x="1207.5" y="874.5" style="cursor: default; user-select: none; -webkit-font-smoothing: antialiased; font-family: Roboto; font-size: 12px;" fill="#757575" dx="-7.140625px">3K</text><text x="1323" y="874.5" style="cursor: default; user-select: none; -webkit-font-smoothing: antialiased; font-family: Roboto; font-size: 12px;" fill="#757575" dx="-12.09375px">3.5K</text><text x="1438.5" y="874.5" style="cursor: default; user-select: none; -webkit-font-smoothing: antialiased; font-family: Roboto; font-size: 12px;" fill="#757575" dx="-7.140625px">4K</text><text x="1554" y="874.5" style="cursor: default; user-select: none; -webkit-font-smoothing: antialiased; font-family: Roboto; font-size: 12px;" fill="#757575" dx="-12.09375px">4.5K</text><text x="1669.5" y="874.5" style="cursor: default; user-select: none; -webkit-font-smoothing: antialiased; font-family: Roboto; font-size: 12px;" fill="#757575" dx="-7.140625px">5K</text><text x="1785" y="874.5" style="cursor: default; user-select: none; -webkit-font-smoothing: antialiased; font-family: Roboto; font-size: 12px;" fill="#757575" dx="-12.09375px">5.5K</text><text x="1900.5" y="874.5" style="cursor: default; user-select: none; -webkit-font-smoothing: antialiased; font-family: Roboto; font-size: 12px;" fill="#757575" dx="-7.140625px">6K</text><text x="2016" y="874.5" style="cursor: default; user-select: none; -webkit-font-smoothing: antialiased; font-family: Roboto; font-size: 12px;" fill="#757575" dx="-12.09375px">6.5K</text><text x="2131.5" y="874.5" style="cursor: default; user-select: none; -webkit-font-smoothing: antialiased; font-family: Roboto; font-size: 12px;" fill="#757575" dx="-7.140625px">7K</text><text x="2247" y="874.5" style="cursor: default; user-select: none; -webkit-font-smoothing: antialiased; font-family: Roboto; font-size: 12px;" fill="#757575" dx="-12.09375px">7.5K</text><text x="2362.5" y="874.5" style="cursor: default; user-select: none; -webkit-font-smoothing: antialiased; font-family: Roboto; font-size: 12px;" fill="#757575" dx="-7.140625px">8K</text><text x="1440.43603515625" y="906.5" style="cursor: default; user-select: none; -webkit-font-smoothing: antialiased; font-family: Roboto; font-size: 12px;" fill="#424242" dx="-33.6484375px">Render Time</text><text x="508.5" y="69.91581811189167" style="cursor: default; user-select: none; -webkit-font-smoothing: antialiased; font-family: Roboto; font-size: 12px;" fill="#757575" dx="-213.375px">Attic_NVIDIA-Camera-raytracing-embree</text><text x="508.5" y="101.9645056579466" style="cursor: default; user-select: none; -webkit-font-smoothing: antialiased; font-family: Roboto; font-size: 12px;" fill="#757575" dx="-259.25px">Intel_Sponza-PhysCamera001-raytracing-embree</text><text x="508.5" y="134.01318557460706" style="cursor: default; user-select: none; -webkit-font-smoothing: antialiased; font-family: Roboto; font-size: 12px;" fill="#757575" dx="-223.640625px">CornellBox-render_cam-raytracing-embree</text><text x="508.5" y="166.06187312066197" style="cursor: default; user-select: none; -webkit-font-smoothing: antialiased; font-family: Roboto; font-size: 12px;" fill="#757575" dx="-295.796875px">DailyDweeb-VariantCamera-raytracing-embree-thin_lens</text><text x="508.5" y="198.11054540792782" style="cursor: default; user-select: none; -webkit-font-smoothing: antialiased; font-family: Roboto; font-size: 12px;" fill="#757575" dx="-367.671875px">Intel_Sponza_Candles_Thin_Lens-PhysCamera002-raytracing-embree</text><text x="508.5" y="230.15923295398278" style="cursor: default; user-select: none; -webkit-font-smoothing: antialiased; font-family: Roboto; font-size: 12px;" fill="#757575" dx="-290.328125px">Intel_Sponza_Knight-KnightCam001-raytracing-embree</text><text x="508.5" y="262.20790524124857" style="cursor: default; user-select: none; -webkit-font-smoothing: antialiased; font-family: Roboto; font-size: 12px;" fill="#757575" dx="-381.8125px">Intel_mooreLane-MASTER_cameraExtended-ambient_occlusion-embree</text><text x="508.5" y="294.2565927873035" style="cursor: default; user-select: none; -webkit-font-smoothing: antialiased; font-family: Roboto; font-size: 12px;" fill="#757575" dx="-259.875px">HsdLogo-render_cam_1Shape-raytracing-embree</text><text x="508.5" y="326.3052803333584" style="cursor: default; user-select: none; -webkit-font-smoothing: antialiased; font-family: Roboto; font-size: 12px;" fill="#757575" dx="-214.96875px">Blenderman-Camera_001-debug-embree</text><text x="508.5" y="358.3539678794134" style="cursor: default; user-select: none; -webkit-font-smoothing: antialiased; font-family: Roboto; font-size: 12px;" fill="#757575" dx="-475.40625px">CameraTestGround-VariantCamera-raytracing-embree-realistic_canon_70_200mm_70mm</text><text x="508.5" y="390.4026249078902" style="cursor: default; user-select: none; -webkit-font-smoothing: antialiased; font-family: Roboto; font-size: 12px;" fill="#757575" dx="-312.71875px">OpenChessSet-render_cam_detailShape-raytracing-embree</text><text x="508.5" y="422.4513124539451" style="cursor: default; user-select: none; -webkit-font-smoothing: antialiased; font-family: Roboto; font-size: 12px;" fill="#757575" dx="-338.078125px">Intel_Sponza_Knight-KnightCam001-ambient_occlusion-embree</text><text x="508.5" y="454.5" style="cursor: default; user-select: none; -webkit-font-smoothing: antialiased; font-family: Roboto; font-size: 12px;" fill="#757575" dx="-276.21875px">DailyDweeb-VariantCamera-debug-embree-thin_lens</text><text x="508.5" y="486.548687546055" style="cursor: default; user-select: none; -webkit-font-smoothing: antialiased; font-family: Roboto; font-size: 12px;" fill="#757575" dx="-415.421875px">Intel_Sponza_Candles_Thin_Lens-PhysCamera002-ambient_occlusion-embree</text><text x="508.5" y="518.5973750921098" style="cursor: default; user-select: none; -webkit-font-smoothing: antialiased; font-family: Roboto; font-size: 12px;" fill="#757575" dx="-257.5625px">EmperorCrown-CameraShape-raytracing-embree</text><text x="508.5" y="550.6460321205868" style="cursor: default; user-select: none; -webkit-font-smoothing: antialiased; font-family: Roboto; font-size: 12px;" fill="#757575" dx="-193.796875px">Attic_NVIDIA-Camera-debug-embree</text><text x="508.5" y="582.6947501842196" style="cursor: default; user-select: none; -webkit-font-smoothing: antialiased; font-family: Roboto; font-size: 12px;" fill="#757575" dx="-237.984375px">EmperorCrown-CameraShape-debug-embree</text><text x="508.5" y="614.7434072126966" style="cursor: default; user-select: none; -webkit-font-smoothing: antialiased; font-family: Roboto; font-size: 12px;" fill="#757575" dx="-307.015625px">Intel_Sponza-PhysCamera001-ambient_occlusion-embree</text><text x="508.5" y="646.7920642411732" style="cursor: default; user-select: none; -webkit-font-smoothing: antialiased; font-family: Roboto; font-size: 12px;" fill="#757575" dx="-307.640625px">HsdLogo-render_cam_1Shape-ambient_occlusion-embree</text><text x="508.5" y="678.8407823048065" style="cursor: default; user-select: none; -webkit-font-smoothing: antialiased; font-family: Roboto; font-size: 12px;" fill="#757575" dx="-360.46875px">OpenChessSet-render_cam_detailShape-ambient_occlusion-embree</text><text x="508.5" y="710.8894393332832" style="cursor: default; user-select: none; -webkit-font-smoothing: antialiased; font-family: Roboto; font-size: 12px;" fill="#757575" dx="-261.140625px">Attic_NVIDIA-Camera-ambient_occlusion-embree</text><text x="508.5" y="742.9381573969163" style="cursor: default; user-select: none; -webkit-font-smoothing: antialiased; font-family: Roboto; font-size: 12px;" fill="#757575" dx="-305.328125px">EmperorCrown-CameraShape-ambient_occlusion-embree</text><text x="508.5" y="774.986814425393" style="cursor: default; user-select: none; -webkit-font-smoothing: antialiased; font-family: Roboto; font-size: 12px;" fill="#757575" dx="-271.40625px">CornellBox-render_cam-ambient_occlusion-embree</text><text x="508.5" y="807.0354714538698" style="cursor: default; user-select: none; -webkit-font-smoothing: antialiased; font-family: Roboto; font-size: 12px;" fill="#757575" dx="-343.546875px">DailyDweeb-VariantCamera-ambient_occlusion-embree-thin_lens</text><text x="508.5" y="839.0841895175029" style="cursor: default; user-select: none; -webkit-font-smoothing: antialiased; font-family: Roboto; font-size: 12px;" fill="#757575" dx="-282.3125px">Blenderman-Camera_001-ambient_occlusion-embree</text><text x="15.09375" y="447.5" style="cursor: default; user-select: none; -webkit-font-smoothing: antialiased; font-family: Roboto; font-size: 12px;" fill="#424242" dx="-16.3828125px" transform="rotate(-90 15.09375 450.5)">Scene</text></g><g></g><g></g><g></g></svg>