<svg width="2510" height="910" xmlns="http://www.w3.org/2000/svg"><defs><clipPath id="rablfilter1"><rect x="514.5" y="55.5" width="1843" height="802"></rect></clipPath></defs><g><rect x="0" y="0" width="2510" height="910" fill="#ffffff" fill-opacity="1" stroke="#ffffff" stroke-opacity="0" stroke-width="0"></rect><text x="0" y="15" style="cursor: default; user-select: none; -webkit-font-smoothing: antialiased; font-family: Roboto; font-size: 16px;" fill="#757575" dx="0px">Absolute Timing</text><rect x="2409.8466796875" y="55.5" width="12" height="12" rx="2" ry="2" fill="#4285f4"></rect><text x="2429.8466796875" y="68.5" style="cursor: default; user-select: none; -webkit-font-smoothing: antialiased; font-family: Roboto;" fill="#757575" dx="0px">Baseline</text><rect x="2409.8466796875" y="88.5" width="12" height="12" rx="2" ry="2" fill="#db4437"></rect><text x="2429.8466796875" y="101.5" style="cursor: default; user-select: none; -webkit-font-smoothing: antialiased; font-family: Roboto;" fill="#757575" dx="0px">New revision</text><rect x="514.5" y="55.5" width="1843" height="802" fill="#ffffff" fill-opacity="1" stroke="#ffffff" stroke-opacity="0" stroke-width="1"></rect></g><g><line x1="514.5" x2="514.5" y1="55.5" y2="857.5" stroke="#9E9E9E" stroke-width="1"></line><line x1="637.3666666666667" x2="637.3666666666667" y1="55.5" y2="857.5" stroke="#E0E0E0" stroke-width="1"></line><line x1="760.2333333333333" x2="760.2333333333333" y1="55.5" y2="857.5" stroke="#E0E0E0" stroke-width="1"></line><line x1="883.1" x2="883.1" y1="55.5" y2="857.5" stroke="#E0E0E0" stroke-width="1"></line><line x1="1005.9666666666667" x2="1005.9666666666667" y1="55.5" y2="857.5" stroke="#E0E0E0" stroke-width="1"></line><line x1="1128.8333333333333" x2="1128.8333333333333" y1="55.5" y2="857.5" stroke="#E0E0E0" stroke-width="1"></line><line x1="1251.7" x2="1251.7" y1="55.5" y2="857.5" stroke="#E0E0E0" stroke-width="1"></line><line x1="1374.5666666666666" x2="1374.5666666666666" y1="55.5" y2="857.5" stroke="#E0E0E0" stroke-width="1"></line><line x1="1497.4333333333334" x2="1497.4333333333334" y1="55.5" y2="857.5" stroke="#E0E0E0" stroke-width="1"></line><line x1="1620.3" x2="1620.3" y1="55.5" y2="857.5" stroke="#E0E0E0" stroke-width="1"></line><line x1="1743.1666666666665" x2="1743.1666666666665" y1="55.5" y2="857.5" stroke="#E0E0E0" stroke-width="1"></line><line x1="1866.0333333333333" x2="1866.0333333333333" y1="55.5" y2="857.5" stroke="#E0E0E0" stroke-width="1"></line><line x1="1988.9" x2="1988.9" y1="55.5" y2="857.5" stroke="#E0E0E0" stroke-width="1"></line><line x1="2111.7666666666664" x2="2111.7666666666664" y1="55.5" y2="857.5" stroke="#E0E0E0" stroke-width="1"></line><line x1="2234.633333333333" x2="2234.633333333333" y1="55.5" y2="857.5" stroke="#E0E0E0" stroke-width="1"></line><line x1="2357.5" x2="2357.5" y1="55.5" y2="857.5" stroke="#E0E0E0" stroke-width="1"></line></g><g><path d="M 2321.9546202669335 56 A 2 2 0 0 1 2323.9546202669335 58 L 2323.9546202669335 63.41582150101419 A 2 2 0 0 1 2321.9546202669335 65.4158215010142 L 515 65.4158215010142 A 0 0 0 0 1 515 65.4158215010142 L 515 56 A 0 0 0 0 1 515 56 Z" fill="#4285f4" clip-path="url(#rablfilter1)"></path><path d="M 2298.7266123057334 66.4158215010142 A 2 2 0 0 1 2300.7266123057334 68.4158215010142 L 2300.7266123057334 73.8316430020284 A 2 2 0 0 1 2298.7266123057334 75.8316430020284 L 515 75.8316430020284 A 0 0 0 0 1 515 75.8316430020284 L 515 66.4158215010142 A 0 0 0 0 1 515 66.4158215010142 Z" fill="#db4437" clip-path="url(#rablfilter1)"></path><path d="M 659.847900132 88.04868154158214 A 2 2 0 0 1 661.847900132 90.04868154158214 L 661.847900132 95.46450304259635 A 2 2 0 0 1 659.847900132 97.46450304259635 L 515 97.46450304259635 A 0 0 0 0 1 515 97.46450304259635 L 515 88.04868154158214 A 0 0 0 0 1 515 88.04868154158214 Z" fill="#4285f4" clip-path="url(#rablfilter1)"></path><path d="M 655.4060420914667 98.46450304259635 A 2 2 0 0 1 657.4060420914667 100.46450304259635 L 657.4060420914667 105.88032454361056 A 2 2 0 0 1 655.4060420914667 107.88032454361056 L 515 107.88032454361056 A 0 0 0 0 1 515 107.88032454361056 L 515 98.46450304259635 A 0 0 0 0 1 515 98.46450304259635 Z" fill="#db4437" clip-path="url(#rablfilter1)"></path><path d="M 608.9815672710666 120.0973630831643 A 2 2 0 0 1 610.9815672710666 122.0973630831643 L 610.9815672710666 127.51318458417853 A 2 2 0 0 1 608.9815672710666 129.51318458417853 L 515 129.51318458417853 A 0 0 0 0 1 515 129.51318458417853 L 515 120.0973630831643 A 0 0 0 0 1 515 120.0973630831643 Z" fill="#4285f4" clip-path="url(#rablfilter1)"></path><path d="M 605.8434813417333 130.51318458417853 A 2 2 0 0 1 607.8434813417333 132.51318458417853 L 607.8434813417333 137.92900608519273 A 2 2 0 0 1 605.8434813417333 139.92900608519273 L 515 139.92900608519273 A 0 0 0 0 1 515 139.92900608519273 L 515 130.51318458417853 A 0 0 0 0 1 515 130.51318458417853 Z" fill="#db4437" clip-path="url(#rablfilter1)"></path><path d="M 577.7039997728 152.14604462474648 A 2 2 0 0 1 579.7039997728 154.14604462474648 L 579.7039997728 159.56186612576067 A 2 2 0 0 1 577.7039997728 161.56186612576067 L 515 161.56186612576067 A 0 0 0 0 1 515 161.56186612576067 L 515 152.14604462474648 A 0 0 0 0 1 515 152.14604462474648 Z" fill="#4285f4" clip-path="url(#rablfilter1)"></path><path d="M 575.4121280306666 162.56186612576067 A 2 2 0 0 1 577.4121280306666 164.56186612576067 L 577.4121280306666 169.97768762677487 A 2 2 0 0 1 575.4121280306666 171.97768762677487 L 515 171.97768762677487 A 0 0 0 0 1 515 171.97768762677487 L 515 162.56186612576067 A 0 0 0 0 1 515 162.56186612576067 Z" fill="#db4437" clip-path="url(#rablfilter1)"></path><path d="M 580.2742883645333 184.1947261663286 A 2 2 0 0 1 582.2742883645333 186.1947261663286 L 582.2742883645333 191.61054766734281 A 2 2 0 0 1 580.2742883645333 193.61054766734281 L 515 193.61054766734281 A 0 0 0 0 1 515 193.61054766734281 L 515 184.1947261663286 A 0 0 0 0 1 515 184.1947261663286 Z" fill="#4285f4" clip-path="url(#rablfilter1)"></path><path d="M 578.0290676213333 194.61054766734281 A 2 2 0 0 1 580.0290676213333 196.61054766734281 L 580.0290676213333 202.02636916835704 A 2 2 0 0 1 578.0290676213333 204.02636916835704 L 515 204.02636916835704 A 0 0 0 0 1 515 204.02636916835704 L 515 194.61054766734281 A 0 0 0 0 1 515 194.61054766734281 Z" fill="#db4437" clip-path="url(#rablfilter1)"></path><path d="M 588.9737051828 216.24340770791076 A 2 2 0 0 1 590.9737051828 218.24340770791076 L 590.9737051828 223.65922920892498 A 2 2 0 0 1 588.9737051828 225.65922920892498 L 515 225.65922920892498 A 0 0 0 0 1 515 225.65922920892498 L 515 216.24340770791076 A 0 0 0 0 1 515 216.24340770791076 Z" fill="#4285f4" clip-path="url(#rablfilter1)"></path><path d="M 586.9055114701333 226.65922920892498 A 2 2 0 0 1 588.9055114701333 228.65922920892498 L 588.9055114701333 234.07505070993918 A 2 2 0 0 1 586.9055114701333 236.07505070993918 L 515 236.07505070993918 A 0 0 0 0 1 515 236.07505070993918 L 515 226.65922920892498 A 0 0 0 0 1 515 226.65922920892498 Z" fill="#db4437" clip-path="url(#rablfilter1)"></path><path d="M 658.2051990921334 248.29208924949293 A 2 2 0 0 1 660.2051990921334 250.29208924949293 L 660.2051990921334 255.7079107505071 A 2 2 0 0 1 658.2051990921334 257.7079107505071 L 515 257.7079107505071 A 0 0 0 0 1 515 257.7079107505071 L 515 248.29208924949293 A 0 0 0 0 1 515 248.29208924949293 Z" fill="#4285f4" clip-path="url(#rablfilter1)"></path><path d="M 656.7708981032 258.7079107505071 A 2 2 0 0 1 658.7708981032 260.7079107505071 L 658.7708981032 266.12373225152135 A 2 2 0 0 1 656.7708981032 268.12373225152135 L 515 268.12373225152135 A 0 0 0 0 1 515 268.12373225152135 L 515 258.7079107505071 A 0 0 0 0 1 515 258.7079107505071 Z" fill="#db4437" clip-path="url(#rablfilter1)"></path><path d="M 543.3808197302667 280.34077079107504 A 2 2 0 0 1 545.3808197302667 282.34077079107504 L 545.3808197302667 287.75659229208924 A 2 2 0 0 1 543.3808197302667 289.75659229208924 L 515 289.75659229208924 A 0 0 0 0 1 515 289.75659229208924 L 515 280.34077079107504 A 0 0 0 0 1 515 280.34077079107504 Z" fill="#4285f4" clip-path="url(#rablfilter1)"></path><path d="M 542.3183543121334 290.75659229208924 A 2 2 0 0 1 544.3183543121334 292.75659229208924 L 544.3183543121334 298.1724137931035 A 2 2 0 0 1 542.3183543121334 300.1724137931035 L 515 300.1724137931035 A 0 0 0 0 1 515 300.1724137931035 L 515 290.75659229208924 A 0 0 0 0 1 515 290.75659229208924 Z" fill="#db4437" clip-path="url(#rablfilter1)"></path><path d="M 553.7464461592 312.3894523326572 A 2 2 0 0 1 555.7464461592 314.3894523326572 L 555.7464461592 319.8052738336714 A 2 2 0 0 1 553.7464461592 321.8052738336714 L 515 321.8052738336714 A 0 0 0 0 1 515 321.8052738336714 L 515 312.3894523326572 A 0 0 0 0 1 515 312.3894523326572 Z" fill="#4285f4" clip-path="url(#rablfilter1)"></path><path d="M 552.6880948085334 322.8052738336714 A 2 2 0 0 1 554.6880948085334 324.8052738336714 L 554.6880948085334 330.2210953346856 A 2 2 0 0 1 552.6880948085334 332.2210953346856 L 515 332.2210953346856 A 0 0 0 0 1 515 332.2210953346856 L 515 322.8052738336714 A 0 0 0 0 1 515 322.8052738336714 Z" fill="#db4437" clip-path="url(#rablfilter1)"></path><path d="M 522.20454356 344.4381338742393 A 2 2 0 0 1 524.20454356 346.4381338742393 L 524.20454356 351.8539553752536 A 2 2 0 0 1 522.20454356 353.8539553752536 L 515 353.8539553752536 A 0 0 0 0 1 515 353.8539553752536 L 515 344.4381338742393 A 0 0 0 0 1 515 344.4381338742393 Z" fill="#4285f4" clip-path="url(#rablfilter1)"></path><path d="M 521.5898792238667 354.8539553752536 A 2 2 0 0 1 523.5898792238667 356.8539553752536 L 523.5898792238667 362.2697768762677 A 2 2 0 0 1 521.5898792238667 364.2697768762677 L 515 364.2697768762677 A 0 0 0 0 1 515 364.2697768762677 L 515 354.8539553752536 A 0 0 0 0 1 515 354.8539553752536 Z" fill="#db4437" clip-path="url(#rablfilter1)"></path><path d="M 531.5705233486667 376.4868154158215 A 2 2 0 0 1 533.5705233486667 378.4868154158215 L 533.5705233486667 383.9026369168357 A 2 2 0 0 1 531.5705233486667 385.9026369168357 L 515 385.9026369168357 A 0 0 0 0 1 515 385.9026369168357 L 515 376.4868154158215 A 0 0 0 0 1 515 376.4868154158215 Z" fill="#4285f4" clip-path="url(#rablfilter1)"></path><path d="M 531.1051506132 386.9026369168357 A 2 2 0 0 1 533.1051506132 388.9026369168357 L 533.1051506132 394.31845841784985 A 2 2 0 0 1 531.1051506132 396.31845841784985 L 515 396.31845841784985 A 0 0 0 0 1 515 396.31845841784985 L 515 386.9026369168357 A 0 0 0 0 1 515 386.9026369168357 Z" fill="#db4437" clip-path="url(#rablfilter1)"></path><path d="M 526.3826869762667 408.53549695740367 A 2 2 0 0 1 528.3826869762667 410.53549695740367 L 528.3826869762667 415.95131845841786 A 2 2 0 0 1 526.3826869762667 417.95131845841786 L 515 417.95131845841786 A 0 0 0 0 1 515 417.95131845841786 L 515 408.53549695740367 A 0 0 0 0 1 515 408.53549695740367 Z" fill="#4285f4" clip-path="url(#rablfilter1)"></path><path d="M 525.9576329374667 418.95131845841786 A 2 2 0 0 1 527.9576329374667 420.95131845841786 L 527.9576329374667 426.367139959432 A 2 2 0 0 1 525.9576329374667 428.367139959432 L 515 428.367139959432 A 0 0 0 0 1 515 428.367139959432 L 515 418.95131845841786 A 0 0 0 0 1 515 418.95131845841786 Z" fill="#db4437" clip-path="url(#rablfilter1)"></path><path d="M 521.0317242165333 440.58417849898586 A 2 2 0 0 1 523.0317242165333 442.58417849898586 L 523.0317242165333 448 A 2 2 0 0 1 521.0317242165333 450 L 515 450 A 0 0 0 0 1 515 450 L 515 440.58417849898586 A 0 0 0 0 1 515 440.58417849898586 Z" fill="#4285f4" clip-path="url(#rablfilter1)"></path><path d="M 520.6340927890667 451 A 2 2 0 0 1 522.6340927890667 453 L 522.6340927890667 458.4158215010142 A 2 2 0 0 1 520.6340927890667 460.4158215010142 L 515 460.4158215010142 A 0 0 0 0 1 515 460.4158215010142 L 515 451 A 0 0 0 0 1 515 451 Z" fill="#db4437" clip-path="url(#rablfilter1)"></path><path d="M 523.9898657692 472.632860040568 A 2 2 0 0 1 525.9898657692 474.632860040568 L 525.9898657692 480.0486815415822 A 2 2 0 0 1 523.9898657692 482.0486815415822 L 515 482.0486815415822 A 0 0 0 0 1 515 482.0486815415822 L 515 472.632860040568 A 0 0 0 0 1 515 472.632860040568 Z" fill="#4285f4" clip-path="url(#rablfilter1)"></path><path d="M 523.6398618849333 483.0486815415822 A 2 2 0 0 1 525.6398618849333 485.0486815415822 L 525.6398618849333 490.46450304259633 A 2 2 0 0 1 523.6398618849333 492.46450304259633 L 515 492.46450304259633 A 0 0 0 0 1 515 492.46450304259633 L 515 483.0486815415822 A 0 0 0 0 1 515 483.0486815415822 Z" fill="#db4437" clip-path="url(#rablfilter1)"></path><path d="M 523.0836855224 504.6815415821501 A 2 2 0 0 1 525.0836855224 506.6815415821501 L 525.0836855224 512.0973630831643 A 2 2 0 0 1 523.0836855224 514.0973630831643 L 515 514.0973630831643 A 0 0 0 0 1 515 514.0973630831643 L 515 504.6815415821501 A 0 0 0 0 1 515 504.6815415821501 Z" fill="#4285f4" clip-path="url(#rablfilter1)"></path><path d="M 522.7920202058667 515.0973630831643 A 2 2 0 0 1 524.7920202058667 517.0973630831643 L 524.7920202058667 522.5131845841785 A 2 2 0 0 1 522.7920202058667 524.5131845841785 L 515 524.5131845841785 A 0 0 0 0 1 515 524.5131845841785 L 515 515.0973630831643 A 0 0 0 0 1 515 515.0973630831643 Z" fill="#db4437" clip-path="url(#rablfilter1)"></path><path d="M 523.459667106 536.7302231237322 A 2 2 0 0 1 525.459667106 538.7302231237322 L 525.459667106 544.1460446247465 A 2 2 0 0 1 523.459667106 546.1460446247465 L 515 546.1460446247465 A 0 0 0 0 1 515 546.1460446247465 L 515 536.7302231237322 A 0 0 0 0 1 515 536.7302231237322 Z" fill="#4285f4" clip-path="url(#rablfilter1)"></path><path d="M 523.3430025029334 547.1460446247465 A 2 2 0 0 1 525.3430025029334 549.1460446247465 L 525.3430025029334 554.5618661257606 A 2 2 0 0 1 523.3430025029334 556.5618661257606 L 515 556.5618661257606 A 0 0 0 0 1 515 556.5618661257606 L 515 547.1460446247465 A 0 0 0 0 1 515 547.1460446247465 Z" fill="#db4437" clip-path="url(#rablfilter1)"></path><path d="M 514.5 568.7789046653144 A 1.9518198121332944 1.9518198121332944 0 0 1 516.4518198121333 570.7307244774477 L 516.4518198121333 576.2429063541953 A 1.9518198121332944 1.9518198121332944 0 0 1 514.5 578.1947261663286 L 514.5 578.1947261663286 A 0 0 0 0 1 514.5 578.1947261663286 L 514.5 568.7789046653144 A 0 0 0 0 1 514.5 568.7789046653144 Z" fill="#4285f4" clip-path="url(#rablfilter1)"></path><path d="M 514.5 579.1947261663286 A 1.857603194800049 1.857603194800049 0 0 1 516.3576031948 581.0523293611286 L 516.3576031948 586.7529444725427 A 1.857603194800049 1.857603194800049 0 0 1 514.5 588.6105476673428 L 514.5 588.6105476673428 A 0 0 0 0 1 514.5 588.6105476673428 L 514.5 579.1947261663286 A 0 0 0 0 1 514.5 579.1947261663286 Z" fill="#db4437" clip-path="url(#rablfilter1)"></path><path d="M 518.2045128241333 600.8275862068966 A 2 2 0 0 1 520.2045128241333 602.8275862068966 L 520.2045128241333 608.2434077079108 A 2 2 0 0 1 518.2045128241333 610.2434077079108 L 515 610.2434077079108 A 0 0 0 0 1 515 610.2434077079108 L 515 600.8275862068966 A 0 0 0 0 1 515 600.8275862068966 Z" fill="#4285f4" clip-path="url(#rablfilter1)"></path><path d="M 518.1171907469334 611.2434077079108 A 2 2 0 0 1 520.1171907469334 613.2434077079108 L 520.1171907469334 618.6592292089249 A 2 2 0 0 1 518.1171907469334 620.6592292089249 L 515 620.6592292089249 A 0 0 0 0 1 515 620.6592292089249 L 515 611.2434077079108 A 0 0 0 0 1 515 611.2434077079108 Z" fill="#db4437" clip-path="url(#rablfilter1)"></path><path d="M 517.5265085097334 632.8762677484787 A 2 2 0 0 1 519.5265085097334 634.8762677484787 L 519.5265085097334 640.2920892494928 A 2 2 0 0 1 517.5265085097334 642.2920892494928 L 515 642.2920892494928 A 0 0 0 0 1 515 642.2920892494928 L 515 632.8762677484787 A 0 0 0 0 1 515 632.8762677484787 Z" fill="#4285f4" clip-path="url(#rablfilter1)"></path><path d="M 517.4497138942667 643.2920892494928 A 2 2 0 0 1 519.4497138942667 645.2920892494928 L 519.4497138942667 650.7079107505072 A 2 2 0 0 1 517.4497138942667 652.7079107505072 L 515 652.7079107505072 A 0 0 0 0 1 515 652.7079107505072 L 515 643.2920892494928 A 0 0 0 0 1 515 643.2920892494928 Z" fill="#db4437" clip-path="url(#rablfilter1)"></path><path d="M 514.5 664.9249492900609 A 1.562423400133298 1.562423400133298 0 0 1 516.0624234001333 666.4873726901942 L 516.0624234001333 672.7783473909418 A 1.562423400133298 1.562423400133298 0 0 1 514.5 674.3407707910751 L 514.5 674.3407707910751 A 0 0 0 0 1 514.5 674.3407707910751 L 514.5 664.9249492900609 A 0 0 0 0 1 514.5 664.9249492900609 Z" fill="#4285f4" clip-path="url(#rablfilter1)"></path><path d="M 514.5 675.3407707910751 A 1.5043735690666153 1.5043735690666153 0 0 1 516.0043735690666 676.8451443601417 L 516.0043735690666 683.2522187230226 A 1.5043735690666153 1.5043735690666153 0 0 1 514.5 684.7565922920892 L 514.5 684.7565922920892 A 0 0 0 0 1 514.5 684.7565922920892 L 514.5 675.3407707910751 A 0 0 0 0 1 514.5 675.3407707910751 Z" fill="#db4437" clip-path="url(#rablfilter1)"></path><path d="M 516.7182896105334 696.973630831643 A 2 2 0 0 1 518.7182896105334 698.973630831643 L 518.7182896105334 704.3894523326572 A 2 2 0 0 1 516.7182896105334 706.3894523326572 L 515 706.3894523326572 A 0 0 0 0 1 515 706.3894523326572 L 515 696.973630831643 A 0 0 0 0 1 515 696.973630831643 Z" fill="#4285f4" clip-path="url(#rablfilter1)"></path><path d="M 516.6637726876 707.3894523326572 A 2 2 0 0 1 518.6637726876 709.3894523326572 L 518.6637726876 714.8052738336714 A 2 2 0 0 1 516.6637726876 716.8052738336714 L 515 716.8052738336714 A 0 0 0 0 1 515 716.8052738336714 L 515 707.3894523326572 A 0 0 0 0 1 515 707.3894523326572 Z" fill="#db4437" clip-path="url(#rablfilter1)"></path><path d="M 522.3477987213333 729.0223123732252 A 2 2 0 0 1 524.3477987213333 731.0223123732252 L 524.3477987213333 736.4381338742394 A 2 2 0 0 1 522.3477987213333 738.4381338742394 L 515 738.4381338742394 A 0 0 0 0 1 515 738.4381338742394 L 515 729.0223123732252 A 0 0 0 0 1 515 729.0223123732252 Z" fill="#4285f4" clip-path="url(#rablfilter1)"></path><path d="M 522.2937860432 739.4381338742394 A 2 2 0 0 1 524.2937860432 741.4381338742394 L 524.2937860432 746.8539553752535 A 2 2 0 0 1 522.2937860432 748.8539553752535 L 515 748.8539553752535 A 0 0 0 0 1 515 748.8539553752535 L 515 739.4381338742394 A 0 0 0 0 1 515 739.4381338742394 Z" fill="#db4437" clip-path="url(#rablfilter1)"></path><path d="M 516.1866069637333 761.0709939148073 A 2 2 0 0 1 518.1866069637333 763.0709939148073 L 518.1866069637333 768.4868154158215 A 2 2 0 0 1 516.1866069637333 770.4868154158215 L 515 770.4868154158215 A 0 0 0 0 1 515 770.4868154158215 L 515 761.0709939148073 A 0 0 0 0 1 515 761.0709939148073 Z" fill="#4285f4" clip-path="url(#rablfilter1)"></path><path d="M 516.1331201549333 771.4868154158215 A 2 2 0 0 1 518.1331201549333 773.4868154158215 L 518.1331201549333 778.9026369168357 A 2 2 0 0 1 516.1331201549333 780.9026369168357 L 515 780.9026369168357 A 0 0 0 0 1 515 780.9026369168357 L 515 771.4868154158215 A 0 0 0 0 1 515 771.4868154158215 Z" fill="#db4437" clip-path="url(#rablfilter1)"></path><path d="M 514.5 793.1196754563895 A 0.29746364026664196 0.29746364026664196 0 0 1 514.7974636402666 793.4171390966561 L 514.7974636402666 802.238033317137 A 0.29746364026664196 0.29746364026664196 0 0 1 514.5 802.5354969574037 L 514.5 802.5354969574037 A 0 0 0 0 1 514.5 802.5354969574037 L 514.5 793.1196754563895 A 0 0 0 0 1 514.5 793.1196754563895 Z" fill="#4285f4" clip-path="url(#rablfilter1)"></path><path d="M 514.5 803.5354969574037 A 0.2942064449333657 0.2942064449333657 0 0 1 514.7942064449334 803.829703402337 L 514.7942064449334 812.6571120134845 A 0.2942064449333657 0.2942064449333657 0 0 1 514.5 812.9513184584179 L 514.5 812.9513184584179 A 0 0 0 0 1 514.5 812.9513184584179 L 514.5 803.5354969574037 A 0 0 0 0 1 514.5 803.5354969574037 Z" fill="#db4437" clip-path="url(#rablfilter1)"></path><path d="M 514.5 825.1683569979717 A 0.9580919049333261 0.9580919049333261 0 0 1 515.4580919049333 826.126448902905 L 515.4580919049333 833.6260865940525 A 0.9580919049333261 0.9580919049333261 0 0 1 514.5 834.5841784989858 L 514.5 834.5841784989858 A 0 0 0 0 1 514.5 834.5841784989858 L 514.5 825.1683569979717 A 0 0 0 0 1 514.5 825.1683569979717 Z" fill="#4285f4" clip-path="url(#rablfilter1)"></path><path d="M 514.5 835.5841784989858 A 0.9604902622667169 0.9604902622667169 0 0 1 515.4604902622667 836.5446687612525 L 515.4604902622667 844.0395097377333 A 0.9604902622667169 0.9604902622667169 0 0 1 514.5 845 L 514.5 845 A 0 0 0 0 1 514.5 845 L 514.5 835.5841784989858 A 0 0 0 0 1 514.5 835.5841784989858 Z" fill="#db4437" clip-path="url(#rablfilter1)"></path></g><g></g><g><text x="514.5" y="874.5" style="cursor: default; user-select: none; -webkit-font-smoothing: antialiased; font-family: Roboto; font-size: 12px;" fill="#757575" dx="-3.375px">0</text><text x="637.3666666666667" y="874.5" style="cursor: default; user-select: none; -webkit-font-smoothing: antialiased; font-family: Roboto; font-size: 12px;" fill="#757575" dx="-10.1171875px">500</text><text x="760.2333333333333" y="874.5" style="cursor: default; user-select: none; -webkit-font-smoothing: antialiased; font-family: Roboto; font-size: 12px;" fill="#757575" dx="-7.140625px">1K</text><text x="883.1" y="874.5" style="cursor: default; user-select: none; -webkit-font-smoothing: antialiased; font-family: Roboto; font-size: 12px;" fill="#757575" dx="-12.09375px">1.5K</text><text x="1005.9666666666667" y="874.5" style="cursor: default; user-select: none; -webkit-font-smoothing: antialiased; font-family: Roboto; font-size: 12px;" fill="#757575" dx="-7.140625px">2K</text><text x="1128.8333333333333" y="874.5" style="cursor: default; user-select: none; -webkit-font-smoothing: antialiased; font-family: Roboto; font-size: 12px;" fill="#757575" dx="-12.09375px">2.5K</text><text x="1251.7" y="874.5" style="cursor: default; user-select: none; -webkit-font-smoothing: antialiased; font-family: Roboto; font-size: 12px;" fill="#757575" dx="-7.140625px">3K</text><text x="1374.5666666666666" y="874.5" style="cursor: default; user-select: none; -webkit-font-smoothing: antialiased; font-family: Roboto; font-size: 12px;" fill="#757575" dx="-12.09375px">3.5K</text><text x="1497.4333333333334" y="874.5" style="cursor: default; user-select: none; -webkit-font-smoothing: antialiased; font-family: Roboto; font-size: 12px;" fill="#757575" dx="-7.140625px">4K</text><text x="1620.3" y="874.5" style="cursor: default; user-select: none; -webkit-font-smoothing: antialiased; font-family: Roboto; font-size: 12px;" fill="#757575" dx="-12.09375px">4.5K</text><text x="1743.1666666666665" y="874.5" style="cursor: default; user-select: none; -webkit-font-smoothing: antialiased; font-family: Roboto; font-size: 12px;" fill="#757575" dx="-7.140625px">5K</text><text x="1866.0333333333333" y="874.5" style="cursor: default; user-select: none; -webkit-font-smoothing: antialiased; font-family: Roboto; font-size: 12px;" fill="#757575" dx="-12.09375px">5.5K</text><text x="1988.9" y="874.5" style="cursor: default; user-select: none; -webkit-font-smoothing: antialiased; font-family: Roboto; font-size: 12px;" fill="#757575" dx="-7.140625px">6K</text><text x="2111.7666666666664" y="874.5" style="cursor: default; user-select: none; -webkit-font-smoothing: antialiased; font-family: Roboto; font-size: 12px;" fill="#757575" dx="-12.09375px">6.5K</text><text x="2234.633333333333" y="874.5" style="cursor: default; user-select: none; -webkit-font-smoothing: antialiased; font-family: Roboto; font-size: 12px;" fill="#757575" dx="-7.140625px">7K</text><text x="2357.5" y="874.5" style="cursor: default; user-select: none; -webkit-font-smoothing: antialiased; font-family: Roboto; font-size: 12px;" fill="#757575" dx="-12.09375px">7.5K</text><text x="1440.4130859375" y="906.5" style="cursor: default; user-select: none; -webkit-font-smoothing: antialiased; font-family: Roboto; font-size: 12px;" fill="#424242" dx="-33.6484375px">Render Time</text><text x="508.5" y="69.91581811189167" style="cursor: default; user-select: none; -webkit-font-smoothing: antialiased; font-family: Roboto; font-size: 12px;" fill="#757575" dx="-213.375px">Attic_NVIDIA-Camera-raytracing-embree</text><text x="508.5" y="101.9645056579466" style="cursor: default; user-select: none; -webkit-font-smoothing: antialiased; font-family: Roboto; font-size: 12px;" fill="#757575" dx="-475.40625px">CameraTestGround-VariantCamera-raytracing-embree-realistic_canon_70_200mm_70mm</text><text x="508.5" y="134.01318557460706" style="cursor: default; user-select: none; -webkit-font-smoothing: antialiased; font-family: Roboto; font-size: 12px;" fill="#757575" dx="-259.25px">Intel_Sponza-PhysCamera001-raytracing-embree</text><text x="508.5" y="166.06187312066197" style="cursor: default; user-select: none; -webkit-font-smoothing: antialiased; font-family: Roboto; font-size: 12px;" fill="#757575" dx="-290.328125px">Intel_Sponza_Knight-KnightCam001-raytracing-embree</text><text x="508.5" y="198.11054540792782" style="cursor: default; user-select: none; -webkit-font-smoothing: antialiased; font-family: Roboto; font-size: 12px;" fill="#757575" dx="-312.71875px">OpenChessSet-render_cam_detailShape-raytracing-embree</text><text x="508.5" y="230.15923295398278" style="cursor: default; user-select: none; -webkit-font-smoothing: antialiased; font-family: Roboto; font-size: 12px;" fill="#757575" dx="-367.671875px">Intel_Sponza_Candles_Thin_Lens-PhysCamera002-raytracing-embree</text><text x="508.5" y="262.20790524124857" style="cursor: default; user-select: none; -webkit-font-smoothing: antialiased; font-family: Roboto; font-size: 12px;" fill="#757575" dx="-295.796875px">DailyDweeb-VariantCamera-raytracing-embree-thin_lens</text><text x="508.5" y="294.2565927873035" style="cursor: default; user-select: none; -webkit-font-smoothing: antialiased; font-family: Roboto; font-size: 12px;" fill="#757575" dx="-282.3125px">Blenderman-Camera_001-ambient_occlusion-embree</text><text x="508.5" y="326.3052803333584" style="cursor: default; user-select: none; -webkit-font-smoothing: antialiased; font-family: Roboto; font-size: 12px;" fill="#757575" dx="-257.5625px">EmperorCrown-CameraShape-raytracing-embree</text><text x="508.5" y="358.3539678794134" style="cursor: default; user-select: none; -webkit-font-smoothing: antialiased; font-family: Roboto; font-size: 12px;" fill="#757575" dx="-214.96875px">Blenderman-Camera_001-debug-embree</text><text x="508.5" y="390.4026249078902" style="cursor: default; user-select: none; -webkit-font-smoothing: antialiased; font-family: Roboto; font-size: 12px;" fill="#757575" dx="-343.546875px">DailyDweeb-VariantCamera-ambient_occlusion-embree-thin_lens</text><text x="508.5" y="422.4513124539451" style="cursor: default; user-select: none; -webkit-font-smoothing: antialiased; font-family: Roboto; font-size: 12px;" fill="#757575" dx="-223.640625px">CornellBox-render_cam-raytracing-embree</text><text x="508.5" y="454.5" style="cursor: default; user-select: none; -webkit-font-smoothing: antialiased; font-family: Roboto; font-size: 12px;" fill="#757575" dx="-360.46875px">OpenChessSet-render_cam_detailShape-ambient_occlusion-embree</text><text x="508.5" y="486.548687546055" style="cursor: default; user-select: none; -webkit-font-smoothing: antialiased; font-family: Roboto; font-size: 12px;" fill="#757575" dx="-259.875px">HsdLogo-render_cam_1Shape-raytracing-embree</text><text x="508.5" y="518.5973750921098" style="cursor: default; user-select: none; -webkit-font-smoothing: antialiased; font-family: Roboto; font-size: 12px;" fill="#757575" dx="-305.328125px">EmperorCrown-CameraShape-ambient_occlusion-embree</text><text x="508.5" y="550.6460321205868" style="cursor: default; user-select: none; -webkit-font-smoothing: antialiased; font-family: Roboto; font-size: 12px;" fill="#757575" dx="-307.640625px">HsdLogo-render_cam_1Shape-ambient_occlusion-embree</text><text x="508.5" y="582.6947501842196" style="cursor: default; user-select: none; -webkit-font-smoothing: antialiased; font-family: Roboto; font-size: 12px;" fill="#757575" dx="-307.015625px">Intel_Sponza-PhysCamera001-ambient_occlusion-embree</text><text x="508.5" y="614.7434072126966" style="cursor: default; user-select: none; -webkit-font-smoothing: antialiased; font-family: Roboto; font-size: 12px;" fill="#757575" dx="-276.21875px">DailyDweeb-VariantCamera-debug-embree-thin_lens</text><text x="508.5" y="646.7920642411732" style="cursor: default; user-select: none; -webkit-font-smoothing: antialiased; font-family: Roboto; font-size: 12px;" fill="#757575" dx="-415.421875px">Intel_Sponza_Candles_Thin_Lens-PhysCamera002-ambient_occlusion-embree</text><text x="508.5" y="678.8407823048065" style="cursor: default; user-select: none; -webkit-font-smoothing: antialiased; font-family: Roboto; font-size: 12px;" fill="#757575" dx="-237.984375px">EmperorCrown-CameraShape-debug-embree</text><text x="508.5" y="710.8894393332832" style="cursor: default; user-select: none; -webkit-font-smoothing: antialiased; font-family: Roboto; font-size: 12px;" fill="#757575" dx="-381.8125px">Intel_mooreLane-MASTER_cameraExtended-ambient_occlusion-embree</text><text x="508.5" y="742.9381573969163" style="cursor: default; user-select: none; -webkit-font-smoothing: antialiased; font-family: Roboto; font-size: 12px;" fill="#757575" dx="-338.078125px">Intel_Sponza_Knight-KnightCam001-ambient_occlusion-embree</text><text x="508.5" y="774.986814425393" style="cursor: default; user-select: none; -webkit-font-smoothing: antialiased; font-family: Roboto; font-size: 12px;" fill="#757575" dx="-261.140625px">Attic_NVIDIA-Camera-ambient_occlusion-embree</text><text x="508.5" y="807.0354714538698" style="cursor: default; user-select: none; -webkit-font-smoothing: antialiased; font-family: Roboto; font-size: 12px;" fill="#757575" dx="-271.40625px">CornellBox-render_cam-ambient_occlusion-embree</text><text x="508.5" y="839.0841895175029" style="cursor: default; user-select: none; -webkit-font-smoothing: antialiased; font-family: Roboto; font-size: 12px;" fill="#757575" dx="-193.796875px">Attic_NVIDIA-Camera-debug-embree</text><text x="15.09375" y="447.5" style="cursor: default; user-select: none; -webkit-font-smoothing: antialiased; font-family: Roboto; font-size: 12px;" fill="#424242" dx="-16.3828125px" transform="rotate(-90 15.09375 450.5)">Scene</text></g><g></g><g></g><g></g></svg>