<svg width="2510" height="910" xmlns="http://www.w3.org/2000/svg"><defs><clipPath id="rablfilter2"><rect x="514.5" y="55.5" width="1843" height="802"></rect></clipPath></defs><g><rect x="0" y="0" width="2510" height="910" fill="#ffffff" fill-opacity="1" stroke="#ffffff" stroke-opacity="0" stroke-width="0"></rect><text x="0" y="15" style="cursor: default; user-select: none; -webkit-font-smoothing: antialiased; font-family: Roboto; font-size: 16px;" fill="#757575" dx="0px">Relative Timing</text><rect x="2409.8466796875" y="55.5" width="12" height="12" rx="2" ry="2" fill="#4285f4"></rect><text x="2429.8466796875" y="68.5" style="cursor: default; user-select: none; -webkit-font-smoothing: antialiased; font-family: Roboto;" fill="#757575" dx="0px">Baseline</text><rect x="2409.8466796875" y="88.5" width="12" height="12" rx="2" ry="2" fill="#db4437"></rect><text x="2429.8466796875" y="101.5" style="cursor: default; user-select: none; -webkit-font-smoothing: antialiased; font-family: Roboto;" fill="#757575" dx="0px">New revision</text><rect x="514.5" y="55.5" width="1843" height="802" fill="#ffffff" fill-opacity="1" stroke="#ffffff" stroke-opacity="0" stroke-width="1"></rect></g><g><line x1="514.5" x2="514.5" y1="55.5" y2="857.5" stroke="#9E9E9E" stroke-width="1"></line><line x1="682.0454545454545" x2="682.0454545454545" y1="55.5" y2="857.5" stroke="#E0E0E0" stroke-width="1"></line><line x1="849.5909090909091" x2="849.5909090909091" y1="55.5" y2="857.5" stroke="#E0E0E0" stroke-width="1"></line><line x1="1017.1363636363637" x2="1017.1363636363637" y1="55.5" y2="857.5" stroke="#E0E0E0" stroke-width="1"></line><line x1="1184.6818181818182" x2="1184.6818181818182" y1="55.5" y2="857.5" stroke="#E0E0E0" stroke-width="1"></line><line x1="1352.2272727272727" x2="1352.2272727272727" y1="55.5" y2="857.5" stroke="#E0E0E0" stroke-width="1"></line><line x1="1519.7727272727275" x2="1519.7727272727275" y1="55.5" y2="857.5" stroke="#E0E0E0" stroke-width="1"></line><line x1="1687.3181818181818" x2="1687.3181818181818" y1="55.5" y2="857.5" stroke="#E0E0E0" stroke-width="1"></line><line x1="1854.8636363636365" x2="1854.8636363636365" y1="55.5" y2="857.5" stroke="#E0E0E0" stroke-width="1"></line><line x1="2022.4090909090908" x2="2022.4090909090908" y1="55.5" y2="857.5" stroke="#E0E0E0" stroke-width="1"></line><line x1="2189.9545454545455" x2="2189.9545454545455" y1="55.5" y2="857.5" stroke="#E0E0E0" stroke-width="1"></line><line x1="2357.5" x2="2357.5" y1="55.5" y2="857.5" stroke="#E0E0E0" stroke-width="1"></line></g><g><path d="M 2187.4545454545455 56 A 2 2 0 0 1 2189.4545454545455 58 L 2189.4545454545455 63.41582150101419 A 2 2 0 0 1 2187.4545454545455 65.4158215010142 L 515 65.4158215010142 A 0 0 0 0 1 515 65.4158215010142 L 515 56 A 0 0 0 0 1 515 56 Z" fill="#4285f4" clip-path="url(#rablfilter2)"></path><path d="M 2086.534582709696 66.4158215010142 A 2 2 0 0 1 2088.534582709696 68.4158215010142 L 2088.534582709696 73.8316430020284 A 2 2 0 0 1 2086.534582709696 75.8316430020284 L 515 75.8316430020284 A 0 0 0 0 1 515 75.8316430020284 L 515 66.4158215010142 A 0 0 0 0 1 515 66.4158215010142 Z" fill="#db4437" clip-path="url(#rablfilter2)"></path><path d="M 2187.4545454545455 88.04868154158214 A 2 2 0 0 1 2189.4545454545455 90.04868154158214 L 2189.4545454545455 95.46450304259635 A 2 2 0 0 1 2187.4545454545455 97.46450304259635 L 515 97.46450304259635 A 0 0 0 0 1 515 97.46450304259635 L 515 88.04868154158214 A 0 0 0 0 1 515 88.04868154158214 Z" fill="#4285f4" clip-path="url(#rablfilter2)"></path><path d="M 2106.578401669557 98.46450304259635 A 2 2 0 0 1 2108.578401669557 100.46450304259635 L 2108.578401669557 105.88032454361056 A 2 2 0 0 1 2106.578401669557 107.88032454361056 L 515 107.88032454361056 A 0 0 0 0 1 515 107.88032454361056 L 515 98.46450304259635 A 0 0 0 0 1 515 98.46450304259635 Z" fill="#db4437" clip-path="url(#rablfilter2)"></path><path d="M 2187.4545454545455 120.0973630831643 A 2 2 0 0 1 2189.4545454545455 122.0973630831643 L 2189.4545454545455 127.51318458417853 A 2 2 0 0 1 2187.4545454545455 129.51318458417853 L 515 129.51318458417853 A 0 0 0 0 1 515 129.51318458417853 L 515 120.0973630831643 A 0 0 0 0 1 515 120.0973630831643 Z" fill="#4285f4" clip-path="url(#rablfilter2)"></path><path d="M 2113.6908468968495 130.51318458417853 A 2 2 0 0 1 2115.6908468968495 132.51318458417853 L 2115.6908468968495 137.92900608519273 A 2 2 0 0 1 2113.6908468968495 139.92900608519273 L 515 139.92900608519273 A 0 0 0 0 1 515 139.92900608519273 L 515 130.51318458417853 A 0 0 0 0 1 515 130.51318458417853 Z" fill="#db4437" clip-path="url(#rablfilter2)"></path><path d="M 2187.4545454545455 152.14604462474648 A 2 2 0 0 1 2189.4545454545455 154.14604462474648 L 2189.4545454545455 159.56186612576067 A 2 2 0 0 1 2187.4545454545455 161.56186612576067 L 515 161.56186612576067 A 0 0 0 0 1 515 161.56186612576067 L 515 152.14604462474648 A 0 0 0 0 1 515 152.14604462474648 Z" fill="#4285f4" clip-path="url(#rablfilter2)"></path><path d="M 2125.205187620289 162.56186612576067 A 2 2 0 0 1 2127.205187620289 164.56186612576067 L 2127.205187620289 169.97768762677487 A 2 2 0 0 1 2125.205187620289 171.97768762677487 L 515 171.97768762677487 A 0 0 0 0 1 515 171.97768762677487 L 515 162.56186612576067 A 0 0 0 0 1 515 162.56186612576067 Z" fill="#db4437" clip-path="url(#rablfilter2)"></path><path d="M 2187.4545454545455 184.1947261663286 A 2 2 0 0 1 2189.4545454545455 186.1947261663286 L 2189.4545454545455 191.61054766734281 A 2 2 0 0 1 2187.4545454545455 193.61054766734281 L 515 193.61054766734281 A 0 0 0 0 1 515 193.61054766734281 L 515 184.1947261663286 A 0 0 0 0 1 515 184.1947261663286 Z" fill="#4285f4" clip-path="url(#rablfilter2)"></path><path d="M 2129.011727038097 194.61054766734281 A 2 2 0 0 1 2131.011727038097 196.61054766734281 L 2131.011727038097 202.02636916835704 A 2 2 0 0 1 2129.011727038097 204.02636916835704 L 515 204.02636916835704 A 0 0 0 0 1 515 204.02636916835704 L 515 194.61054766734281 A 0 0 0 0 1 515 194.61054766734281 Z" fill="#db4437" clip-path="url(#rablfilter2)"></path><path d="M 2187.4545454545455 216.24340770791076 A 2 2 0 0 1 2189.4545454545455 218.24340770791076 L 2189.4545454545455 223.65922920892498 A 2 2 0 0 1 2187.4545454545455 225.65922920892498 L 515 225.65922920892498 A 0 0 0 0 1 515 225.65922920892498 L 515 216.24340770791076 A 0 0 0 0 1 515 216.24340770791076 Z" fill="#4285f4" clip-path="url(#rablfilter2)"></path><path d="M 2130.728413712268 226.65922920892498 A 2 2 0 0 1 2132.728413712268 228.65922920892498 L 2132.728413712268 234.07505070993918 A 2 2 0 0 1 2130.728413712268 236.07505070993918 L 515 236.07505070993918 A 0 0 0 0 1 515 236.07505070993918 L 515 226.65922920892498 A 0 0 0 0 1 515 226.65922920892498 Z" fill="#db4437" clip-path="url(#rablfilter2)"></path><path d="M 2187.4545454545455 248.29208924949293 A 2 2 0 0 1 2189.4545454545455 250.29208924949293 L 2189.4545454545455 255.7079107505071 A 2 2 0 0 1 2187.4545454545455 257.7079107505071 L 515 257.7079107505071 A 0 0 0 0 1 515 257.7079107505071 L 515 248.29208924949293 A 0 0 0 0 1 515 248.29208924949293 Z" fill="#4285f4" clip-path="url(#rablfilter2)"></path><path d="M 2132.35671302225 258.7079107505071 A 2 2 0 0 1 2134.35671302225 260.7079107505071 L 2134.35671302225 266.12373225152135 A 2 2 0 0 1 2132.35671302225 268.12373225152135 L 515 268.12373225152135 A 0 0 0 0 1 515 268.12373225152135 L 515 258.7079107505071 A 0 0 0 0 1 515 258.7079107505071 Z" fill="#db4437" clip-path="url(#rablfilter2)"></path><path d="M 2187.4545454545455 280.34077079107504 A 2 2 0 0 1 2189.4545454545455 282.34077079107504 L 2189.4545454545455 287.75659229208924 A 2 2 0 0 1 2187.4545454545455 289.75659229208924 L 515 289.75659229208924 A 0 0 0 0 1 515 289.75659229208924 L 515 280.34077079107504 A 0 0 0 0 1 515 280.34077079107504 Z" fill="#4285f4" clip-path="url(#rablfilter2)"></path><path d="M 2133.2409409287184 290.75659229208924 A 2 2 0 0 1 2135.2409409287184 292.75659229208924 L 2135.2409409287184 298.1724137931035 A 2 2 0 0 1 2133.2409409287184 300.1724137931035 L 515 300.1724137931035 A 0 0 0 0 1 515 300.1724137931035 L 515 290.75659229208924 A 0 0 0 0 1 515 290.75659229208924 Z" fill="#db4437" clip-path="url(#rablfilter2)"></path><path d="M 2187.4545454545455 312.3894523326572 A 2 2 0 0 1 2189.4545454545455 314.3894523326572 L 2189.4545454545455 319.8052738336714 A 2 2 0 0 1 2187.4545454545455 321.8052738336714 L 515 321.8052738336714 A 0 0 0 0 1 515 321.8052738336714 L 515 312.3894523326572 A 0 0 0 0 1 515 312.3894523326572 Z" fill="#4285f4" clip-path="url(#rablfilter2)"></path><path d="M 2137.118144074269 322.8052738336714 A 2 2 0 0 1 2139.118144074269 324.8052738336714 L 2139.118144074269 330.2210953346856 A 2 2 0 0 1 2137.118144074269 332.2210953346856 L 515 332.2210953346856 A 0 0 0 0 1 515 332.2210953346856 L 515 322.8052738336714 A 0 0 0 0 1 515 322.8052738336714 Z" fill="#db4437" clip-path="url(#rablfilter2)"></path><path d="M 2187.4545454545455 344.4381338742393 A 2 2 0 0 1 2189.4545454545455 346.4381338742393 L 2189.4545454545455 351.8539553752536 A 2 2 0 0 1 2187.4545454545455 353.8539553752536 L 515 353.8539553752536 A 0 0 0 0 1 515 353.8539553752536 L 515 344.4381338742393 A 0 0 0 0 1 515 344.4381338742393 Z" fill="#4285f4" clip-path="url(#rablfilter2)"></path><path d="M 2137.9395471411963 354.8539553752536 A 2 2 0 0 1 2139.9395471411963 356.8539553752536 L 2139.9395471411963 362.2697768762677 A 2 2 0 0 1 2137.9395471411963 364.2697768762677 L 515 364.2697768762677 A 0 0 0 0 1 515 364.2697768762677 L 515 354.8539553752536 A 0 0 0 0 1 515 354.8539553752536 Z" fill="#db4437" clip-path="url(#rablfilter2)"></path><path d="M 2187.4545454545455 376.4868154158215 A 2 2 0 0 1 2189.4545454545455 378.4868154158215 L 2189.4545454545455 383.9026369168357 A 2 2 0 0 1 2187.4545454545455 385.9026369168357 L 515 385.9026369168357 A 0 0 0 0 1 515 385.9026369168357 L 515 376.4868154158215 A 0 0 0 0 1 515 376.4868154158215 Z" fill="#4285f4" clip-path="url(#rablfilter2)"></path><path d="M 2138.5452740657247 386.9026369168357 A 2 2 0 0 1 2140.5452740657247 388.9026369168357 L 2140.5452740657247 394.31845841784985 A 2 2 0 0 1 2138.5452740657247 396.31845841784985 L 515 396.31845841784985 A 0 0 0 0 1 515 396.31845841784985 L 515 386.9026369168357 A 0 0 0 0 1 515 386.9026369168357 Z" fill="#db4437" clip-path="url(#rablfilter2)"></path><path d="M 2187.4545454545455 408.53549695740367 A 2 2 0 0 1 2189.4545454545455 410.53549695740367 L 2189.4545454545455 415.95131845841786 A 2 2 0 0 1 2187.4545454545455 417.95131845841786 L 515 417.95131845841786 A 0 0 0 0 1 515 417.95131845841786 L 515 408.53549695740367 A 0 0 0 0 1 515 408.53549695740367 Z" fill="#4285f4" clip-path="url(#rablfilter2)"></path><path d="M 2142.437035273131 418.95131845841786 A 2 2 0 0 1 2144.437035273131 420.95131845841786 L 2144.437035273131 426.367139959432 A 2 2 0 0 1 2142.437035273131 428.367139959432 L 515 428.367139959432 A 0 0 0 0 1 515 428.367139959432 L 515 418.95131845841786 A 0 0 0 0 1 515 418.95131845841786 Z" fill="#db4437" clip-path="url(#rablfilter2)"></path><path d="M 2187.4545454545455 440.58417849898586 A 2 2 0 0 1 2189.4545454545455 442.58417849898586 L 2189.4545454545455 448 A 2 2 0 0 1 2187.4545454545455 450 L 515 450 A 0 0 0 0 1 515 450 L 515 440.58417849898586 A 0 0 0 0 1 515 440.58417849898586 Z" fill="#4285f4" clip-path="url(#rablfilter2)"></path><path d="M 2143.3652414635926 451 A 2 2 0 0 1 2145.3652414635926 453 L 2145.3652414635926 458.4158215010142 A 2 2 0 0 1 2143.3652414635926 460.4158215010142 L 515 460.4158215010142 A 0 0 0 0 1 515 460.4158215010142 L 515 451 A 0 0 0 0 1 515 451 Z" fill="#db4437" clip-path="url(#rablfilter2)"></path><path d="M 2187.4545454545455 472.632860040568 A 2 2 0 0 1 2189.4545454545455 474.632860040568 L 2189.4545454545455 480.0486815415822 A 2 2 0 0 1 2187.4545454545455 482.0486815415822 L 515 482.0486815415822 A 0 0 0 0 1 515 482.0486815415822 L 515 472.632860040568 A 0 0 0 0 1 515 472.632860040568 Z" fill="#4285f4" clip-path="url(#rablfilter2)"></path><path d="M 2144.978604522945 483.0486815415822 A 2 2 0 0 1 2146.978604522945 485.0486815415822 L 2146.978604522945 490.46450304259633 A 2 2 0 0 1 2144.978604522945 492.46450304259633 L 515 492.46450304259633 A 0 0 0 0 1 515 492.46450304259633 L 515 483.0486815415822 A 0 0 0 0 1 515 483.0486815415822 Z" fill="#db4437" clip-path="url(#rablfilter2)"></path><path d="M 2187.4545454545455 504.6815415821501 A 2 2 0 0 1 2189.4545454545455 506.6815415821501 L 2189.4545454545455 512.0973630831643 A 2 2 0 0 1 2187.4545454545455 514.0973630831643 L 515 514.0973630831643 A 0 0 0 0 1 515 514.0973630831643 L 515 504.6815415821501 A 0 0 0 0 1 515 504.6815415821501 Z" fill="#4285f4" clip-path="url(#rablfilter2)"></path><path d="M 2147.6134614387024 515.0973630831643 A 2 2 0 0 1 2149.6134614387024 517.0973630831643 L 2149.6134614387024 522.5131845841785 A 2 2 0 0 1 2147.6134614387024 524.5131845841785 L 515 524.5131845841785 A 0 0 0 0 1 515 524.5131845841785 L 515 515.0973630831643 A 0 0 0 0 1 515 515.0973630831643 Z" fill="#db4437" clip-path="url(#rablfilter2)"></path><path d="M 2187.4545454545455 536.7302231237322 A 2 2 0 0 1 2189.4545454545455 538.7302231237322 L 2189.4545454545455 544.1460446247465 A 2 2 0 0 1 2187.4545454545455 546.1460446247465 L 515 546.1460446247465 A 0 0 0 0 1 515 546.1460446247465 L 515 536.7302231237322 A 0 0 0 0 1 515 536.7302231237322 Z" fill="#4285f4" clip-path="url(#rablfilter2)"></path><path d="M 2163.8742619882587 547.1460446247465 A 2 2 0 0 1 2165.8742619882587 549.1460446247465 L 2165.8742619882587 554.5618661257606 A 2 2 0 0 1 2163.8742619882587 556.5618661257606 L 515 556.5618661257606 A 0 0 0 0 1 515 556.5618661257606 L 515 547.1460446247465 A 0 0 0 0 1 515 547.1460446247465 Z" fill="#db4437" clip-path="url(#rablfilter2)"></path><path d="M 2187.4545454545455 568.7789046653144 A 2 2 0 0 1 2189.4545454545455 570.7789046653144 L 2189.4545454545455 576.1947261663286 A 2 2 0 0 1 2187.4545454545455 578.1947261663286 L 515 578.1947261663286 A 0 0 0 0 1 515 578.1947261663286 L 515 568.7789046653144 A 0 0 0 0 1 515 568.7789046653144 Z" fill="#4285f4" clip-path="url(#rablfilter2)"></path><path d="M 2164.1729586582064 579.1947261663286 A 2 2 0 0 1 2166.1729586582064 581.1947261663286 L 2166.1729586582064 586.6105476673428 A 2 2 0 0 1 2164.1729586582064 588.6105476673428 L 515 588.6105476673428 A 0 0 0 0 1 515 588.6105476673428 L 515 579.1947261663286 A 0 0 0 0 1 515 579.1947261663286 Z" fill="#db4437" clip-path="url(#rablfilter2)"></path><path d="M 2187.4545454545455 600.8275862068966 A 2 2 0 0 1 2189.4545454545455 602.8275862068966 L 2189.4545454545455 608.2434077079108 A 2 2 0 0 1 2187.4545454545455 610.2434077079108 L 515 610.2434077079108 A 0 0 0 0 1 515 610.2434077079108 L 515 600.8275862068966 A 0 0 0 0 1 515 600.8275862068966 Z" fill="#4285f4" clip-path="url(#rablfilter2)"></path><path d="M 2165.9526408848565 611.2434077079108 A 2 2 0 0 1 2167.9526408848565 613.2434077079108 L 2167.9526408848565 618.6592292089249 A 2 2 0 0 1 2165.9526408848565 620.6592292089249 L 515 620.6592292089249 A 0 0 0 0 1 515 620.6592292089249 L 515 611.2434077079108 A 0 0 0 0 1 515 611.2434077079108 Z" fill="#db4437" clip-path="url(#rablfilter2)"></path><path d="M 2187.4545454545455 632.8762677484787 A 2 2 0 0 1 2189.4545454545455 634.8762677484787 L 2189.4545454545455 640.2920892494928 A 2 2 0 0 1 2187.4545454545455 642.2920892494928 L 515 642.2920892494928 A 0 0 0 0 1 515 642.2920892494928 L 515 632.8762677484787 A 0 0 0 0 1 515 632.8762677484787 Z" fill="#4285f4" clip-path="url(#rablfilter2)"></path><path d="M 2166.0494511378083 643.2920892494928 A 2 2 0 0 1 2168.0494511378083 645.2920892494928 L 2168.0494511378083 650.7079107505072 A 2 2 0 0 1 2166.0494511378083 652.7079107505072 L 515 652.7079107505072 A 0 0 0 0 1 515 652.7079107505072 L 515 643.2920892494928 A 0 0 0 0 1 515 643.2920892494928 Z" fill="#db4437" clip-path="url(#rablfilter2)"></path><path d="M 2187.4545454545455 664.9249492900609 A 2 2 0 0 1 2189.4545454545455 666.9249492900609 L 2189.4545454545455 672.3407707910751 A 2 2 0 0 1 2187.4545454545455 674.3407707910751 L 515 674.3407707910751 A 0 0 0 0 1 515 674.3407707910751 L 515 664.9249492900609 A 0 0 0 0 1 515 664.9249492900609 Z" fill="#4285f4" clip-path="url(#rablfilter2)"></path><path d="M 2168.0957027652507 675.3407707910751 A 2 2 0 0 1 2170.0957027652507 677.3407707910751 L 2170.0957027652507 682.7565922920892 A 2 2 0 0 1 2168.0957027652507 684.7565922920892 L 515 684.7565922920892 A 0 0 0 0 1 515 684.7565922920892 L 515 675.3407707910751 A 0 0 0 0 1 515 675.3407707910751 Z" fill="#db4437" clip-path="url(#rablfilter2)"></path><path d="M 2187.4545454545455 696.973630831643 A 2 2 0 0 1 2189.4545454545455 698.973630831643 L 2189.4545454545455 704.3894523326572 A 2 2 0 0 1 2187.4545454545455 706.3894523326572 L 515 706.3894523326572 A 0 0 0 0 1 515 706.3894523326572 L 515 696.973630831643 A 0 0 0 0 1 515 696.973630831643 Z" fill="#4285f4" clip-path="url(#rablfilter2)"></path><path d="M 2169.108495759953 707.3894523326572 A 2 2 0 0 1 2171.108495759953 709.3894523326572 L 2171.108495759953 714.8052738336714 A 2 2 0 0 1 2169.108495759953 716.8052738336714 L 515 716.8052738336714 A 0 0 0 0 1 515 716.8052738336714 L 515 707.3894523326572 A 0 0 0 0 1 515 707.3894523326572 Z" fill="#db4437" clip-path="url(#rablfilter2)"></path><path d="M 2187.4545454545455 729.0223123732252 A 2 2 0 0 1 2189.4545454545455 731.0223123732252 L 2189.4545454545455 736.4381338742394 A 2 2 0 0 1 2187.4545454545455 738.4381338742394 L 515 738.4381338742394 A 0 0 0 0 1 515 738.4381338742394 L 515 729.0223123732252 A 0 0 0 0 1 515 729.0223123732252 Z" fill="#4285f4" clip-path="url(#rablfilter2)"></path><path d="M 2170.3976590988013 739.4381338742394 A 2 2 0 0 1 2172.3976590988013 741.4381338742394 L 2172.3976590988013 746.8539553752535 A 2 2 0 0 1 2170.3976590988013 748.8539553752535 L 515 748.8539553752535 A 0 0 0 0 1 515 748.8539553752535 L 515 739.4381338742394 A 0 0 0 0 1 515 739.4381338742394 Z" fill="#db4437" clip-path="url(#rablfilter2)"></path><path d="M 2187.4545454545455 761.0709939148073 A 2 2 0 0 1 2189.4545454545455 763.0709939148073 L 2189.4545454545455 768.4868154158215 A 2 2 0 0 1 2187.4545454545455 770.4868154158215 L 515 770.4868154158215 A 0 0 0 0 1 515 770.4868154158215 L 515 761.0709939148073 A 0 0 0 0 1 515 761.0709939148073 Z" fill="#4285f4" clip-path="url(#rablfilter2)"></path><path d="M 2171.018015656833 771.4868154158215 A 2 2 0 0 1 2173.018015656833 773.4868154158215 L 2173.018015656833 778.9026369168357 A 2 2 0 0 1 2171.018015656833 780.9026369168357 L 515 780.9026369168357 A 0 0 0 0 1 515 780.9026369168357 L 515 771.4868154158215 A 0 0 0 0 1 515 771.4868154158215 Z" fill="#db4437" clip-path="url(#rablfilter2)"></path><path d="M 2187.4545454545455 793.1196754563895 A 2 2 0 0 1 2189.4545454545455 795.1196754563895 L 2189.4545454545455 800.5354969574037 A 2 2 0 0 1 2187.4545454545455 802.5354969574037 L 515 802.5354969574037 A 0 0 0 0 1 515 802.5354969574037 L 515 793.1196754563895 A 0 0 0 0 1 515 793.1196754563895 Z" fill="#4285f4" clip-path="url(#rablfilter2)"></path><path d="M 2178.7091311371896 803.5354969574037 A 2 2 0 0 1 2180.7091311371896 805.5354969574037 L 2180.7091311371896 810.9513184584179 A 2 2 0 0 1 2178.7091311371896 812.9513184584179 L 515 812.9513184584179 A 0 0 0 0 1 515 812.9513184584179 L 515 803.5354969574037 A 0 0 0 0 1 515 803.5354969574037 Z" fill="#db4437" clip-path="url(#rablfilter2)"></path><path d="M 2187.4545454545455 825.1683569979717 A 2 2 0 0 1 2189.4545454545455 827.1683569979717 L 2189.4545454545455 832.5841784989858 A 2 2 0 0 1 2187.4545454545455 834.5841784989858 L 515 834.5841784989858 A 0 0 0 0 1 515 834.5841784989858 L 515 825.1683569979717 A 0 0 0 0 1 515 825.1683569979717 Z" fill="#4285f4" clip-path="url(#rablfilter2)"></path><path d="M 2191.6486511296553 835.5841784989858 A 2 2 0 0 1 2193.6486511296553 837.5841784989858 L 2193.6486511296553 843 A 2 2 0 0 1 2191.6486511296553 845 L 515 845 A 0 0 0 0 1 515 845 L 515 835.5841784989858 A 0 0 0 0 1 515 835.5841784989858 Z" fill="#db4437" clip-path="url(#rablfilter2)"></path></g><g></g><g><text x="514.5" y="874.5" style="cursor: default; user-select: none; -webkit-font-smoothing: antialiased; font-family: Roboto; font-size: 12px;" fill="#757575" dx="-3.375px">0</text><text x="682.0454545454545" y="874.5" style="cursor: default; user-select: none; -webkit-font-smoothing: antialiased; font-family: Roboto; font-size: 12px;" fill="#757575" dx="-8.328125px">0.1</text><text x="849.5909090909091" y="874.5" style="cursor: default; user-select: none; -webkit-font-smoothing: antialiased; font-family: Roboto; font-size: 12px;" fill="#757575" dx="-8.328125px">0.2</text><text x="1017.1363636363637" y="874.5" style="cursor: default; user-select: none; -webkit-font-smoothing: antialiased; font-family: Roboto; font-size: 12px;" fill="#757575" dx="-8.328125px">0.3</text><text x="1184.6818181818182" y="874.5" style="cursor: default; user-select: none; -webkit-font-smoothing: antialiased; font-family: Roboto; font-size: 12px;" fill="#757575" dx="-8.328125px">0.4</text><text x="1352.2272727272727" y="874.5" style="cursor: default; user-select: none; -webkit-font-smoothing: antialiased; font-family: Roboto; font-size: 12px;" fill="#757575" dx="-8.328125px">0.5</text><text x="1519.7727272727275" y="874.5" style="cursor: default; user-select: none; -webkit-font-smoothing: antialiased; font-family: Roboto; font-size: 12px;" fill="#757575" dx="-8.328125px">0.6</text><text x="1687.3181818181818" y="874.5" style="cursor: default; user-select: none; -webkit-font-smoothing: antialiased; font-family: Roboto; font-size: 12px;" fill="#757575" dx="-8.328125px">0.7</text><text x="1854.8636363636365" y="874.5" style="cursor: default; user-select: none; -webkit-font-smoothing: antialiased; font-family: Roboto; font-size: 12px;" fill="#757575" dx="-8.328125px">0.8</text><text x="2022.4090909090908" y="874.5" style="cursor: default; user-select: none; -webkit-font-smoothing: antialiased; font-family: Roboto; font-size: 12px;" fill="#757575" dx="-8.328125px">0.9</text><text x="2189.9545454545455" y="874.5" style="cursor: default; user-select: none; -webkit-font-smoothing: antialiased; font-family: Roboto; font-size: 12px;" fill="#757575" dx="-3.375px">1</text><text x="2357.5" y="874.5" style="cursor: default; user-select: none; -webkit-font-smoothing: antialiased; font-family: Roboto; font-size: 12px;" fill="#757575" dx="-8.328125px">1.1</text><text x="1438.4140625" y="906.5" style="cursor: default; user-select: none; -webkit-font-smoothing: antialiased; font-family: Roboto; font-size: 12px;" fill="#424242" dx="-33.6484375px">Render Time</text><text x="508.5" y="69.91581811189167" style="cursor: default; user-select: none; -webkit-font-smoothing: antialiased; font-family: Roboto; font-size: 12px;" fill="#757575" dx="-214.96875px">Blenderman-Camera_001-debug-embree</text><text x="508.5" y="101.9645056579466" style="cursor: default; user-select: none; -webkit-font-smoothing: antialiased; font-family: Roboto; font-size: 12px;" fill="#757575" dx="-307.015625px">Intel_Sponza-PhysCamera001-ambient_occlusion-embree</text><text x="508.5" y="134.01318557460706" style="cursor: default; user-select: none; -webkit-font-smoothing: antialiased; font-family: Roboto; font-size: 12px;" fill="#757575" dx="-360.46875px">OpenChessSet-render_cam_detailShape-ambient_occlusion-embree</text><text x="508.5" y="166.06187312066197" style="cursor: default; user-select: none; -webkit-font-smoothing: antialiased; font-family: Roboto; font-size: 12px;" fill="#757575" dx="-237.984375px">EmperorCrown-CameraShape-debug-embree</text><text x="508.5" y="198.11054540792782" style="cursor: default; user-select: none; -webkit-font-smoothing: antialiased; font-family: Roboto; font-size: 12px;" fill="#757575" dx="-290.328125px">Intel_Sponza_Knight-KnightCam001-raytracing-embree</text><text x="508.5" y="230.15923295398278" style="cursor: default; user-select: none; -webkit-font-smoothing: antialiased; font-family: Roboto; font-size: 12px;" fill="#757575" dx="-282.3125px">Blenderman-Camera_001-ambient_occlusion-embree</text><text x="508.5" y="262.20790524124857" style="cursor: default; user-select: none; -webkit-font-smoothing: antialiased; font-family: Roboto; font-size: 12px;" fill="#757575" dx="-312.71875px">OpenChessSet-render_cam_detailShape-raytracing-embree</text><text x="508.5" y="294.2565927873035" style="cursor: default; user-select: none; -webkit-font-smoothing: antialiased; font-family: Roboto; font-size: 12px;" fill="#757575" dx="-259.25px">Intel_Sponza-PhysCamera001-raytracing-embree</text><text x="508.5" y="326.3052803333584" style="cursor: default; user-select: none; -webkit-font-smoothing: antialiased; font-family: Roboto; font-size: 12px;" fill="#757575" dx="-475.40625px">CameraTestGround-VariantCamera-raytracing-embree-realistic_canon_70_200mm_70mm</text><text x="508.5" y="358.3539678794134" style="cursor: default; user-select: none; -webkit-font-smoothing: antialiased; font-family: Roboto; font-size: 12px;" fill="#757575" dx="-223.640625px">CornellBox-render_cam-raytracing-embree</text><text x="508.5" y="390.4026249078902" style="cursor: default; user-select: none; -webkit-font-smoothing: antialiased; font-family: Roboto; font-size: 12px;" fill="#757575" dx="-259.875px">HsdLogo-render_cam_1Shape-raytracing-embree</text><text x="508.5" y="422.4513124539451" style="cursor: default; user-select: none; -webkit-font-smoothing: antialiased; font-family: Roboto; font-size: 12px;" fill="#757575" dx="-367.671875px">Intel_Sponza_Candles_Thin_Lens-PhysCamera002-raytracing-embree</text><text x="508.5" y="454.5" style="cursor: default; user-select: none; -webkit-font-smoothing: antialiased; font-family: Roboto; font-size: 12px;" fill="#757575" dx="-305.328125px">EmperorCrown-CameraShape-ambient_occlusion-embree</text><text x="508.5" y="486.548687546055" style="cursor: default; user-select: none; -webkit-font-smoothing: antialiased; font-family: Roboto; font-size: 12px;" fill="#757575" dx="-257.5625px">EmperorCrown-CameraShape-raytracing-embree</text><text x="508.5" y="518.5973750921098" style="cursor: default; user-select: none; -webkit-font-smoothing: antialiased; font-family: Roboto; font-size: 12px;" fill="#757575" dx="-343.546875px">DailyDweeb-VariantCamera-ambient_occlusion-embree-thin_lens</text><text x="508.5" y="550.6460321205868" style="cursor: default; user-select: none; -webkit-font-smoothing: antialiased; font-family: Roboto; font-size: 12px;" fill="#757575" dx="-276.21875px">DailyDweeb-VariantCamera-debug-embree-thin_lens</text><text x="508.5" y="582.6947501842196" style="cursor: default; user-select: none; -webkit-font-smoothing: antialiased; font-family: Roboto; font-size: 12px;" fill="#757575" dx="-415.421875px">Intel_Sponza_Candles_Thin_Lens-PhysCamera002-ambient_occlusion-embree</text><text x="508.5" y="614.7434072126966" style="cursor: default; user-select: none; -webkit-font-smoothing: antialiased; font-family: Roboto; font-size: 12px;" fill="#757575" dx="-213.375px">Attic_NVIDIA-Camera-raytracing-embree</text><text x="508.5" y="646.7920642411732" style="cursor: default; user-select: none; -webkit-font-smoothing: antialiased; font-family: Roboto; font-size: 12px;" fill="#757575" dx="-261.140625px">Attic_NVIDIA-Camera-ambient_occlusion-embree</text><text x="508.5" y="678.8407823048065" style="cursor: default; user-select: none; -webkit-font-smoothing: antialiased; font-family: Roboto; font-size: 12px;" fill="#757575" dx="-381.8125px">Intel_mooreLane-MASTER_cameraExtended-ambient_occlusion-embree</text><text x="508.5" y="710.8894393332832" style="cursor: default; user-select: none; -webkit-font-smoothing: antialiased; font-family: Roboto; font-size: 12px;" fill="#757575" dx="-271.40625px">CornellBox-render_cam-ambient_occlusion-embree</text><text x="508.5" y="742.9381573969163" style="cursor: default; user-select: none; -webkit-font-smoothing: antialiased; font-family: Roboto; font-size: 12px;" fill="#757575" dx="-307.640625px">HsdLogo-render_cam_1Shape-ambient_occlusion-embree</text><text x="508.5" y="774.986814425393" style="cursor: default; user-select: none; -webkit-font-smoothing: antialiased; font-family: Roboto; font-size: 12px;" fill="#757575" dx="-295.796875px">DailyDweeb-VariantCamera-raytracing-embree-thin_lens</text><text x="508.5" y="807.0354714538698" style="cursor: default; user-select: none; -webkit-font-smoothing: antialiased; font-family: Roboto; font-size: 12px;" fill="#757575" dx="-338.078125px">Intel_Sponza_Knight-KnightCam001-ambient_occlusion-embree</text><text x="508.5" y="839.0841895175029" style="cursor: default; user-select: none; -webkit-font-smoothing: antialiased; font-family: Roboto; font-size: 12px;" fill="#757575" dx="-193.796875px">Attic_NVIDIA-Camera-debug-embree</text><text x="15.09375" y="447.5" style="cursor: default; user-select: none; -webkit-font-smoothing: antialiased; font-family: Roboto; font-size: 12px;" fill="#424242" dx="-16.3828125px" transform="rotate(-90 15.09375 450.5)">Scene</text></g><g></g><g></g><g></g></svg>