<svg xmlns="http://www.w3.org/2000/svg"  width="1536" height="1750">
    <defs>
        <filter x="-100%" y="-100%" width="300%" height="300%" id="rablfilter5">
            <feGaussianBlur in="SourceAlpha" stdDeviation="2"></feGaussianBlur>
            <feOffset dx="0" dy="0"></feOffset>
            <feComponentTransfer>
                <feFuncA type="linear" slope="0"></feFuncA>
            </feComponentTransfer>
            <feMerge>
                <feMergeNode></feMergeNode>
                <feMergeNode in="SourceGraphic"></feMergeNode>
            </feMerge>
        </filter>
        <filter x="-100%" y="-100%" width="300%" height="300%" id="rablfilter4">
            <feGaussianBlur in="SourceAlpha" stdDeviation="2"></feGaussianBlur>
            <feOffset dx="0" dy="0"></feOffset>
            <feComponentTransfer>
                <feFuncA type="linear" slope="0.4"></feFuncA>
            </feComponentTransfer>
            <feMerge>
                <feMergeNode></feMergeNode>
                <feMergeNode in="SourceGraphic"></feMergeNode>
            </feMerge>
        </filter>
        <filter x="-100%" y="-100%" width="300%" height="300%" id="rablfilter3">
            <feGaussianBlur in="SourceAlpha" stdDeviation="1"></feGaussianBlur>
            <feOffset dx="0" dy="2"></feOffset>
            <feComponentTransfer>
                <feFuncA type="linear" slope="0.2"></feFuncA>
            </feComponentTransfer>
            <feMerge>
                <feMergeNode></feMergeNode>
                <feMergeNode in="SourceGraphic"></feMergeNode>
            </feMerge>
        </filter>
        <filter x="-100%" y="-100%" width="300%" height="300%" id="rablfilter2">
            <feGaussianBlur in="SourceAlpha" stdDeviation="2"></feGaussianBlur>
            <feOffset dx="0" dy="1"></feOffset>
            <feComponentTransfer>
                <feFuncA type="linear" slope="0.4"></feFuncA>
            </feComponentTransfer>
            <feMerge>
                <feMergeNode></feMergeNode>
                <feMergeNode in="SourceGraphic"></feMergeNode>
            </feMerge>
        </filter>
        <filter x="-100%" y="-100%" width="300%" height="300%" id="rablfilter1">
            <feGaussianBlur in="SourceAlpha" stdDeviation="0"></feGaussianBlur>
            <feOffset dx="0" dy="1"></feOffset>
            <feComponentTransfer>
                <feFuncA type="linear" slope="0.4"></feFuncA>
            </feComponentTransfer>
            <feMerge>
                <feMergeNode></feMergeNode>
                <feMergeNode in="SourceGraphic"></feMergeNode>
            </feMerge>
        </filter>
        <clipPath id="rablfilter0">
            <rect x="454.5" y="55.5" width="933" height="1642"></rect>
        </clipPath>
    </defs>
    <g>
        <rect x="0" y="0" width="1536" height="1750" fill="#ffffff" fill-opacity="1" stroke="#ffffff" stroke-opacity="0"
              stroke-width="0"></rect>
        <text x="0" y="15"
              style="cursor: default; user-select: none; -webkit-font-smoothing: antialiased; font-family: Roboto; font-size: 16px;"
              fill="#757575" dx="0px">Benchmark
        </text>
        <rect x="1436.171875" y="55.5" width="12" height="12" rx="2" ry="2" fill="#4285f4"></rect>
        <text x="1456.171875" y="68.5"
              style="cursor: default; user-select: none; -webkit-font-smoothing: antialiased; font-family: Roboto;"
              fill="#757575" dx="0px">Baseline
        </text>
        <rect x="1436.171875" y="88" width="12" height="12" rx="2" ry="2" fill="#db4437"></rect>
        <text x="1456.171875" y="101"
              style="cursor: default; user-select: none; -webkit-font-smoothing: antialiased; font-family: Roboto;"
              fill="#757575" dx="0px">New revision
        </text>
        <rect x="454.5" y="55.5" width="933" height="1642" fill="#ffffff" fill-opacity="1" stroke="#ffffff"
              stroke-opacity="0" stroke-width="1"></rect>
    </g>
    <g>
        <line x1="454.5" x2="454.5" y1="55.5" y2="1697.5" stroke="#9E9E9E" stroke-width="1"></line>
        <line x1="587.7857142857142" x2="587.7857142857142" y1="55.5" y2="1697.5" stroke="#E0E0E0"
              stroke-width="1"></line>
        <line x1="721.0714285714286" x2="721.0714285714286" y1="55.5" y2="1697.5" stroke="#E0E0E0"
              stroke-width="1"></line>
        <line x1="854.3571428571429" x2="854.3571428571429" y1="55.5" y2="1697.5" stroke="#E0E0E0"
              stroke-width="1"></line>
        <line x1="987.6428571428571" x2="987.6428571428571" y1="55.5" y2="1697.5" stroke="#E0E0E0"
              stroke-width="1"></line>
        <line x1="1120.9285714285713" x2="1120.9285714285713" y1="55.5" y2="1697.5" stroke="#E0E0E0"
              stroke-width="1"></line>
        <line x1="1254.2142857142858" x2="1254.2142857142858" y1="55.5" y2="1697.5" stroke="#E0E0E0"
              stroke-width="1"></line>
        <line x1="1387.5" x2="1387.5" y1="55.5" y2="1697.5" stroke="#E0E0E0" stroke-width="1"></line>
    </g>
    <g>
        <path d="M 1118.4285714285713 56 A 2 2 0 0 1 1120.4285714285713 58 L 1120.4285714285713 63.88900308324769 A 2 2 0 0 1 1118.4285714285713 65.88900308324769 L 455 65.88900308324769 A 0 0 0 0 1 455 65.88900308324769 L 455 56 A 0 0 0 0 1 455 56 Z"
              fill="#4285f4" clip-path="url(#rablfilter0)"></path>
        <path d="M 904.0741228587794 66.88900308324769 A 2 2 0 0 1 906.0741228587794 68.88900308324769 L 906.0741228587794 74.77800616649537 A 2 2 0 0 1 904.0741228587794 76.77800616649537 L 455 76.77800616649537 A 0 0 0 0 1 455 76.77800616649537 L 455 66.88900308324769 A 0 0 0 0 1 455 66.88900308324769 Z"
              fill="#db4437" clip-path="url(#rablfilter0)"></path>
        <path d="M 1118.4285714285713 89.50462487153135 A 2 2 0 0 1 1120.4285714285713 91.50462487153135 L 1120.4285714285713 97.39362795477902 A 2 2 0 0 1 1118.4285714285713 99.39362795477902 L 455 99.39362795477902 A 0 0 0 0 1 455 99.39362795477902 L 455 89.50462487153135 A 0 0 0 0 1 455 89.50462487153135 Z"
              fill="#4285f4" clip-path="url(#rablfilter0)"></path>
        <path d="M 751.4693582088656 100.39362795477902 A 2 2 0 0 1 753.4693582088656 102.39362795477902 L 753.4693582088656 108.28263103802672 A 2 2 0 0 1 751.4693582088656 110.28263103802672 L 455 110.28263103802672 A 0 0 0 0 1 455 110.28263103802672 L 455 100.39362795477902 A 0 0 0 0 1 455 100.39362795477902 Z"
              fill="#db4437" clip-path="url(#rablfilter0)"></path>
        <path d="M 1118.4285714285713 123.00924974306268 A 2 2 0 0 1 1120.4285714285713 125.00924974306268 L 1120.4285714285713 130.89825282631037 A 2 2 0 0 1 1118.4285714285713 132.89825282631037 L 455 132.89825282631037 A 0 0 0 0 1 455 132.89825282631037 L 455 123.00924974306268 A 0 0 0 0 1 455 123.00924974306268 Z"
              fill="#4285f4" clip-path="url(#rablfilter0)"></path>
        <path d="M 526.0162169705671 133.89825282631037 A 2 2 0 0 1 528.0162169705671 135.89825282631037 L 528.0162169705671 141.78725590955807 A 2 2 0 0 1 526.0162169705671 143.78725590955807 L 455 143.78725590955807 A 0 0 0 0 1 455 143.78725590955807 L 455 133.89825282631037 A 0 0 0 0 1 455 133.89825282631037 Z"
              fill="#db4437" clip-path="url(#rablfilter0)"></path>
        <path d="M 1118.4285714285713 156.51387461459404 A 2 2 0 0 1 1120.4285714285713 158.51387461459404 L 1120.4285714285713 164.40287769784172 A 2 2 0 0 1 1118.4285714285713 166.40287769784172 L 455 166.40287769784172 A 0 0 0 0 1 455 166.40287769784172 L 455 156.51387461459404 A 0 0 0 0 1 455 156.51387461459404 Z"
              fill="#4285f4" clip-path="url(#rablfilter0)"></path>
        <path d="M 923.850505505892 167.40287769784172 A 2 2 0 0 1 925.850505505892 169.40287769784172 L 925.850505505892 175.29188078108942 A 2 2 0 0 1 923.850505505892 177.29188078108942 L 455 177.29188078108942 A 0 0 0 0 1 455 177.29188078108942 L 455 167.40287769784172 A 0 0 0 0 1 455 167.40287769784172 Z"
              fill="#db4437" clip-path="url(#rablfilter0)"></path>
        <path d="M 1118.4285714285713 190.01849948612536 A 2 2 0 0 1 1120.4285714285713 192.01849948612536 L 1120.4285714285713 197.90750256937307 A 2 2 0 0 1 1118.4285714285713 199.90750256937307 L 455 199.90750256937307 A 0 0 0 0 1 455 199.90750256937307 L 455 190.01849948612536 A 0 0 0 0 1 455 190.01849948612536 Z"
              fill="#4285f4" clip-path="url(#rablfilter0)"></path>
        <path d="M 878.0236551921406 200.90750256937307 A 2 2 0 0 1 880.0236551921406 202.90750256937307 L 880.0236551921406 208.79650565262074 A 2 2 0 0 1 878.0236551921406 210.79650565262074 L 455 210.79650565262074 A 0 0 0 0 1 455 210.79650565262074 L 455 200.90750256937307 A 0 0 0 0 1 455 200.90750256937307 Z"
              fill="#db4437" clip-path="url(#rablfilter0)"></path>
        <path d="M 1118.4285714285713 223.5231243576567 A 2 2 0 0 1 1120.4285714285713 225.5231243576567 L 1120.4285714285713 231.4121274409044 A 2 2 0 0 1 1118.4285714285713 233.4121274409044 L 455 233.4121274409044 A 0 0 0 0 1 455 233.4121274409044 L 455 223.5231243576567 A 0 0 0 0 1 455 223.5231243576567 Z"
              fill="#4285f4" clip-path="url(#rablfilter0)"></path>
        <path d="M 901.5634419811172 234.4121274409044 A 2 2 0 0 1 903.5634419811172 236.4121274409044 L 903.5634419811172 242.3011305241521 A 2 2 0 0 1 901.5634419811172 244.3011305241521 L 455 244.3011305241521 A 0 0 0 0 1 455 244.3011305241521 L 455 234.4121274409044 A 0 0 0 0 1 455 234.4121274409044 Z"
              fill="#db4437" clip-path="url(#rablfilter0)"></path>
        <path d="M 1118.4285714285713 257.0277492291881 A 2 2 0 0 1 1120.4285714285713 259.0277492291881 L 1120.4285714285713 264.91675231243573 A 2 2 0 0 1 1118.4285714285713 266.91675231243573 L 455 266.91675231243573 A 0 0 0 0 1 455 266.91675231243573 L 455 257.0277492291881 A 0 0 0 0 1 455 257.0277492291881 Z"
              fill="#4285f4" clip-path="url(#rablfilter0)"></path>
        <path d="M 952.8445540726896 267.91675231243573 A 2 2 0 0 1 954.8445540726896 269.91675231243573 L 954.8445540726896 275.80575539568343 A 2 2 0 0 1 952.8445540726896 277.80575539568343 L 455 277.80575539568343 A 0 0 0 0 1 455 277.80575539568343 L 455 267.91675231243573 A 0 0 0 0 1 455 267.91675231243573 Z"
              fill="#db4437" clip-path="url(#rablfilter0)"></path>
        <path d="M 1118.4285714285713 290.5323741007194 A 2 2 0 0 1 1120.4285714285713 292.5323741007194 L 1120.4285714285713 298.4213771839671 A 2 2 0 0 1 1118.4285714285713 300.4213771839671 L 455 300.4213771839671 A 0 0 0 0 1 455 300.4213771839671 L 455 290.5323741007194 A 0 0 0 0 1 455 290.5323741007194 Z"
              fill="#4285f4" clip-path="url(#rablfilter0)"></path>
        <path d="M 941.9103340457989 301.4213771839671 A 2 2 0 0 1 943.9103340457989 303.4213771839671 L 943.9103340457989 309.3103802672148 A 2 2 0 0 1 941.9103340457989 311.3103802672148 L 455 311.3103802672148 A 0 0 0 0 1 455 311.3103802672148 L 455 301.4213771839671 A 0 0 0 0 1 455 301.4213771839671 Z"
              fill="#db4437" clip-path="url(#rablfilter0)"></path>
        <path d="M 1118.4285714285713 324.03699897225073 A 2 2 0 0 1 1120.4285714285713 326.03699897225073 L 1120.4285714285713 331.92600205549843 A 2 2 0 0 1 1118.4285714285713 333.92600205549843 L 455 333.92600205549843 A 0 0 0 0 1 455 333.92600205549843 L 455 324.03699897225073 A 0 0 0 0 1 455 324.03699897225073 Z"
              fill="#4285f4" clip-path="url(#rablfilter0)"></path>
        <path d="M 985.8293166869339 334.92600205549843 A 2 2 0 0 1 987.8293166869339 336.92600205549843 L 987.8293166869339 342.8150051387461 A 2 2 0 0 1 985.8293166869339 344.8150051387461 L 455 344.8150051387461 A 0 0 0 0 1 455 344.8150051387461 L 455 334.92600205549843 A 0 0 0 0 1 455 334.92600205549843 Z"
              fill="#db4437" clip-path="url(#rablfilter0)"></path>
        <path d="M 1118.4285714285713 357.5416238437821 A 2 2 0 0 1 1120.4285714285713 359.5416238437821 L 1120.4285714285713 365.4306269270297 A 2 2 0 0 1 1118.4285714285713 367.4306269270297 L 455 367.4306269270297 A 0 0 0 0 1 455 367.4306269270297 L 455 357.5416238437821 A 0 0 0 0 1 455 357.5416238437821 Z"
              fill="#4285f4" clip-path="url(#rablfilter0)"></path>
        <path d="M 994.8838664942429 368.4306269270297 A 2 2 0 0 1 996.8838664942429 370.4306269270297 L 996.8838664942429 376.31963001027736 A 2 2 0 0 1 994.8838664942429 378.31963001027736 L 455 378.31963001027736 A 0 0 0 0 1 455 378.31963001027736 L 455 368.4306269270297 A 0 0 0 0 1 455 368.4306269270297 Z"
              fill="#db4437" clip-path="url(#rablfilter0)"></path>
        <path d="M 1118.4285714285713 391.0462487153134 A 2 2 0 0 1 1120.4285714285713 393.0462487153134 L 1120.4285714285713 398.93525179856107 A 2 2 0 0 1 1118.4285714285713 400.93525179856107 L 455 400.93525179856107 A 0 0 0 0 1 455 400.93525179856107 L 455 391.0462487153134 A 0 0 0 0 1 455 391.0462487153134 Z"
              fill="#4285f4" clip-path="url(#rablfilter0)"></path>
        <path d="M 955.0262371995781 401.93525179856107 A 2 2 0 0 1 957.0262371995781 403.93525179856107 L 957.0262371995781 409.8242548818087 A 2 2 0 0 1 955.0262371995781 411.8242548818087 L 455 411.8242548818087 A 0 0 0 0 1 455 411.8242548818087 L 455 401.93525179856107 A 0 0 0 0 1 455 401.93525179856107 Z"
              fill="#db4437" clip-path="url(#rablfilter0)"></path>
        <path d="M 1118.4285714285713 424.5508735868448 A 2 2 0 0 1 1120.4285714285713 426.5508735868448 L 1120.4285714285713 432.4398766700924 A 2 2 0 0 1 1118.4285714285713 434.4398766700924 L 455 434.4398766700924 A 0 0 0 0 1 455 434.4398766700924 L 455 424.5508735868448 A 0 0 0 0 1 455 424.5508735868448 Z"
              fill="#4285f4" clip-path="url(#rablfilter0)"></path>
        <path d="M 923.1510850405532 435.4398766700924 A 2 2 0 0 1 925.1510850405532 437.4398766700924 L 925.1510850405532 443.3288797533401 A 2 2 0 0 1 923.1510850405532 445.3288797533401 L 455 445.3288797533401 A 0 0 0 0 1 455 445.3288797533401 L 455 435.4398766700924 A 0 0 0 0 1 455 435.4398766700924 Z"
              fill="#db4437" clip-path="url(#rablfilter0)"></path>
        <path d="M 1118.4285714285713 458.0554984583761 A 2 2 0 0 1 1120.4285714285713 460.0554984583761 L 1120.4285714285713 465.94450154162377 A 2 2 0 0 1 1118.4285714285713 467.94450154162377 L 455 467.94450154162377 A 0 0 0 0 1 455 467.94450154162377 L 455 458.0554984583761 A 0 0 0 0 1 455 458.0554984583761 Z"
              fill="#4285f4" clip-path="url(#rablfilter0)"></path>
        <path d="M 1068.9577639233871 468.94450154162377 A 2 2 0 0 1 1070.9577639233871 470.94450154162377 L 1070.9577639233871 476.83350462487147 A 2 2 0 0 1 1068.9577639233871 478.83350462487147 L 455 478.83350462487147 A 0 0 0 0 1 455 478.83350462487147 L 455 468.94450154162377 A 0 0 0 0 1 455 468.94450154162377 Z"
              fill="#db4437" clip-path="url(#rablfilter0)"></path>
        <path d="M 1118.4285714285713 491.5601233299074 A 2 2 0 0 1 1120.4285714285713 493.5601233299074 L 1120.4285714285713 499.4491264131551 A 2 2 0 0 1 1118.4285714285713 501.4491264131551 L 455 501.4491264131551 A 0 0 0 0 1 455 501.4491264131551 L 455 491.5601233299074 A 0 0 0 0 1 455 491.5601233299074 Z"
              fill="#4285f4" clip-path="url(#rablfilter0)"></path>
        <path d="M 1057.9808768437533 502.4491264131551 A 2 2 0 0 1 1059.9808768437533 504.4491264131551 L 1059.9808768437533 510.33812949640276 A 2 2 0 0 1 1057.9808768437533 512.3381294964028 L 455 512.3381294964028 A 0 0 0 0 1 455 512.3381294964028 L 455 502.4491264131551 A 0 0 0 0 1 455 502.4491264131551 Z"
              fill="#db4437" clip-path="url(#rablfilter0)"></path>
        <path d="M 1118.4285714285713 525.0647482014388 A 2 2 0 0 1 1120.4285714285713 527.0647482014388 L 1120.4285714285713 532.9537512846864 A 2 2 0 0 1 1118.4285714285713 534.9537512846864 L 455 534.9537512846864 A 0 0 0 0 1 455 534.9537512846864 L 455 525.0647482014388 A 0 0 0 0 1 455 525.0647482014388 Z"
              fill="#4285f4" clip-path="url(#rablfilter0)"></path>
        <path d="M 639.6995806368176 535.9537512846864 A 2 2 0 0 1 641.6995806368176 537.9537512846864 L 641.6995806368176 543.8427543679342 A 2 2 0 0 1 639.6995806368176 545.8427543679342 L 455 545.8427543679342 A 0 0 0 0 1 455 545.8427543679342 L 455 535.9537512846864 A 0 0 0 0 1 455 535.9537512846864 Z"
              fill="#db4437" clip-path="url(#rablfilter0)"></path>
        <path d="M 1118.4285714285713 558.5693730729702 A 2 2 0 0 1 1120.4285714285713 560.5693730729702 L 1120.4285714285713 566.4583761562178 A 2 2 0 0 1 1118.4285714285713 568.4583761562178 L 455 568.4583761562178 A 0 0 0 0 1 455 568.4583761562178 L 455 558.5693730729702 A 0 0 0 0 1 455 558.5693730729702 Z"
              fill="#4285f4" clip-path="url(#rablfilter0)"></path>
        <path d="M 783.1188719008098 569.4583761562178 A 2 2 0 0 1 785.1188719008098 571.4583761562178 L 785.1188719008098 577.3473792394655 A 2 2 0 0 1 783.1188719008098 579.3473792394655 L 455 579.3473792394655 A 0 0 0 0 1 455 579.3473792394655 L 455 569.4583761562178 A 0 0 0 0 1 455 569.4583761562178 Z"
              fill="#db4437" clip-path="url(#rablfilter0)"></path>
        <path d="M 1118.4285714285713 592.0739979445015 A 2 2 0 0 1 1120.4285714285713 594.0739979445015 L 1120.4285714285713 599.9630010277491 A 2 2 0 0 1 1118.4285714285713 601.9630010277491 L 455 601.9630010277491 A 0 0 0 0 1 455 601.9630010277491 L 455 592.0739979445015 A 0 0 0 0 1 455 592.0739979445015 Z"
              fill="#4285f4" clip-path="url(#rablfilter0)"></path>
        <path d="M 659.428422164377 602.9630010277491 A 2 2 0 0 1 661.428422164377 604.9630010277491 L 661.428422164377 610.8520041109969 A 2 2 0 0 1 659.428422164377 612.8520041109969 L 455 612.8520041109969 A 0 0 0 0 1 455 612.8520041109969 L 455 602.9630010277491 A 0 0 0 0 1 455 602.9630010277491 Z"
              fill="#db4437" clip-path="url(#rablfilter0)"></path>
        <path d="M 1118.4285714285713 625.5786228160329 A 2 2 0 0 1 1120.4285714285713 627.5786228160329 L 1120.4285714285713 633.4676258992805 A 2 2 0 0 1 1118.4285714285713 635.4676258992805 L 455 635.4676258992805 A 0 0 0 0 1 455 635.4676258992805 L 455 625.5786228160329 A 0 0 0 0 1 455 625.5786228160329 Z"
              fill="#4285f4" clip-path="url(#rablfilter0)"></path>
        <path d="M 1061.811754038497 636.4676258992805 A 2 2 0 0 1 1063.811754038497 638.4676258992805 L 1063.811754038497 644.3566289825282 A 2 2 0 0 1 1061.811754038497 646.3566289825282 L 455 646.3566289825282 A 0 0 0 0 1 455 646.3566289825282 L 455 636.4676258992805 A 0 0 0 0 1 455 636.4676258992805 Z"
              fill="#db4437" clip-path="url(#rablfilter0)"></path>
        <path d="M 1118.4285714285713 659.0832476875642 A 2 2 0 0 1 1120.4285714285713 661.0832476875642 L 1120.4285714285713 666.9722507708118 A 2 2 0 0 1 1118.4285714285713 668.9722507708118 L 455 668.9722507708118 A 0 0 0 0 1 455 668.9722507708118 L 455 659.0832476875642 A 0 0 0 0 1 455 659.0832476875642 Z"
              fill="#4285f4" clip-path="url(#rablfilter0)"></path>
        <path d="M 581.4611448784805 669.9722507708118 A 2 2 0 0 1 583.4611448784805 671.9722507708118 L 583.4611448784805 677.8612538540594 A 2 2 0 0 1 581.4611448784805 679.8612538540594 L 455 679.8612538540594 A 0 0 0 0 1 455 679.8612538540594 L 455 669.9722507708118 A 0 0 0 0 1 455 669.9722507708118 Z"
              fill="#db4437" clip-path="url(#rablfilter0)"></path>
        <path d="M 1118.4285714285713 692.5878725590956 A 2 2 0 0 1 1120.4285714285713 694.5878725590956 L 1120.4285714285713 700.4768756423432 A 2 2 0 0 1 1118.4285714285713 702.4768756423432 L 455 702.4768756423432 A 0 0 0 0 1 455 702.4768756423432 L 455 692.5878725590956 A 0 0 0 0 1 455 692.5878725590956 Z"
              fill="#4285f4" clip-path="url(#rablfilter0)"></path>
        <path d="M 1099.3403060733228 703.4768756423432 A 2 2 0 0 1 1101.3403060733228 705.4768756423432 L 1101.3403060733228 711.3658787255908 A 2 2 0 0 1 1099.3403060733228 713.3658787255908 L 455 713.3658787255908 A 0 0 0 0 1 455 713.3658787255908 L 455 703.4768756423432 A 0 0 0 0 1 455 703.4768756423432 Z"
              fill="#db4437" clip-path="url(#rablfilter0)"></path>
        <path d="M 1118.4285714285713 726.0924974306268 A 2 2 0 0 1 1120.4285714285713 728.0924974306268 L 1120.4285714285713 733.9815005138745 A 2 2 0 0 1 1118.4285714285713 735.9815005138745 L 455 735.9815005138745 A 0 0 0 0 1 455 735.9815005138745 L 455 726.0924974306268 A 0 0 0 0 1 455 726.0924974306268 Z"
              fill="#4285f4" clip-path="url(#rablfilter0)"></path>
        <path d="M 587.8160343727802 736.9815005138745 A 2 2 0 0 1 589.8160343727802 738.9815005138745 L 589.8160343727802 744.8705035971221 A 2 2 0 0 1 587.8160343727802 746.8705035971221 L 455 746.8705035971221 A 0 0 0 0 1 455 746.8705035971221 L 455 736.9815005138745 A 0 0 0 0 1 455 736.9815005138745 Z"
              fill="#db4437" clip-path="url(#rablfilter0)"></path>
        <path d="M 1118.4285714285713 759.5971223021581 A 2 2 0 0 1 1120.4285714285713 761.5971223021581 L 1120.4285714285713 767.4861253854058 A 2 2 0 0 1 1118.4285714285713 769.4861253854058 L 455 769.4861253854058 A 0 0 0 0 1 455 769.4861253854058 L 455 759.5971223021581 A 0 0 0 0 1 455 759.5971223021581 Z"
              fill="#4285f4" clip-path="url(#rablfilter0)"></path>
        <path d="M 1138.6441146569973 770.4861253854058 A 2 2 0 0 1 1140.6441146569973 772.4861253854058 L 1140.6441146569973 778.3751284686535 A 2 2 0 0 1 1138.6441146569973 780.3751284686535 L 455 780.3751284686535 A 0 0 0 0 1 455 780.3751284686535 L 455 770.4861253854058 A 0 0 0 0 1 455 770.4861253854058 Z"
              fill="#db4437" clip-path="url(#rablfilter0)"></path>
        <path d="M 1118.4285714285713 793.1017471736895 A 2 2 0 0 1 1120.4285714285713 795.1017471736895 L 1120.4285714285713 800.9907502569372 A 2 2 0 0 1 1118.4285714285713 802.9907502569372 L 455 802.9907502569372 A 0 0 0 0 1 455 802.9907502569372 L 455 793.1017471736895 A 0 0 0 0 1 455 793.1017471736895 Z"
              fill="#4285f4" clip-path="url(#rablfilter0)"></path>
        <path d="M 611.8654044539766 803.9907502569372 A 2 2 0 0 1 613.8654044539766 805.9907502569372 L 613.8654044539766 811.8797533401848 A 2 2 0 0 1 611.8654044539766 813.8797533401848 L 455 813.8797533401848 A 0 0 0 0 1 455 813.8797533401848 L 455 803.9907502569372 A 0 0 0 0 1 455 803.9907502569372 Z"
              fill="#db4437" clip-path="url(#rablfilter0)"></path>
        <path d="M 1118.4285714285713 826.6063720452208 A 2 2 0 0 1 1120.4285714285713 828.6063720452208 L 1120.4285714285713 834.4953751284685 A 2 2 0 0 1 1118.4285714285713 836.4953751284685 L 455 836.4953751284685 A 0 0 0 0 1 455 836.4953751284685 L 455 826.6063720452208 A 0 0 0 0 1 455 826.6063720452208 Z"
              fill="#4285f4" clip-path="url(#rablfilter0)"></path>
        <path d="M 1115.695603582065 837.4953751284685 A 2 2 0 0 1 1117.695603582065 839.4953751284685 L 1117.695603582065 845.3843782117161 A 2 2 0 0 1 1115.695603582065 847.3843782117161 L 455 847.3843782117161 A 0 0 0 0 1 455 847.3843782117161 L 455 837.4953751284685 A 0 0 0 0 1 455 837.4953751284685 Z"
              fill="#db4437" clip-path="url(#rablfilter0)"></path>
        <path d="M 1118.4285714285713 860.1109969167522 A 2 2 0 0 1 1120.4285714285713 862.1109969167522 L 1120.4285714285713 867.9999999999999 A 2 2 0 0 1 1118.4285714285713 869.9999999999999 L 455 869.9999999999999 A 0 0 0 0 1 455 869.9999999999999 L 455 860.1109969167522 A 0 0 0 0 1 455 860.1109969167522 Z"
              fill="#4285f4" clip-path="url(#rablfilter0)"></path>
        <path d="M 606.9373416522762 870.9999999999999 A 2 2 0 0 1 608.9373416522762 872.9999999999999 L 608.9373416522762 878.8890030832475 A 2 2 0 0 1 606.9373416522762 880.8890030832475 L 455 880.8890030832475 A 0 0 0 0 1 455 880.8890030832475 L 455 870.9999999999999 A 0 0 0 0 1 455 870.9999999999999 Z"
              fill="#db4437" clip-path="url(#rablfilter0)"></path>
        <path d="M 1118.4285714285713 893.6156217882836 A 2 2 0 0 1 1120.4285714285713 895.6156217882836 L 1120.4285714285713 901.5046248715312 A 2 2 0 0 1 1118.4285714285713 903.5046248715312 L 455 903.5046248715312 A 0 0 0 0 1 455 903.5046248715312 L 455 893.6156217882836 A 0 0 0 0 1 455 893.6156217882836 Z"
              fill="#4285f4" clip-path="url(#rablfilter0)"></path>
        <path d="M 1053.3374688959705 904.5046248715312 A 2 2 0 0 1 1055.3374688959705 906.5046248715312 L 1055.3374688959705 912.3936279547789 A 2 2 0 0 1 1053.3374688959705 914.3936279547789 L 455 914.3936279547789 A 0 0 0 0 1 455 914.3936279547789 L 455 904.5046248715312 A 0 0 0 0 1 455 904.5046248715312 Z"
              fill="#db4437" clip-path="url(#rablfilter0)"></path>
        <path d="M 1118.4285714285713 927.1202466598148 A 2 2 0 0 1 1120.4285714285713 929.1202466598148 L 1120.4285714285713 935.0092497430626 A 2 2 0 0 1 1118.4285714285713 937.0092497430626 L 455 937.0092497430626 A 0 0 0 0 1 455 937.0092497430626 L 455 927.1202466598148 A 0 0 0 0 1 455 927.1202466598148 Z"
              fill="#4285f4" clip-path="url(#rablfilter0)"></path>
        <path d="M 539.5490802710347 938.0092497430626 A 2 2 0 0 1 541.5490802710347 940.0092497430626 L 541.5490802710347 945.8982528263102 A 2 2 0 0 1 539.5490802710347 947.8982528263102 L 455 947.8982528263102 A 0 0 0 0 1 455 947.8982528263102 L 455 938.0092497430626 A 0 0 0 0 1 455 938.0092497430626 Z"
              fill="#db4437" clip-path="url(#rablfilter0)"></path>
        <path d="M 1118.4285714285713 960.6248715313462 A 2 2 0 0 1 1120.4285714285713 962.6248715313462 L 1120.4285714285713 968.5138746145939 A 2 2 0 0 1 1118.4285714285713 970.5138746145939 L 455 970.5138746145939 A 0 0 0 0 1 455 970.5138746145939 L 455 960.6248715313462 A 0 0 0 0 1 455 960.6248715313462 Z"
              fill="#4285f4" clip-path="url(#rablfilter0)"></path>
        <path d="M 1207.8197848779948 971.5138746145939 A 2 2 0 0 1 1209.8197848779948 973.5138746145939 L 1209.8197848779948 979.4028776978416 A 2 2 0 0 1 1207.8197848779948 981.4028776978416 L 455 981.4028776978416 A 0 0 0 0 1 455 981.4028776978416 L 455 971.5138746145939 A 0 0 0 0 1 455 971.5138746145939 Z"
              fill="#db4437" clip-path="url(#rablfilter0)"></path>
        <path d="M 1118.4285714285713 994.1294964028776 A 2 2 0 0 1 1120.4285714285713 996.1294964028776 L 1120.4285714285713 1002.0184994861253 A 2 2 0 0 1 1118.4285714285713 1004.0184994861253 L 455 1004.0184994861253 A 0 0 0 0 1 455 1004.0184994861253 L 455 994.1294964028776 A 0 0 0 0 1 455 994.1294964028776 Z"
              fill="#4285f4" clip-path="url(#rablfilter0)"></path>
        <path d="M 629.0740189766382 1005.0184994861253 A 2 2 0 0 1 631.0740189766382 1007.0184994861253 L 631.0740189766382 1012.9075025693729 A 2 2 0 0 1 629.0740189766382 1014.9075025693729 L 455 1014.9075025693729 A 0 0 0 0 1 455 1014.9075025693729 L 455 1005.0184994861253 A 0 0 0 0 1 455 1005.0184994861253 Z"
              fill="#db4437" clip-path="url(#rablfilter0)"></path>
        <path d="M 1118.4285714285713 1027.634121274409 A 2 2 0 0 1 1120.4285714285713 1029.634121274409 L 1120.4285714285713 1035.5231243576566 A 2 2 0 0 1 1118.4285714285713 1037.5231243576566 L 455 1037.5231243576566 A 0 0 0 0 1 455 1037.5231243576566 L 455 1027.634121274409 A 0 0 0 0 1 455 1027.634121274409 Z"
              fill="#4285f4" clip-path="url(#rablfilter0)"></path>
        <path d="M 1134.0012874836475 1038.5231243576566 A 2 2 0 0 1 1136.0012874836475 1040.5231243576566 L 1136.0012874836475 1046.4121274409042 A 2 2 0 0 1 1134.0012874836475 1048.4121274409042 L 455 1048.4121274409042 A 0 0 0 0 1 455 1048.4121274409042 L 455 1038.5231243576566 A 0 0 0 0 1 455 1038.5231243576566 Z"
              fill="#db4437" clip-path="url(#rablfilter0)"></path>
        <path d="M 1118.4285714285713 1061.1387461459403 A 2 2 0 0 1 1120.4285714285713 1063.1387461459403 L 1120.4285714285713 1069.027749229188 A 2 2 0 0 1 1118.4285714285713 1071.027749229188 L 455 1071.027749229188 A 0 0 0 0 1 455 1071.027749229188 L 455 1061.1387461459403 A 0 0 0 0 1 455 1061.1387461459403 Z"
              fill="#4285f4" clip-path="url(#rablfilter0)"></path>
        <path d="M 649.7528328016022 1072.027749229188 A 2 2 0 0 1 651.7528328016022 1074.027749229188 L 651.7528328016022 1079.9167523124356 A 2 2 0 0 1 649.7528328016022 1081.9167523124356 L 455 1081.9167523124356 A 0 0 0 0 1 455 1081.9167523124356 L 455 1072.027749229188 A 0 0 0 0 1 455 1072.027749229188 Z"
              fill="#db4437" clip-path="url(#rablfilter0)"></path>
        <path d="M 1118.4285714285713 1094.6433710174717 A 2 2 0 0 1 1120.4285714285713 1096.6433710174717 L 1120.4285714285713 1102.5323741007192 A 2 2 0 0 1 1118.4285714285713 1104.5323741007192 L 455 1104.5323741007192 A 0 0 0 0 1 455 1104.5323741007192 L 455 1094.6433710174717 A 0 0 0 0 1 455 1094.6433710174717 Z"
              fill="#4285f4" clip-path="url(#rablfilter0)"></path>
        <path d="M 1155.2673714783982 1105.5323741007192 A 2 2 0 0 1 1157.2673714783982 1107.5323741007192 L 1157.2673714783982 1113.421377183967 A 2 2 0 0 1 1155.2673714783982 1115.421377183967 L 455 1115.421377183967 A 0 0 0 0 1 455 1115.421377183967 L 455 1105.5323741007192 A 0 0 0 0 1 455 1105.5323741007192 Z"
              fill="#db4437" clip-path="url(#rablfilter0)"></path>
        <path d="M 1118.4285714285713 1128.147995889003 A 2 2 0 0 1 1120.4285714285713 1130.147995889003 L 1120.4285714285713 1136.0369989722508 A 2 2 0 0 1 1118.4285714285713 1138.0369989722508 L 455 1138.0369989722508 A 0 0 0 0 1 455 1138.0369989722508 L 455 1128.147995889003 A 0 0 0 0 1 455 1128.147995889003 Z"
              fill="#4285f4" clip-path="url(#rablfilter0)"></path>
        <path d="M 1057.2905652165282 1139.0369989722508 A 2 2 0 0 1 1059.2905652165282 1141.0369989722508 L 1059.2905652165282 1146.9260020554987 A 2 2 0 0 1 1057.2905652165282 1148.9260020554987 L 455 1148.9260020554987 A 0 0 0 0 1 455 1148.9260020554987 L 455 1139.0369989722508 A 0 0 0 0 1 455 1139.0369989722508 Z"
              fill="#db4437" clip-path="url(#rablfilter0)"></path>
        <path d="M 1118.4285714285713 1161.6526207605343 A 2 2 0 0 1 1120.4285714285713 1163.6526207605343 L 1120.4285714285713 1169.541623843782 A 2 2 0 0 1 1118.4285714285713 1171.541623843782 L 455 1171.541623843782 A 0 0 0 0 1 455 1171.541623843782 L 455 1161.6526207605343 A 0 0 0 0 1 455 1161.6526207605343 Z"
              fill="#4285f4" clip-path="url(#rablfilter0)"></path>
        <path d="M 1049.054717534717 1172.541623843782 A 2 2 0 0 1 1051.054717534717 1174.541623843782 L 1051.054717534717 1180.4306269270298 A 2 2 0 0 1 1049.054717534717 1182.4306269270298 L 455 1182.4306269270298 A 0 0 0 0 1 455 1182.4306269270298 L 455 1172.541623843782 A 0 0 0 0 1 455 1172.541623843782 Z"
              fill="#db4437" clip-path="url(#rablfilter0)"></path>
        <path d="M 1118.4285714285713 1195.1572456320657 A 2 2 0 0 1 1120.4285714285713 1197.1572456320657 L 1120.4285714285713 1203.0462487153134 A 2 2 0 0 1 1118.4285714285713 1205.0462487153134 L 455 1205.0462487153134 A 0 0 0 0 1 455 1205.0462487153134 L 455 1195.1572456320657 A 0 0 0 0 1 455 1195.1572456320657 Z"
              fill="#4285f4" clip-path="url(#rablfilter0)"></path>
        <path d="M 1043.2165972375715 1206.0462487153134 A 2 2 0 0 1 1045.2165972375715 1208.0462487153134 L 1045.2165972375715 1213.9352517985612 A 2 2 0 0 1 1043.2165972375715 1215.9352517985612 L 455 1215.9352517985612 A 0 0 0 0 1 455 1215.9352517985612 L 455 1206.0462487153134 A 0 0 0 0 1 455 1206.0462487153134 Z"
              fill="#db4437" clip-path="url(#rablfilter0)"></path>
        <path d="M 1118.4285714285713 1228.6618705035971 A 2 2 0 0 1 1120.4285714285713 1230.6618705035971 L 1120.4285714285713 1236.5508735868448 A 2 2 0 0 1 1118.4285714285713 1238.5508735868448 L 455 1238.5508735868448 A 0 0 0 0 1 455 1238.5508735868448 L 455 1228.6618705035971 A 0 0 0 0 1 455 1228.6618705035971 Z"
              fill="#4285f4" clip-path="url(#rablfilter0)"></path>
        <path d="M 1059.675033943905 1239.5508735868448 A 2 2 0 0 1 1061.675033943905 1241.5508735868448 L 1061.675033943905 1247.4398766700926 A 2 2 0 0 1 1059.675033943905 1249.4398766700926 L 455 1249.4398766700926 A 0 0 0 0 1 455 1249.4398766700926 L 455 1239.5508735868448 A 0 0 0 0 1 455 1239.5508735868448 Z"
              fill="#db4437" clip-path="url(#rablfilter0)"></path>
        <path d="M 1118.4285714285713 1262.1664953751283 A 2 2 0 0 1 1120.4285714285713 1264.1664953751283 L 1120.4285714285713 1270.055498458376 A 2 2 0 0 1 1118.4285714285713 1272.055498458376 L 455 1272.055498458376 A 0 0 0 0 1 455 1272.055498458376 L 455 1262.1664953751283 A 0 0 0 0 1 455 1262.1664953751283 Z"
              fill="#4285f4" clip-path="url(#rablfilter0)"></path>
        <path d="M 1000.654734316141 1273.055498458376 A 2 2 0 0 1 1002.654734316141 1275.055498458376 L 1002.654734316141 1280.944501541624 A 2 2 0 0 1 1000.654734316141 1282.944501541624 L 455 1282.944501541624 A 0 0 0 0 1 455 1282.944501541624 L 455 1273.055498458376 A 0 0 0 0 1 455 1273.055498458376 Z"
              fill="#db4437" clip-path="url(#rablfilter0)"></path>
        <path d="M 1118.4285714285713 1295.6711202466597 A 2 2 0 0 1 1120.4285714285713 1297.6711202466597 L 1120.4285714285713 1303.5601233299074 A 2 2 0 0 1 1118.4285714285713 1305.5601233299074 L 455 1305.5601233299074 A 0 0 0 0 1 455 1305.5601233299074 L 455 1295.6711202466597 A 0 0 0 0 1 455 1295.6711202466597 Z"
              fill="#4285f4" clip-path="url(#rablfilter0)"></path>
        <path d="M 1012.1485081209705 1306.5601233299074 A 2 2 0 0 1 1014.1485081209705 1308.5601233299074 L 1014.1485081209705 1314.4491264131552 A 2 2 0 0 1 1012.1485081209705 1316.4491264131552 L 455 1316.4491264131552 A 0 0 0 0 1 455 1316.4491264131552 L 455 1306.5601233299074 A 0 0 0 0 1 455 1306.5601233299074 Z"
              fill="#db4437" clip-path="url(#rablfilter0)"></path>
        <path d="M 1118.4285714285713 1329.1757451181911 A 2 2 0 0 1 1120.4285714285713 1331.1757451181911 L 1120.4285714285713 1337.0647482014388 A 2 2 0 0 1 1118.4285714285713 1339.0647482014388 L 455 1339.0647482014388 A 0 0 0 0 1 455 1339.0647482014388 L 455 1329.1757451181911 A 0 0 0 0 1 455 1329.1757451181911 Z"
              fill="#4285f4" clip-path="url(#rablfilter0)"></path>
        <path d="M 922.6971012457361 1340.0647482014388 A 2 2 0 0 1 924.6971012457361 1342.0647482014388 L 924.6971012457361 1347.9537512846866 A 2 2 0 0 1 922.6971012457361 1349.9537512846866 L 455 1349.9537512846866 A 0 0 0 0 1 455 1349.9537512846866 L 455 1340.0647482014388 A 0 0 0 0 1 455 1340.0647482014388 Z"
              fill="#db4437" clip-path="url(#rablfilter0)"></path>
        <path d="M 1118.4285714285713 1362.6803699897223 A 2 2 0 0 1 1120.4285714285713 1364.6803699897223 L 1120.4285714285713 1370.5693730729702 A 2 2 0 0 1 1118.4285714285713 1372.5693730729702 L 455 1372.5693730729702 A 0 0 0 0 1 455 1372.5693730729702 L 455 1362.6803699897223 A 0 0 0 0 1 455 1362.6803699897223 Z"
              fill="#4285f4" clip-path="url(#rablfilter0)"></path>
        <path d="M 954.2072534342062 1373.5693730729702 A 2 2 0 0 1 956.2072534342062 1375.5693730729702 L 956.2072534342062 1381.458376156218 A 2 2 0 0 1 954.2072534342062 1383.458376156218 L 455 1383.458376156218 A 0 0 0 0 1 455 1383.458376156218 L 455 1373.5693730729702 A 0 0 0 0 1 455 1373.5693730729702 Z"
              fill="#db4437" clip-path="url(#rablfilter0)"></path>
        <path d="M 1118.4285714285713 1396.1849948612537 A 2 2 0 0 1 1120.4285714285713 1398.1849948612537 L 1120.4285714285713 1404.0739979445013 A 2 2 0 0 1 1118.4285714285713 1406.0739979445013 L 455 1406.0739979445013 A 0 0 0 0 1 455 1406.0739979445013 L 455 1396.1849948612537 A 0 0 0 0 1 455 1396.1849948612537 Z"
              fill="#4285f4" clip-path="url(#rablfilter0)"></path>
        <path d="M 1092.2556716852237 1407.0739979445013 A 2 2 0 0 1 1094.2556716852237 1409.0739979445013 L 1094.2556716852237 1414.9630010277492 A 2 2 0 0 1 1092.2556716852237 1416.9630010277492 L 455 1416.9630010277492 A 0 0 0 0 1 455 1416.9630010277492 L 455 1407.0739979445013 A 0 0 0 0 1 455 1407.0739979445013 Z"
              fill="#db4437" clip-path="url(#rablfilter0)"></path>
        <path d="M 1118.4285714285713 1429.689619732785 A 2 2 0 0 1 1120.4285714285713 1431.689619732785 L 1120.4285714285713 1437.5786228160327 A 2 2 0 0 1 1118.4285714285713 1439.5786228160327 L 455 1439.5786228160327 A 0 0 0 0 1 455 1439.5786228160327 L 455 1429.689619732785 A 0 0 0 0 1 455 1429.689619732785 Z"
              fill="#4285f4" clip-path="url(#rablfilter0)"></path>
        <path d="M 965.4319264635062 1440.5786228160327 A 2 2 0 0 1 967.4319264635062 1442.5786228160327 L 967.4319264635062 1448.4676258992806 A 2 2 0 0 1 965.4319264635062 1450.4676258992806 L 455 1450.4676258992806 A 0 0 0 0 1 455 1450.4676258992806 L 455 1440.5786228160327 A 0 0 0 0 1 455 1440.5786228160327 Z"
              fill="#db4437" clip-path="url(#rablfilter0)"></path>
        <path d="M 1118.4285714285713 1463.1942446043163 A 2 2 0 0 1 1120.4285714285713 1465.1942446043163 L 1120.4285714285713 1471.0832476875642 A 2 2 0 0 1 1118.4285714285713 1473.0832476875642 L 455 1473.0832476875642 A 0 0 0 0 1 455 1473.0832476875642 L 455 1463.1942446043163 A 0 0 0 0 1 455 1463.1942446043163 Z"
              fill="#4285f4" clip-path="url(#rablfilter0)"></path>
        <path d="M 961.7918471838967 1474.0832476875642 A 2 2 0 0 1 963.7918471838967 1476.0832476875642 L 963.7918471838967 1481.972250770812 A 2 2 0 0 1 961.7918471838967 1483.972250770812 L 455 1483.972250770812 A 0 0 0 0 1 455 1483.972250770812 L 455 1474.0832476875642 A 0 0 0 0 1 455 1474.0832476875642 Z"
              fill="#db4437" clip-path="url(#rablfilter0)"></path>
        <path d="M 1118.4285714285713 1496.6988694758477 A 2 2 0 0 1 1120.4285714285713 1498.6988694758477 L 1120.4285714285713 1504.5878725590956 A 2 2 0 0 1 1118.4285714285713 1506.5878725590956 L 455 1506.5878725590956 A 0 0 0 0 1 455 1506.5878725590956 L 455 1496.6988694758477 A 0 0 0 0 1 455 1496.6988694758477 Z"
              fill="#4285f4" clip-path="url(#rablfilter0)"></path>
        <path d="M 983.6319235756872 1507.5878725590956 A 2 2 0 0 1 985.6319235756872 1509.5878725590956 L 985.6319235756872 1515.4768756423432 A 2 2 0 0 1 983.6319235756872 1517.4768756423432 L 455 1517.4768756423432 A 0 0 0 0 1 455 1517.4768756423432 L 455 1507.5878725590956 A 0 0 0 0 1 455 1507.5878725590956 Z"
              fill="#db4437" clip-path="url(#rablfilter0)"></path>
        <path d="M 1118.4285714285713 1530.203494347379 A 2 2 0 0 1 1120.4285714285713 1532.203494347379 L 1120.4285714285713 1538.0924974306267 A 2 2 0 0 1 1118.4285714285713 1540.0924974306267 L 455 1540.0924974306267 A 0 0 0 0 1 455 1540.0924974306267 L 455 1530.203494347379 A 0 0 0 0 1 455 1530.203494347379 Z"
              fill="#4285f4" clip-path="url(#rablfilter0)"></path>
        <path d="M 909.033952579147 1541.0924974306267 A 2 2 0 0 1 911.033952579147 1543.0924974306267 L 911.033952579147 1548.9815005138746 A 2 2 0 0 1 909.033952579147 1550.9815005138746 L 455 1550.9815005138746 A 0 0 0 0 1 455 1550.9815005138746 L 455 1541.0924974306267 A 0 0 0 0 1 455 1541.0924974306267 Z"
              fill="#db4437" clip-path="url(#rablfilter0)"></path>
        <path d="M 1118.4285714285713 1563.7081192189105 A 2 2 0 0 1 1120.4285714285713 1565.7081192189105 L 1120.4285714285713 1571.5971223021581 A 2 2 0 0 1 1118.4285714285713 1573.5971223021581 L 455 1573.5971223021581 A 0 0 0 0 1 455 1573.5971223021581 L 455 1563.7081192189105 A 0 0 0 0 1 455 1563.7081192189105 Z"
              fill="#4285f4" clip-path="url(#rablfilter0)"></path>
        <path d="M 1085.1329477537988 1574.5971223021581 A 2 2 0 0 1 1087.1329477537988 1576.5971223021581 L 1087.1329477537988 1582.486125385406 A 2 2 0 0 1 1085.1329477537988 1584.486125385406 L 455 1584.486125385406 A 0 0 0 0 1 455 1584.486125385406 L 455 1574.5971223021581 A 0 0 0 0 1 455 1574.5971223021581 Z"
              fill="#db4437" clip-path="url(#rablfilter0)"></path>
        <path d="M 1118.4285714285713 1597.2127440904417 A 2 2 0 0 1 1120.4285714285713 1599.2127440904417 L 1120.4285714285713 1605.1017471736895 A 2 2 0 0 1 1118.4285714285713 1607.1017471736895 L 455 1607.1017471736895 A 0 0 0 0 1 455 1607.1017471736895 L 455 1597.2127440904417 A 0 0 0 0 1 455 1597.2127440904417 Z"
              fill="#4285f4" clip-path="url(#rablfilter0)"></path>
        <path d="M 721.751574884533 1608.1017471736895 A 2 2 0 0 1 723.751574884533 1610.1017471736895 L 723.751574884533 1615.9907502569374 A 2 2 0 0 1 721.751574884533 1617.9907502569374 L 455 1617.9907502569374 A 0 0 0 0 1 455 1617.9907502569374 L 455 1608.1017471736895 A 0 0 0 0 1 455 1608.1017471736895 Z"
              fill="#db4437" clip-path="url(#rablfilter0)"></path>
        <path d="M 1118.4285714285713 1630.717368961973 A 2 2 0 0 1 1120.4285714285713 1632.717368961973 L 1120.4285714285713 1638.606372045221 A 2 2 0 0 1 1118.4285714285713 1640.606372045221 L 455 1640.606372045221 A 0 0 0 0 1 455 1640.606372045221 L 455 1630.717368961973 A 0 0 0 0 1 455 1630.717368961973 Z"
              fill="#4285f4" clip-path="url(#rablfilter0)"></path>
        <path d="M 813.469287564252 1641.606372045221 A 2 2 0 0 1 815.469287564252 1643.606372045221 L 815.469287564252 1649.4953751284686 A 2 2 0 0 1 813.469287564252 1651.4953751284686 L 455 1651.4953751284686 A 0 0 0 0 1 455 1651.4953751284686 L 455 1641.606372045221 A 0 0 0 0 1 455 1641.606372045221 Z"
              fill="#db4437" clip-path="url(#rablfilter0)"></path>
        <path d="M 1118.4285714285713 1664.2219938335045 A 2 2 0 0 1 1120.4285714285713 1666.2219938335045 L 1120.4285714285713 1672.1109969167524 A 2 2 0 0 1 1118.4285714285713 1674.1109969167524 L 455 1674.1109969167524 A 0 0 0 0 1 455 1674.1109969167524 L 455 1664.2219938335045 A 0 0 0 0 1 455 1664.2219938335045 Z"
              fill="#4285f4" clip-path="url(#rablfilter0)"></path>
        <path d="M 1045.548028724816 1675.1109969167524 A 2 2 0 0 1 1047.548028724816 1677.1109969167524 L 1047.548028724816 1683 A 2 2 0 0 1 1045.548028724816 1685 L 455 1685 A 0 0 0 0 1 455 1685 L 455 1675.1109969167524 A 0 0 0 0 1 455 1675.1109969167524 Z"
              fill="#db4437" clip-path="url(#rablfilter0)"></path>
    </g>
    <g></g>
    <g>
        <text x="454.5" y="1714.5"
              style="cursor: default; user-select: none; -webkit-font-smoothing: antialiased; font-family: Roboto; font-size: 12px;"
              fill="#757575" dx="-3.37109375px">0
        </text>
        <text x="587.7857142857142" y="1714.5"
              style="cursor: default; user-select: none; -webkit-font-smoothing: antialiased; font-family: Roboto; font-size: 12px;"
              fill="#757575" dx="-8.3203125px">0.2
        </text>
        <text x="721.0714285714286" y="1714.5"
              style="cursor: default; user-select: none; -webkit-font-smoothing: antialiased; font-family: Roboto; font-size: 12px;"
              fill="#757575" dx="-8.3203125px">0.4
        </text>
        <text x="854.3571428571429" y="1714.5"
              style="cursor: default; user-select: none; -webkit-font-smoothing: antialiased; font-family: Roboto; font-size: 12px;"
              fill="#757575" dx="-8.3203125px">0.6
        </text>
        <text x="987.6428571428571" y="1714.5"
              style="cursor: default; user-select: none; -webkit-font-smoothing: antialiased; font-family: Roboto; font-size: 12px;"
              fill="#757575" dx="-8.3203125px">0.8
        </text>
        <text x="1120.9285714285713" y="1714.5"
              style="cursor: default; user-select: none; -webkit-font-smoothing: antialiased; font-family: Roboto; font-size: 12px;"
              fill="#757575" dx="-3.37109375px">1
        </text>
        <text x="1254.2142857142858" y="1714.5"
              style="cursor: default; user-select: none; -webkit-font-smoothing: antialiased; font-family: Roboto; font-size: 12px;"
              fill="#757575" dx="-8.3203125px">1.2
        </text>
        <text x="1387.5" y="1714.5"
              style="cursor: default; user-select: none; -webkit-font-smoothing: antialiased; font-family: Roboto; font-size: 12px;"
              fill="#757575" dx="-8.3203125px">1.4
        </text>
        <text x="923.474609375" y="1746.5"
              style="cursor: default; user-select: none; -webkit-font-smoothing: antialiased; font-family: Roboto; font-size: 12px;"
              fill="#424242" dx="-33.62109375px">Render Time
        </text>
        <text x="448.5" y="70.38900622753053"
              style="cursor: default; user-select: none; -webkit-font-smoothing: antialiased; font-family: Roboto; font-size: 12px;"
              fill="#757575" dx="-282.1171875px">Blenderman-Camera_001-ambient_occlusion-embree
        </text>
        <text x="448.5" y="103.89362492811273"
              style="cursor: default; user-select: none; -webkit-font-smoothing: antialiased; font-family: Roboto; font-size: 12px;"
              fill="#757575" dx="-214.8203125px">Blenderman-Camera_001-debug-embree
        </text>
        <text x="448.5" y="137.3982512580895"
              style="cursor: default; user-select: none; -webkit-font-smoothing: antialiased; font-family: Roboto; font-size: 12px;"
              fill="#757575" dx="-271.21875px">CornellBox-render_cam-ambient_occlusion-embree
        </text>
        <text x="448.5" y="170.90287758806625"
              style="cursor: default; user-select: none; -webkit-font-smoothing: antialiased; font-family: Roboto; font-size: 12px;"
              fill="#757575" dx="-223.4765625px">CornellBox-render_cam-raytracing-embree
        </text>
        <text x="448.5" y="204.407503918043"
              style="cursor: default; user-select: none; -webkit-font-smoothing: antialiased; font-family: Roboto; font-size: 12px;"
              fill="#757575" dx="-307.4453125px">HsdLogo-render_cam_1Shape-ambient_occlusion-embree
        </text>
        <text x="448.5" y="237.91213024801976"
              style="cursor: default; user-select: none; -webkit-font-smoothing: antialiased; font-family: Roboto; font-size: 12px;"
              fill="#757575" dx="-259.7109375px">HsdLogo-render_cam_1Shape-raytracing-embree
        </text>
        <text x="448.5" y="271.41675657799647"
              style="cursor: default; user-select: none; -webkit-font-smoothing: antialiased; font-family: Roboto; font-size: 12px;"
              fill="#757575" dx="-307.4453125px">HsdLogo-render_cam_2Shape-ambient_occlusion-embree
        </text>
        <text x="448.5" y="304.92136764918416"
              style="cursor: default; user-select: none; -webkit-font-smoothing: antialiased; font-family: Roboto; font-size: 12px;"
              fill="#757575" dx="-259.7109375px">HsdLogo-render_cam_2Shape-raytracing-embree
        </text>
        <text x="448.5" y="338.42600923795"
              style="cursor: default; user-select: none; -webkit-font-smoothing: antialiased; font-family: Roboto; font-size: 12px;"
              fill="#757575" dx="-307.4453125px">HsdLogo-render_cam_3Shape-ambient_occlusion-embree
        </text>
        <text x="448.5" y="371.93062030913757"
              style="cursor: default; user-select: none; -webkit-font-smoothing: antialiased; font-family: Roboto; font-size: 12px;"
              fill="#757575" dx="-259.7109375px">HsdLogo-render_cam_3Shape-raytracing-embree
        </text>
        <text x="448.5" y="405.4352618979034"
              style="cursor: default; user-select: none; -webkit-font-smoothing: antialiased; font-family: Roboto; font-size: 12px;"
              fill="#757575" dx="-307.4453125px">HsdLogo-render_cam_4Shape-ambient_occlusion-embree
        </text>
        <text x="448.5" y="438.9398729690911"
              style="cursor: default; user-select: none; -webkit-font-smoothing: antialiased; font-family: Roboto; font-size: 12px;"
              fill="#757575" dx="-259.7109375px">HsdLogo-render_cam_4Shape-raytracing-embree
        </text>
        <text x="448.5" y="472.4445145578569"
              style="cursor: default; user-select: none; -webkit-font-smoothing: antialiased; font-family: Roboto; font-size: 12px;"
              fill="#757575" dx="-307.4453125px">HsdLogo-render_cam_5Shape-ambient_occlusion-embree
        </text>
        <text x="448.5" y="505.9491256290446"
              style="cursor: default; user-select: none; -webkit-font-smoothing: antialiased; font-family: Roboto; font-size: 12px;"
              fill="#757575" dx="-259.7109375px">HsdLogo-render_cam_5Shape-raytracing-embree
        </text>
        <text x="448.5" y="539.4537672178103"
              style="cursor: default; user-select: none; -webkit-font-smoothing: antialiased; font-family: Roboto; font-size: 12px;"
              fill="#757575" dx="-381.578125px">Intel_mooreLane-MASTER_cameraExtended-ambient_occlusion-embree
        </text>
        <text x="448.5" y="572.9583782889981"
              style="cursor: default; user-select: none; -webkit-font-smoothing: antialiased; font-family: Roboto; font-size: 12px;"
              fill="#757575" dx="-304.953125px">Intel_mooreLane-MorrisStone-ambient_occlusion-embree
        </text>
        <text x="448.5" y="606.4629893601857"
              style="cursor: default; user-select: none; -webkit-font-smoothing: antialiased; font-family: Roboto; font-size: 12px;"
              fill="#757575" dx="-415.1640625px">Intel_Sponza_Candles_Thin_Lens-PhysCamera002-ambient_occlusion-embree
        </text>
        <text x="448.5" y="639.9676004313735"
              style="cursor: default; user-select: none; -webkit-font-smoothing: antialiased; font-family: Roboto; font-size: 12px;"
              fill="#757575" dx="-367.4296875px">Intel_Sponza_Candles_Thin_Lens-PhysCamera002-raytracing-embree
        </text>
        <text x="448.5" y="673.4722725377173"
              style="cursor: default; user-select: none; -webkit-font-smoothing: antialiased; font-family: Roboto; font-size: 12px;"
              fill="#757575" dx="-415.1640625px">Intel_Sponza_Candles_Thin_Lens-PhysCamera004-ambient_occlusion-embree
        </text>
        <text x="448.5" y="706.9768836089052"
              style="cursor: default; user-select: none; -webkit-font-smoothing: antialiased; font-family: Roboto; font-size: 12px;"
              fill="#757575" dx="-367.4296875px">Intel_Sponza_Candles_Thin_Lens-PhysCamera004-raytracing-embree
        </text>
        <text x="448.5" y="740.4814946800927"
              style="cursor: default; user-select: none; -webkit-font-smoothing: antialiased; font-family: Roboto; font-size: 12px;"
              fill="#757575" dx="-306.8125px">Intel_Sponza-PhysCamera001-ambient_occlusion-embree
        </text>
        <text x="448.5" y="773.9861057512803"
              style="cursor: default; user-select: none; -webkit-font-smoothing: antialiased; font-family: Roboto; font-size: 12px;"
              fill="#757575" dx="-259.078125px">Intel_Sponza-PhysCamera001-raytracing-embree
        </text>
        <text x="448.5" y="807.4907778576244"
              style="cursor: default; user-select: none; -webkit-font-smoothing: antialiased; font-family: Roboto; font-size: 12px;"
              fill="#757575" dx="-306.8125px">Intel_Sponza-PhysCamera002-ambient_occlusion-embree
        </text>
        <text x="448.5" y="840.995388928812"
              style="cursor: default; user-select: none; -webkit-font-smoothing: antialiased; font-family: Roboto; font-size: 12px;"
              fill="#757575" dx="-259.078125px">Intel_Sponza-PhysCamera002-raytracing-embree
        </text>
        <text x="448.5" y="874.4999999999998"
              style="cursor: default; user-select: none; -webkit-font-smoothing: antialiased; font-family: Roboto; font-size: 12px;"
              fill="#757575" dx="-306.8125px">Intel_Sponza-PhysCamera003-ambient_occlusion-embree
        </text>
        <text x="448.5" y="908.0046110711874"
              style="cursor: default; user-select: none; -webkit-font-smoothing: antialiased; font-family: Roboto; font-size: 12px;"
              fill="#757575" dx="-259.078125px">Intel_Sponza-PhysCamera003-raytracing-embree
        </text>
        <text x="448.5" y="941.5092221423752"
              style="cursor: default; user-select: none; -webkit-font-smoothing: antialiased; font-family: Roboto; font-size: 12px;"
              fill="#757575" dx="-306.8125px">Intel_Sponza-PhysCamera004-ambient_occlusion-embree
        </text>
        <text x="448.5" y="975.013894248719"
              style="cursor: default; user-select: none; -webkit-font-smoothing: antialiased; font-family: Roboto; font-size: 12px;"
              fill="#757575" dx="-259.078125px">Intel_Sponza-PhysCamera004-raytracing-embree
        </text>
        <text x="448.5" y="1008.5185053199068"
              style="cursor: default; user-select: none; -webkit-font-smoothing: antialiased; font-family: Roboto; font-size: 12px;"
              fill="#757575" dx="-306.8125px">Intel_Sponza-PhysCamera005-ambient_occlusion-embree
        </text>
        <text x="448.5" y="1042.0231774262506"
              style="cursor: default; user-select: none; -webkit-font-smoothing: antialiased; font-family: Roboto; font-size: 12px;"
              fill="#757575" dx="-259.078125px">Intel_Sponza-PhysCamera005-raytracing-embree
        </text>
        <text x="448.5" y="1075.5277884974385"
              style="cursor: default; user-select: none; -webkit-font-smoothing: antialiased; font-family: Roboto; font-size: 12px;"
              fill="#757575" dx="-306.8125px">Intel_Sponza-PhysCamera006-ambient_occlusion-embree
        </text>
        <text x="448.5" y="1109.0323995686258"
              style="cursor: default; user-select: none; -webkit-font-smoothing: antialiased; font-family: Roboto; font-size: 12px;"
              fill="#757575" dx="-259.078125px">Intel_Sponza-PhysCamera006-raytracing-embree
        </text>
        <text x="448.5" y="1142.537010639814"
              style="cursor: default; user-select: none; -webkit-font-smoothing: antialiased; font-family: Roboto; font-size: 12px;"
              fill="#757575" dx="-337.5703125px">OpenChessSet-render_cam_1Shape-ambient_occlusion-embree
        </text>
        <text x="448.5" y="1176.0416217110014"
              style="cursor: default; user-select: none; -webkit-font-smoothing: antialiased; font-family: Roboto; font-size: 12px;"
              fill="#757575" dx="-289.828125px">OpenChessSet-render_cam_1Shape-raytracing-embree
        </text>
        <text x="448.5" y="1209.5462327821892"
              style="cursor: default; user-select: none; -webkit-font-smoothing: antialiased; font-family: Roboto; font-size: 12px;"
              fill="#757575" dx="-337.5703125px">OpenChessSet-render_cam_2Shape-ambient_occlusion-embree
        </text>
        <text x="448.5" y="1243.050843853377"
              style="cursor: default; user-select: none; -webkit-font-smoothing: antialiased; font-family: Roboto; font-size: 12px;"
              fill="#757575" dx="-289.828125px">OpenChessSet-render_cam_2Shape-raytracing-embree
        </text>
        <text x="448.5" y="1276.5554549245644"
              style="cursor: default; user-select: none; -webkit-font-smoothing: antialiased; font-family: Roboto; font-size: 12px;"
              fill="#757575" dx="-337.5703125px">OpenChessSet-render_cam_3Shape-ambient_occlusion-embree
        </text>
        <text x="448.5" y="1310.0600659957522"
              style="cursor: default; user-select: none; -webkit-font-smoothing: antialiased; font-family: Roboto; font-size: 12px;"
              fill="#757575" dx="-289.828125px">OpenChessSet-render_cam_3Shape-raytracing-embree
        </text>
        <text x="448.5" y="1343.5647991372525"
              style="cursor: default; user-select: none; -webkit-font-smoothing: antialiased; font-family: Roboto; font-size: 12px;"
              fill="#757575" dx="-337.5703125px">OpenChessSet-render_cam_4Shape-ambient_occlusion-embree
        </text>
        <text x="448.5" y="1377.0694102084403"
              style="cursor: default; user-select: none; -webkit-font-smoothing: antialiased; font-family: Roboto; font-size: 12px;"
              fill="#757575" dx="-289.828125px">OpenChessSet-render_cam_4Shape-raytracing-embree
        </text>
        <text x="448.5" y="1410.5740212796277"
              style="cursor: default; user-select: none; -webkit-font-smoothing: antialiased; font-family: Roboto; font-size: 12px;"
              fill="#757575" dx="-337.5703125px">OpenChessSet-render_cam_5Shape-ambient_occlusion-embree
        </text>
        <text x="448.5" y="1444.0786323508155"
              style="cursor: default; user-select: none; -webkit-font-smoothing: antialiased; font-family: Roboto; font-size: 12px;"
              fill="#757575" dx="-289.828125px">OpenChessSet-render_cam_5Shape-raytracing-embree
        </text>
        <text x="448.5" y="1477.5832434220033"
              style="cursor: default; user-select: none; -webkit-font-smoothing: antialiased; font-family: Roboto; font-size: 12px;"
              fill="#757575" dx="-337.5703125px">OpenChessSet-render_cam_6Shape-ambient_occlusion-embree
        </text>
        <text x="448.5" y="1511.0878544931911"
              style="cursor: default; user-select: none; -webkit-font-smoothing: antialiased; font-family: Roboto; font-size: 12px;"
              fill="#757575" dx="-289.828125px">OpenChessSet-render_cam_6Shape-raytracing-embree
        </text>
        <text x="448.5" y="1544.5924655643785"
              style="cursor: default; user-select: none; -webkit-font-smoothing: antialiased; font-family: Roboto; font-size: 12px;"
              fill="#757575" dx="-337.5703125px">OpenChessSet-render_cam_7Shape-ambient_occlusion-embree
        </text>
        <text x="448.5" y="1578.0970766355663"
              style="cursor: default; user-select: none; -webkit-font-smoothing: antialiased; font-family: Roboto; font-size: 12px;"
              fill="#757575" dx="-289.828125px">OpenChessSet-render_cam_7Shape-raytracing-embree
        </text>
        <text x="448.5" y="1611.601687706754"
              style="cursor: default; user-select: none; -webkit-font-smoothing: antialiased; font-family: Roboto; font-size: 12px;"
              fill="#757575" dx="-287.40625px">StormTrooper-render_cam-ambient_occlusion-embree
        </text>
        <text x="448.5" y="1645.1064208482544"
              style="cursor: default; user-select: none; -webkit-font-smoothing: antialiased; font-family: Roboto; font-size: 12px;"
              fill="#757575" dx="-220.109375px">StormTrooper-render_cam-debug-embree
        </text>
        <text x="448.5" y="1678.6110319194422"
              style="cursor: default; user-select: none; -webkit-font-smoothing: antialiased; font-family: Roboto; font-size: 12px;"
              fill="#757575" dx="-239.671875px">StormTrooper-render_cam-raytracing-embree
        </text>
        <text x="15.3359375" y="867.5"
              style="cursor: default; user-select: none; -webkit-font-smoothing: antialiased; font-family: Roboto; font-size: 12px;"
              fill="#424242" dx="-16.37109375px" transform="rotate(-90 15.3359375 870.5)">Scene
        </text>
    </g>
    <g></g>
    <g></g>
    <g></g>
</svg>