<svg xmlns="http://www.w3.org/2000/svg"  width="1536" height="1750">
    <defs>
        <filter x="-100%" y="-100%" width="300%" height="300%" id="rablfilter5">
            <feGaussianBlur in="SourceAlpha" stdDeviation="2"></feGaussianBlur>
            <feOffset dx="0" dy="0"></feOffset>
            <feComponentTransfer>
                <feFuncA type="linear" slope="0"></feFuncA>
            </feComponentTransfer>
            <feMerge>
                <feMergeNode></feMergeNode>
                <feMergeNode in="SourceGraphic"></feMergeNode>
            </feMerge>
        </filter>
        <filter x="-100%" y="-100%" width="300%" height="300%" id="rablfilter4">
            <feGaussianBlur in="SourceAlpha" stdDeviation="2"></feGaussianBlur>
            <feOffset dx="0" dy="0"></feOffset>
            <feComponentTransfer>
                <feFuncA type="linear" slope="0.4"></feFuncA>
            </feComponentTransfer>
            <feMerge>
                <feMergeNode></feMergeNode>
                <feMergeNode in="SourceGraphic"></feMergeNode>
            </feMerge>
        </filter>
        <filter x="-100%" y="-100%" width="300%" height="300%" id="rablfilter3">
            <feGaussianBlur in="SourceAlpha" stdDeviation="1"></feGaussianBlur>
            <feOffset dx="0" dy="2"></feOffset>
            <feComponentTransfer>
                <feFuncA type="linear" slope="0.2"></feFuncA>
            </feComponentTransfer>
            <feMerge>
                <feMergeNode></feMergeNode>
                <feMergeNode in="SourceGraphic"></feMergeNode>
            </feMerge>
        </filter>
        <filter x="-100%" y="-100%" width="300%" height="300%" id="rablfilter2">
            <feGaussianBlur in="SourceAlpha" stdDeviation="2"></feGaussianBlur>
            <feOffset dx="0" dy="1"></feOffset>
            <feComponentTransfer>
                <feFuncA type="linear" slope="0.4"></feFuncA>
            </feComponentTransfer>
            <feMerge>
                <feMergeNode></feMergeNode>
                <feMergeNode in="SourceGraphic"></feMergeNode>
            </feMerge>
        </filter>
        <filter x="-100%" y="-100%" width="300%" height="300%" id="rablfilter1">
            <feGaussianBlur in="SourceAlpha" stdDeviation="0"></feGaussianBlur>
            <feOffset dx="0" dy="1"></feOffset>
            <feComponentTransfer>
                <feFuncA type="linear" slope="0.4"></feFuncA>
            </feComponentTransfer>
            <feMerge>
                <feMergeNode></feMergeNode>
                <feMergeNode in="SourceGraphic"></feMergeNode>
            </feMerge>
        </filter>
        <clipPath id="rablfilter0">
            <rect x="454.5" y="55.5" width="929" height="1642"></rect>
        </clipPath>
    </defs>
    <g>
        <rect x="0" y="0" width="1536" height="1750" fill="#ffffff" fill-opacity="1" stroke="#ffffff" stroke-opacity="0"
              stroke-width="0"></rect>
        <text x="0" y="15"
              style="cursor: default; user-select: none; -webkit-font-smoothing: antialiased; font-family: Roboto; font-size: 16px;"
              fill="#757575" dx="0px">Benchmark
        </text>
        <rect x="1436.171875" y="55.5" width="12" height="12" rx="2" ry="2" fill="#4285f4"></rect>
        <text x="1456.171875" y="68.5"
              style="cursor: default; user-select: none; -webkit-font-smoothing: antialiased; font-family: Roboto;"
              fill="#757575" dx="0px">Baseline
        </text>
        <rect x="1436.171875" y="88" width="12" height="12" rx="2" ry="2" fill="#db4437"></rect>
        <text x="1456.171875" y="101"
              style="cursor: default; user-select: none; -webkit-font-smoothing: antialiased; font-family: Roboto;"
              fill="#757575" dx="0px">New revision
        </text>
        <rect x="454.5" y="55.5" width="929" height="1642" fill="#ffffff" fill-opacity="1" stroke="#ffffff"
              stroke-opacity="0" stroke-width="1"></rect>
    </g>
    <g>
        <line x1="454.5" x2="454.5" y1="55.5" y2="1697.5" stroke="#9E9E9E" stroke-width="1"></line>
        <line x1="557.7222222222222" x2="557.7222222222222" y1="55.5" y2="1697.5" stroke="#E0E0E0"
              stroke-width="1"></line>
        <line x1="660.9444444444445" x2="660.9444444444445" y1="55.5" y2="1697.5" stroke="#E0E0E0"
              stroke-width="1"></line>
        <line x1="764.1666666666666" x2="764.1666666666666" y1="55.5" y2="1697.5" stroke="#E0E0E0"
              stroke-width="1"></line>
        <line x1="867.3888888888889" x2="867.3888888888889" y1="55.5" y2="1697.5" stroke="#E0E0E0"
              stroke-width="1"></line>
        <line x1="970.6111111111111" x2="970.6111111111111" y1="55.5" y2="1697.5" stroke="#E0E0E0"
              stroke-width="1"></line>
        <line x1="1073.8333333333333" x2="1073.8333333333333" y1="55.5" y2="1697.5" stroke="#E0E0E0"
              stroke-width="1"></line>
        <line x1="1177.0555555555557" x2="1177.0555555555557" y1="55.5" y2="1697.5" stroke="#E0E0E0"
              stroke-width="1"></line>
        <line x1="1280.2777777777778" x2="1280.2777777777778" y1="55.5" y2="1697.5" stroke="#E0E0E0"
              stroke-width="1"></line>
        <line x1="1383.5" x2="1383.5" y1="55.5" y2="1697.5" stroke="#E0E0E0" stroke-width="1"></line>
    </g>
    <g>
        <path d="M 555.6182896048889 56 A 2 2 0 0 1 557.6182896048889 58 L 557.6182896048889 63.88900308324769 A 2 2 0 0 1 555.6182896048889 65.88900308324769 L 455 65.88900308324769 A 0 0 0 0 1 455 65.88900308324769 L 455 56 A 0 0 0 0 1 455 56 Z"
              fill="#4285f4" clip-path="url(#rablfilter0)"></path>
        <path d="M 522.2898245866667 66.88900308324769 A 2 2 0 0 1 524.2898245866667 68.88900308324769 L 524.2898245866667 74.77800616649537 A 2 2 0 0 1 522.2898245866667 76.77800616649537 L 455 76.77800616649537 A 0 0 0 0 1 455 76.77800616649537 L 455 66.88900308324769 A 0 0 0 0 1 455 66.88900308324769 Z"
              fill="#db4437" clip-path="url(#rablfilter0)"></path>
        <path d="M 482.8387819717778 89.50462487153135 A 2 2 0 0 1 484.8387819717778 91.50462487153135 L 484.8387819717778 97.39362795477902 A 2 2 0 0 1 482.8387819717778 99.39362795477902 L 455 99.39362795477902 A 0 0 0 0 1 455 99.39362795477902 L 455 89.50462487153135 A 0 0 0 0 1 455 89.50462487153135 Z"
              fill="#4285f4" clip-path="url(#rablfilter0)"></path>
        <path d="M 465.8578546013333 100.39362795477902 A 2 2 0 0 1 467.8578546013333 102.39362795477902 L 467.8578546013333 108.28263103802672 A 2 2 0 0 1 465.8578546013333 110.28263103802672 L 455 110.28263103802672 A 0 0 0 0 1 455 110.28263103802672 L 455 100.39362795477902 A 0 0 0 0 1 455 100.39362795477902 Z"
              fill="#db4437" clip-path="url(#rablfilter0)"></path>
        <path d="M 526.0743484524445 123.00924974306268 A 2 2 0 0 1 528.0743484524445 125.00924974306268 L 528.0743484524445 130.89825282631037 A 2 2 0 0 1 526.0743484524445 132.89825282631037 L 455 132.89825282631037 A 0 0 0 0 1 455 132.89825282631037 L 455 123.00924974306268 A 0 0 0 0 1 455 123.00924974306268 Z"
              fill="#4285f4" clip-path="url(#rablfilter0)"></path>
        <path d="M 460.2269927822222 133.89825282631037 A 2 2 0 0 1 462.2269927822222 135.89825282631037 L 462.2269927822222 141.78725590955807 A 2 2 0 0 1 460.2269927822222 143.78725590955807 L 455 143.78725590955807 A 0 0 0 0 1 455 143.78725590955807 L 455 133.89825282631037 A 0 0 0 0 1 455 133.89825282631037 Z"
              fill="#db4437" clip-path="url(#rablfilter0)"></path>
        <path d="M 559.8087113248889 156.51387461459404 A 2 2 0 0 1 561.8087113248889 158.51387461459404 L 561.8087113248889 164.40287769784172 A 2 2 0 0 1 559.8087113248889 166.40287769784172 L 455 166.40287769784172 A 0 0 0 0 1 455 166.40287769784172 L 455 156.51387461459404 A 0 0 0 0 1 455 156.51387461459404 Z"
              fill="#4285f4" clip-path="url(#rablfilter0)"></path>
        <path d="M 528.3316537097778 167.40287769784172 A 2 2 0 0 1 530.3316537097778 169.40287769784172 L 530.3316537097778 175.29188078108942 A 2 2 0 0 1 528.3316537097778 177.29188078108942 L 455 177.29188078108942 A 0 0 0 0 1 455 177.29188078108942 L 455 167.40287769784172 A 0 0 0 0 1 455 167.40287769784172 Z"
              fill="#db4437" clip-path="url(#rablfilter0)"></path>
        <path d="M 500.49152663377777 190.01849948612536 A 2 2 0 0 1 502.49152663377777 192.01849948612536 L 502.49152663377777 197.90750256937307 A 2 2 0 0 1 500.49152663377777 199.90750256937307 L 455 199.90750256937307 A 0 0 0 0 1 455 199.90750256937307 L 455 190.01849948612536 A 0 0 0 0 1 455 190.01849948612536 Z"
              fill="#4285f4" clip-path="url(#rablfilter0)"></path>
        <path d="M 482.9988771611111 200.90750256937307 A 2 2 0 0 1 484.9988771611111 202.90750256937307 L 484.9988771611111 208.79650565262074 A 2 2 0 0 1 482.9988771611111 210.79650565262074 L 455 210.79650565262074 A 0 0 0 0 1 455 210.79650565262074 L 455 200.90750256937307 A 0 0 0 0 1 455 200.90750256937307 Z"
              fill="#db4437" clip-path="url(#rablfilter0)"></path>
        <path d="M 505.5606079082222 223.5231243576567 A 2 2 0 0 1 507.5606079082222 225.5231243576567 L 507.5606079082222 231.4121274409044 A 2 2 0 0 1 505.5606079082222 233.4121274409044 L 455 233.4121274409044 A 0 0 0 0 1 455 233.4121274409044 L 455 223.5231243576567 A 0 0 0 0 1 455 223.5231243576567 Z"
              fill="#4285f4" clip-path="url(#rablfilter0)"></path>
        <path d="M 488.13124088333336 234.4121274409044 A 2 2 0 0 1 490.13124088333336 236.4121274409044 L 490.13124088333336 242.3011305241521 A 2 2 0 0 1 488.13124088333336 244.3011305241521 L 455 244.3011305241521 A 0 0 0 0 1 455 244.3011305241521 L 455 234.4121274409044 A 0 0 0 0 1 455 234.4121274409044 Z"
              fill="#db4437" clip-path="url(#rablfilter0)"></path>
        <path d="M 508.0353154746667 257.0277492291881 A 2 2 0 0 1 510.0353154746667 259.0277492291881 L 510.0353154746667 264.91675231243573 A 2 2 0 0 1 508.0353154746667 266.91675231243573 L 455 266.91675231243573 A 0 0 0 0 1 455 266.91675231243573 L 455 257.0277492291881 A 0 0 0 0 1 455 257.0277492291881 Z"
              fill="#4285f4" clip-path="url(#rablfilter0)"></path>
        <path d="M 494.11251407044443 267.91675231243573 A 2 2 0 0 1 496.11251407044443 269.91675231243573 L 496.11251407044443 275.80575539568343 A 2 2 0 0 1 494.11251407044443 277.80575539568343 L 455 277.80575539568343 A 0 0 0 0 1 455 277.80575539568343 L 455 267.91675231243573 A 0 0 0 0 1 455 267.91675231243573 Z"
              fill="#db4437" clip-path="url(#rablfilter0)"></path>
        <path d="M 511.11177763 290.5323741007194 A 2 2 0 0 1 513.11177763 292.5323741007194 L 513.11177763 298.4213771839671 A 2 2 0 0 1 511.11177763 300.4213771839671 L 455 300.4213771839671 A 0 0 0 0 1 455 300.4213771839671 L 455 290.5323741007194 A 0 0 0 0 1 455 290.5323741007194 Z"
              fill="#4285f4" clip-path="url(#rablfilter0)"></path>
        <path d="M 495.454725632 301.4213771839671 A 2 2 0 0 1 497.454725632 303.4213771839671 L 497.454725632 309.3103802672148 A 2 2 0 0 1 495.454725632 311.3103802672148 L 455 311.3103802672148 A 0 0 0 0 1 455 311.3103802672148 L 455 301.4213771839671 A 0 0 0 0 1 455 301.4213771839671 Z"
              fill="#db4437" clip-path="url(#rablfilter0)"></path>
        <path d="M 514.648441612 324.03699897225073 A 2 2 0 0 1 516.648441612 326.03699897225073 L 516.648441612 331.92600205549843 A 2 2 0 0 1 514.648441612 333.92600205549843 L 455 333.92600205549843 A 0 0 0 0 1 455 333.92600205549843 L 455 324.03699897225073 A 0 0 0 0 1 455 324.03699897225073 Z"
              fill="#4285f4" clip-path="url(#rablfilter0)"></path>
        <path d="M 502.18328476755556 334.92600205549843 A 2 2 0 0 1 504.18328476755556 336.92600205549843 L 504.18328476755556 342.8150051387461 A 2 2 0 0 1 502.18328476755556 344.8150051387461 L 455 344.8150051387461 A 0 0 0 0 1 455 344.8150051387461 L 455 334.92600205549843 A 0 0 0 0 1 455 334.92600205549843 Z"
              fill="#db4437" clip-path="url(#rablfilter0)"></path>
        <path d="M 511.6383829315555 357.5416238437821 A 2 2 0 0 1 513.6383829315555 359.5416238437821 L 513.6383829315555 365.4306269270297 A 2 2 0 0 1 511.6383829315555 367.4306269270297 L 455 367.4306269270297 A 0 0 0 0 1 455 367.4306269270297 L 455 357.5416238437821 A 0 0 0 0 1 455 357.5416238437821 Z"
              fill="#4285f4" clip-path="url(#rablfilter0)"></path>
        <path d="M 500.582424742 368.4306269270297 A 2 2 0 0 1 502.582424742 370.4306269270297 L 502.582424742 376.31963001027736 A 2 2 0 0 1 500.582424742 378.31963001027736 L 455 378.31963001027736 A 0 0 0 0 1 455 378.31963001027736 L 455 368.4306269270297 A 0 0 0 0 1 455 368.4306269270297 Z"
              fill="#db4437" clip-path="url(#rablfilter0)"></path>
        <path d="M 500.7358571433333 391.0462487153134 A 2 2 0 0 1 502.7358571433333 393.0462487153134 L 502.7358571433333 398.93525179856107 A 2 2 0 0 1 500.7358571433333 400.93525179856107 L 455 400.93525179856107 A 0 0 0 0 1 455 400.93525179856107 L 455 391.0462487153134 A 0 0 0 0 1 455 391.0462487153134 Z"
              fill="#4285f4" clip-path="url(#rablfilter0)"></path>
        <path d="M 488.7862602033333 401.93525179856107 A 2 2 0 0 1 490.7862602033333 403.93525179856107 L 490.7862602033333 409.8242548818087 A 2 2 0 0 1 488.7862602033333 411.8242548818087 L 455 411.8242548818087 A 0 0 0 0 1 455 411.8242548818087 L 455 401.93525179856107 A 0 0 0 0 1 455 401.93525179856107 Z"
              fill="#db4437" clip-path="url(#rablfilter0)"></path>
        <path d="M 504.0008751255556 424.5508735868448 A 2 2 0 0 1 506.0008751255556 426.5508735868448 L 506.0008751255556 432.4398766700924 A 2 2 0 0 1 504.0008751255556 434.4398766700924 L 455 434.4398766700924 A 0 0 0 0 1 455 434.4398766700924 L 455 424.5508735868448 A 0 0 0 0 1 455 424.5508735868448 Z"
              fill="#4285f4" clip-path="url(#rablfilter0)"></path>
        <path d="M 488.7635329408889 435.4398766700924 A 2 2 0 0 1 490.7635329408889 437.4398766700924 L 490.7635329408889 443.3288797533401 A 2 2 0 0 1 488.7635329408889 445.3288797533401 L 455 445.3288797533401 A 0 0 0 0 1 455 445.3288797533401 L 455 435.4398766700924 A 0 0 0 0 1 455 435.4398766700924 Z"
              fill="#db4437" clip-path="url(#rablfilter0)"></path>
        <path d="M 532.4412043282223 458.0554984583761 A 2 2 0 0 1 534.4412043282223 460.0554984583761 L 534.4412043282223 465.94450154162377 A 2 2 0 0 1 532.4412043282223 467.94450154162377 L 455 467.94450154162377 A 0 0 0 0 1 455 467.94450154162377 L 455 458.0554984583761 A 0 0 0 0 1 455 458.0554984583761 Z"
              fill="#4285f4" clip-path="url(#rablfilter0)"></path>
        <path d="M 526.469834694 468.94450154162377 A 2 2 0 0 1 528.469834694 470.94450154162377 L 528.469834694 476.83350462487147 A 2 2 0 0 1 526.469834694 478.83350462487147 L 455 478.83350462487147 A 0 0 0 0 1 455 478.83350462487147 L 455 468.94450154162377 A 0 0 0 0 1 455 468.94450154162377 Z"
              fill="#db4437" clip-path="url(#rablfilter0)"></path>
        <path d="M 530.5524509186666 491.5601233299074 A 2 2 0 0 1 532.5524509186666 493.5601233299074 L 532.5524509186666 499.4491264131551 A 2 2 0 0 1 530.5524509186666 501.4491264131551 L 455 501.4491264131551 A 0 0 0 0 1 455 501.4491264131551 L 455 491.5601233299074 A 0 0 0 0 1 455 491.5601233299074 Z"
              fill="#4285f4" clip-path="url(#rablfilter0)"></path>
        <path d="M 523.4274344268889 502.4491264131551 A 2 2 0 0 1 525.4274344268889 504.4491264131551 L 525.4274344268889 510.33812949640276 A 2 2 0 0 1 523.4274344268889 512.3381294964028 L 455 512.3381294964028 A 0 0 0 0 1 455 512.3381294964028 L 455 502.4491264131551 A 0 0 0 0 1 455 502.4491264131551 Z"
              fill="#db4437" clip-path="url(#rablfilter0)"></path>
        <path d="M 540.7259352862222 525.0647482014388 A 2 2 0 0 1 542.7259352862222 527.0647482014388 L 542.7259352862222 532.9537512846864 A 2 2 0 0 1 540.7259352862222 534.9537512846864 L 455 534.9537512846864 A 0 0 0 0 1 455 534.9537512846864 L 455 525.0647482014388 A 0 0 0 0 1 455 525.0647482014388 Z"
              fill="#4285f4" clip-path="url(#rablfilter0)"></path>
        <path d="M 476.98965614444444 535.9537512846864 A 2 2 0 0 1 478.98965614444444 537.9537512846864 L 478.98965614444444 543.8427543679342 A 2 2 0 0 1 476.98965614444444 545.8427543679342 L 455 545.8427543679342 A 0 0 0 0 1 455 545.8427543679342 L 455 535.9537512846864 A 0 0 0 0 1 455 535.9537512846864 Z"
              fill="#db4437" clip-path="url(#rablfilter0)"></path>
        <path d="M 515.2170701253333 558.5693730729702 A 2 2 0 0 1 517.2170701253333 560.5693730729702 L 517.2170701253333 566.4583761562178 A 2 2 0 0 1 515.2170701253333 568.4583761562178 L 455 568.4583761562178 A 0 0 0 0 1 455 568.4583761562178 L 455 558.5693730729702 A 0 0 0 0 1 455 558.5693730729702 Z"
              fill="#4285f4" clip-path="url(#rablfilter0)"></path>
        <path d="M 483.40976519044443 569.4583761562178 A 2 2 0 0 1 485.40976519044443 571.4583761562178 L 485.40976519044443 577.3473792394655 A 2 2 0 0 1 483.40976519044443 579.3473792394655 L 455 579.3473792394655 A 0 0 0 0 1 455 579.3473792394655 L 455 569.4583761562178 A 0 0 0 0 1 455 569.4583761562178 Z"
              fill="#db4437" clip-path="url(#rablfilter0)"></path>
        <path d="M 576.5555166571111 592.0739979445015 A 2 2 0 0 1 578.5555166571111 594.0739979445015 L 578.5555166571111 599.9630010277491 A 2 2 0 0 1 576.5555166571111 601.9630010277491 L 455 601.9630010277491 A 0 0 0 0 1 455 601.9630010277491 L 455 592.0739979445015 A 0 0 0 0 1 455 592.0739979445015 Z"
              fill="#4285f4" clip-path="url(#rablfilter0)"></path>
        <path d="M 490.7683772871111 602.9630010277491 A 2 2 0 0 1 492.7683772871111 604.9630010277491 L 492.7683772871111 610.8520041109969 A 2 2 0 0 1 490.7683772871111 612.8520041109969 L 455 612.8520041109969 A 0 0 0 0 1 455 612.8520041109969 L 455 602.9630010277491 A 0 0 0 0 1 455 602.9630010277491 Z"
              fill="#db4437" clip-path="url(#rablfilter0)"></path>
        <path d="M 617.0910069839999 625.5786228160329 A 2 2 0 0 1 619.0910069839999 627.5786228160329 L 619.0910069839999 633.4676258992805 A 2 2 0 0 1 617.0910069839999 635.4676258992805 L 455 635.4676258992805 A 0 0 0 0 1 455 635.4676258992805 L 455 625.5786228160329 A 0 0 0 0 1 455 625.5786228160329 Z"
              fill="#4285f4" clip-path="url(#rablfilter0)"></path>
        <path d="M 603.0656068197777 636.4676258992805 A 2 2 0 0 1 605.0656068197777 638.4676258992805 L 605.0656068197777 644.3566289825282 A 2 2 0 0 1 603.0656068197777 646.3566289825282 L 455 646.3566289825282 A 0 0 0 0 1 455 646.3566289825282 L 455 636.4676258992805 A 0 0 0 0 1 455 636.4676258992805 Z"
              fill="#db4437" clip-path="url(#rablfilter0)"></path>
        <path d="M 584.2866249291111 659.0832476875642 A 2 2 0 0 1 586.2866249291111 661.0832476875642 L 586.2866249291111 666.9722507708118 A 2 2 0 0 1 584.2866249291111 668.9722507708118 L 455 668.9722507708118 A 0 0 0 0 1 455 668.9722507708118 L 455 659.0832476875642 A 0 0 0 0 1 455 659.0832476875642 Z"
              fill="#4285f4" clip-path="url(#rablfilter0)"></path>
        <path d="M 477.698144782 669.9722507708118 A 2 2 0 0 1 479.698144782 671.9722507708118 L 479.698144782 677.8612538540594 A 2 2 0 0 1 477.698144782 679.8612538540594 L 455 679.8612538540594 A 0 0 0 0 1 455 679.8612538540594 L 455 669.9722507708118 A 0 0 0 0 1 455 669.9722507708118 Z"
              fill="#db4437" clip-path="url(#rablfilter0)"></path>
        <path d="M 628.6075724571111 692.5878725590956 A 2 2 0 0 1 630.6075724571111 694.5878725590956 L 630.6075724571111 700.4768756423432 A 2 2 0 0 1 628.6075724571111 702.4768756423432 L 455 702.4768756423432 A 0 0 0 0 1 455 702.4768756423432 L 455 692.5878725590956 A 0 0 0 0 1 455 692.5878725590956 Z"
              fill="#4285f4" clip-path="url(#rablfilter0)"></path>
        <path d="M 623.549067538 703.4768756423432 A 2 2 0 0 1 625.549067538 705.4768756423432 L 625.549067538 711.3658787255908 A 2 2 0 0 1 623.549067538 713.3658787255908 L 455 713.3658787255908 A 0 0 0 0 1 455 713.3658787255908 L 455 703.4768756423432 A 0 0 0 0 1 455 703.4768756423432 Z"
              fill="#db4437" clip-path="url(#rablfilter0)"></path>
        <path d="M 574.388962726 726.0924974306268 A 2 2 0 0 1 576.388962726 728.0924974306268 L 576.388962726 733.9815005138745 A 2 2 0 0 1 574.388962726 735.9815005138745 L 455 735.9815005138745 A 0 0 0 0 1 455 735.9815005138745 L 455 726.0924974306268 A 0 0 0 0 1 455 726.0924974306268 Z"
              fill="#4285f4" clip-path="url(#rablfilter0)"></path>
        <path d="M 476.94248338244444 736.9815005138745 A 2 2 0 0 1 478.94248338244444 738.9815005138745 L 478.94248338244444 744.8705035971221 A 2 2 0 0 1 476.94248338244444 746.8705035971221 L 455 746.8705035971221 A 0 0 0 0 1 455 746.8705035971221 L 455 736.9815005138745 A 0 0 0 0 1 455 736.9815005138745 Z"
              fill="#db4437" clip-path="url(#rablfilter0)"></path>
        <path d="M 607.0274220777778 759.5971223021581 A 2 2 0 0 1 609.0274220777778 761.5971223021581 L 609.0274220777778 767.4861253854058 A 2 2 0 0 1 607.0274220777778 769.4861253854058 L 455 769.4861253854058 A 0 0 0 0 1 455 769.4861253854058 L 455 759.5971223021581 A 0 0 0 0 1 455 759.5971223021581 Z"
              fill="#4285f4" clip-path="url(#rablfilter0)"></path>
        <path d="M 611.7300469155556 770.4861253854058 A 2 2 0 0 1 613.7300469155556 772.4861253854058 L 613.7300469155556 778.3751284686535 A 2 2 0 0 1 611.7300469155556 780.3751284686535 L 455 780.3751284686535 A 0 0 0 0 1 455 780.3751284686535 L 455 770.4861253854058 A 0 0 0 0 1 455 770.4861253854058 Z"
              fill="#db4437" clip-path="url(#rablfilter0)"></path>
        <path d="M 567.2384509646666 793.1017471736895 A 2 2 0 0 1 569.2384509646666 795.1017471736895 L 569.2384509646666 800.9907502569372 A 2 2 0 0 1 567.2384509646666 802.9907502569372 L 455 802.9907502569372 A 0 0 0 0 1 455 802.9907502569372 L 455 793.1017471736895 A 0 0 0 0 1 455 793.1017471736895 Z"
              fill="#4285f4" clip-path="url(#rablfilter0)"></path>
        <path d="M 479.6438351564444 803.9907502569372 A 2 2 0 0 1 481.6438351564444 805.9907502569372 L 481.6438351564444 811.8797533401848 A 2 2 0 0 1 479.6438351564444 813.8797533401848 L 455 813.8797533401848 A 0 0 0 0 1 455 813.8797533401848 L 455 803.9907502569372 A 0 0 0 0 1 455 803.9907502569372 Z"
              fill="#db4437" clip-path="url(#rablfilter0)"></path>
        <path d="M 607.5434297602222 826.6063720452208 A 2 2 0 0 1 609.5434297602222 828.6063720452208 L 609.5434297602222 834.4953751284685 A 2 2 0 0 1 607.5434297602222 836.4953751284685 L 455 836.4953751284685 A 0 0 0 0 1 455 836.4953751284685 L 455 826.6063720452208 A 0 0 0 0 1 455 826.6063720452208 Z"
              fill="#4285f4" clip-path="url(#rablfilter0)"></path>
        <path d="M 606.905559160889 837.4953751284685 A 2 2 0 0 1 608.905559160889 839.4953751284685 L 608.905559160889 845.3843782117161 A 2 2 0 0 1 606.905559160889 847.3843782117161 L 455 847.3843782117161 A 0 0 0 0 1 455 847.3843782117161 L 455 837.4953751284685 A 0 0 0 0 1 455 837.4953751284685 Z"
              fill="#db4437" clip-path="url(#rablfilter0)"></path>
        <path d="M 566.3016993886666 860.1109969167522 A 2 2 0 0 1 568.3016993886666 862.1109969167522 L 568.3016993886666 867.9999999999999 A 2 2 0 0 1 566.3016993886666 869.9999999999999 L 455 869.9999999999999 A 0 0 0 0 1 455 869.9999999999999 L 455 860.1109969167522 A 0 0 0 0 1 455 860.1109969167522 Z"
              fill="#4285f4" clip-path="url(#rablfilter0)"></path>
        <path d="M 478.57389285044445 870.9999999999999 A 2 2 0 0 1 480.57389285044445 872.9999999999999 L 480.57389285044445 878.8890030832475 A 2 2 0 0 1 478.57389285044445 880.8890030832475 L 455 880.8890030832475 A 0 0 0 0 1 455 880.8890030832475 L 455 870.9999999999999 A 0 0 0 0 1 455 870.9999999999999 Z"
              fill="#db4437" clip-path="url(#rablfilter0)"></path>
        <path d="M 628.1769617577778 893.6156217882836 A 2 2 0 0 1 630.1769617577778 895.6156217882836 L 630.1769617577778 901.5046248715312 A 2 2 0 0 1 628.1769617577778 903.5046248715312 L 455 903.5046248715312 A 0 0 0 0 1 455 903.5046248715312 L 455 893.6156217882836 A 0 0 0 0 1 455 893.6156217882836 Z"
              fill="#4285f4" clip-path="url(#rablfilter0)"></path>
        <path d="M 610.9694872086667 904.5046248715312 A 2 2 0 0 1 612.9694872086667 906.5046248715312 L 612.9694872086667 912.3936279547789 A 2 2 0 0 1 610.9694872086667 914.3936279547789 L 455 914.3936279547789 A 0 0 0 0 1 455 914.3936279547789 L 455 904.5046248715312 A 0 0 0 0 1 455 904.5046248715312 Z"
              fill="#db4437" clip-path="url(#rablfilter0)"></path>
        <path d="M 583.5653501548888 927.1202466598148 A 2 2 0 0 1 585.5653501548888 929.1202466598148 L 585.5653501548888 935.0092497430626 A 2 2 0 0 1 583.5653501548888 937.0092497430626 L 455 937.0092497430626 A 0 0 0 0 1 455 937.0092497430626 L 455 927.1202466598148 A 0 0 0 0 1 455 927.1202466598148 Z"
              fill="#4285f4" clip-path="url(#rablfilter0)"></path>
        <path d="M 469.283810892 938.0092497430626 A 2 2 0 0 1 471.283810892 940.0092497430626 L 471.283810892 945.8982528263102 A 2 2 0 0 1 469.283810892 947.8982528263102 L 455 947.8982528263102 A 0 0 0 0 1 455 947.8982528263102 L 455 938.0092497430626 A 0 0 0 0 1 455 938.0092497430626 Z"
              fill="#db4437" clip-path="url(#rablfilter0)"></path>
        <path d="M 615.7568304466666 960.6248715313462 A 2 2 0 0 1 617.7568304466666 962.6248715313462 L 617.7568304466666 968.5138746145939 A 2 2 0 0 1 615.7568304466666 970.5138746145939 L 455 970.5138746145939 A 0 0 0 0 1 455 970.5138746145939 L 455 960.6248715313462 A 0 0 0 0 1 455 960.6248715313462 Z"
              fill="#4285f4" clip-path="url(#rablfilter0)"></path>
        <path d="M 637.7223079364444 971.5138746145939 A 2 2 0 0 1 639.7223079364444 973.5138746145939 L 639.7223079364444 979.4028776978416 A 2 2 0 0 1 637.7223079364444 981.4028776978416 L 455 981.4028776978416 A 0 0 0 0 1 455 981.4028776978416 L 455 971.5138746145939 A 0 0 0 0 1 455 971.5138746145939 Z"
              fill="#db4437" clip-path="url(#rablfilter0)"></path>
        <path d="M 578.4232356486666 994.1294964028776 A 2 2 0 0 1 580.4232356486666 996.1294964028776 L 580.4232356486666 1002.0184994861253 A 2 2 0 0 1 578.4232356486666 1004.0184994861253 L 455 1004.0184994861253 A 0 0 0 0 1 455 1004.0184994861253 L 455 994.1294964028776 A 0 0 0 0 1 455 994.1294964028776 Z"
              fill="#4285f4" clip-path="url(#rablfilter0)"></path>
        <path d="M 485.591402572 1005.0184994861253 A 2 2 0 0 1 487.591402572 1007.0184994861253 L 487.591402572 1012.9075025693729 A 2 2 0 0 1 485.591402572 1014.9075025693729 L 455 1014.9075025693729 A 0 0 0 0 1 455 1014.9075025693729 L 455 1005.0184994861253 A 0 0 0 0 1 455 1005.0184994861253 Z"
              fill="#db4437" clip-path="url(#rablfilter0)"></path>
        <path d="M 613.8724819422223 1027.634121274409 A 2 2 0 0 1 615.8724819422223 1029.634121274409 L 615.8724819422223 1035.5231243576566 A 2 2 0 0 1 613.8724819422223 1037.5231243576566 L 455 1037.5231243576566 A 0 0 0 0 1 455 1037.5231243576566 L 455 1027.634121274409 A 0 0 0 0 1 455 1027.634121274409 Z"
              fill="#4285f4" clip-path="url(#rablfilter0)"></path>
        <path d="M 617.6550241477778 1038.5231243576566 A 2 2 0 0 1 619.6550241477778 1040.5231243576566 L 619.6550241477778 1046.4121274409042 A 2 2 0 0 1 617.6550241477778 1048.4121274409042 L 455 1048.4121274409042 A 0 0 0 0 1 455 1048.4121274409042 L 455 1038.5231243576566 A 0 0 0 0 1 455 1038.5231243576566 Z"
              fill="#db4437" clip-path="url(#rablfilter0)"></path>
        <path d="M 567.1385675684444 1061.1387461459403 A 2 2 0 0 1 569.1385675684444 1063.1387461459403 L 569.1385675684444 1069.027749229188 A 2 2 0 0 1 567.1385675684444 1071.027749229188 L 455 1071.027749229188 A 0 0 0 0 1 455 1071.027749229188 L 455 1061.1387461459403 A 0 0 0 0 1 455 1061.1387461459403 Z"
              fill="#4285f4" clip-path="url(#rablfilter0)"></path>
        <path d="M 486.16566887666664 1072.027749229188 A 2 2 0 0 1 488.16566887666664 1074.027749229188 L 488.16566887666664 1079.9167523124356 A 2 2 0 0 1 486.16566887666664 1081.9167523124356 L 455 1081.9167523124356 A 0 0 0 0 1 455 1081.9167523124356 L 455 1072.027749229188 A 0 0 0 0 1 455 1072.027749229188 Z"
              fill="#db4437" clip-path="url(#rablfilter0)"></path>
        <path d="M 596.7471210837778 1094.6433710174717 A 2 2 0 0 1 598.7471210837778 1096.6433710174717 L 598.7471210837778 1102.5323741007192 A 2 2 0 0 1 596.7471210837778 1104.5323741007192 L 455 1104.5323741007192 A 0 0 0 0 1 455 1104.5323741007192 L 455 1094.6433710174717 A 0 0 0 0 1 455 1094.6433710174717 Z"
              fill="#4285f4" clip-path="url(#rablfilter0)"></path>
        <path d="M 604.7484440762222 1105.5323741007192 A 2 2 0 0 1 606.7484440762222 1107.5323741007192 L 606.7484440762222 1113.421377183967 A 2 2 0 0 1 604.7484440762222 1115.421377183967 L 455 1115.421377183967 A 0 0 0 0 1 455 1115.421377183967 L 455 1105.5323741007192 A 0 0 0 0 1 455 1105.5323741007192 Z"
              fill="#db4437" clip-path="url(#rablfilter0)"></path>
        <path d="M 495.86730691866666 1128.147995889003 A 2 2 0 0 1 497.86730691866666 1130.147995889003 L 497.86730691866666 1136.0369989722508 A 2 2 0 0 1 495.86730691866666 1138.0369989722508 L 455 1138.0369989722508 A 0 0 0 0 1 455 1138.0369989722508 L 455 1128.147995889003 A 0 0 0 0 1 455 1128.147995889003 Z"
              fill="#4285f4" clip-path="url(#rablfilter0)"></path>
        <path d="M 491.8429301168889 1139.0369989722508 A 2 2 0 0 1 493.8429301168889 1141.0369989722508 L 493.8429301168889 1146.9260020554987 A 2 2 0 0 1 491.8429301168889 1148.9260020554987 L 455 1148.9260020554987 A 0 0 0 0 1 455 1148.9260020554987 L 455 1139.0369989722508 A 0 0 0 0 1 455 1139.0369989722508 Z"
              fill="#db4437" clip-path="url(#rablfilter0)"></path>
        <path d="M 480.135679136 1161.6526207605343 A 2 2 0 0 1 482.135679136 1163.6526207605343 L 482.135679136 1169.541623843782 A 2 2 0 0 1 480.135679136 1171.541623843782 L 455 1171.541623843782 A 0 0 0 0 1 455 1171.541623843782 L 455 1161.6526207605343 A 0 0 0 0 1 455 1161.6526207605343 Z"
              fill="#4285f4" clip-path="url(#rablfilter0)"></path>
        <path d="M 477.2068123717778 1172.541623843782 A 2 2 0 0 1 479.2068123717778 1174.541623843782 L 479.2068123717778 1180.4306269270298 A 2 2 0 0 1 477.2068123717778 1182.4306269270298 L 455 1182.4306269270298 A 0 0 0 0 1 455 1182.4306269270298 L 455 1172.541623843782 A 0 0 0 0 1 455 1172.541623843782 Z"
              fill="#db4437" clip-path="url(#rablfilter0)"></path>
        <path d="M 486.08767829444446 1195.1572456320657 A 2 2 0 0 1 488.08767829444446 1197.1572456320657 L 488.08767829444446 1203.0462487153134 A 2 2 0 0 1 486.08767829444446 1205.0462487153134 L 455 1205.0462487153134 A 0 0 0 0 1 455 1205.0462487153134 L 455 1195.1572456320657 A 0 0 0 0 1 455 1195.1572456320657 Z"
              fill="#4285f4" clip-path="url(#rablfilter0)"></path>
        <path d="M 482.2406019684444 1206.0462487153134 A 2 2 0 0 1 484.2406019684444 1208.0462487153134 L 484.2406019684444 1213.9352517985612 A 2 2 0 0 1 482.2406019684444 1215.9352517985612 L 455 1215.9352517985612 A 0 0 0 0 1 455 1215.9352517985612 L 455 1206.0462487153134 A 0 0 0 0 1 455 1206.0462487153134 Z"
              fill="#db4437" clip-path="url(#rablfilter0)"></path>
        <path d="M 473.4629995568889 1228.6618705035971 A 2 2 0 0 1 475.4629995568889 1230.6618705035971 L 475.4629995568889 1236.5508735868448 A 2 2 0 0 1 473.4629995568889 1238.5508735868448 L 455 1238.5508735868448 A 0 0 0 0 1 455 1238.5508735868448 L 455 1228.6618705035971 A 0 0 0 0 1 455 1228.6618705035971 Z"
              fill="#4285f4" clip-path="url(#rablfilter0)"></path>
        <path d="M 471.57078304177776 1239.5508735868448 A 2 2 0 0 1 473.57078304177776 1241.5508735868448 L 473.57078304177776 1247.4398766700926 A 2 2 0 0 1 471.57078304177776 1249.4398766700926 L 455 1249.4398766700926 A 0 0 0 0 1 455 1249.4398766700926 L 455 1239.5508735868448 A 0 0 0 0 1 455 1239.5508735868448 Z"
              fill="#db4437" clip-path="url(#rablfilter0)"></path>
        <path d="M 494.32707508466666 1262.1664953751283 A 2 2 0 0 1 496.32707508466666 1264.1664953751283 L 496.32707508466666 1270.055498458376 A 2 2 0 0 1 494.32707508466666 1272.055498458376 L 455 1272.055498458376 A 0 0 0 0 1 455 1272.055498458376 L 455 1262.1664953751283 A 0 0 0 0 1 455 1262.1664953751283 Z"
              fill="#4285f4" clip-path="url(#rablfilter0)"></path>
        <path d="M 486.84687051333333 1273.055498458376 A 2 2 0 0 1 488.84687051333333 1275.055498458376 L 488.84687051333333 1280.944501541624 A 2 2 0 0 1 486.84687051333333 1282.944501541624 L 455 1282.944501541624 A 0 0 0 0 1 455 1282.944501541624 L 455 1273.055498458376 A 0 0 0 0 1 455 1273.055498458376 Z"
              fill="#db4437" clip-path="url(#rablfilter0)"></path>
        <path d="M 480.25117860933335 1295.6711202466597 A 2 2 0 0 1 482.25117860933335 1297.6711202466597 L 482.25117860933335 1303.5601233299074 A 2 2 0 0 1 480.25117860933335 1305.5601233299074 L 455 1305.5601233299074 A 0 0 0 0 1 455 1305.5601233299074 L 455 1295.6711202466597 A 0 0 0 0 1 455 1295.6711202466597 Z"
              fill="#4285f4" clip-path="url(#rablfilter0)"></path>
        <path d="M 475.745763956 1306.5601233299074 A 2 2 0 0 1 477.745763956 1308.5601233299074 L 477.745763956 1314.4491264131552 A 2 2 0 0 1 475.745763956 1316.4491264131552 L 455 1316.4491264131552 A 0 0 0 0 1 455 1316.4491264131552 L 455 1306.5601233299074 A 0 0 0 0 1 455 1306.5601233299074 Z"
              fill="#db4437" clip-path="url(#rablfilter0)"></path>
        <path d="M 486.1631715182222 1329.1757451181911 A 2 2 0 0 1 488.1631715182222 1331.1757451181911 L 488.1631715182222 1337.0647482014388 A 2 2 0 0 1 486.1631715182222 1339.0647482014388 L 455 1339.0647482014388 A 0 0 0 0 1 455 1339.0647482014388 L 455 1329.1757451181911 A 0 0 0 0 1 455 1329.1757451181911 Z"
              fill="#4285f4" clip-path="url(#rablfilter0)"></path>
        <path d="M 476.1293763388889 1340.0647482014388 A 2 2 0 0 1 478.1293763388889 1342.0647482014388 L 478.1293763388889 1347.9537512846866 A 2 2 0 0 1 476.1293763388889 1349.9537512846866 L 455 1349.9537512846866 A 0 0 0 0 1 455 1349.9537512846866 L 455 1340.0647482014388 A 0 0 0 0 1 455 1340.0647482014388 Z"
              fill="#db4437" clip-path="url(#rablfilter0)"></path>
        <path d="M 480.0190578435556 1362.6803699897223 A 2 2 0 0 1 482.0190578435556 1364.6803699897223 L 482.0190578435556 1370.5693730729702 A 2 2 0 0 1 480.0190578435556 1372.5693730729702 L 455 1372.5693730729702 A 0 0 0 0 1 455 1372.5693730729702 L 455 1362.6803699897223 A 0 0 0 0 1 455 1362.6803699897223 Z"
              fill="#4285f4" clip-path="url(#rablfilter0)"></path>
        <path d="M 473.11460205444445 1373.5693730729702 A 2 2 0 0 1 475.11460205444445 1375.5693730729702 L 475.11460205444445 1381.458376156218 A 2 2 0 0 1 473.11460205444445 1383.458376156218 L 455 1383.458376156218 A 0 0 0 0 1 455 1383.458376156218 L 455 1373.5693730729702 A 0 0 0 0 1 455 1373.5693730729702 Z"
              fill="#db4437" clip-path="url(#rablfilter0)"></path>
        <path d="M 503.09083931866667 1396.1849948612537 A 2 2 0 0 1 505.09083931866667 1398.1849948612537 L 505.09083931866667 1404.0739979445013 A 2 2 0 0 1 503.09083931866667 1406.0739979445013 L 455 1406.0739979445013 A 0 0 0 0 1 455 1406.0739979445013 L 455 1396.1849948612537 A 0 0 0 0 1 455 1396.1849948612537 Z"
              fill="#4285f4" clip-path="url(#rablfilter0)"></path>
        <path d="M 501.0843295851111 1407.0739979445013 A 2 2 0 0 1 503.0843295851111 1409.0739979445013 L 503.0843295851111 1414.9630010277492 A 2 2 0 0 1 501.0843295851111 1416.9630010277492 L 455 1416.9630010277492 A 0 0 0 0 1 455 1416.9630010277492 L 455 1407.0739979445013 A 0 0 0 0 1 455 1407.0739979445013 Z"
              fill="#db4437" clip-path="url(#rablfilter0)"></path>
        <path d="M 480.58207416466666 1429.689619732785 A 2 2 0 0 1 482.58207416466666 1431.689619732785 L 482.58207416466666 1437.5786228160327 A 2 2 0 0 1 480.58207416466666 1439.5786228160327 L 455 1439.5786228160327 A 0 0 0 0 1 455 1439.5786228160327 L 455 1429.689619732785 A 0 0 0 0 1 455 1429.689619732785 Z"
              fill="#4285f4" clip-path="url(#rablfilter0)"></path>
        <path d="M 474.0202884897778 1440.5786228160327 A 2 2 0 0 1 476.0202884897778 1442.5786228160327 L 476.0202884897778 1448.4676258992806 A 2 2 0 0 1 474.0202884897778 1450.4676258992806 L 455 1450.4676258992806 A 0 0 0 0 1 455 1450.4676258992806 L 455 1440.5786228160327 A 0 0 0 0 1 455 1440.5786228160327 Z"
              fill="#db4437" clip-path="url(#rablfilter0)"></path>
        <path d="M 492.51272714311114 1463.1942446043163 A 2 2 0 0 1 494.51272714311114 1465.1942446043163 L 494.51272714311114 1471.0832476875642 A 2 2 0 0 1 492.51272714311114 1473.0832476875642 L 455 1473.0832476875642 A 0 0 0 0 1 455 1473.0832476875642 L 455 1463.1942446043163 A 0 0 0 0 1 455 1463.1942446043163 Z"
              fill="#4285f4" clip-path="url(#rablfilter0)"></path>
        <path d="M 482.9906550982222 1474.0832476875642 A 2 2 0 0 1 484.9906550982222 1476.0832476875642 L 484.9906550982222 1481.972250770812 A 2 2 0 0 1 482.9906550982222 1483.972250770812 L 455 1483.972250770812 A 0 0 0 0 1 455 1483.972250770812 L 455 1474.0832476875642 A 0 0 0 0 1 455 1474.0832476875642 Z"
              fill="#db4437" clip-path="url(#rablfilter0)"></path>
        <path d="M 484.6511309117778 1496.6988694758477 A 2 2 0 0 1 486.6511309117778 1498.6988694758477 L 486.6511309117778 1504.5878725590956 A 2 2 0 0 1 484.6511309117778 1506.5878725590956 L 455 1506.5878725590956 A 0 0 0 0 1 455 1506.5878725590956 L 455 1496.6988694758477 A 0 0 0 0 1 455 1496.6988694758477 Z"
              fill="#4285f4" clip-path="url(#rablfilter0)"></path>
        <path d="M 478.0468777566667 1507.5878725590956 A 2 2 0 0 1 480.0468777566667 1509.5878725590956 L 480.0468777566667 1515.4768756423432 A 2 2 0 0 1 478.0468777566667 1517.4768756423432 L 455 1517.4768756423432 A 0 0 0 0 1 455 1517.4768756423432 L 455 1507.5878725590956 A 0 0 0 0 1 455 1507.5878725590956 Z"
              fill="#db4437" clip-path="url(#rablfilter0)"></path>
        <path d="M 500.09567271466665 1530.203494347379 A 2 2 0 0 1 502.09567271466665 1532.203494347379 L 502.09567271466665 1538.0924974306267 A 2 2 0 0 1 500.09567271466665 1540.0924974306267 L 455 1540.0924974306267 A 0 0 0 0 1 455 1540.0924974306267 L 455 1530.203494347379 A 0 0 0 0 1 455 1530.203494347379 Z"
              fill="#4285f4" clip-path="url(#rablfilter0)"></path>
        <path d="M 484.98381303733333 1541.0924974306267 A 2 2 0 0 1 486.98381303733333 1543.0924974306267 L 486.98381303733333 1548.9815005138746 A 2 2 0 0 1 484.98381303733333 1550.9815005138746 L 455 1550.9815005138746 A 0 0 0 0 1 455 1550.9815005138746 L 455 1541.0924974306267 A 0 0 0 0 1 455 1541.0924974306267 Z"
              fill="#db4437" clip-path="url(#rablfilter0)"></path>
        <path d="M 489.3748017284444 1563.7081192189105 A 2 2 0 0 1 491.3748017284444 1565.7081192189105 L 491.3748017284444 1571.5971223021581 A 2 2 0 0 1 489.3748017284444 1573.5971223021581 L 455 1573.5971223021581 A 0 0 0 0 1 455 1573.5971223021581 L 455 1563.7081192189105 A 0 0 0 0 1 455 1563.7081192189105 Z"
              fill="#4285f4" clip-path="url(#rablfilter0)"></path>
        <path d="M 487.50750883822224 1574.5971223021581 A 2 2 0 0 1 489.50750883822224 1576.5971223021581 L 489.50750883822224 1582.486125385406 A 2 2 0 0 1 487.50750883822224 1584.486125385406 L 455 1584.486125385406 A 0 0 0 0 1 455 1584.486125385406 L 455 1574.5971223021581 A 0 0 0 0 1 455 1574.5971223021581 Z"
              fill="#db4437" clip-path="url(#rablfilter0)"></path>
        <path d="M 590.475404098 1597.2127440904417 A 2 2 0 0 1 592.475404098 1599.2127440904417 L 592.475404098 1605.1017471736895 A 2 2 0 0 1 590.475404098 1607.1017471736895 L 455 1607.1017471736895 A 0 0 0 0 1 455 1607.1017471736895 L 455 1597.2127440904417 A 0 0 0 0 1 455 1597.2127440904417 Z"
              fill="#4285f4" clip-path="url(#rablfilter0)"></path>
        <path d="M 508.05095570577777 1608.1017471736895 A 2 2 0 0 1 510.05095570577777 1610.1017471736895 L 510.05095570577777 1615.9907502569374 A 2 2 0 0 1 508.05095570577777 1617.9907502569374 L 455 1617.9907502569374 A 0 0 0 0 1 455 1617.9907502569374 L 455 1608.1017471736895 A 0 0 0 0 1 455 1608.1017471736895 Z"
              fill="#db4437" clip-path="url(#rablfilter0)"></path>
        <path d="M 472.05504700066666 1630.717368961973 A 2 2 0 0 1 474.05504700066666 1632.717368961973 L 474.05504700066666 1638.606372045221 A 2 2 0 0 1 472.05504700066666 1640.606372045221 L 455 1640.606372045221 A 0 0 0 0 1 455 1640.606372045221 L 455 1630.717368961973 A 0 0 0 0 1 455 1630.717368961973 Z"
              fill="#4285f4" clip-path="url(#rablfilter0)"></path>
        <path d="M 462.87781025933333 1641.606372045221 A 2 2 0 0 1 464.87781025933333 1643.606372045221 L 464.87781025933333 1649.4953751284686 A 2 2 0 0 1 462.87781025933333 1651.4953751284686 L 455 1651.4953751284686 A 0 0 0 0 1 455 1651.4953751284686 L 455 1641.606372045221 A 0 0 0 0 1 455 1641.606372045221 Z"
              fill="#db4437" clip-path="url(#rablfilter0)"></path>
        <path d="M 1302.3836274815555 1664.2219938335045 A 2 2 0 0 1 1304.3836274815555 1666.2219938335045 L 1304.3836274815555 1672.1109969167524 A 2 2 0 0 1 1302.3836274815555 1674.1109969167524 L 455 1674.1109969167524 A 0 0 0 0 1 455 1674.1109969167524 L 455 1664.2219938335045 A 0 0 0 0 1 455 1664.2219938335045 Z"
              fill="#4285f4" clip-path="url(#rablfilter0)"></path>
        <path d="M 1209.38578355 1675.1109969167524 A 2 2 0 0 1 1211.38578355 1677.1109969167524 L 1211.38578355 1683 A 2 2 0 0 1 1209.38578355 1685 L 455 1685 A 0 0 0 0 1 455 1685 L 455 1675.1109969167524 A 0 0 0 0 1 455 1675.1109969167524 Z"
              fill="#db4437" clip-path="url(#rablfilter0)"></path>
    </g>
    <g></g>
    <g>
        <text x="454.5" y="1714.5"
              style="cursor: default; user-select: none; -webkit-font-smoothing: antialiased; font-family: Roboto; font-size: 12px;"
              fill="#757575" dx="-3.37109375px">0
        </text>
        <text x="557.7222222222222" y="1714.5"
              style="cursor: default; user-select: none; -webkit-font-smoothing: antialiased; font-family: Roboto; font-size: 12px;"
              fill="#757575" dx="-10.109375px">500
        </text>
        <text x="660.9444444444445" y="1714.5"
              style="cursor: default; user-select: none; -webkit-font-smoothing: antialiased; font-family: Roboto; font-size: 12px;"
              fill="#757575" dx="-7.1328125px">1K
        </text>
        <text x="764.1666666666666" y="1714.5"
              style="cursor: default; user-select: none; -webkit-font-smoothing: antialiased; font-family: Roboto; font-size: 12px;"
              fill="#757575" dx="-12.08203125px">1.5K
        </text>
        <text x="867.3888888888889" y="1714.5"
              style="cursor: default; user-select: none; -webkit-font-smoothing: antialiased; font-family: Roboto; font-size: 12px;"
              fill="#757575" dx="-7.1328125px">2K
        </text>
        <text x="970.6111111111111" y="1714.5"
              style="cursor: default; user-select: none; -webkit-font-smoothing: antialiased; font-family: Roboto; font-size: 12px;"
              fill="#757575" dx="-12.08203125px">2.5K
        </text>
        <text x="1073.8333333333333" y="1714.5"
              style="cursor: default; user-select: none; -webkit-font-smoothing: antialiased; font-family: Roboto; font-size: 12px;"
              fill="#757575" dx="-7.1328125px">3K
        </text>
        <text x="1177.0555555555557" y="1714.5"
              style="cursor: default; user-select: none; -webkit-font-smoothing: antialiased; font-family: Roboto; font-size: 12px;"
              fill="#757575" dx="-12.08203125px">3.5K
        </text>
        <text x="1280.2777777777778" y="1714.5"
              style="cursor: default; user-select: none; -webkit-font-smoothing: antialiased; font-family: Roboto; font-size: 12px;"
              fill="#757575" dx="-7.1328125px">4K
        </text>
        <text x="1383.5" y="1714.5"
              style="cursor: default; user-select: none; -webkit-font-smoothing: antialiased; font-family: Roboto; font-size: 12px;"
              fill="#757575" dx="-12.08203125px">4.5K
        </text>
        <text x="923.35546875" y="1746.5"
              style="cursor: default; user-select: none; -webkit-font-smoothing: antialiased; font-family: Roboto; font-size: 12px;"
              fill="#424242" dx="-33.62109375px">Render Time
        </text>
        <text x="448.5" y="70.38900622753053"
              style="cursor: default; user-select: none; -webkit-font-smoothing: antialiased; font-family: Roboto; font-size: 12px;"
              fill="#757575" dx="-282.1171875px">Blenderman-Camera_001-ambient_occlusion-embree
        </text>
        <text x="448.5" y="103.89362492811273"
              style="cursor: default; user-select: none; -webkit-font-smoothing: antialiased; font-family: Roboto; font-size: 12px;"
              fill="#757575" dx="-214.8203125px">Blenderman-Camera_001-debug-embree
        </text>
        <text x="448.5" y="137.3982512580895"
              style="cursor: default; user-select: none; -webkit-font-smoothing: antialiased; font-family: Roboto; font-size: 12px;"
              fill="#757575" dx="-271.21875px">CornellBox-render_cam-ambient_occlusion-embree
        </text>
        <text x="448.5" y="170.90287758806625"
              style="cursor: default; user-select: none; -webkit-font-smoothing: antialiased; font-family: Roboto; font-size: 12px;"
              fill="#757575" dx="-223.4765625px">CornellBox-render_cam-raytracing-embree
        </text>
        <text x="448.5" y="204.407503918043"
              style="cursor: default; user-select: none; -webkit-font-smoothing: antialiased; font-family: Roboto; font-size: 12px;"
              fill="#757575" dx="-307.4453125px">HsdLogo-render_cam_1Shape-ambient_occlusion-embree
        </text>
        <text x="448.5" y="237.91213024801976"
              style="cursor: default; user-select: none; -webkit-font-smoothing: antialiased; font-family: Roboto; font-size: 12px;"
              fill="#757575" dx="-259.7109375px">HsdLogo-render_cam_1Shape-raytracing-embree
        </text>
        <text x="448.5" y="271.41675657799647"
              style="cursor: default; user-select: none; -webkit-font-smoothing: antialiased; font-family: Roboto; font-size: 12px;"
              fill="#757575" dx="-307.4453125px">HsdLogo-render_cam_2Shape-ambient_occlusion-embree
        </text>
        <text x="448.5" y="304.92136764918416"
              style="cursor: default; user-select: none; -webkit-font-smoothing: antialiased; font-family: Roboto; font-size: 12px;"
              fill="#757575" dx="-259.7109375px">HsdLogo-render_cam_2Shape-raytracing-embree
        </text>
        <text x="448.5" y="338.42600923795"
              style="cursor: default; user-select: none; -webkit-font-smoothing: antialiased; font-family: Roboto; font-size: 12px;"
              fill="#757575" dx="-307.4453125px">HsdLogo-render_cam_3Shape-ambient_occlusion-embree
        </text>
        <text x="448.5" y="371.93062030913757"
              style="cursor: default; user-select: none; -webkit-font-smoothing: antialiased; font-family: Roboto; font-size: 12px;"
              fill="#757575" dx="-259.7109375px">HsdLogo-render_cam_3Shape-raytracing-embree
        </text>
        <text x="448.5" y="405.4352618979034"
              style="cursor: default; user-select: none; -webkit-font-smoothing: antialiased; font-family: Roboto; font-size: 12px;"
              fill="#757575" dx="-307.4453125px">HsdLogo-render_cam_4Shape-ambient_occlusion-embree
        </text>
        <text x="448.5" y="438.9398729690911"
              style="cursor: default; user-select: none; -webkit-font-smoothing: antialiased; font-family: Roboto; font-size: 12px;"
              fill="#757575" dx="-259.7109375px">HsdLogo-render_cam_4Shape-raytracing-embree
        </text>
        <text x="448.5" y="472.4445145578569"
              style="cursor: default; user-select: none; -webkit-font-smoothing: antialiased; font-family: Roboto; font-size: 12px;"
              fill="#757575" dx="-307.4453125px">HsdLogo-render_cam_5Shape-ambient_occlusion-embree
        </text>
        <text x="448.5" y="505.9491256290446"
              style="cursor: default; user-select: none; -webkit-font-smoothing: antialiased; font-family: Roboto; font-size: 12px;"
              fill="#757575" dx="-259.7109375px">HsdLogo-render_cam_5Shape-raytracing-embree
        </text>
        <text x="448.5" y="539.4537672178103"
              style="cursor: default; user-select: none; -webkit-font-smoothing: antialiased; font-family: Roboto; font-size: 12px;"
              fill="#757575" dx="-381.578125px">Intel_mooreLane-MASTER_cameraExtended-ambient_occlusion-embree
        </text>
        <text x="448.5" y="572.9583782889981"
              style="cursor: default; user-select: none; -webkit-font-smoothing: antialiased; font-family: Roboto; font-size: 12px;"
              fill="#757575" dx="-304.953125px">Intel_mooreLane-MorrisStone-ambient_occlusion-embree
        </text>
        <text x="448.5" y="606.4629893601857"
              style="cursor: default; user-select: none; -webkit-font-smoothing: antialiased; font-family: Roboto; font-size: 12px;"
              fill="#757575" dx="-415.1640625px">Intel_Sponza_Candles_Thin_Lens-PhysCamera002-ambient_occlusion-embree
        </text>
        <text x="448.5" y="639.9676004313735"
              style="cursor: default; user-select: none; -webkit-font-smoothing: antialiased; font-family: Roboto; font-size: 12px;"
              fill="#757575" dx="-367.4296875px">Intel_Sponza_Candles_Thin_Lens-PhysCamera002-raytracing-embree
        </text>
        <text x="448.5" y="673.4722725377173"
              style="cursor: default; user-select: none; -webkit-font-smoothing: antialiased; font-family: Roboto; font-size: 12px;"
              fill="#757575" dx="-415.1640625px">Intel_Sponza_Candles_Thin_Lens-PhysCamera004-ambient_occlusion-embree
        </text>
        <text x="448.5" y="706.9768836089052"
              style="cursor: default; user-select: none; -webkit-font-smoothing: antialiased; font-family: Roboto; font-size: 12px;"
              fill="#757575" dx="-367.4296875px">Intel_Sponza_Candles_Thin_Lens-PhysCamera004-raytracing-embree
        </text>
        <text x="448.5" y="740.4814946800927"
              style="cursor: default; user-select: none; -webkit-font-smoothing: antialiased; font-family: Roboto; font-size: 12px;"
              fill="#757575" dx="-306.8125px">Intel_Sponza-PhysCamera001-ambient_occlusion-embree
        </text>
        <text x="448.5" y="773.9861057512803"
              style="cursor: default; user-select: none; -webkit-font-smoothing: antialiased; font-family: Roboto; font-size: 12px;"
              fill="#757575" dx="-259.078125px">Intel_Sponza-PhysCamera001-raytracing-embree
        </text>
        <text x="448.5" y="807.4907778576244"
              style="cursor: default; user-select: none; -webkit-font-smoothing: antialiased; font-family: Roboto; font-size: 12px;"
              fill="#757575" dx="-306.8125px">Intel_Sponza-PhysCamera002-ambient_occlusion-embree
        </text>
        <text x="448.5" y="840.995388928812"
              style="cursor: default; user-select: none; -webkit-font-smoothing: antialiased; font-family: Roboto; font-size: 12px;"
              fill="#757575" dx="-259.078125px">Intel_Sponza-PhysCamera002-raytracing-embree
        </text>
        <text x="448.5" y="874.4999999999998"
              style="cursor: default; user-select: none; -webkit-font-smoothing: antialiased; font-family: Roboto; font-size: 12px;"
              fill="#757575" dx="-306.8125px">Intel_Sponza-PhysCamera003-ambient_occlusion-embree
        </text>
        <text x="448.5" y="908.0046110711874"
              style="cursor: default; user-select: none; -webkit-font-smoothing: antialiased; font-family: Roboto; font-size: 12px;"
              fill="#757575" dx="-259.078125px">Intel_Sponza-PhysCamera003-raytracing-embree
        </text>
        <text x="448.5" y="941.5092221423752"
              style="cursor: default; user-select: none; -webkit-font-smoothing: antialiased; font-family: Roboto; font-size: 12px;"
              fill="#757575" dx="-306.8125px">Intel_Sponza-PhysCamera004-ambient_occlusion-embree
        </text>
        <text x="448.5" y="975.013894248719"
              style="cursor: default; user-select: none; -webkit-font-smoothing: antialiased; font-family: Roboto; font-size: 12px;"
              fill="#757575" dx="-259.078125px">Intel_Sponza-PhysCamera004-raytracing-embree
        </text>
        <text x="448.5" y="1008.5185053199068"
              style="cursor: default; user-select: none; -webkit-font-smoothing: antialiased; font-family: Roboto; font-size: 12px;"
              fill="#757575" dx="-306.8125px">Intel_Sponza-PhysCamera005-ambient_occlusion-embree
        </text>
        <text x="448.5" y="1042.0231774262506"
              style="cursor: default; user-select: none; -webkit-font-smoothing: antialiased; font-family: Roboto; font-size: 12px;"
              fill="#757575" dx="-259.078125px">Intel_Sponza-PhysCamera005-raytracing-embree
        </text>
        <text x="448.5" y="1075.5277884974385"
              style="cursor: default; user-select: none; -webkit-font-smoothing: antialiased; font-family: Roboto; font-size: 12px;"
              fill="#757575" dx="-306.8125px">Intel_Sponza-PhysCamera006-ambient_occlusion-embree
        </text>
        <text x="448.5" y="1109.0323995686258"
              style="cursor: default; user-select: none; -webkit-font-smoothing: antialiased; font-family: Roboto; font-size: 12px;"
              fill="#757575" dx="-259.078125px">Intel_Sponza-PhysCamera006-raytracing-embree
        </text>
        <text x="448.5" y="1142.537010639814"
              style="cursor: default; user-select: none; -webkit-font-smoothing: antialiased; font-family: Roboto; font-size: 12px;"
              fill="#757575" dx="-337.5703125px">OpenChessSet-render_cam_1Shape-ambient_occlusion-embree
        </text>
        <text x="448.5" y="1176.0416217110014"
              style="cursor: default; user-select: none; -webkit-font-smoothing: antialiased; font-family: Roboto; font-size: 12px;"
              fill="#757575" dx="-289.828125px">OpenChessSet-render_cam_1Shape-raytracing-embree
        </text>
        <text x="448.5" y="1209.5462327821892"
              style="cursor: default; user-select: none; -webkit-font-smoothing: antialiased; font-family: Roboto; font-size: 12px;"
              fill="#757575" dx="-337.5703125px">OpenChessSet-render_cam_2Shape-ambient_occlusion-embree
        </text>
        <text x="448.5" y="1243.050843853377"
              style="cursor: default; user-select: none; -webkit-font-smoothing: antialiased; font-family: Roboto; font-size: 12px;"
              fill="#757575" dx="-289.828125px">OpenChessSet-render_cam_2Shape-raytracing-embree
        </text>
        <text x="448.5" y="1276.5554549245644"
              style="cursor: default; user-select: none; -webkit-font-smoothing: antialiased; font-family: Roboto; font-size: 12px;"
              fill="#757575" dx="-337.5703125px">OpenChessSet-render_cam_3Shape-ambient_occlusion-embree
        </text>
        <text x="448.5" y="1310.0600659957522"
              style="cursor: default; user-select: none; -webkit-font-smoothing: antialiased; font-family: Roboto; font-size: 12px;"
              fill="#757575" dx="-289.828125px">OpenChessSet-render_cam_3Shape-raytracing-embree
        </text>
        <text x="448.5" y="1343.5647991372525"
              style="cursor: default; user-select: none; -webkit-font-smoothing: antialiased; font-family: Roboto; font-size: 12px;"
              fill="#757575" dx="-337.5703125px">OpenChessSet-render_cam_4Shape-ambient_occlusion-embree
        </text>
        <text x="448.5" y="1377.0694102084403"
              style="cursor: default; user-select: none; -webkit-font-smoothing: antialiased; font-family: Roboto; font-size: 12px;"
              fill="#757575" dx="-289.828125px">OpenChessSet-render_cam_4Shape-raytracing-embree
        </text>
        <text x="448.5" y="1410.5740212796277"
              style="cursor: default; user-select: none; -webkit-font-smoothing: antialiased; font-family: Roboto; font-size: 12px;"
              fill="#757575" dx="-337.5703125px">OpenChessSet-render_cam_5Shape-ambient_occlusion-embree
        </text>
        <text x="448.5" y="1444.0786323508155"
              style="cursor: default; user-select: none; -webkit-font-smoothing: antialiased; font-family: Roboto; font-size: 12px;"
              fill="#757575" dx="-289.828125px">OpenChessSet-render_cam_5Shape-raytracing-embree
        </text>
        <text x="448.5" y="1477.5832434220033"
              style="cursor: default; user-select: none; -webkit-font-smoothing: antialiased; font-family: Roboto; font-size: 12px;"
              fill="#757575" dx="-337.5703125px">OpenChessSet-render_cam_6Shape-ambient_occlusion-embree
        </text>
        <text x="448.5" y="1511.0878544931911"
              style="cursor: default; user-select: none; -webkit-font-smoothing: antialiased; font-family: Roboto; font-size: 12px;"
              fill="#757575" dx="-289.828125px">OpenChessSet-render_cam_6Shape-raytracing-embree
        </text>
        <text x="448.5" y="1544.5924655643785"
              style="cursor: default; user-select: none; -webkit-font-smoothing: antialiased; font-family: Roboto; font-size: 12px;"
              fill="#757575" dx="-337.5703125px">OpenChessSet-render_cam_7Shape-ambient_occlusion-embree
        </text>
        <text x="448.5" y="1578.0970766355663"
              style="cursor: default; user-select: none; -webkit-font-smoothing: antialiased; font-family: Roboto; font-size: 12px;"
              fill="#757575" dx="-289.828125px">OpenChessSet-render_cam_7Shape-raytracing-embree
        </text>
        <text x="448.5" y="1611.601687706754"
              style="cursor: default; user-select: none; -webkit-font-smoothing: antialiased; font-family: Roboto; font-size: 12px;"
              fill="#757575" dx="-287.40625px">StormTrooper-render_cam-ambient_occlusion-embree
        </text>
        <text x="448.5" y="1645.1064208482544"
              style="cursor: default; user-select: none; -webkit-font-smoothing: antialiased; font-family: Roboto; font-size: 12px;"
              fill="#757575" dx="-220.109375px">StormTrooper-render_cam-debug-embree
        </text>
        <text x="448.5" y="1678.6110319194422"
              style="cursor: default; user-select: none; -webkit-font-smoothing: antialiased; font-family: Roboto; font-size: 12px;"
              fill="#757575" dx="-239.671875px">StormTrooper-render_cam-raytracing-embree
        </text>
        <text x="15.3359375" y="867.5"
              style="cursor: default; user-select: none; -webkit-font-smoothing: antialiased; font-family: Roboto; font-size: 12px;"
              fill="#424242" dx="-16.37109375px" transform="rotate(-90 15.3359375 870.5)">Scene
        </text>
    </g>
    <g></g>
    <g></g>
    <g></g>
</svg>