<svg width="2510" height="1750" xmlns="http://www.w3.org/2000/svg"><defs><clipPath id="rablfilter18"><rect x="454.5" y="55.5" width="1902" height="1642"></rect></clipPath></defs><g><rect x="0" y="0" width="2510" height="1750" fill="#ffffff" fill-opacity="1" stroke="#ffffff" stroke-opacity="0" stroke-width="0"></rect><text x="0" y="15" style="cursor: default; user-select: none; -webkit-font-smoothing: antialiased; font-family: Roboto; font-size: 16px;" fill="#757575" dx="0px">Absolute Timing</text><rect x="2409.9013671875" y="55.5" width="12" height="12" rx="2" ry="2" fill="#4285f4"></rect><text x="2429.9013671875" y="68.5" style="cursor: default; user-select: none; -webkit-font-smoothing: antialiased; font-family: Roboto;" fill="#757575" dx="0px">Baseline</text><rect x="2409.9013671875" y="88.5" width="12" height="12" rx="2" ry="2" fill="#db4437"></rect><text x="2429.9013671875" y="101.5" style="cursor: default; user-select: none; -webkit-font-smoothing: antialiased; font-family: Roboto;" fill="#757575" dx="0px">New revision</text><rect x="454.5" y="55.5" width="1902" height="1642" fill="#ffffff" fill-opacity="1" stroke="#ffffff" stroke-opacity="0" stroke-width="1"></rect></g><g><line x1="454.5" x2="454.5" y1="55.5" y2="1697.5" stroke="#9E9E9E" stroke-width="1"></line><line x1="665.8333333333333" x2="665.8333333333333" y1="55.5" y2="1697.5" stroke="#E0E0E0" stroke-width="1"></line><line x1="877.1666666666666" x2="877.1666666666666" y1="55.5" y2="1697.5" stroke="#E0E0E0" stroke-width="1"></line><line x1="1088.5" x2="1088.5" y1="55.5" y2="1697.5" stroke="#E0E0E0" stroke-width="1"></line><line x1="1299.8333333333333" x2="1299.8333333333333" y1="55.5" y2="1697.5" stroke="#E0E0E0" stroke-width="1"></line><line x1="1511.1666666666667" x2="1511.1666666666667" y1="55.5" y2="1697.5" stroke="#E0E0E0" stroke-width="1"></line><line x1="1722.5" x2="1722.5" y1="55.5" y2="1697.5" stroke="#E0E0E0" stroke-width="1"></line><line x1="1933.8333333333333" x2="1933.8333333333333" y1="55.5" y2="1697.5" stroke="#E0E0E0" stroke-width="1"></line><line x1="2145.1666666666665" x2="2145.1666666666665" y1="55.5" y2="1697.5" stroke="#E0E0E0" stroke-width="1"></line><line x1="2356.5" x2="2356.5" y1="55.5" y2="1697.5" stroke="#E0E0E0" stroke-width="1"></line></g><g><path d="M 2193.0437669213334 56 A 2 2 0 0 1 2195.0437669213334 58 L 2195.0437669213334 63.88900308324769 A 2 2 0 0 1 2193.0437669213334 65.88900308324769 L 455 65.88900308324769 A 0 0 0 0 1 455 65.88900308324769 L 455 56 A 0 0 0 0 1 455 56 Z" fill="#4285f4" clip-path="url(#rablfilter18)"></path><path d="M 1626.7191002733332 66.88900308324769 A 2 2 0 0 1 1628.7191002733332 68.88900308324769 L 1628.7191002733332 74.77800616649537 A 2 2 0 0 1 1626.7191002733332 76.77800616649537 L 455 76.77800616649537 A 0 0 0 0 1 455 76.77800616649537 L 455 66.88900308324769 A 0 0 0 0 1 455 66.88900308324769 Z" fill="#db4437" clip-path="url(#rablfilter18)"></path><path d="M 721.3619978413333 89.50462487153135 A 2 2 0 0 1 723.3619978413333 91.50462487153135 L 723.3619978413333 97.39362795477902 A 2 2 0 0 1 721.3619978413333 99.39362795477902 L 455 99.39362795477902 A 0 0 0 0 1 455 99.39362795477902 L 455 89.50462487153135 A 0 0 0 0 1 455 89.50462487153135 Z" fill="#4285f4" clip-path="url(#rablfilter18)"></path><path d="M 505.025234144 100.39362795477902 A 2 2 0 0 1 507.025234144 102.39362795477902 L 507.025234144 108.28263103802672 A 2 2 0 0 1 505.025234144 110.28263103802672 L 455 110.28263103802672 A 0 0 0 0 1 455 110.28263103802672 L 455 100.39362795477902 A 0 0 0 0 1 455 100.39362795477902 Z" fill="#db4437" clip-path="url(#rablfilter18)"></path><path d="M 735.509384924 123.00924974306268 A 2 2 0 0 1 737.509384924 125.00924974306268 L 737.509384924 130.89825282631037 A 2 2 0 0 1 735.509384924 132.89825282631037 L 455 132.89825282631037 A 0 0 0 0 1 455 132.89825282631037 L 455 123.00924974306268 A 0 0 0 0 1 455 123.00924974306268 Z" fill="#4285f4" clip-path="url(#rablfilter18)"></path><path d="M 525.9471918773334 133.89825282631037 A 2 2 0 0 1 527.9471918773334 135.89825282631037 L 527.9471918773334 141.78725590955807 A 2 2 0 0 1 525.9471918773334 143.78725590955807 L 455 143.78725590955807 A 0 0 0 0 1 455 143.78725590955807 L 455 133.89825282631037 A 0 0 0 0 1 455 133.89825282631037 Z" fill="#db4437" clip-path="url(#rablfilter18)"></path><path d="M 722.8387089506666 156.51387461459404 A 2 2 0 0 1 724.8387089506666 158.51387461459404 L 724.8387089506666 164.40287769784172 A 2 2 0 0 1 722.8387089506666 166.40287769784172 L 455 166.40287769784172 A 0 0 0 0 1 455 166.40287769784172 L 455 156.51387461459404 A 0 0 0 0 1 455 156.51387461459404 Z" fill="#4285f4" clip-path="url(#rablfilter18)"></path><path d="M 516.0415492493333 167.40287769784172 A 2 2 0 0 1 518.0415492493333 169.40287769784172 L 518.0415492493333 175.29188078108942 A 2 2 0 0 1 516.0415492493333 177.29188078108942 L 455 177.29188078108942 A 0 0 0 0 1 455 177.29188078108942 L 455 167.40287769784172 A 0 0 0 0 1 455 167.40287769784172 Z" fill="#db4437" clip-path="url(#rablfilter18)"></path><path d="M 710.834224116 190.01849948612536 A 2 2 0 0 1 712.834224116 192.01849948612536 L 712.834224116 197.90750256937307 A 2 2 0 0 1 710.834224116 199.90750256937307 L 455 199.90750256937307 A 0 0 0 0 1 455 199.90750256937307 L 455 190.01849948612536 A 0 0 0 0 1 455 190.01849948612536 Z" fill="#4285f4" clip-path="url(#rablfilter18)"></path><path d="M 505.28139085466665 200.90750256937307 A 2 2 0 0 1 507.28139085466665 202.90750256937307 L 507.28139085466665 208.79650565262074 A 2 2 0 0 1 505.28139085466665 210.79650565262074 L 455 210.79650565262074 A 0 0 0 0 1 455 210.79650565262074 L 455 200.90750256937307 A 0 0 0 0 1 455 200.90750256937307 Z" fill="#db4437" clip-path="url(#rablfilter18)"></path><path d="M 702.574603988 223.5231243576567 A 2 2 0 0 1 704.574603988 225.5231243576567 L 704.574603988 231.4121274409044 A 2 2 0 0 1 702.574603988 233.4121274409044 L 455 233.4121274409044 A 0 0 0 0 1 455 233.4121274409044 L 455 223.5231243576567 A 0 0 0 0 1 455 223.5231243576567 Z" fill="#4285f4" clip-path="url(#rablfilter18)"></path><path d="M 504.119937936 234.4121274409044 A 2 2 0 0 1 506.119937936 236.4121274409044 L 506.119937936 242.3011305241521 A 2 2 0 0 1 504.119937936 244.3011305241521 L 455 244.3011305241521 A 0 0 0 0 1 455 244.3011305241521 L 455 234.4121274409044 A 0 0 0 0 1 455 234.4121274409044 Z" fill="#db4437" clip-path="url(#rablfilter18)"></path><path d="M 707.0103258146667 257.0277492291881 A 2 2 0 0 1 709.0103258146667 259.0277492291881 L 709.0103258146667 264.91675231243573 A 2 2 0 0 1 707.0103258146667 266.91675231243573 L 455 266.91675231243573 A 0 0 0 0 1 455 266.91675231243573 L 455 257.0277492291881 A 0 0 0 0 1 455 257.0277492291881 Z" fill="#4285f4" clip-path="url(#rablfilter18)"></path><path d="M 510.5352106426667 267.91675231243573 A 2 2 0 0 1 512.5352106426667 269.91675231243573 L 512.5352106426667 275.80575539568343 A 2 2 0 0 1 510.5352106426667 277.80575539568343 L 455 277.80575539568343 A 0 0 0 0 1 455 277.80575539568343 L 455 267.91675231243573 A 0 0 0 0 1 455 267.91675231243573 Z" fill="#db4437" clip-path="url(#rablfilter18)"></path><path d="M 687.7304149786667 290.5323741007194 A 2 2 0 0 1 689.7304149786667 292.5323741007194 L 689.7304149786667 298.4213771839671 A 2 2 0 0 1 687.7304149786667 300.4213771839671 L 455 300.4213771839671 A 0 0 0 0 1 455 300.4213771839671 L 455 290.5323741007194 A 0 0 0 0 1 455 290.5323741007194 Z" fill="#4285f4" clip-path="url(#rablfilter18)"></path><path d="M 503.1413948626667 301.4213771839671 A 2 2 0 0 1 505.1413948626667 303.4213771839671 L 505.1413948626667 309.3103802672148 A 2 2 0 0 1 503.1413948626667 311.3103802672148 L 455 311.3103802672148 A 0 0 0 0 1 455 311.3103802672148 L 455 301.4213771839671 A 0 0 0 0 1 455 301.4213771839671 Z" fill="#db4437" clip-path="url(#rablfilter18)"></path><path d="M 687.9349125240001 324.03699897225073 A 2 2 0 0 1 689.9349125240001 326.03699897225073 L 689.9349125240001 331.92600205549843 A 2 2 0 0 1 687.9349125240001 333.92600205549843 L 455 333.92600205549843 A 0 0 0 0 1 455 333.92600205549843 L 455 324.03699897225073 A 0 0 0 0 1 455 324.03699897225073 Z" fill="#4285f4" clip-path="url(#rablfilter18)"></path><path d="M 505.0777335706667 334.92600205549843 A 2 2 0 0 1 507.0777335706667 336.92600205549843 L 507.0777335706667 342.8150051387461 A 2 2 0 0 1 505.0777335706667 344.8150051387461 L 455 344.8150051387461 A 0 0 0 0 1 455 344.8150051387461 L 455 334.92600205549843 A 0 0 0 0 1 455 334.92600205549843 Z" fill="#db4437" clip-path="url(#rablfilter18)"></path><path d="M 686.017042236 357.5416238437821 A 2 2 0 0 1 688.017042236 359.5416238437821 L 688.017042236 365.4306269270297 A 2 2 0 0 1 686.017042236 367.4306269270297 L 455 367.4306269270297 A 0 0 0 0 1 455 367.4306269270297 L 455 357.5416238437821 A 0 0 0 0 1 455 357.5416238437821 Z" fill="#4285f4" clip-path="url(#rablfilter18)"></path><path d="M 506.791411056 368.4306269270297 A 2 2 0 0 1 508.791411056 370.4306269270297 L 508.791411056 376.31963001027736 A 2 2 0 0 1 506.791411056 378.31963001027736 L 455 378.31963001027736 A 0 0 0 0 1 455 378.31963001027736 L 455 368.4306269270297 A 0 0 0 0 1 455 368.4306269270297 Z" fill="#db4437" clip-path="url(#rablfilter18)"></path><path d="M 664.1442269413334 391.0462487153134 A 2 2 0 0 1 666.1442269413334 393.0462487153134 L 666.1442269413334 398.93525179856107 A 2 2 0 0 1 664.1442269413334 400.93525179856107 L 455 400.93525179856107 A 0 0 0 0 1 455 400.93525179856107 L 455 391.0462487153134 A 0 0 0 0 1 455 391.0462487153134 Z" fill="#4285f4" clip-path="url(#rablfilter18)"></path><path d="M 542.8442327333333 401.93525179856107 A 2 2 0 0 1 544.8442327333333 403.93525179856107 L 544.8442327333333 409.8242548818087 A 2 2 0 0 1 542.8442327333333 411.8242548818087 L 455 411.8242548818087 A 0 0 0 0 1 455 411.8242548818087 L 455 401.93525179856107 A 0 0 0 0 1 455 401.93525179856107 Z" fill="#db4437" clip-path="url(#rablfilter18)"></path><path d="M 633.6541753653333 424.5508735868448 A 2 2 0 0 1 635.6541753653333 426.5508735868448 L 635.6541753653333 432.4398766700924 A 2 2 0 0 1 633.6541753653333 434.4398766700924 L 455 434.4398766700924 A 0 0 0 0 1 455 434.4398766700924 L 455 424.5508735868448 A 0 0 0 0 1 455 424.5508735868448 Z" fill="#4285f4" clip-path="url(#rablfilter18)"></path><path d="M 523.204744148 435.4398766700924 A 2 2 0 0 1 525.204744148 437.4398766700924 L 525.204744148 443.3288797533401 A 2 2 0 0 1 523.204744148 445.3288797533401 L 455 445.3288797533401 A 0 0 0 0 1 455 445.3288797533401 L 455 435.4398766700924 A 0 0 0 0 1 455 435.4398766700924 Z" fill="#db4437" clip-path="url(#rablfilter18)"></path><path d="M 603.6570621706667 458.0554984583761 A 2 2 0 0 1 605.6570621706667 460.0554984583761 L 605.6570621706667 465.94450154162377 A 2 2 0 0 1 603.6570621706667 467.94450154162377 L 455 467.94450154162377 A 0 0 0 0 1 455 467.94450154162377 L 455 458.0554984583761 A 0 0 0 0 1 455 458.0554984583761 Z" fill="#4285f4" clip-path="url(#rablfilter18)"></path><path d="M 499.6296701306667 468.94450154162377 A 2 2 0 0 1 501.6296701306667 470.94450154162377 L 501.6296701306667 476.83350462487147 A 2 2 0 0 1 499.6296701306667 478.83350462487147 L 455 478.83350462487147 A 0 0 0 0 1 455 478.83350462487147 L 455 468.94450154162377 A 0 0 0 0 1 455 468.94450154162377 Z" fill="#db4437" clip-path="url(#rablfilter18)"></path><path d="M 616.6923257613333 491.5601233299074 A 2 2 0 0 1 618.6923257613333 493.5601233299074 L 618.6923257613333 499.4491264131551 A 2 2 0 0 1 616.6923257613333 501.4491264131551 L 455 501.4491264131551 A 0 0 0 0 1 455 501.4491264131551 L 455 491.5601233299074 A 0 0 0 0 1 455 491.5601233299074 Z" fill="#4285f4" clip-path="url(#rablfilter18)"></path><path d="M 525.1178535186667 502.4491264131551 A 2 2 0 0 1 527.1178535186667 504.4491264131551 L 527.1178535186667 510.33812949640276 A 2 2 0 0 1 525.1178535186667 512.3381294964028 L 455 512.3381294964028 A 0 0 0 0 1 455 512.3381294964028 L 455 502.4491264131551 A 0 0 0 0 1 455 502.4491264131551 Z" fill="#db4437" clip-path="url(#rablfilter18)"></path><path d="M 581.428274896 525.0647482014388 A 2 2 0 0 1 583.428274896 527.0647482014388 L 583.428274896 532.9537512846864 A 2 2 0 0 1 581.428274896 534.9537512846864 L 455 534.9537512846864 A 0 0 0 0 1 455 534.9537512846864 L 455 525.0647482014388 A 0 0 0 0 1 455 525.0647482014388 Z" fill="#4285f4" clip-path="url(#rablfilter18)"></path><path d="M 505.3732629493333 535.9537512846864 A 2 2 0 0 1 507.3732629493333 537.9537512846864 L 507.3732629493333 543.8427543679342 A 2 2 0 0 1 505.3732629493333 545.8427543679342 L 455 545.8427543679342 A 0 0 0 0 1 455 545.8427543679342 L 455 535.9537512846864 A 0 0 0 0 1 455 535.9537512846864 Z" fill="#db4437" clip-path="url(#rablfilter18)"></path><path d="M 672.7235403013333 558.5693730729702 A 2 2 0 0 1 674.7235403013333 560.5693730729702 L 674.7235403013333 566.4583761562178 A 2 2 0 0 1 672.7235403013333 568.4583761562178 L 455 568.4583761562178 A 0 0 0 0 1 455 568.4583761562178 L 455 558.5693730729702 A 0 0 0 0 1 455 558.5693730729702 Z" fill="#4285f4" clip-path="url(#rablfilter18)"></path><path d="M 599.5824726613333 569.4583761562178 A 2 2 0 0 1 601.5824726613333 571.4583761562178 L 601.5824726613333 577.3473792394655 A 2 2 0 0 1 599.5824726613333 579.3473792394655 L 455 579.3473792394655 A 0 0 0 0 1 455 579.3473792394655 L 455 569.4583761562178 A 0 0 0 0 1 455 569.4583761562178 Z" fill="#db4437" clip-path="url(#rablfilter18)"></path><path d="M 812.6981499066667 592.0739979445015 A 2 2 0 0 1 814.6981499066667 594.0739979445015 L 814.6981499066667 599.9630010277491 A 2 2 0 0 1 812.6981499066667 601.9630010277491 L 455 601.9630010277491 A 0 0 0 0 1 455 601.9630010277491 L 455 592.0739979445015 A 0 0 0 0 1 455 592.0739979445015 Z" fill="#4285f4" clip-path="url(#rablfilter18)"></path><path d="M 744.7226733466666 602.9630010277491 A 2 2 0 0 1 746.7226733466666 604.9630010277491 L 746.7226733466666 610.8520041109969 A 2 2 0 0 1 744.7226733466666 612.8520041109969 L 455 612.8520041109969 A 0 0 0 0 1 455 612.8520041109969 L 455 602.9630010277491 A 0 0 0 0 1 455 602.9630010277491 Z" fill="#db4437" clip-path="url(#rablfilter18)"></path><path d="M 770.4538249773334 625.5786228160329 A 2 2 0 0 1 772.4538249773334 627.5786228160329 L 772.4538249773334 633.4676258992805 A 2 2 0 0 1 770.4538249773334 635.4676258992805 L 455 635.4676258992805 A 0 0 0 0 1 455 635.4676258992805 L 455 625.5786228160329 A 0 0 0 0 1 455 625.5786228160329 Z" fill="#4285f4" clip-path="url(#rablfilter18)"></path><path d="M 702.7860865226667 636.4676258992805 A 2 2 0 0 1 704.7860865226667 638.4676258992805 L 704.7860865226667 644.3566289825282 A 2 2 0 0 1 702.7860865226667 646.3566289825282 L 455 646.3566289825282 A 0 0 0 0 1 455 646.3566289825282 L 455 636.4676258992805 A 0 0 0 0 1 455 636.4676258992805 Z" fill="#db4437" clip-path="url(#rablfilter18)"></path><path d="M 580.264086056 659.0832476875642 A 2 2 0 0 1 582.264086056 661.0832476875642 L 582.264086056 666.9722507708118 A 2 2 0 0 1 580.264086056 668.9722507708118 L 455 668.9722507708118 A 0 0 0 0 1 455 668.9722507708118 L 455 659.0832476875642 A 0 0 0 0 1 455 659.0832476875642 Z" fill="#4285f4" clip-path="url(#rablfilter18)"></path><path d="M 513.7486552813333 669.9722507708118 A 2 2 0 0 1 515.7486552813333 671.9722507708118 L 515.7486552813333 677.8612538540594 A 2 2 0 0 1 513.7486552813333 679.8612538540594 L 455 679.8612538540594 A 0 0 0 0 1 455 679.8612538540594 L 455 669.9722507708118 A 0 0 0 0 1 455 669.9722507708118 Z" fill="#db4437" clip-path="url(#rablfilter18)"></path><path d="M 790.001178992 692.5878725590956 A 2 2 0 0 1 792.001178992 694.5878725590956 L 792.001178992 700.4768756423432 A 2 2 0 0 1 790.001178992 702.4768756423432 L 455 702.4768756423432 A 0 0 0 0 1 455 702.4768756423432 L 455 692.5878725590956 A 0 0 0 0 1 455 692.5878725590956 Z" fill="#4285f4" clip-path="url(#rablfilter18)"></path><path d="M 730.245468052 703.4768756423432 A 2 2 0 0 1 732.245468052 705.4768756423432 L 732.245468052 711.3658787255908 A 2 2 0 0 1 730.245468052 713.3658787255908 L 455 713.3658787255908 A 0 0 0 0 1 455 713.3658787255908 L 455 703.4768756423432 A 0 0 0 0 1 455 703.4768756423432 Z" fill="#db4437" clip-path="url(#rablfilter18)"></path><path d="M 566.724617904 726.0924974306268 A 2 2 0 0 1 568.724617904 728.0924974306268 L 568.724617904 733.9815005138745 A 2 2 0 0 1 566.724617904 735.9815005138745 L 455 735.9815005138745 A 0 0 0 0 1 455 735.9815005138745 L 455 726.0924974306268 A 0 0 0 0 1 455 726.0924974306268 Z" fill="#4285f4" clip-path="url(#rablfilter18)"></path><path d="M 509.29037573466667 736.9815005138745 A 2 2 0 0 1 511.29037573466667 738.9815005138745 L 511.29037573466667 744.8705035971221 A 2 2 0 0 1 509.29037573466667 746.8705035971221 L 455 746.8705035971221 A 0 0 0 0 1 455 746.8705035971221 L 455 736.9815005138745 A 0 0 0 0 1 455 736.9815005138745 Z" fill="#db4437" clip-path="url(#rablfilter18)"></path><path d="M 813.5797662146667 759.5971223021581 A 2 2 0 0 1 815.5797662146667 761.5971223021581 L 815.5797662146667 767.4861253854058 A 2 2 0 0 1 813.5797662146667 769.4861253854058 L 455 769.4861253854058 A 0 0 0 0 1 455 769.4861253854058 L 455 759.5971223021581 A 0 0 0 0 1 455 759.5971223021581 Z" fill="#4285f4" clip-path="url(#rablfilter18)"></path><path d="M 763.648794008 770.4861253854058 A 2 2 0 0 1 765.648794008 772.4861253854058 L 765.648794008 778.3751284686535 A 2 2 0 0 1 763.648794008 780.3751284686535 L 455 780.3751284686535 A 0 0 0 0 1 455 780.3751284686535 L 455 770.4861253854058 A 0 0 0 0 1 455 770.4861253854058 Z" fill="#db4437" clip-path="url(#rablfilter18)"></path><path d="M 551.2797455946667 793.1017471736895 A 2 2 0 0 1 553.2797455946667 795.1017471736895 L 553.2797455946667 800.9907502569372 A 2 2 0 0 1 551.2797455946667 802.9907502569372 L 455 802.9907502569372 A 0 0 0 0 1 455 802.9907502569372 L 455 793.1017471736895 A 0 0 0 0 1 455 793.1017471736895 Z" fill="#4285f4" clip-path="url(#rablfilter18)"></path><path d="M 506.9796841186667 803.9907502569372 A 2 2 0 0 1 508.9796841186667 805.9907502569372 L 508.9796841186667 811.8797533401848 A 2 2 0 0 1 506.9796841186667 813.8797533401848 L 455 813.8797533401848 A 0 0 0 0 1 455 813.8797533401848 L 455 803.9907502569372 A 0 0 0 0 1 455 803.9907502569372 Z" fill="#db4437" clip-path="url(#rablfilter18)"></path><path d="M 551.77997878 826.6063720452208 A 2 2 0 0 1 553.77997878 828.6063720452208 L 553.77997878 834.4953751284685 A 2 2 0 0 1 551.77997878 836.4953751284685 L 455 836.4953751284685 A 0 0 0 0 1 455 836.4953751284685 L 455 826.6063720452208 A 0 0 0 0 1 455 826.6063720452208 Z" fill="#4285f4" clip-path="url(#rablfilter18)"></path><path d="M 508.03753594266664 837.4953751284685 A 2 2 0 0 1 510.03753594266664 839.4953751284685 L 510.03753594266664 845.3843782117161 A 2 2 0 0 1 508.03753594266664 847.3843782117161 L 455 847.3843782117161 A 0 0 0 0 1 455 847.3843782117161 L 455 837.4953751284685 A 0 0 0 0 1 455 837.4953751284685 Z" fill="#db4437" clip-path="url(#rablfilter18)"></path><path d="M 769.3973700666667 860.1109969167522 A 2 2 0 0 1 771.3973700666667 862.1109969167522 L 771.3973700666667 867.9999999999999 A 2 2 0 0 1 769.3973700666667 869.9999999999999 L 455 869.9999999999999 A 0 0 0 0 1 455 869.9999999999999 L 455 860.1109969167522 A 0 0 0 0 1 455 860.1109969167522 Z" fill="#4285f4" clip-path="url(#rablfilter18)"></path><path d="M 726.175519 870.9999999999999 A 2 2 0 0 1 728.175519 872.9999999999999 L 728.175519 878.8890030832475 A 2 2 0 0 1 726.175519 880.8890030832475 L 455 880.8890030832475 A 0 0 0 0 1 455 880.8890030832475 L 455 870.9999999999999 A 0 0 0 0 1 455 870.9999999999999 Z" fill="#db4437" clip-path="url(#rablfilter18)"></path><path d="M 783.4116906933334 893.6156217882836 A 2 2 0 0 1 785.4116906933334 895.6156217882836 L 785.4116906933334 901.5046248715312 A 2 2 0 0 1 783.4116906933334 903.5046248715312 L 455 903.5046248715312 A 0 0 0 0 1 455 903.5046248715312 L 455 893.6156217882836 A 0 0 0 0 1 455 893.6156217882836 Z" fill="#4285f4" clip-path="url(#rablfilter18)"></path><path d="M 741.3599550986667 904.5046248715312 A 2 2 0 0 1 743.3599550986667 906.5046248715312 L 743.3599550986667 912.3936279547789 A 2 2 0 0 1 741.3599550986667 914.3936279547789 L 455 914.3936279547789 A 0 0 0 0 1 455 914.3936279547789 L 455 904.5046248715312 A 0 0 0 0 1 455 904.5046248715312 Z" fill="#db4437" clip-path="url(#rablfilter18)"></path><path d="M 556.601481576 927.1202466598148 A 2 2 0 0 1 558.601481576 929.1202466598148 L 558.601481576 935.0092497430626 A 2 2 0 0 1 556.601481576 937.0092497430626 L 455 937.0092497430626 A 0 0 0 0 1 455 937.0092497430626 L 455 927.1202466598148 A 0 0 0 0 1 455 927.1202466598148 Z" fill="#4285f4" clip-path="url(#rablfilter18)"></path><path d="M 517.9980246426667 938.0092497430626 A 2 2 0 0 1 519.9980246426667 940.0092497430626 L 519.9980246426667 945.8982528263102 A 2 2 0 0 1 517.9980246426667 947.8982528263102 L 455 947.8982528263102 A 0 0 0 0 1 455 947.8982528263102 L 455 938.0092497430626 A 0 0 0 0 1 455 938.0092497430626 Z" fill="#db4437" clip-path="url(#rablfilter18)"></path><path d="M 748.3498646946666 960.6248715313462 A 2 2 0 0 1 750.3498646946666 962.6248715313462 L 750.3498646946666 968.5138746145939 A 2 2 0 0 1 748.3498646946666 970.5138746145939 L 455 970.5138746145939 A 0 0 0 0 1 455 970.5138746145939 L 455 960.6248715313462 A 0 0 0 0 1 455 960.6248715313462 Z" fill="#4285f4" clip-path="url(#rablfilter18)"></path><path d="M 711.0671624786667 971.5138746145939 A 2 2 0 0 1 713.0671624786667 973.5138746145939 L 713.0671624786667 979.4028776978416 A 2 2 0 0 1 711.0671624786667 981.4028776978416 L 455 981.4028776978416 A 0 0 0 0 1 455 981.4028776978416 L 455 971.5138746145939 A 0 0 0 0 1 455 971.5138746145939 Z" fill="#db4437" clip-path="url(#rablfilter18)"></path><path d="M 787.26963564 994.1294964028776 A 2 2 0 0 1 789.26963564 996.1294964028776 L 789.26963564 1002.0184994861253 A 2 2 0 0 1 787.26963564 1004.0184994861253 L 455 1004.0184994861253 A 0 0 0 0 1 455 1004.0184994861253 L 455 994.1294964028776 A 0 0 0 0 1 455 994.1294964028776 Z" fill="#4285f4" clip-path="url(#rablfilter18)"></path><path d="M 756.3539663386666 1005.0184994861253 A 2 2 0 0 1 758.3539663386666 1007.0184994861253 L 758.3539663386666 1012.9075025693729 A 2 2 0 0 1 756.3539663386666 1014.9075025693729 L 455 1014.9075025693729 A 0 0 0 0 1 455 1014.9075025693729 L 455 1005.0184994861253 A 0 0 0 0 1 455 1005.0184994861253 Z" fill="#db4437" clip-path="url(#rablfilter18)"></path><path d="M 541.812290376 1027.634121274409 A 2 2 0 0 1 543.812290376 1029.634121274409 L 543.812290376 1035.5231243576566 A 2 2 0 0 1 541.812290376 1037.5231243576566 L 455 1037.5231243576566 A 0 0 0 0 1 455 1037.5231243576566 L 455 1027.634121274409 A 0 0 0 0 1 455 1027.634121274409 Z" fill="#4285f4" clip-path="url(#rablfilter18)"></path><path d="M 511.2577639586667 1038.5231243576566 A 2 2 0 0 1 513.2577639586667 1040.5231243576566 L 513.2577639586667 1046.4121274409042 A 2 2 0 0 1 511.2577639586667 1048.4121274409042 L 455 1048.4121274409042 A 0 0 0 0 1 455 1048.4121274409042 L 455 1038.5231243576566 A 0 0 0 0 1 455 1038.5231243576566 Z" fill="#db4437" clip-path="url(#rablfilter18)"></path><path d="M 550.469289024 1061.1387461459403 A 2 2 0 0 1 552.469289024 1063.1387461459403 L 552.469289024 1069.027749229188 A 2 2 0 0 1 550.469289024 1071.027749229188 L 455 1071.027749229188 A 0 0 0 0 1 455 1071.027749229188 L 455 1061.1387461459403 A 0 0 0 0 1 455 1061.1387461459403 Z" fill="#4285f4" clip-path="url(#rablfilter18)"></path><path d="M 522.5188656186667 1072.027749229188 A 2 2 0 0 1 524.5188656186667 1074.027749229188 L 524.5188656186667 1079.9167523124356 A 2 2 0 0 1 522.5188656186667 1081.9167523124356 L 455 1081.9167523124356 A 0 0 0 0 1 455 1081.9167523124356 L 455 1072.027749229188 A 0 0 0 0 1 455 1072.027749229188 Z" fill="#db4437" clip-path="url(#rablfilter18)"></path><path d="M 538.658877084 1094.6433710174717 A 2 2 0 0 1 540.658877084 1096.6433710174717 L 540.658877084 1102.5323741007192 A 2 2 0 0 1 538.658877084 1104.5323741007192 L 455 1104.5323741007192 A 0 0 0 0 1 455 1104.5323741007192 L 455 1094.6433710174717 A 0 0 0 0 1 455 1094.6433710174717 Z" fill="#4285f4" clip-path="url(#rablfilter18)"></path><path d="M 510.71261694533337 1105.5323741007192 A 2 2 0 0 1 512.7126169453334 1107.5323741007192 L 512.7126169453334 1113.421377183967 A 2 2 0 0 1 510.71261694533337 1115.421377183967 L 455 1115.421377183967 A 0 0 0 0 1 455 1115.421377183967 L 455 1105.5323741007192 A 0 0 0 0 1 455 1105.5323741007192 Z" fill="#db4437" clip-path="url(#rablfilter18)"></path><path d="M 573.02325194 1128.147995889003 A 2 2 0 0 1 575.02325194 1130.147995889003 L 575.02325194 1136.0369989722508 A 2 2 0 0 1 573.02325194 1138.0369989722508 L 455 1138.0369989722508 A 0 0 0 0 1 455 1138.0369989722508 L 455 1128.147995889003 A 0 0 0 0 1 455 1128.147995889003 Z" fill="#4285f4" clip-path="url(#rablfilter18)"></path><path d="M 549.3397136253334 1139.0369989722508 A 2 2 0 0 1 551.3397136253334 1141.0369989722508 L 551.3397136253334 1146.9260020554987 A 2 2 0 0 1 549.3397136253334 1148.9260020554987 L 455 1148.9260020554987 A 0 0 0 0 1 455 1148.9260020554987 L 455 1139.0369989722508 A 0 0 0 0 1 455 1139.0369989722508 Z" fill="#db4437" clip-path="url(#rablfilter18)"></path><path d="M 521.7898429666667 1161.6526207605343 A 2 2 0 0 1 523.7898429666667 1163.6526207605343 L 523.7898429666667 1169.541623843782 A 2 2 0 0 1 521.7898429666667 1171.541623843782 L 455 1171.541623843782 A 0 0 0 0 1 455 1171.541623843782 L 455 1161.6526207605343 A 0 0 0 0 1 455 1161.6526207605343 Z" fill="#4285f4" clip-path="url(#rablfilter18)"></path><path d="M 498.97079112533334 1172.541623843782 A 2 2 0 0 1 500.97079112533334 1174.541623843782 L 500.97079112533334 1180.4306269270298 A 2 2 0 0 1 498.97079112533334 1182.4306269270298 L 455 1182.4306269270298 A 0 0 0 0 1 455 1182.4306269270298 L 455 1172.541623843782 A 0 0 0 0 1 455 1172.541623843782 Z" fill="#db4437" clip-path="url(#rablfilter18)"></path><path d="M 534.9442486826667 1195.1572456320657 A 2 2 0 0 1 536.9442486826667 1197.1572456320657 L 536.9442486826667 1203.0462487153134 A 2 2 0 0 1 534.9442486826667 1205.0462487153134 L 455 1205.0462487153134 A 0 0 0 0 1 455 1205.0462487153134 L 455 1195.1572456320657 A 0 0 0 0 1 455 1195.1572456320657 Z" fill="#4285f4" clip-path="url(#rablfilter18)"></path><path d="M 513.3072742026667 1206.0462487153134 A 2 2 0 0 1 515.3072742026667 1208.0462487153134 L 515.3072742026667 1213.9352517985612 A 2 2 0 0 1 513.3072742026667 1215.9352517985612 L 455 1215.9352517985612 A 0 0 0 0 1 455 1215.9352517985612 L 455 1206.0462487153134 A 0 0 0 0 1 455 1206.0462487153134 Z" fill="#db4437" clip-path="url(#rablfilter18)"></path><path d="M 521.9444049813334 1228.6618705035971 A 2 2 0 0 1 523.9444049813334 1230.6618705035971 L 523.9444049813334 1236.5508735868448 A 2 2 0 0 1 521.9444049813334 1238.5508735868448 L 455 1238.5508735868448 A 0 0 0 0 1 455 1238.5508735868448 L 455 1228.6618705035971 A 0 0 0 0 1 455 1228.6618705035971 Z" fill="#4285f4" clip-path="url(#rablfilter18)"></path><path d="M 502.4092875893333 1239.5508735868448 A 2 2 0 0 1 504.4092875893333 1241.5508735868448 L 504.4092875893333 1247.4398766700926 A 2 2 0 0 1 502.4092875893333 1249.4398766700926 L 455 1249.4398766700926 A 0 0 0 0 1 455 1249.4398766700926 L 455 1239.5508735868448 A 0 0 0 0 1 455 1239.5508735868448 Z" fill="#db4437" clip-path="url(#rablfilter18)"></path><path d="M 612.8253623759999 1262.1664953751283 A 2 2 0 0 1 614.8253623759999 1264.1664953751283 L 614.8253623759999 1270.055498458376 A 2 2 0 0 1 612.8253623759999 1272.055498458376 L 455 1272.055498458376 A 0 0 0 0 1 455 1272.055498458376 L 455 1262.1664953751283 A 0 0 0 0 1 455 1262.1664953751283 Z" fill="#4285f4" clip-path="url(#rablfilter18)"></path><path d="M 595.9178550253333 1273.055498458376 A 2 2 0 0 1 597.9178550253333 1275.055498458376 L 597.9178550253333 1280.944501541624 A 2 2 0 0 1 595.9178550253333 1282.944501541624 L 455 1282.944501541624 A 0 0 0 0 1 455 1282.944501541624 L 455 1273.055498458376 A 0 0 0 0 1 455 1273.055498458376 Z" fill="#db4437" clip-path="url(#rablfilter18)"></path><path d="M 574.1014040213333 1295.6711202466597 A 2 2 0 0 1 576.1014040213333 1297.6711202466597 L 576.1014040213333 1303.5601233299074 A 2 2 0 0 1 574.1014040213333 1305.5601233299074 L 455 1305.5601233299074 A 0 0 0 0 1 455 1305.5601233299074 L 455 1295.6711202466597 A 0 0 0 0 1 455 1295.6711202466597 Z" fill="#4285f4" clip-path="url(#rablfilter18)"></path><path d="M 563.9217301093333 1306.5601233299074 A 2 2 0 0 1 565.9217301093333 1308.5601233299074 L 565.9217301093333 1314.4491264131552 A 2 2 0 0 1 563.9217301093333 1316.4491264131552 L 455 1316.4491264131552 A 0 0 0 0 1 455 1316.4491264131552 L 455 1306.5601233299074 A 0 0 0 0 1 455 1306.5601233299074 Z" fill="#db4437" clip-path="url(#rablfilter18)"></path><path d="M 561.6579938013333 1329.1757451181911 A 2 2 0 0 1 563.6579938013333 1331.1757451181911 L 563.6579938013333 1337.0647482014388 A 2 2 0 0 1 561.6579938013333 1339.0647482014388 L 455 1339.0647482014388 A 0 0 0 0 1 455 1339.0647482014388 L 455 1329.1757451181911 A 0 0 0 0 1 455 1329.1757451181911 Z" fill="#4285f4" clip-path="url(#rablfilter18)"></path><path d="M 551.5163759506667 1340.0647482014388 A 2 2 0 0 1 553.5163759506667 1342.0647482014388 L 553.5163759506667 1347.9537512846866 A 2 2 0 0 1 551.5163759506667 1349.9537512846866 L 455 1349.9537512846866 A 0 0 0 0 1 455 1349.9537512846866 L 455 1340.0647482014388 A 0 0 0 0 1 455 1340.0647482014388 Z" fill="#db4437" clip-path="url(#rablfilter18)"></path><path d="M 558.4646549933333 1362.6803699897223 A 2 2 0 0 1 560.4646549933333 1364.6803699897223 L 560.4646549933333 1370.5693730729702 A 2 2 0 0 1 558.4646549933333 1372.5693730729702 L 455 1372.5693730729702 A 0 0 0 0 1 455 1372.5693730729702 L 455 1362.6803699897223 A 0 0 0 0 1 455 1362.6803699897223 Z" fill="#4285f4" clip-path="url(#rablfilter18)"></path><path d="M 550.8991165093333 1373.5693730729702 A 2 2 0 0 1 552.8991165093333 1375.5693730729702 L 552.8991165093333 1381.458376156218 A 2 2 0 0 1 550.8991165093333 1383.458376156218 L 455 1383.458376156218 A 0 0 0 0 1 455 1383.458376156218 L 455 1373.5693730729702 A 0 0 0 0 1 455 1373.5693730729702 Z" fill="#db4437" clip-path="url(#rablfilter18)"></path><path d="M 515.1381736386667 1396.1849948612537 A 2 2 0 0 1 517.1381736386667 1398.1849948612537 L 517.1381736386667 1404.0739979445013 A 2 2 0 0 1 515.1381736386667 1406.0739979445013 L 455 1406.0739979445013 A 0 0 0 0 1 455 1406.0739979445013 L 455 1396.1849948612537 A 0 0 0 0 1 455 1396.1849948612537 Z" fill="#4285f4" clip-path="url(#rablfilter18)"></path><path d="M 513.4447182173333 1407.0739979445013 A 2 2 0 0 1 515.4447182173333 1409.0739979445013 L 515.4447182173333 1414.9630010277492 A 2 2 0 0 1 513.4447182173333 1416.9630010277492 L 455 1416.9630010277492 A 0 0 0 0 1 455 1416.9630010277492 L 455 1407.0739979445013 A 0 0 0 0 1 455 1407.0739979445013 Z" fill="#db4437" clip-path="url(#rablfilter18)"></path><path d="M 510.51787412399995 1429.689619732785 A 2 2 0 0 1 512.517874124 1431.689619732785 L 512.517874124 1437.5786228160327 A 2 2 0 0 1 510.51787412399995 1439.5786228160327 L 455 1439.5786228160327 A 0 0 0 0 1 455 1439.5786228160327 L 455 1429.689619732785 A 0 0 0 0 1 455 1429.689619732785 Z" fill="#4285f4" clip-path="url(#rablfilter18)"></path><path d="M 509.18572938533333 1440.5786228160327 A 2 2 0 0 1 511.18572938533333 1442.5786228160327 L 511.18572938533333 1448.4676258992806 A 2 2 0 0 1 509.18572938533333 1450.4676258992806 L 455 1450.4676258992806 A 0 0 0 0 1 455 1450.4676258992806 L 455 1440.5786228160327 A 0 0 0 0 1 455 1440.5786228160327 Z" fill="#db4437" clip-path="url(#rablfilter18)"></path><path d="M 518.8487093586666 1463.1942446043163 A 2 2 0 0 1 520.8487093586666 1465.1942446043163 L 520.8487093586666 1471.0832476875642 A 2 2 0 0 1 518.8487093586666 1473.0832476875642 L 455 1473.0832476875642 A 0 0 0 0 1 455 1473.0832476875642 L 455 1463.1942446043163 A 0 0 0 0 1 455 1463.1942446043163 Z" fill="#4285f4" clip-path="url(#rablfilter18)"></path><path d="M 517.6575721373333 1474.0832476875642 A 2 2 0 0 1 519.6575721373333 1476.0832476875642 L 519.6575721373333 1481.972250770812 A 2 2 0 0 1 517.6575721373333 1483.972250770812 L 455 1483.972250770812 A 0 0 0 0 1 455 1483.972250770812 L 455 1474.0832476875642 A 0 0 0 0 1 455 1474.0832476875642 Z" fill="#db4437" clip-path="url(#rablfilter18)"></path><path d="M 528.5197770586667 1496.6988694758477 A 2 2 0 0 1 530.5197770586667 1498.6988694758477 L 530.5197770586667 1504.5878725590956 A 2 2 0 0 1 528.5197770586667 1506.5878725590956 L 455 1506.5878725590956 A 0 0 0 0 1 455 1506.5878725590956 L 455 1496.6988694758477 A 0 0 0 0 1 455 1496.6988694758477 Z" fill="#4285f4" clip-path="url(#rablfilter18)"></path><path d="M 527.411690456 1507.5878725590956 A 2 2 0 0 1 529.411690456 1509.5878725590956 L 529.411690456 1515.4768756423432 A 2 2 0 0 1 527.411690456 1517.4768756423432 L 455 1517.4768756423432 A 0 0 0 0 1 455 1517.4768756423432 L 455 1507.5878725590956 A 0 0 0 0 1 455 1507.5878725590956 Z" fill="#db4437" clip-path="url(#rablfilter18)"></path><path d="M 509.603941568 1530.203494347379 A 2 2 0 0 1 511.603941568 1532.203494347379 L 511.603941568 1538.0924974306267 A 2 2 0 0 1 509.603941568 1540.0924974306267 L 455 1540.0924974306267 A 0 0 0 0 1 455 1540.0924974306267 L 455 1530.203494347379 A 0 0 0 0 1 455 1530.203494347379 Z" fill="#4285f4" clip-path="url(#rablfilter18)"></path><path d="M 508.563491776 1541.0924974306267 A 2 2 0 0 1 510.563491776 1543.0924974306267 L 510.563491776 1548.9815005138746 A 2 2 0 0 1 508.563491776 1550.9815005138746 L 455 1550.9815005138746 A 0 0 0 0 1 455 1550.9815005138746 L 455 1541.0924974306267 A 0 0 0 0 1 455 1541.0924974306267 Z" fill="#db4437" clip-path="url(#rablfilter18)"></path><path d="M 495.94254591733335 1563.7081192189105 A 2 2 0 0 1 497.94254591733335 1565.7081192189105 L 497.94254591733335 1571.5971223021581 A 2 2 0 0 1 495.94254591733335 1573.5971223021581 L 455 1573.5971223021581 A 0 0 0 0 1 455 1573.5971223021581 L 455 1563.7081192189105 A 0 0 0 0 1 455 1563.7081192189105 Z" fill="#4285f4" clip-path="url(#rablfilter18)"></path><path d="M 495.33988834133334 1574.5971223021581 A 2 2 0 0 1 497.33988834133334 1576.5971223021581 L 497.33988834133334 1582.486125385406 A 2 2 0 0 1 495.33988834133334 1584.486125385406 L 455 1584.486125385406 A 0 0 0 0 1 455 1584.486125385406 L 455 1574.5971223021581 A 0 0 0 0 1 455 1574.5971223021581 Z" fill="#db4437" clip-path="url(#rablfilter18)"></path><path d="M 509.84041088799995 1597.2127440904417 A 2 2 0 0 1 511.84041088799995 1599.2127440904417 L 511.84041088799995 1605.1017471736895 A 2 2 0 0 1 509.84041088799995 1607.1017471736895 L 455 1607.1017471736895 A 0 0 0 0 1 455 1607.1017471736895 L 455 1597.2127440904417 A 0 0 0 0 1 455 1597.2127440904417 Z" fill="#4285f4" clip-path="url(#rablfilter18)"></path><path d="M 509.40065665333333 1608.1017471736895 A 2 2 0 0 1 511.40065665333333 1610.1017471736895 L 511.40065665333333 1615.9907502569374 A 2 2 0 0 1 509.40065665333333 1617.9907502569374 L 455 1617.9907502569374 A 0 0 0 0 1 455 1617.9907502569374 L 455 1608.1017471736895 A 0 0 0 0 1 455 1608.1017471736895 Z" fill="#db4437" clip-path="url(#rablfilter18)"></path><path d="M 509.3651754773333 1630.717368961973 A 2 2 0 0 1 511.3651754773333 1632.717368961973 L 511.3651754773333 1638.606372045221 A 2 2 0 0 1 509.3651754773333 1640.606372045221 L 455 1640.606372045221 A 0 0 0 0 1 455 1640.606372045221 L 455 1630.717368961973 A 0 0 0 0 1 455 1630.717368961973 Z" fill="#4285f4" clip-path="url(#rablfilter18)"></path><path d="M 509.65768786133333 1641.606372045221 A 2 2 0 0 1 511.65768786133333 1643.606372045221 L 511.65768786133333 1649.4953751284686 A 2 2 0 0 1 509.65768786133333 1651.4953751284686 L 455 1651.4953751284686 A 0 0 0 0 1 455 1651.4953751284686 L 455 1641.606372045221 A 0 0 0 0 1 455 1641.606372045221 Z" fill="#db4437" clip-path="url(#rablfilter18)"></path><path d="M 493.059956292 1664.2219938335045 A 2 2 0 0 1 495.059956292 1666.2219938335045 L 495.059956292 1672.1109969167524 A 2 2 0 0 1 493.059956292 1674.1109969167524 L 455 1674.1109969167524 A 0 0 0 0 1 455 1674.1109969167524 L 455 1664.2219938335045 A 0 0 0 0 1 455 1664.2219938335045 Z" fill="#4285f4" clip-path="url(#rablfilter18)"></path><path d="M 493.4873492173333 1675.1109969167524 A 2 2 0 0 1 495.4873492173333 1677.1109969167524 L 495.4873492173333 1683 A 2 2 0 0 1 493.4873492173333 1685 L 455 1685 A 0 0 0 0 1 455 1685 L 455 1675.1109969167524 A 0 0 0 0 1 455 1675.1109969167524 Z" fill="#db4437" clip-path="url(#rablfilter18)"></path></g><g></g><g><text x="454.5" y="1714.5" style="cursor: default; user-select: none; -webkit-font-smoothing: antialiased; font-family: Roboto; font-size: 12px;" fill="#757575" dx="-3.375px">0</text><text x="665.8333333333333" y="1714.5" style="cursor: default; user-select: none; -webkit-font-smoothing: antialiased; font-family: Roboto; font-size: 12px;" fill="#757575" dx="-10.109375px">500</text><text x="877.1666666666666" y="1714.5" style="cursor: default; user-select: none; -webkit-font-smoothing: antialiased; font-family: Roboto; font-size: 12px;" fill="#757575" dx="-7.1328125px">1K</text><text x="1088.5" y="1714.5" style="cursor: default; user-select: none; -webkit-font-smoothing: antialiased; font-family: Roboto; font-size: 12px;" fill="#757575" dx="-12.0859375px">1.5K</text><text x="1299.8333333333333" y="1714.5" style="cursor: default; user-select: none; -webkit-font-smoothing: antialiased; font-family: Roboto; font-size: 12px;" fill="#757575" dx="-7.1328125px">2K</text><text x="1511.1666666666667" y="1714.5" style="cursor: default; user-select: none; -webkit-font-smoothing: antialiased; font-family: Roboto; font-size: 12px;" fill="#757575" dx="-12.0859375px">2.5K</text><text x="1722.5" y="1714.5" style="cursor: default; user-select: none; -webkit-font-smoothing: antialiased; font-family: Roboto; font-size: 12px;" fill="#757575" dx="-7.1328125px">3K</text><text x="1933.8333333333333" y="1714.5" style="cursor: default; user-select: none; -webkit-font-smoothing: antialiased; font-family: Roboto; font-size: 12px;" fill="#757575" dx="-12.0859375px">3.5K</text><text x="2145.1666666666665" y="1714.5" style="cursor: default; user-select: none; -webkit-font-smoothing: antialiased; font-family: Roboto; font-size: 12px;" fill="#757575" dx="-7.1328125px">4K</text><text x="2356.5" y="1714.5" style="cursor: default; user-select: none; -webkit-font-smoothing: antialiased; font-family: Roboto; font-size: 12px;" fill="#757575" dx="-12.0859375px">4.5K</text><text x="1409.90869140625" y="1746.5" style="cursor: default; user-select: none; -webkit-font-smoothing: antialiased; font-family: Roboto; font-size: 12px;" fill="#424242" dx="-33.625px">Render Time</text><text x="448.5" y="70.38900622753053" style="cursor: default; user-select: none; -webkit-font-smoothing: antialiased; font-family: Roboto; font-size: 12px;" fill="#757575" dx="-239.671875px">StormTrooper-render_cam-raytracing-embree</text><text x="448.5" y="103.89362492811273" style="cursor: default; user-select: none; -webkit-font-smoothing: antialiased; font-family: Roboto; font-size: 12px;" fill="#757575" dx="-306.8125px">Intel_Sponza-PhysCamera004-ambient_occlusion-embree</text><text x="448.5" y="137.3982512580895" style="cursor: default; user-select: none; -webkit-font-smoothing: antialiased; font-family: Roboto; font-size: 12px;" fill="#757575" dx="-287.40625px">StormTrooper-render_cam-ambient_occlusion-embree</text><text x="448.5" y="170.90287758806625" style="cursor: default; user-select: none; -webkit-font-smoothing: antialiased; font-family: Roboto; font-size: 12px;" fill="#757575" dx="-415.171875px">Intel_Sponza_Candles_Thin_Lens-PhysCamera004-ambient_occlusion-embree</text><text x="448.5" y="204.407503918043" style="cursor: default; user-select: none; -webkit-font-smoothing: antialiased; font-family: Roboto; font-size: 12px;" fill="#757575" dx="-306.8125px">Intel_Sponza-PhysCamera005-ambient_occlusion-embree</text><text x="448.5" y="237.91213024801976" style="cursor: default; user-select: none; -webkit-font-smoothing: antialiased; font-family: Roboto; font-size: 12px;" fill="#757575" dx="-306.8125px">Intel_Sponza-PhysCamera001-ambient_occlusion-embree</text><text x="448.5" y="271.41675657799647" style="cursor: default; user-select: none; -webkit-font-smoothing: antialiased; font-family: Roboto; font-size: 12px;" fill="#757575" dx="-415.171875px">Intel_Sponza_Candles_Thin_Lens-PhysCamera002-ambient_occlusion-embree</text><text x="448.5" y="304.92136764918416" style="cursor: default; user-select: none; -webkit-font-smoothing: antialiased; font-family: Roboto; font-size: 12px;" fill="#757575" dx="-306.8125px">Intel_Sponza-PhysCamera006-ambient_occlusion-embree</text><text x="448.5" y="338.42600923795" style="cursor: default; user-select: none; -webkit-font-smoothing: antialiased; font-family: Roboto; font-size: 12px;" fill="#757575" dx="-306.8125px">Intel_Sponza-PhysCamera002-ambient_occlusion-embree</text><text x="448.5" y="371.93062030913757" style="cursor: default; user-select: none; -webkit-font-smoothing: antialiased; font-family: Roboto; font-size: 12px;" fill="#757575" dx="-306.8125px">Intel_Sponza-PhysCamera003-ambient_occlusion-embree</text><text x="448.5" y="405.4352618979034" style="cursor: default; user-select: none; -webkit-font-smoothing: antialiased; font-family: Roboto; font-size: 12px;" fill="#757575" dx="-282.125px">Blenderman-Camera_001-ambient_occlusion-embree</text><text x="448.5" y="438.9398729690911" style="cursor: default; user-select: none; -webkit-font-smoothing: antialiased; font-family: Roboto; font-size: 12px;" fill="#757575" dx="-381.578125px">Intel_mooreLane-MASTER_cameraExtended-ambient_occlusion-embree</text><text x="448.5" y="472.4445145578569" style="cursor: default; user-select: none; -webkit-font-smoothing: antialiased; font-family: Roboto; font-size: 12px;" fill="#757575" dx="-271.21875px">CornellBox-render_cam-ambient_occlusion-embree</text><text x="448.5" y="505.9491256290446" style="cursor: default; user-select: none; -webkit-font-smoothing: antialiased; font-family: Roboto; font-size: 12px;" fill="#757575" dx="-307.453125px">HsdLogo-render_cam_5Shape-ambient_occlusion-embree</text><text x="448.5" y="539.4537672178103" style="cursor: default; user-select: none; -webkit-font-smoothing: antialiased; font-family: Roboto; font-size: 12px;" fill="#757575" dx="-304.953125px">Intel_mooreLane-MorrisStone-ambient_occlusion-embree</text><text x="448.5" y="572.9583782889981" style="cursor: default; user-select: none; -webkit-font-smoothing: antialiased; font-family: Roboto; font-size: 12px;" fill="#757575" dx="-223.484375px">CornellBox-render_cam-raytracing-embree</text><text x="448.5" y="606.4629893601857" style="cursor: default; user-select: none; -webkit-font-smoothing: antialiased; font-family: Roboto; font-size: 12px;" fill="#757575" dx="-259.078125px">Intel_Sponza-PhysCamera003-raytracing-embree</text><text x="448.5" y="639.9676004313735" style="cursor: default; user-select: none; -webkit-font-smoothing: antialiased; font-family: Roboto; font-size: 12px;" fill="#757575" dx="-259.078125px">Intel_Sponza-PhysCamera002-raytracing-embree</text><text x="448.5" y="673.4722725377173" style="cursor: default; user-select: none; -webkit-font-smoothing: antialiased; font-family: Roboto; font-size: 12px;" fill="#757575" dx="-307.453125px">HsdLogo-render_cam_3Shape-ambient_occlusion-embree</text><text x="448.5" y="706.9768836089052" style="cursor: default; user-select: none; -webkit-font-smoothing: antialiased; font-family: Roboto; font-size: 12px;" fill="#757575" dx="-367.4375px">Intel_Sponza_Candles_Thin_Lens-PhysCamera002-raytracing-embree</text><text x="448.5" y="740.4814946800927" style="cursor: default; user-select: none; -webkit-font-smoothing: antialiased; font-family: Roboto; font-size: 12px;" fill="#757575" dx="-307.453125px">HsdLogo-render_cam_2Shape-ambient_occlusion-embree</text><text x="448.5" y="773.9861057512803" style="cursor: default; user-select: none; -webkit-font-smoothing: antialiased; font-family: Roboto; font-size: 12px;" fill="#757575" dx="-367.4375px">Intel_Sponza_Candles_Thin_Lens-PhysCamera004-raytracing-embree</text><text x="448.5" y="807.4907778576244" style="cursor: default; user-select: none; -webkit-font-smoothing: antialiased; font-family: Roboto; font-size: 12px;" fill="#757575" dx="-307.453125px">HsdLogo-render_cam_1Shape-ambient_occlusion-embree</text><text x="448.5" y="840.995388928812" style="cursor: default; user-select: none; -webkit-font-smoothing: antialiased; font-family: Roboto; font-size: 12px;" fill="#757575" dx="-307.453125px">HsdLogo-render_cam_4Shape-ambient_occlusion-embree</text><text x="448.5" y="874.4999999999998" style="cursor: default; user-select: none; -webkit-font-smoothing: antialiased; font-family: Roboto; font-size: 12px;" fill="#757575" dx="-259.078125px">Intel_Sponza-PhysCamera001-raytracing-embree</text><text x="448.5" y="908.0046110711874" style="cursor: default; user-select: none; -webkit-font-smoothing: antialiased; font-family: Roboto; font-size: 12px;" fill="#757575" dx="-259.078125px">Intel_Sponza-PhysCamera005-raytracing-embree</text><text x="448.5" y="941.5092221423752" style="cursor: default; user-select: none; -webkit-font-smoothing: antialiased; font-family: Roboto; font-size: 12px;" fill="#757575" dx="-337.578125px">OpenChessSet-render_cam_5Shape-ambient_occlusion-embree</text><text x="448.5" y="975.013894248719" style="cursor: default; user-select: none; -webkit-font-smoothing: antialiased; font-family: Roboto; font-size: 12px;" fill="#757575" dx="-259.078125px">Intel_Sponza-PhysCamera006-raytracing-embree</text><text x="448.5" y="1008.5185053199068" style="cursor: default; user-select: none; -webkit-font-smoothing: antialiased; font-family: Roboto; font-size: 12px;" fill="#757575" dx="-259.078125px">Intel_Sponza-PhysCamera004-raytracing-embree</text><text x="448.5" y="1042.0231774262506" style="cursor: default; user-select: none; -webkit-font-smoothing: antialiased; font-family: Roboto; font-size: 12px;" fill="#757575" dx="-337.578125px">OpenChessSet-render_cam_1Shape-ambient_occlusion-embree</text><text x="448.5" y="1075.5277884974385" style="cursor: default; user-select: none; -webkit-font-smoothing: antialiased; font-family: Roboto; font-size: 12px;" fill="#757575" dx="-337.578125px">OpenChessSet-render_cam_7Shape-ambient_occlusion-embree</text><text x="448.5" y="1109.0323995686258" style="cursor: default; user-select: none; -webkit-font-smoothing: antialiased; font-family: Roboto; font-size: 12px;" fill="#757575" dx="-337.578125px">OpenChessSet-render_cam_3Shape-ambient_occlusion-embree</text><text x="448.5" y="1142.537010639814" style="cursor: default; user-select: none; -webkit-font-smoothing: antialiased; font-family: Roboto; font-size: 12px;" fill="#757575" dx="-259.71875px">HsdLogo-render_cam_2Shape-raytracing-embree</text><text x="448.5" y="1176.0416217110014" style="cursor: default; user-select: none; -webkit-font-smoothing: antialiased; font-family: Roboto; font-size: 12px;" fill="#757575" dx="-337.578125px">OpenChessSet-render_cam_2Shape-ambient_occlusion-embree</text><text x="448.5" y="1209.5462327821892" style="cursor: default; user-select: none; -webkit-font-smoothing: antialiased; font-family: Roboto; font-size: 12px;" fill="#757575" dx="-337.578125px">OpenChessSet-render_cam_6Shape-ambient_occlusion-embree</text><text x="448.5" y="1243.050843853377" style="cursor: default; user-select: none; -webkit-font-smoothing: antialiased; font-family: Roboto; font-size: 12px;" fill="#757575" dx="-337.578125px">OpenChessSet-render_cam_4Shape-ambient_occlusion-embree</text><text x="448.5" y="1276.5554549245644" style="cursor: default; user-select: none; -webkit-font-smoothing: antialiased; font-family: Roboto; font-size: 12px;" fill="#757575" dx="-259.71875px">HsdLogo-render_cam_5Shape-raytracing-embree</text><text x="448.5" y="1310.0600659957522" style="cursor: default; user-select: none; -webkit-font-smoothing: antialiased; font-family: Roboto; font-size: 12px;" fill="#757575" dx="-259.71875px">HsdLogo-render_cam_3Shape-raytracing-embree</text><text x="448.5" y="1343.5647991372525" style="cursor: default; user-select: none; -webkit-font-smoothing: antialiased; font-family: Roboto; font-size: 12px;" fill="#757575" dx="-259.71875px">HsdLogo-render_cam_1Shape-raytracing-embree</text><text x="448.5" y="1377.0694102084403" style="cursor: default; user-select: none; -webkit-font-smoothing: antialiased; font-family: Roboto; font-size: 12px;" fill="#757575" dx="-259.71875px">HsdLogo-render_cam_4Shape-raytracing-embree</text><text x="448.5" y="1410.5740212796277" style="cursor: default; user-select: none; -webkit-font-smoothing: antialiased; font-family: Roboto; font-size: 12px;" fill="#757575" dx="-214.828125px">Blenderman-Camera_001-debug-embree</text><text x="448.5" y="1444.0786323508155" style="cursor: default; user-select: none; -webkit-font-smoothing: antialiased; font-family: Roboto; font-size: 12px;" fill="#757575" dx="-289.828125px">OpenChessSet-render_cam_5Shape-raytracing-embree</text><text x="448.5" y="1477.5832434220033" style="cursor: default; user-select: none; -webkit-font-smoothing: antialiased; font-family: Roboto; font-size: 12px;" fill="#757575" dx="-289.828125px">OpenChessSet-render_cam_6Shape-raytracing-embree</text><text x="448.5" y="1511.0878544931911" style="cursor: default; user-select: none; -webkit-font-smoothing: antialiased; font-family: Roboto; font-size: 12px;" fill="#757575" dx="-289.828125px">OpenChessSet-render_cam_7Shape-raytracing-embree</text><text x="448.5" y="1544.5924655643785" style="cursor: default; user-select: none; -webkit-font-smoothing: antialiased; font-family: Roboto; font-size: 12px;" fill="#757575" dx="-289.828125px">OpenChessSet-render_cam_1Shape-raytracing-embree</text><text x="448.5" y="1578.0970766355663" style="cursor: default; user-select: none; -webkit-font-smoothing: antialiased; font-family: Roboto; font-size: 12px;" fill="#757575" dx="-289.828125px">OpenChessSet-render_cam_2Shape-raytracing-embree</text><text x="448.5" y="1611.601687706754" style="cursor: default; user-select: none; -webkit-font-smoothing: antialiased; font-family: Roboto; font-size: 12px;" fill="#757575" dx="-289.828125px">OpenChessSet-render_cam_3Shape-raytracing-embree</text><text x="448.5" y="1645.1064208482544" style="cursor: default; user-select: none; -webkit-font-smoothing: antialiased; font-family: Roboto; font-size: 12px;" fill="#757575" dx="-289.828125px">OpenChessSet-render_cam_4Shape-raytracing-embree</text><text x="448.5" y="1678.6110319194422" style="cursor: default; user-select: none; -webkit-font-smoothing: antialiased; font-family: Roboto; font-size: 12px;" fill="#757575" dx="-220.109375px">StormTrooper-render_cam-debug-embree</text><text x="14.697265625" y="867.5" style="cursor: default; user-select: none; -webkit-font-smoothing: antialiased; font-family: Roboto; font-size: 12px;" fill="#424242" dx="-16.375px" transform="rotate(-90 14.697265625 870.5)">Scene</text></g><g></g><g></g><g></g></svg>