<svg width="2510" height="1750" xmlns="http://www.w3.org/2000/svg"><defs><clipPath id="rablfilter12"><rect x="454.5" y="55.5" width="1903" height="1642"></rect></clipPath></defs><g><rect x="0" y="0" width="2510" height="1750" fill="#ffffff" fill-opacity="1" stroke="#ffffff" stroke-opacity="0" stroke-width="0"></rect><text x="0" y="15" style="cursor: default; user-select: none; -webkit-font-smoothing: antialiased; font-family: Roboto; font-size: 16px;" fill="#757575" dx="0px">Relative Timing</text><rect x="2409.9013671875" y="55.5" width="12" height="12" rx="2" ry="2" fill="#4285f4"></rect><text x="2429.9013671875" y="68.5" style="cursor: default; user-select: none; -webkit-font-smoothing: antialiased; font-family: Roboto;" fill="#757575" dx="0px">Baseline</text><rect x="2409.9013671875" y="88.5" width="12" height="12" rx="2" ry="2" fill="#db4437"></rect><text x="2429.9013671875" y="101.5" style="cursor: default; user-select: none; -webkit-font-smoothing: antialiased; font-family: Roboto;" fill="#757575" dx="0px">New revision</text><rect x="454.5" y="55.5" width="1903" height="1642" fill="#ffffff" fill-opacity="1" stroke="#ffffff" stroke-opacity="0" stroke-width="1"></rect></g><g><line x1="454.5" x2="454.5" y1="55.5" y2="1697.5" stroke="#9E9E9E" stroke-width="1"></line><line x1="627.5" x2="627.5" y1="55.5" y2="1697.5" stroke="#E0E0E0" stroke-width="1"></line><line x1="800.5" x2="800.5" y1="55.5" y2="1697.5" stroke="#E0E0E0" stroke-width="1"></line><line x1="973.5000000000001" x2="973.5000000000001" y1="55.5" y2="1697.5" stroke="#E0E0E0" stroke-width="1"></line><line x1="1146.5" x2="1146.5" y1="55.5" y2="1697.5" stroke="#E0E0E0" stroke-width="1"></line><line x1="1319.5" x2="1319.5" y1="55.5" y2="1697.5" stroke="#E0E0E0" stroke-width="1"></line><line x1="1492.5000000000002" x2="1492.5000000000002" y1="55.5" y2="1697.5" stroke="#E0E0E0" stroke-width="1"></line><line x1="1665.5" x2="1665.5" y1="55.5" y2="1697.5" stroke="#E0E0E0" stroke-width="1"></line><line x1="1838.5" x2="1838.5" y1="55.5" y2="1697.5" stroke="#E0E0E0" stroke-width="1"></line><line x1="2011.4999999999998" x2="2011.4999999999998" y1="55.5" y2="1697.5" stroke="#E0E0E0" stroke-width="1"></line><line x1="2184.5" x2="2184.5" y1="55.5" y2="1697.5" stroke="#E0E0E0" stroke-width="1"></line><line x1="2357.5" x2="2357.5" y1="55.5" y2="1697.5" stroke="#E0E0E0" stroke-width="1"></line></g><g><path d="M 2182 56 A 2 2 0 0 1 2184 58 L 2184 63.88900308324769 A 2 2 0 0 1 2182 65.88900308324769 L 455 65.88900308324769 A 0 0 0 0 1 455 65.88900308324769 L 455 56 A 0 0 0 0 1 455 56 Z" fill="#4285f4" clip-path="url(#rablfilter12)"></path><path d="M 792.5590090817316 66.88900308324769 A 2 2 0 0 1 794.5590090817316 68.88900308324769 L 794.5590090817316 74.77800616649537 A 2 2 0 0 1 792.5590090817316 76.77800616649537 L 455 76.77800616649537 A 0 0 0 0 1 455 76.77800616649537 L 455 66.88900308324769 A 0 0 0 0 1 455 66.88900308324769 Z" fill="#db4437" clip-path="url(#rablfilter12)"></path><path d="M 2182 89.50462487153135 A 2 2 0 0 1 2184 91.50462487153135 L 2184 97.39362795477902 A 2 2 0 0 1 2182 99.39362795477902 L 455 99.39362795477902 A 0 0 0 0 1 455 99.39362795477902 L 455 89.50462487153135 A 0 0 0 0 1 455 89.50462487153135 Z" fill="#4285f4" clip-path="url(#rablfilter12)"></path><path d="M 808.1229450756986 100.39362795477902 A 2 2 0 0 1 810.1229450756986 102.39362795477902 L 810.1229450756986 108.28263103802672 A 2 2 0 0 1 808.1229450756986 110.28263103802672 L 455 110.28263103802672 A 0 0 0 0 1 455 110.28263103802672 L 455 100.39362795477902 A 0 0 0 0 1 455 100.39362795477902 Z" fill="#db4437" clip-path="url(#rablfilter12)"></path><path d="M 2182 123.00924974306268 A 2 2 0 0 1 2184 125.00924974306268 L 2184 130.89825282631037 A 2 2 0 0 1 2182 132.89825282631037 L 455 132.89825282631037 A 0 0 0 0 1 455 132.89825282631037 L 455 123.00924974306268 A 0 0 0 0 1 455 123.00924974306268 Z" fill="#4285f4" clip-path="url(#rablfilter12)"></path><path d="M 811.842901851291 133.89825282631037 A 2 2 0 0 1 813.842901851291 135.89825282631037 L 813.842901851291 141.78725590955807 A 2 2 0 0 1 811.842901851291 143.78725590955807 L 455 143.78725590955807 A 0 0 0 0 1 455 143.78725590955807 L 455 133.89825282631037 A 0 0 0 0 1 455 133.89825282631037 Z" fill="#db4437" clip-path="url(#rablfilter12)"></path><path d="M 2182 156.51387461459404 A 2 2 0 0 1 2184 158.51387461459404 L 2184 164.40287769784172 A 2 2 0 0 1 2182 166.40287769784172 L 455 166.40287769784172 A 0 0 0 0 1 455 166.40287769784172 L 455 156.51387461459404 A 0 0 0 0 1 455 156.51387461459404 Z" fill="#4285f4" clip-path="url(#rablfilter12)"></path><path d="M 827.3211613377093 167.40287769784172 A 2 2 0 0 1 829.3211613377093 169.40287769784172 L 829.3211613377093 175.29188078108942 A 2 2 0 0 1 827.3211613377093 177.29188078108942 L 455 177.29188078108942 A 0 0 0 0 1 455 177.29188078108942 L 455 167.40287769784172 A 0 0 0 0 1 455 167.40287769784172 Z" fill="#db4437" clip-path="url(#rablfilter12)"></path><path d="M 2182 190.01849948612536 A 2 2 0 0 1 2184 192.01849948612536 L 2184 197.90750256937307 A 2 2 0 0 1 2182 199.90750256937307 L 455 199.90750256937307 A 0 0 0 0 1 455 199.90750256937307 L 455 190.01849948612536 A 0 0 0 0 1 455 190.01849948612536 Z" fill="#4285f4" clip-path="url(#rablfilter12)"></path><path d="M 841.1941133040777 200.90750256937307 A 2 2 0 0 1 843.1941133040777 202.90750256937307 L 843.1941133040777 208.79650565262074 A 2 2 0 0 1 841.1941133040777 210.79650565262074 L 455 210.79650565262074 A 0 0 0 0 1 455 210.79650565262074 L 455 200.90750256937307 A 0 0 0 0 1 455 200.90750256937307 Z" fill="#db4437" clip-path="url(#rablfilter12)"></path><path d="M 2182 223.5231243576567 A 2 2 0 0 1 2184 225.5231243576567 L 2184 231.4121274409044 A 2 2 0 0 1 2182 233.4121274409044 L 455 233.4121274409044 A 0 0 0 0 1 455 233.4121274409044 L 455 223.5231243576567 A 0 0 0 0 1 455 223.5231243576567 Z" fill="#4285f4" clip-path="url(#rablfilter12)"></path><path d="M 849.1051528533403 234.4121274409044 A 2 2 0 0 1 851.1051528533403 236.4121274409044 L 851.1051528533403 242.3011305241521 A 2 2 0 0 1 849.1051528533403 244.3011305241521 L 455 244.3011305241521 A 0 0 0 0 1 455 244.3011305241521 L 455 234.4121274409044 A 0 0 0 0 1 455 234.4121274409044 Z" fill="#db4437" clip-path="url(#rablfilter12)"></path><path d="M 2182 257.0277492291881 A 2 2 0 0 1 2184 259.0277492291881 L 2184 264.91675231243573 A 2 2 0 0 1 2182 266.91675231243573 L 455 266.91675231243573 A 0 0 0 0 1 455 266.91675231243573 L 455 257.0277492291881 A 0 0 0 0 1 455 257.0277492291881 Z" fill="#4285f4" clip-path="url(#rablfilter12)"></path><path d="M 857.0522997008383 267.91675231243573 A 2 2 0 0 1 859.0522997008383 269.91675231243573 L 859.0522997008383 275.80575539568343 A 2 2 0 0 1 857.0522997008383 277.80575539568343 L 455 277.80575539568343 A 0 0 0 0 1 455 277.80575539568343 L 455 267.91675231243573 A 0 0 0 0 1 455 267.91675231243573 Z" fill="#db4437" clip-path="url(#rablfilter12)"></path><path d="M 2182 290.5323741007194 A 2 2 0 0 1 2184 292.5323741007194 L 2184 298.4213771839671 A 2 2 0 0 1 2182 300.4213771839671 L 455 300.4213771839671 A 0 0 0 0 1 455 300.4213771839671 L 455 290.5323741007194 A 0 0 0 0 1 455 290.5323741007194 Z" fill="#4285f4" clip-path="url(#rablfilter12)"></path><path d="M 861.0695921221786 301.4213771839671 A 2 2 0 0 1 863.0695921221786 303.4213771839671 L 863.0695921221786 309.3103802672148 A 2 2 0 0 1 861.0695921221786 311.3103802672148 L 455 311.3103802672148 A 0 0 0 0 1 455 311.3103802672148 L 455 301.4213771839671 A 0 0 0 0 1 455 301.4213771839671 Z" fill="#db4437" clip-path="url(#rablfilter12)"></path><path d="M 2182 324.03699897225073 A 2 2 0 0 1 2184 326.03699897225073 L 2184 331.92600205549843 A 2 2 0 0 1 2182 333.92600205549843 L 455 333.92600205549843 A 0 0 0 0 1 455 333.92600205549843 L 455 324.03699897225073 A 0 0 0 0 1 455 324.03699897225073 Z" fill="#4285f4" clip-path="url(#rablfilter12)"></path><path d="M 903.2324767734949 334.92600205549843 A 2 2 0 0 1 905.2324767734949 336.92600205549843 L 905.2324767734949 342.8150051387461 A 2 2 0 0 1 903.2324767734949 344.8150051387461 L 455 344.8150051387461 A 0 0 0 0 1 455 344.8150051387461 L 455 334.92600205549843 A 0 0 0 0 1 455 334.92600205549843 Z" fill="#db4437" clip-path="url(#rablfilter12)"></path><path d="M 2182 357.5416238437821 A 2 2 0 0 1 2184 359.5416238437821 L 2184 365.4306269270297 A 2 2 0 0 1 2182 367.4306269270297 L 455 367.4306269270297 A 0 0 0 0 1 455 367.4306269270297 L 455 357.5416238437821 A 0 0 0 0 1 455 357.5416238437821 Z" fill="#4285f4" clip-path="url(#rablfilter12)"></path><path d="M 995.3266881652078 368.4306269270297 A 2 2 0 0 1 997.3266881652078 370.4306269270297 L 997.3266881652078 376.31963001027736 A 2 2 0 0 1 995.3266881652078 378.31963001027736 L 455 378.31963001027736 A 0 0 0 0 1 455 378.31963001027736 L 455 368.4306269270297 A 0 0 0 0 1 455 368.4306269270297 Z" fill="#db4437" clip-path="url(#rablfilter12)"></path><path d="M 2182 391.0462487153134 A 2 2 0 0 1 2184 393.0462487153134 L 2184 398.93525179856107 A 2 2 0 0 1 2182 400.93525179856107 L 455 400.93525179856107 A 0 0 0 0 1 455 400.93525179856107 L 455 391.0462487153134 A 0 0 0 0 1 455 391.0462487153134 Z" fill="#4285f4" clip-path="url(#rablfilter12)"></path><path d="M 1130.1248332349003 401.93525179856107 A 2 2 0 0 1 1132.1248332349003 403.93525179856107 L 1132.1248332349003 409.8242548818087 A 2 2 0 0 1 1130.1248332349003 411.8242548818087 L 455 411.8242548818087 A 0 0 0 0 1 455 411.8242548818087 L 455 401.93525179856107 A 0 0 0 0 1 455 401.93525179856107 Z" fill="#db4437" clip-path="url(#rablfilter12)"></path><path d="M 2182 424.5508735868448 A 2 2 0 0 1 2184 426.5508735868448 L 2184 432.4398766700924 A 2 2 0 0 1 2182 434.4398766700924 L 455 434.4398766700924 A 0 0 0 0 1 455 434.4398766700924 L 455 424.5508735868448 A 0 0 0 0 1 455 424.5508735868448 Z" fill="#4285f4" clip-path="url(#rablfilter12)"></path><path d="M 1165.4124670713686 435.4398766700924 A 2 2 0 0 1 1167.4124670713686 437.4398766700924 L 1167.4124670713686 443.3288797533401 A 2 2 0 0 1 1165.4124670713686 445.3288797533401 L 455 445.3288797533401 A 0 0 0 0 1 455 445.3288797533401 L 455 435.4398766700924 A 0 0 0 0 1 455 435.4398766700924 Z" fill="#db4437" clip-path="url(#rablfilter12)"></path><path d="M 2182 458.0554984583761 A 2 2 0 0 1 2184 460.0554984583761 L 2184 465.94450154162377 A 2 2 0 0 1 2182 467.94450154162377 L 455 467.94450154162377 A 0 0 0 0 1 455 467.94450154162377 L 455 458.0554984583761 A 0 0 0 0 1 455 458.0554984583761 Z" fill="#4285f4" clip-path="url(#rablfilter12)"></path><path d="M 1192.8192289490303 468.94450154162377 A 2 2 0 0 1 1194.8192289490303 470.94450154162377 L 1194.8192289490303 476.83350462487147 A 2 2 0 0 1 1192.8192289490303 478.83350462487147 L 455 478.83350462487147 A 0 0 0 0 1 455 478.83350462487147 L 455 468.94450154162377 A 0 0 0 0 1 455 468.94450154162377 Z" fill="#db4437" clip-path="url(#rablfilter12)"></path><path d="M 2182 491.5601233299074 A 2 2 0 0 1 2184 493.5601233299074 L 2184 499.4491264131551 A 2 2 0 0 1 2182 501.4491264131551 L 455 501.4491264131551 A 0 0 0 0 1 455 501.4491264131551 L 455 491.5601233299074 A 0 0 0 0 1 455 491.5601233299074 Z" fill="#4285f4" clip-path="url(#rablfilter12)"></path><path d="M 1220.0618146749841 502.4491264131551 A 2 2 0 0 1 1222.0618146749841 504.4491264131551 L 1222.0618146749841 510.33812949640276 A 2 2 0 0 1 1220.0618146749841 512.3381294964028 L 455 512.3381294964028 A 0 0 0 0 1 455 512.3381294964028 L 455 502.4491264131551 A 0 0 0 0 1 455 502.4491264131551 Z" fill="#db4437" clip-path="url(#rablfilter12)"></path><path d="M 2182 525.0647482014388 A 2 2 0 0 1 2184 527.0647482014388 L 2184 532.9537512846864 A 2 2 0 0 1 2182 534.9537512846864 L 455 534.9537512846864 A 0 0 0 0 1 455 534.9537512846864 L 455 525.0647482014388 A 0 0 0 0 1 455 525.0647482014388 Z" fill="#4285f4" clip-path="url(#rablfilter12)"></path><path d="M 1284.8533490666036 535.9537512846864 A 2 2 0 0 1 1286.8533490666036 537.9537512846864 L 1286.8533490666036 543.8427543679342 A 2 2 0 0 1 1284.8533490666036 545.8427543679342 L 455 545.8427543679342 A 0 0 0 0 1 455 545.8427543679342 L 455 535.9537512846864 A 0 0 0 0 1 455 535.9537512846864 Z" fill="#db4437" clip-path="url(#rablfilter12)"></path><path d="M 2182 558.5693730729702 A 2 2 0 0 1 2184 560.5693730729702 L 2184 566.4583761562178 A 2 2 0 0 1 2182 568.4583761562178 L 455 568.4583761562178 A 0 0 0 0 1 455 568.4583761562178 L 455 558.5693730729702 A 0 0 0 0 1 455 558.5693730729702 Z" fill="#4285f4" clip-path="url(#rablfilter12)"></path><path d="M 1315.9152767011976 569.4583761562178 A 2 2 0 0 1 1317.9152767011976 571.4583761562178 L 1317.9152767011976 577.3473792394655 A 2 2 0 0 1 1315.9152767011976 579.3473792394655 L 455 579.3473792394655 A 0 0 0 0 1 455 579.3473792394655 L 455 569.4583761562178 A 0 0 0 0 1 455 569.4583761562178 Z" fill="#db4437" clip-path="url(#rablfilter12)"></path><path d="M 2182 592.0739979445015 A 2 2 0 0 1 2184 594.0739979445015 L 2184 599.9630010277491 A 2 2 0 0 1 2182 601.9630010277491 L 455 601.9630010277491 A 0 0 0 0 1 455 601.9630010277491 L 455 592.0739979445015 A 0 0 0 0 1 455 592.0739979445015 Z" fill="#4285f4" clip-path="url(#rablfilter12)"></path><path d="M 1410.0489248393374 602.9630010277491 A 2 2 0 0 1 1412.0489248393374 604.9630010277491 L 1412.0489248393374 610.8520041109969 A 2 2 0 0 1 1410.0489248393374 612.8520041109969 L 455 612.8520041109969 A 0 0 0 0 1 455 612.8520041109969 L 455 602.9630010277491 A 0 0 0 0 1 455 602.9630010277491 Z" fill="#db4437" clip-path="url(#rablfilter12)"></path><path d="M 2182 625.5786228160329 A 2 2 0 0 1 2184 627.5786228160329 L 2184 633.4676258992805 A 2 2 0 0 1 2182 635.4676258992805 L 455 635.4676258992805 A 0 0 0 0 1 455 635.4676258992805 L 455 625.5786228160329 A 0 0 0 0 1 455 625.5786228160329 Z" fill="#4285f4" clip-path="url(#rablfilter12)"></path><path d="M 1423.5870695318795 636.4676258992805 A 2 2 0 0 1 1425.5870695318795 638.4676258992805 L 1425.5870695318795 644.3566289825282 A 2 2 0 0 1 1423.5870695318795 646.3566289825282 L 455 646.3566289825282 A 0 0 0 0 1 455 646.3566289825282 L 455 636.4676258992805 A 0 0 0 0 1 455 636.4676258992805 Z" fill="#db4437" clip-path="url(#rablfilter12)"></path><path d="M 2182 659.0832476875642 A 2 2 0 0 1 2184 661.0832476875642 L 2184 666.9722507708118 A 2 2 0 0 1 2182 668.9722507708118 L 455 668.9722507708118 A 0 0 0 0 1 455 668.9722507708118 L 455 659.0832476875642 A 0 0 0 0 1 455 659.0832476875642 Z" fill="#4285f4" clip-path="url(#rablfilter12)"></path><path d="M 1543.538866482081 669.9722507708118 A 2 2 0 0 1 1545.538866482081 671.9722507708118 L 1545.538866482081 677.8612538540594 A 2 2 0 0 1 1543.538866482081 679.8612538540594 L 455 679.8612538540594 A 0 0 0 0 1 455 679.8612538540594 L 455 669.9722507708118 A 0 0 0 0 1 455 669.9722507708118 Z" fill="#db4437" clip-path="url(#rablfilter12)"></path><path d="M 2182 692.5878725590956 A 2 2 0 0 1 2184 694.5878725590956 L 2184 700.4768756423432 A 2 2 0 0 1 2182 702.4768756423432 L 455 702.4768756423432 A 0 0 0 0 1 455 702.4768756423432 L 455 692.5878725590956 A 0 0 0 0 1 455 692.5878725590956 Z" fill="#4285f4" clip-path="url(#rablfilter12)"></path><path d="M 1593.4465795194558 703.4768756423432 A 2 2 0 0 1 1595.4465795194558 705.4768756423432 L 1595.4465795194558 711.3658787255908 A 2 2 0 0 1 1593.4465795194558 713.3658787255908 L 455 713.3658787255908 A 0 0 0 0 1 455 713.3658787255908 L 455 703.4768756423432 A 0 0 0 0 1 455 703.4768756423432 Z" fill="#db4437" clip-path="url(#rablfilter12)"></path><path d="M 2182 726.0924974306268 A 2 2 0 0 1 2184 728.0924974306268 L 2184 733.9815005138745 A 2 2 0 0 1 2182 735.9815005138745 L 455 735.9815005138745 A 0 0 0 0 1 455 735.9815005138745 L 455 726.0924974306268 A 0 0 0 0 1 455 726.0924974306268 Z" fill="#4285f4" clip-path="url(#rablfilter12)"></path><path d="M 1608.730620374905 736.9815005138745 A 2 2 0 0 1 1610.730620374905 738.9815005138745 L 1610.730620374905 744.8705035971221 A 2 2 0 0 1 1608.730620374905 746.8705035971221 L 455 746.8705035971221 A 0 0 0 0 1 455 746.8705035971221 L 455 736.9815005138745 A 0 0 0 0 1 455 736.9815005138745 Z" fill="#db4437" clip-path="url(#rablfilter12)"></path><path d="M 2182 759.5971223021581 A 2 2 0 0 1 2184 761.5971223021581 L 2184 767.4861253854058 A 2 2 0 0 1 2182 769.4861253854058 L 455 769.4861253854058 A 0 0 0 0 1 455 769.4861253854058 L 455 759.5971223021581 A 0 0 0 0 1 455 759.5971223021581 Z" fill="#4285f4" clip-path="url(#rablfilter12)"></path><path d="M 1616.3451997110546 770.4861253854058 A 2 2 0 0 1 1618.3451997110546 772.4861253854058 L 1618.3451997110546 778.3751284686535 A 2 2 0 0 1 1616.3451997110546 780.3751284686535 L 455 780.3751284686535 A 0 0 0 0 1 455 780.3751284686535 L 455 770.4861253854058 A 0 0 0 0 1 455 770.4861253854058 Z" fill="#db4437" clip-path="url(#rablfilter12)"></path><path d="M 2182 793.1017471736895 A 2 2 0 0 1 2184 795.1017471736895 L 2184 800.9907502569372 A 2 2 0 0 1 2182 802.9907502569372 L 455 802.9907502569372 A 0 0 0 0 1 455 802.9907502569372 L 455 793.1017471736895 A 0 0 0 0 1 455 793.1017471736895 Z" fill="#4285f4" clip-path="url(#rablfilter12)"></path><path d="M 1619.2676368535492 803.9907502569372 A 2 2 0 0 1 1621.2676368535492 805.9907502569372 L 1621.2676368535492 811.8797533401848 A 2 2 0 0 1 1619.2676368535492 813.8797533401848 L 455 813.8797533401848 A 0 0 0 0 1 455 813.8797533401848 L 455 803.9907502569372 A 0 0 0 0 1 455 803.9907502569372 Z" fill="#db4437" clip-path="url(#rablfilter12)"></path><path d="M 2182 826.6063720452208 A 2 2 0 0 1 2184 828.6063720452208 L 2184 834.4953751284685 A 2 2 0 0 1 2182 836.4953751284685 L 455 836.4953751284685 A 0 0 0 0 1 455 836.4953751284685 L 455 826.6063720452208 A 0 0 0 0 1 455 826.6063720452208 Z" fill="#4285f4" clip-path="url(#rablfilter12)"></path><path d="M 1624.099509401331 837.4953751284685 A 2 2 0 0 1 1626.099509401331 839.4953751284685 L 1626.099509401331 845.3843782117161 A 2 2 0 0 1 1624.099509401331 847.3843782117161 L 455 847.3843782117161 A 0 0 0 0 1 455 847.3843782117161 L 455 837.4953751284685 A 0 0 0 0 1 455 837.4953751284685 Z" fill="#db4437" clip-path="url(#rablfilter12)"></path><path d="M 2182 860.1109969167522 A 2 2 0 0 1 2184 862.1109969167522 L 2184 867.9999999999999 A 2 2 0 0 1 2182 869.9999999999999 L 455 869.9999999999999 A 0 0 0 0 1 455 869.9999999999999 L 455 860.1109969167522 A 0 0 0 0 1 455 860.1109969167522 Z" fill="#4285f4" clip-path="url(#rablfilter12)"></path><path d="M 1690.940980781924 870.9999999999999 A 2 2 0 0 1 1692.940980781924 872.9999999999999 L 1692.940980781924 878.8890030832475 A 2 2 0 0 1 1690.940980781924 880.8890030832475 L 455 880.8890030832475 A 0 0 0 0 1 455 880.8890030832475 L 455 870.9999999999999 A 0 0 0 0 1 455 870.9999999999999 Z" fill="#db4437" clip-path="url(#rablfilter12)"></path><path d="M 2182 893.6156217882836 A 2 2 0 0 1 2184 895.6156217882836 L 2184 901.5046248715312 A 2 2 0 0 1 2182 903.5046248715312 L 455 903.5046248715312 A 0 0 0 0 1 455 903.5046248715312 L 455 893.6156217882836 A 0 0 0 0 1 455 893.6156217882836 Z" fill="#4285f4" clip-path="url(#rablfilter12)"></path><path d="M 1698.8197785487007 904.5046248715312 A 2 2 0 0 1 1700.8197785487007 906.5046248715312 L 1700.8197785487007 912.3936279547789 A 2 2 0 0 1 1698.8197785487007 914.3936279547789 L 455 914.3936279547789 A 0 0 0 0 1 455 914.3936279547789 L 455 904.5046248715312 A 0 0 0 0 1 455 904.5046248715312 Z" fill="#db4437" clip-path="url(#rablfilter12)"></path><path d="M 2182 927.1202466598148 A 2 2 0 0 1 2184 929.1202466598148 L 2184 935.0092497430626 A 2 2 0 0 1 2182 937.0092497430626 L 455 937.0092497430626 A 0 0 0 0 1 455 937.0092497430626 L 455 927.1202466598148 A 0 0 0 0 1 455 927.1202466598148 Z" fill="#4285f4" clip-path="url(#rablfilter12)"></path><path d="M 1730.7093265066565 938.0092497430626 A 2 2 0 0 1 1732.7093265066565 940.0092497430626 L 1732.7093265066565 945.8982528263102 A 2 2 0 0 1 1730.7093265066565 947.8982528263102 L 455 947.8982528263102 A 0 0 0 0 1 455 947.8982528263102 L 455 938.0092497430626 A 0 0 0 0 1 455 938.0092497430626 Z" fill="#db4437" clip-path="url(#rablfilter12)"></path><path d="M 2182 960.6248715313462 A 2 2 0 0 1 2184 962.6248715313462 L 2184 968.5138746145939 A 2 2 0 0 1 2182 970.5138746145939 L 455 970.5138746145939 A 0 0 0 0 1 455 970.5138746145939 L 455 960.6248715313462 A 0 0 0 0 1 455 960.6248715313462 Z" fill="#4285f4" clip-path="url(#rablfilter12)"></path><path d="M 1814.3950967305675 971.5138746145939 A 2 2 0 0 1 1816.3950967305675 973.5138746145939 L 1816.3950967305675 979.4028776978416 A 2 2 0 0 1 1814.3950967305675 981.4028776978416 L 455 981.4028776978416 A 0 0 0 0 1 455 981.4028776978416 L 455 971.5138746145939 A 0 0 0 0 1 455 971.5138746145939 Z" fill="#db4437" clip-path="url(#rablfilter12)"></path><path d="M 2182 994.1294964028776 A 2 2 0 0 1 2184 996.1294964028776 L 2184 1002.0184994861253 A 2 2 0 0 1 2182 1004.0184994861253 L 455 1004.0184994861253 A 0 0 0 0 1 455 1004.0184994861253 L 455 994.1294964028776 A 0 0 0 0 1 455 994.1294964028776 Z" fill="#4285f4" clip-path="url(#rablfilter12)"></path><path d="M 1843.4491791652863 1005.0184994861253 A 2 2 0 0 1 1845.4491791652863 1007.0184994861253 L 1845.4491791652863 1012.9075025693729 A 2 2 0 0 1 1843.4491791652863 1014.9075025693729 L 455 1014.9075025693729 A 0 0 0 0 1 455 1014.9075025693729 L 455 1005.0184994861253 A 0 0 0 0 1 455 1005.0184994861253 Z" fill="#db4437" clip-path="url(#rablfilter12)"></path><path d="M 2182 1027.634121274409 A 2 2 0 0 1 2184 1029.634121274409 L 2184 1035.5231243576566 A 2 2 0 0 1 2182 1037.5231243576566 L 455 1037.5231243576566 A 0 0 0 0 1 455 1037.5231243576566 L 455 1027.634121274409 A 0 0 0 0 1 455 1027.634121274409 Z" fill="#4285f4" clip-path="url(#rablfilter12)"></path><path d="M 1855.9723381469262 1038.5231243576566 A 2 2 0 0 1 1857.9723381469262 1040.5231243576566 L 1857.9723381469262 1046.4121274409042 A 2 2 0 0 1 1855.9723381469262 1048.4121274409042 L 455 1048.4121274409042 A 0 0 0 0 1 455 1048.4121274409042 L 455 1038.5231243576566 A 0 0 0 0 1 455 1038.5231243576566 Z" fill="#db4437" clip-path="url(#rablfilter12)"></path><path d="M 2182 1061.1387461459403 A 2 2 0 0 1 2184 1063.1387461459403 L 2184 1069.027749229188 A 2 2 0 0 1 2182 1071.027749229188 L 455 1071.027749229188 A 0 0 0 0 1 455 1071.027749229188 L 455 1061.1387461459403 A 0 0 0 0 1 455 1061.1387461459403 Z" fill="#4285f4" clip-path="url(#rablfilter12)"></path><path d="M 1876.1508303772905 1072.027749229188 A 2 2 0 0 1 1878.1508303772905 1074.027749229188 L 1878.1508303772905 1079.9167523124356 A 2 2 0 0 1 1876.1508303772905 1081.9167523124356 L 455 1081.9167523124356 A 0 0 0 0 1 455 1081.9167523124356 L 455 1072.027749229188 A 0 0 0 0 1 455 1072.027749229188 Z" fill="#db4437" clip-path="url(#rablfilter12)"></path><path d="M 2182 1094.6433710174717 A 2 2 0 0 1 2184 1096.6433710174717 L 2184 1102.5323741007192 A 2 2 0 0 1 2182 1104.5323741007192 L 455 1104.5323741007192 A 0 0 0 0 1 455 1104.5323741007192 L 455 1094.6433710174717 A 0 0 0 0 1 455 1094.6433710174717 Z" fill="#4285f4" clip-path="url(#rablfilter12)"></path><path d="M 1943.1022795278598 1105.5323741007192 A 2 2 0 0 1 1945.1022795278598 1107.5323741007192 L 1945.1022795278598 1113.421377183967 A 2 2 0 0 1 1943.1022795278598 1115.421377183967 L 455 1115.421377183967 A 0 0 0 0 1 455 1115.421377183967 L 455 1105.5323741007192 A 0 0 0 0 1 455 1105.5323741007192 Z" fill="#db4437" clip-path="url(#rablfilter12)"></path><path d="M 2182 1128.147995889003 A 2 2 0 0 1 2184 1130.147995889003 L 2184 1136.0369989722508 A 2 2 0 0 1 2182 1138.0369989722508 L 455 1138.0369989722508 A 0 0 0 0 1 455 1138.0369989722508 L 455 1128.147995889003 A 0 0 0 0 1 455 1128.147995889003 Z" fill="#4285f4" clip-path="url(#rablfilter12)"></path><path d="M 1946.415809968344 1139.0369989722508 A 2 2 0 0 1 1948.415809968344 1141.0369989722508 L 1948.415809968344 1146.9260020554987 A 2 2 0 0 1 1946.415809968344 1148.9260020554987 L 455 1148.9260020554987 A 0 0 0 0 1 455 1148.9260020554987 L 455 1139.0369989722508 A 0 0 0 0 1 455 1139.0369989722508 Z" fill="#db4437" clip-path="url(#rablfilter12)"></path><path d="M 2182 1161.6526207605343 A 2 2 0 0 1 2184 1163.6526207605343 L 2184 1169.541623843782 A 2 2 0 0 1 2182 1171.541623843782 L 455 1171.541623843782 A 0 0 0 0 1 455 1171.541623843782 L 455 1161.6526207605343 A 0 0 0 0 1 455 1161.6526207605343 Z" fill="#4285f4" clip-path="url(#rablfilter12)"></path><path d="M 1962.486009933515 1172.541623843782 A 2 2 0 0 1 1964.486009933515 1174.541623843782 L 1964.486009933515 1180.4306269270298 A 2 2 0 0 1 1962.486009933515 1182.4306269270298 L 455 1182.4306269270298 A 0 0 0 0 1 455 1182.4306269270298 L 455 1172.541623843782 A 0 0 0 0 1 455 1172.541623843782 Z" fill="#db4437" clip-path="url(#rablfilter12)"></path><path d="M 2182 1195.1572456320657 A 2 2 0 0 1 2184 1197.1572456320657 L 2184 1203.0462487153134 A 2 2 0 0 1 2182 1205.0462487153134 L 455 1205.0462487153134 A 0 0 0 0 1 455 1205.0462487153134 L 455 1195.1572456320657 A 0 0 0 0 1 455 1195.1572456320657 Z" fill="#4285f4" clip-path="url(#rablfilter12)"></path><path d="M 1964.354971208999 1206.0462487153134 A 2 2 0 0 1 1966.354971208999 1208.0462487153134 L 1966.354971208999 1213.9352517985612 A 2 2 0 0 1 1964.354971208999 1215.9352517985612 L 455 1215.9352517985612 A 0 0 0 0 1 455 1215.9352517985612 L 455 1206.0462487153134 A 0 0 0 0 1 455 1206.0462487153134 Z" fill="#db4437" clip-path="url(#rablfilter12)"></path><path d="M 2182 1228.6618705035971 A 2 2 0 0 1 2184 1230.6618705035971 L 2184 1236.5508735868448 A 2 2 0 0 1 2182 1238.5508735868448 L 455 1238.5508735868448 A 0 0 0 0 1 455 1238.5508735868448 L 455 1228.6618705035971 A 0 0 0 0 1 455 1228.6618705035971 Z" fill="#4285f4" clip-path="url(#rablfilter12)"></path><path d="M 2000.125777647753 1239.5508735868448 A 2 2 0 0 1 2002.125777647753 1241.5508735868448 L 2002.125777647753 1247.4398766700926 A 2 2 0 0 1 2000.125777647753 1249.4398766700926 L 455 1249.4398766700926 A 0 0 0 0 1 455 1249.4398766700926 L 455 1239.5508735868448 A 0 0 0 0 1 455 1239.5508735868448 Z" fill="#db4437" clip-path="url(#rablfilter12)"></path><path d="M 2182 1262.1664953751283 A 2 2 0 0 1 2184 1264.1664953751283 L 2184 1270.055498458376 A 2 2 0 0 1 2182 1272.055498458376 L 455 1272.055498458376 A 0 0 0 0 1 455 1272.055498458376 L 455 1262.1664953751283 A 0 0 0 0 1 455 1262.1664953751283 Z" fill="#4285f4" clip-path="url(#rablfilter12)"></path><path d="M 2022.0025545475555 1273.055498458376 A 2 2 0 0 1 2024.0025545475555 1275.055498458376 L 2024.0025545475555 1280.944501541624 A 2 2 0 0 1 2022.0025545475555 1282.944501541624 L 455 1282.944501541624 A 0 0 0 0 1 455 1282.944501541624 L 455 1273.055498458376 A 0 0 0 0 1 455 1273.055498458376 Z" fill="#db4437" clip-path="url(#rablfilter12)"></path><path d="M 2182 1295.6711202466597 A 2 2 0 0 1 2184 1297.6711202466597 L 2184 1303.5601233299074 A 2 2 0 0 1 2182 1305.5601233299074 L 455 1305.5601233299074 A 0 0 0 0 1 455 1305.5601233299074 L 455 1295.6711202466597 A 0 0 0 0 1 455 1295.6711202466597 Z" fill="#4285f4" clip-path="url(#rablfilter12)"></path><path d="M 2022.4743460015093 1306.5601233299074 A 2 2 0 0 1 2024.4743460015093 1308.5601233299074 L 2024.4743460015093 1314.4491264131552 A 2 2 0 0 1 2022.4743460015093 1316.4491264131552 L 455 1316.4491264131552 A 0 0 0 0 1 455 1316.4491264131552 L 455 1306.5601233299074 A 0 0 0 0 1 455 1306.5601233299074 Z" fill="#db4437" clip-path="url(#rablfilter12)"></path><path d="M 2182 1329.1757451181911 A 2 2 0 0 1 2184 1331.1757451181911 L 2184 1337.0647482014388 A 2 2 0 0 1 2182 1339.0647482014388 L 455 1339.0647482014388 A 0 0 0 0 1 455 1339.0647482014388 L 455 1329.1757451181911 A 0 0 0 0 1 455 1329.1757451181911 Z" fill="#4285f4" clip-path="url(#rablfilter12)"></path><path d="M 2037.7687685173294 1340.0647482014388 A 2 2 0 0 1 2039.7687685173294 1342.0647482014388 L 2039.7687685173294 1347.9537512846866 A 2 2 0 0 1 2037.7687685173294 1349.9537512846866 L 455 1349.9537512846866 A 0 0 0 0 1 455 1349.9537512846866 L 455 1340.0647482014388 A 0 0 0 0 1 455 1340.0647482014388 Z" fill="#db4437" clip-path="url(#rablfilter12)"></path><path d="M 2182 1362.6803699897223 A 2 2 0 0 1 2184 1364.6803699897223 L 2184 1370.5693730729702 A 2 2 0 0 1 2182 1372.5693730729702 L 455 1372.5693730729702 A 0 0 0 0 1 455 1372.5693730729702 L 455 1362.6803699897223 A 0 0 0 0 1 455 1362.6803699897223 Z" fill="#4285f4" clip-path="url(#rablfilter12)"></path><path d="M 2059.0635984483342 1373.5693730729702 A 2 2 0 0 1 2061.0635984483342 1375.5693730729702 L 2061.0635984483342 1381.458376156218 A 2 2 0 0 1 2059.0635984483342 1383.458376156218 L 455 1383.458376156218 A 0 0 0 0 1 455 1383.458376156218 L 455 1373.5693730729702 A 0 0 0 0 1 455 1373.5693730729702 Z" fill="#db4437" clip-path="url(#rablfilter12)"></path><path d="M 2182 1396.1849948612537 A 2 2 0 0 1 2184 1398.1849948612537 L 2184 1404.0739979445013 A 2 2 0 0 1 2182 1406.0739979445013 L 455 1406.0739979445013 A 0 0 0 0 1 455 1406.0739979445013 L 455 1396.1849948612537 A 0 0 0 0 1 455 1396.1849948612537 Z" fill="#4285f4" clip-path="url(#rablfilter12)"></path><path d="M 2135.5989448210375 1407.0739979445013 A 2 2 0 0 1 2137.5989448210375 1409.0739979445013 L 2137.5989448210375 1414.9630010277492 A 2 2 0 0 1 2135.5989448210375 1416.9630010277492 L 455 1416.9630010277492 A 0 0 0 0 1 455 1416.9630010277492 L 455 1407.0739979445013 A 0 0 0 0 1 455 1407.0739979445013 Z" fill="#db4437" clip-path="url(#rablfilter12)"></path><path d="M 2182 1429.689619732785 A 2 2 0 0 1 2184 1431.689619732785 L 2184 1437.5786228160327 A 2 2 0 0 1 2182 1439.5786228160327 L 455 1439.5786228160327 A 0 0 0 0 1 455 1439.5786228160327 L 455 1429.689619732785 A 0 0 0 0 1 455 1429.689619732785 Z" fill="#4285f4" clip-path="url(#rablfilter12)"></path><path d="M 2142.6169835730902 1440.5786228160327 A 2 2 0 0 1 2144.6169835730902 1442.5786228160327 L 2144.6169835730902 1448.4676258992806 A 2 2 0 0 1 2142.6169835730902 1450.4676258992806 L 455 1450.4676258992806 A 0 0 0 0 1 455 1450.4676258992806 L 455 1440.5786228160327 A 0 0 0 0 1 455 1440.5786228160327 Z" fill="#db4437" clip-path="url(#rablfilter12)"></path><path d="M 2182 1463.1942446043163 A 2 2 0 0 1 2184 1465.1942446043163 L 2184 1471.0832476875642 A 2 2 0 0 1 2182 1473.0832476875642 L 455 1473.0832476875642 A 0 0 0 0 1 455 1473.0832476875642 L 455 1463.1942446043163 A 0 0 0 0 1 455 1463.1942446043163 Z" fill="#4285f4" clip-path="url(#rablfilter12)"></path><path d="M 2150.75251777632 1474.0832476875642 A 2 2 0 0 1 2152.75251777632 1476.0832476875642 L 2152.75251777632 1481.972250770812 A 2 2 0 0 1 2150.75251777632 1483.972250770812 L 455 1483.972250770812 A 0 0 0 0 1 455 1483.972250770812 L 455 1474.0832476875642 A 0 0 0 0 1 455 1474.0832476875642 Z" fill="#db4437" clip-path="url(#rablfilter12)"></path><path d="M 2182 1496.6988694758477 A 2 2 0 0 1 2184 1498.6988694758477 L 2184 1504.5878725590956 A 2 2 0 0 1 2182 1506.5878725590956 L 455 1506.5878725590956 A 0 0 0 0 1 455 1506.5878725590956 L 455 1496.6988694758477 A 0 0 0 0 1 455 1496.6988694758477 Z" fill="#4285f4" clip-path="url(#rablfilter12)"></path><path d="M 2151.1741633806205 1507.5878725590956 A 2 2 0 0 1 2153.1741633806205 1509.5878725590956 L 2153.1741633806205 1515.4768756423432 A 2 2 0 0 1 2151.1741633806205 1517.4768756423432 L 455 1517.4768756423432 A 0 0 0 0 1 455 1517.4768756423432 L 455 1507.5878725590956 A 0 0 0 0 1 455 1507.5878725590956 Z" fill="#db4437" clip-path="url(#rablfilter12)"></path><path d="M 2182 1530.203494347379 A 2 2 0 0 1 2184 1532.203494347379 L 2184 1538.0924974306267 A 2 2 0 0 1 2182 1540.0924974306267 L 455 1540.0924974306267 A 0 0 0 0 1 455 1540.0924974306267 L 455 1530.203494347379 A 0 0 0 0 1 455 1530.203494347379 Z" fill="#4285f4" clip-path="url(#rablfilter12)"></path><path d="M 2156.9477860979177 1541.0924974306267 A 2 2 0 0 1 2158.9477860979177 1543.0924974306267 L 2158.9477860979177 1548.9815005138746 A 2 2 0 0 1 2156.9477860979177 1550.9815005138746 L 455 1550.9815005138746 A 0 0 0 0 1 455 1550.9815005138746 L 455 1541.0924974306267 A 0 0 0 0 1 455 1541.0924974306267 Z" fill="#db4437" clip-path="url(#rablfilter12)"></path><path d="M 2182 1563.7081192189105 A 2 2 0 0 1 2184 1565.7081192189105 L 2184 1571.5971223021581 A 2 2 0 0 1 2182 1573.5971223021581 L 455 1573.5971223021581 A 0 0 0 0 1 455 1573.5971223021581 L 455 1563.7081192189105 A 0 0 0 0 1 455 1563.7081192189105 Z" fill="#4285f4" clip-path="url(#rablfilter12)"></path><path d="M 2158.2736185463314 1574.5971223021581 A 2 2 0 0 1 2160.2736185463314 1576.5971223021581 L 2160.2736185463314 1582.486125385406 A 2 2 0 0 1 2158.2736185463314 1584.486125385406 L 455 1584.486125385406 A 0 0 0 0 1 455 1584.486125385406 L 455 1574.5971223021581 A 0 0 0 0 1 455 1574.5971223021581 Z" fill="#db4437" clip-path="url(#rablfilter12)"></path><path d="M 2182 1597.2127440904417 A 2 2 0 0 1 2184 1599.2127440904417 L 2184 1605.1017471736895 A 2 2 0 0 1 2182 1607.1017471736895 L 455 1607.1017471736895 A 0 0 0 0 1 455 1607.1017471736895 L 455 1597.2127440904417 A 0 0 0 0 1 455 1597.2127440904417 Z" fill="#4285f4" clip-path="url(#rablfilter12)"></path><path d="M 2168.8470017018644 1608.1017471736895 A 2 2 0 0 1 2170.8470017018644 1610.1017471736895 L 2170.8470017018644 1615.9907502569374 A 2 2 0 0 1 2168.8470017018644 1617.9907502569374 L 455 1617.9907502569374 A 0 0 0 0 1 455 1617.9907502569374 L 455 1608.1017471736895 A 0 0 0 0 1 455 1608.1017471736895 Z" fill="#db4437" clip-path="url(#rablfilter12)"></path><path d="M 2182 1630.717368961973 A 2 2 0 0 1 2184 1632.717368961973 L 2184 1638.606372045221 A 2 2 0 0 1 2182 1640.606372045221 L 455 1640.606372045221 A 0 0 0 0 1 455 1640.606372045221 L 455 1630.717368961973 A 0 0 0 0 1 455 1630.717368961973 Z" fill="#4285f4" clip-path="url(#rablfilter12)"></path><path d="M 2190.821491786771 1641.606372045221 A 2 2 0 0 1 2192.821491786771 1643.606372045221 L 2192.821491786771 1649.4953751284686 A 2 2 0 0 1 2190.821491786771 1651.4953751284686 L 455 1651.4953751284686 A 0 0 0 0 1 455 1651.4953751284686 L 455 1641.606372045221 A 0 0 0 0 1 455 1641.606372045221 Z" fill="#db4437" clip-path="url(#rablfilter12)"></path><path d="M 2182 1664.2219938335045 A 2 2 0 0 1 2184 1666.2219938335045 L 2184 1672.1109969167524 A 2 2 0 0 1 2182 1674.1109969167524 L 455 1674.1109969167524 A 0 0 0 0 1 455 1674.1109969167524 L 455 1664.2219938335045 A 0 0 0 0 1 455 1664.2219938335045 Z" fill="#4285f4" clip-path="url(#rablfilter12)"></path><path d="M 2200.007563270853 1675.1109969167524 A 2 2 0 0 1 2202.007563270853 1677.1109969167524 L 2202.007563270853 1683 A 2 2 0 0 1 2200.007563270853 1685 L 455 1685 A 0 0 0 0 1 455 1685 L 455 1675.1109969167524 A 0 0 0 0 1 455 1675.1109969167524 Z" fill="#db4437" clip-path="url(#rablfilter12)"></path></g><g></g><g><text x="454.5" y="1714.5" style="cursor: default; user-select: none; -webkit-font-smoothing: antialiased; font-family: Roboto; font-size: 12px;" fill="#757575" dx="-3.375px">0</text><text x="627.5" y="1714.5" style="cursor: default; user-select: none; -webkit-font-smoothing: antialiased; font-family: Roboto; font-size: 12px;" fill="#757575" dx="-8.3203125px">0.1</text><text x="800.5" y="1714.5" style="cursor: default; user-select: none; -webkit-font-smoothing: antialiased; font-family: Roboto; font-size: 12px;" fill="#757575" dx="-8.3203125px">0.2</text><text x="973.5000000000001" y="1714.5" style="cursor: default; user-select: none; -webkit-font-smoothing: antialiased; font-family: Roboto; font-size: 12px;" fill="#757575" dx="-8.3203125px">0.3</text><text x="1146.5" y="1714.5" style="cursor: default; user-select: none; -webkit-font-smoothing: antialiased; font-family: Roboto; font-size: 12px;" fill="#757575" dx="-8.3203125px">0.4</text><text x="1319.5" y="1714.5" style="cursor: default; user-select: none; -webkit-font-smoothing: antialiased; font-family: Roboto; font-size: 12px;" fill="#757575" dx="-8.3203125px">0.5</text><text x="1492.5000000000002" y="1714.5" style="cursor: default; user-select: none; -webkit-font-smoothing: antialiased; font-family: Roboto; font-size: 12px;" fill="#757575" dx="-8.3203125px">0.6</text><text x="1665.5" y="1714.5" style="cursor: default; user-select: none; -webkit-font-smoothing: antialiased; font-family: Roboto; font-size: 12px;" fill="#757575" dx="-8.3203125px">0.7</text><text x="1838.5" y="1714.5" style="cursor: default; user-select: none; -webkit-font-smoothing: antialiased; font-family: Roboto; font-size: 12px;" fill="#757575" dx="-8.3203125px">0.8</text><text x="2011.4999999999998" y="1714.5" style="cursor: default; user-select: none; -webkit-font-smoothing: antialiased; font-family: Roboto; font-size: 12px;" fill="#757575" dx="-8.3203125px">0.9</text><text x="2184.5" y="1714.5" style="cursor: default; user-select: none; -webkit-font-smoothing: antialiased; font-family: Roboto; font-size: 12px;" fill="#757575" dx="-3.375px">1</text><text x="2357.5" y="1714.5" style="cursor: default; user-select: none; -webkit-font-smoothing: antialiased; font-family: Roboto; font-size: 12px;" fill="#757575" dx="-8.3203125px">1.1</text><text x="1408.41015625" y="1746.5" style="cursor: default; user-select: none; -webkit-font-smoothing: antialiased; font-family: Roboto; font-size: 12px;" fill="#424242" dx="-33.625px">Render Time</text><text x="448.5" y="70.38900622753053" style="cursor: default; user-select: none; -webkit-font-smoothing: antialiased; font-family: Roboto; font-size: 12px;" fill="#757575" dx="-306.8125px">Intel_Sponza-PhysCamera004-ambient_occlusion-embree</text><text x="448.5" y="103.89362492811273" style="cursor: default; user-select: none; -webkit-font-smoothing: antialiased; font-family: Roboto; font-size: 12px;" fill="#757575" dx="-306.8125px">Intel_Sponza-PhysCamera005-ambient_occlusion-embree</text><text x="448.5" y="137.3982512580895" style="cursor: default; user-select: none; -webkit-font-smoothing: antialiased; font-family: Roboto; font-size: 12px;" fill="#757575" dx="-306.8125px">Intel_Sponza-PhysCamera001-ambient_occlusion-embree</text><text x="448.5" y="170.90287758806625" style="cursor: default; user-select: none; -webkit-font-smoothing: antialiased; font-family: Roboto; font-size: 12px;" fill="#757575" dx="-306.8125px">Intel_Sponza-PhysCamera006-ambient_occlusion-embree</text><text x="448.5" y="204.407503918043" style="cursor: default; user-select: none; -webkit-font-smoothing: antialiased; font-family: Roboto; font-size: 12px;" fill="#757575" dx="-306.8125px">Intel_Sponza-PhysCamera002-ambient_occlusion-embree</text><text x="448.5" y="237.91213024801976" style="cursor: default; user-select: none; -webkit-font-smoothing: antialiased; font-family: Roboto; font-size: 12px;" fill="#757575" dx="-415.171875px">Intel_Sponza_Candles_Thin_Lens-PhysCamera002-ambient_occlusion-embree</text><text x="448.5" y="271.41675657799647" style="cursor: default; user-select: none; -webkit-font-smoothing: antialiased; font-family: Roboto; font-size: 12px;" fill="#757575" dx="-306.8125px">Intel_Sponza-PhysCamera003-ambient_occlusion-embree</text><text x="448.5" y="304.92136764918416" style="cursor: default; user-select: none; -webkit-font-smoothing: antialiased; font-family: Roboto; font-size: 12px;" fill="#757575" dx="-415.171875px">Intel_Sponza_Candles_Thin_Lens-PhysCamera004-ambient_occlusion-embree</text><text x="448.5" y="338.42600923795" style="cursor: default; user-select: none; -webkit-font-smoothing: antialiased; font-family: Roboto; font-size: 12px;" fill="#757575" dx="-287.40625px">StormTrooper-render_cam-ambient_occlusion-embree</text><text x="448.5" y="371.93062030913757" style="cursor: default; user-select: none; -webkit-font-smoothing: antialiased; font-family: Roboto; font-size: 12px;" fill="#757575" dx="-271.21875px">CornellBox-render_cam-ambient_occlusion-embree</text><text x="448.5" y="405.4352618979034" style="cursor: default; user-select: none; -webkit-font-smoothing: antialiased; font-family: Roboto; font-size: 12px;" fill="#757575" dx="-381.578125px">Intel_mooreLane-MASTER_cameraExtended-ambient_occlusion-embree</text><text x="448.5" y="438.9398729690911" style="cursor: default; user-select: none; -webkit-font-smoothing: antialiased; font-family: Roboto; font-size: 12px;" fill="#757575" dx="-304.953125px">Intel_mooreLane-MorrisStone-ambient_occlusion-embree</text><text x="448.5" y="472.4445145578569" style="cursor: default; user-select: none; -webkit-font-smoothing: antialiased; font-family: Roboto; font-size: 12px;" fill="#757575" dx="-282.125px">Blenderman-Camera_001-ambient_occlusion-embree</text><text x="448.5" y="505.9491256290446" style="cursor: default; user-select: none; -webkit-font-smoothing: antialiased; font-family: Roboto; font-size: 12px;" fill="#757575" dx="-307.453125px">HsdLogo-render_cam_5Shape-ambient_occlusion-embree</text><text x="448.5" y="539.4537672178103" style="cursor: default; user-select: none; -webkit-font-smoothing: antialiased; font-family: Roboto; font-size: 12px;" fill="#757575" dx="-307.453125px">HsdLogo-render_cam_3Shape-ambient_occlusion-embree</text><text x="448.5" y="572.9583782889981" style="cursor: default; user-select: none; -webkit-font-smoothing: antialiased; font-family: Roboto; font-size: 12px;" fill="#757575" dx="-307.453125px">HsdLogo-render_cam_2Shape-ambient_occlusion-embree</text><text x="448.5" y="606.4629893601857" style="cursor: default; user-select: none; -webkit-font-smoothing: antialiased; font-family: Roboto; font-size: 12px;" fill="#757575" dx="-307.453125px">HsdLogo-render_cam_1Shape-ambient_occlusion-embree</text><text x="448.5" y="639.9676004313735" style="cursor: default; user-select: none; -webkit-font-smoothing: antialiased; font-family: Roboto; font-size: 12px;" fill="#757575" dx="-307.453125px">HsdLogo-render_cam_4Shape-ambient_occlusion-embree</text><text x="448.5" y="673.4722725377173" style="cursor: default; user-select: none; -webkit-font-smoothing: antialiased; font-family: Roboto; font-size: 12px;" fill="#757575" dx="-337.578125px">OpenChessSet-render_cam_5Shape-ambient_occlusion-embree</text><text x="448.5" y="706.9768836089052" style="cursor: default; user-select: none; -webkit-font-smoothing: antialiased; font-family: Roboto; font-size: 12px;" fill="#757575" dx="-337.578125px">OpenChessSet-render_cam_1Shape-ambient_occlusion-embree</text><text x="448.5" y="740.4814946800927" style="cursor: default; user-select: none; -webkit-font-smoothing: antialiased; font-family: Roboto; font-size: 12px;" fill="#757575" dx="-223.484375px">CornellBox-render_cam-raytracing-embree</text><text x="448.5" y="773.9861057512803" style="cursor: default; user-select: none; -webkit-font-smoothing: antialiased; font-family: Roboto; font-size: 12px;" fill="#757575" dx="-337.578125px">OpenChessSet-render_cam_2Shape-ambient_occlusion-embree</text><text x="448.5" y="807.4907778576244" style="cursor: default; user-select: none; -webkit-font-smoothing: antialiased; font-family: Roboto; font-size: 12px;" fill="#757575" dx="-239.671875px">StormTrooper-render_cam-raytracing-embree</text><text x="448.5" y="840.995388928812" style="cursor: default; user-select: none; -webkit-font-smoothing: antialiased; font-family: Roboto; font-size: 12px;" fill="#757575" dx="-337.578125px">OpenChessSet-render_cam_3Shape-ambient_occlusion-embree</text><text x="448.5" y="874.4999999999998" style="cursor: default; user-select: none; -webkit-font-smoothing: antialiased; font-family: Roboto; font-size: 12px;" fill="#757575" dx="-337.578125px">OpenChessSet-render_cam_7Shape-ambient_occlusion-embree</text><text x="448.5" y="908.0046110711874" style="cursor: default; user-select: none; -webkit-font-smoothing: antialiased; font-family: Roboto; font-size: 12px;" fill="#757575" dx="-337.578125px">OpenChessSet-render_cam_4Shape-ambient_occlusion-embree</text><text x="448.5" y="941.5092221423752" style="cursor: default; user-select: none; -webkit-font-smoothing: antialiased; font-family: Roboto; font-size: 12px;" fill="#757575" dx="-337.578125px">OpenChessSet-render_cam_6Shape-ambient_occlusion-embree</text><text x="448.5" y="975.013894248719" style="cursor: default; user-select: none; -webkit-font-smoothing: antialiased; font-family: Roboto; font-size: 12px;" fill="#757575" dx="-259.078125px">Intel_Sponza-PhysCamera002-raytracing-embree</text><text x="448.5" y="1008.5185053199068" style="cursor: default; user-select: none; -webkit-font-smoothing: antialiased; font-family: Roboto; font-size: 12px;" fill="#757575" dx="-259.71875px">HsdLogo-render_cam_2Shape-raytracing-embree</text><text x="448.5" y="1042.0231774262506" style="cursor: default; user-select: none; -webkit-font-smoothing: antialiased; font-family: Roboto; font-size: 12px;" fill="#757575" dx="-259.078125px">Intel_Sponza-PhysCamera003-raytracing-embree</text><text x="448.5" y="1075.5277884974385" style="cursor: default; user-select: none; -webkit-font-smoothing: antialiased; font-family: Roboto; font-size: 12px;" fill="#757575" dx="-367.4375px">Intel_Sponza_Candles_Thin_Lens-PhysCamera002-raytracing-embree</text><text x="448.5" y="1109.0323995686258" style="cursor: default; user-select: none; -webkit-font-smoothing: antialiased; font-family: Roboto; font-size: 12px;" fill="#757575" dx="-367.4375px">Intel_Sponza_Candles_Thin_Lens-PhysCamera004-raytracing-embree</text><text x="448.5" y="1142.537010639814" style="cursor: default; user-select: none; -webkit-font-smoothing: antialiased; font-family: Roboto; font-size: 12px;" fill="#757575" dx="-259.078125px">Intel_Sponza-PhysCamera001-raytracing-embree</text><text x="448.5" y="1176.0416217110014" style="cursor: default; user-select: none; -webkit-font-smoothing: antialiased; font-family: Roboto; font-size: 12px;" fill="#757575" dx="-259.078125px">Intel_Sponza-PhysCamera005-raytracing-embree</text><text x="448.5" y="1209.5462327821892" style="cursor: default; user-select: none; -webkit-font-smoothing: antialiased; font-family: Roboto; font-size: 12px;" fill="#757575" dx="-259.078125px">Intel_Sponza-PhysCamera006-raytracing-embree</text><text x="448.5" y="1243.050843853377" style="cursor: default; user-select: none; -webkit-font-smoothing: antialiased; font-family: Roboto; font-size: 12px;" fill="#757575" dx="-259.71875px">HsdLogo-render_cam_5Shape-raytracing-embree</text><text x="448.5" y="1276.5554549245644" style="cursor: default; user-select: none; -webkit-font-smoothing: antialiased; font-family: Roboto; font-size: 12px;" fill="#757575" dx="-259.71875px">HsdLogo-render_cam_1Shape-raytracing-embree</text><text x="448.5" y="1310.0600659957522" style="cursor: default; user-select: none; -webkit-font-smoothing: antialiased; font-family: Roboto; font-size: 12px;" fill="#757575" dx="-259.078125px">Intel_Sponza-PhysCamera004-raytracing-embree</text><text x="448.5" y="1343.5647991372525" style="cursor: default; user-select: none; -webkit-font-smoothing: antialiased; font-family: Roboto; font-size: 12px;" fill="#757575" dx="-259.71875px">HsdLogo-render_cam_3Shape-raytracing-embree</text><text x="448.5" y="1377.0694102084403" style="cursor: default; user-select: none; -webkit-font-smoothing: antialiased; font-family: Roboto; font-size: 12px;" fill="#757575" dx="-259.71875px">HsdLogo-render_cam_4Shape-raytracing-embree</text><text x="448.5" y="1410.5740212796277" style="cursor: default; user-select: none; -webkit-font-smoothing: antialiased; font-family: Roboto; font-size: 12px;" fill="#757575" dx="-214.828125px">Blenderman-Camera_001-debug-embree</text><text x="448.5" y="1444.0786323508155" style="cursor: default; user-select: none; -webkit-font-smoothing: antialiased; font-family: Roboto; font-size: 12px;" fill="#757575" dx="-289.828125px">OpenChessSet-render_cam_5Shape-raytracing-embree</text><text x="448.5" y="1477.5832434220033" style="cursor: default; user-select: none; -webkit-font-smoothing: antialiased; font-family: Roboto; font-size: 12px;" fill="#757575" dx="-289.828125px">OpenChessSet-render_cam_1Shape-raytracing-embree</text><text x="448.5" y="1511.0878544931911" style="cursor: default; user-select: none; -webkit-font-smoothing: antialiased; font-family: Roboto; font-size: 12px;" fill="#757575" dx="-289.828125px">OpenChessSet-render_cam_6Shape-raytracing-embree</text><text x="448.5" y="1544.5924655643785" style="cursor: default; user-select: none; -webkit-font-smoothing: antialiased; font-family: Roboto; font-size: 12px;" fill="#757575" dx="-289.828125px">OpenChessSet-render_cam_7Shape-raytracing-embree</text><text x="448.5" y="1578.0970766355663" style="cursor: default; user-select: none; -webkit-font-smoothing: antialiased; font-family: Roboto; font-size: 12px;" fill="#757575" dx="-289.828125px">OpenChessSet-render_cam_2Shape-raytracing-embree</text><text x="448.5" y="1611.601687706754" style="cursor: default; user-select: none; -webkit-font-smoothing: antialiased; font-family: Roboto; font-size: 12px;" fill="#757575" dx="-289.828125px">OpenChessSet-render_cam_3Shape-raytracing-embree</text><text x="448.5" y="1645.1064208482544" style="cursor: default; user-select: none; -webkit-font-smoothing: antialiased; font-family: Roboto; font-size: 12px;" fill="#757575" dx="-289.828125px">OpenChessSet-render_cam_4Shape-raytracing-embree</text><text x="448.5" y="1678.6110319194422" style="cursor: default; user-select: none; -webkit-font-smoothing: antialiased; font-family: Roboto; font-size: 12px;" fill="#757575" dx="-220.109375px">StormTrooper-render_cam-debug-embree</text><text x="14.697265625" y="867.5" style="cursor: default; user-select: none; -webkit-font-smoothing: antialiased; font-family: Roboto; font-size: 12px;" fill="#424242" dx="-16.375px" transform="rotate(-90 14.697265625 870.5)">Scene</text></g><g></g><g></g><g></g></svg>