<svg width="2510" height="910" xmlns="http://www.w3.org/2000/svg"><defs><clipPath id="rablfilter7"><rect x="514.5" y="55.5" width="1852" height="802"></rect></clipPath></defs><g><rect x="0" y="0" width="2510" height="910" fill="#ffffff" fill-opacity="1" stroke="#ffffff" stroke-opacity="0" stroke-width="0"></rect><text x="0" y="15" style="cursor: default; user-select: none; -webkit-font-smoothing: antialiased; font-family: Roboto; font-size: 16px;" fill="#757575" dx="0px">Relative Timing</text><rect x="2409.8466796875" y="55.5" width="12" height="12" rx="2" ry="2" fill="#4285f4"></rect><text x="2429.8466796875" y="68.5" style="cursor: default; user-select: none; -webkit-font-smoothing: antialiased; font-family: Roboto;" fill="#757575" dx="0px">Baseline</text><rect x="2409.8466796875" y="88.5" width="12" height="12" rx="2" ry="2" fill="#db4437"></rect><text x="2429.8466796875" y="101.5" style="cursor: default; user-select: none; -webkit-font-smoothing: antialiased; font-family: Roboto;" fill="#757575" dx="0px">New revision</text><rect x="514.5" y="55.5" width="1852" height="802" fill="#ffffff" fill-opacity="1" stroke="#ffffff" stroke-opacity="0" stroke-width="1"></rect></g><g><line x1="514.5" x2="514.5" y1="55.5" y2="857.5" stroke="#9E9E9E" stroke-width="1"></line><line x1="699.7" x2="699.7" y1="55.5" y2="857.5" stroke="#E0E0E0" stroke-width="1"></line><line x1="884.9000000000001" x2="884.9000000000001" y1="55.5" y2="857.5" stroke="#E0E0E0" stroke-width="1"></line><line x1="1070.1000000000001" x2="1070.1000000000001" y1="55.5" y2="857.5" stroke="#E0E0E0" stroke-width="1"></line><line x1="1255.3000000000002" x2="1255.3000000000002" y1="55.5" y2="857.5" stroke="#E0E0E0" stroke-width="1"></line><line x1="1440.5" x2="1440.5" y1="55.5" y2="857.5" stroke="#E0E0E0" stroke-width="1"></line><line x1="1625.7000000000003" x2="1625.7000000000003" y1="55.5" y2="857.5" stroke="#E0E0E0" stroke-width="1"></line><line x1="1810.9" x2="1810.9" y1="55.5" y2="857.5" stroke="#E0E0E0" stroke-width="1"></line><line x1="1996.1000000000001" x2="1996.1000000000001" y1="55.5" y2="857.5" stroke="#E0E0E0" stroke-width="1"></line><line x1="2181.3" x2="2181.3" y1="55.5" y2="857.5" stroke="#E0E0E0" stroke-width="1"></line><line x1="2366.5" x2="2366.5" y1="55.5" y2="857.5" stroke="#E0E0E0" stroke-width="1"></line></g><g><path d="M 2364 56 A 2 2 0 0 1 2366 58 L 2366 63.41582150101419 A 2 2 0 0 1 2364 65.4158215010142 L 515 65.4158215010142 A 0 0 0 0 1 515 65.4158215010142 L 515 56 A 0 0 0 0 1 515 56 Z" fill="#4285f4" clip-path="url(#rablfilter7)"></path><path d="M 1573.071290389053 66.4158215010142 A 2 2 0 0 1 1575.071290389053 68.4158215010142 L 1575.071290389053 73.8316430020284 A 2 2 0 0 1 1573.071290389053 75.8316430020284 L 515 75.8316430020284 A 0 0 0 0 1 515 75.8316430020284 L 515 66.4158215010142 A 0 0 0 0 1 515 66.4158215010142 Z" fill="#db4437" clip-path="url(#rablfilter7)"></path><path d="M 2364 88.04868154158214 A 2 2 0 0 1 2366 90.04868154158214 L 2366 95.46450304259635 A 2 2 0 0 1 2364 97.46450304259635 L 515 97.46450304259635 A 0 0 0 0 1 515 97.46450304259635 L 515 88.04868154158214 A 0 0 0 0 1 515 88.04868154158214 Z" fill="#4285f4" clip-path="url(#rablfilter7)"></path><path d="M 1675.0677842187226 98.46450304259635 A 2 2 0 0 1 1677.0677842187226 100.46450304259635 L 1677.0677842187226 105.88032454361056 A 2 2 0 0 1 1675.0677842187226 107.88032454361056 L 515 107.88032454361056 A 0 0 0 0 1 515 107.88032454361056 L 515 98.46450304259635 A 0 0 0 0 1 515 98.46450304259635 Z" fill="#db4437" clip-path="url(#rablfilter7)"></path><path d="M 2364 120.0973630831643 A 2 2 0 0 1 2366 122.0973630831643 L 2366 127.51318458417853 A 2 2 0 0 1 2364 129.51318458417853 L 515 129.51318458417853 A 0 0 0 0 1 515 129.51318458417853 L 515 120.0973630831643 A 0 0 0 0 1 515 120.0973630831643 Z" fill="#4285f4" clip-path="url(#rablfilter7)"></path><path d="M 1764.6417307257254 130.51318458417853 A 2 2 0 0 1 1766.6417307257254 132.51318458417853 L 1766.6417307257254 137.92900608519273 A 2 2 0 0 1 1764.6417307257254 139.92900608519273 L 515 139.92900608519273 A 0 0 0 0 1 515 139.92900608519273 L 515 130.51318458417853 A 0 0 0 0 1 515 130.51318458417853 Z" fill="#db4437" clip-path="url(#rablfilter7)"></path><path d="M 2364 152.14604462474648 A 2 2 0 0 1 2366 154.14604462474648 L 2366 159.56186612576067 A 2 2 0 0 1 2364 161.56186612576067 L 515 161.56186612576067 A 0 0 0 0 1 515 161.56186612576067 L 515 152.14604462474648 A 0 0 0 0 1 515 152.14604462474648 Z" fill="#4285f4" clip-path="url(#rablfilter7)"></path><path d="M 1863.4900652686517 162.56186612576067 A 2 2 0 0 1 1865.4900652686517 164.56186612576067 L 1865.4900652686517 169.97768762677487 A 2 2 0 0 1 1863.4900652686517 171.97768762677487 L 515 171.97768762677487 A 0 0 0 0 1 515 171.97768762677487 L 515 162.56186612576067 A 0 0 0 0 1 515 162.56186612576067 Z" fill="#db4437" clip-path="url(#rablfilter7)"></path><path d="M 2364 184.1947261663286 A 2 2 0 0 1 2366 186.1947261663286 L 2366 191.61054766734281 A 2 2 0 0 1 2364 193.61054766734281 L 515 193.61054766734281 A 0 0 0 0 1 515 193.61054766734281 L 515 184.1947261663286 A 0 0 0 0 1 515 184.1947261663286 Z" fill="#4285f4" clip-path="url(#rablfilter7)"></path><path d="M 1908.6368868390919 194.61054766734281 A 2 2 0 0 1 1910.6368868390919 196.61054766734281 L 1910.6368868390919 202.02636916835704 A 2 2 0 0 1 1908.6368868390919 204.02636916835704 L 515 204.02636916835704 A 0 0 0 0 1 515 204.02636916835704 L 515 194.61054766734281 A 0 0 0 0 1 515 194.61054766734281 Z" fill="#db4437" clip-path="url(#rablfilter7)"></path><path d="M 2364 216.24340770791076 A 2 2 0 0 1 2366 218.24340770791076 L 2366 223.65922920892498 A 2 2 0 0 1 2364 225.65922920892498 L 515 225.65922920892498 A 0 0 0 0 1 515 225.65922920892498 L 515 216.24340770791076 A 0 0 0 0 1 515 216.24340770791076 Z" fill="#4285f4" clip-path="url(#rablfilter7)"></path><path d="M 1965.2704221952508 226.65922920892498 A 2 2 0 0 1 1967.2704221952508 228.65922920892498 L 1967.2704221952508 234.07505070993918 A 2 2 0 0 1 1965.2704221952508 236.07505070993918 L 515 236.07505070993918 A 0 0 0 0 1 515 236.07505070993918 L 515 226.65922920892498 A 0 0 0 0 1 515 226.65922920892498 Z" fill="#db4437" clip-path="url(#rablfilter7)"></path><path d="M 2364 248.29208924949293 A 2 2 0 0 1 2366 250.29208924949293 L 2366 255.7079107505071 A 2 2 0 0 1 2364 257.7079107505071 L 515 257.7079107505071 A 0 0 0 0 1 515 257.7079107505071 L 515 248.29208924949293 A 0 0 0 0 1 515 248.29208924949293 Z" fill="#4285f4" clip-path="url(#rablfilter7)"></path><path d="M 2026.8804723893193 258.7079107505071 A 2 2 0 0 1 2028.8804723893193 260.7079107505071 L 2028.8804723893193 266.12373225152135 A 2 2 0 0 1 2026.8804723893193 268.12373225152135 L 515 268.12373225152135 A 0 0 0 0 1 515 268.12373225152135 L 515 258.7079107505071 A 0 0 0 0 1 515 258.7079107505071 Z" fill="#db4437" clip-path="url(#rablfilter7)"></path><path d="M 2364 280.34077079107504 A 2 2 0 0 1 2366 282.34077079107504 L 2366 287.75659229208924 A 2 2 0 0 1 2364 289.75659229208924 L 515 289.75659229208924 A 0 0 0 0 1 515 289.75659229208924 L 515 280.34077079107504 A 0 0 0 0 1 515 280.34077079107504 Z" fill="#4285f4" clip-path="url(#rablfilter7)"></path><path d="M 2053.04984952804 290.75659229208924 A 2 2 0 0 1 2055.04984952804 292.75659229208924 L 2055.04984952804 298.1724137931035 A 2 2 0 0 1 2053.04984952804 300.1724137931035 L 515 300.1724137931035 A 0 0 0 0 1 515 300.1724137931035 L 515 290.75659229208924 A 0 0 0 0 1 515 290.75659229208924 Z" fill="#db4437" clip-path="url(#rablfilter7)"></path><path d="M 2364 312.3894523326572 A 2 2 0 0 1 2366 314.3894523326572 L 2366 319.8052738336714 A 2 2 0 0 1 2364 321.8052738336714 L 515 321.8052738336714 A 0 0 0 0 1 515 321.8052738336714 L 515 312.3894523326572 A 0 0 0 0 1 515 312.3894523326572 Z" fill="#4285f4" clip-path="url(#rablfilter7)"></path><path d="M 2104.4466783236985 322.8052738336714 A 2 2 0 0 1 2106.4466783236985 324.8052738336714 L 2106.4466783236985 330.2210953346856 A 2 2 0 0 1 2104.4466783236985 332.2210953346856 L 515 332.2210953346856 A 0 0 0 0 1 515 332.2210953346856 L 515 322.8052738336714 A 0 0 0 0 1 515 322.8052738336714 Z" fill="#db4437" clip-path="url(#rablfilter7)"></path><path d="M 2364 344.4381338742393 A 2 2 0 0 1 2366 346.4381338742393 L 2366 351.8539553752536 A 2 2 0 0 1 2364 353.8539553752536 L 515 353.8539553752536 A 0 0 0 0 1 515 353.8539553752536 L 515 344.4381338742393 A 0 0 0 0 1 515 344.4381338742393 Z" fill="#4285f4" clip-path="url(#rablfilter7)"></path><path d="M 2105.3435888399595 354.8539553752536 A 2 2 0 0 1 2107.3435888399595 356.8539553752536 L 2107.3435888399595 362.2697768762677 A 2 2 0 0 1 2105.3435888399595 364.2697768762677 L 515 364.2697768762677 A 0 0 0 0 1 515 364.2697768762677 L 515 354.8539553752536 A 0 0 0 0 1 515 354.8539553752536 Z" fill="#db4437" clip-path="url(#rablfilter7)"></path><path d="M 2364 376.4868154158215 A 2 2 0 0 1 2366 378.4868154158215 L 2366 383.9026369168357 A 2 2 0 0 1 2364 385.9026369168357 L 515 385.9026369168357 A 0 0 0 0 1 515 385.9026369168357 L 515 376.4868154158215 A 0 0 0 0 1 515 376.4868154158215 Z" fill="#4285f4" clip-path="url(#rablfilter7)"></path><path d="M 2122.134036829615 386.9026369168357 A 2 2 0 0 1 2124.134036829615 388.9026369168357 L 2124.134036829615 394.31845841784985 A 2 2 0 0 1 2122.134036829615 396.31845841784985 L 515 396.31845841784985 A 0 0 0 0 1 515 396.31845841784985 L 515 386.9026369168357 A 0 0 0 0 1 515 386.9026369168357 Z" fill="#db4437" clip-path="url(#rablfilter7)"></path><path d="M 2364 408.53549695740367 A 2 2 0 0 1 2366 410.53549695740367 L 2366 415.95131845841786 A 2 2 0 0 1 2364 417.95131845841786 L 515 417.95131845841786 A 0 0 0 0 1 515 417.95131845841786 L 515 408.53549695740367 A 0 0 0 0 1 515 408.53549695740367 Z" fill="#4285f4" clip-path="url(#rablfilter7)"></path><path d="M 2148.747444999975 418.95131845841786 A 2 2 0 0 1 2150.747444999975 420.95131845841786 L 2150.747444999975 426.367139959432 A 2 2 0 0 1 2148.747444999975 428.367139959432 L 515 428.367139959432 A 0 0 0 0 1 515 428.367139959432 L 515 418.95131845841786 A 0 0 0 0 1 515 418.95131845841786 Z" fill="#db4437" clip-path="url(#rablfilter7)"></path><path d="M 2364 440.58417849898586 A 2 2 0 0 1 2366 442.58417849898586 L 2366 448 A 2 2 0 0 1 2364 450 L 515 450 A 0 0 0 0 1 515 450 L 515 440.58417849898586 A 0 0 0 0 1 515 440.58417849898586 Z" fill="#4285f4" clip-path="url(#rablfilter7)"></path><path d="M 2163.0942711267553 451 A 2 2 0 0 1 2165.0942711267553 453 L 2165.0942711267553 458.4158215010142 A 2 2 0 0 1 2163.0942711267553 460.4158215010142 L 515 460.4158215010142 A 0 0 0 0 1 515 460.4158215010142 L 515 451 A 0 0 0 0 1 515 451 Z" fill="#db4437" clip-path="url(#rablfilter7)"></path><path d="M 2364 472.632860040568 A 2 2 0 0 1 2366 474.632860040568 L 2366 480.0486815415822 A 2 2 0 0 1 2364 482.0486815415822 L 515 482.0486815415822 A 0 0 0 0 1 515 482.0486815415822 L 515 472.632860040568 A 0 0 0 0 1 515 472.632860040568 Z" fill="#4285f4" clip-path="url(#rablfilter7)"></path><path d="M 2175.2523122523644 483.0486815415822 A 2 2 0 0 1 2177.2523122523644 485.0486815415822 L 2177.2523122523644 490.46450304259633 A 2 2 0 0 1 2175.2523122523644 492.46450304259633 L 515 492.46450304259633 A 0 0 0 0 1 515 492.46450304259633 L 515 483.0486815415822 A 0 0 0 0 1 515 483.0486815415822 Z" fill="#db4437" clip-path="url(#rablfilter7)"></path><path d="M 2364 504.6815415821501 A 2 2 0 0 1 2366 506.6815415821501 L 2366 512.0973630831643 A 2 2 0 0 1 2364 514.0973630831643 L 515 514.0973630831643 A 0 0 0 0 1 515 514.0973630831643 L 515 504.6815415821501 A 0 0 0 0 1 515 504.6815415821501 Z" fill="#4285f4" clip-path="url(#rablfilter7)"></path><path d="M 2187.9671396963613 515.0973630831643 A 2 2 0 0 1 2189.9671396963613 517.0973630831643 L 2189.9671396963613 522.5131845841785 A 2 2 0 0 1 2187.9671396963613 524.5131845841785 L 515 524.5131845841785 A 0 0 0 0 1 515 524.5131845841785 L 515 515.0973630831643 A 0 0 0 0 1 515 515.0973630831643 Z" fill="#db4437" clip-path="url(#rablfilter7)"></path><path d="M 2364 536.7302231237322 A 2 2 0 0 1 2366 538.7302231237322 L 2366 544.1460446247465 A 2 2 0 0 1 2364 546.1460446247465 L 515 546.1460446247465 A 0 0 0 0 1 515 546.1460446247465 L 515 536.7302231237322 A 0 0 0 0 1 515 536.7302231237322 Z" fill="#4285f4" clip-path="url(#rablfilter7)"></path><path d="M 2221.148250133215 547.1460446247465 A 2 2 0 0 1 2223.148250133215 549.1460446247465 L 2223.148250133215 554.5618661257606 A 2 2 0 0 1 2221.148250133215 556.5618661257606 L 515 556.5618661257606 A 0 0 0 0 1 515 556.5618661257606 L 515 547.1460446247465 A 0 0 0 0 1 515 547.1460446247465 Z" fill="#db4437" clip-path="url(#rablfilter7)"></path><path d="M 2364 568.7789046653144 A 2 2 0 0 1 2366 570.7789046653144 L 2366 576.1947261663286 A 2 2 0 0 1 2364 578.1947261663286 L 515 578.1947261663286 A 0 0 0 0 1 515 578.1947261663286 L 515 568.7789046653144 A 0 0 0 0 1 515 568.7789046653144 Z" fill="#4285f4" clip-path="url(#rablfilter7)"></path><path d="M 2223.4471797939614 579.1947261663286 A 2 2 0 0 1 2225.4471797939614 581.1947261663286 L 2225.4471797939614 586.6105476673428 A 2 2 0 0 1 2223.4471797939614 588.6105476673428 L 515 588.6105476673428 A 0 0 0 0 1 515 588.6105476673428 L 515 579.1947261663286 A 0 0 0 0 1 515 579.1947261663286 Z" fill="#db4437" clip-path="url(#rablfilter7)"></path><path d="M 2364 600.8275862068966 A 2 2 0 0 1 2366 602.8275862068966 L 2366 608.2434077079108 A 2 2 0 0 1 2364 610.2434077079108 L 515 610.2434077079108 A 0 0 0 0 1 515 610.2434077079108 L 515 600.8275862068966 A 0 0 0 0 1 515 600.8275862068966 Z" fill="#4285f4" clip-path="url(#rablfilter7)"></path><path d="M 2235.465837277261 611.2434077079108 A 2 2 0 0 1 2237.465837277261 613.2434077079108 L 2237.465837277261 618.6592292089249 A 2 2 0 0 1 2235.465837277261 620.6592292089249 L 515 620.6592292089249 A 0 0 0 0 1 515 620.6592292089249 L 515 611.2434077079108 A 0 0 0 0 1 515 611.2434077079108 Z" fill="#db4437" clip-path="url(#rablfilter7)"></path><path d="M 2364 632.8762677484787 A 2 2 0 0 1 2366 634.8762677484787 L 2366 640.2920892494928 A 2 2 0 0 1 2364 642.2920892494928 L 515 642.2920892494928 A 0 0 0 0 1 515 642.2920892494928 L 515 632.8762677484787 A 0 0 0 0 1 515 632.8762677484787 Z" fill="#4285f4" clip-path="url(#rablfilter7)"></path><path d="M 2262.6551713809413 643.2920892494928 A 2 2 0 0 1 2264.6551713809413 645.2920892494928 L 2264.6551713809413 650.7079107505072 A 2 2 0 0 1 2262.6551713809413 652.7079107505072 L 515 652.7079107505072 A 0 0 0 0 1 515 652.7079107505072 L 515 643.2920892494928 A 0 0 0 0 1 515 643.2920892494928 Z" fill="#db4437" clip-path="url(#rablfilter7)"></path><path d="M 2364 664.9249492900609 A 2 2 0 0 1 2366 666.9249492900609 L 2366 672.3407707910751 A 2 2 0 0 1 2364 674.3407707910751 L 515 674.3407707910751 A 0 0 0 0 1 515 674.3407707910751 L 515 664.9249492900609 A 0 0 0 0 1 515 664.9249492900609 Z" fill="#4285f4" clip-path="url(#rablfilter7)"></path><path d="M 2269.0415675199306 675.3407707910751 A 2 2 0 0 1 2271.0415675199306 677.3407707910751 L 2271.0415675199306 682.7565922920892 A 2 2 0 0 1 2269.0415675199306 684.7565922920892 L 515 684.7565922920892 A 0 0 0 0 1 515 684.7565922920892 L 515 675.3407707910751 A 0 0 0 0 1 515 675.3407707910751 Z" fill="#db4437" clip-path="url(#rablfilter7)"></path><path d="M 2364 696.973630831643 A 2 2 0 0 1 2366 698.973630831643 L 2366 704.3894523326572 A 2 2 0 0 1 2364 706.3894523326572 L 515 706.3894523326572 A 0 0 0 0 1 515 706.3894523326572 L 515 696.973630831643 A 0 0 0 0 1 515 696.973630831643 Z" fill="#4285f4" clip-path="url(#rablfilter7)"></path><path d="M 2283.1795899825765 707.3894523326572 A 2 2 0 0 1 2285.1795899825765 709.3894523326572 L 2285.1795899825765 714.8052738336714 A 2 2 0 0 1 2283.1795899825765 716.8052738336714 L 515 716.8052738336714 A 0 0 0 0 1 515 716.8052738336714 L 515 707.3894523326572 A 0 0 0 0 1 515 707.3894523326572 Z" fill="#db4437" clip-path="url(#rablfilter7)"></path><path d="M 2364 729.0223123732252 A 2 2 0 0 1 2366 731.0223123732252 L 2366 736.4381338742394 A 2 2 0 0 1 2364 738.4381338742394 L 515 738.4381338742394 A 0 0 0 0 1 515 738.4381338742394 L 515 729.0223123732252 A 0 0 0 0 1 515 729.0223123732252 Z" fill="#4285f4" clip-path="url(#rablfilter7)"></path><path d="M 2311.330206536487 739.4381338742394 A 2 2 0 0 1 2313.330206536487 741.4381338742394 L 2313.330206536487 746.8539553752535 A 2 2 0 0 1 2311.330206536487 748.8539553752535 L 515 748.8539553752535 A 0 0 0 0 1 515 748.8539553752535 L 515 739.4381338742394 A 0 0 0 0 1 515 739.4381338742394 Z" fill="#db4437" clip-path="url(#rablfilter7)"></path><path d="M 2364 761.0709939148073 A 2 2 0 0 1 2366 763.0709939148073 L 2366 768.4868154158215 A 2 2 0 0 1 2364 770.4868154158215 L 515 770.4868154158215 A 0 0 0 0 1 515 770.4868154158215 L 515 761.0709939148073 A 0 0 0 0 1 515 761.0709939148073 Z" fill="#4285f4" clip-path="url(#rablfilter7)"></path><path d="M 2322.286376562163 771.4868154158215 A 2 2 0 0 1 2324.286376562163 773.4868154158215 L 2324.286376562163 778.9026369168357 A 2 2 0 0 1 2322.286376562163 780.9026369168357 L 515 780.9026369168357 A 0 0 0 0 1 515 780.9026369168357 L 515 771.4868154158215 A 0 0 0 0 1 515 771.4868154158215 Z" fill="#db4437" clip-path="url(#rablfilter7)"></path><path d="M 2364 793.1196754563895 A 2 2 0 0 1 2366 795.1196754563895 L 2366 800.5354969574037 A 2 2 0 0 1 2364 802.5354969574037 L 515 802.5354969574037 A 0 0 0 0 1 515 802.5354969574037 L 515 793.1196754563895 A 0 0 0 0 1 515 793.1196754563895 Z" fill="#4285f4" clip-path="url(#rablfilter7)"></path><path d="M 2340.0418611148225 803.5354969574037 A 2 2 0 0 1 2342.0418611148225 805.5354969574037 L 2342.0418611148225 810.9513184584179 A 2 2 0 0 1 2340.0418611148225 812.9513184584179 L 515 812.9513184584179 A 0 0 0 0 1 515 812.9513184584179 L 515 803.5354969574037 A 0 0 0 0 1 515 803.5354969574037 Z" fill="#db4437" clip-path="url(#rablfilter7)"></path><path d="M 2364 825.1683569979717 A 2 2 0 0 1 2366 827.1683569979717 L 2366 832.5841784989858 A 2 2 0 0 1 2364 834.5841784989858 L 515 834.5841784989858 A 0 0 0 0 1 515 834.5841784989858 L 515 825.1683569979717 A 0 0 0 0 1 515 825.1683569979717 Z" fill="#4285f4" clip-path="url(#rablfilter7)"></path><path d="M 2351.0556706769694 835.5841784989858 A 2 2 0 0 1 2353.0556706769694 837.5841784989858 L 2353.0556706769694 843 A 2 2 0 0 1 2351.0556706769694 845 L 515 845 A 0 0 0 0 1 515 845 L 515 835.5841784989858 A 0 0 0 0 1 515 835.5841784989858 Z" fill="#db4437" clip-path="url(#rablfilter7)"></path></g><g></g><g><text x="514.5" y="874.5" style="cursor: default; user-select: none; -webkit-font-smoothing: antialiased; font-family: Roboto; font-size: 12px;" fill="#757575" dx="-3.375px">0</text><text x="699.7" y="874.5" style="cursor: default; user-select: none; -webkit-font-smoothing: antialiased; font-family: Roboto; font-size: 12px;" fill="#757575" dx="-8.328125px">0.1</text><text x="884.9000000000001" y="874.5" style="cursor: default; user-select: none; -webkit-font-smoothing: antialiased; font-family: Roboto; font-size: 12px;" fill="#757575" dx="-8.328125px">0.2</text><text x="1070.1000000000001" y="874.5" style="cursor: default; user-select: none; -webkit-font-smoothing: antialiased; font-family: Roboto; font-size: 12px;" fill="#757575" dx="-8.328125px">0.3</text><text x="1255.3000000000002" y="874.5" style="cursor: default; user-select: none; -webkit-font-smoothing: antialiased; font-family: Roboto; font-size: 12px;" fill="#757575" dx="-8.328125px">0.4</text><text x="1440.5" y="874.5" style="cursor: default; user-select: none; -webkit-font-smoothing: antialiased; font-family: Roboto; font-size: 12px;" fill="#757575" dx="-8.328125px">0.5</text><text x="1625.7000000000003" y="874.5" style="cursor: default; user-select: none; -webkit-font-smoothing: antialiased; font-family: Roboto; font-size: 12px;" fill="#757575" dx="-8.328125px">0.6</text><text x="1810.9" y="874.5" style="cursor: default; user-select: none; -webkit-font-smoothing: antialiased; font-family: Roboto; font-size: 12px;" fill="#757575" dx="-8.328125px">0.7</text><text x="1996.1000000000001" y="874.5" style="cursor: default; user-select: none; -webkit-font-smoothing: antialiased; font-family: Roboto; font-size: 12px;" fill="#757575" dx="-8.328125px">0.8</text><text x="2181.3" y="874.5" style="cursor: default; user-select: none; -webkit-font-smoothing: antialiased; font-family: Roboto; font-size: 12px;" fill="#757575" dx="-8.328125px">0.9</text><text x="2366.5" y="874.5" style="cursor: default; user-select: none; -webkit-font-smoothing: antialiased; font-family: Roboto; font-size: 12px;" fill="#757575" dx="-3.375px">1</text><text x="1440.4375" y="906.5" style="cursor: default; user-select: none; -webkit-font-smoothing: antialiased; font-family: Roboto; font-size: 12px;" fill="#424242" dx="-33.6484375px">Render Time</text><text x="508.5" y="69.91581811189167" style="cursor: default; user-select: none; -webkit-font-smoothing: antialiased; font-family: Roboto; font-size: 12px;" fill="#757575" dx="-223.640625px">CornellBox-render_cam-raytracing-embree</text><text x="508.5" y="101.9645056579466" style="cursor: default; user-select: none; -webkit-font-smoothing: antialiased; font-family: Roboto; font-size: 12px;" fill="#757575" dx="-381.8125px">Intel_mooreLane-MASTER_cameraExtended-ambient_occlusion-embree</text><text x="508.5" y="134.01318557460706" style="cursor: default; user-select: none; -webkit-font-smoothing: antialiased; font-family: Roboto; font-size: 12px;" fill="#757575" dx="-193.796875px">Attic_NVIDIA-Camera-debug-embree</text><text x="508.5" y="166.06187312066197" style="cursor: default; user-select: none; -webkit-font-smoothing: antialiased; font-family: Roboto; font-size: 12px;" fill="#757575" dx="-237.984375px">EmperorCrown-CameraShape-debug-embree</text><text x="508.5" y="198.11054540792782" style="cursor: default; user-select: none; -webkit-font-smoothing: antialiased; font-family: Roboto; font-size: 12px;" fill="#757575" dx="-259.875px">HsdLogo-render_cam_1Shape-raytracing-embree</text><text x="508.5" y="230.15923295398278" style="cursor: default; user-select: none; -webkit-font-smoothing: antialiased; font-family: Roboto; font-size: 12px;" fill="#757575" dx="-214.96875px">Blenderman-Camera_001-debug-embree</text><text x="508.5" y="262.20790524124857" style="cursor: default; user-select: none; -webkit-font-smoothing: antialiased; font-family: Roboto; font-size: 12px;" fill="#757575" dx="-307.015625px">Intel_Sponza-PhysCamera001-ambient_occlusion-embree</text><text x="508.5" y="294.2565927873035" style="cursor: default; user-select: none; -webkit-font-smoothing: antialiased; font-family: Roboto; font-size: 12px;" fill="#757575" dx="-276.21875px">DailyDweeb-VariantCamera-debug-embree-thin_lens</text><text x="508.5" y="326.3052803333584" style="cursor: default; user-select: none; -webkit-font-smoothing: antialiased; font-family: Roboto; font-size: 12px;" fill="#757575" dx="-259.25px">Intel_Sponza-PhysCamera001-raytracing-embree</text><text x="508.5" y="358.3539678794134" style="cursor: default; user-select: none; -webkit-font-smoothing: antialiased; font-family: Roboto; font-size: 12px;" fill="#757575" dx="-415.421875px">Intel_Sponza_Candles_Thin_Lens-PhysCamera002-ambient_occlusion-embree</text><text x="508.5" y="390.4026249078902" style="cursor: default; user-select: none; -webkit-font-smoothing: antialiased; font-family: Roboto; font-size: 12px;" fill="#757575" dx="-257.5625px">EmperorCrown-CameraShape-raytracing-embree</text><text x="508.5" y="422.4513124539451" style="cursor: default; user-select: none; -webkit-font-smoothing: antialiased; font-family: Roboto; font-size: 12px;" fill="#757575" dx="-338.078125px">Intel_Sponza_Knight-KnightCam001-ambient_occlusion-embree</text><text x="508.5" y="454.5" style="cursor: default; user-select: none; -webkit-font-smoothing: antialiased; font-family: Roboto; font-size: 12px;" fill="#757575" dx="-271.40625px">CornellBox-render_cam-ambient_occlusion-embree</text><text x="508.5" y="486.548687546055" style="cursor: default; user-select: none; -webkit-font-smoothing: antialiased; font-family: Roboto; font-size: 12px;" fill="#757575" dx="-290.328125px">Intel_Sponza_Knight-KnightCam001-raytracing-embree</text><text x="508.5" y="518.5973750921098" style="cursor: default; user-select: none; -webkit-font-smoothing: antialiased; font-family: Roboto; font-size: 12px;" fill="#757575" dx="-312.71875px">OpenChessSet-render_cam_detailShape-raytracing-embree</text><text x="508.5" y="550.6460321205868" style="cursor: default; user-select: none; -webkit-font-smoothing: antialiased; font-family: Roboto; font-size: 12px;" fill="#757575" dx="-367.671875px">Intel_Sponza_Candles_Thin_Lens-PhysCamera002-raytracing-embree</text><text x="508.5" y="582.6947501842196" style="cursor: default; user-select: none; -webkit-font-smoothing: antialiased; font-family: Roboto; font-size: 12px;" fill="#757575" dx="-295.796875px">DailyDweeb-VariantCamera-raytracing-embree-thin_lens</text><text x="508.5" y="614.7434072126966" style="cursor: default; user-select: none; -webkit-font-smoothing: antialiased; font-family: Roboto; font-size: 12px;" fill="#757575" dx="-360.46875px">OpenChessSet-render_cam_detailShape-ambient_occlusion-embree</text><text x="508.5" y="646.7920642411732" style="cursor: default; user-select: none; -webkit-font-smoothing: antialiased; font-family: Roboto; font-size: 12px;" fill="#757575" dx="-475.40625px">CameraTestGround-VariantCamera-raytracing-embree-realistic_canon_70_200mm_70mm</text><text x="508.5" y="678.8407823048065" style="cursor: default; user-select: none; -webkit-font-smoothing: antialiased; font-family: Roboto; font-size: 12px;" fill="#757575" dx="-261.140625px">Attic_NVIDIA-Camera-ambient_occlusion-embree</text><text x="508.5" y="710.8894393332832" style="cursor: default; user-select: none; -webkit-font-smoothing: antialiased; font-family: Roboto; font-size: 12px;" fill="#757575" dx="-213.375px">Attic_NVIDIA-Camera-raytracing-embree</text><text x="508.5" y="742.9381573969163" style="cursor: default; user-select: none; -webkit-font-smoothing: antialiased; font-family: Roboto; font-size: 12px;" fill="#757575" dx="-307.640625px">HsdLogo-render_cam_1Shape-ambient_occlusion-embree</text><text x="508.5" y="774.986814425393" style="cursor: default; user-select: none; -webkit-font-smoothing: antialiased; font-family: Roboto; font-size: 12px;" fill="#757575" dx="-305.328125px">EmperorCrown-CameraShape-ambient_occlusion-embree</text><text x="508.5" y="807.0354714538698" style="cursor: default; user-select: none; -webkit-font-smoothing: antialiased; font-family: Roboto; font-size: 12px;" fill="#757575" dx="-343.546875px">DailyDweeb-VariantCamera-ambient_occlusion-embree-thin_lens</text><text x="508.5" y="839.0841895175029" style="cursor: default; user-select: none; -webkit-font-smoothing: antialiased; font-family: Roboto; font-size: 12px;" fill="#757575" dx="-282.3125px">Blenderman-Camera_001-ambient_occlusion-embree</text><text x="15.09375" y="447.5" style="cursor: default; user-select: none; -webkit-font-smoothing: antialiased; font-family: Roboto; font-size: 12px;" fill="#424242" dx="-16.3828125px" transform="rotate(-90 15.09375 450.5)">Scene</text></g><g></g><g></g><g></g></svg>