<svg width="2510" height="910" xmlns="http://www.w3.org/2000/svg"><defs><clipPath id="rablfilter6"><rect x="514.5" y="55.5" width="1848" height="802"></rect></clipPath></defs><g><rect x="0" y="0" width="2510" height="910" fill="#ffffff" fill-opacity="1" stroke="#ffffff" stroke-opacity="0" stroke-width="0"></rect><text x="0" y="15" style="cursor: default; user-select: none; -webkit-font-smoothing: antialiased; font-family: Roboto; font-size: 16px;" fill="#757575" dx="0px">Absolute Timing</text><rect x="2409.8466796875" y="55.5" width="12" height="12" rx="2" ry="2" fill="#4285f4"></rect><text x="2429.8466796875" y="68.5" style="cursor: default; user-select: none; -webkit-font-smoothing: antialiased; font-family: Roboto;" fill="#757575" dx="0px">Baseline</text><rect x="2409.8466796875" y="88.5" width="12" height="12" rx="2" ry="2" fill="#db4437"></rect><text x="2429.8466796875" y="101.5" style="cursor: default; user-select: none; -webkit-font-smoothing: antialiased; font-family: Roboto;" fill="#757575" dx="0px">New revision</text><rect x="514.5" y="55.5" width="1848" height="802" fill="#ffffff" fill-opacity="1" stroke="#ffffff" stroke-opacity="0" stroke-width="1"></rect></g><g><line x1="514.5" x2="514.5" y1="55.5" y2="857.5" stroke="#9E9E9E" stroke-width="1"></line><line x1="630" x2="630" y1="55.5" y2="857.5" stroke="#E0E0E0" stroke-width="1"></line><line x1="745.5" x2="745.5" y1="55.5" y2="857.5" stroke="#E0E0E0" stroke-width="1"></line><line x1="861" x2="861" y1="55.5" y2="857.5" stroke="#E0E0E0" stroke-width="1"></line><line x1="976.5" x2="976.5" y1="55.5" y2="857.5" stroke="#E0E0E0" stroke-width="1"></line><line x1="1092" x2="1092" y1="55.5" y2="857.5" stroke="#E0E0E0" stroke-width="1"></line><line x1="1207.5" x2="1207.5" y1="55.5" y2="857.5" stroke="#E0E0E0" stroke-width="1"></line><line x1="1323" x2="1323" y1="55.5" y2="857.5" stroke="#E0E0E0" stroke-width="1"></line><line x1="1438.5" x2="1438.5" y1="55.5" y2="857.5" stroke="#E0E0E0" stroke-width="1"></line><line x1="1554" x2="1554" y1="55.5" y2="857.5" stroke="#E0E0E0" stroke-width="1"></line><line x1="1669.5" x2="1669.5" y1="55.5" y2="857.5" stroke="#E0E0E0" stroke-width="1"></line><line x1="1785" x2="1785" y1="55.5" y2="857.5" stroke="#E0E0E0" stroke-width="1"></line><line x1="1900.5" x2="1900.5" y1="55.5" y2="857.5" stroke="#E0E0E0" stroke-width="1"></line><line x1="2016" x2="2016" y1="55.5" y2="857.5" stroke="#E0E0E0" stroke-width="1"></line><line x1="2131.5" x2="2131.5" y1="55.5" y2="857.5" stroke="#E0E0E0" stroke-width="1"></line><line x1="2247" x2="2247" y1="55.5" y2="857.5" stroke="#E0E0E0" stroke-width="1"></line><line x1="2362.5" x2="2362.5" y1="55.5" y2="857.5" stroke="#E0E0E0" stroke-width="1"></line></g><g><path d="M 2267.113974383 56 A 2 2 0 0 1 2269.113974383 58 L 2269.113974383 63.41582150101419 A 2 2 0 0 1 2267.113974383 65.4158215010142 L 515 65.4158215010142 A 0 0 0 0 1 515 65.4158215010142 L 515 56 A 0 0 0 0 1 515 56 Z" fill="#4285f4" clip-path="url(#rablfilter6)"></path><path d="M 2190.5216250109997 66.4158215010142 A 2 2 0 0 1 2192.5216250109997 68.4158215010142 L 2192.5216250109997 73.8316430020284 A 2 2 0 0 1 2190.5216250109997 75.8316430020284 L 515 75.8316430020284 A 0 0 0 0 1 515 75.8316430020284 L 515 66.4158215010142 A 0 0 0 0 1 515 66.4158215010142 Z" fill="#db4437" clip-path="url(#rablfilter6)"></path><path d="M 612.131561222 88.04868154158214 A 2 2 0 0 1 614.131561222 90.04868154158214 L 614.131561222 95.46450304259635 A 2 2 0 0 1 612.131561222 97.46450304259635 L 515 97.46450304259635 A 0 0 0 0 1 515 97.46450304259635 L 515 88.04868154158214 A 0 0 0 0 1 515 88.04868154158214 Z" fill="#4285f4" clip-path="url(#rablfilter6)"></path><path d="M 598.098365045 98.46450304259635 A 2 2 0 0 1 600.098365045 100.46450304259635 L 600.098365045 105.88032454361056 A 2 2 0 0 1 598.098365045 107.88032454361056 L 515 107.88032454361056 A 0 0 0 0 1 515 107.88032454361056 L 515 98.46450304259635 A 0 0 0 0 1 515 98.46450304259635 Z" fill="#db4437" clip-path="url(#rablfilter6)"></path><path d="M 655.803273845 120.0973630831643 A 2 2 0 0 1 657.803273845 122.0973630831643 L 657.803273845 127.51318458417853 A 2 2 0 0 1 655.803273845 129.51318458417853 L 515 129.51318458417853 A 0 0 0 0 1 515 129.51318458417853 L 515 120.0973630831643 A 0 0 0 0 1 515 120.0973630831643 Z" fill="#4285f4" clip-path="url(#rablfilter6)"></path><path d="M 644.889690857 130.51318458417853 A 2 2 0 0 1 646.889690857 132.51318458417853 L 646.889690857 137.92900608519273 A 2 2 0 0 1 644.889690857 139.92900608519273 L 515 139.92900608519273 A 0 0 0 0 1 515 139.92900608519273 L 515 130.51318458417853 A 0 0 0 0 1 515 130.51318458417853 Z" fill="#db4437" clip-path="url(#rablfilter6)"></path><path d="M 532.521119234 152.14604462474648 A 2 2 0 0 1 534.521119234 154.14604462474648 L 534.521119234 159.56186612576067 A 2 2 0 0 1 532.521119234 161.56186612576067 L 515 161.56186612576067 A 0 0 0 0 1 515 161.56186612576067 L 515 152.14604462474648 A 0 0 0 0 1 515 152.14604462474648 Z" fill="#4285f4" clip-path="url(#rablfilter6)"></path><path d="M 523.757219474 162.56186612576067 A 2 2 0 0 1 525.757219474 164.56186612576067 L 525.757219474 169.97768762677487 A 2 2 0 0 1 523.757219474 171.97768762677487 L 515 171.97768762677487 A 0 0 0 0 1 515 171.97768762677487 L 515 162.56186612576067 A 0 0 0 0 1 515 162.56186612576067 Z" fill="#db4437" clip-path="url(#rablfilter6)"></path><path d="M 652.83947339 184.1947261663286 A 2 2 0 0 1 654.83947339 186.1947261663286 L 654.83947339 191.61054766734281 A 2 2 0 0 1 652.83947339 193.61054766734281 L 515 193.61054766734281 A 0 0 0 0 1 515 193.61054766734281 L 515 184.1947261663286 A 0 0 0 0 1 515 184.1947261663286 Z" fill="#4285f4" clip-path="url(#rablfilter6)"></path><path d="M 645.1324797110001 194.61054766734281 A 2 2 0 0 1 647.1324797110001 196.61054766734281 L 647.1324797110001 202.02636916835704 A 2 2 0 0 1 645.1324797110001 204.02636916835704 L 515 204.02636916835704 A 0 0 0 0 1 515 204.02636916835704 L 515 194.61054766734281 A 0 0 0 0 1 515 194.61054766734281 Z" fill="#db4437" clip-path="url(#rablfilter6)"></path><path d="M 577.031615957 216.24340770791076 A 2 2 0 0 1 579.031615957 218.24340770791076 L 579.031615957 223.65922920892498 A 2 2 0 0 1 577.031615957 225.65922920892498 L 515 225.65922920892498 A 0 0 0 0 1 515 225.65922920892498 L 515 216.24340770791076 A 0 0 0 0 1 515 216.24340770791076 Z" fill="#4285f4" clip-path="url(#rablfilter6)"></path><path d="M 570.403879919 226.65922920892498 A 2 2 0 0 1 572.403879919 228.65922920892498 L 572.403879919 234.07505070993918 A 2 2 0 0 1 570.403879919 236.07505070993918 L 515 236.07505070993918 A 0 0 0 0 1 515 236.07505070993918 L 515 226.65922920892498 A 0 0 0 0 1 515 226.65922920892498 Z" fill="#db4437" clip-path="url(#rablfilter6)"></path><path d="M 577.805457179 248.29208924949293 A 2 2 0 0 1 579.805457179 250.29208924949293 L 579.805457179 255.7079107505071 A 2 2 0 0 1 577.805457179 257.7079107505071 L 515 257.7079107505071 A 0 0 0 0 1 515 257.7079107505071 L 515 248.29208924949293 A 0 0 0 0 1 515 248.29208924949293 Z" fill="#4285f4" clip-path="url(#rablfilter6)"></path><path d="M 571.550639225 258.7079107505071 A 2 2 0 0 1 573.550639225 260.7079107505071 L 573.550639225 266.12373225152135 A 2 2 0 0 1 571.550639225 268.12373225152135 L 515 268.12373225152135 A 0 0 0 0 1 515 268.12373225152135 L 515 258.7079107505071 A 0 0 0 0 1 515 258.7079107505071 Z" fill="#db4437" clip-path="url(#rablfilter6)"></path><path d="M 587.760890513 280.34077079107504 A 2 2 0 0 1 589.760890513 282.34077079107504 L 589.760890513 287.75659229208924 A 2 2 0 0 1 587.760890513 289.75659229208924 L 515 289.75659229208924 A 0 0 0 0 1 515 289.75659229208924 L 515 280.34077079107504 A 0 0 0 0 1 515 280.34077079107504 Z" fill="#4285f4" clip-path="url(#rablfilter6)"></path><path d="M 581.917167089 290.75659229208924 A 2 2 0 0 1 583.917167089 292.75659229208924 L 583.917167089 298.1724137931035 A 2 2 0 0 1 581.917167089 300.1724137931035 L 515 300.1724137931035 A 0 0 0 0 1 515 300.1724137931035 L 515 290.75659229208924 A 0 0 0 0 1 515 290.75659229208924 Z" fill="#db4437" clip-path="url(#rablfilter6)"></path><path d="M 552.021648359 312.3894523326572 A 2 2 0 0 1 554.021648359 314.3894523326572 L 554.021648359 319.8052738336714 A 2 2 0 0 1 552.021648359 321.8052738336714 L 515 321.8052738336714 A 0 0 0 0 1 515 321.8052738336714 L 515 312.3894523326572 A 0 0 0 0 1 515 312.3894523326572 Z" fill="#4285f4" clip-path="url(#rablfilter6)"></path><path d="M 546.794934251 322.8052738336714 A 2 2 0 0 1 548.794934251 324.8052738336714 L 548.794934251 330.2210953346856 A 2 2 0 0 1 546.794934251 332.2210953346856 L 515 332.2210953346856 A 0 0 0 0 1 515 332.2210953346856 L 515 322.8052738336714 A 0 0 0 0 1 515 322.8052738336714 Z" fill="#db4437" clip-path="url(#rablfilter6)"></path><path d="M 525.778529072 344.4381338742393 A 2 2 0 0 1 527.778529072 346.4381338742393 L 527.778529072 351.8539553752536 A 2 2 0 0 1 525.778529072 353.8539553752536 L 515 353.8539553752536 A 0 0 0 0 1 515 353.8539553752536 L 515 344.4381338742393 A 0 0 0 0 1 515 344.4381338742393 Z" fill="#4285f4" clip-path="url(#rablfilter6)"></path><path d="M 522.390713795 354.8539553752536 A 2 2 0 0 1 524.390713795 356.8539553752536 L 524.390713795 362.2697768762677 A 2 2 0 0 1 522.390713795 364.2697768762677 L 515 364.2697768762677 A 0 0 0 0 1 515 364.2697768762677 L 515 354.8539553752536 A 0 0 0 0 1 515 354.8539553752536 Z" fill="#db4437" clip-path="url(#rablfilter6)"></path><path d="M 518.950581638 376.4868154158215 A 2 2 0 0 1 520.950581638 378.4868154158215 L 520.950581638 383.9026369168357 A 2 2 0 0 1 518.950581638 385.9026369168357 L 515 385.9026369168357 A 0 0 0 0 1 515 385.9026369168357 L 515 376.4868154158215 A 0 0 0 0 1 515 376.4868154158215 Z" fill="#4285f4" clip-path="url(#rablfilter6)"></path><path d="M 516.365009495 386.9026369168357 A 2 2 0 0 1 518.365009495 388.9026369168357 L 518.365009495 394.31845841784985 A 2 2 0 0 1 516.365009495 396.31845841784985 L 515 396.31845841784985 A 0 0 0 0 1 515 396.31845841784985 L 515 386.9026369168357 A 0 0 0 0 1 515 386.9026369168357 Z" fill="#db4437" clip-path="url(#rablfilter6)"></path><path d="M 523.501582169 408.53549695740367 A 2 2 0 0 1 525.501582169 410.53549695740367 L 525.501582169 415.95131845841786 A 2 2 0 0 1 523.501582169 417.95131845841786 L 515 417.95131845841786 A 0 0 0 0 1 515 417.95131845841786 L 515 408.53549695740367 A 0 0 0 0 1 515 408.53549695740367 Z" fill="#4285f4" clip-path="url(#rablfilter6)"></path><path d="M 521.025328928 418.95131845841786 A 2 2 0 0 1 523.025328928 420.95131845841786 L 523.025328928 426.367139959432 A 2 2 0 0 1 521.025328928 428.367139959432 L 515 428.367139959432 A 0 0 0 0 1 515 428.367139959432 L 515 418.95131845841786 A 0 0 0 0 1 515 418.95131845841786 Z" fill="#db4437" clip-path="url(#rablfilter6)"></path><path d="M 523.134425918 440.58417849898586 A 2 2 0 0 1 525.134425918 442.58417849898586 L 525.134425918 448 A 2 2 0 0 1 523.134425918 450 L 515 450 A 0 0 0 0 1 515 450 L 515 440.58417849898586 A 0 0 0 0 1 515 440.58417849898586 Z" fill="#4285f4" clip-path="url(#rablfilter6)"></path><path d="M 521.840304089 451 A 2 2 0 0 1 523.840304089 453 L 523.840304089 458.4158215010142 A 2 2 0 0 1 521.840304089 460.4158215010142 L 515 460.4158215010142 A 0 0 0 0 1 515 460.4158215010142 L 515 451 A 0 0 0 0 1 515 451 Z" fill="#db4437" clip-path="url(#rablfilter6)"></path><path d="M 518.91517211 472.632860040568 A 2 2 0 0 1 520.91517211 474.632860040568 L 520.91517211 480.0486815415822 A 2 2 0 0 1 518.91517211 482.0486815415822 L 515 482.0486815415822 A 0 0 0 0 1 515 482.0486815415822 L 515 472.632860040568 A 0 0 0 0 1 515 472.632860040568 Z" fill="#4285f4" clip-path="url(#rablfilter6)"></path><path d="M 517.754117138 483.0486815415822 A 2 2 0 0 1 519.754117138 485.0486815415822 L 519.754117138 490.46450304259633 A 2 2 0 0 1 517.754117138 492.46450304259633 L 515 492.46450304259633 A 0 0 0 0 1 515 492.46450304259633 L 515 483.0486815415822 A 0 0 0 0 1 515 483.0486815415822 Z" fill="#db4437" clip-path="url(#rablfilter6)"></path><path d="M 518.00415662 504.6815415821501 A 2 2 0 0 1 520.00415662 506.6815415821501 L 520.00415662 512.0973630831643 A 2 2 0 0 1 518.00415662 514.0973630831643 L 515 514.0973630831643 A 0 0 0 0 1 515 514.0973630831643 L 515 504.6815415821501 A 0 0 0 0 1 515 504.6815415821501 Z" fill="#4285f4" clip-path="url(#rablfilter6)"></path><path d="M 517.165596359 515.0973630831643 A 2 2 0 0 1 519.165596359 517.0973630831643 L 519.165596359 522.5131845841785 A 2 2 0 0 1 517.165596359 524.5131845841785 L 515 524.5131845841785 A 0 0 0 0 1 515 524.5131845841785 L 515 515.0973630831643 A 0 0 0 0 1 515 515.0973630831643 Z" fill="#db4437" clip-path="url(#rablfilter6)"></path><path d="M 520.652556143 536.7302231237322 A 2 2 0 0 1 522.652556143 538.7302231237322 L 522.652556143 544.1460446247465 A 2 2 0 0 1 520.652556143 546.1460446247465 L 515 546.1460446247465 A 0 0 0 0 1 515 546.1460446247465 L 515 536.7302231237322 A 0 0 0 0 1 515 536.7302231237322 Z" fill="#4285f4" clip-path="url(#rablfilter6)"></path><path d="M 520.052043692 547.1460446247465 A 2 2 0 0 1 522.052043692 549.1460446247465 L 522.052043692 554.5618661257606 A 2 2 0 0 1 520.052043692 556.5618661257606 L 515 556.5618661257606 A 0 0 0 0 1 515 556.5618661257606 L 515 547.1460446247465 A 0 0 0 0 1 515 547.1460446247465 Z" fill="#db4437" clip-path="url(#rablfilter6)"></path><path d="M 514.5 568.7789046653144 A 1.9592050170000448 1.9592050170000448 0 0 1 516.459205017 570.7381096823144 L 516.459205017 576.2355211493285 A 1.9592050170000448 1.9592050170000448 0 0 1 514.5 578.1947261663286 L 514.5 578.1947261663286 A 0 0 0 0 1 514.5 578.1947261663286 L 514.5 568.7789046653144 A 0 0 0 0 1 514.5 568.7789046653144 Z" fill="#4285f4" clip-path="url(#rablfilter6)"></path><path d="M 514.5 579.1947261663286 A 1.4297225249999883 1.4297225249999883 0 0 1 515.929722525 580.6244486913286 L 515.929722525 587.1808251423428 A 1.4297225249999883 1.4297225249999883 0 0 1 514.5 588.6105476673428 L 514.5 588.6105476673428 A 0 0 0 0 1 514.5 588.6105476673428 L 514.5 579.1947261663286 A 0 0 0 0 1 514.5 579.1947261663286 Z" fill="#db4437" clip-path="url(#rablfilter6)"></path><path d="M 514.5 600.8275862068966 A 1.4887566539999852 1.4887566539999852 0 0 1 515.988756654 602.3163428608966 L 515.988756654 608.7546510539108 A 1.4887566539999852 1.4887566539999852 0 0 1 514.5 610.2434077079108 L 514.5 610.2434077079108 A 0 0 0 0 1 514.5 610.2434077079108 L 514.5 600.8275862068966 A 0 0 0 0 1 514.5 600.8275862068966 Z" fill="#4285f4" clip-path="url(#rablfilter6)"></path><path d="M 514.5 611.2434077079108 A 1.0069539480000458 1.0069539480000458 0 0 1 515.506953948 612.2503616559109 L 515.506953948 619.6522752609249 A 1.0069539480000458 1.0069539480000458 0 0 1 514.5 620.6592292089249 L 514.5 620.6592292089249 A 0 0 0 0 1 514.5 620.6592292089249 L 514.5 611.2434077079108 A 0 0 0 0 1 514.5 611.2434077079108 Z" fill="#db4437" clip-path="url(#rablfilter6)"></path><path d="M 515 632.8762677484787 A 1.1548229779999701 1.1548229779999701 0 0 1 516.154822978 634.0310907264786 L 516.154822978 641.1372662714929 A 1.1548229779999701 1.1548229779999701 0 0 1 515 642.2920892494928 L 515 642.2920892494928 A 0 0 0 0 1 515 642.2920892494928 L 515 632.8762677484787 A 0 0 0 0 1 515 632.8762677484787 Z" fill="#4285f4" clip-path="url(#rablfilter6)"></path><path d="M 514.5 643.2920892494928 A 1.762580588999981 1.762580588999981 0 0 1 516.262580589 645.0546698384928 L 516.262580589 650.9453301615072 A 1.762580588999981 1.762580588999981 0 0 1 514.5 652.7079107505072 L 514.5 652.7079107505072 A 0 0 0 0 1 514.5 652.7079107505072 L 514.5 643.2920892494928 A 0 0 0 0 1 514.5 643.2920892494928 Z" fill="#db4437" clip-path="url(#rablfilter6)"></path><path d="M 522.962833112 664.9249492900609 A 2 2 0 0 1 524.962833112 666.9249492900609 L 524.962833112 672.3407707910751 A 2 2 0 0 1 522.962833112 674.3407707910751 L 515 674.3407707910751 A 0 0 0 0 1 515 674.3407707910751 L 515 664.9249492900609 A 0 0 0 0 1 515 664.9249492900609 Z" fill="#4285f4" clip-path="url(#rablfilter6)"></path><path d="M 522.65105657 675.3407707910751 A 2 2 0 0 1 524.65105657 677.3407707910751 L 524.65105657 682.7565922920892 A 2 2 0 0 1 522.65105657 684.7565922920892 L 515 684.7565922920892 A 0 0 0 0 1 515 684.7565922920892 L 515 675.3407707910751 A 0 0 0 0 1 515 675.3407707910751 Z" fill="#db4437" clip-path="url(#rablfilter6)"></path><path d="M 530.402362748 696.973630831643 A 2 2 0 0 1 532.402362748 698.973630831643 L 532.402362748 704.3894523326572 A 2 2 0 0 1 530.402362748 706.3894523326572 L 515 706.3894523326572 A 0 0 0 0 1 515 706.3894523326572 L 515 696.973630831643 A 0 0 0 0 1 515 696.973630831643 Z" fill="#4285f4" clip-path="url(#rablfilter6)"></path><path d="M 530.164303157 707.3894523326572 A 2 2 0 0 1 532.164303157 709.3894523326572 L 532.164303157 714.8052738336714 A 2 2 0 0 1 530.164303157 716.8052738336714 L 515 716.8052738336714 A 0 0 0 0 1 515 716.8052738336714 L 515 707.3894523326572 A 0 0 0 0 1 515 707.3894523326572 Z" fill="#db4437" clip-path="url(#rablfilter6)"></path><path d="M 522.475468388 729.0223123732252 A 2 2 0 0 1 524.475468388 731.0223123732252 L 524.475468388 736.4381338742394 A 2 2 0 0 1 522.475468388 738.4381338742394 L 515 738.4381338742394 A 0 0 0 0 1 515 738.4381338742394 L 515 729.0223123732252 A 0 0 0 0 1 515 729.0223123732252 Z" fill="#4285f4" clip-path="url(#rablfilter6)"></path><path d="M 522.239523602 739.4381338742394 A 2 2 0 0 1 524.239523602 741.4381338742394 L 524.239523602 746.8539553752535 A 2 2 0 0 1 522.239523602 748.8539553752535 L 515 748.8539553752535 A 0 0 0 0 1 515 748.8539553752535 L 515 739.4381338742394 A 0 0 0 0 1 515 739.4381338742394 Z" fill="#db4437" clip-path="url(#rablfilter6)"></path><path d="M 516.08641541 761.0709939148073 A 2 2 0 0 1 518.08641541 763.0709939148073 L 518.08641541 768.4868154158215 A 2 2 0 0 1 516.08641541 770.4868154158215 L 515 770.4868154158215 A 0 0 0 0 1 515 770.4868154158215 L 515 761.0709939148073 A 0 0 0 0 1 515 761.0709939148073 Z" fill="#4285f4" clip-path="url(#rablfilter6)"></path><path d="M 515.876890787 771.4868154158215 A 2 2 0 0 1 517.876890787 773.4868154158215 L 517.876890787 778.9026369168357 A 2 2 0 0 1 515.876890787 780.9026369168357 L 515 780.9026369168357 A 0 0 0 0 1 515 780.9026369168357 L 515 771.4868154158215 A 0 0 0 0 1 515 771.4868154158215 Z" fill="#db4437" clip-path="url(#rablfilter6)"></path><path d="M 541.09804436 793.1196754563895 A 2 2 0 0 1 543.09804436 795.1196754563895 L 543.09804436 800.5354969574037 A 2 2 0 0 1 541.09804436 802.5354969574037 L 515 802.5354969574037 A 0 0 0 0 1 515 802.5354969574037 L 515 793.1196754563895 A 0 0 0 0 1 515 793.1196754563895 Z" fill="#4285f4" clip-path="url(#rablfilter6)"></path><path d="M 540.894667109 803.5354969574037 A 2 2 0 0 1 542.894667109 805.5354969574037 L 542.894667109 810.9513184584179 A 2 2 0 0 1 540.894667109 812.9513184584179 L 515 812.9513184584179 A 0 0 0 0 1 515 812.9513184584179 L 515 803.5354969574037 A 0 0 0 0 1 515 803.5354969574037 Z" fill="#db4437" clip-path="url(#rablfilter6)"></path><path d="M 514.5 825.1683569979717 A 0.31408469400003014 0.31408469400003014 0 0 1 514.814084694 825.4824416919718 L 514.814084694 834.2700938049858 A 0.31408469400003014 0.31408469400003014 0 0 1 514.5 834.5841784989858 L 514.5 834.5841784989858 A 0 0 0 0 1 514.5 834.5841784989858 L 514.5 825.1683569979717 A 0 0 0 0 1 514.5 825.1683569979717 Z" fill="#4285f4" clip-path="url(#rablfilter6)"></path><path d="M 514.5 835.5841784989858 A 0.28001265600005354 0.28001265600005354 0 0 1 514.780012656 835.8641911549859 L 514.780012656 844.719987344 A 0.28001265600005354 0.28001265600005354 0 0 1 514.5 845 L 514.5 845 A 0 0 0 0 1 514.5 845 L 514.5 835.5841784989858 A 0 0 0 0 1 514.5 835.5841784989858 Z" fill="#db4437" clip-path="url(#rablfilter6)"></path></g><g></g><g><text x="514.5" y="874.5" style="cursor: default; user-select: none; -webkit-font-smoothing: antialiased; font-family: Roboto; font-size: 12px;" fill="#757575" dx="-3.375px">0</text><text x="630" y="874.5" style="cursor: default; user-select: none; -webkit-font-smoothing: antialiased; font-family: Roboto; font-size: 12px;" fill="#757575" dx="-10.1171875px">500</text><text x="745.5" y="874.5" style="cursor: default; user-select: none; -webkit-font-smoothing: antialiased; font-family: Roboto; font-size: 12px;" fill="#757575" dx="-7.140625px">1K</text><text x="861" y="874.5" style="cursor: default; user-select: none; -webkit-font-smoothing: antialiased; font-family: Roboto; font-size: 12px;" fill="#757575" dx="-12.09375px">1.5K</text><text x="976.5" y="874.5" style="cursor: default; user-select: none; -webkit-font-smoothing: antialiased; font-family: Roboto; font-size: 12px;" fill="#757575" dx="-7.140625px">2K</text><text x="1092" y="874.5" style="cursor: default; user-select: none; -webkit-font-smoothing: antialiased; font-family: Roboto; font-size: 12px;" fill="#757575" dx="-12.09375px">2.5K</text><text x="1207.5" y="874.5" style="cursor: default; user-select: none; -webkit-font-smoothing: antialiased; font-family: Roboto; font-size: 12px;" fill="#757575" dx="-7.140625px">3K</text><text x="1323" y="874.5" style="cursor: default; user-select: none; -webkit-font-smoothing: antialiased; font-family: Roboto; font-size: 12px;" fill="#757575" dx="-12.09375px">3.5K</text><text x="1438.5" y="874.5" style="cursor: default; user-select: none; -webkit-font-smoothing: antialiased; font-family: Roboto; font-size: 12px;" fill="#757575" dx="-7.140625px">4K</text><text x="1554" y="874.5" style="cursor: default; user-select: none; -webkit-font-smoothing: antialiased; font-family: Roboto; font-size: 12px;" fill="#757575" dx="-12.09375px">4.5K</text><text x="1669.5" y="874.5" style="cursor: default; user-select: none; -webkit-font-smoothing: antialiased; font-family: Roboto; font-size: 12px;" fill="#757575" dx="-7.140625px">5K</text><text x="1785" y="874.5" style="cursor: default; user-select: none; -webkit-font-smoothing: antialiased; font-family: Roboto; font-size: 12px;" fill="#757575" dx="-12.09375px">5.5K</text><text x="1900.5" y="874.5" style="cursor: default; user-select: none; -webkit-font-smoothing: antialiased; font-family: Roboto; font-size: 12px;" fill="#757575" dx="-7.140625px">6K</text><text x="2016" y="874.5" style="cursor: default; user-select: none; -webkit-font-smoothing: antialiased; font-family: Roboto; font-size: 12px;" fill="#757575" dx="-12.09375px">6.5K</text><text x="2131.5" y="874.5" style="cursor: default; user-select: none; -webkit-font-smoothing: antialiased; font-family: Roboto; font-size: 12px;" fill="#757575" dx="-7.140625px">7K</text><text x="2247" y="874.5" style="cursor: default; user-select: none; -webkit-font-smoothing: antialiased; font-family: Roboto; font-size: 12px;" fill="#757575" dx="-12.09375px">7.5K</text><text x="2362.5" y="874.5" style="cursor: default; user-select: none; -webkit-font-smoothing: antialiased; font-family: Roboto; font-size: 12px;" fill="#757575" dx="-7.140625px">8K</text><text x="1440.43603515625" y="906.5" style="cursor: default; user-select: none; -webkit-font-smoothing: antialiased; font-family: Roboto; font-size: 12px;" fill="#424242" dx="-33.6484375px">Render Time</text><text x="508.5" y="69.91581811189167" style="cursor: default; user-select: none; -webkit-font-smoothing: antialiased; font-family: Roboto; font-size: 12px;" fill="#757575" dx="-213.375px">Attic_NVIDIA-Camera-raytracing-embree</text><text x="508.5" y="101.9645056579466" style="cursor: default; user-select: none; -webkit-font-smoothing: antialiased; font-family: Roboto; font-size: 12px;" fill="#757575" dx="-259.25px">Intel_Sponza-PhysCamera001-raytracing-embree</text><text x="508.5" y="134.01318557460706" style="cursor: default; user-select: none; -webkit-font-smoothing: antialiased; font-family: Roboto; font-size: 12px;" fill="#757575" dx="-295.796875px">DailyDweeb-VariantCamera-raytracing-embree-thin_lens</text><text x="508.5" y="166.06187312066197" style="cursor: default; user-select: none; -webkit-font-smoothing: antialiased; font-family: Roboto; font-size: 12px;" fill="#757575" dx="-223.640625px">CornellBox-render_cam-raytracing-embree</text><text x="508.5" y="198.11054540792782" style="cursor: default; user-select: none; -webkit-font-smoothing: antialiased; font-family: Roboto; font-size: 12px;" fill="#757575" dx="-475.40625px">CameraTestGround-VariantCamera-raytracing-embree-realistic_canon_70_200mm_70mm</text><text x="508.5" y="230.15923295398278" style="cursor: default; user-select: none; -webkit-font-smoothing: antialiased; font-family: Roboto; font-size: 12px;" fill="#757575" dx="-290.328125px">Intel_Sponza_Knight-KnightCam001-raytracing-embree</text><text x="508.5" y="262.20790524124857" style="cursor: default; user-select: none; -webkit-font-smoothing: antialiased; font-family: Roboto; font-size: 12px;" fill="#757575" dx="-312.71875px">OpenChessSet-render_cam_detailShape-raytracing-embree</text><text x="508.5" y="294.2565927873035" style="cursor: default; user-select: none; -webkit-font-smoothing: antialiased; font-family: Roboto; font-size: 12px;" fill="#757575" dx="-367.671875px">Intel_Sponza_Candles_Thin_Lens-PhysCamera002-raytracing-embree</text><text x="508.5" y="326.3052803333584" style="cursor: default; user-select: none; -webkit-font-smoothing: antialiased; font-family: Roboto; font-size: 12px;" fill="#757575" dx="-257.5625px">EmperorCrown-CameraShape-raytracing-embree</text><text x="508.5" y="358.3539678794134" style="cursor: default; user-select: none; -webkit-font-smoothing: antialiased; font-family: Roboto; font-size: 12px;" fill="#757575" dx="-259.875px">HsdLogo-render_cam_1Shape-raytracing-embree</text><text x="508.5" y="390.4026249078902" style="cursor: default; user-select: none; -webkit-font-smoothing: antialiased; font-family: Roboto; font-size: 12px;" fill="#757575" dx="-381.8125px">Intel_mooreLane-MASTER_cameraExtended-ambient_occlusion-embree</text><text x="508.5" y="422.4513124539451" style="cursor: default; user-select: none; -webkit-font-smoothing: antialiased; font-family: Roboto; font-size: 12px;" fill="#757575" dx="-214.96875px">Blenderman-Camera_001-debug-embree</text><text x="508.5" y="454.5" style="cursor: default; user-select: none; -webkit-font-smoothing: antialiased; font-family: Roboto; font-size: 12px;" fill="#757575" dx="-338.078125px">Intel_Sponza_Knight-KnightCam001-ambient_occlusion-embree</text><text x="508.5" y="486.548687546055" style="cursor: default; user-select: none; -webkit-font-smoothing: antialiased; font-family: Roboto; font-size: 12px;" fill="#757575" dx="-276.21875px">DailyDweeb-VariantCamera-debug-embree-thin_lens</text><text x="508.5" y="518.5973750921098" style="cursor: default; user-select: none; -webkit-font-smoothing: antialiased; font-family: Roboto; font-size: 12px;" fill="#757575" dx="-415.421875px">Intel_Sponza_Candles_Thin_Lens-PhysCamera002-ambient_occlusion-embree</text><text x="508.5" y="550.6460321205868" style="cursor: default; user-select: none; -webkit-font-smoothing: antialiased; font-family: Roboto; font-size: 12px;" fill="#757575" dx="-360.46875px">OpenChessSet-render_cam_detailShape-ambient_occlusion-embree</text><text x="508.5" y="582.6947501842196" style="cursor: default; user-select: none; -webkit-font-smoothing: antialiased; font-family: Roboto; font-size: 12px;" fill="#757575" dx="-237.984375px">EmperorCrown-CameraShape-debug-embree</text><text x="508.5" y="614.7434072126966" style="cursor: default; user-select: none; -webkit-font-smoothing: antialiased; font-family: Roboto; font-size: 12px;" fill="#757575" dx="-193.796875px">Attic_NVIDIA-Camera-debug-embree</text><text x="508.5" y="646.7920642411732" style="cursor: default; user-select: none; -webkit-font-smoothing: antialiased; font-family: Roboto; font-size: 12px;" fill="#757575" dx="-307.015625px">Intel_Sponza-PhysCamera001-ambient_occlusion-embree</text><text x="508.5" y="678.8407823048065" style="cursor: default; user-select: none; -webkit-font-smoothing: antialiased; font-family: Roboto; font-size: 12px;" fill="#757575" dx="-307.640625px">HsdLogo-render_cam_1Shape-ambient_occlusion-embree</text><text x="508.5" y="710.8894393332832" style="cursor: default; user-select: none; -webkit-font-smoothing: antialiased; font-family: Roboto; font-size: 12px;" fill="#757575" dx="-343.546875px">DailyDweeb-VariantCamera-ambient_occlusion-embree-thin_lens</text><text x="508.5" y="742.9381573969163" style="cursor: default; user-select: none; -webkit-font-smoothing: antialiased; font-family: Roboto; font-size: 12px;" fill="#757575" dx="-305.328125px">EmperorCrown-CameraShape-ambient_occlusion-embree</text><text x="508.5" y="774.986814425393" style="cursor: default; user-select: none; -webkit-font-smoothing: antialiased; font-family: Roboto; font-size: 12px;" fill="#757575" dx="-261.140625px">Attic_NVIDIA-Camera-ambient_occlusion-embree</text><text x="508.5" y="807.0354714538698" style="cursor: default; user-select: none; -webkit-font-smoothing: antialiased; font-family: Roboto; font-size: 12px;" fill="#757575" dx="-282.3125px">Blenderman-Camera_001-ambient_occlusion-embree</text><text x="508.5" y="839.0841895175029" style="cursor: default; user-select: none; -webkit-font-smoothing: antialiased; font-family: Roboto; font-size: 12px;" fill="#757575" dx="-271.40625px">CornellBox-render_cam-ambient_occlusion-embree</text><text x="15.09375" y="447.5" style="cursor: default; user-select: none; -webkit-font-smoothing: antialiased; font-family: Roboto; font-size: 12px;" fill="#424242" dx="-16.3828125px" transform="rotate(-90 15.09375 450.5)">Scene</text></g><g></g><g></g><g></g></svg>