<svg width="2510" height="910" xmlns="http://www.w3.org/2000/svg"><defs><clipPath id="rablfilter2"><rect x="514.5" y="55.5" width="1847" height="802"></rect></clipPath></defs><g><rect x="0" y="0" width="2510" height="910" fill="#ffffff" fill-opacity="1" stroke="#ffffff" stroke-opacity="0" stroke-width="0"></rect><text x="0" y="15" style="cursor: default; user-select: none; -webkit-font-smoothing: antialiased; font-family: Roboto; font-size: 16px;" fill="#757575" dx="0px">Relative Timing</text><rect x="2409.8466796875" y="55.5" width="12" height="12" rx="2" ry="2" fill="#4285f4"></rect><text x="2429.8466796875" y="68.5" style="cursor: default; user-select: none; -webkit-font-smoothing: antialiased; font-family: Roboto;" fill="#757575" dx="0px">Baseline</text><rect x="2409.8466796875" y="88.5" width="12" height="12" rx="2" ry="2" fill="#db4437"></rect><text x="2429.8466796875" y="101.5" style="cursor: default; user-select: none; -webkit-font-smoothing: antialiased; font-family: Roboto;" fill="#757575" dx="0px">New revision</text><rect x="514.5" y="55.5" width="1847" height="802" fill="#ffffff" fill-opacity="1" stroke="#ffffff" stroke-opacity="0" stroke-width="1"></rect></g><g><line x1="514.5" x2="514.5" y1="55.5" y2="857.5" stroke="#9E9E9E" stroke-width="1"></line><line x1="682.4090909090909" x2="682.4090909090909" y1="55.5" y2="857.5" stroke="#E0E0E0" stroke-width="1"></line><line x1="850.3181818181818" x2="850.3181818181818" y1="55.5" y2="857.5" stroke="#E0E0E0" stroke-width="1"></line><line x1="1018.2272727272727" x2="1018.2272727272727" y1="55.5" y2="857.5" stroke="#E0E0E0" stroke-width="1"></line><line x1="1186.1363636363635" x2="1186.1363636363635" y1="55.5" y2="857.5" stroke="#E0E0E0" stroke-width="1"></line><line x1="1354.0454545454545" x2="1354.0454545454545" y1="55.5" y2="857.5" stroke="#E0E0E0" stroke-width="1"></line><line x1="1521.9545454545455" x2="1521.9545454545455" y1="55.5" y2="857.5" stroke="#E0E0E0" stroke-width="1"></line><line x1="1689.8636363636363" x2="1689.8636363636363" y1="55.5" y2="857.5" stroke="#E0E0E0" stroke-width="1"></line><line x1="1857.7727272727273" x2="1857.7727272727273" y1="55.5" y2="857.5" stroke="#E0E0E0" stroke-width="1"></line><line x1="2025.681818181818" x2="2025.681818181818" y1="55.5" y2="857.5" stroke="#E0E0E0" stroke-width="1"></line><line x1="2193.590909090909" x2="2193.590909090909" y1="55.5" y2="857.5" stroke="#E0E0E0" stroke-width="1"></line><line x1="2361.5" x2="2361.5" y1="55.5" y2="857.5" stroke="#E0E0E0" stroke-width="1"></line></g><g><path d="M 2191.090909090909 56 A 2 2 0 0 1 2193.090909090909 58 L 2193.090909090909 63.41582150101419 A 2 2 0 0 1 2191.090909090909 65.4158215010142 L 515 65.4158215010142 A 0 0 0 0 1 515 65.4158215010142 L 515 56 A 0 0 0 0 1 515 56 Z" fill="#4285f4" clip-path="url(#rablfilter2)"></path><path d="M 1614.2351322607399 66.4158215010142 A 2 2 0 0 1 1616.2351322607399 68.4158215010142 L 1616.2351322607399 73.8316430020284 A 2 2 0 0 1 1614.2351322607399 75.8316430020284 L 515 75.8316430020284 A 0 0 0 0 1 515 75.8316430020284 L 515 66.4158215010142 A 0 0 0 0 1 515 66.4158215010142 Z" fill="#db4437" clip-path="url(#rablfilter2)"></path><path d="M 2191.090909090909 88.04868154158214 A 2 2 0 0 1 2193.090909090909 90.04868154158214 L 2193.090909090909 95.46450304259635 A 2 2 0 0 1 2191.090909090909 97.46450304259635 L 515 97.46450304259635 A 0 0 0 0 1 515 97.46450304259635 L 515 88.04868154158214 A 0 0 0 0 1 515 88.04868154158214 Z" fill="#4285f4" clip-path="url(#rablfilter2)"></path><path d="M 1804.5594366814496 98.46450304259635 A 2 2 0 0 1 1806.5594366814496 100.46450304259635 L 1806.5594366814496 105.88032454361056 A 2 2 0 0 1 1804.5594366814496 107.88032454361056 L 515 107.88032454361056 A 0 0 0 0 1 515 107.88032454361056 L 515 98.46450304259635 A 0 0 0 0 1 515 98.46450304259635 Z" fill="#db4437" clip-path="url(#rablfilter2)"></path><path d="M 2191.090909090909 120.0973630831643 A 2 2 0 0 1 2193.090909090909 122.0973630831643 L 2193.090909090909 127.51318458417853 A 2 2 0 0 1 2191.090909090909 129.51318458417853 L 515 129.51318458417853 A 0 0 0 0 1 515 129.51318458417853 L 515 120.0973630831643 A 0 0 0 0 1 515 120.0973630831643 Z" fill="#4285f4" clip-path="url(#rablfilter2)"></path><path d="M 1920.488408675211 130.51318458417853 A 2 2 0 0 1 1922.488408675211 132.51318458417853 L 1922.488408675211 137.92900608519273 A 2 2 0 0 1 1920.488408675211 139.92900608519273 L 515 139.92900608519273 A 0 0 0 0 1 515 139.92900608519273 L 515 130.51318458417853 A 0 0 0 0 1 515 130.51318458417853 Z" fill="#db4437" clip-path="url(#rablfilter2)"></path><path d="M 2191.090909090909 152.14604462474648 A 2 2 0 0 1 2193.090909090909 154.14604462474648 L 2193.090909090909 159.56186612576067 A 2 2 0 0 1 2191.090909090909 161.56186612576067 L 515 161.56186612576067 A 0 0 0 0 1 515 161.56186612576067 L 515 152.14604462474648 A 0 0 0 0 1 515 152.14604462474648 Z" fill="#4285f4" clip-path="url(#rablfilter2)"></path><path d="M 1972.8212268722 162.56186612576067 A 2 2 0 0 1 1974.8212268722 164.56186612576067 L 1974.8212268722 169.97768762677487 A 2 2 0 0 1 1972.8212268722 171.97768762677487 L 515 171.97768762677487 A 0 0 0 0 1 515 171.97768762677487 L 515 162.56186612576067 A 0 0 0 0 1 515 162.56186612576067 Z" fill="#db4437" clip-path="url(#rablfilter2)"></path><path d="M 2191.090909090909 184.1947261663286 A 2 2 0 0 1 2193.090909090909 186.1947261663286 L 2193.090909090909 191.61054766734281 A 2 2 0 0 1 2191.090909090909 193.61054766734281 L 515 193.61054766734281 A 0 0 0 0 1 515 193.61054766734281 L 515 184.1947261663286 A 0 0 0 0 1 515 184.1947261663286 Z" fill="#4285f4" clip-path="url(#rablfilter2)"></path><path d="M 1984.247120182551 194.61054766734281 A 2 2 0 0 1 1986.247120182551 196.61054766734281 L 1986.247120182551 202.02636916835704 A 2 2 0 0 1 1984.247120182551 204.02636916835704 L 515 204.02636916835704 A 0 0 0 0 1 515 204.02636916835704 L 515 194.61054766734281 A 0 0 0 0 1 515 194.61054766734281 Z" fill="#db4437" clip-path="url(#rablfilter2)"></path><path d="M 2191.090909090909 216.24340770791076 A 2 2 0 0 1 2193.090909090909 218.24340770791076 L 2193.090909090909 223.65922920892498 A 2 2 0 0 1 2191.090909090909 225.65922920892498 L 515 225.65922920892498 A 0 0 0 0 1 515 225.65922920892498 L 515 216.24340770791076 A 0 0 0 0 1 515 216.24340770791076 Z" fill="#4285f4" clip-path="url(#rablfilter2)"></path><path d="M 2014.626354744767 226.65922920892498 A 2 2 0 0 1 2016.626354744767 228.65922920892498 L 2016.626354744767 234.07505070993918 A 2 2 0 0 1 2014.626354744767 236.07505070993918 L 515 236.07505070993918 A 0 0 0 0 1 515 236.07505070993918 L 515 226.65922920892498 A 0 0 0 0 1 515 226.65922920892498 Z" fill="#db4437" clip-path="url(#rablfilter2)"></path><path d="M 2191.090909090909 248.29208924949293 A 2 2 0 0 1 2193.090909090909 250.29208924949293 L 2193.090909090909 255.7079107505071 A 2 2 0 0 1 2191.090909090909 257.7079107505071 L 515 257.7079107505071 A 0 0 0 0 1 515 257.7079107505071 L 515 248.29208924949293 A 0 0 0 0 1 515 248.29208924949293 Z" fill="#4285f4" clip-path="url(#rablfilter2)"></path><path d="M 2079.1121262817533 258.7079107505071 A 2 2 0 0 1 2081.1121262817533 260.7079107505071 L 2081.1121262817533 266.12373225152135 A 2 2 0 0 1 2079.1121262817533 268.12373225152135 L 515 268.12373225152135 A 0 0 0 0 1 515 268.12373225152135 L 515 258.7079107505071 A 0 0 0 0 1 515 258.7079107505071 Z" fill="#db4437" clip-path="url(#rablfilter2)"></path><path d="M 2191.090909090909 280.34077079107504 A 2 2 0 0 1 2193.090909090909 282.34077079107504 L 2193.090909090909 287.75659229208924 A 2 2 0 0 1 2191.090909090909 289.75659229208924 L 515 289.75659229208924 A 0 0 0 0 1 515 289.75659229208924 L 515 280.34077079107504 A 0 0 0 0 1 515 280.34077079107504 Z" fill="#4285f4" clip-path="url(#rablfilter2)"></path><path d="M 2114.571755851786 290.75659229208924 A 2 2 0 0 1 2116.571755851786 292.75659229208924 L 2116.571755851786 298.1724137931035 A 2 2 0 0 1 2114.571755851786 300.1724137931035 L 515 300.1724137931035 A 0 0 0 0 1 515 300.1724137931035 L 515 290.75659229208924 A 0 0 0 0 1 515 290.75659229208924 Z" fill="#db4437" clip-path="url(#rablfilter2)"></path><path d="M 2191.090909090909 312.3894523326572 A 2 2 0 0 1 2193.090909090909 314.3894523326572 L 2193.090909090909 319.8052738336714 A 2 2 0 0 1 2191.090909090909 321.8052738336714 L 515 321.8052738336714 A 0 0 0 0 1 515 321.8052738336714 L 515 312.3894523326572 A 0 0 0 0 1 515 312.3894523326572 Z" fill="#4285f4" clip-path="url(#rablfilter2)"></path><path d="M 2151.246585855548 322.8052738336714 A 2 2 0 0 1 2153.246585855548 324.8052738336714 L 2153.246585855548 330.2210953346856 A 2 2 0 0 1 2151.246585855548 332.2210953346856 L 515 332.2210953346856 A 0 0 0 0 1 515 332.2210953346856 L 515 322.8052738336714 A 0 0 0 0 1 515 322.8052738336714 Z" fill="#db4437" clip-path="url(#rablfilter2)"></path><path d="M 2191.090909090909 344.4381338742393 A 2 2 0 0 1 2193.090909090909 346.4381338742393 L 2193.090909090909 351.8539553752536 A 2 2 0 0 1 2191.090909090909 353.8539553752536 L 515 353.8539553752536 A 0 0 0 0 1 515 353.8539553752536 L 515 344.4381338742393 A 0 0 0 0 1 515 344.4381338742393 Z" fill="#4285f4" clip-path="url(#rablfilter2)"></path><path d="M 2158.644894952675 354.8539553752536 A 2 2 0 0 1 2160.644894952675 356.8539553752536 L 2160.644894952675 362.2697768762677 A 2 2 0 0 1 2158.644894952675 364.2697768762677 L 515 364.2697768762677 A 0 0 0 0 1 515 364.2697768762677 L 515 354.8539553752536 A 0 0 0 0 1 515 354.8539553752536 Z" fill="#db4437" clip-path="url(#rablfilter2)"></path><path d="M 2191.090909090909 376.4868154158215 A 2 2 0 0 1 2193.090909090909 378.4868154158215 L 2193.090909090909 383.9026369168357 A 2 2 0 0 1 2191.090909090909 385.9026369168357 L 515 385.9026369168357 A 0 0 0 0 1 515 385.9026369168357 L 515 376.4868154158215 A 0 0 0 0 1 515 376.4868154158215 Z" fill="#4285f4" clip-path="url(#rablfilter2)"></path><path d="M 2159.5236231742265 386.9026369168357 A 2 2 0 0 1 2161.5236231742265 388.9026369168357 L 2161.5236231742265 394.31845841784985 A 2 2 0 0 1 2159.5236231742265 396.31845841784985 L 515 396.31845841784985 A 0 0 0 0 1 515 396.31845841784985 L 515 386.9026369168357 A 0 0 0 0 1 515 386.9026369168357 Z" fill="#db4437" clip-path="url(#rablfilter2)"></path><path d="M 2191.090909090909 408.53549695740367 A 2 2 0 0 1 2193.090909090909 410.53549695740367 L 2193.090909090909 415.95131845841786 A 2 2 0 0 1 2191.090909090909 417.95131845841786 L 515 417.95131845841786 A 0 0 0 0 1 515 417.95131845841786 L 515 408.53549695740367 A 0 0 0 0 1 515 408.53549695740367 Z" fill="#4285f4" clip-path="url(#rablfilter2)"></path><path d="M 2163.298844793031 418.95131845841786 A 2 2 0 0 1 2165.298844793031 420.95131845841786 L 2165.298844793031 426.367139959432 A 2 2 0 0 1 2163.298844793031 428.367139959432 L 515 428.367139959432 A 0 0 0 0 1 515 428.367139959432 L 515 418.95131845841786 A 0 0 0 0 1 515 418.95131845841786 Z" fill="#db4437" clip-path="url(#rablfilter2)"></path><path d="M 2191.090909090909 440.58417849898586 A 2 2 0 0 1 2193.090909090909 442.58417849898586 L 2193.090909090909 448 A 2 2 0 0 1 2191.090909090909 450 L 515 450 A 0 0 0 0 1 515 450 L 515 440.58417849898586 A 0 0 0 0 1 515 440.58417849898586 Z" fill="#4285f4" clip-path="url(#rablfilter2)"></path><path d="M 2194.7328634381693 451 A 2 2 0 0 1 2196.7328634381693 453 L 2196.7328634381693 458.4158215010142 A 2 2 0 0 1 2194.7328634381693 460.4158215010142 L 515 460.4158215010142 A 0 0 0 0 1 515 460.4158215010142 L 515 451 A 0 0 0 0 1 515 451 Z" fill="#db4437" clip-path="url(#rablfilter2)"></path><path d="M 2191.090909090909 472.632860040568 A 2 2 0 0 1 2193.090909090909 474.632860040568 L 2193.090909090909 480.0486815415822 A 2 2 0 0 1 2191.090909090909 482.0486815415822 L 515 482.0486815415822 A 0 0 0 0 1 515 482.0486815415822 L 515 472.632860040568 A 0 0 0 0 1 515 472.632860040568 Z" fill="#4285f4" clip-path="url(#rablfilter2)"></path><path d="M 2200.532009738722 483.0486815415822 A 2 2 0 0 1 2202.532009738722 485.0486815415822 L 2202.532009738722 490.46450304259633 A 2 2 0 0 1 2200.532009738722 492.46450304259633 L 515 492.46450304259633 A 0 0 0 0 1 515 492.46450304259633 L 515 483.0486815415822 A 0 0 0 0 1 515 483.0486815415822 Z" fill="#db4437" clip-path="url(#rablfilter2)"></path><path d="M 2191.090909090909 504.6815415821501 A 2 2 0 0 1 2193.090909090909 506.6815415821501 L 2193.090909090909 512.0973630831643 A 2 2 0 0 1 2191.090909090909 514.0973630831643 L 515 514.0973630831643 A 0 0 0 0 1 515 514.0973630831643 L 515 504.6815415821501 A 0 0 0 0 1 515 504.6815415821501 Z" fill="#4285f4" clip-path="url(#rablfilter2)"></path><path d="M 2201.716792861509 515.0973630831643 A 2 2 0 0 1 2203.716792861509 517.0973630831643 L 2203.716792861509 522.5131845841785 A 2 2 0 0 1 2201.716792861509 524.5131845841785 L 515 524.5131845841785 A 0 0 0 0 1 515 524.5131845841785 L 515 515.0973630831643 A 0 0 0 0 1 515 515.0973630831643 Z" fill="#db4437" clip-path="url(#rablfilter2)"></path><path d="M 2191.090909090909 536.7302231237322 A 2 2 0 0 1 2193.090909090909 538.7302231237322 L 2193.090909090909 544.1460446247465 A 2 2 0 0 1 2191.090909090909 546.1460446247465 L 515 546.1460446247465 A 0 0 0 0 1 515 546.1460446247465 L 515 536.7302231237322 A 0 0 0 0 1 515 536.7302231237322 Z" fill="#4285f4" clip-path="url(#rablfilter2)"></path><path d="M 2204.0396241264975 547.1460446247465 A 2 2 0 0 1 2206.0396241264975 549.1460446247465 L 2206.0396241264975 554.5618661257606 A 2 2 0 0 1 2204.0396241264975 556.5618661257606 L 515 556.5618661257606 A 0 0 0 0 1 515 556.5618661257606 L 515 547.1460446247465 A 0 0 0 0 1 515 547.1460446247465 Z" fill="#db4437" clip-path="url(#rablfilter2)"></path><path d="M 2191.090909090909 568.7789046653144 A 2 2 0 0 1 2193.090909090909 570.7789046653144 L 2193.090909090909 576.1947261663286 A 2 2 0 0 1 2191.090909090909 578.1947261663286 L 515 578.1947261663286 A 0 0 0 0 1 515 578.1947261663286 L 515 568.7789046653144 A 0 0 0 0 1 515 568.7789046653144 Z" fill="#4285f4" clip-path="url(#rablfilter2)"></path><path d="M 2205.3415715634937 579.1947261663286 A 2 2 0 0 1 2207.3415715634937 581.1947261663286 L 2207.3415715634937 586.6105476673428 A 2 2 0 0 1 2205.3415715634937 588.6105476673428 L 515 588.6105476673428 A 0 0 0 0 1 515 588.6105476673428 L 515 579.1947261663286 A 0 0 0 0 1 515 579.1947261663286 Z" fill="#db4437" clip-path="url(#rablfilter2)"></path><path d="M 2191.090909090909 600.8275862068966 A 2 2 0 0 1 2193.090909090909 602.8275862068966 L 2193.090909090909 608.2434077079108 A 2 2 0 0 1 2191.090909090909 610.2434077079108 L 515 610.2434077079108 A 0 0 0 0 1 515 610.2434077079108 L 515 600.8275862068966 A 0 0 0 0 1 515 600.8275862068966 Z" fill="#4285f4" clip-path="url(#rablfilter2)"></path><path d="M 2206.0092555294787 611.2434077079108 A 2 2 0 0 1 2208.0092555294787 613.2434077079108 L 2208.0092555294787 618.6592292089249 A 2 2 0 0 1 2206.0092555294787 620.6592292089249 L 515 620.6592292089249 A 0 0 0 0 1 515 620.6592292089249 L 515 611.2434077079108 A 0 0 0 0 1 515 611.2434077079108 Z" fill="#db4437" clip-path="url(#rablfilter2)"></path><path d="M 2191.090909090909 632.8762677484787 A 2 2 0 0 1 2193.090909090909 634.8762677484787 L 2193.090909090909 640.2920892494928 A 2 2 0 0 1 2191.090909090909 642.2920892494928 L 515 642.2920892494928 A 0 0 0 0 1 515 642.2920892494928 L 515 632.8762677484787 A 0 0 0 0 1 515 632.8762677484787 Z" fill="#4285f4" clip-path="url(#rablfilter2)"></path><path d="M 2210.3615766394114 643.2920892494928 A 2 2 0 0 1 2212.3615766394114 645.2920892494928 L 2212.3615766394114 650.7079107505072 A 2 2 0 0 1 2210.3615766394114 652.7079107505072 L 515 652.7079107505072 A 0 0 0 0 1 515 652.7079107505072 L 515 643.2920892494928 A 0 0 0 0 1 515 643.2920892494928 Z" fill="#db4437" clip-path="url(#rablfilter2)"></path><path d="M 2191.090909090909 664.9249492900609 A 2 2 0 0 1 2193.090909090909 666.9249492900609 L 2193.090909090909 672.3407707910751 A 2 2 0 0 1 2191.090909090909 674.3407707910751 L 515 674.3407707910751 A 0 0 0 0 1 515 674.3407707910751 L 515 664.9249492900609 A 0 0 0 0 1 515 664.9249492900609 Z" fill="#4285f4" clip-path="url(#rablfilter2)"></path><path d="M 2212.02589703904 675.3407707910751 A 2 2 0 0 1 2214.02589703904 677.3407707910751 L 2214.02589703904 682.7565922920892 A 2 2 0 0 1 2212.02589703904 684.7565922920892 L 515 684.7565922920892 A 0 0 0 0 1 515 684.7565922920892 L 515 675.3407707910751 A 0 0 0 0 1 515 675.3407707910751 Z" fill="#db4437" clip-path="url(#rablfilter2)"></path><path d="M 2191.090909090909 696.973630831643 A 2 2 0 0 1 2193.090909090909 698.973630831643 L 2193.090909090909 704.3894523326572 A 2 2 0 0 1 2191.090909090909 706.3894523326572 L 515 706.3894523326572 A 0 0 0 0 1 515 706.3894523326572 L 515 696.973630831643 A 0 0 0 0 1 515 696.973630831643 Z" fill="#4285f4" clip-path="url(#rablfilter2)"></path><path d="M 2216.423429935857 707.3894523326572 A 2 2 0 0 1 2218.423429935857 709.3894523326572 L 2218.423429935857 714.8052738336714 A 2 2 0 0 1 2216.423429935857 716.8052738336714 L 515 716.8052738336714 A 0 0 0 0 1 515 716.8052738336714 L 515 707.3894523326572 A 0 0 0 0 1 515 707.3894523326572 Z" fill="#db4437" clip-path="url(#rablfilter2)"></path><path d="M 2191.090909090909 729.0223123732252 A 2 2 0 0 1 2193.090909090909 731.0223123732252 L 2193.090909090909 736.4381338742394 A 2 2 0 0 1 2191.090909090909 738.4381338742394 L 515 738.4381338742394 A 0 0 0 0 1 515 738.4381338742394 L 515 729.0223123732252 A 0 0 0 0 1 515 729.0223123732252 Z" fill="#4285f4" clip-path="url(#rablfilter2)"></path><path d="M 2233.111250278539 739.4381338742394 A 2 2 0 0 1 2235.111250278539 741.4381338742394 L 2235.111250278539 746.8539553752535 A 2 2 0 0 1 2233.111250278539 748.8539553752535 L 515 748.8539553752535 A 0 0 0 0 1 515 748.8539553752535 L 515 739.4381338742394 A 0 0 0 0 1 515 739.4381338742394 Z" fill="#db4437" clip-path="url(#rablfilter2)"></path><path d="M 2191.090909090909 761.0709939148073 A 2 2 0 0 1 2193.090909090909 763.0709939148073 L 2193.090909090909 768.4868154158215 A 2 2 0 0 1 2191.090909090909 770.4868154158215 L 515 770.4868154158215 A 0 0 0 0 1 515 770.4868154158215 L 515 761.0709939148073 A 0 0 0 0 1 515 761.0709939148073 Z" fill="#4285f4" clip-path="url(#rablfilter2)"></path><path d="M 2279.6002162015575 771.4868154158215 A 2 2 0 0 1 2281.6002162015575 773.4868154158215 L 2281.6002162015575 778.9026369168357 A 2 2 0 0 1 2279.6002162015575 780.9026369168357 L 515 780.9026369168357 A 0 0 0 0 1 515 780.9026369168357 L 515 771.4868154158215 A 0 0 0 0 1 515 771.4868154158215 Z" fill="#db4437" clip-path="url(#rablfilter2)"></path><path d="M 2191.090909090909 793.1196754563895 A 2 2 0 0 1 2193.090909090909 795.1196754563895 L 2193.090909090909 800.5354969574037 A 2 2 0 0 1 2191.090909090909 802.5354969574037 L 515 802.5354969574037 A 0 0 0 0 1 515 802.5354969574037 L 515 793.1196754563895 A 0 0 0 0 1 515 793.1196754563895 Z" fill="#4285f4" clip-path="url(#rablfilter2)"></path><path d="M 2284.9192963984733 803.5354969574037 A 2 2 0 0 1 2286.9192963984733 805.5354969574037 L 2286.9192963984733 810.9513184584179 A 2 2 0 0 1 2284.9192963984733 812.9513184584179 L 515 812.9513184584179 A 0 0 0 0 1 515 812.9513184584179 L 515 803.5354969574037 A 0 0 0 0 1 515 803.5354969574037 Z" fill="#db4437" clip-path="url(#rablfilter2)"></path><path d="M 2191.090909090909 825.1683569979717 A 2 2 0 0 1 2193.090909090909 827.1683569979717 L 2193.090909090909 832.5841784989858 A 2 2 0 0 1 2191.090909090909 834.5841784989858 L 515 834.5841784989858 A 0 0 0 0 1 515 834.5841784989858 L 515 825.1683569979717 A 0 0 0 0 1 515 825.1683569979717 Z" fill="#4285f4" clip-path="url(#rablfilter2)"></path><path d="M 2287.3300100615133 835.5841784989858 A 2 2 0 0 1 2289.3300100615133 837.5841784989858 L 2289.3300100615133 843 A 2 2 0 0 1 2287.3300100615133 845 L 515 845 A 0 0 0 0 1 515 845 L 515 835.5841784989858 A 0 0 0 0 1 515 835.5841784989858 Z" fill="#db4437" clip-path="url(#rablfilter2)"></path></g><g></g><g><text x="514.5" y="874.5" style="cursor: default; user-select: none; -webkit-font-smoothing: antialiased; font-family: Roboto; font-size: 12px;" fill="#757575" dx="-3.375px">0</text><text x="682.4090909090909" y="874.5" style="cursor: default; user-select: none; -webkit-font-smoothing: antialiased; font-family: Roboto; font-size: 12px;" fill="#757575" dx="-8.328125px">0.1</text><text x="850.3181818181818" y="874.5" style="cursor: default; user-select: none; -webkit-font-smoothing: antialiased; font-family: Roboto; font-size: 12px;" fill="#757575" dx="-8.328125px">0.2</text><text x="1018.2272727272727" y="874.5" style="cursor: default; user-select: none; -webkit-font-smoothing: antialiased; font-family: Roboto; font-size: 12px;" fill="#757575" dx="-8.328125px">0.3</text><text x="1186.1363636363635" y="874.5" style="cursor: default; user-select: none; -webkit-font-smoothing: antialiased; font-family: Roboto; font-size: 12px;" fill="#757575" dx="-8.328125px">0.4</text><text x="1354.0454545454545" y="874.5" style="cursor: default; user-select: none; -webkit-font-smoothing: antialiased; font-family: Roboto; font-size: 12px;" fill="#757575" dx="-8.328125px">0.5</text><text x="1521.9545454545455" y="874.5" style="cursor: default; user-select: none; -webkit-font-smoothing: antialiased; font-family: Roboto; font-size: 12px;" fill="#757575" dx="-8.328125px">0.6</text><text x="1689.8636363636363" y="874.5" style="cursor: default; user-select: none; -webkit-font-smoothing: antialiased; font-family: Roboto; font-size: 12px;" fill="#757575" dx="-8.328125px">0.7</text><text x="1857.7727272727273" y="874.5" style="cursor: default; user-select: none; -webkit-font-smoothing: antialiased; font-family: Roboto; font-size: 12px;" fill="#757575" dx="-8.328125px">0.8</text><text x="2025.681818181818" y="874.5" style="cursor: default; user-select: none; -webkit-font-smoothing: antialiased; font-family: Roboto; font-size: 12px;" fill="#757575" dx="-8.328125px">0.9</text><text x="2193.590909090909" y="874.5" style="cursor: default; user-select: none; -webkit-font-smoothing: antialiased; font-family: Roboto; font-size: 12px;" fill="#757575" dx="-3.375px">1</text><text x="2361.5" y="874.5" style="cursor: default; user-select: none; -webkit-font-smoothing: antialiased; font-family: Roboto; font-size: 12px;" fill="#757575" dx="-8.328125px">1.1</text><text x="1440.4140625" y="906.5" style="cursor: default; user-select: none; -webkit-font-smoothing: antialiased; font-family: Roboto; font-size: 12px;" fill="#424242" dx="-33.6484375px">Render Time</text><text x="508.5" y="69.91581811189167" style="cursor: default; user-select: none; -webkit-font-smoothing: antialiased; font-family: Roboto; font-size: 12px;" fill="#757575" dx="-381.8125px">Intel_mooreLane-MASTER_cameraExtended-ambient_occlusion-embree</text><text x="508.5" y="101.9645056579466" style="cursor: default; user-select: none; -webkit-font-smoothing: antialiased; font-family: Roboto; font-size: 12px;" fill="#757575" dx="-193.796875px">Attic_NVIDIA-Camera-debug-embree</text><text x="508.5" y="134.01318557460706" style="cursor: default; user-select: none; -webkit-font-smoothing: antialiased; font-family: Roboto; font-size: 12px;" fill="#757575" dx="-307.015625px">Intel_Sponza-PhysCamera001-ambient_occlusion-embree</text><text x="508.5" y="166.06187312066197" style="cursor: default; user-select: none; -webkit-font-smoothing: antialiased; font-family: Roboto; font-size: 12px;" fill="#757575" dx="-214.96875px">Blenderman-Camera_001-debug-embree</text><text x="508.5" y="198.11054540792782" style="cursor: default; user-select: none; -webkit-font-smoothing: antialiased; font-family: Roboto; font-size: 12px;" fill="#757575" dx="-415.421875px">Intel_Sponza_Candles_Thin_Lens-PhysCamera002-ambient_occlusion-embree</text><text x="508.5" y="230.15923295398278" style="cursor: default; user-select: none; -webkit-font-smoothing: antialiased; font-family: Roboto; font-size: 12px;" fill="#757575" dx="-338.078125px">Intel_Sponza_Knight-KnightCam001-ambient_occlusion-embree</text><text x="508.5" y="262.20790524124857" style="cursor: default; user-select: none; -webkit-font-smoothing: antialiased; font-family: Roboto; font-size: 12px;" fill="#757575" dx="-259.25px">Intel_Sponza-PhysCamera001-raytracing-embree</text><text x="508.5" y="294.2565927873035" style="cursor: default; user-select: none; -webkit-font-smoothing: antialiased; font-family: Roboto; font-size: 12px;" fill="#757575" dx="-276.21875px">DailyDweeb-VariantCamera-debug-embree-thin_lens</text><text x="508.5" y="326.3052803333584" style="cursor: default; user-select: none; -webkit-font-smoothing: antialiased; font-family: Roboto; font-size: 12px;" fill="#757575" dx="-261.140625px">Attic_NVIDIA-Camera-ambient_occlusion-embree</text><text x="508.5" y="358.3539678794134" style="cursor: default; user-select: none; -webkit-font-smoothing: antialiased; font-family: Roboto; font-size: 12px;" fill="#757575" dx="-367.671875px">Intel_Sponza_Candles_Thin_Lens-PhysCamera002-raytracing-embree</text><text x="508.5" y="390.4026249078902" style="cursor: default; user-select: none; -webkit-font-smoothing: antialiased; font-family: Roboto; font-size: 12px;" fill="#757575" dx="-223.640625px">CornellBox-render_cam-raytracing-embree</text><text x="508.5" y="422.4513124539451" style="cursor: default; user-select: none; -webkit-font-smoothing: antialiased; font-family: Roboto; font-size: 12px;" fill="#757575" dx="-312.71875px">OpenChessSet-render_cam_detailShape-raytracing-embree</text><text x="508.5" y="454.5" style="cursor: default; user-select: none; -webkit-font-smoothing: antialiased; font-family: Roboto; font-size: 12px;" fill="#757575" dx="-295.796875px">DailyDweeb-VariantCamera-raytracing-embree-thin_lens</text><text x="508.5" y="486.548687546055" style="cursor: default; user-select: none; -webkit-font-smoothing: antialiased; font-family: Roboto; font-size: 12px;" fill="#757575" dx="-475.40625px">CameraTestGround-VariantCamera-raytracing-embree-realistic_canon_70_200mm_70mm</text><text x="508.5" y="518.5973750921098" style="cursor: default; user-select: none; -webkit-font-smoothing: antialiased; font-family: Roboto; font-size: 12px;" fill="#757575" dx="-213.375px">Attic_NVIDIA-Camera-raytracing-embree</text><text x="508.5" y="550.6460321205868" style="cursor: default; user-select: none; -webkit-font-smoothing: antialiased; font-family: Roboto; font-size: 12px;" fill="#757575" dx="-307.640625px">HsdLogo-render_cam_1Shape-ambient_occlusion-embree</text><text x="508.5" y="582.6947501842196" style="cursor: default; user-select: none; -webkit-font-smoothing: antialiased; font-family: Roboto; font-size: 12px;" fill="#757575" dx="-290.328125px">Intel_Sponza_Knight-KnightCam001-raytracing-embree</text><text x="508.5" y="614.7434072126966" style="cursor: default; user-select: none; -webkit-font-smoothing: antialiased; font-family: Roboto; font-size: 12px;" fill="#757575" dx="-259.875px">HsdLogo-render_cam_1Shape-raytracing-embree</text><text x="508.5" y="646.7920642411732" style="cursor: default; user-select: none; -webkit-font-smoothing: antialiased; font-family: Roboto; font-size: 12px;" fill="#757575" dx="-305.328125px">EmperorCrown-CameraShape-ambient_occlusion-embree</text><text x="508.5" y="678.8407823048065" style="cursor: default; user-select: none; -webkit-font-smoothing: antialiased; font-family: Roboto; font-size: 12px;" fill="#757575" dx="-257.5625px">EmperorCrown-CameraShape-raytracing-embree</text><text x="508.5" y="710.8894393332832" style="cursor: default; user-select: none; -webkit-font-smoothing: antialiased; font-family: Roboto; font-size: 12px;" fill="#757575" dx="-343.546875px">DailyDweeb-VariantCamera-ambient_occlusion-embree-thin_lens</text><text x="508.5" y="742.9381573969163" style="cursor: default; user-select: none; -webkit-font-smoothing: antialiased; font-family: Roboto; font-size: 12px;" fill="#757575" dx="-282.3125px">Blenderman-Camera_001-ambient_occlusion-embree</text><text x="508.5" y="774.986814425393" style="cursor: default; user-select: none; -webkit-font-smoothing: antialiased; font-family: Roboto; font-size: 12px;" fill="#757575" dx="-271.40625px">CornellBox-render_cam-ambient_occlusion-embree</text><text x="508.5" y="807.0354714538698" style="cursor: default; user-select: none; -webkit-font-smoothing: antialiased; font-family: Roboto; font-size: 12px;" fill="#757575" dx="-237.984375px">EmperorCrown-CameraShape-debug-embree</text><text x="508.5" y="839.0841895175029" style="cursor: default; user-select: none; -webkit-font-smoothing: antialiased; font-family: Roboto; font-size: 12px;" fill="#757575" dx="-360.46875px">OpenChessSet-render_cam_detailShape-ambient_occlusion-embree</text><text x="15.09375" y="447.5" style="cursor: default; user-select: none; -webkit-font-smoothing: antialiased; font-family: Roboto; font-size: 12px;" fill="#424242" dx="-16.3828125px" transform="rotate(-90 15.09375 450.5)">Scene</text></g><g></g><g></g><g></g></svg>