<svg width="2510" height="1190" xmlns="http://www.w3.org/2000/svg"><defs><clipPath id="rablfilter1"><rect x="549.5" y="55.5" width="1804" height="1082"></rect></clipPath></defs><g><rect x="0" y="0" width="2510" height="1190" fill="#ffffff" fill-opacity="1" stroke="#ffffff" stroke-opacity="0" stroke-width="0"></rect><text x="0" y="15" style="cursor: default; user-select: none; -webkit-font-smoothing: antialiased; font-family: Roboto; font-size: 16px;" fill="#757575" dx="0px">Absolute Timing</text><rect x="2409.9013671875" y="55.5" width="12" height="12" rx="2" ry="2" fill="#4285f4"></rect><text x="2429.9013671875" y="68.5" style="cursor: default; user-select: none; -webkit-font-smoothing: antialiased; font-family: Roboto;" fill="#757575" dx="0px">Baseline</text><rect x="2409.9013671875" y="88.5" width="12" height="12" rx="2" ry="2" fill="#db4437"></rect><text x="2429.9013671875" y="101.5" style="cursor: default; user-select: none; -webkit-font-smoothing: antialiased; font-family: Roboto;" fill="#757575" dx="0px">New revision</text><rect x="549.5" y="55.5" width="1804" height="1082" fill="#ffffff" fill-opacity="1" stroke="#ffffff" stroke-opacity="0" stroke-width="1"></rect></g><g><line x1="549.5" x2="549.5" y1="55.5" y2="1137.5" stroke="#9E9E9E" stroke-width="1"></line><line x1="699.8333333333333" x2="699.8333333333333" y1="55.5" y2="1137.5" stroke="#E0E0E0" stroke-width="1"></line><line x1="850.1666666666666" x2="850.1666666666666" y1="55.5" y2="1137.5" stroke="#E0E0E0" stroke-width="1"></line><line x1="1000.5" x2="1000.5" y1="55.5" y2="1137.5" stroke="#E0E0E0" stroke-width="1"></line><line x1="1150.8333333333333" x2="1150.8333333333333" y1="55.5" y2="1137.5" stroke="#E0E0E0" stroke-width="1"></line><line x1="1301.1666666666667" x2="1301.1666666666667" y1="55.5" y2="1137.5" stroke="#E0E0E0" stroke-width="1"></line><line x1="1451.5" x2="1451.5" y1="55.5" y2="1137.5" stroke="#E0E0E0" stroke-width="1"></line><line x1="1601.8333333333335" x2="1601.8333333333335" y1="55.5" y2="1137.5" stroke="#E0E0E0" stroke-width="1"></line><line x1="1752.1666666666665" x2="1752.1666666666665" y1="55.5" y2="1137.5" stroke="#E0E0E0" stroke-width="1"></line><line x1="1902.5" x2="1902.5" y1="55.5" y2="1137.5" stroke="#E0E0E0" stroke-width="1"></line><line x1="2052.8333333333335" x2="2052.8333333333335" y1="55.5" y2="1137.5" stroke="#E0E0E0" stroke-width="1"></line><line x1="2203.1666666666665" x2="2203.1666666666665" y1="55.5" y2="1137.5" stroke="#E0E0E0" stroke-width="1"></line><line x1="2353.5" x2="2353.5" y1="55.5" y2="1137.5" stroke="#E0E0E0" stroke-width="1"></line></g><g><path d="M 2256.9737460666665 56 A 2 2 0 0 1 2258.9737460666665 58 L 2258.9737460666665 63.650842266462476 A 2 2 0 0 1 2256.9737460666665 65.65084226646248 L 550 65.65084226646248 A 0 0 0 0 1 550 65.65084226646248 L 550 56 A 0 0 0 0 1 550 56 Z" fill="#4285f4" clip-path="url(#rablfilter1)"></path><path d="M 1851.51666565 66.65084226646248 A 2 2 0 0 1 1853.51666565 68.65084226646248 L 1853.51666565 74.30168453292495 A 2 2 0 0 1 1851.51666565 76.30168453292495 L 550 76.30168453292495 A 0 0 0 0 1 550 76.30168453292495 L 550 66.65084226646248 A 0 0 0 0 1 550 66.65084226646248 Z" fill="#db4437" clip-path="url(#rablfilter1)"></path><path d="M 2211.5066455966667 88.77182235834609 A 2 2 0 0 1 2213.5066455966667 90.77182235834609 L 2213.5066455966667 96.42266462480856 A 2 2 0 0 1 2211.5066455966667 98.42266462480856 L 550 98.42266462480856 A 0 0 0 0 1 550 98.42266462480856 L 550 88.77182235834609 A 0 0 0 0 1 550 88.77182235834609 Z" fill="#4285f4" clip-path="url(#rablfilter1)"></path><path d="M 1833.4493696266666 99.42266462480856 A 2 2 0 0 1 1835.4493696266666 101.42266462480856 L 1835.4493696266666 107.07350689127105 A 2 2 0 0 1 1833.4493696266666 109.07350689127105 L 550 109.07350689127105 A 0 0 0 0 1 550 109.07350689127105 L 550 99.42266462480856 A 0 0 0 0 1 550 99.42266462480856 Z" fill="#db4437" clip-path="url(#rablfilter1)"></path><path d="M 1370.0426076766666 121.54364471669217 A 2 2 0 0 1 1372.0426076766666 123.54364471669217 L 1372.0426076766666 129.19448698315466 A 2 2 0 0 1 1370.0426076766666 131.19448698315466 L 550 131.19448698315466 A 0 0 0 0 1 550 131.19448698315466 L 550 121.54364471669217 A 0 0 0 0 1 550 121.54364471669217 Z" fill="#4285f4" clip-path="url(#rablfilter1)"></path><path d="M 999.50275455 132.19448698315466 A 2 2 0 0 1 1001.50275455 134.19448698315466 L 1001.50275455 139.84532924961715 A 2 2 0 0 1 999.50275455 141.84532924961715 L 550 141.84532924961715 A 0 0 0 0 1 550 141.84532924961715 L 550 132.19448698315466 A 0 0 0 0 1 550 132.19448698315466 Z" fill="#db4437" clip-path="url(#rablfilter1)"></path><path d="M 1979.0219214033334 154.31546707503827 A 2 2 0 0 1 1981.0219214033334 156.31546707503827 L 1981.0219214033334 161.96630934150073 A 2 2 0 0 1 1979.0219214033334 163.96630934150073 L 550 163.96630934150073 A 0 0 0 0 1 550 163.96630934150073 L 550 154.31546707503827 A 0 0 0 0 1 550 154.31546707503827 Z" fill="#4285f4" clip-path="url(#rablfilter1)"></path><path d="M 1625.2173327933333 164.96630934150073 A 2 2 0 0 1 1627.2173327933333 166.96630934150073 L 1627.2173327933333 172.61715160796325 A 2 2 0 0 1 1625.2173327933333 174.61715160796325 L 550 174.61715160796325 A 0 0 0 0 1 550 174.61715160796325 L 550 164.96630934150073 A 0 0 0 0 1 550 164.96630934150073 Z" fill="#db4437" clip-path="url(#rablfilter1)"></path><path d="M 1922.2647800833333 187.08728943338434 A 2 2 0 0 1 1924.2647800833333 189.08728943338434 L 1924.2647800833333 194.73813169984686 A 2 2 0 0 1 1922.2647800833333 196.73813169984686 L 550 196.73813169984686 A 0 0 0 0 1 550 196.73813169984686 L 550 187.08728943338434 A 0 0 0 0 1 550 187.08728943338434 Z" fill="#4285f4" clip-path="url(#rablfilter1)"></path><path d="M 1580.4791400266668 197.73813169984686 A 2 2 0 0 1 1582.4791400266668 199.73813169984686 L 1582.4791400266668 205.38897396630932 A 2 2 0 0 1 1580.4791400266668 207.38897396630932 L 550 207.38897396630932 A 0 0 0 0 1 550 207.38897396630932 L 550 197.73813169984686 A 0 0 0 0 1 550 197.73813169984686 Z" fill="#db4437" clip-path="url(#rablfilter1)"></path><path d="M 1941.7851484966668 219.85911179173044 A 2 2 0 0 1 1943.7851484966668 221.85911179173044 L 1943.7851484966668 227.50995405819293 A 2 2 0 0 1 1941.7851484966668 229.50995405819293 L 550 229.50995405819293 A 0 0 0 0 1 550 229.50995405819293 L 550 219.85911179173044 A 0 0 0 0 1 550 219.85911179173044 Z" fill="#4285f4" clip-path="url(#rablfilter1)"></path><path d="M 1618.4344792066668 230.50995405819293 A 2 2 0 0 1 1620.4344792066668 232.50995405819293 L 1620.4344792066668 238.16079632465542 A 2 2 0 0 1 1618.4344792066668 240.16079632465542 L 550 240.16079632465542 A 0 0 0 0 1 550 240.16079632465542 L 550 230.50995405819293 A 0 0 0 0 1 550 230.50995405819293 Z" fill="#db4437" clip-path="url(#rablfilter1)"></path><path d="M 1987.17959888 252.63093415007654 A 2 2 0 0 1 1989.17959888 254.63093415007654 L 1989.17959888 260.281776416539 A 2 2 0 0 1 1987.17959888 262.281776416539 L 550 262.281776416539 A 0 0 0 0 1 550 262.281776416539 L 550 252.63093415007654 A 0 0 0 0 1 550 252.63093415007654 Z" fill="#4285f4" clip-path="url(#rablfilter1)"></path><path d="M 1664.22677473 263.281776416539 A 2 2 0 0 1 1666.22677473 265.281776416539 L 1666.22677473 270.93261868300146 A 2 2 0 0 1 1664.22677473 272.93261868300146 L 550 272.93261868300146 A 0 0 0 0 1 550 272.93261868300146 L 550 263.281776416539 A 0 0 0 0 1 550 263.281776416539 Z" fill="#db4437" clip-path="url(#rablfilter1)"></path><path d="M 1858.3238085933333 285.4027565084226 A 2 2 0 0 1 1860.3238085933333 287.4027565084226 L 1860.3238085933333 293.05359877488513 A 2 2 0 0 1 1858.3238085933333 295.05359877488513 L 550 295.05359877488513 A 0 0 0 0 1 550 295.05359877488513 L 550 285.4027565084226 A 0 0 0 0 1 550 285.4027565084226 Z" fill="#4285f4" clip-path="url(#rablfilter1)"></path><path d="M 1557.6943659633334 296.05359877488513 A 2 2 0 0 1 1559.6943659633334 298.05359877488513 L 1559.6943659633334 303.7044410413476 A 2 2 0 0 1 1557.6943659633334 305.7044410413476 L 550 305.7044410413476 A 0 0 0 0 1 550 305.7044410413476 L 550 296.05359877488513 A 0 0 0 0 1 550 296.05359877488513 Z" fill="#db4437" clip-path="url(#rablfilter1)"></path><path d="M 1255.06963469 318.1745788667687 A 2 2 0 0 1 1257.06963469 320.1745788667687 L 1257.06963469 325.8254211332312 A 2 2 0 0 1 1255.06963469 327.8254211332312 L 550 327.8254211332312 A 0 0 0 0 1 550 327.8254211332312 L 550 318.1745788667687 A 0 0 0 0 1 550 318.1745788667687 Z" fill="#4285f4" clip-path="url(#rablfilter1)"></path><path d="M 982.6887634733333 328.8254211332312 A 2 2 0 0 1 984.6887634733333 330.8254211332312 L 984.6887634733333 336.47626339969366 A 2 2 0 0 1 982.6887634733333 338.47626339969366 L 550 338.47626339969366 A 0 0 0 0 1 550 338.47626339969366 L 550 328.8254211332312 A 0 0 0 0 1 550 328.8254211332312 Z" fill="#db4437" clip-path="url(#rablfilter1)"></path><path d="M 1506.1358415100003 350.9464012251148 A 2 2 0 0 1 1508.1358415100003 352.9464012251148 L 1508.1358415100003 358.5972434915773 A 2 2 0 0 1 1506.1358415100003 360.5972434915773 L 550 360.5972434915773 A 0 0 0 0 1 550 360.5972434915773 L 550 350.9464012251148 A 0 0 0 0 1 550 350.9464012251148 Z" fill="#4285f4" clip-path="url(#rablfilter1)"></path><path d="M 1299.20880174 361.5972434915773 A 2 2 0 0 1 1301.20880174 363.5972434915773 L 1301.20880174 369.24808575803974 A 2 2 0 0 1 1299.20880174 371.24808575803974 L 550 371.24808575803974 A 0 0 0 0 1 550 371.24808575803974 L 550 361.5972434915773 A 0 0 0 0 1 550 361.5972434915773 Z" fill="#db4437" clip-path="url(#rablfilter1)"></path><path d="M 1591.57096337 383.7182235834609 A 2 2 0 0 1 1593.57096337 385.7182235834609 L 1593.57096337 391.36906584992335 A 2 2 0 0 1 1591.57096337 393.36906584992335 L 550 393.36906584992335 A 0 0 0 0 1 550 393.36906584992335 L 550 383.7182235834609 A 0 0 0 0 1 550 383.7182235834609 Z" fill="#4285f4" clip-path="url(#rablfilter1)"></path><path d="M 1390.93249171 394.36906584992335 A 2 2 0 0 1 1392.93249171 396.36906584992335 L 1392.93249171 402.0199081163858 A 2 2 0 0 1 1390.93249171 404.0199081163858 L 550 404.0199081163858 A 0 0 0 0 1 550 404.0199081163858 L 550 394.36906584992335 A 0 0 0 0 1 550 394.36906584992335 Z" fill="#db4437" clip-path="url(#rablfilter1)"></path><path d="M 1523.2631016966666 416.490045941807 A 2 2 0 0 1 1525.2631016966666 418.490045941807 L 1525.2631016966666 424.1408882082694 A 2 2 0 0 1 1523.2631016966666 426.1408882082694 L 550 426.1408882082694 A 0 0 0 0 1 550 426.1408882082694 L 550 416.490045941807 A 0 0 0 0 1 550 416.490045941807 Z" fill="#4285f4" clip-path="url(#rablfilter1)"></path><path d="M 1333.73376727 427.1408882082694 A 2 2 0 0 1 1335.73376727 429.1408882082694 L 1335.73376727 434.7917304747319 A 2 2 0 0 1 1333.73376727 436.7917304747319 L 550 436.7917304747319 A 0 0 0 0 1 550 436.7917304747319 L 550 427.1408882082694 A 0 0 0 0 1 550 427.1408882082694 Z" fill="#db4437" clip-path="url(#rablfilter1)"></path><path d="M 1560.2598539066666 449.2618683001531 A 2 2 0 0 1 1562.2598539066666 451.2618683001531 L 1562.2598539066666 456.9127105666155 A 2 2 0 0 1 1560.2598539066666 458.9127105666155 L 550 458.9127105666155 A 0 0 0 0 1 550 458.9127105666155 L 550 449.2618683001531 A 0 0 0 0 1 550 449.2618683001531 Z" fill="#4285f4" clip-path="url(#rablfilter1)"></path><path d="M 1376.1437462000001 459.9127105666155 A 2 2 0 0 1 1378.1437462000001 461.9127105666155 L 1378.1437462000001 467.56355283307795 A 2 2 0 0 1 1376.1437462000001 469.56355283307795 L 550 469.56355283307795 A 0 0 0 0 1 550 469.56355283307795 L 550 459.9127105666155 A 0 0 0 0 1 550 459.9127105666155 Z" fill="#db4437" clip-path="url(#rablfilter1)"></path><path d="M 950.0244300133334 482.03369065849915 A 2 2 0 0 1 952.0244300133334 484.03369065849915 L 952.0244300133334 489.6845329249616 A 2 2 0 0 1 950.0244300133334 491.6845329249616 L 550 491.6845329249616 A 0 0 0 0 1 550 491.6845329249616 L 550 482.03369065849915 A 0 0 0 0 1 550 482.03369065849915 Z" fill="#4285f4" clip-path="url(#rablfilter1)"></path><path d="M 841.2310800733333 492.6845329249616 A 2 2 0 0 1 843.2310800733333 494.6845329249616 L 843.2310800733333 500.3353751914241 A 2 2 0 0 1 841.2310800733333 502.3353751914241 L 550 502.3353751914241 A 0 0 0 0 1 550 502.3353751914241 L 550 492.6845329249616 A 0 0 0 0 1 550 492.6845329249616 Z" fill="#db4437" clip-path="url(#rablfilter1)"></path><path d="M 787.56604286 514.8055130168452 A 2 2 0 0 1 789.56604286 516.8055130168452 L 789.56604286 522.4563552833077 A 2 2 0 0 1 787.56604286 524.4563552833077 L 550 524.4563552833077 A 0 0 0 0 1 550 524.4563552833077 L 550 514.8055130168452 A 0 0 0 0 1 550 514.8055130168452 Z" fill="#4285f4" clip-path="url(#rablfilter1)"></path><path d="M 692.85119461 525.4563552833077 A 2 2 0 0 1 694.85119461 527.4563552833077 L 694.85119461 533.1071975497701 A 2 2 0 0 1 692.85119461 535.1071975497701 L 550 535.1071975497701 A 0 0 0 0 1 550 535.1071975497701 L 550 525.4563552833077 A 0 0 0 0 1 550 525.4563552833077 Z" fill="#db4437" clip-path="url(#rablfilter1)"></path><path d="M 720.0706110833333 547.5773353751913 A 2 2 0 0 1 722.0706110833333 549.5773353751913 L 722.0706110833333 555.2281776416538 A 2 2 0 0 1 720.0706110833333 557.2281776416538 L 550 557.2281776416538 A 0 0 0 0 1 550 557.2281776416538 L 550 547.5773353751913 A 0 0 0 0 1 550 547.5773353751913 Z" fill="#4285f4" clip-path="url(#rablfilter1)"></path><path d="M 638.7263914600001 558.2281776416538 A 2 2 0 0 1 640.7263914600001 560.2281776416538 L 640.7263914600001 565.8790199081162 A 2 2 0 0 1 638.7263914600001 567.8790199081162 L 550 567.8790199081162 A 0 0 0 0 1 550 567.8790199081162 L 550 558.2281776416538 A 0 0 0 0 1 550 558.2281776416538 Z" fill="#db4437" clip-path="url(#rablfilter1)"></path><path d="M 1021.0632124433334 580.3491577335374 A 2 2 0 0 1 1023.0632124433334 582.3491577335374 L 1023.0632124433334 587.9999999999999 A 2 2 0 0 1 1021.0632124433334 589.9999999999999 L 550 589.9999999999999 A 0 0 0 0 1 550 589.9999999999999 L 550 580.3491577335374 A 0 0 0 0 1 550 580.3491577335374 Z" fill="#4285f4" clip-path="url(#rablfilter1)"></path><path d="M 946.6696529833333 590.9999999999999 A 2 2 0 0 1 948.6696529833333 592.9999999999999 L 948.6696529833333 598.6508422664624 A 2 2 0 0 1 946.6696529833333 600.6508422664624 L 550 600.6508422664624 A 0 0 0 0 1 550 600.6508422664624 L 550 590.9999999999999 A 0 0 0 0 1 550 590.9999999999999 Z" fill="#db4437" clip-path="url(#rablfilter1)"></path><path d="M 727.2711252466667 613.1209800918836 A 2 2 0 0 1 729.2711252466667 615.1209800918836 L 729.2711252466667 620.7718223583461 A 2 2 0 0 1 727.2711252466667 622.7718223583461 L 550 622.7718223583461 A 0 0 0 0 1 550 622.7718223583461 L 550 613.1209800918836 A 0 0 0 0 1 550 613.1209800918836 Z" fill="#4285f4" clip-path="url(#rablfilter1)"></path><path d="M 666.4787771833334 623.7718223583461 A 2 2 0 0 1 668.4787771833334 625.7718223583461 L 668.4787771833334 631.4226646248084 A 2 2 0 0 1 666.4787771833334 633.4226646248084 L 550 633.4226646248084 A 0 0 0 0 1 550 633.4226646248084 L 550 623.7718223583461 A 0 0 0 0 1 550 623.7718223583461 Z" fill="#db4437" clip-path="url(#rablfilter1)"></path><path d="M 788.4435971566667 645.8928024502296 A 2 2 0 0 1 790.4435971566667 647.8928024502296 L 790.4435971566667 653.543644716692 A 2 2 0 0 1 788.4435971566667 655.543644716692 L 550 655.543644716692 A 0 0 0 0 1 550 655.543644716692 L 550 645.8928024502296 A 0 0 0 0 1 550 645.8928024502296 Z" fill="#4285f4" clip-path="url(#rablfilter1)"></path><path d="M 762.3026479633334 656.543644716692 A 2 2 0 0 1 764.3026479633334 658.543644716692 L 764.3026479633334 664.1944869831545 A 2 2 0 0 1 762.3026479633334 666.1944869831545 L 550 666.1944869831545 A 0 0 0 0 1 550 666.1944869831545 L 550 656.543644716692 A 0 0 0 0 1 550 656.543644716692 Z" fill="#db4437" clip-path="url(#rablfilter1)"></path><path d="M 632.2172182033333 678.6646248085757 A 2 2 0 0 1 634.2172182033333 680.6646248085757 L 634.2172182033333 686.3154670750382 A 2 2 0 0 1 632.2172182033333 688.3154670750382 L 550 688.3154670750382 A 0 0 0 0 1 550 688.3154670750382 L 550 678.6646248085757 A 0 0 0 0 1 550 678.6646248085757 Z" fill="#4285f4" clip-path="url(#rablfilter1)"></path><path d="M 620.17957119 689.3154670750382 A 2 2 0 0 1 622.17957119 691.3154670750382 L 622.17957119 696.9663093415006 A 2 2 0 0 1 620.17957119 698.9663093415006 L 550 698.9663093415006 A 0 0 0 0 1 550 698.9663093415006 L 550 689.3154670750382 A 0 0 0 0 1 550 689.3154670750382 Z" fill="#db4437" clip-path="url(#rablfilter1)"></path><path d="M 735.6782057233333 711.4364471669218 A 2 2 0 0 1 737.6782057233333 713.4364471669218 L 737.6782057233333 719.0872894333842 A 2 2 0 0 1 735.6782057233333 721.0872894333842 L 550 721.0872894333842 A 0 0 0 0 1 550 721.0872894333842 L 550 711.4364471669218 A 0 0 0 0 1 550 711.4364471669218 Z" fill="#4285f4" clip-path="url(#rablfilter1)"></path><path d="M 724.41900726 722.0872894333842 A 2 2 0 0 1 726.41900726 724.0872894333842 L 726.41900726 729.7381316998467 A 2 2 0 0 1 724.41900726 731.7381316998467 L 550 731.7381316998467 A 0 0 0 0 1 550 731.7381316998467 L 550 722.0872894333842 A 0 0 0 0 1 550 722.0872894333842 Z" fill="#db4437" clip-path="url(#rablfilter1)"></path><path d="M 692.94648189 744.2082695252678 A 2 2 0 0 1 694.94648189 746.2082695252678 L 694.94648189 751.8591117917304 A 2 2 0 0 1 692.94648189 753.8591117917304 L 550 753.8591117917304 A 0 0 0 0 1 550 753.8591117917304 L 550 744.2082695252678 A 0 0 0 0 1 550 744.2082695252678 Z" fill="#4285f4" clip-path="url(#rablfilter1)"></path><path d="M 682.8816065933333 754.8591117917304 A 2 2 0 0 1 684.8816065933333 756.8591117917304 L 684.8816065933333 762.5099540581928 A 2 2 0 0 1 682.8816065933333 764.5099540581928 L 550 764.5099540581928 A 0 0 0 0 1 550 764.5099540581928 L 550 754.8591117917304 A 0 0 0 0 1 550 754.8591117917304 Z" fill="#db4437" clip-path="url(#rablfilter1)"></path><path d="M 727.84245806 776.980091883614 A 2 2 0 0 1 729.84245806 778.980091883614 L 729.84245806 784.6309341500763 A 2 2 0 0 1 727.84245806 786.6309341500763 L 550 786.6309341500763 A 0 0 0 0 1 550 786.6309341500763 L 550 776.980091883614 A 0 0 0 0 1 550 776.980091883614 Z" fill="#4285f4" clip-path="url(#rablfilter1)"></path><path d="M 718.28468115 787.6309341500763 A 2 2 0 0 1 720.28468115 789.6309341500763 L 720.28468115 795.2817764165388 A 2 2 0 0 1 718.28468115 797.2817764165388 L 550 797.2817764165388 A 0 0 0 0 1 550 797.2817764165388 L 550 787.6309341500763 A 0 0 0 0 1 550 787.6309341500763 Z" fill="#db4437" clip-path="url(#rablfilter1)"></path><path d="M 587.6657920533333 809.75191424196 A 2 2 0 0 1 589.6657920533333 811.75191424196 L 589.6657920533333 817.4027565084225 A 2 2 0 0 1 587.6657920533333 819.4027565084225 L 550 819.4027565084225 A 0 0 0 0 1 550 819.4027565084225 L 550 809.75191424196 A 0 0 0 0 1 550 809.75191424196 Z" fill="#4285f4" clip-path="url(#rablfilter1)"></path><path d="M 578.2952207333333 820.4027565084225 A 2 2 0 0 1 580.2952207333333 822.4027565084225 L 580.2952207333333 828.053598774885 A 2 2 0 0 1 578.2952207333333 830.053598774885 L 550 830.053598774885 A 0 0 0 0 1 550 830.053598774885 L 550 820.4027565084225 A 0 0 0 0 1 550 820.4027565084225 Z" fill="#db4437" clip-path="url(#rablfilter1)"></path><path d="M 839.4870149666667 842.5237366003062 A 2 2 0 0 1 841.4870149666667 844.5237366003062 L 841.4870149666667 850.1745788667687 A 2 2 0 0 1 839.4870149666667 852.1745788667687 L 550 852.1745788667687 A 0 0 0 0 1 550 852.1745788667687 L 550 842.5237366003062 A 0 0 0 0 1 550 842.5237366003062 Z" fill="#4285f4" clip-path="url(#rablfilter1)"></path><path d="M 830.6100000066666 853.1745788667687 A 2 2 0 0 1 832.6100000066666 855.1745788667687 L 832.6100000066666 860.825421133231 A 2 2 0 0 1 830.6100000066666 862.825421133231 L 550 862.825421133231 A 0 0 0 0 1 550 862.825421133231 L 550 853.1745788667687 A 0 0 0 0 1 550 853.1745788667687 Z" fill="#db4437" clip-path="url(#rablfilter1)"></path><path d="M 620.3714762 875.2955589586522 A 2 2 0 0 1 622.3714762 877.2955589586522 L 622.3714762 882.9464012251146 A 2 2 0 0 1 620.3714762 884.9464012251146 L 550 884.9464012251146 A 0 0 0 0 1 550 884.9464012251146 L 550 875.2955589586522 A 0 0 0 0 1 550 875.2955589586522 Z" fill="#4285f4" clip-path="url(#rablfilter1)"></path><path d="M 614.4356923166666 885.9464012251146 A 2 2 0 0 1 616.4356923166666 887.9464012251146 L 616.4356923166666 893.5972434915772 A 2 2 0 0 1 614.4356923166666 895.5972434915772 L 550 895.5972434915772 A 0 0 0 0 1 550 895.5972434915772 L 550 885.9464012251146 A 0 0 0 0 1 550 885.9464012251146 Z" fill="#db4437" clip-path="url(#rablfilter1)"></path><path d="M 678.1787229133333 908.0673813169983 A 2 2 0 0 1 680.1787229133333 910.0673813169983 L 680.1787229133333 915.7182235834608 A 2 2 0 0 1 678.1787229133333 917.7182235834608 L 550 917.7182235834608 A 0 0 0 0 1 550 917.7182235834608 L 550 908.0673813169983 A 0 0 0 0 1 550 908.0673813169983 Z" fill="#4285f4" clip-path="url(#rablfilter1)"></path><path d="M 672.3766409866666 918.7182235834608 A 2 2 0 0 1 674.3766409866666 920.7182235834608 L 674.3766409866666 926.3690658499232 A 2 2 0 0 1 672.3766409866666 928.3690658499232 L 550 928.3690658499232 A 0 0 0 0 1 550 928.3690658499232 L 550 918.7182235834608 A 0 0 0 0 1 550 918.7182235834608 Z" fill="#db4437" clip-path="url(#rablfilter1)"></path><path d="M 619.54627248 940.8392036753444 A 2 2 0 0 1 621.54627248 942.8392036753444 L 621.54627248 948.4900459418068 A 2 2 0 0 1 619.54627248 950.4900459418068 L 550 950.4900459418068 A 0 0 0 0 1 550 950.4900459418068 L 550 940.8392036753444 A 0 0 0 0 1 550 940.8392036753444 Z" fill="#4285f4" clip-path="url(#rablfilter1)"></path><path d="M 614.4703561766667 951.4900459418068 A 2 2 0 0 1 616.4703561766667 953.4900459418068 L 616.4703561766667 959.1408882082693 A 2 2 0 0 1 614.4703561766667 961.1408882082693 L 550 961.1408882082693 A 0 0 0 0 1 550 961.1408882082693 L 550 951.4900459418068 A 0 0 0 0 1 550 951.4900459418068 Z" fill="#db4437" clip-path="url(#rablfilter1)"></path><path d="M 564.4239640666667 973.6110260336905 A 2 2 0 0 1 566.4239640666667 975.6110260336905 L 566.4239640666667 981.261868300153 A 2 2 0 0 1 564.4239640666667 983.261868300153 L 550 983.261868300153 A 0 0 0 0 1 550 983.261868300153 L 550 973.6110260336905 A 0 0 0 0 1 550 973.6110260336905 Z" fill="#4285f4" clip-path="url(#rablfilter1)"></path><path d="M 559.7155857033333 984.261868300153 A 2 2 0 0 1 561.7155857033333 986.261868300153 L 561.7155857033333 991.9127105666155 A 2 2 0 0 1 559.7155857033333 993.9127105666155 L 550 993.9127105666155 A 0 0 0 0 1 550 993.9127105666155 L 550 984.261868300153 A 0 0 0 0 1 550 984.261868300153 Z" fill="#db4437" clip-path="url(#rablfilter1)"></path><path d="M 557.7043737533334 1006.3828483920366 A 2 2 0 0 1 559.7043737533334 1008.3828483920366 L 559.7043737533334 1014.033690658499 A 2 2 0 0 1 557.7043737533334 1016.033690658499 L 550 1016.033690658499 A 0 0 0 0 1 550 1016.033690658499 L 550 1006.3828483920366 A 0 0 0 0 1 550 1006.3828483920366 Z" fill="#4285f4" clip-path="url(#rablfilter1)"></path><path d="M 555.4526991266666 1017.033690658499 A 2 2 0 0 1 557.4526991266666 1019.033690658499 L 557.4526991266666 1024.6845329249613 A 2 2 0 0 1 555.4526991266666 1026.6845329249613 L 550 1026.6845329249613 A 0 0 0 0 1 550 1026.6845329249613 L 550 1017.033690658499 A 0 0 0 0 1 550 1017.033690658499 Z" fill="#db4437" clip-path="url(#rablfilter1)"></path><path d="M 572.05572443 1039.1546707503826 A 2 2 0 0 1 574.05572443 1041.1546707503826 L 574.05572443 1046.805513016845 A 2 2 0 0 1 572.05572443 1048.805513016845 L 550 1048.805513016845 A 0 0 0 0 1 550 1048.805513016845 L 550 1039.1546707503826 A 0 0 0 0 1 550 1039.1546707503826 Z" fill="#4285f4" clip-path="url(#rablfilter1)"></path><path d="M 571.9788680166666 1049.805513016845 A 2 2 0 0 1 573.9788680166666 1051.805513016845 L 573.9788680166666 1057.4563552833076 A 2 2 0 0 1 571.9788680166666 1059.4563552833076 L 550 1059.4563552833076 A 0 0 0 0 1 550 1059.4563552833076 L 550 1049.805513016845 A 0 0 0 0 1 550 1049.805513016845 Z" fill="#db4437" clip-path="url(#rablfilter1)"></path><path d="M 606.9383615233334 1071.9264931087287 A 2 2 0 0 1 608.9383615233334 1073.9264931087287 L 608.9383615233334 1079.5773353751913 A 2 2 0 0 1 606.9383615233334 1081.5773353751913 L 550 1081.5773353751913 A 0 0 0 0 1 550 1081.5773353751913 L 550 1071.9264931087287 A 0 0 0 0 1 550 1071.9264931087287 Z" fill="#4285f4" clip-path="url(#rablfilter1)"></path><path d="M 612.3194499833334 1082.5773353751913 A 2 2 0 0 1 614.3194499833334 1084.5773353751913 L 614.3194499833334 1090.2281776416537 A 2 2 0 0 1 612.3194499833334 1092.2281776416537 L 550 1092.2281776416537 A 0 0 0 0 1 550 1092.2281776416537 L 550 1082.5773353751913 A 0 0 0 0 1 550 1082.5773353751913 Z" fill="#db4437" clip-path="url(#rablfilter1)"></path><path d="M 582.86565323 1104.6983154670747 A 2 2 0 0 1 584.86565323 1106.6983154670747 L 584.86565323 1112.3491577335374 A 2 2 0 0 1 582.86565323 1114.3491577335374 L 550 1114.3491577335374 A 0 0 0 0 1 550 1114.3491577335374 L 550 1104.6983154670747 A 0 0 0 0 1 550 1104.6983154670747 Z" fill="#4285f4" clip-path="url(#rablfilter1)"></path><path d="M 593.09065758 1115.3491577335374 A 2 2 0 0 1 595.09065758 1117.3491577335374 L 595.09065758 1123 A 2 2 0 0 1 593.09065758 1125 L 550 1125 A 0 0 0 0 1 550 1125 L 550 1115.3491577335374 A 0 0 0 0 1 550 1115.3491577335374 Z" fill="#db4437" clip-path="url(#rablfilter1)"></path></g><g></g><g><text x="549.5" y="1154.5" style="cursor: default; user-select: none; -webkit-font-smoothing: antialiased; font-family: Roboto; font-size: 12px;" fill="#757575" dx="-3.375px">0</text><text x="699.8333333333333" y="1154.5" style="cursor: default; user-select: none; -webkit-font-smoothing: antialiased; font-family: Roboto; font-size: 12px;" fill="#757575" dx="-10.109375px">100</text><text x="850.1666666666666" y="1154.5" style="cursor: default; user-select: none; -webkit-font-smoothing: antialiased; font-family: Roboto; font-size: 12px;" fill="#757575" dx="-10.109375px">200</text><text x="1000.5" y="1154.5" style="cursor: default; user-select: none; -webkit-font-smoothing: antialiased; font-family: Roboto; font-size: 12px;" fill="#757575" dx="-10.109375px">300</text><text x="1150.8333333333333" y="1154.5" style="cursor: default; user-select: none; -webkit-font-smoothing: antialiased; font-family: Roboto; font-size: 12px;" fill="#757575" dx="-10.109375px">400</text><text x="1301.1666666666667" y="1154.5" style="cursor: default; user-select: none; -webkit-font-smoothing: antialiased; font-family: Roboto; font-size: 12px;" fill="#757575" dx="-10.109375px">500</text><text x="1451.5" y="1154.5" style="cursor: default; user-select: none; -webkit-font-smoothing: antialiased; font-family: Roboto; font-size: 12px;" fill="#757575" dx="-10.109375px">600</text><text x="1601.8333333333335" y="1154.5" style="cursor: default; user-select: none; -webkit-font-smoothing: antialiased; font-family: Roboto; font-size: 12px;" fill="#757575" dx="-10.109375px">700</text><text x="1752.1666666666665" y="1154.5" style="cursor: default; user-select: none; -webkit-font-smoothing: antialiased; font-family: Roboto; font-size: 12px;" fill="#757575" dx="-10.109375px">800</text><text x="1902.5" y="1154.5" style="cursor: default; user-select: none; -webkit-font-smoothing: antialiased; font-family: Roboto; font-size: 12px;" fill="#757575" dx="-10.109375px">900</text><text x="2052.8333333333335" y="1154.5" style="cursor: default; user-select: none; -webkit-font-smoothing: antialiased; font-family: Roboto; font-size: 12px;" fill="#757575" dx="-7.1328125px">1K</text><text x="2203.1666666666665" y="1154.5" style="cursor: default; user-select: none; -webkit-font-smoothing: antialiased; font-family: Roboto; font-size: 12px;" fill="#757575" dx="-12.0859375px">1.1K</text><text x="2353.5" y="1154.5" style="cursor: default; user-select: none; -webkit-font-smoothing: antialiased; font-family: Roboto; font-size: 12px;" fill="#757575" dx="-12.0859375px">1.2K</text><text x="1455.90869140625" y="1186.5" style="cursor: default; user-select: none; -webkit-font-smoothing: antialiased; font-family: Roboto; font-size: 12px;" fill="#424242" dx="-33.625px">Render Time</text><text x="543.5" y="70.15084377364761" style="cursor: default; user-select: none; -webkit-font-smoothing: antialiased; font-family: Roboto; font-size: 12px;" fill="#757575" dx="-438.671875px">CameraTestGround-VariantCamera-raytracing-embree-realistic_canon_anamorphic</text><text x="543.5" y="102.9226684219804" style="cursor: default; user-select: none; -webkit-font-smoothing: antialiased; font-family: Roboto; font-size: 12px;" fill="#757575" dx="-445.9375px">CameraTestGround-VariantCamera-raytracing-embree-realistic_navarro_anamorphic</text><text x="543.5" y="135.6944854409187" style="cursor: default; user-select: none; -webkit-font-smoothing: antialiased; font-family: Roboto; font-size: 12px;" fill="#757575" dx="-259.078125px">Intel_Sponza-PhysCamera001-raytracing-embree</text><text x="543.5" y="168.46631008925146" style="cursor: default; user-select: none; -webkit-font-smoothing: antialiased; font-family: Roboto; font-size: 12px;" fill="#757575" dx="-336.921875px">CameraTestGround-VariantCamera-raytracing-embree-thin_lens</text><text x="543.5" y="201.23813473758435" style="cursor: default; user-select: none; -webkit-font-smoothing: antialiased; font-family: Roboto; font-size: 12px;" fill="#757575" dx="-240.125px">DailyDweeb-CameraShape-raytracing-embree</text><text x="543.5" y="234.0099593859171" style="cursor: default; user-select: none; -webkit-font-smoothing: antialiased; font-family: Roboto; font-size: 12px;" fill="#757575" dx="-461.75px">CameraTestGround-VariantCamera-raytracing-embree-realistic_brendel_tessar_100mm</text><text x="543.5" y="266.7817840342499" style="cursor: default; user-select: none; -webkit-font-smoothing: antialiased; font-family: Roboto; font-size: 12px;" fill="#757575" dx="-475.109375px">CameraTestGround-VariantCamera-raytracing-embree-realistic_canon_70_200mm_70mm</text><text x="543.5" y="299.55360868258276" style="cursor: default; user-select: none; -webkit-font-smoothing: antialiased; font-family: Roboto; font-size: 12px;" fill="#757575" dx="-457.9375px">CameraTestGround-VariantCamera-raytracing-embree-realistic_schneider_anamorphic</text><text x="543.5" y="332.32543333091553" style="cursor: default; user-select: none; -webkit-font-smoothing: antialiased; font-family: Roboto; font-size: 12px;" fill="#757575" dx="-367.4375px">Intel_Sponza_Candles_Thin_Lens-PhysCamera002-raytracing-embree</text><text x="543.5" y="365.0972579792483" style="cursor: default; user-select: none; -webkit-font-smoothing: antialiased; font-family: Roboto; font-size: 12px;" fill="#757575" dx="-456.921875px">CameraTestGround-VariantCamera-raytracing-embree-realistic_realistic_canon_50mm</text><text x="543.5" y="397.86905211000294" style="cursor: default; user-select: none; -webkit-font-smoothing: antialiased; font-family: Roboto; font-size: 12px;" fill="#757575" dx="-510.65625px">CameraTestGround-VariantCamera-raytracing-embree-realistic_double_gauss_angenieux_50mm</text><text x="543.5" y="430.6408767583357" style="cursor: default; user-select: none; -webkit-font-smoothing: antialiased; font-family: Roboto; font-size: 12px;" fill="#757575" dx="-456.921875px">CameraTestGround-VariantCamera-raytracing-embree-realistic_realistic_canon_60mm</text><text x="543.5" y="463.4127014066685" style="cursor: default; user-select: none; -webkit-font-smoothing: antialiased; font-family: Roboto; font-size: 12px;" fill="#757575" dx="-452.5px">CameraTestGround-VariantCamera-raytracing-embree-realistic_petzval_kodak_50mm</text><text x="543.5" y="496.18452605500136" style="cursor: default; user-select: none; -webkit-font-smoothing: antialiased; font-family: Roboto; font-size: 12px;" fill="#757575" dx="-257.390625px">EmperorCrown-CameraShape-raytracing-embree</text><text x="543.5" y="528.9563507033342" style="cursor: default; user-select: none; -webkit-font-smoothing: antialiased; font-family: Roboto; font-size: 12px;" fill="#757575" dx="-223.484375px">CornellBox-render_cam-raytracing-embree</text><text x="543.5" y="561.7282058692451" style="cursor: default; user-select: none; -webkit-font-smoothing: antialiased; font-family: Roboto; font-size: 12px;" fill="#757575" dx="-259.71875px">HsdLogo-render_cam_1Shape-raytracing-embree</text><text x="543.5" y="594.4999999999998" style="cursor: default; user-select: none; -webkit-font-smoothing: antialiased; font-family: Roboto; font-size: 12px;" fill="#757575" dx="-463.390625px">CameraTestGround-VariantCamera-raytracing-embree-realistic_panavision_anamorphic</text><text x="543.5" y="627.2717941307546" style="cursor: default; user-select: none; -webkit-font-smoothing: antialiased; font-family: Roboto; font-size: 12px;" fill="#757575" dx="-289.828125px">OpenChessSet-render_cam_7Shape-raytracing-embree</text><text x="543.5" y="660.0436492966653" style="cursor: default; user-select: none; -webkit-font-smoothing: antialiased; font-family: Roboto; font-size: 12px;" fill="#757575" dx="-239.671875px">StormTrooper-render_cam-raytracing-embree</text><text x="543.5" y="692.8154434274202" style="cursor: default; user-select: none; -webkit-font-smoothing: antialiased; font-family: Roboto; font-size: 12px;" fill="#757575" dx="-307.453125px">HsdLogo-render_cam_1Shape-ambient_occlusion-embree</text><text x="543.5" y="725.5872985933308" style="cursor: default; user-select: none; -webkit-font-smoothing: antialiased; font-family: Roboto; font-size: 12px;" fill="#757575" dx="-282.125px">Blenderman-Camera_001-ambient_occlusion-embree</text><text x="543.5" y="758.3590927240857" style="cursor: default; user-select: none; -webkit-font-smoothing: antialiased; font-family: Roboto; font-size: 12px;" fill="#757575" dx="-287.859375px">DailyDweeb-CameraShape-ambient_occlusion-embree</text><text x="543.5" y="791.1309478899964" style="cursor: default; user-select: none; -webkit-font-smoothing: antialiased; font-family: Roboto; font-size: 12px;" fill="#757575" dx="-220.109375px">StormTrooper-render_cam-debug-embree</text><text x="543.5" y="823.9027420207512" style="cursor: default; user-select: none; -webkit-font-smoothing: antialiased; font-family: Roboto; font-size: 12px;" fill="#757575" dx="-220.5625px">DailyDweeb-CameraShape-debug-embree</text><text x="543.5" y="856.6745971866624" style="cursor: default; user-select: none; -webkit-font-smoothing: antialiased; font-family: Roboto; font-size: 12px;" fill="#757575" dx="-287.40625px">StormTrooper-render_cam-ambient_occlusion-embree</text><text x="543.5" y="889.4463913174168" style="cursor: default; user-select: none; -webkit-font-smoothing: antialiased; font-family: Roboto; font-size: 12px;" fill="#757575" dx="-214.828125px">Blenderman-Camera_001-debug-embree</text><text x="543.5" y="922.2182464833279" style="cursor: default; user-select: none; -webkit-font-smoothing: antialiased; font-family: Roboto; font-size: 12px;" fill="#757575" dx="-337.578125px">OpenChessSet-render_cam_7Shape-ambient_occlusion-embree</text><text x="543.5" y="954.9900406140823" style="cursor: default; user-select: none; -webkit-font-smoothing: antialiased; font-family: Roboto; font-size: 12px;" fill="#757575" dx="-305.140625px">EmperorCrown-CameraShape-ambient_occlusion-embree</text><text x="543.5" y="987.7618957799934" style="cursor: default; user-select: none; -webkit-font-smoothing: antialiased; font-family: Roboto; font-size: 12px;" fill="#757575" dx="-237.84375px">EmperorCrown-CameraShape-debug-embree</text><text x="543.5" y="1020.5336899107481" style="cursor: default; user-select: none; -webkit-font-smoothing: antialiased; font-family: Roboto; font-size: 12px;" fill="#757575" dx="-271.21875px">CornellBox-render_cam-ambient_occlusion-embree</text><text x="543.5" y="1053.3054840415025" style="cursor: default; user-select: none; -webkit-font-smoothing: antialiased; font-family: Roboto; font-size: 12px;" fill="#757575" dx="-306.8125px">Intel_Sponza-PhysCamera001-ambient_occlusion-embree</text><text x="543.5" y="1086.0772781722576" style="cursor: default; user-select: none; -webkit-font-smoothing: antialiased; font-family: Roboto; font-size: 12px;" fill="#757575" dx="-415.171875px">Intel_Sponza_Candles_Thin_Lens-PhysCamera002-ambient_occlusion-embree</text><text x="543.5" y="1118.8491943733247" style="cursor: default; user-select: none; -webkit-font-smoothing: antialiased; font-family: Roboto; font-size: 12px;" fill="#757575" dx="-381.578125px">Intel_mooreLane-MASTER_cameraExtended-ambient_occlusion-embree</text><text x="14.84375" y="587.5" style="cursor: default; user-select: none; -webkit-font-smoothing: antialiased; font-family: Roboto; font-size: 12px;" fill="#424242" dx="-16.375px" transform="rotate(-90 14.84375 590.5)">Scene</text></g><g></g><g></g><g></g></svg>