<svg width="2510" height="1190" xmlns="http://www.w3.org/2000/svg"><defs><clipPath id="rablfilter20"><rect x="549.5" y="55.5" width="1810" height="1082"></rect></clipPath></defs><g><rect x="0" y="0" width="2510" height="1190" fill="#ffffff" fill-opacity="1" stroke="#ffffff" stroke-opacity="0" stroke-width="0"></rect><text x="0" y="15" style="cursor: default; user-select: none; -webkit-font-smoothing: antialiased; font-family: Roboto; font-size: 16px;" fill="#757575" dx="0px">Absolute Timing</text><rect x="2409.9013671875" y="55.5" width="12" height="12" rx="2" ry="2" fill="#4285f4"></rect><text x="2429.9013671875" y="68.5" style="cursor: default; user-select: none; -webkit-font-smoothing: antialiased; font-family: Roboto;" fill="#757575" dx="0px">Baseline</text><rect x="2409.9013671875" y="88.5" width="12" height="12" rx="2" ry="2" fill="#db4437"></rect><text x="2429.9013671875" y="101.5" style="cursor: default; user-select: none; -webkit-font-smoothing: antialiased; font-family: Roboto;" fill="#757575" dx="0px">New revision</text><rect x="549.5" y="55.5" width="1810" height="1082" fill="#ffffff" fill-opacity="1" stroke="#ffffff" stroke-opacity="0" stroke-width="1"></rect></g><g><line x1="549.5" x2="549.5" y1="55.5" y2="1137.5" stroke="#9E9E9E" stroke-width="1"></line><line x1="650.0555555555555" x2="650.0555555555555" y1="55.5" y2="1137.5" stroke="#E0E0E0" stroke-width="1"></line><line x1="750.6111111111111" x2="750.6111111111111" y1="55.5" y2="1137.5" stroke="#E0E0E0" stroke-width="1"></line><line x1="851.1666666666666" x2="851.1666666666666" y1="55.5" y2="1137.5" stroke="#E0E0E0" stroke-width="1"></line><line x1="951.7222222222222" x2="951.7222222222222" y1="55.5" y2="1137.5" stroke="#E0E0E0" stroke-width="1"></line><line x1="1052.2777777777778" x2="1052.2777777777778" y1="55.5" y2="1137.5" stroke="#E0E0E0" stroke-width="1"></line><line x1="1152.8333333333333" x2="1152.8333333333333" y1="55.5" y2="1137.5" stroke="#E0E0E0" stroke-width="1"></line><line x1="1253.388888888889" x2="1253.388888888889" y1="55.5" y2="1137.5" stroke="#E0E0E0" stroke-width="1"></line><line x1="1353.9444444444443" x2="1353.9444444444443" y1="55.5" y2="1137.5" stroke="#E0E0E0" stroke-width="1"></line><line x1="1454.5" x2="1454.5" y1="55.5" y2="1137.5" stroke="#E0E0E0" stroke-width="1"></line><line x1="1555.0555555555557" x2="1555.0555555555557" y1="55.5" y2="1137.5" stroke="#E0E0E0" stroke-width="1"></line><line x1="1655.6111111111113" x2="1655.6111111111113" y1="55.5" y2="1137.5" stroke="#E0E0E0" stroke-width="1"></line><line x1="1756.1666666666665" x2="1756.1666666666665" y1="55.5" y2="1137.5" stroke="#E0E0E0" stroke-width="1"></line><line x1="1856.7222222222222" x2="1856.7222222222222" y1="55.5" y2="1137.5" stroke="#E0E0E0" stroke-width="1"></line><line x1="1957.2777777777778" x2="1957.2777777777778" y1="55.5" y2="1137.5" stroke="#E0E0E0" stroke-width="1"></line><line x1="2057.8333333333335" x2="2057.8333333333335" y1="55.5" y2="1137.5" stroke="#E0E0E0" stroke-width="1"></line><line x1="2158.3888888888887" x2="2158.3888888888887" y1="55.5" y2="1137.5" stroke="#E0E0E0" stroke-width="1"></line><line x1="2258.9444444444443" x2="2258.9444444444443" y1="55.5" y2="1137.5" stroke="#E0E0E0" stroke-width="1"></line><line x1="2359.5" x2="2359.5" y1="55.5" y2="1137.5" stroke="#E0E0E0" stroke-width="1"></line></g><g><path d="M 1152.3436701666667 56 A 2 2 0 0 1 1154.3436701666667 58 L 1154.3436701666667 63.650842266462476 A 2 2 0 0 1 1152.3436701666667 65.65084226646248 L 550 65.65084226646248 A 0 0 0 0 1 550 65.65084226646248 L 550 56 A 0 0 0 0 1 550 56 Z" fill="#4285f4" clip-path="url(#rablfilter20)"></path><path d="M 1073.2882418444447 66.65084226646248 A 2 2 0 0 1 1075.2882418444447 68.65084226646248 L 1075.2882418444447 74.30168453292495 A 2 2 0 0 1 1073.2882418444447 76.30168453292495 L 550 76.30168453292495 A 0 0 0 0 1 550 76.30168453292495 L 550 66.65084226646248 A 0 0 0 0 1 550 66.65084226646248 Z" fill="#db4437" clip-path="url(#rablfilter20)"></path><path d="M 1129.8504522444443 88.77182235834609 A 2 2 0 0 1 1131.8504522444443 90.77182235834609 L 1131.8504522444443 96.42266462480856 A 2 2 0 0 1 1129.8504522444443 98.42266462480856 L 550 98.42266462480856 A 0 0 0 0 1 550 98.42266462480856 L 550 88.77182235834609 A 0 0 0 0 1 550 88.77182235834609 Z" fill="#4285f4" clip-path="url(#rablfilter20)"></path><path d="M 1053.8474883666668 99.42266462480856 A 2 2 0 0 1 1055.8474883666668 101.42266462480856 L 1055.8474883666668 107.07350689127105 A 2 2 0 0 1 1053.8474883666668 109.07350689127105 L 550 109.07350689127105 A 0 0 0 0 1 550 109.07350689127105 L 550 99.42266462480856 A 0 0 0 0 1 550 99.42266462480856 Z" fill="#db4437" clip-path="url(#rablfilter20)"></path><path d="M 1989.4045619777778 121.54364471669217 A 2 2 0 0 1 1991.4045619777778 123.54364471669217 L 1991.4045619777778 129.19448698315466 A 2 2 0 0 1 1989.4045619777778 131.19448698315466 L 550 131.19448698315466 A 0 0 0 0 1 550 131.19448698315466 L 550 121.54364471669217 A 0 0 0 0 1 550 121.54364471669217 Z" fill="#4285f4" clip-path="url(#rablfilter20)"></path><path d="M 1930.5839200555556 132.19448698315466 A 2 2 0 0 1 1932.5839200555556 134.19448698315466 L 1932.5839200555556 139.84532924961715 A 2 2 0 0 1 1930.5839200555556 141.84532924961715 L 550 141.84532924961715 A 0 0 0 0 1 550 141.84532924961715 L 550 132.19448698315466 A 0 0 0 0 1 550 132.19448698315466 Z" fill="#db4437" clip-path="url(#rablfilter20)"></path><path d="M 1656.2019073333333 154.31546707503827 A 2 2 0 0 1 1658.2019073333333 156.31546707503827 L 1658.2019073333333 161.96630934150073 A 2 2 0 0 1 1656.2019073333333 163.96630934150073 L 550 163.96630934150073 A 0 0 0 0 1 550 163.96630934150073 L 550 154.31546707503827 A 0 0 0 0 1 550 154.31546707503827 Z" fill="#4285f4" clip-path="url(#rablfilter20)"></path><path d="M 1605.6814990555554 164.96630934150073 A 2 2 0 0 1 1607.6814990555554 166.96630934150073 L 1607.6814990555554 172.61715160796325 A 2 2 0 0 1 1605.6814990555554 174.61715160796325 L 550 174.61715160796325 A 0 0 0 0 1 550 174.61715160796325 L 550 164.96630934150073 A 0 0 0 0 1 550 164.96630934150073 Z" fill="#db4437" clip-path="url(#rablfilter20)"></path><path d="M 1599.4671979 187.08728943338434 A 2 2 0 0 1 1601.4671979 189.08728943338434 L 1601.4671979 194.73813169984686 A 2 2 0 0 1 1599.4671979 196.73813169984686 L 550 196.73813169984686 A 0 0 0 0 1 550 196.73813169984686 L 550 187.08728943338434 A 0 0 0 0 1 550 187.08728943338434 Z" fill="#4285f4" clip-path="url(#rablfilter20)"></path><path d="M 1564.0021302999999 197.73813169984686 A 2 2 0 0 1 1566.0021302999999 199.73813169984686 L 1566.0021302999999 205.38897396630932 A 2 2 0 0 1 1564.0021302999999 207.38897396630932 L 550 207.38897396630932 A 0 0 0 0 1 550 207.38897396630932 L 550 197.73813169984686 A 0 0 0 0 1 550 197.73813169984686 Z" fill="#db4437" clip-path="url(#rablfilter20)"></path><path d="M 1929.5552427555556 219.85911179173044 A 2 2 0 0 1 1931.5552427555556 221.85911179173044 L 1931.5552427555556 227.50995405819293 A 2 2 0 0 1 1929.5552427555556 229.50995405819293 L 550 229.50995405819293 A 0 0 0 0 1 550 229.50995405819293 L 550 219.85911179173044 A 0 0 0 0 1 550 219.85911179173044 Z" fill="#4285f4" clip-path="url(#rablfilter20)"></path><path d="M 1898.7598162777779 230.50995405819293 A 2 2 0 0 1 1900.7598162777779 232.50995405819293 L 1900.7598162777779 238.16079632465542 A 2 2 0 0 1 1898.7598162777779 240.16079632465542 L 550 240.16079632465542 A 0 0 0 0 1 550 240.16079632465542 L 550 230.50995405819293 A 0 0 0 0 1 550 230.50995405819293 Z" fill="#db4437" clip-path="url(#rablfilter20)"></path><path d="M 1553.2808064666665 252.63093415007654 A 2 2 0 0 1 1555.2808064666665 254.63093415007654 L 1555.2808064666665 260.281776416539 A 2 2 0 0 1 1553.2808064666665 262.281776416539 L 550 262.281776416539 A 0 0 0 0 1 550 262.281776416539 L 550 252.63093415007654 A 0 0 0 0 1 550 252.63093415007654 Z" fill="#4285f4" clip-path="url(#rablfilter20)"></path><path d="M 1527.6978159777777 263.281776416539 A 2 2 0 0 1 1529.6978159777777 265.281776416539 L 1529.6978159777777 270.93261868300146 A 2 2 0 0 1 1527.6978159777777 272.93261868300146 L 550 272.93261868300146 A 0 0 0 0 1 550 272.93261868300146 L 550 263.281776416539 A 0 0 0 0 1 550 263.281776416539 Z" fill="#db4437" clip-path="url(#rablfilter20)"></path><path d="M 926.4043606888888 285.4027565084226 A 2 2 0 0 1 928.4043606888888 287.4027565084226 L 928.4043606888888 293.05359877488513 A 2 2 0 0 1 926.4043606888888 295.05359877488513 L 550 295.05359877488513 A 0 0 0 0 1 550 295.05359877488513 L 550 285.4027565084226 A 0 0 0 0 1 550 285.4027565084226 Z" fill="#4285f4" clip-path="url(#rablfilter20)"></path><path d="M 903.3649973888889 296.05359877488513 A 2 2 0 0 1 905.3649973888889 298.05359877488513 L 905.3649973888889 303.7044410413476 A 2 2 0 0 1 903.3649973888889 305.7044410413476 L 550 305.7044410413476 A 0 0 0 0 1 550 305.7044410413476 L 550 296.05359877488513 A 0 0 0 0 1 550 296.05359877488513 Z" fill="#db4437" clip-path="url(#rablfilter20)"></path><path d="M 776.1391521666667 318.1745788667687 A 2 2 0 0 1 778.1391521666667 320.1745788667687 L 778.1391521666667 325.8254211332312 A 2 2 0 0 1 776.1391521666667 327.8254211332312 L 550 327.8254211332312 A 0 0 0 0 1 550 327.8254211332312 L 550 318.1745788667687 A 0 0 0 0 1 550 318.1745788667687 Z" fill="#4285f4" clip-path="url(#rablfilter20)"></path><path d="M 753.3282953333334 328.8254211332312 A 2 2 0 0 1 755.3282953333334 330.8254211332312 L 755.3282953333334 336.47626339969366 A 2 2 0 0 1 753.3282953333334 338.47626339969366 L 550 338.47626339969366 A 0 0 0 0 1 550 338.47626339969366 L 550 328.8254211332312 A 0 0 0 0 1 550 328.8254211332312 Z" fill="#db4437" clip-path="url(#rablfilter20)"></path><path d="M 835.0249762111112 350.9464012251148 A 2 2 0 0 1 837.0249762111112 352.9464012251148 L 837.0249762111112 358.5972434915773 A 2 2 0 0 1 835.0249762111112 360.5972434915773 L 550 360.5972434915773 A 0 0 0 0 1 550 360.5972434915773 L 550 350.9464012251148 A 0 0 0 0 1 550 350.9464012251148 Z" fill="#4285f4" clip-path="url(#rablfilter20)"></path><path d="M 814.4390719333333 361.5972434915773 A 2 2 0 0 1 816.4390719333333 363.5972434915773 L 816.4390719333333 369.24808575803974 A 2 2 0 0 1 814.4390719333333 371.24808575803974 L 550 371.24808575803974 A 0 0 0 0 1 550 371.24808575803974 L 550 361.5972434915773 A 0 0 0 0 1 550 361.5972434915773 Z" fill="#db4437" clip-path="url(#rablfilter20)"></path><path d="M 2292.1405505000002 383.7182235834609 A 2 2 0 0 1 2294.1405505000002 385.7182235834609 L 2294.1405505000002 391.36906584992335 A 2 2 0 0 1 2292.1405505000002 393.36906584992335 L 550 393.36906584992335 A 0 0 0 0 1 550 393.36906584992335 L 550 383.7182235834609 A 0 0 0 0 1 550 383.7182235834609 Z" fill="#4285f4" clip-path="url(#rablfilter20)"></path><path d="M 2277.7081816555556 394.36906584992335 A 2 2 0 0 1 2279.7081816555556 396.36906584992335 L 2279.7081816555556 402.0199081163858 A 2 2 0 0 1 2277.7081816555556 404.0199081163858 L 550 404.0199081163858 A 0 0 0 0 1 550 404.0199081163858 L 550 394.36906584992335 A 0 0 0 0 1 550 394.36906584992335 Z" fill="#db4437" clip-path="url(#rablfilter20)"></path><path d="M 742.1150497 416.490045941807 A 2 2 0 0 1 744.1150497 418.490045941807 L 744.1150497 424.1408882082694 A 2 2 0 0 1 742.1150497 426.1408882082694 L 550 426.1408882082694 A 0 0 0 0 1 550 426.1408882082694 L 550 416.490045941807 A 0 0 0 0 1 550 416.490045941807 Z" fill="#4285f4" clip-path="url(#rablfilter20)"></path><path d="M 733.0968373222222 427.1408882082694 A 2 2 0 0 1 735.0968373222222 429.1408882082694 L 735.0968373222222 434.7917304747319 A 2 2 0 0 1 733.0968373222222 436.7917304747319 L 550 436.7917304747319 A 0 0 0 0 1 550 436.7917304747319 L 550 427.1408882082694 A 0 0 0 0 1 550 427.1408882082694 Z" fill="#db4437" clip-path="url(#rablfilter20)"></path><path d="M 1081.665241611111 449.2618683001531 A 2 2 0 0 1 1083.665241611111 451.2618683001531 L 1083.665241611111 456.9127105666155 A 2 2 0 0 1 1081.665241611111 458.9127105666155 L 550 458.9127105666155 A 0 0 0 0 1 550 458.9127105666155 L 550 449.2618683001531 A 0 0 0 0 1 550 449.2618683001531 Z" fill="#4285f4" clip-path="url(#rablfilter20)"></path><path d="M 1076.6399576111112 459.9127105666155 A 2 2 0 0 1 1078.6399576111112 461.9127105666155 L 1078.6399576111112 467.56355283307795 A 2 2 0 0 1 1076.6399576111112 469.56355283307795 L 550 469.56355283307795 A 0 0 0 0 1 550 469.56355283307795 L 550 459.9127105666155 A 0 0 0 0 1 550 459.9127105666155 Z" fill="#db4437" clip-path="url(#rablfilter20)"></path><path d="M 940.6129009111112 482.03369065849915 A 2 2 0 0 1 942.6129009111112 484.03369065849915 L 942.6129009111112 489.6845329249616 A 2 2 0 0 1 940.6129009111112 491.6845329249616 L 550 491.6845329249616 A 0 0 0 0 1 550 491.6845329249616 L 550 482.03369065849915 A 0 0 0 0 1 550 482.03369065849915 Z" fill="#4285f4" clip-path="url(#rablfilter20)"></path><path d="M 935.7413784222222 492.6845329249616 A 2 2 0 0 1 937.7413784222222 494.6845329249616 L 937.7413784222222 500.3353751914241 A 2 2 0 0 1 935.7413784222222 502.3353751914241 L 550 502.3353751914241 A 0 0 0 0 1 550 502.3353751914241 L 550 492.6845329249616 A 0 0 0 0 1 550 492.6845329249616 Z" fill="#db4437" clip-path="url(#rablfilter20)"></path><path d="M 634.3822649444444 514.8055130168452 A 2 2 0 0 1 636.3822649444444 516.8055130168452 L 636.3822649444444 522.4563552833077 A 2 2 0 0 1 634.3822649444444 524.4563552833077 L 550 524.4563552833077 A 0 0 0 0 1 550 524.4563552833077 L 550 514.8055130168452 A 0 0 0 0 1 550 514.8055130168452 Z" fill="#4285f4" clip-path="url(#rablfilter20)"></path><path d="M 632.4942298111112 525.4563552833077 A 2 2 0 0 1 634.4942298111112 527.4563552833077 L 634.4942298111112 533.1071975497701 A 2 2 0 0 1 632.4942298111112 535.1071975497701 L 550 535.1071975497701 A 0 0 0 0 1 550 535.1071975497701 L 550 525.4563552833077 A 0 0 0 0 1 550 525.4563552833077 Z" fill="#db4437" clip-path="url(#rablfilter20)"></path><path d="M 637.2596782555555 547.5773353751913 A 2 2 0 0 1 639.2596782555555 549.5773353751913 L 639.2596782555555 555.2281776416538 A 2 2 0 0 1 637.2596782555555 557.2281776416538 L 550 557.2281776416538 A 0 0 0 0 1 550 557.2281776416538 L 550 547.5773353751913 A 0 0 0 0 1 550 547.5773353751913 Z" fill="#4285f4" clip-path="url(#rablfilter20)"></path><path d="M 635.4740810777778 558.2281776416538 A 2 2 0 0 1 637.4740810777778 560.2281776416538 L 637.4740810777778 565.8790199081162 A 2 2 0 0 1 635.4740810777778 567.8790199081162 L 550 567.8790199081162 A 0 0 0 0 1 550 567.8790199081162 L 550 558.2281776416538 A 0 0 0 0 1 550 558.2281776416538 Z" fill="#db4437" clip-path="url(#rablfilter20)"></path><path d="M 564.0105026777778 580.3491577335374 A 2 2 0 0 1 566.0105026777778 582.3491577335374 L 566.0105026777778 587.9999999999999 A 2 2 0 0 1 564.0105026777778 589.9999999999999 L 550 589.9999999999999 A 0 0 0 0 1 550 589.9999999999999 L 550 580.3491577335374 A 0 0 0 0 1 550 580.3491577335374 Z" fill="#4285f4" clip-path="url(#rablfilter20)"></path><path d="M 562.6225303222222 590.9999999999999 A 2 2 0 0 1 564.6225303222222 592.9999999999999 L 564.6225303222222 598.6508422664624 A 2 2 0 0 1 562.6225303222222 600.6508422664624 L 550 600.6508422664624 A 0 0 0 0 1 550 600.6508422664624 L 550 590.9999999999999 A 0 0 0 0 1 550 590.9999999999999 Z" fill="#db4437" clip-path="url(#rablfilter20)"></path><path d="M 2041.5901420999999 613.1209800918836 A 2 2 0 0 1 2043.5901420999999 615.1209800918836 L 2043.5901420999999 620.7718223583461 A 2 2 0 0 1 2041.5901420999999 622.7718223583461 L 550 622.7718223583461 A 0 0 0 0 1 550 622.7718223583461 L 550 613.1209800918836 A 0 0 0 0 1 550 613.1209800918836 Z" fill="#4285f4" clip-path="url(#rablfilter20)"></path><path d="M 2040.5852944555556 623.7718223583461 A 2 2 0 0 1 2042.5852944555556 625.7718223583461 L 2042.5852944555556 631.4226646248084 A 2 2 0 0 1 2040.5852944555556 633.4226646248084 L 550 633.4226646248084 A 0 0 0 0 1 550 633.4226646248084 L 550 623.7718223583461 A 0 0 0 0 1 550 623.7718223583461 Z" fill="#db4437" clip-path="url(#rablfilter20)"></path><path d="M 644.8972829666667 645.8928024502296 A 2 2 0 0 1 646.8972829666667 647.8928024502296 L 646.8972829666667 653.543644716692 A 2 2 0 0 1 644.8972829666667 655.543644716692 L 550 655.543644716692 A 0 0 0 0 1 550 655.543644716692 L 550 645.8928024502296 A 0 0 0 0 1 550 645.8928024502296 Z" fill="#4285f4" clip-path="url(#rablfilter20)"></path><path d="M 644.2821967 656.543644716692 A 2 2 0 0 1 646.2821967 658.543644716692 L 646.2821967 664.1944869831545 A 2 2 0 0 1 644.2821967 666.1944869831545 L 550 666.1944869831545 A 0 0 0 0 1 550 666.1944869831545 L 550 656.543644716692 A 0 0 0 0 1 550 656.543644716692 Z" fill="#db4437" clip-path="url(#rablfilter20)"></path><path d="M 588.8657424444444 678.6646248085757 A 2 2 0 0 1 590.8657424444444 680.6646248085757 L 590.8657424444444 686.3154670750382 A 2 2 0 0 1 588.8657424444444 688.3154670750382 L 550 688.3154670750382 A 0 0 0 0 1 550 688.3154670750382 L 550 678.6646248085757 A 0 0 0 0 1 550 678.6646248085757 Z" fill="#4285f4" clip-path="url(#rablfilter20)"></path><path d="M 588.4226906444444 689.3154670750382 A 2 2 0 0 1 590.4226906444444 691.3154670750382 L 590.4226906444444 696.9663093415006 A 2 2 0 0 1 588.4226906444444 698.9663093415006 L 550 698.9663093415006 A 0 0 0 0 1 550 698.9663093415006 L 550 689.3154670750382 A 0 0 0 0 1 550 689.3154670750382 Z" fill="#db4437" clip-path="url(#rablfilter20)"></path><path d="M 784.3454568666666 711.4364471669218 A 2 2 0 0 1 786.3454568666666 713.4364471669218 L 786.3454568666666 719.0872894333842 A 2 2 0 0 1 784.3454568666666 721.0872894333842 L 550 721.0872894333842 A 0 0 0 0 1 550 721.0872894333842 L 550 711.4364471669218 A 0 0 0 0 1 550 711.4364471669218 Z" fill="#4285f4" clip-path="url(#rablfilter20)"></path><path d="M 783.9720015777777 722.0872894333842 A 2 2 0 0 1 785.9720015777777 724.0872894333842 L 785.9720015777777 729.7381316998467 A 2 2 0 0 1 783.9720015777777 731.7381316998467 L 550 731.7381316998467 A 0 0 0 0 1 550 731.7381316998467 L 550 722.0872894333842 A 0 0 0 0 1 550 722.0872894333842 Z" fill="#db4437" clip-path="url(#rablfilter20)"></path><path d="M 608.6586032666667 744.2082695252678 A 2 2 0 0 1 610.6586032666667 746.2082695252678 L 610.6586032666667 751.8591117917304 A 2 2 0 0 1 608.6586032666667 753.8591117917304 L 550 753.8591117917304 A 0 0 0 0 1 550 753.8591117917304 L 550 744.2082695252678 A 0 0 0 0 1 550 744.2082695252678 Z" fill="#4285f4" clip-path="url(#rablfilter20)"></path><path d="M 608.3262007888889 754.8591117917304 A 2 2 0 0 1 610.3262007888889 756.8591117917304 L 610.3262007888889 762.5099540581928 A 2 2 0 0 1 608.3262007888889 764.5099540581928 L 550 764.5099540581928 A 0 0 0 0 1 550 764.5099540581928 L 550 754.8591117917304 A 0 0 0 0 1 550 754.8591117917304 Z" fill="#db4437" clip-path="url(#rablfilter20)"></path><path d="M 558.3077497555555 776.980091883614 A 2 2 0 0 1 560.3077497555555 778.980091883614 L 560.3077497555555 784.6309341500763 A 2 2 0 0 1 558.3077497555555 786.6309341500763 L 550 786.6309341500763 A 0 0 0 0 1 550 786.6309341500763 L 550 776.980091883614 A 0 0 0 0 1 550 776.980091883614 Z" fill="#4285f4" clip-path="url(#rablfilter20)"></path><path d="M 558.1403710111111 787.6309341500763 A 2 2 0 0 1 560.1403710111111 789.6309341500763 L 560.1403710111111 795.2817764165388 A 2 2 0 0 1 558.1403710111111 797.2817764165388 L 550 797.2817764165388 A 0 0 0 0 1 550 797.2817764165388 L 550 787.6309341500763 A 0 0 0 0 1 550 787.6309341500763 Z" fill="#db4437" clip-path="url(#rablfilter20)"></path><path d="M 580.4159283888889 809.75191424196 A 2 2 0 0 1 582.4159283888889 811.75191424196 L 582.4159283888889 817.4027565084225 A 2 2 0 0 1 580.4159283888889 819.4027565084225 L 550 819.4027565084225 A 0 0 0 0 1 550 819.4027565084225 L 550 809.75191424196 A 0 0 0 0 1 550 809.75191424196 Z" fill="#4285f4" clip-path="url(#rablfilter20)"></path><path d="M 580.3343979444444 820.4027565084225 A 2 2 0 0 1 582.3343979444444 822.4027565084225 L 582.3343979444444 828.053598774885 A 2 2 0 0 1 580.3343979444444 830.053598774885 L 550 830.053598774885 A 0 0 0 0 1 550 830.053598774885 L 550 820.4027565084225 A 0 0 0 0 1 550 820.4027565084225 Z" fill="#db4437" clip-path="url(#rablfilter20)"></path><path d="M 669.7086242 842.5237366003062 A 2 2 0 0 1 671.7086242 844.5237366003062 L 671.7086242 850.1745788667687 A 2 2 0 0 1 669.7086242 852.1745788667687 L 550 852.1745788667687 A 0 0 0 0 1 550 852.1745788667687 L 550 842.5237366003062 A 0 0 0 0 1 550 842.5237366003062 Z" fill="#4285f4" clip-path="url(#rablfilter20)"></path><path d="M 669.7849177111111 853.1745788667687 A 2 2 0 0 1 671.7849177111111 855.1745788667687 L 671.7849177111111 860.825421133231 A 2 2 0 0 1 669.7849177111111 862.825421133231 L 550 862.825421133231 A 0 0 0 0 1 550 862.825421133231 L 550 853.1745788667687 A 0 0 0 0 1 550 853.1745788667687 Z" fill="#db4437" clip-path="url(#rablfilter20)"></path><path d="M 714.7248486222222 875.2955589586522 A 2 2 0 0 1 716.7248486222222 877.2955589586522 L 716.7248486222222 882.9464012251146 A 2 2 0 0 1 714.7248486222222 884.9464012251146 L 550 884.9464012251146 A 0 0 0 0 1 550 884.9464012251146 L 550 875.2955589586522 A 0 0 0 0 1 550 875.2955589586522 Z" fill="#4285f4" clip-path="url(#rablfilter20)"></path><path d="M 715.0714455222222 885.9464012251146 A 2 2 0 0 1 717.0714455222222 887.9464012251146 L 717.0714455222222 893.5972434915772 A 2 2 0 0 1 715.0714455222222 895.5972434915772 L 550 895.5972434915772 A 0 0 0 0 1 550 895.5972434915772 L 550 885.9464012251146 A 0 0 0 0 1 550 885.9464012251146 Z" fill="#db4437" clip-path="url(#rablfilter20)"></path><path d="M 637.2133060555556 908.0673813169983 A 2 2 0 0 1 639.2133060555556 910.0673813169983 L 639.2133060555556 915.7182235834608 A 2 2 0 0 1 637.2133060555556 917.7182235834608 L 550 917.7182235834608 A 0 0 0 0 1 550 917.7182235834608 L 550 908.0673813169983 A 0 0 0 0 1 550 908.0673813169983 Z" fill="#4285f4" clip-path="url(#rablfilter20)"></path><path d="M 637.7946559333334 918.7182235834608 A 2 2 0 0 1 639.7946559333334 920.7182235834608 L 639.7946559333334 926.3690658499232 A 2 2 0 0 1 637.7946559333334 928.3690658499232 L 550 928.3690658499232 A 0 0 0 0 1 550 928.3690658499232 L 550 918.7182235834608 A 0 0 0 0 1 550 918.7182235834608 Z" fill="#db4437" clip-path="url(#rablfilter20)"></path><path d="M 2267.970701422222 940.8392036753444 A 2 2 0 0 1 2269.970701422222 942.8392036753444 L 2269.970701422222 948.4900459418068 A 2 2 0 0 1 2267.970701422222 950.4900459418068 L 550 950.4900459418068 A 0 0 0 0 1 550 950.4900459418068 L 550 940.8392036753444 A 0 0 0 0 1 550 940.8392036753444 Z" fill="#4285f4" clip-path="url(#rablfilter20)"></path><path d="M 2268.794711966667 951.4900459418068 A 2 2 0 0 1 2270.794711966667 953.4900459418068 L 2270.794711966667 959.1408882082693 A 2 2 0 0 1 2268.794711966667 961.1408882082693 L 550 961.1408882082693 A 0 0 0 0 1 550 961.1408882082693 L 550 951.4900459418068 A 0 0 0 0 1 550 951.4900459418068 Z" fill="#db4437" clip-path="url(#rablfilter20)"></path><path d="M 706.8348756111111 973.6110260336905 A 2 2 0 0 1 708.8348756111111 975.6110260336905 L 708.8348756111111 981.261868300153 A 2 2 0 0 1 706.8348756111111 983.261868300153 L 550 983.261868300153 A 0 0 0 0 1 550 983.261868300153 L 550 973.6110260336905 A 0 0 0 0 1 550 973.6110260336905 Z" fill="#4285f4" clip-path="url(#rablfilter20)"></path><path d="M 709.7620860444445 984.261868300153 A 2 2 0 0 1 711.7620860444445 986.261868300153 L 711.7620860444445 991.9127105666155 A 2 2 0 0 1 709.7620860444445 993.9127105666155 L 550 993.9127105666155 A 0 0 0 0 1 550 993.9127105666155 L 550 984.261868300153 A 0 0 0 0 1 550 984.261868300153 Z" fill="#db4437" clip-path="url(#rablfilter20)"></path><path d="M 728.7780546444444 1006.3828483920366 A 2 2 0 0 1 730.7780546444444 1008.3828483920366 L 730.7780546444444 1014.033690658499 A 2 2 0 0 1 728.7780546444444 1016.033690658499 L 550 1016.033690658499 A 0 0 0 0 1 550 1016.033690658499 L 550 1006.3828483920366 A 0 0 0 0 1 550 1006.3828483920366 Z" fill="#4285f4" clip-path="url(#rablfilter20)"></path><path d="M 732.2308951111111 1017.033690658499 A 2 2 0 0 1 734.2308951111111 1019.033690658499 L 734.2308951111111 1024.6845329249613 A 2 2 0 0 1 732.2308951111111 1026.6845329249613 L 550 1026.6845329249613 A 0 0 0 0 1 550 1026.6845329249613 L 550 1017.033690658499 A 0 0 0 0 1 550 1017.033690658499 Z" fill="#db4437" clip-path="url(#rablfilter20)"></path><path d="M 1899.0745028777778 1039.1546707503826 A 2 2 0 0 1 1901.0745028777778 1041.1546707503826 L 1901.0745028777778 1046.805513016845 A 2 2 0 0 1 1899.0745028777778 1048.805513016845 L 550 1048.805513016845 A 0 0 0 0 1 550 1048.805513016845 L 550 1039.1546707503826 A 0 0 0 0 1 550 1039.1546707503826 Z" fill="#4285f4" clip-path="url(#rablfilter20)"></path><path d="M 1907.2893487666668 1049.805513016845 A 2 2 0 0 1 1909.2893487666668 1051.805513016845 L 1909.2893487666668 1057.4563552833076 A 2 2 0 0 1 1907.2893487666668 1059.4563552833076 L 550 1059.4563552833076 A 0 0 0 0 1 550 1059.4563552833076 L 550 1049.805513016845 A 0 0 0 0 1 550 1049.805513016845 Z" fill="#db4437" clip-path="url(#rablfilter20)"></path><path d="M 1980.3306780222222 1071.9264931087287 A 2 2 0 0 1 1982.3306780222222 1073.9264931087287 L 1982.3306780222222 1079.5773353751913 A 2 2 0 0 1 1980.3306780222222 1081.5773353751913 L 550 1081.5773353751913 A 0 0 0 0 1 550 1081.5773353751913 L 550 1071.9264931087287 A 0 0 0 0 1 550 1071.9264931087287 Z" fill="#4285f4" clip-path="url(#rablfilter20)"></path><path d="M 1997.1693493555556 1082.5773353751913 A 2 2 0 0 1 1999.1693493555556 1084.5773353751913 L 1999.1693493555556 1090.2281776416537 A 2 2 0 0 1 1997.1693493555556 1092.2281776416537 L 550 1092.2281776416537 A 0 0 0 0 1 550 1092.2281776416537 L 550 1082.5773353751913 A 0 0 0 0 1 550 1082.5773353751913 Z" fill="#db4437" clip-path="url(#rablfilter20)"></path><path d="M 1675.9858166999998 1104.6983154670747 A 2 2 0 0 1 1677.9858166999998 1106.6983154670747 L 1677.9858166999998 1112.3491577335374 A 2 2 0 0 1 1675.9858166999998 1114.3491577335374 L 550 1114.3491577335374 A 0 0 0 0 1 550 1114.3491577335374 L 550 1104.6983154670747 A 0 0 0 0 1 550 1104.6983154670747 Z" fill="#4285f4" clip-path="url(#rablfilter20)"></path><path d="M 1695.6824901 1115.3491577335374 A 2 2 0 0 1 1697.6824901 1117.3491577335374 L 1697.6824901 1123 A 2 2 0 0 1 1695.6824901 1125 L 550 1125 A 0 0 0 0 1 550 1125 L 550 1115.3491577335374 A 0 0 0 0 1 550 1115.3491577335374 Z" fill="#db4437" clip-path="url(#rablfilter20)"></path></g><g></g><g><text x="549.5" y="1154.5" style="cursor: default; user-select: none; -webkit-font-smoothing: antialiased; font-family: Roboto; font-size: 12px;" fill="#757575" dx="-3.375px">0</text><text x="650.0555555555555" y="1154.5" style="cursor: default; user-select: none; -webkit-font-smoothing: antialiased; font-family: Roboto; font-size: 12px;" fill="#757575" dx="-6.7421875px">50</text><text x="750.6111111111111" y="1154.5" style="cursor: default; user-select: none; -webkit-font-smoothing: antialiased; font-family: Roboto; font-size: 12px;" fill="#757575" dx="-10.109375px">100</text><text x="851.1666666666666" y="1154.5" style="cursor: default; user-select: none; -webkit-font-smoothing: antialiased; font-family: Roboto; font-size: 12px;" fill="#757575" dx="-10.109375px">150</text><text x="951.7222222222222" y="1154.5" style="cursor: default; user-select: none; -webkit-font-smoothing: antialiased; font-family: Roboto; font-size: 12px;" fill="#757575" dx="-10.109375px">200</text><text x="1052.2777777777778" y="1154.5" style="cursor: default; user-select: none; -webkit-font-smoothing: antialiased; font-family: Roboto; font-size: 12px;" fill="#757575" dx="-10.109375px">250</text><text x="1152.8333333333333" y="1154.5" style="cursor: default; user-select: none; -webkit-font-smoothing: antialiased; font-family: Roboto; font-size: 12px;" fill="#757575" dx="-10.109375px">300</text><text x="1253.388888888889" y="1154.5" style="cursor: default; user-select: none; -webkit-font-smoothing: antialiased; font-family: Roboto; font-size: 12px;" fill="#757575" dx="-10.109375px">350</text><text x="1353.9444444444443" y="1154.5" style="cursor: default; user-select: none; -webkit-font-smoothing: antialiased; font-family: Roboto; font-size: 12px;" fill="#757575" dx="-10.109375px">400</text><text x="1454.5" y="1154.5" style="cursor: default; user-select: none; -webkit-font-smoothing: antialiased; font-family: Roboto; font-size: 12px;" fill="#757575" dx="-10.109375px">450</text><text x="1555.0555555555557" y="1154.5" style="cursor: default; user-select: none; -webkit-font-smoothing: antialiased; font-family: Roboto; font-size: 12px;" fill="#757575" dx="-10.109375px">500</text><text x="1655.6111111111113" y="1154.5" style="cursor: default; user-select: none; -webkit-font-smoothing: antialiased; font-family: Roboto; font-size: 12px;" fill="#757575" dx="-10.109375px">550</text><text x="1756.1666666666665" y="1154.5" style="cursor: default; user-select: none; -webkit-font-smoothing: antialiased; font-family: Roboto; font-size: 12px;" fill="#757575" dx="-10.109375px">600</text><text x="1856.7222222222222" y="1154.5" style="cursor: default; user-select: none; -webkit-font-smoothing: antialiased; font-family: Roboto; font-size: 12px;" fill="#757575" dx="-10.109375px">650</text><text x="1957.2777777777778" y="1154.5" style="cursor: default; user-select: none; -webkit-font-smoothing: antialiased; font-family: Roboto; font-size: 12px;" fill="#757575" dx="-10.109375px">700</text><text x="2057.8333333333335" y="1154.5" style="cursor: default; user-select: none; -webkit-font-smoothing: antialiased; font-family: Roboto; font-size: 12px;" fill="#757575" dx="-10.109375px">750</text><text x="2158.3888888888887" y="1154.5" style="cursor: default; user-select: none; -webkit-font-smoothing: antialiased; font-family: Roboto; font-size: 12px;" fill="#757575" dx="-10.109375px">800</text><text x="2258.9444444444443" y="1154.5" style="cursor: default; user-select: none; -webkit-font-smoothing: antialiased; font-family: Roboto; font-size: 12px;" fill="#757575" dx="-10.109375px">850</text><text x="2359.5" y="1154.5" style="cursor: default; user-select: none; -webkit-font-smoothing: antialiased; font-family: Roboto; font-size: 12px;" fill="#757575" dx="-10.109375px">900</text><text x="1457.869140625" y="1186.5" style="cursor: default; user-select: none; -webkit-font-smoothing: antialiased; font-family: Roboto; font-size: 12px;" fill="#424242" dx="-33.625px">Render Time</text><text x="543.5" y="70.15084377364761" style="cursor: default; user-select: none; -webkit-font-smoothing: antialiased; font-family: Roboto; font-size: 12px;" fill="#757575" dx="-259.078125px">Intel_Sponza-PhysCamera001-raytracing-embree</text><text x="543.5" y="102.9226684219804" style="cursor: default; user-select: none; -webkit-font-smoothing: antialiased; font-family: Roboto; font-size: 12px;" fill="#757575" dx="-367.4375px">Intel_Sponza_Candles_Thin_Lens-PhysCamera002-raytracing-embree</text><text x="543.5" y="135.6944854409187" style="cursor: default; user-select: none; -webkit-font-smoothing: antialiased; font-family: Roboto; font-size: 12px;" fill="#757575" dx="-336.921875px">CameraTestGround-VariantCamera-raytracing-embree-thin_lens</text><text x="543.5" y="168.46631008925146" style="cursor: default; user-select: none; -webkit-font-smoothing: antialiased; font-family: Roboto; font-size: 12px;" fill="#757575" dx="-452.5px">CameraTestGround-VariantCamera-raytracing-embree-realistic_petzval_kodak_50mm</text><text x="543.5" y="201.23813473758435" style="cursor: default; user-select: none; -webkit-font-smoothing: antialiased; font-family: Roboto; font-size: 12px;" fill="#757575" dx="-456.921875px">CameraTestGround-VariantCamera-raytracing-embree-realistic_realistic_canon_60mm</text><text x="543.5" y="234.0099593859171" style="cursor: default; user-select: none; -webkit-font-smoothing: antialiased; font-family: Roboto; font-size: 12px;" fill="#757575" dx="-240.125px">DailyDweeb-CameraShape-raytracing-embree</text><text x="543.5" y="266.7817840342499" style="cursor: default; user-select: none; -webkit-font-smoothing: antialiased; font-family: Roboto; font-size: 12px;" fill="#757575" dx="-456.921875px">CameraTestGround-VariantCamera-raytracing-embree-realistic_realistic_canon_50mm</text><text x="543.5" y="299.55360868258276" style="cursor: default; user-select: none; -webkit-font-smoothing: antialiased; font-family: Roboto; font-size: 12px;" fill="#757575" dx="-287.40625px">StormTrooper-render_cam-ambient_occlusion-embree</text><text x="543.5" y="332.32543333091553" style="cursor: default; user-select: none; -webkit-font-smoothing: antialiased; font-family: Roboto; font-size: 12px;" fill="#757575" dx="-220.109375px">StormTrooper-render_cam-debug-embree</text><text x="543.5" y="365.0972579792483" style="cursor: default; user-select: none; -webkit-font-smoothing: antialiased; font-family: Roboto; font-size: 12px;" fill="#757575" dx="-239.671875px">StormTrooper-render_cam-raytracing-embree</text><text x="543.5" y="397.86905211000294" style="cursor: default; user-select: none; -webkit-font-smoothing: antialiased; font-family: Roboto; font-size: 12px;" fill="#757575" dx="-438.671875px">CameraTestGround-VariantCamera-raytracing-embree-realistic_canon_anamorphic</text><text x="543.5" y="430.6408767583357" style="cursor: default; user-select: none; -webkit-font-smoothing: antialiased; font-family: Roboto; font-size: 12px;" fill="#757575" dx="-223.484375px">CornellBox-render_cam-raytracing-embree</text><text x="543.5" y="463.4127014066685" style="cursor: default; user-select: none; -webkit-font-smoothing: antialiased; font-family: Roboto; font-size: 12px;" fill="#757575" dx="-463.390625px">CameraTestGround-VariantCamera-raytracing-embree-realistic_panavision_anamorphic</text><text x="543.5" y="496.18452605500136" style="cursor: default; user-select: none; -webkit-font-smoothing: antialiased; font-family: Roboto; font-size: 12px;" fill="#757575" dx="-257.390625px">EmperorCrown-CameraShape-raytracing-embree</text><text x="543.5" y="528.9563507033342" style="cursor: default; user-select: none; -webkit-font-smoothing: antialiased; font-family: Roboto; font-size: 12px;" fill="#757575" dx="-415.171875px">Intel_Sponza_Candles_Thin_Lens-PhysCamera002-ambient_occlusion-embree</text><text x="543.5" y="561.7282058692451" style="cursor: default; user-select: none; -webkit-font-smoothing: antialiased; font-family: Roboto; font-size: 12px;" fill="#757575" dx="-305.140625px">EmperorCrown-CameraShape-ambient_occlusion-embree</text><text x="543.5" y="594.4999999999998" style="cursor: default; user-select: none; -webkit-font-smoothing: antialiased; font-family: Roboto; font-size: 12px;" fill="#757575" dx="-237.84375px">EmperorCrown-CameraShape-debug-embree</text><text x="543.5" y="627.2717941307546" style="cursor: default; user-select: none; -webkit-font-smoothing: antialiased; font-family: Roboto; font-size: 12px;" fill="#757575" dx="-475.109375px">CameraTestGround-VariantCamera-raytracing-embree-realistic_canon_70_200mm_70mm</text><text x="543.5" y="660.0436492966653" style="cursor: default; user-select: none; -webkit-font-smoothing: antialiased; font-family: Roboto; font-size: 12px;" fill="#757575" dx="-307.453125px">HsdLogo-render_cam_1Shape-ambient_occlusion-embree</text><text x="543.5" y="692.8154434274202" style="cursor: default; user-select: none; -webkit-font-smoothing: antialiased; font-family: Roboto; font-size: 12px;" fill="#757575" dx="-220.5625px">DailyDweeb-CameraShape-debug-embree</text><text x="543.5" y="725.5872985933308" style="cursor: default; user-select: none; -webkit-font-smoothing: antialiased; font-family: Roboto; font-size: 12px;" fill="#757575" dx="-282.125px">Blenderman-Camera_001-ambient_occlusion-embree</text><text x="543.5" y="758.3590927240857" style="cursor: default; user-select: none; -webkit-font-smoothing: antialiased; font-family: Roboto; font-size: 12px;" fill="#757575" dx="-381.578125px">Intel_mooreLane-MASTER_cameraExtended-ambient_occlusion-embree</text><text x="543.5" y="791.1309478899964" style="cursor: default; user-select: none; -webkit-font-smoothing: antialiased; font-family: Roboto; font-size: 12px;" fill="#757575" dx="-271.21875px">CornellBox-render_cam-ambient_occlusion-embree</text><text x="543.5" y="823.9027420207512" style="cursor: default; user-select: none; -webkit-font-smoothing: antialiased; font-family: Roboto; font-size: 12px;" fill="#757575" dx="-306.8125px">Intel_Sponza-PhysCamera001-ambient_occlusion-embree</text><text x="543.5" y="856.6745971866624" style="cursor: default; user-select: none; -webkit-font-smoothing: antialiased; font-family: Roboto; font-size: 12px;" fill="#757575" dx="-259.71875px">HsdLogo-render_cam_1Shape-raytracing-embree</text><text x="543.5" y="889.4463913174168" style="cursor: default; user-select: none; -webkit-font-smoothing: antialiased; font-family: Roboto; font-size: 12px;" fill="#757575" dx="-337.578125px">OpenChessSet-render_cam_7Shape-ambient_occlusion-embree</text><text x="543.5" y="922.2182464833279" style="cursor: default; user-select: none; -webkit-font-smoothing: antialiased; font-family: Roboto; font-size: 12px;" fill="#757575" dx="-214.828125px">Blenderman-Camera_001-debug-embree</text><text x="543.5" y="954.9900406140823" style="cursor: default; user-select: none; -webkit-font-smoothing: antialiased; font-family: Roboto; font-size: 12px;" fill="#757575" dx="-445.9375px">CameraTestGround-VariantCamera-raytracing-embree-realistic_navarro_anamorphic</text><text x="543.5" y="987.7618957799934" style="cursor: default; user-select: none; -webkit-font-smoothing: antialiased; font-family: Roboto; font-size: 12px;" fill="#757575" dx="-289.828125px">OpenChessSet-render_cam_7Shape-raytracing-embree</text><text x="543.5" y="1020.5336899107481" style="cursor: default; user-select: none; -webkit-font-smoothing: antialiased; font-family: Roboto; font-size: 12px;" fill="#757575" dx="-287.859375px">DailyDweeb-CameraShape-ambient_occlusion-embree</text><text x="543.5" y="1053.3054840415025" style="cursor: default; user-select: none; -webkit-font-smoothing: antialiased; font-family: Roboto; font-size: 12px;" fill="#757575" dx="-457.9375px">CameraTestGround-VariantCamera-raytracing-embree-realistic_schneider_anamorphic</text><text x="543.5" y="1086.0772781722576" style="cursor: default; user-select: none; -webkit-font-smoothing: antialiased; font-family: Roboto; font-size: 12px;" fill="#757575" dx="-461.75px">CameraTestGround-VariantCamera-raytracing-embree-realistic_brendel_tessar_100mm</text><text x="543.5" y="1118.8491943733247" style="cursor: default; user-select: none; -webkit-font-smoothing: antialiased; font-family: Roboto; font-size: 12px;" fill="#757575" dx="-510.65625px">CameraTestGround-VariantCamera-raytracing-embree-realistic_double_gauss_angenieux_50mm</text><text x="14.84375" y="587.5" style="cursor: default; user-select: none; -webkit-font-smoothing: antialiased; font-family: Roboto; font-size: 12px;" fill="#424242" dx="-16.375px" transform="rotate(-90 14.84375 590.5)">Scene</text></g><g></g><g></g><g></g></svg>