<svg width="2510" height="1190" xmlns="http://www.w3.org/2000/svg"><defs><clipPath id="rablfilter14"><rect x="549.5" y="55.5" width="1808" height="1082"></rect></clipPath></defs><g><rect x="0" y="0" width="2510" height="1190" fill="#ffffff" fill-opacity="1" stroke="#ffffff" stroke-opacity="0" stroke-width="0"></rect><text x="0" y="15" style="cursor: default; user-select: none; -webkit-font-smoothing: antialiased; font-family: Roboto; font-size: 16px;" fill="#757575" dx="0px">Relative Timing</text><rect x="2409.9013671875" y="55.5" width="12" height="12" rx="2" ry="2" fill="#4285f4"></rect><text x="2429.9013671875" y="68.5" style="cursor: default; user-select: none; -webkit-font-smoothing: antialiased; font-family: Roboto;" fill="#757575" dx="0px">Baseline</text><rect x="2409.9013671875" y="88.5" width="12" height="12" rx="2" ry="2" fill="#db4437"></rect><text x="2429.9013671875" y="101.5" style="cursor: default; user-select: none; -webkit-font-smoothing: antialiased; font-family: Roboto;" fill="#757575" dx="0px">New revision</text><rect x="549.5" y="55.5" width="1808" height="1082" fill="#ffffff" fill-opacity="1" stroke="#ffffff" stroke-opacity="0" stroke-width="1"></rect></g><g><line x1="549.5" x2="549.5" y1="55.5" y2="1137.5" stroke="#9E9E9E" stroke-width="1"></line><line x1="713.8636363636364" x2="713.8636363636364" y1="55.5" y2="1137.5" stroke="#E0E0E0" stroke-width="1"></line><line x1="878.2272727272727" x2="878.2272727272727" y1="55.5" y2="1137.5" stroke="#E0E0E0" stroke-width="1"></line><line x1="1042.5909090909092" x2="1042.5909090909092" y1="55.5" y2="1137.5" stroke="#E0E0E0" stroke-width="1"></line><line x1="1206.9545454545455" x2="1206.9545454545455" y1="55.5" y2="1137.5" stroke="#E0E0E0" stroke-width="1"></line><line x1="1371.3181818181818" x2="1371.3181818181818" y1="55.5" y2="1137.5" stroke="#E0E0E0" stroke-width="1"></line><line x1="1535.6818181818185" x2="1535.6818181818185" y1="55.5" y2="1137.5" stroke="#E0E0E0" stroke-width="1"></line><line x1="1700.0454545454545" x2="1700.0454545454545" y1="55.5" y2="1137.5" stroke="#E0E0E0" stroke-width="1"></line><line x1="1864.409090909091" x2="1864.409090909091" y1="55.5" y2="1137.5" stroke="#E0E0E0" stroke-width="1"></line><line x1="2028.7727272727273" x2="2028.7727272727273" y1="55.5" y2="1137.5" stroke="#E0E0E0" stroke-width="1"></line><line x1="2193.1363636363635" x2="2193.1363636363635" y1="55.5" y2="1137.5" stroke="#E0E0E0" stroke-width="1"></line><line x1="2357.5" x2="2357.5" y1="55.5" y2="1137.5" stroke="#E0E0E0" stroke-width="1"></line></g><g><path d="M 2190.6363636363635 56 A 2 2 0 0 1 2192.6363636363635 58 L 2192.6363636363635 63.650842266462476 A 2 2 0 0 1 2190.6363636363635 65.65084226646248 L 550 65.65084226646248 A 0 0 0 0 1 550 65.65084226646248 L 550 56 A 0 0 0 0 1 550 56 Z" fill="#4285f4" clip-path="url(#rablfilter14)"></path><path d="M 1975.9841203949711 66.65084226646248 A 2 2 0 0 1 1977.9841203949711 68.65084226646248 L 1977.9841203949711 74.30168453292495 A 2 2 0 0 1 1975.9841203949711 76.30168453292495 L 550 76.30168453292495 A 0 0 0 0 1 550 76.30168453292495 L 550 66.65084226646248 A 0 0 0 0 1 550 66.65084226646248 Z" fill="#db4437" clip-path="url(#rablfilter14)"></path><path d="M 2190.6363636363635 88.77182235834609 A 2 2 0 0 1 2192.6363636363635 90.77182235834609 L 2192.6363636363635 96.42266462480856 A 2 2 0 0 1 2190.6363636363635 98.42266462480856 L 550 98.42266462480856 A 0 0 0 0 1 550 98.42266462480856 L 550 88.77182235834609 A 0 0 0 0 1 550 88.77182235834609 Z" fill="#4285f4" clip-path="url(#rablfilter14)"></path><path d="M 1976.3082547833826 99.42266462480856 A 2 2 0 0 1 1978.3082547833826 101.42266462480856 L 1978.3082547833826 107.07350689127105 A 2 2 0 0 1 1976.3082547833826 109.07350689127105 L 550 109.07350689127105 A 0 0 0 0 1 550 109.07350689127105 L 550 99.42266462480856 A 0 0 0 0 1 550 99.42266462480856 Z" fill="#db4437" clip-path="url(#rablfilter14)"></path><path d="M 2190.6363636363635 121.54364471669217 A 2 2 0 0 1 2192.6363636363635 123.54364471669217 L 2192.6363636363635 129.19448698315466 A 2 2 0 0 1 2190.6363636363635 131.19448698315466 L 550 131.19448698315466 A 0 0 0 0 1 550 131.19448698315466 L 550 121.54364471669217 A 0 0 0 0 1 550 121.54364471669217 Z" fill="#4285f4" clip-path="url(#rablfilter14)"></path><path d="M 2027.0119746026685 132.19448698315466 A 2 2 0 0 1 2029.0119746026685 134.19448698315466 L 2029.0119746026685 139.84532924961715 A 2 2 0 0 1 2027.0119746026685 141.84532924961715 L 550 141.84532924961715 A 0 0 0 0 1 550 141.84532924961715 L 550 132.19448698315466 A 0 0 0 0 1 550 132.19448698315466 Z" fill="#db4437" clip-path="url(#rablfilter14)"></path><path d="M 2190.6363636363635 154.31546707503827 A 2 2 0 0 1 2192.6363636363635 156.31546707503827 L 2192.6363636363635 161.96630934150073 A 2 2 0 0 1 2190.6363636363635 163.96630934150073 L 550 163.96630934150073 A 0 0 0 0 1 550 163.96630934150073 L 550 154.31546707503827 A 0 0 0 0 1 550 154.31546707503827 Z" fill="#4285f4" clip-path="url(#rablfilter14)"></path><path d="M 2056.5238169040786 164.96630934150073 A 2 2 0 0 1 2058.5238169040786 166.96630934150073 L 2058.5238169040786 172.61715160796325 A 2 2 0 0 1 2056.5238169040786 174.61715160796325 L 550 174.61715160796325 A 0 0 0 0 1 550 174.61715160796325 L 550 164.96630934150073 A 0 0 0 0 1 550 164.96630934150073 Z" fill="#db4437" clip-path="url(#rablfilter14)"></path><path d="M 2190.6363636363635 187.08728943338434 A 2 2 0 0 1 2192.6363636363635 189.08728943338434 L 2192.6363636363635 194.73813169984686 A 2 2 0 0 1 2190.6363636363635 196.73813169984686 L 550 196.73813169984686 A 0 0 0 0 1 550 196.73813169984686 L 550 187.08728943338434 A 0 0 0 0 1 550 187.08728943338434 Z" fill="#4285f4" clip-path="url(#rablfilter14)"></path><path d="M 2073.161340135302 197.73813169984686 A 2 2 0 0 1 2075.161340135302 199.73813169984686 L 2075.161340135302 205.38897396630932 A 2 2 0 0 1 2073.161340135302 207.38897396630932 L 550 207.38897396630932 A 0 0 0 0 1 550 207.38897396630932 L 550 197.73813169984686 A 0 0 0 0 1 550 197.73813169984686 Z" fill="#db4437" clip-path="url(#rablfilter14)"></path><path d="M 2190.6363636363635 219.85911179173044 A 2 2 0 0 1 2192.6363636363635 221.85911179173044 L 2192.6363636363635 227.50995405819293 A 2 2 0 0 1 2190.6363636363635 229.50995405819293 L 550 229.50995405819293 A 0 0 0 0 1 550 229.50995405819293 L 550 219.85911179173044 A 0 0 0 0 1 550 219.85911179173044 Z" fill="#4285f4" clip-path="url(#rablfilter14)"></path><path d="M 2090.8264003398135 230.50995405819293 A 2 2 0 0 1 2092.8264003398135 232.50995405819293 L 2092.8264003398135 238.16079632465542 A 2 2 0 0 1 2090.8264003398135 240.16079632465542 L 550 240.16079632465542 A 0 0 0 0 1 550 240.16079632465542 L 550 230.50995405819293 A 0 0 0 0 1 550 230.50995405819293 Z" fill="#db4437" clip-path="url(#rablfilter14)"></path><path d="M 2190.6363636363635 252.63093415007654 A 2 2 0 0 1 2192.6363636363635 254.63093415007654 L 2192.6363636363635 260.281776416539 A 2 2 0 0 1 2190.6363636363635 262.281776416539 L 550 262.281776416539 A 0 0 0 0 1 550 262.281776416539 L 550 252.63093415007654 A 0 0 0 0 1 550 252.63093415007654 Z" fill="#4285f4" clip-path="url(#rablfilter14)"></path><path d="M 2114.667534876605 263.281776416539 A 2 2 0 0 1 2116.667534876605 265.281776416539 L 2116.667534876605 270.93261868300146 A 2 2 0 0 1 2114.667534876605 272.93261868300146 L 550 272.93261868300146 A 0 0 0 0 1 550 272.93261868300146 L 550 263.281776416539 A 0 0 0 0 1 550 263.281776416539 Z" fill="#db4437" clip-path="url(#rablfilter14)"></path><path d="M 2190.6363636363635 285.4027565084226 A 2 2 0 0 1 2192.6363636363635 287.4027565084226 L 2192.6363636363635 293.05359877488513 A 2 2 0 0 1 2190.6363636363635 295.05359877488513 L 550 295.05359877488513 A 0 0 0 0 1 550 295.05359877488513 L 550 285.4027565084226 A 0 0 0 0 1 550 285.4027565084226 Z" fill="#4285f4" clip-path="url(#rablfilter14)"></path><path d="M 2115.7742672027725 296.05359877488513 A 2 2 0 0 1 2117.7742672027725 298.05359877488513 L 2117.7742672027725 303.7044410413476 A 2 2 0 0 1 2115.7742672027725 305.7044410413476 L 550 305.7044410413476 A 0 0 0 0 1 550 305.7044410413476 L 550 296.05359877488513 A 0 0 0 0 1 550 296.05359877488513 Z" fill="#db4437" clip-path="url(#rablfilter14)"></path><path d="M 2190.6363636363635 318.1745788667687 A 2 2 0 0 1 2192.6363636363635 320.1745788667687 L 2192.6363636363635 325.8254211332312 A 2 2 0 0 1 2190.6363636363635 327.8254211332312 L 550 327.8254211332312 A 0 0 0 0 1 550 327.8254211332312 L 550 318.1745788667687 A 0 0 0 0 1 550 318.1745788667687 Z" fill="#4285f4" clip-path="url(#rablfilter14)"></path><path d="M 2123.6095747975696 328.8254211332312 A 2 2 0 0 1 2125.6095747975696 330.8254211332312 L 2125.6095747975696 336.47626339969366 A 2 2 0 0 1 2123.6095747975696 338.47626339969366 L 550 338.47626339969366 A 0 0 0 0 1 550 338.47626339969366 L 550 328.8254211332312 A 0 0 0 0 1 550 328.8254211332312 Z" fill="#db4437" clip-path="url(#rablfilter14)"></path><path d="M 2190.6363636363635 350.9464012251148 A 2 2 0 0 1 2192.6363636363635 352.9464012251148 L 2192.6363636363635 358.5972434915773 A 2 2 0 0 1 2190.6363636363635 360.5972434915773 L 550 360.5972434915773 A 0 0 0 0 1 550 360.5972434915773 L 550 350.9464012251148 A 0 0 0 0 1 550 350.9464012251148 Z" fill="#4285f4" clip-path="url(#rablfilter14)"></path><path d="M 2135.2506234798134 361.5972434915773 A 2 2 0 0 1 2137.2506234798134 363.5972434915773 L 2137.2506234798134 369.24808575803974 A 2 2 0 0 1 2135.2506234798134 371.24808575803974 L 550 371.24808575803974 A 0 0 0 0 1 550 371.24808575803974 L 550 361.5972434915773 A 0 0 0 0 1 550 361.5972434915773 Z" fill="#db4437" clip-path="url(#rablfilter14)"></path><path d="M 2190.6363636363635 383.7182235834609 A 2 2 0 0 1 2192.6363636363635 385.7182235834609 L 2192.6363636363635 391.36906584992335 A 2 2 0 0 1 2190.6363636363635 393.36906584992335 L 550 393.36906584992335 A 0 0 0 0 1 550 393.36906584992335 L 550 383.7182235834609 A 0 0 0 0 1 550 383.7182235834609 Z" fill="#4285f4" clip-path="url(#rablfilter14)"></path><path d="M 2148.849684224533 394.36906584992335 A 2 2 0 0 1 2150.849684224533 396.36906584992335 L 2150.849684224533 402.0199081163858 A 2 2 0 0 1 2148.849684224533 404.0199081163858 L 550 404.0199081163858 A 0 0 0 0 1 550 404.0199081163858 L 550 394.36906584992335 A 0 0 0 0 1 550 394.36906584992335 Z" fill="#db4437" clip-path="url(#rablfilter14)"></path><path d="M 2190.6363636363635 416.490045941807 A 2 2 0 0 1 2192.6363636363635 418.490045941807 L 2192.6363636363635 424.1408882082694 A 2 2 0 0 1 2190.6363636363635 426.1408882082694 L 550 426.1408882082694 A 0 0 0 0 1 550 426.1408882082694 L 550 416.490045941807 A 0 0 0 0 1 550 416.490045941807 Z" fill="#4285f4" clip-path="url(#rablfilter14)"></path><path d="M 2154.0255424356983 427.1408882082694 A 2 2 0 0 1 2156.0255424356983 429.1408882082694 L 2156.0255424356983 434.7917304747319 A 2 2 0 0 1 2154.0255424356983 436.7917304747319 L 550 436.7917304747319 A 0 0 0 0 1 550 436.7917304747319 L 550 427.1408882082694 A 0 0 0 0 1 550 427.1408882082694 Z" fill="#db4437" clip-path="url(#rablfilter14)"></path><path d="M 2190.6363636363635 449.2618683001531 A 2 2 0 0 1 2192.6363636363635 451.2618683001531 L 2192.6363636363635 456.9127105666155 A 2 2 0 0 1 2190.6363636363635 458.9127105666155 L 550 458.9127105666155 A 0 0 0 0 1 550 458.9127105666155 L 550 449.2618683001531 A 0 0 0 0 1 550 449.2618683001531 Z" fill="#4285f4" clip-path="url(#rablfilter14)"></path><path d="M 2155.122942200759 459.9127105666155 A 2 2 0 0 1 2157.122942200759 461.9127105666155 L 2157.122942200759 467.56355283307795 A 2 2 0 0 1 2155.122942200759 469.56355283307795 L 550 469.56355283307795 A 0 0 0 0 1 550 469.56355283307795 L 550 459.9127105666155 A 0 0 0 0 1 550 459.9127105666155 Z" fill="#db4437" clip-path="url(#rablfilter14)"></path><path d="M 2190.6363636363635 482.03369065849915 A 2 2 0 0 1 2192.6363636363635 484.03369065849915 L 2192.6363636363635 489.6845329249616 A 2 2 0 0 1 2190.6363636363635 491.6845329249616 L 550 491.6845329249616 A 0 0 0 0 1 550 491.6845329249616 L 550 482.03369065849915 A 0 0 0 0 1 550 482.03369065849915 Z" fill="#4285f4" clip-path="url(#rablfilter14)"></path><path d="M 2158.120488231929 492.6845329249616 A 2 2 0 0 1 2160.120488231929 494.6845329249616 L 2160.120488231929 500.3353751914241 A 2 2 0 0 1 2158.120488231929 502.3353751914241 L 550 502.3353751914241 A 0 0 0 0 1 550 502.3353751914241 L 550 492.6845329249616 A 0 0 0 0 1 550 492.6845329249616 Z" fill="#db4437" clip-path="url(#rablfilter14)"></path><path d="M 2190.6363636363635 514.8055130168452 A 2 2 0 0 1 2192.6363636363635 516.8055130168452 L 2192.6363636363635 522.4563552833077 A 2 2 0 0 1 2190.6363636363635 524.4563552833077 L 550 524.4563552833077 A 0 0 0 0 1 550 524.4563552833077 L 550 514.8055130168452 A 0 0 0 0 1 550 514.8055130168452 Z" fill="#4285f4" clip-path="url(#rablfilter14)"></path><path d="M 2166.307049951868 525.4563552833077 A 2 2 0 0 1 2168.307049951868 527.4563552833077 L 2168.307049951868 533.1071975497701 A 2 2 0 0 1 2166.307049951868 535.1071975497701 L 550 535.1071975497701 A 0 0 0 0 1 550 535.1071975497701 L 550 525.4563552833077 A 0 0 0 0 1 550 525.4563552833077 Z" fill="#db4437" clip-path="url(#rablfilter14)"></path><path d="M 2190.6363636363635 547.5773353751913 A 2 2 0 0 1 2192.6363636363635 549.5773353751913 L 2192.6363636363635 555.2281776416538 A 2 2 0 0 1 2190.6363636363635 557.2281776416538 L 550 557.2281776416538 A 0 0 0 0 1 550 557.2281776416538 L 550 547.5773353751913 A 0 0 0 0 1 550 547.5773353751913 Z" fill="#4285f4" clip-path="url(#rablfilter14)"></path><path d="M 2170.29401334633 558.2281776416538 A 2 2 0 0 1 2172.29401334633 560.2281776416538 L 2172.29401334633 565.8790199081162 A 2 2 0 0 1 2170.29401334633 567.8790199081162 L 550 567.8790199081162 A 0 0 0 0 1 550 567.8790199081162 L 550 558.2281776416538 A 0 0 0 0 1 550 558.2281776416538 Z" fill="#db4437" clip-path="url(#rablfilter14)"></path><path d="M 2190.6363636363635 580.3491577335374 A 2 2 0 0 1 2192.6363636363635 582.3491577335374 L 2192.6363636363635 587.9999999999999 A 2 2 0 0 1 2190.6363636363635 589.9999999999999 L 550 589.9999999999999 A 0 0 0 0 1 550 589.9999999999999 L 550 580.3491577335374 A 0 0 0 0 1 550 580.3491577335374 Z" fill="#4285f4" clip-path="url(#rablfilter14)"></path><path d="M 2173.242284206842 590.9999999999999 A 2 2 0 0 1 2175.242284206842 592.9999999999999 L 2175.242284206842 598.6508422664624 A 2 2 0 0 1 2173.242284206842 600.6508422664624 L 550 600.6508422664624 A 0 0 0 0 1 550 600.6508422664624 L 550 590.9999999999999 A 0 0 0 0 1 550 590.9999999999999 Z" fill="#db4437" clip-path="url(#rablfilter14)"></path><path d="M 2190.6363636363635 613.1209800918836 A 2 2 0 0 1 2192.6363636363635 615.1209800918836 L 2192.6363636363635 620.7718223583461 A 2 2 0 0 1 2190.6363636363635 622.7718223583461 L 550 622.7718223583461 A 0 0 0 0 1 550 622.7718223583461 L 550 613.1209800918836 A 0 0 0 0 1 550 613.1209800918836 Z" fill="#4285f4" clip-path="url(#rablfilter14)"></path><path d="M 2175.1879318379715 623.7718223583461 A 2 2 0 0 1 2177.1879318379715 625.7718223583461 L 2177.1879318379715 631.4226646248084 A 2 2 0 0 1 2175.1879318379715 633.4226646248084 L 550 633.4226646248084 A 0 0 0 0 1 550 633.4226646248084 L 550 623.7718223583461 A 0 0 0 0 1 550 623.7718223583461 Z" fill="#db4437" clip-path="url(#rablfilter14)"></path><path d="M 2190.6363636363635 645.8928024502296 A 2 2 0 0 1 2192.6363636363635 647.8928024502296 L 2192.6363636363635 653.543644716692 A 2 2 0 0 1 2190.6363636363635 655.543644716692 L 550 655.543644716692 A 0 0 0 0 1 550 655.543644716692 L 550 645.8928024502296 A 0 0 0 0 1 550 645.8928024502296 Z" fill="#4285f4" clip-path="url(#rablfilter14)"></path><path d="M 2177.043437703065 656.543644716692 A 2 2 0 0 1 2179.043437703065 658.543644716692 L 2179.043437703065 664.1944869831545 A 2 2 0 0 1 2177.043437703065 666.1944869831545 L 550 666.1944869831545 A 0 0 0 0 1 550 666.1944869831545 L 550 656.543644716692 A 0 0 0 0 1 550 656.543644716692 Z" fill="#db4437" clip-path="url(#rablfilter14)"></path><path d="M 2190.6363636363635 678.6646248085757 A 2 2 0 0 1 2192.6363636363635 680.6646248085757 L 2192.6363636363635 686.3154670750382 A 2 2 0 0 1 2190.6363636363635 688.3154670750382 L 550 688.3154670750382 A 0 0 0 0 1 550 688.3154670750382 L 550 678.6646248085757 A 0 0 0 0 1 550 678.6646248085757 Z" fill="#4285f4" clip-path="url(#rablfilter14)"></path><path d="M 2180.3094360237665 689.3154670750382 A 2 2 0 0 1 2182.3094360237665 691.3154670750382 L 2182.3094360237665 696.9663093415006 A 2 2 0 0 1 2180.3094360237665 698.9663093415006 L 550 698.9663093415006 A 0 0 0 0 1 550 698.9663093415006 L 550 689.3154670750382 A 0 0 0 0 1 550 689.3154670750382 Z" fill="#db4437" clip-path="url(#rablfilter14)"></path><path d="M 2190.6363636363635 711.4364471669218 A 2 2 0 0 1 2192.6363636363635 713.4364471669218 L 2192.6363636363635 719.0872894333842 A 2 2 0 0 1 2190.6363636363635 721.0872894333842 L 550 721.0872894333842 A 0 0 0 0 1 550 721.0872894333842 L 550 711.4364471669218 A 0 0 0 0 1 550 711.4364471669218 Z" fill="#4285f4" clip-path="url(#rablfilter14)"></path><path d="M 2181.7754947406556 722.0872894333842 A 2 2 0 0 1 2183.7754947406556 724.0872894333842 L 2183.7754947406556 729.7381316998467 A 2 2 0 0 1 2181.7754947406556 731.7381316998467 L 550 731.7381316998467 A 0 0 0 0 1 550 731.7381316998467 L 550 722.0872894333842 A 0 0 0 0 1 550 722.0872894333842 Z" fill="#db4437" clip-path="url(#rablfilter14)"></path><path d="M 2190.6363636363635 744.2082695252678 A 2 2 0 0 1 2192.6363636363635 746.2082695252678 L 2192.6363636363635 751.8591117917304 A 2 2 0 0 1 2190.6363636363635 753.8591117917304 L 550 753.8591117917304 A 0 0 0 0 1 550 753.8591117917304 L 550 744.2082695252678 A 0 0 0 0 1 550 744.2082695252678 Z" fill="#4285f4" clip-path="url(#rablfilter14)"></path><path d="M 2186.626108357121 754.8591117917304 A 2 2 0 0 1 2188.626108357121 756.8591117917304 L 2188.626108357121 762.5099540581928 A 2 2 0 0 1 2186.626108357121 764.5099540581928 L 550 764.5099540581928 A 0 0 0 0 1 550 764.5099540581928 L 550 754.8591117917304 A 0 0 0 0 1 550 754.8591117917304 Z" fill="#db4437" clip-path="url(#rablfilter14)"></path><path d="M 2190.6363636363635 776.980091883614 A 2 2 0 0 1 2192.6363636363635 778.980091883614 L 2192.6363636363635 784.6309341500763 A 2 2 0 0 1 2190.6363636363635 786.6309341500763 L 550 786.6309341500763 A 0 0 0 0 1 550 786.6309341500763 L 550 776.980091883614 A 0 0 0 0 1 550 776.980091883614 Z" fill="#4285f4" clip-path="url(#rablfilter14)"></path><path d="M 2188.0501557471816 787.6309341500763 A 2 2 0 0 1 2190.0501557471816 789.6309341500763 L 2190.0501557471816 795.2817764165388 A 2 2 0 0 1 2188.0501557471816 797.2817764165388 L 550 797.2817764165388 A 0 0 0 0 1 550 797.2817764165388 L 550 787.6309341500763 A 0 0 0 0 1 550 787.6309341500763 Z" fill="#db4437" clip-path="url(#rablfilter14)"></path><path d="M 2190.6363636363635 809.75191424196 A 2 2 0 0 1 2192.6363636363635 811.75191424196 L 2192.6363636363635 817.4027565084225 A 2 2 0 0 1 2190.6363636363635 819.4027565084225 L 550 819.4027565084225 A 0 0 0 0 1 550 819.4027565084225 L 550 809.75191424196 A 0 0 0 0 1 550 809.75191424196 Z" fill="#4285f4" clip-path="url(#rablfilter14)"></path><path d="M 2189.5313087575705 820.4027565084225 A 2 2 0 0 1 2191.5313087575705 822.4027565084225 L 2191.5313087575705 828.053598774885 A 2 2 0 0 1 2189.5313087575705 830.053598774885 L 550 830.053598774885 A 0 0 0 0 1 550 830.053598774885 L 550 820.4027565084225 A 0 0 0 0 1 550 820.4027565084225 Z" fill="#db4437" clip-path="url(#rablfilter14)"></path><path d="M 2190.6363636363635 842.5237366003062 A 2 2 0 0 1 2192.6363636363635 844.5237366003062 L 2192.6363636363635 850.1745788667687 A 2 2 0 0 1 2190.6363636363635 852.1745788667687 L 550 852.1745788667687 A 0 0 0 0 1 550 852.1745788667687 L 550 842.5237366003062 A 0 0 0 0 1 550 842.5237366003062 Z" fill="#4285f4" clip-path="url(#rablfilter14)"></path><path d="M 2191.42334606073 853.1745788667687 A 2 2 0 0 1 2193.42334606073 855.1745788667687 L 2193.42334606073 860.825421133231 A 2 2 0 0 1 2191.42334606073 862.825421133231 L 550 862.825421133231 A 0 0 0 0 1 550 862.825421133231 L 550 853.1745788667687 A 0 0 0 0 1 550 853.1745788667687 Z" fill="#db4437" clip-path="url(#rablfilter14)"></path><path d="M 2190.6363636363635 875.2955589586522 A 2 2 0 0 1 2192.6363636363635 877.2955589586522 L 2192.6363636363635 882.9464012251146 A 2 2 0 0 1 2190.6363636363635 884.9464012251146 L 550 884.9464012251146 A 0 0 0 0 1 550 884.9464012251146 L 550 875.2955589586522 A 0 0 0 0 1 550 875.2955589586522 Z" fill="#4285f4" clip-path="url(#rablfilter14)"></path><path d="M 2191.6582868303467 885.9464012251146 A 2 2 0 0 1 2193.6582868303467 887.9464012251146 L 2193.6582868303467 893.5972434915772 A 2 2 0 0 1 2191.6582868303467 895.5972434915772 L 550 895.5972434915772 A 0 0 0 0 1 550 895.5972434915772 L 550 885.9464012251146 A 0 0 0 0 1 550 885.9464012251146 Z" fill="#db4437" clip-path="url(#rablfilter14)"></path><path d="M 2190.6363636363635 908.0673813169983 A 2 2 0 0 1 2192.6363636363635 910.0673813169983 L 2192.6363636363635 915.7182235834608 A 2 2 0 0 1 2190.6363636363635 917.7182235834608 L 550 917.7182235834608 A 0 0 0 0 1 550 917.7182235834608 L 550 908.0673813169983 A 0 0 0 0 1 550 908.0673813169983 Z" fill="#4285f4" clip-path="url(#rablfilter14)"></path><path d="M 2194.032874487578 918.7182235834608 A 2 2 0 0 1 2196.032874487578 920.7182235834608 L 2196.032874487578 926.3690658499232 A 2 2 0 0 1 2194.032874487578 928.3690658499232 L 550 928.3690658499232 A 0 0 0 0 1 550 928.3690658499232 L 550 918.7182235834608 A 0 0 0 0 1 550 918.7182235834608 Z" fill="#db4437" clip-path="url(#rablfilter14)"></path><path d="M 2190.6363636363635 940.8392036753444 A 2 2 0 0 1 2192.6363636363635 942.8392036753444 L 2192.6363636363635 948.4900459418068 A 2 2 0 0 1 2190.6363636363635 950.4900459418068 L 550 950.4900459418068 A 0 0 0 0 1 550 950.4900459418068 L 550 940.8392036753444 A 0 0 0 0 1 550 940.8392036753444 Z" fill="#4285f4" clip-path="url(#rablfilter14)"></path><path d="M 2200.6226620214807 951.4900459418068 A 2 2 0 0 1 2202.6226620214807 953.4900459418068 L 2202.6226620214807 959.1408882082693 A 2 2 0 0 1 2200.6226620214807 961.1408882082693 L 550 961.1408882082693 A 0 0 0 0 1 550 961.1408882082693 L 550 951.4900459418068 A 0 0 0 0 1 550 951.4900459418068 Z" fill="#db4437" clip-path="url(#rablfilter14)"></path><path d="M 2190.6363636363635 973.6110260336905 A 2 2 0 0 1 2192.6363636363635 975.6110260336905 L 2192.6363636363635 981.261868300153 A 2 2 0 0 1 2190.6363636363635 983.261868300153 L 550 983.261868300153 A 0 0 0 0 1 550 983.261868300153 L 550 973.6110260336905 A 0 0 0 0 1 550 973.6110260336905 Z" fill="#4285f4" clip-path="url(#rablfilter14)"></path><path d="M 2201.228235732512 984.261868300153 A 2 2 0 0 1 2203.228235732512 986.261868300153 L 2203.228235732512 991.9127105666155 A 2 2 0 0 1 2201.228235732512 993.9127105666155 L 550 993.9127105666155 A 0 0 0 0 1 550 993.9127105666155 L 550 984.261868300153 A 0 0 0 0 1 550 984.261868300153 Z" fill="#db4437" clip-path="url(#rablfilter14)"></path><path d="M 2190.6363636363635 1006.3828483920366 A 2 2 0 0 1 2192.6363636363635 1008.3828483920366 L 2192.6363636363635 1014.033690658499 A 2 2 0 0 1 2190.6363636363635 1016.033690658499 L 550 1016.033690658499 A 0 0 0 0 1 550 1016.033690658499 L 550 1006.3828483920366 A 0 0 0 0 1 550 1006.3828483920366 Z" fill="#4285f4" clip-path="url(#rablfilter14)"></path><path d="M 2209.945691862685 1017.033690658499 A 2 2 0 0 1 2211.945691862685 1019.033690658499 L 2211.945691862685 1024.6845329249613 A 2 2 0 0 1 2209.945691862685 1026.6845329249613 L 550 1026.6845329249613 A 0 0 0 0 1 550 1026.6845329249613 L 550 1017.033690658499 A 0 0 0 0 1 550 1017.033690658499 Z" fill="#db4437" clip-path="url(#rablfilter14)"></path><path d="M 2190.6363636363635 1039.1546707503826 A 2 2 0 0 1 2192.6363636363635 1041.1546707503826 L 2192.6363636363635 1046.805513016845 A 2 2 0 0 1 2190.6363636363635 1048.805513016845 L 550 1048.805513016845 A 0 0 0 0 1 550 1048.805513016845 L 550 1039.1546707503826 A 0 0 0 0 1 550 1039.1546707503826 Z" fill="#4285f4" clip-path="url(#rablfilter14)"></path><path d="M 2219.311806820883 1049.805513016845 A 2 2 0 0 1 2221.311806820883 1051.805513016845 L 2221.311806820883 1057.4563552833076 A 2 2 0 0 1 2219.311806820883 1059.4563552833076 L 550 1059.4563552833076 A 0 0 0 0 1 550 1059.4563552833076 L 550 1049.805513016845 A 0 0 0 0 1 550 1049.805513016845 Z" fill="#db4437" clip-path="url(#rablfilter14)"></path><path d="M 2190.6363636363635 1071.9264931087287 A 2 2 0 0 1 2192.6363636363635 1073.9264931087287 L 2192.6363636363635 1079.5773353751913 A 2 2 0 0 1 2190.6363636363635 1081.5773353751913 L 550 1081.5773353751913 A 0 0 0 0 1 550 1081.5773353751913 L 550 1071.9264931087287 A 0 0 0 0 1 550 1071.9264931087287 Z" fill="#4285f4" clip-path="url(#rablfilter14)"></path><path d="M 2220.737863661606 1082.5773353751913 A 2 2 0 0 1 2222.737863661606 1084.5773353751913 L 2222.737863661606 1090.2281776416537 A 2 2 0 0 1 2220.737863661606 1092.2281776416537 L 550 1092.2281776416537 A 0 0 0 0 1 550 1092.2281776416537 L 550 1082.5773353751913 A 0 0 0 0 1 550 1082.5773353751913 Z" fill="#db4437" clip-path="url(#rablfilter14)"></path><path d="M 2190.6363636363635 1104.6983154670747 A 2 2 0 0 1 2192.6363636363635 1106.6983154670747 L 2192.6363636363635 1112.3491577335374 A 2 2 0 0 1 2190.6363636363635 1114.3491577335374 L 550 1114.3491577335374 A 0 0 0 0 1 550 1114.3491577335374 L 550 1104.6983154670747 A 0 0 0 0 1 550 1104.6983154670747 Z" fill="#4285f4" clip-path="url(#rablfilter14)"></path><path d="M 2221.8569318174295 1115.3491577335374 A 2 2 0 0 1 2223.8569318174295 1117.3491577335374 L 2223.8569318174295 1123 A 2 2 0 0 1 2221.8569318174295 1125 L 550 1125 A 0 0 0 0 1 550 1125 L 550 1115.3491577335374 A 0 0 0 0 1 550 1115.3491577335374 Z" fill="#db4437" clip-path="url(#rablfilter14)"></path></g><g></g><g><text x="549.5" y="1154.5" style="cursor: default; user-select: none; -webkit-font-smoothing: antialiased; font-family: Roboto; font-size: 12px;" fill="#757575" dx="-3.375px">0</text><text x="713.8636363636364" y="1154.5" style="cursor: default; user-select: none; -webkit-font-smoothing: antialiased; font-family: Roboto; font-size: 12px;" fill="#757575" dx="-8.3203125px">0.1</text><text x="878.2272727272727" y="1154.5" style="cursor: default; user-select: none; -webkit-font-smoothing: antialiased; font-family: Roboto; font-size: 12px;" fill="#757575" dx="-8.3203125px">0.2</text><text x="1042.5909090909092" y="1154.5" style="cursor: default; user-select: none; -webkit-font-smoothing: antialiased; font-family: Roboto; font-size: 12px;" fill="#757575" dx="-8.3203125px">0.3</text><text x="1206.9545454545455" y="1154.5" style="cursor: default; user-select: none; -webkit-font-smoothing: antialiased; font-family: Roboto; font-size: 12px;" fill="#757575" dx="-8.3203125px">0.4</text><text x="1371.3181818181818" y="1154.5" style="cursor: default; user-select: none; -webkit-font-smoothing: antialiased; font-family: Roboto; font-size: 12px;" fill="#757575" dx="-8.3203125px">0.5</text><text x="1535.6818181818185" y="1154.5" style="cursor: default; user-select: none; -webkit-font-smoothing: antialiased; font-family: Roboto; font-size: 12px;" fill="#757575" dx="-8.3203125px">0.6</text><text x="1700.0454545454545" y="1154.5" style="cursor: default; user-select: none; -webkit-font-smoothing: antialiased; font-family: Roboto; font-size: 12px;" fill="#757575" dx="-8.3203125px">0.7</text><text x="1864.409090909091" y="1154.5" style="cursor: default; user-select: none; -webkit-font-smoothing: antialiased; font-family: Roboto; font-size: 12px;" fill="#757575" dx="-8.3203125px">0.8</text><text x="2028.7727272727273" y="1154.5" style="cursor: default; user-select: none; -webkit-font-smoothing: antialiased; font-family: Roboto; font-size: 12px;" fill="#757575" dx="-8.3203125px">0.9</text><text x="2193.1363636363635" y="1154.5" style="cursor: default; user-select: none; -webkit-font-smoothing: antialiased; font-family: Roboto; font-size: 12px;" fill="#757575" dx="-3.375px">1</text><text x="2357.5" y="1154.5" style="cursor: default; user-select: none; -webkit-font-smoothing: antialiased; font-family: Roboto; font-size: 12px;" fill="#757575" dx="-8.3203125px">1.1</text><text x="1455.91015625" y="1186.5" style="cursor: default; user-select: none; -webkit-font-smoothing: antialiased; font-family: Roboto; font-size: 12px;" fill="#424242" dx="-33.625px">Render Time</text><text x="543.5" y="70.15084377364761" style="cursor: default; user-select: none; -webkit-font-smoothing: antialiased; font-family: Roboto; font-size: 12px;" fill="#757575" dx="-259.078125px">Intel_Sponza-PhysCamera001-raytracing-embree</text><text x="543.5" y="102.9226684219804" style="cursor: default; user-select: none; -webkit-font-smoothing: antialiased; font-family: Roboto; font-size: 12px;" fill="#757575" dx="-367.4375px">Intel_Sponza_Candles_Thin_Lens-PhysCamera002-raytracing-embree</text><text x="543.5" y="135.6944854409187" style="cursor: default; user-select: none; -webkit-font-smoothing: antialiased; font-family: Roboto; font-size: 12px;" fill="#757575" dx="-220.109375px">StormTrooper-render_cam-debug-embree</text><text x="543.5" y="168.46631008925146" style="cursor: default; user-select: none; -webkit-font-smoothing: antialiased; font-family: Roboto; font-size: 12px;" fill="#757575" dx="-237.84375px">EmperorCrown-CameraShape-debug-embree</text><text x="543.5" y="201.23813473758435" style="cursor: default; user-select: none; -webkit-font-smoothing: antialiased; font-family: Roboto; font-size: 12px;" fill="#757575" dx="-239.671875px">StormTrooper-render_cam-raytracing-embree</text><text x="543.5" y="234.0099593859171" style="cursor: default; user-select: none; -webkit-font-smoothing: antialiased; font-family: Roboto; font-size: 12px;" fill="#757575" dx="-287.40625px">StormTrooper-render_cam-ambient_occlusion-embree</text><text x="543.5" y="266.7817840342499" style="cursor: default; user-select: none; -webkit-font-smoothing: antialiased; font-family: Roboto; font-size: 12px;" fill="#757575" dx="-223.484375px">CornellBox-render_cam-raytracing-embree</text><text x="543.5" y="299.55360868258276" style="cursor: default; user-select: none; -webkit-font-smoothing: antialiased; font-family: Roboto; font-size: 12px;" fill="#757575" dx="-452.5px">CameraTestGround-VariantCamera-raytracing-embree-realistic_petzval_kodak_50mm</text><text x="543.5" y="332.32543333091553" style="cursor: default; user-select: none; -webkit-font-smoothing: antialiased; font-family: Roboto; font-size: 12px;" fill="#757575" dx="-336.921875px">CameraTestGround-VariantCamera-raytracing-embree-thin_lens</text><text x="543.5" y="365.0972579792483" style="cursor: default; user-select: none; -webkit-font-smoothing: antialiased; font-family: Roboto; font-size: 12px;" fill="#757575" dx="-456.921875px">CameraTestGround-VariantCamera-raytracing-embree-realistic_realistic_canon_60mm</text><text x="543.5" y="397.86905211000294" style="cursor: default; user-select: none; -webkit-font-smoothing: antialiased; font-family: Roboto; font-size: 12px;" fill="#757575" dx="-456.921875px">CameraTestGround-VariantCamera-raytracing-embree-realistic_realistic_canon_50mm</text><text x="543.5" y="430.6408767583357" style="cursor: default; user-select: none; -webkit-font-smoothing: antialiased; font-family: Roboto; font-size: 12px;" fill="#757575" dx="-240.125px">DailyDweeb-CameraShape-raytracing-embree</text><text x="543.5" y="463.4127014066685" style="cursor: default; user-select: none; -webkit-font-smoothing: antialiased; font-family: Roboto; font-size: 12px;" fill="#757575" dx="-415.171875px">Intel_Sponza_Candles_Thin_Lens-PhysCamera002-ambient_occlusion-embree</text><text x="543.5" y="496.18452605500136" style="cursor: default; user-select: none; -webkit-font-smoothing: antialiased; font-family: Roboto; font-size: 12px;" fill="#757575" dx="-305.140625px">EmperorCrown-CameraShape-ambient_occlusion-embree</text><text x="543.5" y="528.9563507033342" style="cursor: default; user-select: none; -webkit-font-smoothing: antialiased; font-family: Roboto; font-size: 12px;" fill="#757575" dx="-271.21875px">CornellBox-render_cam-ambient_occlusion-embree</text><text x="543.5" y="561.7282058692451" style="cursor: default; user-select: none; -webkit-font-smoothing: antialiased; font-family: Roboto; font-size: 12px;" fill="#757575" dx="-257.390625px">EmperorCrown-CameraShape-raytracing-embree</text><text x="543.5" y="594.4999999999998" style="cursor: default; user-select: none; -webkit-font-smoothing: antialiased; font-family: Roboto; font-size: 12px;" fill="#757575" dx="-220.5625px">DailyDweeb-CameraShape-debug-embree</text><text x="543.5" y="627.2717941307546" style="cursor: default; user-select: none; -webkit-font-smoothing: antialiased; font-family: Roboto; font-size: 12px;" fill="#757575" dx="-463.390625px">CameraTestGround-VariantCamera-raytracing-embree-realistic_panavision_anamorphic</text><text x="543.5" y="660.0436492966653" style="cursor: default; user-select: none; -webkit-font-smoothing: antialiased; font-family: Roboto; font-size: 12px;" fill="#757575" dx="-438.671875px">CameraTestGround-VariantCamera-raytracing-embree-realistic_canon_anamorphic</text><text x="543.5" y="692.8154434274202" style="cursor: default; user-select: none; -webkit-font-smoothing: antialiased; font-family: Roboto; font-size: 12px;" fill="#757575" dx="-307.453125px">HsdLogo-render_cam_1Shape-ambient_occlusion-embree</text><text x="543.5" y="725.5872985933308" style="cursor: default; user-select: none; -webkit-font-smoothing: antialiased; font-family: Roboto; font-size: 12px;" fill="#757575" dx="-381.578125px">Intel_mooreLane-MASTER_cameraExtended-ambient_occlusion-embree</text><text x="543.5" y="758.3590927240857" style="cursor: default; user-select: none; -webkit-font-smoothing: antialiased; font-family: Roboto; font-size: 12px;" fill="#757575" dx="-306.8125px">Intel_Sponza-PhysCamera001-ambient_occlusion-embree</text><text x="543.5" y="791.1309478899964" style="cursor: default; user-select: none; -webkit-font-smoothing: antialiased; font-family: Roboto; font-size: 12px;" fill="#757575" dx="-282.125px">Blenderman-Camera_001-ambient_occlusion-embree</text><text x="543.5" y="823.9027420207512" style="cursor: default; user-select: none; -webkit-font-smoothing: antialiased; font-family: Roboto; font-size: 12px;" fill="#757575" dx="-475.109375px">CameraTestGround-VariantCamera-raytracing-embree-realistic_canon_70_200mm_70mm</text><text x="543.5" y="856.6745971866624" style="cursor: default; user-select: none; -webkit-font-smoothing: antialiased; font-family: Roboto; font-size: 12px;" fill="#757575" dx="-445.9375px">CameraTestGround-VariantCamera-raytracing-embree-realistic_navarro_anamorphic</text><text x="543.5" y="889.4463913174168" style="cursor: default; user-select: none; -webkit-font-smoothing: antialiased; font-family: Roboto; font-size: 12px;" fill="#757575" dx="-259.71875px">HsdLogo-render_cam_1Shape-raytracing-embree</text><text x="543.5" y="922.2182464833279" style="cursor: default; user-select: none; -webkit-font-smoothing: antialiased; font-family: Roboto; font-size: 12px;" fill="#757575" dx="-337.578125px">OpenChessSet-render_cam_7Shape-ambient_occlusion-embree</text><text x="543.5" y="954.9900406140823" style="cursor: default; user-select: none; -webkit-font-smoothing: antialiased; font-family: Roboto; font-size: 12px;" fill="#757575" dx="-457.9375px">CameraTestGround-VariantCamera-raytracing-embree-realistic_schneider_anamorphic</text><text x="543.5" y="987.7618957799934" style="cursor: default; user-select: none; -webkit-font-smoothing: antialiased; font-family: Roboto; font-size: 12px;" fill="#757575" dx="-214.828125px">Blenderman-Camera_001-debug-embree</text><text x="543.5" y="1020.5336899107481" style="cursor: default; user-select: none; -webkit-font-smoothing: antialiased; font-family: Roboto; font-size: 12px;" fill="#757575" dx="-461.75px">CameraTestGround-VariantCamera-raytracing-embree-realistic_brendel_tessar_100mm</text><text x="543.5" y="1053.3054840415025" style="cursor: default; user-select: none; -webkit-font-smoothing: antialiased; font-family: Roboto; font-size: 12px;" fill="#757575" dx="-510.65625px">CameraTestGround-VariantCamera-raytracing-embree-realistic_double_gauss_angenieux_50mm</text><text x="543.5" y="1086.0772781722576" style="cursor: default; user-select: none; -webkit-font-smoothing: antialiased; font-family: Roboto; font-size: 12px;" fill="#757575" dx="-289.828125px">OpenChessSet-render_cam_7Shape-raytracing-embree</text><text x="543.5" y="1118.8491943733247" style="cursor: default; user-select: none; -webkit-font-smoothing: antialiased; font-family: Roboto; font-size: 12px;" fill="#757575" dx="-287.859375px">DailyDweeb-CameraShape-ambient_occlusion-embree</text><text x="14.84375" y="587.5" style="cursor: default; user-select: none; -webkit-font-smoothing: antialiased; font-family: Roboto; font-size: 12px;" fill="#424242" dx="-16.375px" transform="rotate(-90 14.84375 590.5)">Scene</text></g><g></g><g></g><g></g></svg>