<svg width="1550" height="805" xmlns="http://www.w3.org/2000/svg"><defs><clipPath id="rablfilter7"><rect x="454.5" y="55.5" width="946" height="697"></rect></clipPath></defs><g><rect x="0" y="0" width="1550" height="805" fill="#ffffff" fill-opacity="1" stroke="#ffffff" stroke-opacity="0" stroke-width="0"></rect><text x="0" y="15" style="cursor: default; user-select: none; -webkit-font-smoothing: antialiased; font-family: Roboto; font-size: 16px;" fill="#757575" dx="0px">Relative Timing</text><rect x="1449.9013671875" y="55.5" width="12" height="12" rx="2" ry="2" fill="#4285f4"></rect><text x="1469.9013671875" y="68.5" style="cursor: default; user-select: none; -webkit-font-smoothing: antialiased; font-family: Roboto;" fill="#757575" dx="0px">Baseline</text><rect x="1449.9013671875" y="88.5" width="12" height="12" rx="2" ry="2" fill="#db4437"></rect><text x="1469.9013671875" y="101.5" style="cursor: default; user-select: none; -webkit-font-smoothing: antialiased; font-family: Roboto;" fill="#757575" dx="0px">New revision</text><rect x="454.5" y="55.5" width="946" height="697" fill="#ffffff" fill-opacity="1" stroke="#ffffff" stroke-opacity="0" stroke-width="1"></rect></g><g><line x1="454.5" x2="454.5" y1="55.5" y2="752.5" stroke="#9E9E9E" stroke-width="1"></line><line x1="589.6428571428571" x2="589.6428571428571" y1="55.5" y2="752.5" stroke="#E0E0E0" stroke-width="1"></line><line x1="724.7857142857142" x2="724.7857142857142" y1="55.5" y2="752.5" stroke="#E0E0E0" stroke-width="1"></line><line x1="859.9285714285714" x2="859.9285714285714" y1="55.5" y2="752.5" stroke="#E0E0E0" stroke-width="1"></line><line x1="995.0714285714286" x2="995.0714285714286" y1="55.5" y2="752.5" stroke="#E0E0E0" stroke-width="1"></line><line x1="1130.2142857142858" x2="1130.2142857142858" y1="55.5" y2="752.5" stroke="#E0E0E0" stroke-width="1"></line><line x1="1265.357142857143" x2="1265.357142857143" y1="55.5" y2="752.5" stroke="#E0E0E0" stroke-width="1"></line><line x1="1400.5" x2="1400.5" y1="55.5" y2="752.5" stroke="#E0E0E0" stroke-width="1"></line></g><g><path d="M 1127.7142857142858 56 A 2 2 0 0 1 1129.7142857142858 58 L 1129.7142857142858 63.28290993071593 A 2 2 0 0 1 1127.7142857142858 65.28290993071593 L 455 65.28290993071593 A 0 0 0 0 1 455 65.28290993071593 L 455 56 A 0 0 0 0 1 455 56 Z" fill="#4285f4" clip-path="url(#rablfilter7)"></path><path d="M 695.7307941822042 66.28290993071593 A 2 2 0 0 1 697.7307941822042 68.28290993071593 L 697.7307941822042 73.56581986143186 A 2 2 0 0 1 695.7307941822042 75.56581986143186 L 455 75.56581986143186 A 0 0 0 0 1 455 75.56581986143186 L 455 66.28290993071593 A 0 0 0 0 1 455 66.28290993071593 Z" fill="#db4437" clip-path="url(#rablfilter7)"></path><path d="M 1127.7142857142858 87.63972286374134 A 2 2 0 0 1 1129.7142857142858 89.63972286374134 L 1129.7142857142858 94.92263279445729 A 2 2 0 0 1 1127.7142857142858 96.92263279445729 L 455 96.92263279445729 A 0 0 0 0 1 455 96.92263279445729 L 455 87.63972286374134 A 0 0 0 0 1 455 87.63972286374134 Z" fill="#4285f4" clip-path="url(#rablfilter7)"></path><path d="M 749.1390363537423 97.92263279445729 A 2 2 0 0 1 751.1390363537423 99.92263279445729 L 751.1390363537423 105.2055427251732 A 2 2 0 0 1 749.1390363537423 107.2055427251732 L 455 107.2055427251732 A 0 0 0 0 1 455 107.2055427251732 L 455 97.92263279445729 A 0 0 0 0 1 455 97.92263279445729 Z" fill="#db4437" clip-path="url(#rablfilter7)"></path><path d="M 1127.7142857142858 119.27944572748268 A 2 2 0 0 1 1129.7142857142858 121.27944572748268 L 1129.7142857142858 126.56235565819861 A 2 2 0 0 1 1127.7142857142858 128.5623556581986 L 455 128.5623556581986 A 0 0 0 0 1 455 128.5623556581986 L 455 119.27944572748268 A 0 0 0 0 1 455 119.27944572748268 Z" fill="#4285f4" clip-path="url(#rablfilter7)"></path><path d="M 876.0403866891036 129.5623556581986 A 2 2 0 0 1 878.0403866891036 131.5623556581986 L 878.0403866891036 136.84526558891457 A 2 2 0 0 1 876.0403866891036 138.84526558891457 L 455 138.84526558891457 A 0 0 0 0 1 455 138.84526558891457 L 455 129.5623556581986 A 0 0 0 0 1 455 129.5623556581986 Z" fill="#db4437" clip-path="url(#rablfilter7)"></path><path d="M 1127.7142857142858 150.91916859122404 A 2 2 0 0 1 1129.7142857142858 152.91916859122404 L 1129.7142857142858 158.20207852193997 A 2 2 0 0 1 1127.7142857142858 160.20207852193997 L 455 160.20207852193997 A 0 0 0 0 1 455 160.20207852193997 L 455 150.91916859122404 A 0 0 0 0 1 455 150.91916859122404 Z" fill="#4285f4" clip-path="url(#rablfilter7)"></path><path d="M 888.4564401065641 161.20207852193997 A 2 2 0 0 1 890.4564401065641 163.20207852193997 L 890.4564401065641 168.4849884526559 A 2 2 0 0 1 888.4564401065641 170.4849884526559 L 455 170.4849884526559 A 0 0 0 0 1 455 170.4849884526559 L 455 161.20207852193997 A 0 0 0 0 1 455 161.20207852193997 Z" fill="#db4437" clip-path="url(#rablfilter7)"></path><path d="M 1127.7142857142858 182.55889145496536 A 2 2 0 0 1 1129.7142857142858 184.55889145496536 L 1129.7142857142858 189.8418013856813 A 2 2 0 0 1 1127.7142857142858 191.8418013856813 L 455 191.8418013856813 A 0 0 0 0 1 455 191.8418013856813 L 455 182.55889145496536 A 0 0 0 0 1 455 182.55889145496536 Z" fill="#4285f4" clip-path="url(#rablfilter7)"></path><path d="M 906.0479037106793 192.8418013856813 A 2 2 0 0 1 908.0479037106793 194.8418013856813 L 908.0479037106793 200.12471131639725 A 2 2 0 0 1 906.0479037106793 202.12471131639725 L 455 202.12471131639725 A 0 0 0 0 1 455 202.12471131639725 L 455 192.8418013856813 A 0 0 0 0 1 455 192.8418013856813 Z" fill="#db4437" clip-path="url(#rablfilter7)"></path><path d="M 1127.7142857142858 214.19861431870672 A 2 2 0 0 1 1129.7142857142858 216.19861431870672 L 1129.7142857142858 221.48152424942265 A 2 2 0 0 1 1127.7142857142858 223.48152424942265 L 455 223.48152424942265 A 0 0 0 0 1 455 223.48152424942265 L 455 214.19861431870672 A 0 0 0 0 1 455 214.19861431870672 Z" fill="#4285f4" clip-path="url(#rablfilter7)"></path><path d="M 972.4699595700876 224.48152424942265 A 2 2 0 0 1 974.4699595700876 226.48152424942265 L 974.4699595700876 231.7644341801386 A 2 2 0 0 1 972.4699595700876 233.7644341801386 L 455 233.7644341801386 A 0 0 0 0 1 455 233.7644341801386 L 455 224.48152424942265 A 0 0 0 0 1 455 224.48152424942265 Z" fill="#db4437" clip-path="url(#rablfilter7)"></path><path d="M 1127.7142857142858 245.83833718244807 A 2 2 0 0 1 1129.7142857142858 247.83833718244807 L 1129.7142857142858 253.121247113164 A 2 2 0 0 1 1127.7142857142858 255.121247113164 L 455 255.121247113164 A 0 0 0 0 1 455 255.121247113164 L 455 245.83833718244807 A 0 0 0 0 1 455 245.83833718244807 Z" fill="#4285f4" clip-path="url(#rablfilter7)"></path><path d="M 990.1805106246443 256.12124711316403 A 2 2 0 0 1 992.1805106246443 258.12124711316403 L 992.1805106246443 263.40415704388 A 2 2 0 0 1 990.1805106246443 265.40415704388 L 455 265.40415704388 A 0 0 0 0 1 455 265.40415704388 L 455 256.12124711316403 A 0 0 0 0 1 455 256.12124711316403 Z" fill="#db4437" clip-path="url(#rablfilter7)"></path><path d="M 1127.7142857142858 277.4780600461894 A 2 2 0 0 1 1129.7142857142858 279.4780600461894 L 1129.7142857142858 284.7609699769053 A 2 2 0 0 1 1127.7142857142858 286.7609699769053 L 455 286.7609699769053 A 0 0 0 0 1 455 286.7609699769053 L 455 277.4780600461894 A 0 0 0 0 1 455 277.4780600461894 Z" fill="#4285f4" clip-path="url(#rablfilter7)"></path><path d="M 1047.6693414526744 287.7609699769053 A 2 2 0 0 1 1049.6693414526744 289.7609699769053 L 1049.6693414526744 295.04387990762126 A 2 2 0 0 1 1047.6693414526744 297.04387990762126 L 455 297.04387990762126 A 0 0 0 0 1 455 297.04387990762126 L 455 287.7609699769053 A 0 0 0 0 1 455 287.7609699769053 Z" fill="#db4437" clip-path="url(#rablfilter7)"></path><path d="M 1127.7142857142858 309.1177829099307 A 2 2 0 0 1 1129.7142857142858 311.1177829099307 L 1129.7142857142858 316.4006928406467 A 2 2 0 0 1 1127.7142857142858 318.4006928406467 L 455 318.4006928406467 A 0 0 0 0 1 455 318.4006928406467 L 455 309.1177829099307 A 0 0 0 0 1 455 309.1177829099307 Z" fill="#4285f4" clip-path="url(#rablfilter7)"></path><path d="M 1053.9491653758434 319.4006928406467 A 2 2 0 0 1 1055.9491653758434 321.4006928406467 L 1055.9491653758434 326.6836027713626 A 2 2 0 0 1 1053.9491653758434 328.6836027713626 L 455 328.6836027713626 A 0 0 0 0 1 455 328.6836027713626 L 455 319.4006928406467 A 0 0 0 0 1 455 319.4006928406467 Z" fill="#db4437" clip-path="url(#rablfilter7)"></path><path d="M 1127.7142857142858 340.75750577367205 A 2 2 0 0 1 1129.7142857142858 342.75750577367205 L 1129.7142857142858 348.04041570438795 A 2 2 0 0 1 1127.7142857142858 350.04041570438795 L 455 350.04041570438795 A 0 0 0 0 1 455 350.04041570438795 L 455 340.75750577367205 A 0 0 0 0 1 455 340.75750577367205 Z" fill="#4285f4" clip-path="url(#rablfilter7)"></path><path d="M 1063.0996044649935 351.04041570438795 A 2 2 0 0 1 1065.0996044649935 353.04041570438795 L 1065.0996044649935 358.3233256351039 A 2 2 0 0 1 1063.0996044649935 360.3233256351039 L 455 360.3233256351039 A 0 0 0 0 1 455 360.3233256351039 L 455 351.04041570438795 A 0 0 0 0 1 455 351.04041570438795 Z" fill="#db4437" clip-path="url(#rablfilter7)"></path><path d="M 1127.7142857142858 372.39722863741343 A 2 2 0 0 1 1129.7142857142858 374.39722863741343 L 1129.7142857142858 379.68013856812934 A 2 2 0 0 1 1127.7142857142858 381.68013856812934 L 455 381.68013856812934 A 0 0 0 0 1 455 381.68013856812934 L 455 372.39722863741343 A 0 0 0 0 1 455 372.39722863741343 Z" fill="#4285f4" clip-path="url(#rablfilter7)"></path><path d="M 1063.575224186975 382.68013856812934 A 2 2 0 0 1 1065.575224186975 384.68013856812934 L 1065.575224186975 389.96304849884524 A 2 2 0 0 1 1063.575224186975 391.96304849884524 L 455 391.96304849884524 A 0 0 0 0 1 455 391.96304849884524 L 455 382.68013856812934 A 0 0 0 0 1 455 382.68013856812934 Z" fill="#db4437" clip-path="url(#rablfilter7)"></path><path d="M 1127.7142857142858 404.03695150115476 A 2 2 0 0 1 1129.7142857142858 406.03695150115476 L 1129.7142857142858 411.31986143187066 A 2 2 0 0 1 1127.7142857142858 413.31986143187066 L 455 413.31986143187066 A 0 0 0 0 1 455 413.31986143187066 L 455 404.03695150115476 A 0 0 0 0 1 455 404.03695150115476 Z" fill="#4285f4" clip-path="url(#rablfilter7)"></path><path d="M 1065.6470475806227 414.31986143187066 A 2 2 0 0 1 1067.6470475806227 416.31986143187066 L 1067.6470475806227 421.60277136258657 A 2 2 0 0 1 1065.6470475806227 423.60277136258657 L 455 423.60277136258657 A 0 0 0 0 1 455 423.60277136258657 L 455 414.31986143187066 A 0 0 0 0 1 455 414.31986143187066 Z" fill="#db4437" clip-path="url(#rablfilter7)"></path><path d="M 1127.7142857142858 435.67667436489614 A 2 2 0 0 1 1129.7142857142858 437.67667436489614 L 1129.7142857142858 442.95958429561205 A 2 2 0 0 1 1127.7142857142858 444.95958429561205 L 455 444.95958429561205 A 0 0 0 0 1 455 444.95958429561205 L 455 435.67667436489614 A 0 0 0 0 1 455 435.67667436489614 Z" fill="#4285f4" clip-path="url(#rablfilter7)"></path><path d="M 1067.6549058515598 445.95958429561205 A 2 2 0 0 1 1069.6549058515598 447.95958429561205 L 1069.6549058515598 453.24249422632795 A 2 2 0 0 1 1067.6549058515598 455.24249422632795 L 455 455.24249422632795 A 0 0 0 0 1 455 455.24249422632795 L 455 445.95958429561205 A 0 0 0 0 1 455 445.95958429561205 Z" fill="#db4437" clip-path="url(#rablfilter7)"></path><path d="M 1127.7142857142858 467.31639722863747 A 2 2 0 0 1 1129.7142857142858 469.31639722863747 L 1129.7142857142858 474.5993071593534 A 2 2 0 0 1 1127.7142857142858 476.5993071593534 L 455 476.5993071593534 A 0 0 0 0 1 455 476.5993071593534 L 455 467.31639722863747 A 0 0 0 0 1 455 467.31639722863747 Z" fill="#4285f4" clip-path="url(#rablfilter7)"></path><path d="M 1070.1495526220901 477.5993071593534 A 2 2 0 0 1 1072.1495526220901 479.5993071593534 L 1072.1495526220901 484.8822170900693 A 2 2 0 0 1 1070.1495526220901 486.8822170900693 L 455 486.8822170900693 A 0 0 0 0 1 455 486.8822170900693 L 455 477.5993071593534 A 0 0 0 0 1 455 477.5993071593534 Z" fill="#db4437" clip-path="url(#rablfilter7)"></path><path d="M 1127.7142857142858 498.9561200923788 A 2 2 0 0 1 1129.7142857142858 500.9561200923788 L 1129.7142857142858 506.2390300230947 A 2 2 0 0 1 1127.7142857142858 508.2390300230947 L 455 508.2390300230947 A 0 0 0 0 1 455 508.2390300230947 L 455 498.9561200923788 A 0 0 0 0 1 455 498.9561200923788 Z" fill="#4285f4" clip-path="url(#rablfilter7)"></path><path d="M 1072.9028164022825 509.2390300230947 A 2 2 0 0 1 1074.9028164022825 511.2390300230947 L 1074.9028164022825 516.5219399538106 A 2 2 0 0 1 1072.9028164022825 518.5219399538106 L 455 518.5219399538106 A 0 0 0 0 1 455 518.5219399538106 L 455 509.2390300230947 A 0 0 0 0 1 455 509.2390300230947 Z" fill="#db4437" clip-path="url(#rablfilter7)"></path><path d="M 1127.7142857142858 530.5958429561201 A 2 2 0 0 1 1129.7142857142858 532.5958429561201 L 1129.7142857142858 537.8787528868361 A 2 2 0 0 1 1127.7142857142858 539.8787528868361 L 455 539.8787528868361 A 0 0 0 0 1 455 539.8787528868361 L 455 530.5958429561201 A 0 0 0 0 1 455 530.5958429561201 Z" fill="#4285f4" clip-path="url(#rablfilter7)"></path><path d="M 1074.705368473311 540.8787528868361 A 2 2 0 0 1 1076.705368473311 542.8787528868361 L 1076.705368473311 548.161662817552 A 2 2 0 0 1 1074.705368473311 550.161662817552 L 455 550.161662817552 A 0 0 0 0 1 455 550.161662817552 L 455 540.8787528868361 A 0 0 0 0 1 455 540.8787528868361 Z" fill="#db4437" clip-path="url(#rablfilter7)"></path><path d="M 1127.7142857142858 562.2355658198614 A 2 2 0 0 1 1129.7142857142858 564.2355658198614 L 1129.7142857142858 569.5184757505773 A 2 2 0 0 1 1127.7142857142858 571.5184757505773 L 455 571.5184757505773 A 0 0 0 0 1 455 571.5184757505773 L 455 562.2355658198614 A 0 0 0 0 1 455 562.2355658198614 Z" fill="#4285f4" clip-path="url(#rablfilter7)"></path><path d="M 1077.193473343044 572.5184757505773 A 2 2 0 0 1 1079.193473343044 574.5184757505773 L 1079.193473343044 579.8013856812934 A 2 2 0 0 1 1077.193473343044 581.8013856812934 L 455 581.8013856812934 A 0 0 0 0 1 455 581.8013856812934 L 455 572.5184757505773 A 0 0 0 0 1 455 572.5184757505773 Z" fill="#db4437" clip-path="url(#rablfilter7)"></path><path d="M 1127.7142857142858 593.8752886836028 A 2 2 0 0 1 1129.7142857142858 595.8752886836028 L 1129.7142857142858 601.1581986143187 A 2 2 0 0 1 1127.7142857142858 603.1581986143187 L 455 603.1581986143187 A 0 0 0 0 1 455 603.1581986143187 L 455 593.8752886836028 A 0 0 0 0 1 455 593.8752886836028 Z" fill="#4285f4" clip-path="url(#rablfilter7)"></path><path d="M 1077.2216444744258 604.1581986143187 A 2 2 0 0 1 1079.2216444744258 606.1581986143187 L 1079.2216444744258 611.4411085450346 A 2 2 0 0 1 1077.2216444744258 613.4411085450346 L 455 613.4411085450346 A 0 0 0 0 1 455 613.4411085450346 L 455 604.1581986143187 A 0 0 0 0 1 455 604.1581986143187 Z" fill="#db4437" clip-path="url(#rablfilter7)"></path><path d="M 1127.7142857142858 625.5150115473441 A 2 2 0 0 1 1129.7142857142858 627.5150115473441 L 1129.7142857142858 632.7979214780601 A 2 2 0 0 1 1127.7142857142858 634.7979214780601 L 455 634.7979214780601 A 0 0 0 0 1 455 634.7979214780601 L 455 625.5150115473441 A 0 0 0 0 1 455 625.5150115473441 Z" fill="#4285f4" clip-path="url(#rablfilter7)"></path><path d="M 1084.4101791155774 635.7979214780601 A 2 2 0 0 1 1086.4101791155774 637.7979214780601 L 1086.4101791155774 643.0808314087759 A 2 2 0 0 1 1084.4101791155774 645.0808314087759 L 455 645.0808314087759 A 0 0 0 0 1 455 645.0808314087759 L 455 635.7979214780601 A 0 0 0 0 1 455 635.7979214780601 Z" fill="#db4437" clip-path="url(#rablfilter7)"></path><path d="M 1127.7142857142858 657.1547344110855 A 2 2 0 0 1 1129.7142857142858 659.1547344110855 L 1129.7142857142858 664.4376443418014 A 2 2 0 0 1 1127.7142857142858 666.4376443418014 L 455 666.4376443418014 A 0 0 0 0 1 455 666.4376443418014 L 455 657.1547344110855 A 0 0 0 0 1 455 657.1547344110855 Z" fill="#4285f4" clip-path="url(#rablfilter7)"></path><path d="M 1105.6805301413415 667.4376443418014 A 2 2 0 0 1 1107.6805301413415 669.4376443418014 L 1107.6805301413415 674.7205542725173 A 2 2 0 0 1 1105.6805301413415 676.7205542725173 L 455 676.7205542725173 A 0 0 0 0 1 455 676.7205542725173 L 455 667.4376443418014 A 0 0 0 0 1 455 667.4376443418014 Z" fill="#db4437" clip-path="url(#rablfilter7)"></path><path d="M 1127.7142857142858 688.7944572748269 A 2 2 0 0 1 1129.7142857142858 690.7944572748269 L 1129.7142857142858 696.0773672055427 A 2 2 0 0 1 1127.7142857142858 698.0773672055427 L 455 698.0773672055427 A 0 0 0 0 1 455 698.0773672055427 L 455 688.7944572748269 A 0 0 0 0 1 455 688.7944572748269 Z" fill="#4285f4" clip-path="url(#rablfilter7)"></path><path d="M 1124.6538154445898 699.0773672055427 A 2 2 0 0 1 1126.6538154445898 701.0773672055427 L 1126.6538154445898 706.3602771362587 A 2 2 0 0 1 1124.6538154445898 708.3602771362587 L 455 708.3602771362587 A 0 0 0 0 1 455 708.3602771362587 L 455 699.0773672055427 A 0 0 0 0 1 455 699.0773672055427 Z" fill="#db4437" clip-path="url(#rablfilter7)"></path><path d="M 1127.7142857142858 720.4341801385682 A 2 2 0 0 1 1129.7142857142858 722.4341801385682 L 1129.7142857142858 727.717090069284 A 2 2 0 0 1 1127.7142857142858 729.717090069284 L 455 729.717090069284 A 0 0 0 0 1 455 729.717090069284 L 455 720.4341801385682 A 0 0 0 0 1 455 720.4341801385682 Z" fill="#4285f4" clip-path="url(#rablfilter7)"></path><path d="M 1130.2513025341398 730.717090069284 A 2 2 0 0 1 1132.2513025341398 732.717090069284 L 1132.2513025341398 738 A 2 2 0 0 1 1130.2513025341398 740 L 455 740 A 0 0 0 0 1 455 740 L 455 730.717090069284 A 0 0 0 0 1 455 730.717090069284 Z" fill="#db4437" clip-path="url(#rablfilter7)"></path></g><g></g><g><text x="454.5" y="769.5" style="cursor: default; user-select: none; -webkit-font-smoothing: antialiased; font-family: Roboto; font-size: 12px;" fill="#757575" dx="-3.375px">0</text><text x="589.6428571428571" y="769.5" style="cursor: default; user-select: none; -webkit-font-smoothing: antialiased; font-family: Roboto; font-size: 12px;" fill="#757575" dx="-8.3203125px">0.2</text><text x="724.7857142857142" y="769.5" style="cursor: default; user-select: none; -webkit-font-smoothing: antialiased; font-family: Roboto; font-size: 12px;" fill="#757575" dx="-8.3203125px">0.4</text><text x="859.9285714285714" y="769.5" style="cursor: default; user-select: none; -webkit-font-smoothing: antialiased; font-family: Roboto; font-size: 12px;" fill="#757575" dx="-8.3203125px">0.6</text><text x="995.0714285714286" y="769.5" style="cursor: default; user-select: none; -webkit-font-smoothing: antialiased; font-family: Roboto; font-size: 12px;" fill="#757575" dx="-8.3203125px">0.8</text><text x="1130.2142857142858" y="769.5" style="cursor: default; user-select: none; -webkit-font-smoothing: antialiased; font-family: Roboto; font-size: 12px;" fill="#757575" dx="-3.375px">1</text><text x="1265.357142857143" y="769.5" style="cursor: default; user-select: none; -webkit-font-smoothing: antialiased; font-family: Roboto; font-size: 12px;" fill="#757575" dx="-8.3203125px">1.2</text><text x="1400.5" y="769.5" style="cursor: default; user-select: none; -webkit-font-smoothing: antialiased; font-family: Roboto; font-size: 12px;" fill="#757575" dx="-8.3203125px">1.4</text><text x="929.97412109375" y="801.5" style="cursor: default; user-select: none; -webkit-font-smoothing: antialiased; font-family: Roboto; font-size: 12px;" fill="#424242" dx="-33.625px">Render Time</text><text x="448.5" y="69.78290665342405" style="cursor: default; user-select: none; -webkit-font-smoothing: antialiased; font-family: Roboto; font-size: 12px;" fill="#757575" dx="-220.5625px">DailyDweeb-CameraShape-debug-embree</text><text x="448.5" y="101.42263527885598" style="cursor: default; user-select: none; -webkit-font-smoothing: antialiased; font-family: Roboto; font-size: 12px;" fill="#757575" dx="-287.859375px">DailyDweeb-CameraShape-ambient_occlusion-embree</text><text x="448.5" y="133.0623486454988" style="cursor: default; user-select: none; -webkit-font-smoothing: antialiased; font-family: Roboto; font-size: 12px;" fill="#757575" dx="-257.390625px">EmperorCrown-CameraShape-raytracing-embree</text><text x="448.5" y="164.70208490032525" style="cursor: default; user-select: none; -webkit-font-smoothing: antialiased; font-family: Roboto; font-size: 12px;" fill="#757575" dx="-240.125px">DailyDweeb-CameraShape-raytracing-embree</text><text x="448.5" y="196.3418058963626" style="cursor: default; user-select: none; -webkit-font-smoothing: antialiased; font-family: Roboto; font-size: 12px;" fill="#757575" dx="-239.671875px">StormTrooper-render_cam-raytracing-embree</text><text x="448.5" y="227.98152689239998" style="cursor: default; user-select: none; -webkit-font-smoothing: antialiased; font-family: Roboto; font-size: 12px;" fill="#757575" dx="-289.828125px">OpenChessSet-render_cam_7Shape-raytracing-embree</text><text x="448.5" y="259.6212478884374" style="cursor: default; user-select: none; -webkit-font-smoothing: antialiased; font-family: Roboto; font-size: 12px;" fill="#757575" dx="-223.484375px">CornellBox-render_cam-raytracing-embree</text><text x="448.5" y="291.2609841432637" style="cursor: default; user-select: none; -webkit-font-smoothing: antialiased; font-family: Roboto; font-size: 12px;" fill="#757575" dx="-259.078125px">Intel_Sponza-PhysCamera001-raytracing-embree</text><text x="448.5" y="322.9006898805121" style="cursor: default; user-select: none; -webkit-font-smoothing: antialiased; font-family: Roboto; font-size: 12px;" fill="#757575" dx="-307.453125px">HsdLogo-render_cam_1Shape-ambient_occlusion-embree</text><text x="448.5" y="354.5404261353384" style="cursor: default; user-select: none; -webkit-font-smoothing: antialiased; font-family: Roboto; font-size: 12px;" fill="#757575" dx="-367.4375px">Intel_Sponza_Candles_Thin_Lens-PhysCamera002-raytracing-embree</text><text x="448.5" y="386.1801318725868" style="cursor: default; user-select: none; -webkit-font-smoothing: antialiased; font-family: Roboto; font-size: 12px;" fill="#757575" dx="-237.84375px">EmperorCrown-CameraShape-debug-embree</text><text x="448.5" y="417.8198681274132" style="cursor: default; user-select: none; -webkit-font-smoothing: antialiased; font-family: Roboto; font-size: 12px;" fill="#757575" dx="-305.140625px">EmperorCrown-CameraShape-ambient_occlusion-embree</text><text x="448.5" y="449.4595738646616" style="cursor: default; user-select: none; -webkit-font-smoothing: antialiased; font-family: Roboto; font-size: 12px;" fill="#757575" dx="-287.40625px">StormTrooper-render_cam-ambient_occlusion-embree</text><text x="448.5" y="481.099310119488" style="cursor: default; user-select: none; -webkit-font-smoothing: antialiased; font-family: Roboto; font-size: 12px;" fill="#757575" dx="-337.578125px">OpenChessSet-render_cam_7Shape-ambient_occlusion-embree</text><text x="448.5" y="512.7390158567363" style="cursor: default; user-select: none; -webkit-font-smoothing: antialiased; font-family: Roboto; font-size: 12px;" fill="#757575" dx="-306.8125px">Intel_Sponza-PhysCamera001-ambient_occlusion-embree</text><text x="448.5" y="544.3787826291409" style="cursor: default; user-select: none; -webkit-font-smoothing: antialiased; font-family: Roboto; font-size: 12px;" fill="#757575" dx="-381.578125px">Intel_mooreLane-MASTER_cameraExtended-ambient_occlusion-embree</text><text x="448.5" y="576.0184578488108" style="cursor: default; user-select: none; -webkit-font-smoothing: antialiased; font-family: Roboto; font-size: 12px;" fill="#757575" dx="-259.71875px">HsdLogo-render_cam_1Shape-raytracing-embree</text><text x="448.5" y="607.6581941036375" style="cursor: default; user-select: none; -webkit-font-smoothing: antialiased; font-family: Roboto; font-size: 12px;" fill="#757575" dx="-220.109375px">StormTrooper-render_cam-debug-embree</text><text x="448.5" y="639.2979303584639" style="cursor: default; user-select: none; -webkit-font-smoothing: antialiased; font-family: Roboto; font-size: 12px;" fill="#757575" dx="-415.171875px">Intel_Sponza_Candles_Thin_Lens-PhysCamera002-ambient_occlusion-embree</text><text x="448.5" y="670.9376666132903" style="cursor: default; user-select: none; -webkit-font-smoothing: antialiased; font-family: Roboto; font-size: 12px;" fill="#757575" dx="-282.125px">Blenderman-Camera_001-ambient_occlusion-embree</text><text x="448.5" y="702.5773418329604" style="cursor: default; user-select: none; -webkit-font-smoothing: antialiased; font-family: Roboto; font-size: 12px;" fill="#757575" dx="-271.21875px">CornellBox-render_cam-ambient_occlusion-embree</text><text x="448.5" y="734.2170780877868" style="cursor: default; user-select: none; -webkit-font-smoothing: antialiased; font-family: Roboto; font-size: 12px;" fill="#757575" dx="-214.828125px">Blenderman-Camera_001-debug-embree</text><text x="14.697265625" y="395" style="cursor: default; user-select: none; -webkit-font-smoothing: antialiased; font-family: Roboto; font-size: 12px;" fill="#424242" dx="-16.375px" transform="rotate(-90 14.697265625 398)">Scene</text></g><g></g><g></g><g></g></svg>