<svg width="1550" height="805" xmlns="http://www.w3.org/2000/svg"><defs><clipPath id="rablfilter8"><rect x="454.5" y="55.5" width="947" height="697"></rect></clipPath></defs><g><rect x="0" y="0" width="1550" height="805" fill="#ffffff" fill-opacity="1" stroke="#ffffff" stroke-opacity="0" stroke-width="0"></rect><text x="0" y="15" style="cursor: default; user-select: none; -webkit-font-smoothing: antialiased; font-family: Roboto; font-size: 16px;" fill="#757575" dx="0px">Absolute Timing</text><rect x="1449.9013671875" y="55.5" width="12" height="12" rx="2" ry="2" fill="#4285f4"></rect><text x="1469.9013671875" y="68.5" style="cursor: default; user-select: none; -webkit-font-smoothing: antialiased; font-family: Roboto;" fill="#757575" dx="0px">Baseline</text><rect x="1449.9013671875" y="88.5" width="12" height="12" rx="2" ry="2" fill="#db4437"></rect><text x="1469.9013671875" y="101.5" style="cursor: default; user-select: none; -webkit-font-smoothing: antialiased; font-family: Roboto;" fill="#757575" dx="0px">New revision</text><rect x="454.5" y="55.5" width="947" height="697" fill="#ffffff" fill-opacity="1" stroke="#ffffff" stroke-opacity="0" stroke-width="1"></rect></g><g><line x1="454.5" x2="454.5" y1="55.5" y2="752.5" stroke="#9E9E9E" stroke-width="1"></line><line x1="612.3333333333333" x2="612.3333333333333" y1="55.5" y2="752.5" stroke="#E0E0E0" stroke-width="1"></line><line x1="770.1666666666666" x2="770.1666666666666" y1="55.5" y2="752.5" stroke="#E0E0E0" stroke-width="1"></line><line x1="928" x2="928" y1="55.5" y2="752.5" stroke="#E0E0E0" stroke-width="1"></line><line x1="1085.8333333333333" x2="1085.8333333333333" y1="55.5" y2="752.5" stroke="#E0E0E0" stroke-width="1"></line><line x1="1243.6666666666667" x2="1243.6666666666667" y1="55.5" y2="752.5" stroke="#E0E0E0" stroke-width="1"></line><line x1="1401.5" x2="1401.5" y1="55.5" y2="752.5" stroke="#E0E0E0" stroke-width="1"></line></g><g><path d="M 1347.8992057359999 56 A 2 2 0 0 1 1349.8992057359999 58 L 1349.8992057359999 63.28290993071593 A 2 2 0 0 1 1347.8992057359999 65.28290993071593 L 455 65.28290993071593 A 0 0 0 0 1 455 65.28290993071593 L 455 56 A 0 0 0 0 1 455 56 Z" fill="#4285f4" clip-path="url(#rablfilter8)"></path><path d="M 1030.677980171 66.28290993071593 A 2 2 0 0 1 1032.677980171 68.28290993071593 L 1032.677980171 73.56581986143186 A 2 2 0 0 1 1030.677980171 75.56581986143186 L 455 75.56581986143186 A 0 0 0 0 1 455 75.56581986143186 L 455 66.28290993071593 A 0 0 0 0 1 455 66.28290993071593 Z" fill="#db4437" clip-path="url(#rablfilter8)"></path><path d="M 990.8502098266667 87.63972286374134 A 2 2 0 0 1 992.8502098266667 89.63972286374134 L 992.8502098266667 94.92263279445729 A 2 2 0 0 1 990.8502098266667 96.92263279445729 L 455 96.92263279445729 A 0 0 0 0 1 455 96.92263279445729 L 455 87.63972286374134 A 0 0 0 0 1 455 87.63972286374134 Z" fill="#4285f4" clip-path="url(#rablfilter8)"></path><path d="M 688.9543392406666 97.92263279445729 A 2 2 0 0 1 690.9543392406666 99.92263279445729 L 690.9543392406666 105.2055427251732 A 2 2 0 0 1 688.9543392406666 107.2055427251732 L 455 107.2055427251732 A 0 0 0 0 1 455 107.2055427251732 L 455 97.92263279445729 A 0 0 0 0 1 455 97.92263279445729 Z" fill="#db4437" clip-path="url(#rablfilter8)"></path><path d="M 881.051890206 119.27944572748268 A 2 2 0 0 1 883.051890206 121.27944572748268 L 883.051890206 126.56235565819861 A 2 2 0 0 1 881.051890206 128.5623556581986 L 455 128.5623556581986 A 0 0 0 0 1 455 128.5623556581986 L 455 119.27944572748268 A 0 0 0 0 1 455 119.27944572748268 Z" fill="#4285f4" clip-path="url(#rablfilter8)"></path><path d="M 606.759430363 129.5623556581986 A 2 2 0 0 1 608.759430363 131.5623556581986 L 608.759430363 136.84526558891457 A 2 2 0 0 1 606.759430363 138.84526558891457 L 455 138.84526558891457 A 0 0 0 0 1 455 138.84526558891457 L 455 129.5623556581986 A 0 0 0 0 1 455 129.5623556581986 Z" fill="#db4437" clip-path="url(#rablfilter8)"></path><path d="M 982.9829198870001 150.91916859122404 A 2 2 0 0 1 984.9829198870001 152.91916859122404 L 984.9829198870001 158.20207852193997 A 2 2 0 0 1 982.9829198870001 160.20207852193997 L 455 160.20207852193997 A 0 0 0 0 1 455 160.20207852193997 L 455 150.91916859122404 A 0 0 0 0 1 455 150.91916859122404 Z" fill="#4285f4" clip-path="url(#rablfilter8)"></path><path d="M 785.2150990949999 161.20207852193997 A 2 2 0 0 1 787.2150990949999 163.20207852193997 L 787.2150990949999 168.4849884526559 A 2 2 0 0 1 785.2150990949999 170.4849884526559 L 455 170.4849884526559 A 0 0 0 0 1 455 170.4849884526559 L 455 161.20207852193997 A 0 0 0 0 1 455 161.20207852193997 Z" fill="#db4437" clip-path="url(#rablfilter8)"></path><path d="M 1108.2489068056666 182.55889145496536 A 2 2 0 0 1 1110.2489068056666 184.55889145496536 L 1110.2489068056666 189.8418013856813 A 2 2 0 0 1 1108.2489068056666 191.8418013856813 L 455 191.8418013856813 A 0 0 0 0 1 455 191.8418013856813 L 455 182.55889145496536 A 0 0 0 0 1 455 182.55889145496536 Z" fill="#4285f4" clip-path="url(#rablfilter8)"></path><path d="M 1030.5098264316666 192.8418013856813 A 2 2 0 0 1 1032.5098264316666 194.8418013856813 L 1032.5098264316666 200.12471131639725 A 2 2 0 0 1 1030.5098264316666 202.12471131639725 L 455 202.12471131639725 A 0 0 0 0 1 455 202.12471131639725 L 455 192.8418013856813 A 0 0 0 0 1 455 192.8418013856813 Z" fill="#db4437" clip-path="url(#rablfilter8)"></path><path d="M 641.813489557 214.19861431870672 A 2 2 0 0 1 643.813489557 216.19861431870672 L 643.813489557 221.48152424942265 A 2 2 0 0 1 641.813489557 223.48152424942265 L 455 223.48152424942265 A 0 0 0 0 1 455 223.48152424942265 L 455 214.19861431870672 A 0 0 0 0 1 455 214.19861431870672 Z" fill="#4285f4" clip-path="url(#rablfilter8)"></path><path d="M 579.5456488806667 224.48152424942265 A 2 2 0 0 1 581.5456488806667 226.48152424942265 L 581.5456488806667 231.7644341801386 A 2 2 0 0 1 579.5456488806667 233.7644341801386 L 455 233.7644341801386 A 0 0 0 0 1 455 233.7644341801386 L 455 224.48152424942265 A 0 0 0 0 1 455 224.48152424942265 Z" fill="#db4437" clip-path="url(#rablfilter8)"></path><path d="M 925.3136190360001 245.83833718244807 A 2 2 0 0 1 927.3136190360001 247.83833718244807 L 927.3136190360001 253.121247113164 A 2 2 0 0 1 925.3136190360001 255.121247113164 L 455 255.121247113164 A 0 0 0 0 1 455 255.121247113164 L 455 245.83833718244807 A 0 0 0 0 1 455 245.83833718244807 Z" fill="#4285f4" clip-path="url(#rablfilter8)"></path><path d="M 880.053352572 256.12124711316403 A 2 2 0 0 1 882.053352572 258.12124711316403 L 882.053352572 263.40415704388 A 2 2 0 0 1 880.053352572 265.40415704388 L 455 265.40415704388 A 0 0 0 0 1 455 265.40415704388 L 455 256.12124711316403 A 0 0 0 0 1 455 256.12124711316403 Z" fill="#db4437" clip-path="url(#rablfilter8)"></path><path d="M 550.2491511323333 277.4780600461894 A 2 2 0 0 1 552.2491511323333 279.4780600461894 L 552.2491511323333 284.7609699769053 A 2 2 0 0 1 550.2491511323333 286.7609699769053 L 455 286.7609699769053 A 0 0 0 0 1 455 286.7609699769053 L 455 277.4780600461894 A 0 0 0 0 1 455 277.4780600461894 Z" fill="#4285f4" clip-path="url(#rablfilter8)"></path><path d="M 527.6765585673334 287.7609699769053 A 2 2 0 0 1 529.6765585673334 289.7609699769053 L 529.6765585673334 295.04387990762126 A 2 2 0 0 1 527.6765585673334 297.04387990762126 L 455 297.04387990762126 A 0 0 0 0 1 455 297.04387990762126 L 455 287.7609699769053 A 0 0 0 0 1 455 287.7609699769053 Z" fill="#db4437" clip-path="url(#rablfilter8)"></path><path d="M 545.79512256 309.1177829099307 A 2 2 0 0 1 547.79512256 311.1177829099307 L 547.79512256 316.4006928406467 A 2 2 0 0 1 545.79512256 318.4006928406467 L 455 318.4006928406467 A 0 0 0 0 1 455 318.4006928406467 L 455 309.1177829099307 A 0 0 0 0 1 455 309.1177829099307 Z" fill="#4285f4" clip-path="url(#rablfilter8)"></path><path d="M 526.7042174786667 319.4006928406467 A 2 2 0 0 1 528.7042174786667 321.4006928406467 L 528.7042174786667 326.6836027713626 A 2 2 0 0 1 526.7042174786667 328.6836027713626 L 455 328.6836027713626 A 0 0 0 0 1 455 328.6836027713626 L 455 319.4006928406467 A 0 0 0 0 1 455 319.4006928406467 Z" fill="#db4437" clip-path="url(#rablfilter8)"></path><path d="M 505.164744778 340.75750577367205 A 2 2 0 0 1 507.164744778 342.75750577367205 L 507.164744778 348.04041570438795 A 2 2 0 0 1 505.164744778 350.04041570438795 L 455 350.04041570438795 A 0 0 0 0 1 455 350.04041570438795 L 455 340.75750577367205 A 0 0 0 0 1 455 340.75750577367205 Z" fill="#4285f4" clip-path="url(#rablfilter8)"></path><path d="M 501.189801296 351.04041570438795 A 2 2 0 0 1 503.189801296 353.04041570438795 L 503.189801296 358.3233256351039 A 2 2 0 0 1 501.189801296 360.3233256351039 L 455 360.3233256351039 A 0 0 0 0 1 455 360.3233256351039 L 455 351.04041570438795 A 0 0 0 0 1 455 351.04041570438795 Z" fill="#db4437" clip-path="url(#rablfilter8)"></path><path d="M 488.11431849999997 372.39722863741343 A 2 2 0 0 1 490.11431849999997 374.39722863741343 L 490.11431849999997 379.68013856812934 A 2 2 0 0 1 488.11431849999997 381.68013856812934 L 455 381.68013856812934 A 0 0 0 0 1 455 381.68013856812934 L 455 372.39722863741343 A 0 0 0 0 1 455 372.39722863741343 Z" fill="#4285f4" clip-path="url(#rablfilter8)"></path><path d="M 484.17185774933336 382.68013856812934 A 2 2 0 0 1 486.17185774933336 384.68013856812934 L 486.17185774933336 389.96304849884524 A 2 2 0 0 1 484.17185774933336 391.96304849884524 L 455 391.96304849884524 A 0 0 0 0 1 455 391.96304849884524 L 455 382.68013856812934 A 0 0 0 0 1 455 382.68013856812934 Z" fill="#db4437" clip-path="url(#rablfilter8)"></path><path d="M 492.934628048 404.03695150115476 A 2 2 0 0 1 494.934628048 406.03695150115476 L 494.934628048 411.31986143187066 A 2 2 0 0 1 492.934628048 413.31986143187066 L 455 413.31986143187066 A 0 0 0 0 1 455 413.31986143187066 L 455 404.03695150115476 A 0 0 0 0 1 455 404.03695150115476 Z" fill="#4285f4" clip-path="url(#rablfilter8)"></path><path d="M 489.447368732 414.31986143187066 A 2 2 0 0 1 491.447368732 416.31986143187066 L 491.447368732 421.60277136258657 A 2 2 0 0 1 489.447368732 423.60277136258657 L 455 423.60277136258657 A 0 0 0 0 1 455 423.60277136258657 L 455 414.31986143187066 A 0 0 0 0 1 455 414.31986143187066 Z" fill="#db4437" clip-path="url(#rablfilter8)"></path><path d="M 484.325312786 435.67667436489614 A 2 2 0 0 1 486.325312786 437.67667436489614 L 486.325312786 442.95958429561205 A 2 2 0 0 1 484.325312786 444.95958429561205 L 455 444.95958429561205 A 0 0 0 0 1 455 444.95958429561205 L 455 435.67667436489614 A 0 0 0 0 1 455 435.67667436489614 Z" fill="#4285f4" clip-path="url(#rablfilter8)"></path><path d="M 481.35609498366665 445.95958429561205 A 2 2 0 0 1 483.35609498366665 447.95958429561205 L 483.35609498366665 453.24249422632795 A 2 2 0 0 1 481.35609498366665 455.24249422632795 L 455 455.24249422632795 A 0 0 0 0 1 455 455.24249422632795 L 455 445.95958429561205 A 0 0 0 0 1 455 445.95958429561205 Z" fill="#db4437" clip-path="url(#rablfilter8)"></path><path d="M 475.29776665366666 467.31639722863747 A 2 2 0 0 1 477.29776665366666 469.31639722863747 L 477.29776665366666 474.5993071593534 A 2 2 0 0 1 475.29776665366666 476.5993071593534 L 455 476.5993071593534 A 0 0 0 0 1 455 476.5993071593534 L 455 467.31639722863747 A 0 0 0 0 1 455 467.31639722863747 Z" fill="#4285f4" clip-path="url(#rablfilter8)"></path><path d="M 473.2269958456667 477.5993071593534 A 2 2 0 0 1 475.2269958456667 479.5993071593534 L 475.2269958456667 484.8822170900693 A 2 2 0 0 1 473.2269958456667 486.8822170900693 L 455 486.8822170900693 A 0 0 0 0 1 455 486.8822170900693 L 455 477.5993071593534 A 0 0 0 0 1 455 477.5993071593534 Z" fill="#db4437" clip-path="url(#rablfilter8)"></path><path d="M 510.779182957 498.9561200923788 A 2 2 0 0 1 512.779182957 500.9561200923788 L 512.779182957 506.2390300230947 A 2 2 0 0 1 510.779182957 508.2390300230947 L 455 508.2390300230947 A 0 0 0 0 1 455 508.2390300230947 L 455 498.9561200923788 A 0 0 0 0 1 455 498.9561200923788 Z" fill="#4285f4" clip-path="url(#rablfilter8)"></path><path d="M 508.86250577933333 509.2390300230947 A 2 2 0 0 1 510.86250577933333 511.2390300230947 L 510.86250577933333 516.5219399538106 A 2 2 0 0 1 508.86250577933333 518.5219399538106 L 455 518.5219399538106 A 0 0 0 0 1 455 518.5219399538106 L 455 509.2390300230947 A 0 0 0 0 1 455 509.2390300230947 Z" fill="#db4437" clip-path="url(#rablfilter8)"></path><path d="M 475.5227407086667 530.5958429561201 A 2 2 0 0 1 477.5227407086667 532.5958429561201 L 477.5227407086667 537.8787528868361 A 2 2 0 0 1 475.5227407086667 539.8787528868361 L 455 539.8787528868361 A 0 0 0 0 1 455 539.8787528868361 L 455 530.5958429561201 A 0 0 0 0 1 455 530.5958429561201 Z" fill="#4285f4" clip-path="url(#rablfilter8)"></path><path d="M 473.76500769533334 540.8787528868361 A 2 2 0 0 1 475.76500769533334 542.8787528868361 L 475.76500769533334 548.161662817552 A 2 2 0 0 1 473.76500769533334 550.161662817552 L 455 550.161662817552 A 0 0 0 0 1 455 550.161662817552 L 455 540.8787528868361 A 0 0 0 0 1 455 540.8787528868361 Z" fill="#db4437" clip-path="url(#rablfilter8)"></path><path d="M 466.89144368266665 562.2355658198614 A 2 2 0 0 1 468.89144368266665 564.2355658198614 L 468.89144368266665 569.5184757505773 A 2 2 0 0 1 466.89144368266665 571.5184757505773 L 455 571.5184757505773 A 0 0 0 0 1 455 571.5184757505773 L 455 562.2355658198614 A 0 0 0 0 1 455 562.2355658198614 Z" fill="#4285f4" clip-path="url(#rablfilter8)"></path><path d="M 465.9371044326667 572.5184757505773 A 2 2 0 0 1 467.9371044326667 574.5184757505773 L 467.9371044326667 579.8013856812934 A 2 2 0 0 1 465.9371044326667 581.8013856812934 L 455 581.8013856812934 A 0 0 0 0 1 455 581.8013856812934 L 455 572.5184757505773 A 0 0 0 0 1 455 572.5184757505773 Z" fill="#db4437" clip-path="url(#rablfilter8)"></path><path d="M 461.001498266 593.8752886836028 A 2 2 0 0 1 463.001498266 595.8752886836028 L 463.001498266 601.1581986143187 A 2 2 0 0 1 461.001498266 603.1581986143187 L 455 603.1581986143187 A 0 0 0 0 1 455 603.1581986143187 L 455 593.8752886836028 A 0 0 0 0 1 455 593.8752886836028 Z" fill="#4285f4" clip-path="url(#rablfilter8)"></path><path d="M 460.1470725666667 604.1581986143187 A 2 2 0 0 1 462.1470725666667 606.1581986143187 L 462.1470725666667 611.4411085450346 A 2 2 0 0 1 460.1470725666667 613.4411085450346 L 455 613.4411085450346 A 0 0 0 0 1 455 613.4411085450346 L 455 604.1581986143187 A 0 0 0 0 1 455 604.1581986143187 Z" fill="#db4437" clip-path="url(#rablfilter8)"></path><path d="M 462.707202468 625.5150115473441 A 2 2 0 0 1 464.707202468 627.5150115473441 L 464.707202468 632.7979214780601 A 2 2 0 0 1 462.707202468 634.7979214780601 L 455 634.7979214780601 A 0 0 0 0 1 455 634.7979214780601 L 455 625.5150115473441 A 0 0 0 0 1 455 625.5150115473441 Z" fill="#4285f4" clip-path="url(#rablfilter8)"></path><path d="M 461.867236196 635.7979214780601 A 2 2 0 0 1 463.867236196 637.7979214780601 L 463.867236196 643.0808314087759 A 2 2 0 0 1 461.867236196 645.0808314087759 L 455 645.0808314087759 A 0 0 0 0 1 455 645.0808314087759 L 455 635.7979214780601 A 0 0 0 0 1 455 635.7979214780601 Z" fill="#db4437" clip-path="url(#rablfilter8)"></path><path d="M 458.41614060033334 657.1547344110855 A 2 2 0 0 1 460.41614060033334 659.1547344110855 L 460.41614060033334 664.4376443418014 A 2 2 0 0 1 458.41614060033334 666.4376443418014 L 455 666.4376443418014 A 0 0 0 0 1 455 666.4376443418014 L 455 657.1547344110855 A 0 0 0 0 1 455 657.1547344110855 Z" fill="#4285f4" clip-path="url(#rablfilter8)"></path><path d="M 457.895686762 667.4376443418014 A 2 2 0 0 1 459.895686762 669.4376443418014 L 459.895686762 674.7205542725173 A 2 2 0 0 1 457.895686762 676.7205542725173 L 455 676.7205542725173 A 0 0 0 0 1 455 676.7205542725173 L 455 667.4376443418014 A 0 0 0 0 1 455 667.4376443418014 Z" fill="#db4437" clip-path="url(#rablfilter8)"></path><path d="M 455 688.7944572748269 A 1.5528004369999735 1.5528004369999735 0 0 1 456.552800437 690.3472577118268 L 456.552800437 696.5245667685427 A 1.5528004369999735 1.5528004369999735 0 0 1 455 698.0773672055427 L 455 698.0773672055427 A 0 0 0 0 1 455 698.0773672055427 L 455 688.7944572748269 A 0 0 0 0 1 455 688.7944572748269 Z" fill="#4285f4" clip-path="url(#rablfilter8)"></path><path d="M 455 699.0773672055427 A 1.5412381983333603 1.5412381983333603 0 0 1 456.54123819833336 700.618605403876 L 456.54123819833336 706.8190389379254 A 1.5412381983333603 1.5412381983333603 0 0 1 455 708.3602771362587 L 455 708.3602771362587 A 0 0 0 0 1 455 708.3602771362587 L 455 699.0773672055427 A 0 0 0 0 1 455 699.0773672055427 Z" fill="#db4437" clip-path="url(#rablfilter8)"></path><path d="M 467.254540213 720.4341801385682 A 2 2 0 0 1 469.254540213 722.4341801385682 L 469.254540213 727.717090069284 A 2 2 0 0 1 467.254540213 729.717090069284 L 455 729.717090069284 A 0 0 0 0 1 455 729.717090069284 L 455 720.4341801385682 A 0 0 0 0 1 455 720.4341801385682 Z" fill="#4285f4" clip-path="url(#rablfilter8)"></path><path d="M 467.31181445733336 730.717090069284 A 2 2 0 0 1 469.31181445733336 732.717090069284 L 469.31181445733336 738 A 2 2 0 0 1 467.31181445733336 740 L 455 740 A 0 0 0 0 1 455 740 L 455 730.717090069284 A 0 0 0 0 1 455 730.717090069284 Z" fill="#db4437" clip-path="url(#rablfilter8)"></path></g><g></g><g><text x="454.5" y="769.5" style="cursor: default; user-select: none; -webkit-font-smoothing: antialiased; font-family: Roboto; font-size: 12px;" fill="#757575" dx="-3.375px">0</text><text x="612.3333333333333" y="769.5" style="cursor: default; user-select: none; -webkit-font-smoothing: antialiased; font-family: Roboto; font-size: 12px;" fill="#757575" dx="-10.109375px">500</text><text x="770.1666666666666" y="769.5" style="cursor: default; user-select: none; -webkit-font-smoothing: antialiased; font-family: Roboto; font-size: 12px;" fill="#757575" dx="-7.1328125px">1K</text><text x="928" y="769.5" style="cursor: default; user-select: none; -webkit-font-smoothing: antialiased; font-family: Roboto; font-size: 12px;" fill="#757575" dx="-12.0859375px">1.5K</text><text x="1085.8333333333333" y="769.5" style="cursor: default; user-select: none; -webkit-font-smoothing: antialiased; font-family: Roboto; font-size: 12px;" fill="#757575" dx="-7.1328125px">2K</text><text x="1243.6666666666667" y="769.5" style="cursor: default; user-select: none; -webkit-font-smoothing: antialiased; font-family: Roboto; font-size: 12px;" fill="#757575" dx="-12.0859375px">2.5K</text><text x="1401.5" y="769.5" style="cursor: default; user-select: none; -webkit-font-smoothing: antialiased; font-family: Roboto; font-size: 12px;" fill="#757575" dx="-7.1328125px">3K</text><text x="929.9345703125" y="801.5" style="cursor: default; user-select: none; -webkit-font-smoothing: antialiased; font-family: Roboto; font-size: 12px;" fill="#424242" dx="-33.625px">Render Time</text><text x="448.5" y="69.78290665342405" style="cursor: default; user-select: none; -webkit-font-smoothing: antialiased; font-family: Roboto; font-size: 12px;" fill="#757575" dx="-240.125px">DailyDweeb-CameraShape-raytracing-embree</text><text x="448.5" y="101.42263527885598" style="cursor: default; user-select: none; -webkit-font-smoothing: antialiased; font-family: Roboto; font-size: 12px;" fill="#757575" dx="-287.859375px">DailyDweeb-CameraShape-ambient_occlusion-embree</text><text x="448.5" y="133.0623486454988" style="cursor: default; user-select: none; -webkit-font-smoothing: antialiased; font-family: Roboto; font-size: 12px;" fill="#757575" dx="-220.5625px">DailyDweeb-CameraShape-debug-embree</text><text x="448.5" y="164.70208490032525" style="cursor: default; user-select: none; -webkit-font-smoothing: antialiased; font-family: Roboto; font-size: 12px;" fill="#757575" dx="-257.390625px">EmperorCrown-CameraShape-raytracing-embree</text><text x="448.5" y="196.3418058963626" style="cursor: default; user-select: none; -webkit-font-smoothing: antialiased; font-family: Roboto; font-size: 12px;" fill="#757575" dx="-259.078125px">Intel_Sponza-PhysCamera001-raytracing-embree</text><text x="448.5" y="227.98152689239998" style="cursor: default; user-select: none; -webkit-font-smoothing: antialiased; font-family: Roboto; font-size: 12px;" fill="#757575" dx="-239.671875px">StormTrooper-render_cam-raytracing-embree</text><text x="448.5" y="259.6212478884374" style="cursor: default; user-select: none; -webkit-font-smoothing: antialiased; font-family: Roboto; font-size: 12px;" fill="#757575" dx="-367.4375px">Intel_Sponza_Candles_Thin_Lens-PhysCamera002-raytracing-embree</text><text x="448.5" y="291.2609841432637" style="cursor: default; user-select: none; -webkit-font-smoothing: antialiased; font-family: Roboto; font-size: 12px;" fill="#757575" dx="-289.828125px">OpenChessSet-render_cam_7Shape-raytracing-embree</text><text x="448.5" y="322.9006898805121" style="cursor: default; user-select: none; -webkit-font-smoothing: antialiased; font-family: Roboto; font-size: 12px;" fill="#757575" dx="-223.484375px">CornellBox-render_cam-raytracing-embree</text><text x="448.5" y="354.5404261353384" style="cursor: default; user-select: none; -webkit-font-smoothing: antialiased; font-family: Roboto; font-size: 12px;" fill="#757575" dx="-259.71875px">HsdLogo-render_cam_1Shape-raytracing-embree</text><text x="448.5" y="386.1801318725868" style="cursor: default; user-select: none; -webkit-font-smoothing: antialiased; font-family: Roboto; font-size: 12px;" fill="#757575" dx="-307.453125px">HsdLogo-render_cam_1Shape-ambient_occlusion-embree</text><text x="448.5" y="417.8198681274132" style="cursor: default; user-select: none; -webkit-font-smoothing: antialiased; font-family: Roboto; font-size: 12px;" fill="#757575" dx="-337.578125px">OpenChessSet-render_cam_7Shape-ambient_occlusion-embree</text><text x="448.5" y="449.4595738646616" style="cursor: default; user-select: none; -webkit-font-smoothing: antialiased; font-family: Roboto; font-size: 12px;" fill="#757575" dx="-305.140625px">EmperorCrown-CameraShape-ambient_occlusion-embree</text><text x="448.5" y="481.099310119488" style="cursor: default; user-select: none; -webkit-font-smoothing: antialiased; font-family: Roboto; font-size: 12px;" fill="#757575" dx="-287.40625px">StormTrooper-render_cam-ambient_occlusion-embree</text><text x="448.5" y="512.7390158567363" style="cursor: default; user-select: none; -webkit-font-smoothing: antialiased; font-family: Roboto; font-size: 12px;" fill="#757575" dx="-282.125px">Blenderman-Camera_001-ambient_occlusion-embree</text><text x="448.5" y="544.3787826291409" style="cursor: default; user-select: none; -webkit-font-smoothing: antialiased; font-family: Roboto; font-size: 12px;" fill="#757575" dx="-220.109375px">StormTrooper-render_cam-debug-embree</text><text x="448.5" y="576.0184578488108" style="cursor: default; user-select: none; -webkit-font-smoothing: antialiased; font-family: Roboto; font-size: 12px;" fill="#757575" dx="-415.171875px">Intel_Sponza_Candles_Thin_Lens-PhysCamera002-ambient_occlusion-embree</text><text x="448.5" y="607.6581941036375" style="cursor: default; user-select: none; -webkit-font-smoothing: antialiased; font-family: Roboto; font-size: 12px;" fill="#757575" dx="-237.84375px">EmperorCrown-CameraShape-debug-embree</text><text x="448.5" y="639.2979303584639" style="cursor: default; user-select: none; -webkit-font-smoothing: antialiased; font-family: Roboto; font-size: 12px;" fill="#757575" dx="-381.578125px">Intel_mooreLane-MASTER_cameraExtended-ambient_occlusion-embree</text><text x="448.5" y="670.9376666132903" style="cursor: default; user-select: none; -webkit-font-smoothing: antialiased; font-family: Roboto; font-size: 12px;" fill="#757575" dx="-306.8125px">Intel_Sponza-PhysCamera001-ambient_occlusion-embree</text><text x="448.5" y="702.5773418329604" style="cursor: default; user-select: none; -webkit-font-smoothing: antialiased; font-family: Roboto; font-size: 12px;" fill="#757575" dx="-271.21875px">CornellBox-render_cam-ambient_occlusion-embree</text><text x="448.5" y="734.2170780877868" style="cursor: default; user-select: none; -webkit-font-smoothing: antialiased; font-family: Roboto; font-size: 12px;" fill="#757575" dx="-214.828125px">Blenderman-Camera_001-debug-embree</text><text x="14.697265625" y="395" style="cursor: default; user-select: none; -webkit-font-smoothing: antialiased; font-family: Roboto; font-size: 12px;" fill="#424242" dx="-16.375px" transform="rotate(-90 14.697265625 398)">Scene</text></g><g></g><g></g><g></g></svg>